G04 #@! TF.GenerationSoftware,KiCad,Pcbnew,(5.1.5)-3*
G04 #@! TF.CreationDate,2021-05-08T00:02:10-05:00*
G04 #@! TF.ProjectId,MacroPad,4d616372-6f50-4616-942e-6b696361645f,rev?*
G04 #@! TF.SameCoordinates,Original*
G04 #@! TF.FileFunction,Paste,Top*
G04 #@! TF.FilePolarity,Positive*
%FSLAX46Y46*%
G04 Gerber Fmt 4.6, Leading zero omitted, Abs format (unit mm)*
G04 Created by KiCad (PCBNEW (5.1.5)-3) date 2021-05-08 00:02:10*
%MOMM*%
%LPD*%
G04 APERTURE LIST*
%ADD10R,1.200000X1.200000*%
%ADD11R,2.550000X2.500000*%
G04 APERTURE END LIST*
D10*
X160337500Y-98412500D03*
X160337500Y-95262500D03*
D11*
X127416250Y-141128750D03*
X113566250Y-138588750D03*
X127416250Y-103028750D03*
X113566250Y-100488750D03*
X127416250Y-74453750D03*
X113566250Y-71913750D03*
X108366250Y-150653750D03*
X94516250Y-148113750D03*
X108366250Y-131603750D03*
X94516250Y-129063750D03*
X108366250Y-112553750D03*
X94516250Y-110013750D03*
X108366250Y-93503750D03*
X94516250Y-90963750D03*
X108366250Y-74453750D03*
X94516250Y-71913750D03*
X89316250Y-131603750D03*
X75466250Y-129063750D03*
X89316250Y-112553750D03*
X75466250Y-110013750D03*
X89316250Y-93503750D03*
X75466250Y-90963750D03*
X89316250Y-74453750D03*
X75466250Y-71913750D03*
X79791250Y-150653750D03*
X65941250Y-148113750D03*
X70266250Y-131603750D03*
X56416250Y-129063750D03*
X70266250Y-112553750D03*
X56416250Y-110013750D03*
X70266250Y-93503750D03*
X56416250Y-90963750D03*
D10*
X153416000Y-158185250D03*
X153416000Y-155035250D03*
X139128500Y-110343750D03*
X139128500Y-113493750D03*
X139128500Y-98412500D03*
X139128500Y-95262500D03*
X146272250Y-155047750D03*
X146272250Y-158197750D03*
X153416000Y-140760250D03*
X153416000Y-143910250D03*
X138906250Y-125583750D03*
X138906250Y-128733750D03*
X146272250Y-110343750D03*
X146272250Y-113493750D03*
X146272250Y-98412500D03*
X146272250Y-95262500D03*
X146272250Y-140760250D03*
X146272250Y-143910250D03*
X146272250Y-125583750D03*
X146272250Y-128733750D03*
X153193750Y-110343750D03*
X153193750Y-113493750D03*
X153416000Y-98412500D03*
X153416000Y-95262500D03*
X139128500Y-158197750D03*
X139128500Y-155047750D03*
X139128500Y-140760250D03*
X139128500Y-143910250D03*
X153416000Y-125583750D03*
X153416000Y-128733750D03*
X160337500Y-110343750D03*
X160337500Y-113493750D03*
M02*
