G04 #@! TF.GenerationSoftware,KiCad,Pcbnew,(5.1.5)-3*
G04 #@! TF.CreationDate,2021-05-08T00:02:10-05:00*
G04 #@! TF.ProjectId,MacroPad,4d616372-6f50-4616-942e-6b696361645f,rev?*
G04 #@! TF.SameCoordinates,Original*
G04 #@! TF.FileFunction,Legend,Top*
G04 #@! TF.FilePolarity,Positive*
%FSLAX46Y46*%
G04 Gerber Fmt 4.6, Leading zero omitted, Abs format (unit mm)*
G04 Created by KiCad (PCBNEW (5.1.5)-3) date 2021-05-08 00:02:10*
%MOMM*%
%LPD*%
G04 APERTURE LIST*
%ADD10C,0.200000*%
%ADD11C,0.150000*%
%ADD12C,0.203200*%
G04 APERTURE END LIST*
D10*
X161537500Y-94037500D02*
X161537500Y-99837500D01*
X159137500Y-94037500D02*
X161537500Y-94037500D01*
X159137500Y-99837500D02*
X159137500Y-94037500D01*
X159137500Y-99762500D02*
X161537500Y-99762500D01*
X159137500Y-99637500D02*
X161537500Y-99637500D01*
X161537500Y-99862500D02*
X159137500Y-99862500D01*
X159137500Y-99462500D02*
X161537500Y-99462500D01*
X159137500Y-99287500D02*
X161537500Y-99287500D01*
X159137500Y-99112500D02*
X161537500Y-99112500D01*
D11*
X114776250Y-136683750D02*
X114776250Y-137064750D01*
X123666250Y-136683750D02*
X114776250Y-136683750D01*
X126206250Y-139223750D02*
X126206250Y-139604750D01*
X125825250Y-143033750D02*
X126206250Y-143033750D01*
X122320412Y-143033750D02*
X124047250Y-143033750D01*
X114776250Y-141128750D02*
X119856250Y-141128750D01*
X114776250Y-140112750D02*
X114776250Y-141128750D01*
X122320412Y-143052710D02*
G75*
G03X119856250Y-141128750I-2464162J-616040D01*
G01*
X126206250Y-142652750D02*
X126206250Y-143033750D01*
X126206250Y-139223750D02*
G75*
G03X123666250Y-136683750I-2540000J0D01*
G01*
X114776250Y-98583750D02*
X114776250Y-98964750D01*
X123666250Y-98583750D02*
X114776250Y-98583750D01*
X126206250Y-101123750D02*
X126206250Y-101504750D01*
X125825250Y-104933750D02*
X126206250Y-104933750D01*
X122320412Y-104933750D02*
X124047250Y-104933750D01*
X114776250Y-103028750D02*
X119856250Y-103028750D01*
X114776250Y-102012750D02*
X114776250Y-103028750D01*
X122320412Y-104952710D02*
G75*
G03X119856250Y-103028750I-2464162J-616040D01*
G01*
X126206250Y-104552750D02*
X126206250Y-104933750D01*
X126206250Y-101123750D02*
G75*
G03X123666250Y-98583750I-2540000J0D01*
G01*
X114776250Y-70008750D02*
X114776250Y-70389750D01*
X123666250Y-70008750D02*
X114776250Y-70008750D01*
X126206250Y-72548750D02*
X126206250Y-72929750D01*
X125825250Y-76358750D02*
X126206250Y-76358750D01*
X122320412Y-76358750D02*
X124047250Y-76358750D01*
X114776250Y-74453750D02*
X119856250Y-74453750D01*
X114776250Y-73437750D02*
X114776250Y-74453750D01*
X122320412Y-76377710D02*
G75*
G03X119856250Y-74453750I-2464162J-616040D01*
G01*
X126206250Y-75977750D02*
X126206250Y-76358750D01*
X126206250Y-72548750D02*
G75*
G03X123666250Y-70008750I-2540000J0D01*
G01*
X95726250Y-146208750D02*
X95726250Y-146589750D01*
X104616250Y-146208750D02*
X95726250Y-146208750D01*
X107156250Y-148748750D02*
X107156250Y-149129750D01*
X106775250Y-152558750D02*
X107156250Y-152558750D01*
X103270412Y-152558750D02*
X104997250Y-152558750D01*
X95726250Y-150653750D02*
X100806250Y-150653750D01*
X95726250Y-149637750D02*
X95726250Y-150653750D01*
X103270412Y-152577710D02*
G75*
G03X100806250Y-150653750I-2464162J-616040D01*
G01*
X107156250Y-152177750D02*
X107156250Y-152558750D01*
X107156250Y-148748750D02*
G75*
G03X104616250Y-146208750I-2540000J0D01*
G01*
X95726250Y-127158750D02*
X95726250Y-127539750D01*
X104616250Y-127158750D02*
X95726250Y-127158750D01*
X107156250Y-129698750D02*
X107156250Y-130079750D01*
X106775250Y-133508750D02*
X107156250Y-133508750D01*
X103270412Y-133508750D02*
X104997250Y-133508750D01*
X95726250Y-131603750D02*
X100806250Y-131603750D01*
X95726250Y-130587750D02*
X95726250Y-131603750D01*
X103270412Y-133527710D02*
G75*
G03X100806250Y-131603750I-2464162J-616040D01*
G01*
X107156250Y-133127750D02*
X107156250Y-133508750D01*
X107156250Y-129698750D02*
G75*
G03X104616250Y-127158750I-2540000J0D01*
G01*
X95726250Y-108108750D02*
X95726250Y-108489750D01*
X104616250Y-108108750D02*
X95726250Y-108108750D01*
X107156250Y-110648750D02*
X107156250Y-111029750D01*
X106775250Y-114458750D02*
X107156250Y-114458750D01*
X103270412Y-114458750D02*
X104997250Y-114458750D01*
X95726250Y-112553750D02*
X100806250Y-112553750D01*
X95726250Y-111537750D02*
X95726250Y-112553750D01*
X103270412Y-114477710D02*
G75*
G03X100806250Y-112553750I-2464162J-616040D01*
G01*
X107156250Y-114077750D02*
X107156250Y-114458750D01*
X107156250Y-110648750D02*
G75*
G03X104616250Y-108108750I-2540000J0D01*
G01*
X95726250Y-89058750D02*
X95726250Y-89439750D01*
X104616250Y-89058750D02*
X95726250Y-89058750D01*
X107156250Y-91598750D02*
X107156250Y-91979750D01*
X106775250Y-95408750D02*
X107156250Y-95408750D01*
X103270412Y-95408750D02*
X104997250Y-95408750D01*
X95726250Y-93503750D02*
X100806250Y-93503750D01*
X95726250Y-92487750D02*
X95726250Y-93503750D01*
X103270412Y-95427710D02*
G75*
G03X100806250Y-93503750I-2464162J-616040D01*
G01*
X107156250Y-95027750D02*
X107156250Y-95408750D01*
X107156250Y-91598750D02*
G75*
G03X104616250Y-89058750I-2540000J0D01*
G01*
X95726250Y-70008750D02*
X95726250Y-70389750D01*
X104616250Y-70008750D02*
X95726250Y-70008750D01*
X107156250Y-72548750D02*
X107156250Y-72929750D01*
X106775250Y-76358750D02*
X107156250Y-76358750D01*
X103270412Y-76358750D02*
X104997250Y-76358750D01*
X95726250Y-74453750D02*
X100806250Y-74453750D01*
X95726250Y-73437750D02*
X95726250Y-74453750D01*
X103270412Y-76377710D02*
G75*
G03X100806250Y-74453750I-2464162J-616040D01*
G01*
X107156250Y-75977750D02*
X107156250Y-76358750D01*
X107156250Y-72548750D02*
G75*
G03X104616250Y-70008750I-2540000J0D01*
G01*
X76676250Y-127158750D02*
X76676250Y-127539750D01*
X85566250Y-127158750D02*
X76676250Y-127158750D01*
X88106250Y-129698750D02*
X88106250Y-130079750D01*
X87725250Y-133508750D02*
X88106250Y-133508750D01*
X84220412Y-133508750D02*
X85947250Y-133508750D01*
X76676250Y-131603750D02*
X81756250Y-131603750D01*
X76676250Y-130587750D02*
X76676250Y-131603750D01*
X84220412Y-133527710D02*
G75*
G03X81756250Y-131603750I-2464162J-616040D01*
G01*
X88106250Y-133127750D02*
X88106250Y-133508750D01*
X88106250Y-129698750D02*
G75*
G03X85566250Y-127158750I-2540000J0D01*
G01*
X76676250Y-108108750D02*
X76676250Y-108489750D01*
X85566250Y-108108750D02*
X76676250Y-108108750D01*
X88106250Y-110648750D02*
X88106250Y-111029750D01*
X87725250Y-114458750D02*
X88106250Y-114458750D01*
X84220412Y-114458750D02*
X85947250Y-114458750D01*
X76676250Y-112553750D02*
X81756250Y-112553750D01*
X76676250Y-111537750D02*
X76676250Y-112553750D01*
X84220412Y-114477710D02*
G75*
G03X81756250Y-112553750I-2464162J-616040D01*
G01*
X88106250Y-114077750D02*
X88106250Y-114458750D01*
X88106250Y-110648750D02*
G75*
G03X85566250Y-108108750I-2540000J0D01*
G01*
X76676250Y-89058750D02*
X76676250Y-89439750D01*
X85566250Y-89058750D02*
X76676250Y-89058750D01*
X88106250Y-91598750D02*
X88106250Y-91979750D01*
X87725250Y-95408750D02*
X88106250Y-95408750D01*
X84220412Y-95408750D02*
X85947250Y-95408750D01*
X76676250Y-93503750D02*
X81756250Y-93503750D01*
X76676250Y-92487750D02*
X76676250Y-93503750D01*
X84220412Y-95427710D02*
G75*
G03X81756250Y-93503750I-2464162J-616040D01*
G01*
X88106250Y-95027750D02*
X88106250Y-95408750D01*
X88106250Y-91598750D02*
G75*
G03X85566250Y-89058750I-2540000J0D01*
G01*
X76676250Y-70008750D02*
X76676250Y-70389750D01*
X85566250Y-70008750D02*
X76676250Y-70008750D01*
X88106250Y-72548750D02*
X88106250Y-72929750D01*
X87725250Y-76358750D02*
X88106250Y-76358750D01*
X84220412Y-76358750D02*
X85947250Y-76358750D01*
X76676250Y-74453750D02*
X81756250Y-74453750D01*
X76676250Y-73437750D02*
X76676250Y-74453750D01*
X84220412Y-76377710D02*
G75*
G03X81756250Y-74453750I-2464162J-616040D01*
G01*
X88106250Y-75977750D02*
X88106250Y-76358750D01*
X88106250Y-72548750D02*
G75*
G03X85566250Y-70008750I-2540000J0D01*
G01*
X67151250Y-146208750D02*
X67151250Y-146589750D01*
X76041250Y-146208750D02*
X67151250Y-146208750D01*
X78581250Y-148748750D02*
X78581250Y-149129750D01*
X78200250Y-152558750D02*
X78581250Y-152558750D01*
X74695412Y-152558750D02*
X76422250Y-152558750D01*
X67151250Y-150653750D02*
X72231250Y-150653750D01*
X67151250Y-149637750D02*
X67151250Y-150653750D01*
X74695412Y-152577710D02*
G75*
G03X72231250Y-150653750I-2464162J-616040D01*
G01*
X78581250Y-152177750D02*
X78581250Y-152558750D01*
X78581250Y-148748750D02*
G75*
G03X76041250Y-146208750I-2540000J0D01*
G01*
X57626250Y-127158750D02*
X57626250Y-127539750D01*
X66516250Y-127158750D02*
X57626250Y-127158750D01*
X69056250Y-129698750D02*
X69056250Y-130079750D01*
X68675250Y-133508750D02*
X69056250Y-133508750D01*
X65170412Y-133508750D02*
X66897250Y-133508750D01*
X57626250Y-131603750D02*
X62706250Y-131603750D01*
X57626250Y-130587750D02*
X57626250Y-131603750D01*
X65170412Y-133527710D02*
G75*
G03X62706250Y-131603750I-2464162J-616040D01*
G01*
X69056250Y-133127750D02*
X69056250Y-133508750D01*
X69056250Y-129698750D02*
G75*
G03X66516250Y-127158750I-2540000J0D01*
G01*
X57626250Y-108108750D02*
X57626250Y-108489750D01*
X66516250Y-108108750D02*
X57626250Y-108108750D01*
X69056250Y-110648750D02*
X69056250Y-111029750D01*
X68675250Y-114458750D02*
X69056250Y-114458750D01*
X65170412Y-114458750D02*
X66897250Y-114458750D01*
X57626250Y-112553750D02*
X62706250Y-112553750D01*
X57626250Y-111537750D02*
X57626250Y-112553750D01*
X65170412Y-114477710D02*
G75*
G03X62706250Y-112553750I-2464162J-616040D01*
G01*
X69056250Y-114077750D02*
X69056250Y-114458750D01*
X69056250Y-110648750D02*
G75*
G03X66516250Y-108108750I-2540000J0D01*
G01*
X57626250Y-89058750D02*
X57626250Y-89439750D01*
X66516250Y-89058750D02*
X57626250Y-89058750D01*
X69056250Y-91598750D02*
X69056250Y-91979750D01*
X68675250Y-95408750D02*
X69056250Y-95408750D01*
X65170412Y-95408750D02*
X66897250Y-95408750D01*
X57626250Y-93503750D02*
X62706250Y-93503750D01*
X57626250Y-92487750D02*
X57626250Y-93503750D01*
X65170412Y-95427710D02*
G75*
G03X62706250Y-93503750I-2464162J-616040D01*
G01*
X69056250Y-95027750D02*
X69056250Y-95408750D01*
X69056250Y-91598750D02*
G75*
G03X66516250Y-89058750I-2540000J0D01*
G01*
D10*
X140065600Y-53808950D02*
X140865600Y-53808950D01*
X140865600Y-53808950D02*
X140865600Y-51258950D01*
X140865600Y-51258950D02*
X140065600Y-51258950D01*
D12*
X140055600Y-48748950D02*
X140055600Y-56368950D01*
X134975600Y-56368950D02*
X134975600Y-48748950D01*
X134975600Y-48748950D02*
X140055600Y-48748950D01*
X140055600Y-56368950D02*
X134975600Y-56368950D01*
D10*
X154616000Y-153810250D02*
X154616000Y-159610250D01*
X152216000Y-153810250D02*
X154616000Y-153810250D01*
X152216000Y-159610250D02*
X152216000Y-153810250D01*
X152216000Y-159535250D02*
X154616000Y-159535250D01*
X152216000Y-159410250D02*
X154616000Y-159410250D01*
X154616000Y-159635250D02*
X152216000Y-159635250D01*
X152216000Y-159235250D02*
X154616000Y-159235250D01*
X152216000Y-159060250D02*
X154616000Y-159060250D01*
X152216000Y-158885250D02*
X154616000Y-158885250D01*
X137928500Y-114193750D02*
X140328500Y-114193750D01*
X137928500Y-114368750D02*
X140328500Y-114368750D01*
X137928500Y-114543750D02*
X140328500Y-114543750D01*
X140328500Y-114943750D02*
X137928500Y-114943750D01*
X137928500Y-114718750D02*
X140328500Y-114718750D01*
X137928500Y-114843750D02*
X140328500Y-114843750D01*
X137928500Y-114918750D02*
X137928500Y-109118750D01*
X137928500Y-109118750D02*
X140328500Y-109118750D01*
X140328500Y-109118750D02*
X140328500Y-114918750D01*
X140328500Y-94037500D02*
X140328500Y-99837500D01*
X137928500Y-94037500D02*
X140328500Y-94037500D01*
X137928500Y-99837500D02*
X137928500Y-94037500D01*
X137928500Y-99762500D02*
X140328500Y-99762500D01*
X137928500Y-99637500D02*
X140328500Y-99637500D01*
X140328500Y-99862500D02*
X137928500Y-99862500D01*
X137928500Y-99462500D02*
X140328500Y-99462500D01*
X137928500Y-99287500D02*
X140328500Y-99287500D01*
X137928500Y-99112500D02*
X140328500Y-99112500D01*
X145072250Y-158897750D02*
X147472250Y-158897750D01*
X145072250Y-159072750D02*
X147472250Y-159072750D01*
X145072250Y-159247750D02*
X147472250Y-159247750D01*
X147472250Y-159647750D02*
X145072250Y-159647750D01*
X145072250Y-159422750D02*
X147472250Y-159422750D01*
X145072250Y-159547750D02*
X147472250Y-159547750D01*
X145072250Y-159622750D02*
X145072250Y-153822750D01*
X145072250Y-153822750D02*
X147472250Y-153822750D01*
X147472250Y-153822750D02*
X147472250Y-159622750D01*
X152216000Y-144610250D02*
X154616000Y-144610250D01*
X152216000Y-144785250D02*
X154616000Y-144785250D01*
X152216000Y-144960250D02*
X154616000Y-144960250D01*
X154616000Y-145360250D02*
X152216000Y-145360250D01*
X152216000Y-145135250D02*
X154616000Y-145135250D01*
X152216000Y-145260250D02*
X154616000Y-145260250D01*
X152216000Y-145335250D02*
X152216000Y-139535250D01*
X152216000Y-139535250D02*
X154616000Y-139535250D01*
X154616000Y-139535250D02*
X154616000Y-145335250D01*
X137706250Y-129433750D02*
X140106250Y-129433750D01*
X137706250Y-129608750D02*
X140106250Y-129608750D01*
X137706250Y-129783750D02*
X140106250Y-129783750D01*
X140106250Y-130183750D02*
X137706250Y-130183750D01*
X137706250Y-129958750D02*
X140106250Y-129958750D01*
X137706250Y-130083750D02*
X140106250Y-130083750D01*
X137706250Y-130158750D02*
X137706250Y-124358750D01*
X137706250Y-124358750D02*
X140106250Y-124358750D01*
X140106250Y-124358750D02*
X140106250Y-130158750D01*
X145072250Y-114193750D02*
X147472250Y-114193750D01*
X145072250Y-114368750D02*
X147472250Y-114368750D01*
X145072250Y-114543750D02*
X147472250Y-114543750D01*
X147472250Y-114943750D02*
X145072250Y-114943750D01*
X145072250Y-114718750D02*
X147472250Y-114718750D01*
X145072250Y-114843750D02*
X147472250Y-114843750D01*
X145072250Y-114918750D02*
X145072250Y-109118750D01*
X145072250Y-109118750D02*
X147472250Y-109118750D01*
X147472250Y-109118750D02*
X147472250Y-114918750D01*
X147472250Y-94037500D02*
X147472250Y-99837500D01*
X145072250Y-94037500D02*
X147472250Y-94037500D01*
X145072250Y-99837500D02*
X145072250Y-94037500D01*
X145072250Y-99762500D02*
X147472250Y-99762500D01*
X145072250Y-99637500D02*
X147472250Y-99637500D01*
X147472250Y-99862500D02*
X145072250Y-99862500D01*
X145072250Y-99462500D02*
X147472250Y-99462500D01*
X145072250Y-99287500D02*
X147472250Y-99287500D01*
X145072250Y-99112500D02*
X147472250Y-99112500D01*
X145072250Y-144610250D02*
X147472250Y-144610250D01*
X145072250Y-144785250D02*
X147472250Y-144785250D01*
X145072250Y-144960250D02*
X147472250Y-144960250D01*
X147472250Y-145360250D02*
X145072250Y-145360250D01*
X145072250Y-145135250D02*
X147472250Y-145135250D01*
X145072250Y-145260250D02*
X147472250Y-145260250D01*
X145072250Y-145335250D02*
X145072250Y-139535250D01*
X145072250Y-139535250D02*
X147472250Y-139535250D01*
X147472250Y-139535250D02*
X147472250Y-145335250D01*
X145072250Y-129433750D02*
X147472250Y-129433750D01*
X145072250Y-129608750D02*
X147472250Y-129608750D01*
X145072250Y-129783750D02*
X147472250Y-129783750D01*
X147472250Y-130183750D02*
X145072250Y-130183750D01*
X145072250Y-129958750D02*
X147472250Y-129958750D01*
X145072250Y-130083750D02*
X147472250Y-130083750D01*
X145072250Y-130158750D02*
X145072250Y-124358750D01*
X145072250Y-124358750D02*
X147472250Y-124358750D01*
X147472250Y-124358750D02*
X147472250Y-130158750D01*
X151993750Y-114193750D02*
X154393750Y-114193750D01*
X151993750Y-114368750D02*
X154393750Y-114368750D01*
X151993750Y-114543750D02*
X154393750Y-114543750D01*
X154393750Y-114943750D02*
X151993750Y-114943750D01*
X151993750Y-114718750D02*
X154393750Y-114718750D01*
X151993750Y-114843750D02*
X154393750Y-114843750D01*
X151993750Y-114918750D02*
X151993750Y-109118750D01*
X151993750Y-109118750D02*
X154393750Y-109118750D01*
X154393750Y-109118750D02*
X154393750Y-114918750D01*
X154616000Y-94037500D02*
X154616000Y-99837500D01*
X152216000Y-94037500D02*
X154616000Y-94037500D01*
X152216000Y-99837500D02*
X152216000Y-94037500D01*
X152216000Y-99762500D02*
X154616000Y-99762500D01*
X152216000Y-99637500D02*
X154616000Y-99637500D01*
X154616000Y-99862500D02*
X152216000Y-99862500D01*
X152216000Y-99462500D02*
X154616000Y-99462500D01*
X152216000Y-99287500D02*
X154616000Y-99287500D01*
X152216000Y-99112500D02*
X154616000Y-99112500D01*
X140328500Y-153822750D02*
X140328500Y-159622750D01*
X137928500Y-153822750D02*
X140328500Y-153822750D01*
X137928500Y-159622750D02*
X137928500Y-153822750D01*
X137928500Y-159547750D02*
X140328500Y-159547750D01*
X137928500Y-159422750D02*
X140328500Y-159422750D01*
X140328500Y-159647750D02*
X137928500Y-159647750D01*
X137928500Y-159247750D02*
X140328500Y-159247750D01*
X137928500Y-159072750D02*
X140328500Y-159072750D01*
X137928500Y-158897750D02*
X140328500Y-158897750D01*
X137928500Y-144610250D02*
X140328500Y-144610250D01*
X137928500Y-144785250D02*
X140328500Y-144785250D01*
X137928500Y-144960250D02*
X140328500Y-144960250D01*
X140328500Y-145360250D02*
X137928500Y-145360250D01*
X137928500Y-145135250D02*
X140328500Y-145135250D01*
X137928500Y-145260250D02*
X140328500Y-145260250D01*
X137928500Y-145335250D02*
X137928500Y-139535250D01*
X137928500Y-139535250D02*
X140328500Y-139535250D01*
X140328500Y-139535250D02*
X140328500Y-145335250D01*
X152216000Y-129433750D02*
X154616000Y-129433750D01*
X152216000Y-129608750D02*
X154616000Y-129608750D01*
X152216000Y-129783750D02*
X154616000Y-129783750D01*
X154616000Y-130183750D02*
X152216000Y-130183750D01*
X152216000Y-129958750D02*
X154616000Y-129958750D01*
X152216000Y-130083750D02*
X154616000Y-130083750D01*
X152216000Y-130158750D02*
X152216000Y-124358750D01*
X152216000Y-124358750D02*
X154616000Y-124358750D01*
X154616000Y-124358750D02*
X154616000Y-130158750D01*
X159137500Y-114193750D02*
X161537500Y-114193750D01*
X159137500Y-114368750D02*
X161537500Y-114368750D01*
X159137500Y-114543750D02*
X161537500Y-114543750D01*
X161537500Y-114943750D02*
X159137500Y-114943750D01*
X159137500Y-114718750D02*
X161537500Y-114718750D01*
X159137500Y-114843750D02*
X161537500Y-114843750D01*
X159137500Y-114918750D02*
X159137500Y-109118750D01*
X159137500Y-109118750D02*
X161537500Y-109118750D01*
X161537500Y-109118750D02*
X161537500Y-114918750D01*
D11*
X162624404Y-97808928D02*
X161824404Y-97808928D01*
X161824404Y-97618452D01*
X161862500Y-97504166D01*
X161938690Y-97427976D01*
X162014880Y-97389880D01*
X162167261Y-97351785D01*
X162281547Y-97351785D01*
X162433928Y-97389880D01*
X162510119Y-97427976D01*
X162586309Y-97504166D01*
X162624404Y-97618452D01*
X162624404Y-97808928D01*
X162624404Y-96589880D02*
X162624404Y-97047023D01*
X162624404Y-96818452D02*
X161824404Y-96818452D01*
X161938690Y-96894642D01*
X162014880Y-96970833D01*
X162052976Y-97047023D01*
X161824404Y-96323214D02*
X161824404Y-95789880D01*
X162624404Y-96132738D01*
X118046726Y-135818511D02*
X118189583Y-135866130D01*
X118427678Y-135866130D01*
X118522916Y-135818511D01*
X118570535Y-135770892D01*
X118618154Y-135675654D01*
X118618154Y-135580416D01*
X118570535Y-135485178D01*
X118522916Y-135437559D01*
X118427678Y-135389940D01*
X118237202Y-135342321D01*
X118141964Y-135294702D01*
X118094345Y-135247083D01*
X118046726Y-135151845D01*
X118046726Y-135056607D01*
X118094345Y-134961369D01*
X118141964Y-134913750D01*
X118237202Y-134866130D01*
X118475297Y-134866130D01*
X118618154Y-134913750D01*
X118951488Y-134866130D02*
X119189583Y-135866130D01*
X119380059Y-135151845D01*
X119570535Y-135866130D01*
X119808630Y-134866130D01*
X120713392Y-135866130D02*
X120141964Y-135866130D01*
X120427678Y-135866130D02*
X120427678Y-134866130D01*
X120332440Y-135008988D01*
X120237202Y-135104226D01*
X120141964Y-135151845D01*
X121046726Y-134866130D02*
X121713392Y-134866130D01*
X121284821Y-135866130D01*
X118046726Y-97718511D02*
X118189583Y-97766130D01*
X118427678Y-97766130D01*
X118522916Y-97718511D01*
X118570535Y-97670892D01*
X118618154Y-97575654D01*
X118618154Y-97480416D01*
X118570535Y-97385178D01*
X118522916Y-97337559D01*
X118427678Y-97289940D01*
X118237202Y-97242321D01*
X118141964Y-97194702D01*
X118094345Y-97147083D01*
X118046726Y-97051845D01*
X118046726Y-96956607D01*
X118094345Y-96861369D01*
X118141964Y-96813750D01*
X118237202Y-96766130D01*
X118475297Y-96766130D01*
X118618154Y-96813750D01*
X118951488Y-96766130D02*
X119189583Y-97766130D01*
X119380059Y-97051845D01*
X119570535Y-97766130D01*
X119808630Y-96766130D01*
X120713392Y-97766130D02*
X120141964Y-97766130D01*
X120427678Y-97766130D02*
X120427678Y-96766130D01*
X120332440Y-96908988D01*
X120237202Y-97004226D01*
X120141964Y-97051845D01*
X121570535Y-96766130D02*
X121380059Y-96766130D01*
X121284821Y-96813750D01*
X121237202Y-96861369D01*
X121141964Y-97004226D01*
X121094345Y-97194702D01*
X121094345Y-97575654D01*
X121141964Y-97670892D01*
X121189583Y-97718511D01*
X121284821Y-97766130D01*
X121475297Y-97766130D01*
X121570535Y-97718511D01*
X121618154Y-97670892D01*
X121665773Y-97575654D01*
X121665773Y-97337559D01*
X121618154Y-97242321D01*
X121570535Y-97194702D01*
X121475297Y-97147083D01*
X121284821Y-97147083D01*
X121189583Y-97194702D01*
X121141964Y-97242321D01*
X121094345Y-97337559D01*
X118046726Y-69143511D02*
X118189583Y-69191130D01*
X118427678Y-69191130D01*
X118522916Y-69143511D01*
X118570535Y-69095892D01*
X118618154Y-69000654D01*
X118618154Y-68905416D01*
X118570535Y-68810178D01*
X118522916Y-68762559D01*
X118427678Y-68714940D01*
X118237202Y-68667321D01*
X118141964Y-68619702D01*
X118094345Y-68572083D01*
X118046726Y-68476845D01*
X118046726Y-68381607D01*
X118094345Y-68286369D01*
X118141964Y-68238750D01*
X118237202Y-68191130D01*
X118475297Y-68191130D01*
X118618154Y-68238750D01*
X118951488Y-68191130D02*
X119189583Y-69191130D01*
X119380059Y-68476845D01*
X119570535Y-69191130D01*
X119808630Y-68191130D01*
X120713392Y-69191130D02*
X120141964Y-69191130D01*
X120427678Y-69191130D02*
X120427678Y-68191130D01*
X120332440Y-68333988D01*
X120237202Y-68429226D01*
X120141964Y-68476845D01*
X121618154Y-68191130D02*
X121141964Y-68191130D01*
X121094345Y-68667321D01*
X121141964Y-68619702D01*
X121237202Y-68572083D01*
X121475297Y-68572083D01*
X121570535Y-68619702D01*
X121618154Y-68667321D01*
X121665773Y-68762559D01*
X121665773Y-69000654D01*
X121618154Y-69095892D01*
X121570535Y-69143511D01*
X121475297Y-69191130D01*
X121237202Y-69191130D01*
X121141964Y-69143511D01*
X121094345Y-69095892D01*
X98996726Y-145343511D02*
X99139583Y-145391130D01*
X99377678Y-145391130D01*
X99472916Y-145343511D01*
X99520535Y-145295892D01*
X99568154Y-145200654D01*
X99568154Y-145105416D01*
X99520535Y-145010178D01*
X99472916Y-144962559D01*
X99377678Y-144914940D01*
X99187202Y-144867321D01*
X99091964Y-144819702D01*
X99044345Y-144772083D01*
X98996726Y-144676845D01*
X98996726Y-144581607D01*
X99044345Y-144486369D01*
X99091964Y-144438750D01*
X99187202Y-144391130D01*
X99425297Y-144391130D01*
X99568154Y-144438750D01*
X99901488Y-144391130D02*
X100139583Y-145391130D01*
X100330059Y-144676845D01*
X100520535Y-145391130D01*
X100758630Y-144391130D01*
X101663392Y-145391130D02*
X101091964Y-145391130D01*
X101377678Y-145391130D02*
X101377678Y-144391130D01*
X101282440Y-144533988D01*
X101187202Y-144629226D01*
X101091964Y-144676845D01*
X102520535Y-144724464D02*
X102520535Y-145391130D01*
X102282440Y-144343511D02*
X102044345Y-145057797D01*
X102663392Y-145057797D01*
X98996726Y-126293511D02*
X99139583Y-126341130D01*
X99377678Y-126341130D01*
X99472916Y-126293511D01*
X99520535Y-126245892D01*
X99568154Y-126150654D01*
X99568154Y-126055416D01*
X99520535Y-125960178D01*
X99472916Y-125912559D01*
X99377678Y-125864940D01*
X99187202Y-125817321D01*
X99091964Y-125769702D01*
X99044345Y-125722083D01*
X98996726Y-125626845D01*
X98996726Y-125531607D01*
X99044345Y-125436369D01*
X99091964Y-125388750D01*
X99187202Y-125341130D01*
X99425297Y-125341130D01*
X99568154Y-125388750D01*
X99901488Y-125341130D02*
X100139583Y-126341130D01*
X100330059Y-125626845D01*
X100520535Y-126341130D01*
X100758630Y-125341130D01*
X101663392Y-126341130D02*
X101091964Y-126341130D01*
X101377678Y-126341130D02*
X101377678Y-125341130D01*
X101282440Y-125483988D01*
X101187202Y-125579226D01*
X101091964Y-125626845D01*
X101996726Y-125341130D02*
X102615773Y-125341130D01*
X102282440Y-125722083D01*
X102425297Y-125722083D01*
X102520535Y-125769702D01*
X102568154Y-125817321D01*
X102615773Y-125912559D01*
X102615773Y-126150654D01*
X102568154Y-126245892D01*
X102520535Y-126293511D01*
X102425297Y-126341130D01*
X102139583Y-126341130D01*
X102044345Y-126293511D01*
X101996726Y-126245892D01*
X98996726Y-107243511D02*
X99139583Y-107291130D01*
X99377678Y-107291130D01*
X99472916Y-107243511D01*
X99520535Y-107195892D01*
X99568154Y-107100654D01*
X99568154Y-107005416D01*
X99520535Y-106910178D01*
X99472916Y-106862559D01*
X99377678Y-106814940D01*
X99187202Y-106767321D01*
X99091964Y-106719702D01*
X99044345Y-106672083D01*
X98996726Y-106576845D01*
X98996726Y-106481607D01*
X99044345Y-106386369D01*
X99091964Y-106338750D01*
X99187202Y-106291130D01*
X99425297Y-106291130D01*
X99568154Y-106338750D01*
X99901488Y-106291130D02*
X100139583Y-107291130D01*
X100330059Y-106576845D01*
X100520535Y-107291130D01*
X100758630Y-106291130D01*
X101663392Y-107291130D02*
X101091964Y-107291130D01*
X101377678Y-107291130D02*
X101377678Y-106291130D01*
X101282440Y-106433988D01*
X101187202Y-106529226D01*
X101091964Y-106576845D01*
X102044345Y-106386369D02*
X102091964Y-106338750D01*
X102187202Y-106291130D01*
X102425297Y-106291130D01*
X102520535Y-106338750D01*
X102568154Y-106386369D01*
X102615773Y-106481607D01*
X102615773Y-106576845D01*
X102568154Y-106719702D01*
X101996726Y-107291130D01*
X102615773Y-107291130D01*
X98996726Y-88193511D02*
X99139583Y-88241130D01*
X99377678Y-88241130D01*
X99472916Y-88193511D01*
X99520535Y-88145892D01*
X99568154Y-88050654D01*
X99568154Y-87955416D01*
X99520535Y-87860178D01*
X99472916Y-87812559D01*
X99377678Y-87764940D01*
X99187202Y-87717321D01*
X99091964Y-87669702D01*
X99044345Y-87622083D01*
X98996726Y-87526845D01*
X98996726Y-87431607D01*
X99044345Y-87336369D01*
X99091964Y-87288750D01*
X99187202Y-87241130D01*
X99425297Y-87241130D01*
X99568154Y-87288750D01*
X99901488Y-87241130D02*
X100139583Y-88241130D01*
X100330059Y-87526845D01*
X100520535Y-88241130D01*
X100758630Y-87241130D01*
X101663392Y-88241130D02*
X101091964Y-88241130D01*
X101377678Y-88241130D02*
X101377678Y-87241130D01*
X101282440Y-87383988D01*
X101187202Y-87479226D01*
X101091964Y-87526845D01*
X102615773Y-88241130D02*
X102044345Y-88241130D01*
X102330059Y-88241130D02*
X102330059Y-87241130D01*
X102234821Y-87383988D01*
X102139583Y-87479226D01*
X102044345Y-87526845D01*
X98996726Y-69143511D02*
X99139583Y-69191130D01*
X99377678Y-69191130D01*
X99472916Y-69143511D01*
X99520535Y-69095892D01*
X99568154Y-69000654D01*
X99568154Y-68905416D01*
X99520535Y-68810178D01*
X99472916Y-68762559D01*
X99377678Y-68714940D01*
X99187202Y-68667321D01*
X99091964Y-68619702D01*
X99044345Y-68572083D01*
X98996726Y-68476845D01*
X98996726Y-68381607D01*
X99044345Y-68286369D01*
X99091964Y-68238750D01*
X99187202Y-68191130D01*
X99425297Y-68191130D01*
X99568154Y-68238750D01*
X99901488Y-68191130D02*
X100139583Y-69191130D01*
X100330059Y-68476845D01*
X100520535Y-69191130D01*
X100758630Y-68191130D01*
X101663392Y-69191130D02*
X101091964Y-69191130D01*
X101377678Y-69191130D02*
X101377678Y-68191130D01*
X101282440Y-68333988D01*
X101187202Y-68429226D01*
X101091964Y-68476845D01*
X102282440Y-68191130D02*
X102377678Y-68191130D01*
X102472916Y-68238750D01*
X102520535Y-68286369D01*
X102568154Y-68381607D01*
X102615773Y-68572083D01*
X102615773Y-68810178D01*
X102568154Y-69000654D01*
X102520535Y-69095892D01*
X102472916Y-69143511D01*
X102377678Y-69191130D01*
X102282440Y-69191130D01*
X102187202Y-69143511D01*
X102139583Y-69095892D01*
X102091964Y-69000654D01*
X102044345Y-68810178D01*
X102044345Y-68572083D01*
X102091964Y-68381607D01*
X102139583Y-68286369D01*
X102187202Y-68238750D01*
X102282440Y-68191130D01*
X80422916Y-126293511D02*
X80565773Y-126341130D01*
X80803869Y-126341130D01*
X80899107Y-126293511D01*
X80946726Y-126245892D01*
X80994345Y-126150654D01*
X80994345Y-126055416D01*
X80946726Y-125960178D01*
X80899107Y-125912559D01*
X80803869Y-125864940D01*
X80613392Y-125817321D01*
X80518154Y-125769702D01*
X80470535Y-125722083D01*
X80422916Y-125626845D01*
X80422916Y-125531607D01*
X80470535Y-125436369D01*
X80518154Y-125388750D01*
X80613392Y-125341130D01*
X80851488Y-125341130D01*
X80994345Y-125388750D01*
X81327678Y-125341130D02*
X81565773Y-126341130D01*
X81756250Y-125626845D01*
X81946726Y-126341130D01*
X82184821Y-125341130D01*
X82613392Y-126341130D02*
X82803869Y-126341130D01*
X82899107Y-126293511D01*
X82946726Y-126245892D01*
X83041964Y-126103035D01*
X83089583Y-125912559D01*
X83089583Y-125531607D01*
X83041964Y-125436369D01*
X82994345Y-125388750D01*
X82899107Y-125341130D01*
X82708630Y-125341130D01*
X82613392Y-125388750D01*
X82565773Y-125436369D01*
X82518154Y-125531607D01*
X82518154Y-125769702D01*
X82565773Y-125864940D01*
X82613392Y-125912559D01*
X82708630Y-125960178D01*
X82899107Y-125960178D01*
X82994345Y-125912559D01*
X83041964Y-125864940D01*
X83089583Y-125769702D01*
X80422916Y-107243511D02*
X80565773Y-107291130D01*
X80803869Y-107291130D01*
X80899107Y-107243511D01*
X80946726Y-107195892D01*
X80994345Y-107100654D01*
X80994345Y-107005416D01*
X80946726Y-106910178D01*
X80899107Y-106862559D01*
X80803869Y-106814940D01*
X80613392Y-106767321D01*
X80518154Y-106719702D01*
X80470535Y-106672083D01*
X80422916Y-106576845D01*
X80422916Y-106481607D01*
X80470535Y-106386369D01*
X80518154Y-106338750D01*
X80613392Y-106291130D01*
X80851488Y-106291130D01*
X80994345Y-106338750D01*
X81327678Y-106291130D02*
X81565773Y-107291130D01*
X81756250Y-106576845D01*
X81946726Y-107291130D01*
X82184821Y-106291130D01*
X82708630Y-106719702D02*
X82613392Y-106672083D01*
X82565773Y-106624464D01*
X82518154Y-106529226D01*
X82518154Y-106481607D01*
X82565773Y-106386369D01*
X82613392Y-106338750D01*
X82708630Y-106291130D01*
X82899107Y-106291130D01*
X82994345Y-106338750D01*
X83041964Y-106386369D01*
X83089583Y-106481607D01*
X83089583Y-106529226D01*
X83041964Y-106624464D01*
X82994345Y-106672083D01*
X82899107Y-106719702D01*
X82708630Y-106719702D01*
X82613392Y-106767321D01*
X82565773Y-106814940D01*
X82518154Y-106910178D01*
X82518154Y-107100654D01*
X82565773Y-107195892D01*
X82613392Y-107243511D01*
X82708630Y-107291130D01*
X82899107Y-107291130D01*
X82994345Y-107243511D01*
X83041964Y-107195892D01*
X83089583Y-107100654D01*
X83089583Y-106910178D01*
X83041964Y-106814940D01*
X82994345Y-106767321D01*
X82899107Y-106719702D01*
X80422916Y-88193511D02*
X80565773Y-88241130D01*
X80803869Y-88241130D01*
X80899107Y-88193511D01*
X80946726Y-88145892D01*
X80994345Y-88050654D01*
X80994345Y-87955416D01*
X80946726Y-87860178D01*
X80899107Y-87812559D01*
X80803869Y-87764940D01*
X80613392Y-87717321D01*
X80518154Y-87669702D01*
X80470535Y-87622083D01*
X80422916Y-87526845D01*
X80422916Y-87431607D01*
X80470535Y-87336369D01*
X80518154Y-87288750D01*
X80613392Y-87241130D01*
X80851488Y-87241130D01*
X80994345Y-87288750D01*
X81327678Y-87241130D02*
X81565773Y-88241130D01*
X81756250Y-87526845D01*
X81946726Y-88241130D01*
X82184821Y-87241130D01*
X82470535Y-87241130D02*
X83137202Y-87241130D01*
X82708630Y-88241130D01*
X80422916Y-69143511D02*
X80565773Y-69191130D01*
X80803869Y-69191130D01*
X80899107Y-69143511D01*
X80946726Y-69095892D01*
X80994345Y-69000654D01*
X80994345Y-68905416D01*
X80946726Y-68810178D01*
X80899107Y-68762559D01*
X80803869Y-68714940D01*
X80613392Y-68667321D01*
X80518154Y-68619702D01*
X80470535Y-68572083D01*
X80422916Y-68476845D01*
X80422916Y-68381607D01*
X80470535Y-68286369D01*
X80518154Y-68238750D01*
X80613392Y-68191130D01*
X80851488Y-68191130D01*
X80994345Y-68238750D01*
X81327678Y-68191130D02*
X81565773Y-69191130D01*
X81756250Y-68476845D01*
X81946726Y-69191130D01*
X82184821Y-68191130D01*
X82994345Y-68191130D02*
X82803869Y-68191130D01*
X82708630Y-68238750D01*
X82661011Y-68286369D01*
X82565773Y-68429226D01*
X82518154Y-68619702D01*
X82518154Y-69000654D01*
X82565773Y-69095892D01*
X82613392Y-69143511D01*
X82708630Y-69191130D01*
X82899107Y-69191130D01*
X82994345Y-69143511D01*
X83041964Y-69095892D01*
X83089583Y-69000654D01*
X83089583Y-68762559D01*
X83041964Y-68667321D01*
X82994345Y-68619702D01*
X82899107Y-68572083D01*
X82708630Y-68572083D01*
X82613392Y-68619702D01*
X82565773Y-68667321D01*
X82518154Y-68762559D01*
X70897916Y-145343511D02*
X71040773Y-145391130D01*
X71278869Y-145391130D01*
X71374107Y-145343511D01*
X71421726Y-145295892D01*
X71469345Y-145200654D01*
X71469345Y-145105416D01*
X71421726Y-145010178D01*
X71374107Y-144962559D01*
X71278869Y-144914940D01*
X71088392Y-144867321D01*
X70993154Y-144819702D01*
X70945535Y-144772083D01*
X70897916Y-144676845D01*
X70897916Y-144581607D01*
X70945535Y-144486369D01*
X70993154Y-144438750D01*
X71088392Y-144391130D01*
X71326488Y-144391130D01*
X71469345Y-144438750D01*
X71802678Y-144391130D02*
X72040773Y-145391130D01*
X72231250Y-144676845D01*
X72421726Y-145391130D01*
X72659821Y-144391130D01*
X73516964Y-144391130D02*
X73040773Y-144391130D01*
X72993154Y-144867321D01*
X73040773Y-144819702D01*
X73136011Y-144772083D01*
X73374107Y-144772083D01*
X73469345Y-144819702D01*
X73516964Y-144867321D01*
X73564583Y-144962559D01*
X73564583Y-145200654D01*
X73516964Y-145295892D01*
X73469345Y-145343511D01*
X73374107Y-145391130D01*
X73136011Y-145391130D01*
X73040773Y-145343511D01*
X72993154Y-145295892D01*
X61372916Y-126293511D02*
X61515773Y-126341130D01*
X61753869Y-126341130D01*
X61849107Y-126293511D01*
X61896726Y-126245892D01*
X61944345Y-126150654D01*
X61944345Y-126055416D01*
X61896726Y-125960178D01*
X61849107Y-125912559D01*
X61753869Y-125864940D01*
X61563392Y-125817321D01*
X61468154Y-125769702D01*
X61420535Y-125722083D01*
X61372916Y-125626845D01*
X61372916Y-125531607D01*
X61420535Y-125436369D01*
X61468154Y-125388750D01*
X61563392Y-125341130D01*
X61801488Y-125341130D01*
X61944345Y-125388750D01*
X62277678Y-125341130D02*
X62515773Y-126341130D01*
X62706250Y-125626845D01*
X62896726Y-126341130D01*
X63134821Y-125341130D01*
X63944345Y-125674464D02*
X63944345Y-126341130D01*
X63706250Y-125293511D02*
X63468154Y-126007797D01*
X64087202Y-126007797D01*
X61372916Y-107243511D02*
X61515773Y-107291130D01*
X61753869Y-107291130D01*
X61849107Y-107243511D01*
X61896726Y-107195892D01*
X61944345Y-107100654D01*
X61944345Y-107005416D01*
X61896726Y-106910178D01*
X61849107Y-106862559D01*
X61753869Y-106814940D01*
X61563392Y-106767321D01*
X61468154Y-106719702D01*
X61420535Y-106672083D01*
X61372916Y-106576845D01*
X61372916Y-106481607D01*
X61420535Y-106386369D01*
X61468154Y-106338750D01*
X61563392Y-106291130D01*
X61801488Y-106291130D01*
X61944345Y-106338750D01*
X62277678Y-106291130D02*
X62515773Y-107291130D01*
X62706250Y-106576845D01*
X62896726Y-107291130D01*
X63134821Y-106291130D01*
X63420535Y-106291130D02*
X64039583Y-106291130D01*
X63706250Y-106672083D01*
X63849107Y-106672083D01*
X63944345Y-106719702D01*
X63991964Y-106767321D01*
X64039583Y-106862559D01*
X64039583Y-107100654D01*
X63991964Y-107195892D01*
X63944345Y-107243511D01*
X63849107Y-107291130D01*
X63563392Y-107291130D01*
X63468154Y-107243511D01*
X63420535Y-107195892D01*
X61372916Y-88193511D02*
X61515773Y-88241130D01*
X61753869Y-88241130D01*
X61849107Y-88193511D01*
X61896726Y-88145892D01*
X61944345Y-88050654D01*
X61944345Y-87955416D01*
X61896726Y-87860178D01*
X61849107Y-87812559D01*
X61753869Y-87764940D01*
X61563392Y-87717321D01*
X61468154Y-87669702D01*
X61420535Y-87622083D01*
X61372916Y-87526845D01*
X61372916Y-87431607D01*
X61420535Y-87336369D01*
X61468154Y-87288750D01*
X61563392Y-87241130D01*
X61801488Y-87241130D01*
X61944345Y-87288750D01*
X62277678Y-87241130D02*
X62515773Y-88241130D01*
X62706250Y-87526845D01*
X62896726Y-88241130D01*
X63134821Y-87241130D01*
X63468154Y-87336369D02*
X63515773Y-87288750D01*
X63611011Y-87241130D01*
X63849107Y-87241130D01*
X63944345Y-87288750D01*
X63991964Y-87336369D01*
X64039583Y-87431607D01*
X64039583Y-87526845D01*
X63991964Y-87669702D01*
X63420535Y-88241130D01*
X64039583Y-88241130D01*
X155702904Y-157581678D02*
X154902904Y-157581678D01*
X154902904Y-157391202D01*
X154941000Y-157276916D01*
X155017190Y-157200726D01*
X155093380Y-157162630D01*
X155245761Y-157124535D01*
X155360047Y-157124535D01*
X155512428Y-157162630D01*
X155588619Y-157200726D01*
X155664809Y-157276916D01*
X155702904Y-157391202D01*
X155702904Y-157581678D01*
X155702904Y-156362630D02*
X155702904Y-156819773D01*
X155702904Y-156591202D02*
X154902904Y-156591202D01*
X155017190Y-156667392D01*
X155093380Y-156743583D01*
X155131476Y-156819773D01*
X154902904Y-155676916D02*
X154902904Y-155829297D01*
X154941000Y-155905488D01*
X154979095Y-155943583D01*
X155093380Y-156019773D01*
X155245761Y-156057869D01*
X155550523Y-156057869D01*
X155626714Y-156019773D01*
X155664809Y-155981678D01*
X155702904Y-155905488D01*
X155702904Y-155753107D01*
X155664809Y-155676916D01*
X155626714Y-155638821D01*
X155550523Y-155600726D01*
X155360047Y-155600726D01*
X155283857Y-155638821D01*
X155245761Y-155676916D01*
X155207666Y-155753107D01*
X155207666Y-155905488D01*
X155245761Y-155981678D01*
X155283857Y-156019773D01*
X155360047Y-156057869D01*
X141415404Y-112890178D02*
X140615404Y-112890178D01*
X140615404Y-112699702D01*
X140653500Y-112585416D01*
X140729690Y-112509226D01*
X140805880Y-112471130D01*
X140958261Y-112433035D01*
X141072547Y-112433035D01*
X141224928Y-112471130D01*
X141301119Y-112509226D01*
X141377309Y-112585416D01*
X141415404Y-112699702D01*
X141415404Y-112890178D01*
X141415404Y-111671130D02*
X141415404Y-112128273D01*
X141415404Y-111899702D02*
X140615404Y-111899702D01*
X140729690Y-111975892D01*
X140805880Y-112052083D01*
X140843976Y-112128273D01*
X140615404Y-110947321D02*
X140615404Y-111328273D01*
X140996357Y-111366369D01*
X140958261Y-111328273D01*
X140920166Y-111252083D01*
X140920166Y-111061607D01*
X140958261Y-110985416D01*
X140996357Y-110947321D01*
X141072547Y-110909226D01*
X141263023Y-110909226D01*
X141339214Y-110947321D01*
X141377309Y-110985416D01*
X141415404Y-111061607D01*
X141415404Y-111252083D01*
X141377309Y-111328273D01*
X141339214Y-111366369D01*
X141415404Y-97808928D02*
X140615404Y-97808928D01*
X140615404Y-97618452D01*
X140653500Y-97504166D01*
X140729690Y-97427976D01*
X140805880Y-97389880D01*
X140958261Y-97351785D01*
X141072547Y-97351785D01*
X141224928Y-97389880D01*
X141301119Y-97427976D01*
X141377309Y-97504166D01*
X141415404Y-97618452D01*
X141415404Y-97808928D01*
X141415404Y-96589880D02*
X141415404Y-97047023D01*
X141415404Y-96818452D02*
X140615404Y-96818452D01*
X140729690Y-96894642D01*
X140805880Y-96970833D01*
X140843976Y-97047023D01*
X140882071Y-95904166D02*
X141415404Y-95904166D01*
X140577309Y-96094642D02*
X141148738Y-96285119D01*
X141148738Y-95789880D01*
X148559154Y-157594178D02*
X147759154Y-157594178D01*
X147759154Y-157403702D01*
X147797250Y-157289416D01*
X147873440Y-157213226D01*
X147949630Y-157175130D01*
X148102011Y-157137035D01*
X148216297Y-157137035D01*
X148368678Y-157175130D01*
X148444869Y-157213226D01*
X148521059Y-157289416D01*
X148559154Y-157403702D01*
X148559154Y-157594178D01*
X148559154Y-156375130D02*
X148559154Y-156832273D01*
X148559154Y-156603702D02*
X147759154Y-156603702D01*
X147873440Y-156679892D01*
X147949630Y-156756083D01*
X147987726Y-156832273D01*
X147759154Y-156108464D02*
X147759154Y-155613226D01*
X148063916Y-155879892D01*
X148063916Y-155765607D01*
X148102011Y-155689416D01*
X148140107Y-155651321D01*
X148216297Y-155613226D01*
X148406773Y-155613226D01*
X148482964Y-155651321D01*
X148521059Y-155689416D01*
X148559154Y-155765607D01*
X148559154Y-155994178D01*
X148521059Y-156070369D01*
X148482964Y-156108464D01*
X155702904Y-143306678D02*
X154902904Y-143306678D01*
X154902904Y-143116202D01*
X154941000Y-143001916D01*
X155017190Y-142925726D01*
X155093380Y-142887630D01*
X155245761Y-142849535D01*
X155360047Y-142849535D01*
X155512428Y-142887630D01*
X155588619Y-142925726D01*
X155664809Y-143001916D01*
X155702904Y-143116202D01*
X155702904Y-143306678D01*
X155702904Y-142087630D02*
X155702904Y-142544773D01*
X155702904Y-142316202D02*
X154902904Y-142316202D01*
X155017190Y-142392392D01*
X155093380Y-142468583D01*
X155131476Y-142544773D01*
X154979095Y-141782869D02*
X154941000Y-141744773D01*
X154902904Y-141668583D01*
X154902904Y-141478107D01*
X154941000Y-141401916D01*
X154979095Y-141363821D01*
X155055285Y-141325726D01*
X155131476Y-141325726D01*
X155245761Y-141363821D01*
X155702904Y-141820964D01*
X155702904Y-141325726D01*
X141193154Y-128130178D02*
X140393154Y-128130178D01*
X140393154Y-127939702D01*
X140431250Y-127825416D01*
X140507440Y-127749226D01*
X140583630Y-127711130D01*
X140736011Y-127673035D01*
X140850297Y-127673035D01*
X141002678Y-127711130D01*
X141078869Y-127749226D01*
X141155059Y-127825416D01*
X141193154Y-127939702D01*
X141193154Y-128130178D01*
X141193154Y-126911130D02*
X141193154Y-127368273D01*
X141193154Y-127139702D02*
X140393154Y-127139702D01*
X140507440Y-127215892D01*
X140583630Y-127292083D01*
X140621726Y-127368273D01*
X141193154Y-126149226D02*
X141193154Y-126606369D01*
X141193154Y-126377797D02*
X140393154Y-126377797D01*
X140507440Y-126453988D01*
X140583630Y-126530178D01*
X140621726Y-126606369D01*
X148559154Y-112890178D02*
X147759154Y-112890178D01*
X147759154Y-112699702D01*
X147797250Y-112585416D01*
X147873440Y-112509226D01*
X147949630Y-112471130D01*
X148102011Y-112433035D01*
X148216297Y-112433035D01*
X148368678Y-112471130D01*
X148444869Y-112509226D01*
X148521059Y-112585416D01*
X148559154Y-112699702D01*
X148559154Y-112890178D01*
X148559154Y-111671130D02*
X148559154Y-112128273D01*
X148559154Y-111899702D02*
X147759154Y-111899702D01*
X147873440Y-111975892D01*
X147949630Y-112052083D01*
X147987726Y-112128273D01*
X147759154Y-111175892D02*
X147759154Y-111099702D01*
X147797250Y-111023511D01*
X147835345Y-110985416D01*
X147911535Y-110947321D01*
X148063916Y-110909226D01*
X148254392Y-110909226D01*
X148406773Y-110947321D01*
X148482964Y-110985416D01*
X148521059Y-111023511D01*
X148559154Y-111099702D01*
X148559154Y-111175892D01*
X148521059Y-111252083D01*
X148482964Y-111290178D01*
X148406773Y-111328273D01*
X148254392Y-111366369D01*
X148063916Y-111366369D01*
X147911535Y-111328273D01*
X147835345Y-111290178D01*
X147797250Y-111252083D01*
X147759154Y-111175892D01*
X148559154Y-97427976D02*
X147759154Y-97427976D01*
X147759154Y-97237500D01*
X147797250Y-97123214D01*
X147873440Y-97047023D01*
X147949630Y-97008928D01*
X148102011Y-96970833D01*
X148216297Y-96970833D01*
X148368678Y-97008928D01*
X148444869Y-97047023D01*
X148521059Y-97123214D01*
X148559154Y-97237500D01*
X148559154Y-97427976D01*
X148559154Y-96589880D02*
X148559154Y-96437500D01*
X148521059Y-96361309D01*
X148482964Y-96323214D01*
X148368678Y-96247023D01*
X148216297Y-96208928D01*
X147911535Y-96208928D01*
X147835345Y-96247023D01*
X147797250Y-96285119D01*
X147759154Y-96361309D01*
X147759154Y-96513690D01*
X147797250Y-96589880D01*
X147835345Y-96627976D01*
X147911535Y-96666071D01*
X148102011Y-96666071D01*
X148178202Y-96627976D01*
X148216297Y-96589880D01*
X148254392Y-96513690D01*
X148254392Y-96361309D01*
X148216297Y-96285119D01*
X148178202Y-96247023D01*
X148102011Y-96208928D01*
X148559154Y-142925726D02*
X147759154Y-142925726D01*
X147759154Y-142735250D01*
X147797250Y-142620964D01*
X147873440Y-142544773D01*
X147949630Y-142506678D01*
X148102011Y-142468583D01*
X148216297Y-142468583D01*
X148368678Y-142506678D01*
X148444869Y-142544773D01*
X148521059Y-142620964D01*
X148559154Y-142735250D01*
X148559154Y-142925726D01*
X148102011Y-142011440D02*
X148063916Y-142087630D01*
X148025821Y-142125726D01*
X147949630Y-142163821D01*
X147911535Y-142163821D01*
X147835345Y-142125726D01*
X147797250Y-142087630D01*
X147759154Y-142011440D01*
X147759154Y-141859059D01*
X147797250Y-141782869D01*
X147835345Y-141744773D01*
X147911535Y-141706678D01*
X147949630Y-141706678D01*
X148025821Y-141744773D01*
X148063916Y-141782869D01*
X148102011Y-141859059D01*
X148102011Y-142011440D01*
X148140107Y-142087630D01*
X148178202Y-142125726D01*
X148254392Y-142163821D01*
X148406773Y-142163821D01*
X148482964Y-142125726D01*
X148521059Y-142087630D01*
X148559154Y-142011440D01*
X148559154Y-141859059D01*
X148521059Y-141782869D01*
X148482964Y-141744773D01*
X148406773Y-141706678D01*
X148254392Y-141706678D01*
X148178202Y-141744773D01*
X148140107Y-141782869D01*
X148102011Y-141859059D01*
X148559154Y-127749226D02*
X147759154Y-127749226D01*
X147759154Y-127558750D01*
X147797250Y-127444464D01*
X147873440Y-127368273D01*
X147949630Y-127330178D01*
X148102011Y-127292083D01*
X148216297Y-127292083D01*
X148368678Y-127330178D01*
X148444869Y-127368273D01*
X148521059Y-127444464D01*
X148559154Y-127558750D01*
X148559154Y-127749226D01*
X147759154Y-127025416D02*
X147759154Y-126492083D01*
X148559154Y-126834940D01*
X155480654Y-112509226D02*
X154680654Y-112509226D01*
X154680654Y-112318750D01*
X154718750Y-112204464D01*
X154794940Y-112128273D01*
X154871130Y-112090178D01*
X155023511Y-112052083D01*
X155137797Y-112052083D01*
X155290178Y-112090178D01*
X155366369Y-112128273D01*
X155442559Y-112204464D01*
X155480654Y-112318750D01*
X155480654Y-112509226D01*
X154680654Y-111366369D02*
X154680654Y-111518750D01*
X154718750Y-111594940D01*
X154756845Y-111633035D01*
X154871130Y-111709226D01*
X155023511Y-111747321D01*
X155328273Y-111747321D01*
X155404464Y-111709226D01*
X155442559Y-111671130D01*
X155480654Y-111594940D01*
X155480654Y-111442559D01*
X155442559Y-111366369D01*
X155404464Y-111328273D01*
X155328273Y-111290178D01*
X155137797Y-111290178D01*
X155061607Y-111328273D01*
X155023511Y-111366369D01*
X154985416Y-111442559D01*
X154985416Y-111594940D01*
X155023511Y-111671130D01*
X155061607Y-111709226D01*
X155137797Y-111747321D01*
X155702904Y-97427976D02*
X154902904Y-97427976D01*
X154902904Y-97237500D01*
X154941000Y-97123214D01*
X155017190Y-97047023D01*
X155093380Y-97008928D01*
X155245761Y-96970833D01*
X155360047Y-96970833D01*
X155512428Y-97008928D01*
X155588619Y-97047023D01*
X155664809Y-97123214D01*
X155702904Y-97237500D01*
X155702904Y-97427976D01*
X154902904Y-96247023D02*
X154902904Y-96627976D01*
X155283857Y-96666071D01*
X155245761Y-96627976D01*
X155207666Y-96551785D01*
X155207666Y-96361309D01*
X155245761Y-96285119D01*
X155283857Y-96247023D01*
X155360047Y-96208928D01*
X155550523Y-96208928D01*
X155626714Y-96247023D01*
X155664809Y-96285119D01*
X155702904Y-96361309D01*
X155702904Y-96551785D01*
X155664809Y-96627976D01*
X155626714Y-96666071D01*
X141415404Y-157213226D02*
X140615404Y-157213226D01*
X140615404Y-157022750D01*
X140653500Y-156908464D01*
X140729690Y-156832273D01*
X140805880Y-156794178D01*
X140958261Y-156756083D01*
X141072547Y-156756083D01*
X141224928Y-156794178D01*
X141301119Y-156832273D01*
X141377309Y-156908464D01*
X141415404Y-157022750D01*
X141415404Y-157213226D01*
X140882071Y-156070369D02*
X141415404Y-156070369D01*
X140577309Y-156260845D02*
X141148738Y-156451321D01*
X141148738Y-155956083D01*
X141415404Y-142925726D02*
X140615404Y-142925726D01*
X140615404Y-142735250D01*
X140653500Y-142620964D01*
X140729690Y-142544773D01*
X140805880Y-142506678D01*
X140958261Y-142468583D01*
X141072547Y-142468583D01*
X141224928Y-142506678D01*
X141301119Y-142544773D01*
X141377309Y-142620964D01*
X141415404Y-142735250D01*
X141415404Y-142925726D01*
X140615404Y-142201916D02*
X140615404Y-141706678D01*
X140920166Y-141973345D01*
X140920166Y-141859059D01*
X140958261Y-141782869D01*
X140996357Y-141744773D01*
X141072547Y-141706678D01*
X141263023Y-141706678D01*
X141339214Y-141744773D01*
X141377309Y-141782869D01*
X141415404Y-141859059D01*
X141415404Y-142087630D01*
X141377309Y-142163821D01*
X141339214Y-142201916D01*
X155702904Y-127749226D02*
X154902904Y-127749226D01*
X154902904Y-127558750D01*
X154941000Y-127444464D01*
X155017190Y-127368273D01*
X155093380Y-127330178D01*
X155245761Y-127292083D01*
X155360047Y-127292083D01*
X155512428Y-127330178D01*
X155588619Y-127368273D01*
X155664809Y-127444464D01*
X155702904Y-127558750D01*
X155702904Y-127749226D01*
X154979095Y-126987321D02*
X154941000Y-126949226D01*
X154902904Y-126873035D01*
X154902904Y-126682559D01*
X154941000Y-126606369D01*
X154979095Y-126568273D01*
X155055285Y-126530178D01*
X155131476Y-126530178D01*
X155245761Y-126568273D01*
X155702904Y-127025416D01*
X155702904Y-126530178D01*
X162624404Y-112509226D02*
X161824404Y-112509226D01*
X161824404Y-112318750D01*
X161862500Y-112204464D01*
X161938690Y-112128273D01*
X162014880Y-112090178D01*
X162167261Y-112052083D01*
X162281547Y-112052083D01*
X162433928Y-112090178D01*
X162510119Y-112128273D01*
X162586309Y-112204464D01*
X162624404Y-112318750D01*
X162624404Y-112509226D01*
X162624404Y-111290178D02*
X162624404Y-111747321D01*
X162624404Y-111518750D02*
X161824404Y-111518750D01*
X161938690Y-111594940D01*
X162014880Y-111671130D01*
X162052976Y-111747321D01*
M02*
