M48
; DRILL file {KiCad (5.1.5)-3} date 08/05/2021 12:02:40 a. m.
; FORMAT={-:-/ absolute / inch / decimal}
; #@! TF.CreationDate,2021-05-08T00:02:40-05:00
; #@! TF.GenerationSoftware,Kicad,Pcbnew,(5.1.5)-3
FMAT,2
INCH
T1C0.0157
T2C0.0236
T3C0.0276
T4C0.0394
T5C0.0400
T6C0.0591
T7C0.0256
T8C0.0670
T9C0.1181
T10C0.1570
%
G90
G05
T1
X2.7664Y-3.7749
X2.7664Y-4.2999
X2.7664Y-4.5549
X2.7664Y-5.0549
X2.7664Y-5.2949
X3.1414Y-5.8349
X3.5164Y-3.0649
X3.5164Y-3.5499
X3.5164Y-3.8249
X3.5164Y-4.3049
X3.5164Y-4.5499
X3.5164Y-5.0699
X3.945Y-1.92
X4.2664Y-3.0799
X4.2664Y-3.5649
X4.2664Y-3.8099
X4.2664Y-4.2999
X4.2664Y-4.5449
X4.2664Y-5.0549
X4.2664Y-5.3149
X4.2664Y-5.8149
X4.465Y-1.925
X4.54Y-2.3413
X4.63Y-2.2662
X4.68Y-1.89
X4.845Y-2.2012
X4.91Y-1.935
X5.0164Y-3.0949
X5.0164Y-3.9049
X5.0164Y-4.1649
X5.0164Y-5.4149
X5.065Y-1.94
X5.11Y-2.2012
X5.15Y-3.1102
X5.27Y-2.01
X5.42Y-1.89
X5.448Y-2.5143
X5.474Y-3.4263
X5.5605Y-2.4017
X5.835Y-2.3562
X5.845Y-2.2312
X5.915Y-2.7062
X5.93Y-2.3213
X6.058Y-3.1662
X6.185Y-2.3712
X6.275Y-2.4562
T3
X5.4775Y-6.0127
X5.4775Y-6.3198
X5.7588Y-3.659
X5.7588Y-3.966
X5.7588Y-5.4502
X5.7588Y-5.7573
X6.04Y-3.659
X6.04Y-3.966
X6.04Y-5.4502
X6.04Y-5.7573
X6.04Y-6.0122
X6.04Y-6.3193
X6.0312Y-4.2527
X6.0312Y-4.5598
X5.7588Y-6.0127
X5.7588Y-6.3198
X6.3125Y-4.2527
X6.3125Y-4.5598
X5.4688Y-4.8527
X5.4688Y-5.1598
X6.04Y-4.8527
X6.04Y-5.1598
X5.7588Y-4.8527
X5.7588Y-5.1598
X5.4775Y-3.659
X5.4775Y-3.966
X5.7588Y-4.2527
X5.7588Y-4.5598
X6.3125Y-3.659
X6.3125Y-3.966
X5.4775Y-4.2527
X5.4775Y-4.5598
X5.4775Y-5.4502
X5.4775Y-5.7573
T4
X2.06Y-2.3962
X2.06Y-2.9671
X2.1584Y-2.3962
X2.2569Y-2.3962
X2.2569Y-2.9671
X4.437Y-2.08
X4.437Y-2.18
X4.437Y-2.28
X4.437Y-2.38
T5
X5.364Y-1.9692
X5.364Y-2.0692
X5.364Y-2.1692
X5.464Y-1.9692
X5.464Y-2.0692
X5.464Y-2.1692
T7
X4.865Y-2.0348
X5.0925Y-2.0348
T8
X4.5187Y-4.1562
X4.9188Y-4.1562
X3.7687Y-3.0312
X4.1688Y-3.0312
X3.0187Y-3.7812
X3.4187Y-3.7812
X3.7687Y-6.0312
X4.1688Y-6.0312
X3.7687Y-4.5312
X4.1688Y-4.5312
X2.2687Y-4.5312
X2.6687Y-4.5312
X2.2687Y-5.2812
X2.6687Y-5.2812
X4.5187Y-5.6562
X4.9188Y-5.6562
X3.7687Y-5.2812
X4.1688Y-5.2812
X3.0187Y-3.0312
X3.4187Y-3.0312
X3.7687Y-3.7812
X4.1688Y-3.7812
X2.6437Y-6.0312
X3.0437Y-6.0312
X2.2687Y-3.7812
X2.6687Y-3.7812
X3.0187Y-4.5312
X3.4187Y-4.5312
X4.5187Y-3.0312
X4.9188Y-3.0312
X3.0187Y-5.2812
X3.4187Y-5.2812
T9
X2.3687Y-4.3312
X2.6187Y-4.4312
X2.3687Y-5.0812
X2.6187Y-5.1812
X4.6187Y-5.4562
X4.8687Y-5.5562
X3.8687Y-5.0812
X4.1187Y-5.1812
X3.1187Y-2.8312
X3.3687Y-2.9312
X3.8687Y-3.5812
X4.1187Y-3.6812
X2.7437Y-5.8312
X2.9937Y-5.9312
X2.3687Y-3.5812
X2.6187Y-3.6812
X3.1187Y-4.3312
X3.3687Y-4.4312
X4.6187Y-2.8312
X4.8687Y-2.9312
X3.1187Y-5.0812
X3.3687Y-5.1812
X4.6187Y-3.9562
X4.8687Y-4.0562
X3.8687Y-2.8312
X4.1187Y-2.9312
X3.1187Y-3.5812
X3.3687Y-3.6812
X3.8687Y-5.8312
X4.1187Y-5.9312
X3.8687Y-4.3312
X4.1187Y-4.4312
T10
X2.4688Y-4.5312
X2.4688Y-5.2812
X4.7188Y-5.6562
X3.9688Y-5.2812
X3.2188Y-3.0312
X3.9688Y-3.7812
X2.8438Y-6.0312
X2.4688Y-3.7812
X3.2188Y-4.5312
X4.7188Y-3.0312
X3.2188Y-5.2812
X4.7188Y-4.1562
X3.9688Y-3.0312
X3.2188Y-3.7812
X3.9688Y-6.0312
X3.9688Y-4.5312
T2
G00X4.8087Y-1.8793
M15
G01X4.8087Y-1.9029
M16
G05
G00X4.8087Y-2.034
M15
G01X4.8087Y-2.0773
M16
G05
G00X5.1488Y-1.8793
M15
G01X5.1488Y-1.9029
M16
G05
G00X5.1488Y-2.034
M15
G01X5.1488Y-2.0773
M16
G05
T6
G00X1.938Y-2.6659
M15
G01X1.938Y-2.7171
M16
G05
G00X2.3789Y-2.6659
M15
G01X2.3789Y-2.7171
M16
G05
T0
M30
