G04 #@! TF.GenerationSoftware,KiCad,Pcbnew,(5.1.5)-3*
G04 #@! TF.CreationDate,2021-05-08T00:02:10-05:00*
G04 #@! TF.ProjectId,MacroPad,4d616372-6f50-4616-942e-6b696361645f,rev?*
G04 #@! TF.SameCoordinates,Original*
G04 #@! TF.FileFunction,Soldermask,Bot*
G04 #@! TF.FilePolarity,Negative*
%FSLAX46Y46*%
G04 Gerber Fmt 4.6, Leading zero omitted, Abs format (unit mm)*
G04 Created by KiCad (PCBNEW (5.1.5)-3) date 2021-05-08 00:02:10*
%MOMM*%
%LPD*%
G04 APERTURE LIST*
%ADD10C,0.100000*%
G04 APERTURE END LIST*
D10*
G36*
X147123250Y-161373750D02*
G01*
X145421250Y-161373750D01*
X145421250Y-159671750D01*
X147123250Y-159671750D01*
X147123250Y-161373750D01*
G37*
G36*
X139979500Y-161373750D02*
G01*
X138277500Y-161373750D01*
X138277500Y-159671750D01*
X139979500Y-159671750D01*
X139979500Y-161373750D01*
G37*
G36*
X154267000Y-161361250D02*
G01*
X152565000Y-161361250D01*
X152565000Y-159659250D01*
X154267000Y-159659250D01*
X154267000Y-161361250D01*
G37*
G36*
X72827724Y-151227434D02*
G01*
X73045724Y-151317733D01*
X73199873Y-151381583D01*
X73534798Y-151605373D01*
X73819627Y-151890202D01*
X74043417Y-152225127D01*
X74107267Y-152379276D01*
X74197566Y-152597276D01*
X74276150Y-152992344D01*
X74276150Y-153395156D01*
X74197566Y-153790224D01*
X74113572Y-153993003D01*
X74043417Y-154162373D01*
X73819627Y-154497298D01*
X73534798Y-154782127D01*
X73199873Y-155005917D01*
X73045724Y-155069767D01*
X72827724Y-155160066D01*
X72432656Y-155238650D01*
X72029844Y-155238650D01*
X71634776Y-155160066D01*
X71416776Y-155069767D01*
X71262627Y-155005917D01*
X70927702Y-154782127D01*
X70642873Y-154497298D01*
X70419083Y-154162373D01*
X70348928Y-153993003D01*
X70264934Y-153790224D01*
X70186350Y-153395156D01*
X70186350Y-152992344D01*
X70264934Y-152597276D01*
X70355233Y-152379276D01*
X70419083Y-152225127D01*
X70642873Y-151890202D01*
X70927702Y-151605373D01*
X71262627Y-151381583D01*
X71416776Y-151317733D01*
X71634776Y-151227434D01*
X72029844Y-151148850D01*
X72432656Y-151148850D01*
X72827724Y-151227434D01*
G37*
G36*
X101402724Y-151227434D02*
G01*
X101620724Y-151317733D01*
X101774873Y-151381583D01*
X102109798Y-151605373D01*
X102394627Y-151890202D01*
X102618417Y-152225127D01*
X102682267Y-152379276D01*
X102772566Y-152597276D01*
X102851150Y-152992344D01*
X102851150Y-153395156D01*
X102772566Y-153790224D01*
X102688572Y-153993003D01*
X102618417Y-154162373D01*
X102394627Y-154497298D01*
X102109798Y-154782127D01*
X101774873Y-155005917D01*
X101620724Y-155069767D01*
X101402724Y-155160066D01*
X101007656Y-155238650D01*
X100604844Y-155238650D01*
X100209776Y-155160066D01*
X99991776Y-155069767D01*
X99837627Y-155005917D01*
X99502702Y-154782127D01*
X99217873Y-154497298D01*
X98994083Y-154162373D01*
X98923928Y-153993003D01*
X98839934Y-153790224D01*
X98761350Y-153395156D01*
X98761350Y-152992344D01*
X98839934Y-152597276D01*
X98930233Y-152379276D01*
X98994083Y-152225127D01*
X99217873Y-151890202D01*
X99502702Y-151605373D01*
X99837627Y-151381583D01*
X99991776Y-151317733D01*
X100209776Y-151227434D01*
X100604844Y-151148850D01*
X101007656Y-151148850D01*
X101402724Y-151227434D01*
G37*
G36*
X95891999Y-152307150D02*
G01*
X95989325Y-152326509D01*
X96098748Y-152371834D01*
X96153461Y-152394497D01*
X96273226Y-152474521D01*
X96301178Y-152493198D01*
X96426802Y-152618822D01*
X96426804Y-152618825D01*
X96525503Y-152766539D01*
X96536905Y-152794066D01*
X96593491Y-152930675D01*
X96628150Y-153104921D01*
X96628150Y-153282579D01*
X96593491Y-153456825D01*
X96550236Y-153561250D01*
X96525503Y-153620961D01*
X96427467Y-153767683D01*
X96426802Y-153768678D01*
X96301178Y-153894302D01*
X96301175Y-153894304D01*
X96153461Y-153993003D01*
X96098748Y-154015666D01*
X95989325Y-154060991D01*
X95902202Y-154078320D01*
X95815081Y-154095650D01*
X95637419Y-154095650D01*
X95550298Y-154078320D01*
X95463175Y-154060991D01*
X95353752Y-154015666D01*
X95299039Y-153993003D01*
X95151325Y-153894304D01*
X95151322Y-153894302D01*
X95025698Y-153768678D01*
X95025033Y-153767683D01*
X94926997Y-153620961D01*
X94902264Y-153561250D01*
X94859009Y-153456825D01*
X94824350Y-153282579D01*
X94824350Y-153104921D01*
X94859009Y-152930675D01*
X94915595Y-152794066D01*
X94926997Y-152766539D01*
X95025696Y-152618825D01*
X95025698Y-152618822D01*
X95151322Y-152493198D01*
X95179274Y-152474521D01*
X95299039Y-152394497D01*
X95353752Y-152371834D01*
X95463175Y-152326509D01*
X95560501Y-152307150D01*
X95637419Y-152291850D01*
X95815081Y-152291850D01*
X95891999Y-152307150D01*
G37*
G36*
X77476999Y-152307150D02*
G01*
X77574325Y-152326509D01*
X77683748Y-152371834D01*
X77738461Y-152394497D01*
X77858226Y-152474521D01*
X77886178Y-152493198D01*
X78011802Y-152618822D01*
X78011804Y-152618825D01*
X78110503Y-152766539D01*
X78121905Y-152794066D01*
X78178491Y-152930675D01*
X78213150Y-153104921D01*
X78213150Y-153282579D01*
X78178491Y-153456825D01*
X78135236Y-153561250D01*
X78110503Y-153620961D01*
X78012467Y-153767683D01*
X78011802Y-153768678D01*
X77886178Y-153894302D01*
X77886175Y-153894304D01*
X77738461Y-153993003D01*
X77683748Y-154015666D01*
X77574325Y-154060991D01*
X77487202Y-154078320D01*
X77400081Y-154095650D01*
X77222419Y-154095650D01*
X77135298Y-154078320D01*
X77048175Y-154060991D01*
X76938752Y-154015666D01*
X76884039Y-153993003D01*
X76736325Y-153894304D01*
X76736322Y-153894302D01*
X76610698Y-153768678D01*
X76610033Y-153767683D01*
X76511997Y-153620961D01*
X76487264Y-153561250D01*
X76444009Y-153456825D01*
X76409350Y-153282579D01*
X76409350Y-153104921D01*
X76444009Y-152930675D01*
X76500595Y-152794066D01*
X76511997Y-152766539D01*
X76610696Y-152618825D01*
X76610698Y-152618822D01*
X76736322Y-152493198D01*
X76764274Y-152474521D01*
X76884039Y-152394497D01*
X76938752Y-152371834D01*
X77048175Y-152326509D01*
X77145501Y-152307150D01*
X77222419Y-152291850D01*
X77400081Y-152291850D01*
X77476999Y-152307150D01*
G37*
G36*
X67316999Y-152307150D02*
G01*
X67414325Y-152326509D01*
X67523748Y-152371834D01*
X67578461Y-152394497D01*
X67698226Y-152474521D01*
X67726178Y-152493198D01*
X67851802Y-152618822D01*
X67851804Y-152618825D01*
X67950503Y-152766539D01*
X67961905Y-152794066D01*
X68018491Y-152930675D01*
X68053150Y-153104921D01*
X68053150Y-153282579D01*
X68018491Y-153456825D01*
X67975236Y-153561250D01*
X67950503Y-153620961D01*
X67852467Y-153767683D01*
X67851802Y-153768678D01*
X67726178Y-153894302D01*
X67726175Y-153894304D01*
X67578461Y-153993003D01*
X67523748Y-154015666D01*
X67414325Y-154060991D01*
X67327202Y-154078320D01*
X67240081Y-154095650D01*
X67062419Y-154095650D01*
X66975298Y-154078320D01*
X66888175Y-154060991D01*
X66778752Y-154015666D01*
X66724039Y-153993003D01*
X66576325Y-153894304D01*
X66576322Y-153894302D01*
X66450698Y-153768678D01*
X66450033Y-153767683D01*
X66351997Y-153620961D01*
X66327264Y-153561250D01*
X66284009Y-153456825D01*
X66249350Y-153282579D01*
X66249350Y-153104921D01*
X66284009Y-152930675D01*
X66340595Y-152794066D01*
X66351997Y-152766539D01*
X66450696Y-152618825D01*
X66450698Y-152618822D01*
X66576322Y-152493198D01*
X66604274Y-152474521D01*
X66724039Y-152394497D01*
X66778752Y-152371834D01*
X66888175Y-152326509D01*
X66985501Y-152307150D01*
X67062419Y-152291850D01*
X67240081Y-152291850D01*
X67316999Y-152307150D01*
G37*
G36*
X106051999Y-152307150D02*
G01*
X106149325Y-152326509D01*
X106258748Y-152371834D01*
X106313461Y-152394497D01*
X106433226Y-152474521D01*
X106461178Y-152493198D01*
X106586802Y-152618822D01*
X106586804Y-152618825D01*
X106685503Y-152766539D01*
X106696905Y-152794066D01*
X106753491Y-152930675D01*
X106788150Y-153104921D01*
X106788150Y-153282579D01*
X106753491Y-153456825D01*
X106710236Y-153561250D01*
X106685503Y-153620961D01*
X106587467Y-153767683D01*
X106586802Y-153768678D01*
X106461178Y-153894302D01*
X106461175Y-153894304D01*
X106313461Y-153993003D01*
X106258748Y-154015666D01*
X106149325Y-154060991D01*
X106062202Y-154078320D01*
X105975081Y-154095650D01*
X105797419Y-154095650D01*
X105710298Y-154078320D01*
X105623175Y-154060991D01*
X105513752Y-154015666D01*
X105459039Y-153993003D01*
X105311325Y-153894304D01*
X105311322Y-153894302D01*
X105185698Y-153768678D01*
X105185033Y-153767683D01*
X105086997Y-153620961D01*
X105062264Y-153561250D01*
X105019009Y-153456825D01*
X104984350Y-153282579D01*
X104984350Y-153104921D01*
X105019009Y-152930675D01*
X105075595Y-152794066D01*
X105086997Y-152766539D01*
X105185696Y-152618825D01*
X105185698Y-152618822D01*
X105311322Y-152493198D01*
X105339274Y-152474521D01*
X105459039Y-152394497D01*
X105513752Y-152371834D01*
X105623175Y-152326509D01*
X105720501Y-152307150D01*
X105797419Y-152291850D01*
X105975081Y-152291850D01*
X106051999Y-152307150D01*
G37*
G36*
X146520478Y-151904453D02*
G01*
X146675350Y-151968603D01*
X146814731Y-152061735D01*
X146933265Y-152180269D01*
X147026397Y-152319650D01*
X147090547Y-152474522D01*
X147123250Y-152638934D01*
X147123250Y-152806566D01*
X147090547Y-152970978D01*
X147026397Y-153125850D01*
X146933265Y-153265231D01*
X146814731Y-153383765D01*
X146675350Y-153476897D01*
X146520478Y-153541047D01*
X146356066Y-153573750D01*
X146188434Y-153573750D01*
X146024022Y-153541047D01*
X145869150Y-153476897D01*
X145729769Y-153383765D01*
X145611235Y-153265231D01*
X145518103Y-153125850D01*
X145453953Y-152970978D01*
X145421250Y-152806566D01*
X145421250Y-152638934D01*
X145453953Y-152474522D01*
X145518103Y-152319650D01*
X145611235Y-152180269D01*
X145729769Y-152061735D01*
X145869150Y-151968603D01*
X146024022Y-151904453D01*
X146188434Y-151871750D01*
X146356066Y-151871750D01*
X146520478Y-151904453D01*
G37*
G36*
X139376728Y-151904453D02*
G01*
X139531600Y-151968603D01*
X139670981Y-152061735D01*
X139789515Y-152180269D01*
X139882647Y-152319650D01*
X139946797Y-152474522D01*
X139979500Y-152638934D01*
X139979500Y-152806566D01*
X139946797Y-152970978D01*
X139882647Y-153125850D01*
X139789515Y-153265231D01*
X139670981Y-153383765D01*
X139531600Y-153476897D01*
X139376728Y-153541047D01*
X139212316Y-153573750D01*
X139044684Y-153573750D01*
X138880272Y-153541047D01*
X138725400Y-153476897D01*
X138586019Y-153383765D01*
X138467485Y-153265231D01*
X138374353Y-153125850D01*
X138310203Y-152970978D01*
X138277500Y-152806566D01*
X138277500Y-152638934D01*
X138310203Y-152474522D01*
X138374353Y-152319650D01*
X138467485Y-152180269D01*
X138586019Y-152061735D01*
X138725400Y-151968603D01*
X138880272Y-151904453D01*
X139044684Y-151871750D01*
X139212316Y-151871750D01*
X139376728Y-151904453D01*
G37*
G36*
X153664228Y-151891953D02*
G01*
X153819100Y-151956103D01*
X153958481Y-152049235D01*
X154077015Y-152167769D01*
X154170147Y-152307150D01*
X154234297Y-152462022D01*
X154267000Y-152626434D01*
X154267000Y-152794066D01*
X154234297Y-152958478D01*
X154170147Y-153113350D01*
X154077015Y-153252731D01*
X153958481Y-153371265D01*
X153819100Y-153464397D01*
X153664228Y-153528547D01*
X153499816Y-153561250D01*
X153332184Y-153561250D01*
X153167772Y-153528547D01*
X153012900Y-153464397D01*
X152873519Y-153371265D01*
X152754985Y-153252731D01*
X152661853Y-153113350D01*
X152597703Y-152958478D01*
X152565000Y-152794066D01*
X152565000Y-152626434D01*
X152597703Y-152462022D01*
X152661853Y-152307150D01*
X152754985Y-152167769D01*
X152873519Y-152049235D01*
X153012900Y-151956103D01*
X153167772Y-151891953D01*
X153332184Y-151859250D01*
X153499816Y-151859250D01*
X153664228Y-151891953D01*
G37*
G36*
X76343835Y-149132552D02*
G01*
X76493660Y-149162354D01*
X76775924Y-149279271D01*
X77029955Y-149449009D01*
X77245991Y-149665045D01*
X77415729Y-149919076D01*
X77532646Y-150201340D01*
X77592250Y-150500990D01*
X77592250Y-150806510D01*
X77532646Y-151106160D01*
X77415729Y-151388424D01*
X77245991Y-151642455D01*
X77029955Y-151858491D01*
X76775924Y-152028229D01*
X76493660Y-152145146D01*
X76379926Y-152167769D01*
X76194011Y-152204750D01*
X75888489Y-152204750D01*
X75702574Y-152167769D01*
X75588840Y-152145146D01*
X75306576Y-152028229D01*
X75052545Y-151858491D01*
X74836509Y-151642455D01*
X74666771Y-151388424D01*
X74549854Y-151106160D01*
X74490250Y-150806510D01*
X74490250Y-150500990D01*
X74549854Y-150201340D01*
X74666771Y-149919076D01*
X74836509Y-149665045D01*
X75052545Y-149449009D01*
X75306576Y-149279271D01*
X75588840Y-149162354D01*
X75738665Y-149132552D01*
X75888489Y-149102750D01*
X76194011Y-149102750D01*
X76343835Y-149132552D01*
G37*
G36*
X104918835Y-149132552D02*
G01*
X105068660Y-149162354D01*
X105350924Y-149279271D01*
X105604955Y-149449009D01*
X105820991Y-149665045D01*
X105990729Y-149919076D01*
X106107646Y-150201340D01*
X106167250Y-150500990D01*
X106167250Y-150806510D01*
X106107646Y-151106160D01*
X105990729Y-151388424D01*
X105820991Y-151642455D01*
X105604955Y-151858491D01*
X105350924Y-152028229D01*
X105068660Y-152145146D01*
X104954926Y-152167769D01*
X104769011Y-152204750D01*
X104463489Y-152204750D01*
X104277574Y-152167769D01*
X104163840Y-152145146D01*
X103881576Y-152028229D01*
X103627545Y-151858491D01*
X103411509Y-151642455D01*
X103241771Y-151388424D01*
X103124854Y-151106160D01*
X103065250Y-150806510D01*
X103065250Y-150500990D01*
X103124854Y-150201340D01*
X103241771Y-149919076D01*
X103411509Y-149665045D01*
X103627545Y-149449009D01*
X103881576Y-149279271D01*
X104163840Y-149162354D01*
X104313665Y-149132552D01*
X104463489Y-149102750D01*
X104769011Y-149102750D01*
X104918835Y-149132552D01*
G37*
G36*
X69993835Y-146592552D02*
G01*
X70143660Y-146622354D01*
X70425924Y-146739271D01*
X70679955Y-146909009D01*
X70895991Y-147125045D01*
X71065729Y-147379076D01*
X71182646Y-147661340D01*
X71242250Y-147960990D01*
X71242250Y-148266510D01*
X71182646Y-148566160D01*
X71065729Y-148848424D01*
X70895991Y-149102455D01*
X70679955Y-149318491D01*
X70425924Y-149488229D01*
X70143660Y-149605146D01*
X69993835Y-149634948D01*
X69844011Y-149664750D01*
X69538489Y-149664750D01*
X69388665Y-149634948D01*
X69238840Y-149605146D01*
X68956576Y-149488229D01*
X68702545Y-149318491D01*
X68486509Y-149102455D01*
X68316771Y-148848424D01*
X68199854Y-148566160D01*
X68140250Y-148266510D01*
X68140250Y-147960990D01*
X68199854Y-147661340D01*
X68316771Y-147379076D01*
X68486509Y-147125045D01*
X68702545Y-146909009D01*
X68956576Y-146739271D01*
X69238840Y-146622354D01*
X69388665Y-146592552D01*
X69538489Y-146562750D01*
X69844011Y-146562750D01*
X69993835Y-146592552D01*
G37*
G36*
X98568835Y-146592552D02*
G01*
X98718660Y-146622354D01*
X99000924Y-146739271D01*
X99254955Y-146909009D01*
X99470991Y-147125045D01*
X99640729Y-147379076D01*
X99757646Y-147661340D01*
X99817250Y-147960990D01*
X99817250Y-148266510D01*
X99757646Y-148566160D01*
X99640729Y-148848424D01*
X99470991Y-149102455D01*
X99254955Y-149318491D01*
X99000924Y-149488229D01*
X98718660Y-149605146D01*
X98568835Y-149634948D01*
X98419011Y-149664750D01*
X98113489Y-149664750D01*
X97963665Y-149634948D01*
X97813840Y-149605146D01*
X97531576Y-149488229D01*
X97277545Y-149318491D01*
X97061509Y-149102455D01*
X96891771Y-148848424D01*
X96774854Y-148566160D01*
X96715250Y-148266510D01*
X96715250Y-147960990D01*
X96774854Y-147661340D01*
X96891771Y-147379076D01*
X97061509Y-147125045D01*
X97277545Y-146909009D01*
X97531576Y-146739271D01*
X97813840Y-146622354D01*
X97963665Y-146592552D01*
X98113489Y-146562750D01*
X98419011Y-146562750D01*
X98568835Y-146592552D01*
G37*
G36*
X154267000Y-147086250D02*
G01*
X152565000Y-147086250D01*
X152565000Y-145384250D01*
X154267000Y-145384250D01*
X154267000Y-147086250D01*
G37*
G36*
X147123250Y-147086250D02*
G01*
X145421250Y-147086250D01*
X145421250Y-145384250D01*
X147123250Y-145384250D01*
X147123250Y-147086250D01*
G37*
G36*
X139979500Y-147086250D02*
G01*
X138277500Y-147086250D01*
X138277500Y-145384250D01*
X139979500Y-145384250D01*
X139979500Y-147086250D01*
G37*
G36*
X120452724Y-141702434D02*
G01*
X120670724Y-141792733D01*
X120824873Y-141856583D01*
X121159798Y-142080373D01*
X121444627Y-142365202D01*
X121668417Y-142700127D01*
X121732267Y-142854276D01*
X121822566Y-143072276D01*
X121901150Y-143467344D01*
X121901150Y-143870156D01*
X121822566Y-144265224D01*
X121738572Y-144468003D01*
X121668417Y-144637373D01*
X121444627Y-144972298D01*
X121159798Y-145257127D01*
X120824873Y-145480917D01*
X120670724Y-145544767D01*
X120452724Y-145635066D01*
X120057656Y-145713650D01*
X119654844Y-145713650D01*
X119259776Y-145635066D01*
X119041776Y-145544767D01*
X118887627Y-145480917D01*
X118552702Y-145257127D01*
X118267873Y-144972298D01*
X118044083Y-144637373D01*
X117973928Y-144468003D01*
X117889934Y-144265224D01*
X117811350Y-143870156D01*
X117811350Y-143467344D01*
X117889934Y-143072276D01*
X117980233Y-142854276D01*
X118044083Y-142700127D01*
X118267873Y-142365202D01*
X118552702Y-142080373D01*
X118887627Y-141856583D01*
X119041776Y-141792733D01*
X119259776Y-141702434D01*
X119654844Y-141623850D01*
X120057656Y-141623850D01*
X120452724Y-141702434D01*
G37*
G36*
X114952202Y-142784179D02*
G01*
X115039325Y-142801509D01*
X115148748Y-142846834D01*
X115203461Y-142869497D01*
X115350183Y-142967533D01*
X115351178Y-142968198D01*
X115476802Y-143093822D01*
X115476804Y-143093825D01*
X115575503Y-143241539D01*
X115575503Y-143241540D01*
X115643491Y-143405675D01*
X115678150Y-143579921D01*
X115678150Y-143757579D01*
X115643491Y-143931825D01*
X115598166Y-144041248D01*
X115575503Y-144095961D01*
X115477467Y-144242683D01*
X115476802Y-144243678D01*
X115351178Y-144369302D01*
X115351175Y-144369304D01*
X115203461Y-144468003D01*
X115148748Y-144490666D01*
X115039325Y-144535991D01*
X114952202Y-144553320D01*
X114865081Y-144570650D01*
X114687419Y-144570650D01*
X114600298Y-144553320D01*
X114513175Y-144535991D01*
X114403752Y-144490666D01*
X114349039Y-144468003D01*
X114201325Y-144369304D01*
X114201322Y-144369302D01*
X114075698Y-144243678D01*
X114075033Y-144242683D01*
X113976997Y-144095961D01*
X113954334Y-144041248D01*
X113909009Y-143931825D01*
X113874350Y-143757579D01*
X113874350Y-143579921D01*
X113909009Y-143405675D01*
X113976997Y-143241540D01*
X113976997Y-143241539D01*
X114075696Y-143093825D01*
X114075698Y-143093822D01*
X114201322Y-142968198D01*
X114202317Y-142967533D01*
X114349039Y-142869497D01*
X114403752Y-142846834D01*
X114513175Y-142801509D01*
X114600298Y-142784179D01*
X114687419Y-142766850D01*
X114865081Y-142766850D01*
X114952202Y-142784179D01*
G37*
G36*
X125112202Y-142784179D02*
G01*
X125199325Y-142801509D01*
X125308748Y-142846834D01*
X125363461Y-142869497D01*
X125510183Y-142967533D01*
X125511178Y-142968198D01*
X125636802Y-143093822D01*
X125636804Y-143093825D01*
X125735503Y-143241539D01*
X125735503Y-143241540D01*
X125803491Y-143405675D01*
X125838150Y-143579921D01*
X125838150Y-143757579D01*
X125803491Y-143931825D01*
X125758166Y-144041248D01*
X125735503Y-144095961D01*
X125637467Y-144242683D01*
X125636802Y-144243678D01*
X125511178Y-144369302D01*
X125511175Y-144369304D01*
X125363461Y-144468003D01*
X125308748Y-144490666D01*
X125199325Y-144535991D01*
X125112202Y-144553320D01*
X125025081Y-144570650D01*
X124847419Y-144570650D01*
X124760298Y-144553320D01*
X124673175Y-144535991D01*
X124563752Y-144490666D01*
X124509039Y-144468003D01*
X124361325Y-144369304D01*
X124361322Y-144369302D01*
X124235698Y-144243678D01*
X124235033Y-144242683D01*
X124136997Y-144095961D01*
X124114334Y-144041248D01*
X124069009Y-143931825D01*
X124034350Y-143757579D01*
X124034350Y-143579921D01*
X124069009Y-143405675D01*
X124136997Y-143241540D01*
X124136997Y-143241539D01*
X124235696Y-143093825D01*
X124235698Y-143093822D01*
X124361322Y-142968198D01*
X124362317Y-142967533D01*
X124509039Y-142869497D01*
X124563752Y-142846834D01*
X124673175Y-142801509D01*
X124760298Y-142784179D01*
X124847419Y-142766850D01*
X125025081Y-142766850D01*
X125112202Y-142784179D01*
G37*
G36*
X123968835Y-139607552D02*
G01*
X124118660Y-139637354D01*
X124400924Y-139754271D01*
X124654955Y-139924009D01*
X124870991Y-140140045D01*
X125040729Y-140394076D01*
X125157646Y-140676340D01*
X125217250Y-140975990D01*
X125217250Y-141281510D01*
X125157646Y-141581160D01*
X125040729Y-141863424D01*
X124870991Y-142117455D01*
X124654955Y-142333491D01*
X124400924Y-142503229D01*
X124118660Y-142620146D01*
X123968835Y-142649948D01*
X123819011Y-142679750D01*
X123513489Y-142679750D01*
X123363665Y-142649948D01*
X123213840Y-142620146D01*
X122931576Y-142503229D01*
X122677545Y-142333491D01*
X122461509Y-142117455D01*
X122291771Y-141863424D01*
X122174854Y-141581160D01*
X122115250Y-141281510D01*
X122115250Y-140975990D01*
X122174854Y-140676340D01*
X122291771Y-140394076D01*
X122461509Y-140140045D01*
X122677545Y-139924009D01*
X122931576Y-139754271D01*
X123213840Y-139637354D01*
X123363665Y-139607552D01*
X123513489Y-139577750D01*
X123819011Y-139577750D01*
X123968835Y-139607552D01*
G37*
G36*
X117618835Y-137067552D02*
G01*
X117768660Y-137097354D01*
X118050924Y-137214271D01*
X118304955Y-137384009D01*
X118520991Y-137600045D01*
X118690729Y-137854076D01*
X118807646Y-138136340D01*
X118867250Y-138435990D01*
X118867250Y-138741510D01*
X118807646Y-139041160D01*
X118690729Y-139323424D01*
X118520991Y-139577455D01*
X118304955Y-139793491D01*
X118050924Y-139963229D01*
X117768660Y-140080146D01*
X117618835Y-140109948D01*
X117469011Y-140139750D01*
X117163489Y-140139750D01*
X117013665Y-140109948D01*
X116863840Y-140080146D01*
X116581576Y-139963229D01*
X116327545Y-139793491D01*
X116111509Y-139577455D01*
X115941771Y-139323424D01*
X115824854Y-139041160D01*
X115765250Y-138741510D01*
X115765250Y-138435990D01*
X115824854Y-138136340D01*
X115941771Y-137854076D01*
X116111509Y-137600045D01*
X116327545Y-137384009D01*
X116581576Y-137214271D01*
X116863840Y-137097354D01*
X117013665Y-137067552D01*
X117163489Y-137037750D01*
X117469011Y-137037750D01*
X117618835Y-137067552D01*
G37*
G36*
X153664228Y-137616953D02*
G01*
X153819100Y-137681103D01*
X153958481Y-137774235D01*
X154077015Y-137892769D01*
X154170147Y-138032150D01*
X154234297Y-138187022D01*
X154267000Y-138351434D01*
X154267000Y-138519066D01*
X154234297Y-138683478D01*
X154170147Y-138838350D01*
X154077015Y-138977731D01*
X153958481Y-139096265D01*
X153819100Y-139189397D01*
X153664228Y-139253547D01*
X153499816Y-139286250D01*
X153332184Y-139286250D01*
X153167772Y-139253547D01*
X153012900Y-139189397D01*
X152873519Y-139096265D01*
X152754985Y-138977731D01*
X152661853Y-138838350D01*
X152597703Y-138683478D01*
X152565000Y-138519066D01*
X152565000Y-138351434D01*
X152597703Y-138187022D01*
X152661853Y-138032150D01*
X152754985Y-137892769D01*
X152873519Y-137774235D01*
X153012900Y-137681103D01*
X153167772Y-137616953D01*
X153332184Y-137584250D01*
X153499816Y-137584250D01*
X153664228Y-137616953D01*
G37*
G36*
X139376728Y-137616953D02*
G01*
X139531600Y-137681103D01*
X139670981Y-137774235D01*
X139789515Y-137892769D01*
X139882647Y-138032150D01*
X139946797Y-138187022D01*
X139979500Y-138351434D01*
X139979500Y-138519066D01*
X139946797Y-138683478D01*
X139882647Y-138838350D01*
X139789515Y-138977731D01*
X139670981Y-139096265D01*
X139531600Y-139189397D01*
X139376728Y-139253547D01*
X139212316Y-139286250D01*
X139044684Y-139286250D01*
X138880272Y-139253547D01*
X138725400Y-139189397D01*
X138586019Y-139096265D01*
X138467485Y-138977731D01*
X138374353Y-138838350D01*
X138310203Y-138683478D01*
X138277500Y-138519066D01*
X138277500Y-138351434D01*
X138310203Y-138187022D01*
X138374353Y-138032150D01*
X138467485Y-137892769D01*
X138586019Y-137774235D01*
X138725400Y-137681103D01*
X138880272Y-137616953D01*
X139044684Y-137584250D01*
X139212316Y-137584250D01*
X139376728Y-137616953D01*
G37*
G36*
X146520478Y-137616953D02*
G01*
X146675350Y-137681103D01*
X146814731Y-137774235D01*
X146933265Y-137892769D01*
X147026397Y-138032150D01*
X147090547Y-138187022D01*
X147123250Y-138351434D01*
X147123250Y-138519066D01*
X147090547Y-138683478D01*
X147026397Y-138838350D01*
X146933265Y-138977731D01*
X146814731Y-139096265D01*
X146675350Y-139189397D01*
X146520478Y-139253547D01*
X146356066Y-139286250D01*
X146188434Y-139286250D01*
X146024022Y-139253547D01*
X145869150Y-139189397D01*
X145729769Y-139096265D01*
X145611235Y-138977731D01*
X145518103Y-138838350D01*
X145453953Y-138683478D01*
X145421250Y-138519066D01*
X145421250Y-138351434D01*
X145453953Y-138187022D01*
X145518103Y-138032150D01*
X145611235Y-137892769D01*
X145729769Y-137774235D01*
X145869150Y-137681103D01*
X146024022Y-137616953D01*
X146188434Y-137584250D01*
X146356066Y-137584250D01*
X146520478Y-137616953D01*
G37*
G36*
X82352724Y-132177434D02*
G01*
X82570724Y-132267733D01*
X82724873Y-132331583D01*
X83059798Y-132555373D01*
X83344627Y-132840202D01*
X83568417Y-133175127D01*
X83632267Y-133329276D01*
X83722566Y-133547276D01*
X83801150Y-133942344D01*
X83801150Y-134345156D01*
X83722566Y-134740224D01*
X83638572Y-134943003D01*
X83568417Y-135112373D01*
X83344627Y-135447298D01*
X83059798Y-135732127D01*
X82724873Y-135955917D01*
X82570724Y-136019767D01*
X82352724Y-136110066D01*
X81957656Y-136188650D01*
X81554844Y-136188650D01*
X81159776Y-136110066D01*
X80941776Y-136019767D01*
X80787627Y-135955917D01*
X80452702Y-135732127D01*
X80167873Y-135447298D01*
X79944083Y-135112373D01*
X79873928Y-134943003D01*
X79789934Y-134740224D01*
X79711350Y-134345156D01*
X79711350Y-133942344D01*
X79789934Y-133547276D01*
X79880233Y-133329276D01*
X79944083Y-133175127D01*
X80167873Y-132840202D01*
X80452702Y-132555373D01*
X80787627Y-132331583D01*
X80941776Y-132267733D01*
X81159776Y-132177434D01*
X81554844Y-132098850D01*
X81957656Y-132098850D01*
X82352724Y-132177434D01*
G37*
G36*
X63302724Y-132177434D02*
G01*
X63520724Y-132267733D01*
X63674873Y-132331583D01*
X64009798Y-132555373D01*
X64294627Y-132840202D01*
X64518417Y-133175127D01*
X64582267Y-133329276D01*
X64672566Y-133547276D01*
X64751150Y-133942344D01*
X64751150Y-134345156D01*
X64672566Y-134740224D01*
X64588572Y-134943003D01*
X64518417Y-135112373D01*
X64294627Y-135447298D01*
X64009798Y-135732127D01*
X63674873Y-135955917D01*
X63520724Y-136019767D01*
X63302724Y-136110066D01*
X62907656Y-136188650D01*
X62504844Y-136188650D01*
X62109776Y-136110066D01*
X61891776Y-136019767D01*
X61737627Y-135955917D01*
X61402702Y-135732127D01*
X61117873Y-135447298D01*
X60894083Y-135112373D01*
X60823928Y-134943003D01*
X60739934Y-134740224D01*
X60661350Y-134345156D01*
X60661350Y-133942344D01*
X60739934Y-133547276D01*
X60830233Y-133329276D01*
X60894083Y-133175127D01*
X61117873Y-132840202D01*
X61402702Y-132555373D01*
X61737627Y-132331583D01*
X61891776Y-132267733D01*
X62109776Y-132177434D01*
X62504844Y-132098850D01*
X62907656Y-132098850D01*
X63302724Y-132177434D01*
G37*
G36*
X101402724Y-132177434D02*
G01*
X101620724Y-132267733D01*
X101774873Y-132331583D01*
X102109798Y-132555373D01*
X102394627Y-132840202D01*
X102618417Y-133175127D01*
X102682267Y-133329276D01*
X102772566Y-133547276D01*
X102851150Y-133942344D01*
X102851150Y-134345156D01*
X102772566Y-134740224D01*
X102688572Y-134943003D01*
X102618417Y-135112373D01*
X102394627Y-135447298D01*
X102109798Y-135732127D01*
X101774873Y-135955917D01*
X101620724Y-136019767D01*
X101402724Y-136110066D01*
X101007656Y-136188650D01*
X100604844Y-136188650D01*
X100209776Y-136110066D01*
X99991776Y-136019767D01*
X99837627Y-135955917D01*
X99502702Y-135732127D01*
X99217873Y-135447298D01*
X98994083Y-135112373D01*
X98923928Y-134943003D01*
X98839934Y-134740224D01*
X98761350Y-134345156D01*
X98761350Y-133942344D01*
X98839934Y-133547276D01*
X98930233Y-133329276D01*
X98994083Y-133175127D01*
X99217873Y-132840202D01*
X99502702Y-132555373D01*
X99837627Y-132331583D01*
X99991776Y-132267733D01*
X100209776Y-132177434D01*
X100604844Y-132098850D01*
X101007656Y-132098850D01*
X101402724Y-132177434D01*
G37*
G36*
X106062202Y-133259180D02*
G01*
X106149325Y-133276509D01*
X106258748Y-133321834D01*
X106313461Y-133344497D01*
X106460183Y-133442533D01*
X106461178Y-133443198D01*
X106586802Y-133568822D01*
X106586804Y-133568825D01*
X106685503Y-133716539D01*
X106685503Y-133716540D01*
X106753491Y-133880675D01*
X106788150Y-134054921D01*
X106788150Y-134232579D01*
X106753491Y-134406825D01*
X106708166Y-134516248D01*
X106685503Y-134570961D01*
X106587467Y-134717683D01*
X106586802Y-134718678D01*
X106461178Y-134844302D01*
X106461175Y-134844304D01*
X106313461Y-134943003D01*
X106258748Y-134965666D01*
X106149325Y-135010991D01*
X106062202Y-135028320D01*
X105975081Y-135045650D01*
X105797419Y-135045650D01*
X105710298Y-135028320D01*
X105623175Y-135010991D01*
X105513752Y-134965666D01*
X105459039Y-134943003D01*
X105311325Y-134844304D01*
X105311322Y-134844302D01*
X105185698Y-134718678D01*
X105185033Y-134717683D01*
X105086997Y-134570961D01*
X105064334Y-134516248D01*
X105019009Y-134406825D01*
X104984350Y-134232579D01*
X104984350Y-134054921D01*
X105019009Y-133880675D01*
X105086997Y-133716540D01*
X105086997Y-133716539D01*
X105185696Y-133568825D01*
X105185698Y-133568822D01*
X105311322Y-133443198D01*
X105312317Y-133442533D01*
X105459039Y-133344497D01*
X105513752Y-133321834D01*
X105623175Y-133276509D01*
X105710298Y-133259180D01*
X105797419Y-133241850D01*
X105975081Y-133241850D01*
X106062202Y-133259180D01*
G37*
G36*
X57802202Y-133259180D02*
G01*
X57889325Y-133276509D01*
X57998748Y-133321834D01*
X58053461Y-133344497D01*
X58200183Y-133442533D01*
X58201178Y-133443198D01*
X58326802Y-133568822D01*
X58326804Y-133568825D01*
X58425503Y-133716539D01*
X58425503Y-133716540D01*
X58493491Y-133880675D01*
X58528150Y-134054921D01*
X58528150Y-134232579D01*
X58493491Y-134406825D01*
X58448166Y-134516248D01*
X58425503Y-134570961D01*
X58327467Y-134717683D01*
X58326802Y-134718678D01*
X58201178Y-134844302D01*
X58201175Y-134844304D01*
X58053461Y-134943003D01*
X57998748Y-134965666D01*
X57889325Y-135010991D01*
X57802202Y-135028320D01*
X57715081Y-135045650D01*
X57537419Y-135045650D01*
X57450298Y-135028320D01*
X57363175Y-135010991D01*
X57253752Y-134965666D01*
X57199039Y-134943003D01*
X57051325Y-134844304D01*
X57051322Y-134844302D01*
X56925698Y-134718678D01*
X56925033Y-134717683D01*
X56826997Y-134570961D01*
X56804334Y-134516248D01*
X56759009Y-134406825D01*
X56724350Y-134232579D01*
X56724350Y-134054921D01*
X56759009Y-133880675D01*
X56826997Y-133716540D01*
X56826997Y-133716539D01*
X56925696Y-133568825D01*
X56925698Y-133568822D01*
X57051322Y-133443198D01*
X57052317Y-133442533D01*
X57199039Y-133344497D01*
X57253752Y-133321834D01*
X57363175Y-133276509D01*
X57450298Y-133259180D01*
X57537419Y-133241850D01*
X57715081Y-133241850D01*
X57802202Y-133259180D01*
G37*
G36*
X67962202Y-133259180D02*
G01*
X68049325Y-133276509D01*
X68158748Y-133321834D01*
X68213461Y-133344497D01*
X68360183Y-133442533D01*
X68361178Y-133443198D01*
X68486802Y-133568822D01*
X68486804Y-133568825D01*
X68585503Y-133716539D01*
X68585503Y-133716540D01*
X68653491Y-133880675D01*
X68688150Y-134054921D01*
X68688150Y-134232579D01*
X68653491Y-134406825D01*
X68608166Y-134516248D01*
X68585503Y-134570961D01*
X68487467Y-134717683D01*
X68486802Y-134718678D01*
X68361178Y-134844302D01*
X68361175Y-134844304D01*
X68213461Y-134943003D01*
X68158748Y-134965666D01*
X68049325Y-135010991D01*
X67962202Y-135028320D01*
X67875081Y-135045650D01*
X67697419Y-135045650D01*
X67610298Y-135028320D01*
X67523175Y-135010991D01*
X67413752Y-134965666D01*
X67359039Y-134943003D01*
X67211325Y-134844304D01*
X67211322Y-134844302D01*
X67085698Y-134718678D01*
X67085033Y-134717683D01*
X66986997Y-134570961D01*
X66964334Y-134516248D01*
X66919009Y-134406825D01*
X66884350Y-134232579D01*
X66884350Y-134054921D01*
X66919009Y-133880675D01*
X66986997Y-133716540D01*
X66986997Y-133716539D01*
X67085696Y-133568825D01*
X67085698Y-133568822D01*
X67211322Y-133443198D01*
X67212317Y-133442533D01*
X67359039Y-133344497D01*
X67413752Y-133321834D01*
X67523175Y-133276509D01*
X67610298Y-133259180D01*
X67697419Y-133241850D01*
X67875081Y-133241850D01*
X67962202Y-133259180D01*
G37*
G36*
X76852202Y-133259180D02*
G01*
X76939325Y-133276509D01*
X77048748Y-133321834D01*
X77103461Y-133344497D01*
X77250183Y-133442533D01*
X77251178Y-133443198D01*
X77376802Y-133568822D01*
X77376804Y-133568825D01*
X77475503Y-133716539D01*
X77475503Y-133716540D01*
X77543491Y-133880675D01*
X77578150Y-134054921D01*
X77578150Y-134232579D01*
X77543491Y-134406825D01*
X77498166Y-134516248D01*
X77475503Y-134570961D01*
X77377467Y-134717683D01*
X77376802Y-134718678D01*
X77251178Y-134844302D01*
X77251175Y-134844304D01*
X77103461Y-134943003D01*
X77048748Y-134965666D01*
X76939325Y-135010991D01*
X76852202Y-135028320D01*
X76765081Y-135045650D01*
X76587419Y-135045650D01*
X76500298Y-135028320D01*
X76413175Y-135010991D01*
X76303752Y-134965666D01*
X76249039Y-134943003D01*
X76101325Y-134844304D01*
X76101322Y-134844302D01*
X75975698Y-134718678D01*
X75975033Y-134717683D01*
X75876997Y-134570961D01*
X75854334Y-134516248D01*
X75809009Y-134406825D01*
X75774350Y-134232579D01*
X75774350Y-134054921D01*
X75809009Y-133880675D01*
X75876997Y-133716540D01*
X75876997Y-133716539D01*
X75975696Y-133568825D01*
X75975698Y-133568822D01*
X76101322Y-133443198D01*
X76102317Y-133442533D01*
X76249039Y-133344497D01*
X76303752Y-133321834D01*
X76413175Y-133276509D01*
X76500298Y-133259180D01*
X76587419Y-133241850D01*
X76765081Y-133241850D01*
X76852202Y-133259180D01*
G37*
G36*
X87012202Y-133259180D02*
G01*
X87099325Y-133276509D01*
X87208748Y-133321834D01*
X87263461Y-133344497D01*
X87410183Y-133442533D01*
X87411178Y-133443198D01*
X87536802Y-133568822D01*
X87536804Y-133568825D01*
X87635503Y-133716539D01*
X87635503Y-133716540D01*
X87703491Y-133880675D01*
X87738150Y-134054921D01*
X87738150Y-134232579D01*
X87703491Y-134406825D01*
X87658166Y-134516248D01*
X87635503Y-134570961D01*
X87537467Y-134717683D01*
X87536802Y-134718678D01*
X87411178Y-134844302D01*
X87411175Y-134844304D01*
X87263461Y-134943003D01*
X87208748Y-134965666D01*
X87099325Y-135010991D01*
X87012202Y-135028320D01*
X86925081Y-135045650D01*
X86747419Y-135045650D01*
X86660298Y-135028320D01*
X86573175Y-135010991D01*
X86463752Y-134965666D01*
X86409039Y-134943003D01*
X86261325Y-134844304D01*
X86261322Y-134844302D01*
X86135698Y-134718678D01*
X86135033Y-134717683D01*
X86036997Y-134570961D01*
X86014334Y-134516248D01*
X85969009Y-134406825D01*
X85934350Y-134232579D01*
X85934350Y-134054921D01*
X85969009Y-133880675D01*
X86036997Y-133716540D01*
X86036997Y-133716539D01*
X86135696Y-133568825D01*
X86135698Y-133568822D01*
X86261322Y-133443198D01*
X86262317Y-133442533D01*
X86409039Y-133344497D01*
X86463752Y-133321834D01*
X86573175Y-133276509D01*
X86660298Y-133259180D01*
X86747419Y-133241850D01*
X86925081Y-133241850D01*
X87012202Y-133259180D01*
G37*
G36*
X95902202Y-133259180D02*
G01*
X95989325Y-133276509D01*
X96098748Y-133321834D01*
X96153461Y-133344497D01*
X96300183Y-133442533D01*
X96301178Y-133443198D01*
X96426802Y-133568822D01*
X96426804Y-133568825D01*
X96525503Y-133716539D01*
X96525503Y-133716540D01*
X96593491Y-133880675D01*
X96628150Y-134054921D01*
X96628150Y-134232579D01*
X96593491Y-134406825D01*
X96548166Y-134516248D01*
X96525503Y-134570961D01*
X96427467Y-134717683D01*
X96426802Y-134718678D01*
X96301178Y-134844302D01*
X96301175Y-134844304D01*
X96153461Y-134943003D01*
X96098748Y-134965666D01*
X95989325Y-135010991D01*
X95902202Y-135028320D01*
X95815081Y-135045650D01*
X95637419Y-135045650D01*
X95550298Y-135028320D01*
X95463175Y-135010991D01*
X95353752Y-134965666D01*
X95299039Y-134943003D01*
X95151325Y-134844304D01*
X95151322Y-134844302D01*
X95025698Y-134718678D01*
X95025033Y-134717683D01*
X94926997Y-134570961D01*
X94904334Y-134516248D01*
X94859009Y-134406825D01*
X94824350Y-134232579D01*
X94824350Y-134054921D01*
X94859009Y-133880675D01*
X94926997Y-133716540D01*
X94926997Y-133716539D01*
X95025696Y-133568825D01*
X95025698Y-133568822D01*
X95151322Y-133443198D01*
X95152317Y-133442533D01*
X95299039Y-133344497D01*
X95353752Y-133321834D01*
X95463175Y-133276509D01*
X95550298Y-133259180D01*
X95637419Y-133241850D01*
X95815081Y-133241850D01*
X95902202Y-133259180D01*
G37*
G36*
X104918835Y-130082552D02*
G01*
X105068660Y-130112354D01*
X105350924Y-130229271D01*
X105604955Y-130399009D01*
X105820991Y-130615045D01*
X105990729Y-130869076D01*
X106107646Y-131151340D01*
X106167250Y-131450990D01*
X106167250Y-131756510D01*
X106107646Y-132056160D01*
X105990729Y-132338424D01*
X105820991Y-132592455D01*
X105604955Y-132808491D01*
X105350924Y-132978229D01*
X105068660Y-133095146D01*
X104918835Y-133124948D01*
X104769011Y-133154750D01*
X104463489Y-133154750D01*
X104313665Y-133124948D01*
X104163840Y-133095146D01*
X103881576Y-132978229D01*
X103627545Y-132808491D01*
X103411509Y-132592455D01*
X103241771Y-132338424D01*
X103124854Y-132056160D01*
X103065250Y-131756510D01*
X103065250Y-131450990D01*
X103124854Y-131151340D01*
X103241771Y-130869076D01*
X103411509Y-130615045D01*
X103627545Y-130399009D01*
X103881576Y-130229271D01*
X104163840Y-130112354D01*
X104313665Y-130082552D01*
X104463489Y-130052750D01*
X104769011Y-130052750D01*
X104918835Y-130082552D01*
G37*
G36*
X66818835Y-130082552D02*
G01*
X66968660Y-130112354D01*
X67250924Y-130229271D01*
X67504955Y-130399009D01*
X67720991Y-130615045D01*
X67890729Y-130869076D01*
X68007646Y-131151340D01*
X68067250Y-131450990D01*
X68067250Y-131756510D01*
X68007646Y-132056160D01*
X67890729Y-132338424D01*
X67720991Y-132592455D01*
X67504955Y-132808491D01*
X67250924Y-132978229D01*
X66968660Y-133095146D01*
X66818835Y-133124948D01*
X66669011Y-133154750D01*
X66363489Y-133154750D01*
X66213665Y-133124948D01*
X66063840Y-133095146D01*
X65781576Y-132978229D01*
X65527545Y-132808491D01*
X65311509Y-132592455D01*
X65141771Y-132338424D01*
X65024854Y-132056160D01*
X64965250Y-131756510D01*
X64965250Y-131450990D01*
X65024854Y-131151340D01*
X65141771Y-130869076D01*
X65311509Y-130615045D01*
X65527545Y-130399009D01*
X65781576Y-130229271D01*
X66063840Y-130112354D01*
X66213665Y-130082552D01*
X66363489Y-130052750D01*
X66669011Y-130052750D01*
X66818835Y-130082552D01*
G37*
G36*
X85868835Y-130082552D02*
G01*
X86018660Y-130112354D01*
X86300924Y-130229271D01*
X86554955Y-130399009D01*
X86770991Y-130615045D01*
X86940729Y-130869076D01*
X87057646Y-131151340D01*
X87117250Y-131450990D01*
X87117250Y-131756510D01*
X87057646Y-132056160D01*
X86940729Y-132338424D01*
X86770991Y-132592455D01*
X86554955Y-132808491D01*
X86300924Y-132978229D01*
X86018660Y-133095146D01*
X85868835Y-133124948D01*
X85719011Y-133154750D01*
X85413489Y-133154750D01*
X85263665Y-133124948D01*
X85113840Y-133095146D01*
X84831576Y-132978229D01*
X84577545Y-132808491D01*
X84361509Y-132592455D01*
X84191771Y-132338424D01*
X84074854Y-132056160D01*
X84015250Y-131756510D01*
X84015250Y-131450990D01*
X84074854Y-131151340D01*
X84191771Y-130869076D01*
X84361509Y-130615045D01*
X84577545Y-130399009D01*
X84831576Y-130229271D01*
X85113840Y-130112354D01*
X85263665Y-130082552D01*
X85413489Y-130052750D01*
X85719011Y-130052750D01*
X85868835Y-130082552D01*
G37*
G36*
X147123250Y-131909750D02*
G01*
X145421250Y-131909750D01*
X145421250Y-130207750D01*
X147123250Y-130207750D01*
X147123250Y-131909750D01*
G37*
G36*
X139757250Y-131909750D02*
G01*
X138055250Y-131909750D01*
X138055250Y-130207750D01*
X139757250Y-130207750D01*
X139757250Y-131909750D01*
G37*
G36*
X154267000Y-131909750D02*
G01*
X152565000Y-131909750D01*
X152565000Y-130207750D01*
X154267000Y-130207750D01*
X154267000Y-131909750D01*
G37*
G36*
X98568835Y-127542552D02*
G01*
X98718660Y-127572354D01*
X99000924Y-127689271D01*
X99254955Y-127859009D01*
X99470991Y-128075045D01*
X99640729Y-128329076D01*
X99757646Y-128611340D01*
X99817250Y-128910990D01*
X99817250Y-129216510D01*
X99757646Y-129516160D01*
X99640729Y-129798424D01*
X99470991Y-130052455D01*
X99254955Y-130268491D01*
X99000924Y-130438229D01*
X98718660Y-130555146D01*
X98568835Y-130584948D01*
X98419011Y-130614750D01*
X98113489Y-130614750D01*
X97963665Y-130584948D01*
X97813840Y-130555146D01*
X97531576Y-130438229D01*
X97277545Y-130268491D01*
X97061509Y-130052455D01*
X96891771Y-129798424D01*
X96774854Y-129516160D01*
X96715250Y-129216510D01*
X96715250Y-128910990D01*
X96774854Y-128611340D01*
X96891771Y-128329076D01*
X97061509Y-128075045D01*
X97277545Y-127859009D01*
X97531576Y-127689271D01*
X97813840Y-127572354D01*
X97963665Y-127542552D01*
X98113489Y-127512750D01*
X98419011Y-127512750D01*
X98568835Y-127542552D01*
G37*
G36*
X60468835Y-127542552D02*
G01*
X60618660Y-127572354D01*
X60900924Y-127689271D01*
X61154955Y-127859009D01*
X61370991Y-128075045D01*
X61540729Y-128329076D01*
X61657646Y-128611340D01*
X61717250Y-128910990D01*
X61717250Y-129216510D01*
X61657646Y-129516160D01*
X61540729Y-129798424D01*
X61370991Y-130052455D01*
X61154955Y-130268491D01*
X60900924Y-130438229D01*
X60618660Y-130555146D01*
X60468835Y-130584948D01*
X60319011Y-130614750D01*
X60013489Y-130614750D01*
X59863665Y-130584948D01*
X59713840Y-130555146D01*
X59431576Y-130438229D01*
X59177545Y-130268491D01*
X58961509Y-130052455D01*
X58791771Y-129798424D01*
X58674854Y-129516160D01*
X58615250Y-129216510D01*
X58615250Y-128910990D01*
X58674854Y-128611340D01*
X58791771Y-128329076D01*
X58961509Y-128075045D01*
X59177545Y-127859009D01*
X59431576Y-127689271D01*
X59713840Y-127572354D01*
X59863665Y-127542552D01*
X60013489Y-127512750D01*
X60319011Y-127512750D01*
X60468835Y-127542552D01*
G37*
G36*
X79518835Y-127542552D02*
G01*
X79668660Y-127572354D01*
X79950924Y-127689271D01*
X80204955Y-127859009D01*
X80420991Y-128075045D01*
X80590729Y-128329076D01*
X80707646Y-128611340D01*
X80767250Y-128910990D01*
X80767250Y-129216510D01*
X80707646Y-129516160D01*
X80590729Y-129798424D01*
X80420991Y-130052455D01*
X80204955Y-130268491D01*
X79950924Y-130438229D01*
X79668660Y-130555146D01*
X79518835Y-130584948D01*
X79369011Y-130614750D01*
X79063489Y-130614750D01*
X78913665Y-130584948D01*
X78763840Y-130555146D01*
X78481576Y-130438229D01*
X78227545Y-130268491D01*
X78011509Y-130052455D01*
X77841771Y-129798424D01*
X77724854Y-129516160D01*
X77665250Y-129216510D01*
X77665250Y-128910990D01*
X77724854Y-128611340D01*
X77841771Y-128329076D01*
X78011509Y-128075045D01*
X78227545Y-127859009D01*
X78481576Y-127689271D01*
X78763840Y-127572354D01*
X78913665Y-127542552D01*
X79063489Y-127512750D01*
X79369011Y-127512750D01*
X79518835Y-127542552D01*
G37*
G36*
X139154478Y-122440453D02*
G01*
X139309350Y-122504603D01*
X139448731Y-122597735D01*
X139567265Y-122716269D01*
X139660397Y-122855650D01*
X139724547Y-123010522D01*
X139757250Y-123174934D01*
X139757250Y-123342566D01*
X139724547Y-123506978D01*
X139660397Y-123661850D01*
X139567265Y-123801231D01*
X139448731Y-123919765D01*
X139309350Y-124012897D01*
X139154478Y-124077047D01*
X138990066Y-124109750D01*
X138822434Y-124109750D01*
X138658022Y-124077047D01*
X138503150Y-124012897D01*
X138363769Y-123919765D01*
X138245235Y-123801231D01*
X138152103Y-123661850D01*
X138087953Y-123506978D01*
X138055250Y-123342566D01*
X138055250Y-123174934D01*
X138087953Y-123010522D01*
X138152103Y-122855650D01*
X138245235Y-122716269D01*
X138363769Y-122597735D01*
X138503150Y-122504603D01*
X138658022Y-122440453D01*
X138822434Y-122407750D01*
X138990066Y-122407750D01*
X139154478Y-122440453D01*
G37*
G36*
X146520478Y-122440453D02*
G01*
X146675350Y-122504603D01*
X146814731Y-122597735D01*
X146933265Y-122716269D01*
X147026397Y-122855650D01*
X147090547Y-123010522D01*
X147123250Y-123174934D01*
X147123250Y-123342566D01*
X147090547Y-123506978D01*
X147026397Y-123661850D01*
X146933265Y-123801231D01*
X146814731Y-123919765D01*
X146675350Y-124012897D01*
X146520478Y-124077047D01*
X146356066Y-124109750D01*
X146188434Y-124109750D01*
X146024022Y-124077047D01*
X145869150Y-124012897D01*
X145729769Y-123919765D01*
X145611235Y-123801231D01*
X145518103Y-123661850D01*
X145453953Y-123506978D01*
X145421250Y-123342566D01*
X145421250Y-123174934D01*
X145453953Y-123010522D01*
X145518103Y-122855650D01*
X145611235Y-122716269D01*
X145729769Y-122597735D01*
X145869150Y-122504603D01*
X146024022Y-122440453D01*
X146188434Y-122407750D01*
X146356066Y-122407750D01*
X146520478Y-122440453D01*
G37*
G36*
X153664228Y-122440453D02*
G01*
X153819100Y-122504603D01*
X153958481Y-122597735D01*
X154077015Y-122716269D01*
X154170147Y-122855650D01*
X154234297Y-123010522D01*
X154267000Y-123174934D01*
X154267000Y-123342566D01*
X154234297Y-123506978D01*
X154170147Y-123661850D01*
X154077015Y-123801231D01*
X153958481Y-123919765D01*
X153819100Y-124012897D01*
X153664228Y-124077047D01*
X153499816Y-124109750D01*
X153332184Y-124109750D01*
X153167772Y-124077047D01*
X153012900Y-124012897D01*
X152873519Y-123919765D01*
X152754985Y-123801231D01*
X152661853Y-123661850D01*
X152597703Y-123506978D01*
X152565000Y-123342566D01*
X152565000Y-123174934D01*
X152597703Y-123010522D01*
X152661853Y-122855650D01*
X152754985Y-122716269D01*
X152873519Y-122597735D01*
X153012900Y-122504603D01*
X153167772Y-122440453D01*
X153332184Y-122407750D01*
X153499816Y-122407750D01*
X153664228Y-122440453D01*
G37*
G36*
X63302724Y-113127434D02*
G01*
X63520724Y-113217733D01*
X63674873Y-113281583D01*
X64009798Y-113505373D01*
X64294627Y-113790202D01*
X64518417Y-114125127D01*
X64582267Y-114279276D01*
X64672566Y-114497276D01*
X64751150Y-114892344D01*
X64751150Y-115295156D01*
X64672566Y-115690224D01*
X64588572Y-115893003D01*
X64518417Y-116062373D01*
X64294627Y-116397298D01*
X64009798Y-116682127D01*
X63674873Y-116905917D01*
X63520724Y-116969767D01*
X63302724Y-117060066D01*
X62907656Y-117138650D01*
X62504844Y-117138650D01*
X62109776Y-117060066D01*
X61891776Y-116969767D01*
X61737627Y-116905917D01*
X61402702Y-116682127D01*
X61117873Y-116397298D01*
X60894083Y-116062373D01*
X60823928Y-115893003D01*
X60739934Y-115690224D01*
X60661350Y-115295156D01*
X60661350Y-114892344D01*
X60739934Y-114497276D01*
X60830233Y-114279276D01*
X60894083Y-114125127D01*
X61117873Y-113790202D01*
X61402702Y-113505373D01*
X61737627Y-113281583D01*
X61891776Y-113217733D01*
X62109776Y-113127434D01*
X62504844Y-113048850D01*
X62907656Y-113048850D01*
X63302724Y-113127434D01*
G37*
G36*
X101402724Y-113127434D02*
G01*
X101620724Y-113217733D01*
X101774873Y-113281583D01*
X102109798Y-113505373D01*
X102394627Y-113790202D01*
X102618417Y-114125127D01*
X102682267Y-114279276D01*
X102772566Y-114497276D01*
X102851150Y-114892344D01*
X102851150Y-115295156D01*
X102772566Y-115690224D01*
X102688572Y-115893003D01*
X102618417Y-116062373D01*
X102394627Y-116397298D01*
X102109798Y-116682127D01*
X101774873Y-116905917D01*
X101620724Y-116969767D01*
X101402724Y-117060066D01*
X101007656Y-117138650D01*
X100604844Y-117138650D01*
X100209776Y-117060066D01*
X99991776Y-116969767D01*
X99837627Y-116905917D01*
X99502702Y-116682127D01*
X99217873Y-116397298D01*
X98994083Y-116062373D01*
X98923928Y-115893003D01*
X98839934Y-115690224D01*
X98761350Y-115295156D01*
X98761350Y-114892344D01*
X98839934Y-114497276D01*
X98930233Y-114279276D01*
X98994083Y-114125127D01*
X99217873Y-113790202D01*
X99502702Y-113505373D01*
X99837627Y-113281583D01*
X99991776Y-113217733D01*
X100209776Y-113127434D01*
X100604844Y-113048850D01*
X101007656Y-113048850D01*
X101402724Y-113127434D01*
G37*
G36*
X82352724Y-113127434D02*
G01*
X82570724Y-113217733D01*
X82724873Y-113281583D01*
X83059798Y-113505373D01*
X83344627Y-113790202D01*
X83568417Y-114125127D01*
X83632267Y-114279276D01*
X83722566Y-114497276D01*
X83801150Y-114892344D01*
X83801150Y-115295156D01*
X83722566Y-115690224D01*
X83638572Y-115893003D01*
X83568417Y-116062373D01*
X83344627Y-116397298D01*
X83059798Y-116682127D01*
X82724873Y-116905917D01*
X82570724Y-116969767D01*
X82352724Y-117060066D01*
X81957656Y-117138650D01*
X81554844Y-117138650D01*
X81159776Y-117060066D01*
X80941776Y-116969767D01*
X80787627Y-116905917D01*
X80452702Y-116682127D01*
X80167873Y-116397298D01*
X79944083Y-116062373D01*
X79873928Y-115893003D01*
X79789934Y-115690224D01*
X79711350Y-115295156D01*
X79711350Y-114892344D01*
X79789934Y-114497276D01*
X79880233Y-114279276D01*
X79944083Y-114125127D01*
X80167873Y-113790202D01*
X80452702Y-113505373D01*
X80787627Y-113281583D01*
X80941776Y-113217733D01*
X81159776Y-113127434D01*
X81554844Y-113048850D01*
X81957656Y-113048850D01*
X82352724Y-113127434D01*
G37*
G36*
X147123250Y-116669750D02*
G01*
X145421250Y-116669750D01*
X145421250Y-114967750D01*
X147123250Y-114967750D01*
X147123250Y-116669750D01*
G37*
G36*
X161188500Y-116669750D02*
G01*
X159486500Y-116669750D01*
X159486500Y-114967750D01*
X161188500Y-114967750D01*
X161188500Y-116669750D01*
G37*
G36*
X139979500Y-116669750D02*
G01*
X138277500Y-116669750D01*
X138277500Y-114967750D01*
X139979500Y-114967750D01*
X139979500Y-116669750D01*
G37*
G36*
X154044750Y-116669750D02*
G01*
X152342750Y-116669750D01*
X152342750Y-114967750D01*
X154044750Y-114967750D01*
X154044750Y-116669750D01*
G37*
G36*
X106062202Y-114209179D02*
G01*
X106149325Y-114226509D01*
X106258748Y-114271834D01*
X106313461Y-114294497D01*
X106460183Y-114392533D01*
X106461178Y-114393198D01*
X106586802Y-114518822D01*
X106586804Y-114518825D01*
X106685503Y-114666539D01*
X106685503Y-114666540D01*
X106753491Y-114830675D01*
X106753491Y-114830677D01*
X106780757Y-114967750D01*
X106788150Y-115004921D01*
X106788150Y-115182579D01*
X106753491Y-115356825D01*
X106708166Y-115466248D01*
X106685503Y-115520961D01*
X106587467Y-115667683D01*
X106586802Y-115668678D01*
X106461178Y-115794302D01*
X106461175Y-115794304D01*
X106313461Y-115893003D01*
X106258748Y-115915666D01*
X106149325Y-115960991D01*
X106062202Y-115978321D01*
X105975081Y-115995650D01*
X105797419Y-115995650D01*
X105710298Y-115978321D01*
X105623175Y-115960991D01*
X105513752Y-115915666D01*
X105459039Y-115893003D01*
X105311325Y-115794304D01*
X105311322Y-115794302D01*
X105185698Y-115668678D01*
X105185033Y-115667683D01*
X105086997Y-115520961D01*
X105064334Y-115466248D01*
X105019009Y-115356825D01*
X104984350Y-115182579D01*
X104984350Y-115004921D01*
X104991744Y-114967750D01*
X105019009Y-114830677D01*
X105019009Y-114830675D01*
X105086997Y-114666540D01*
X105086997Y-114666539D01*
X105185696Y-114518825D01*
X105185698Y-114518822D01*
X105311322Y-114393198D01*
X105312317Y-114392533D01*
X105459039Y-114294497D01*
X105513752Y-114271834D01*
X105623175Y-114226509D01*
X105710298Y-114209179D01*
X105797419Y-114191850D01*
X105975081Y-114191850D01*
X106062202Y-114209179D01*
G37*
G36*
X95902202Y-114209179D02*
G01*
X95989325Y-114226509D01*
X96098748Y-114271834D01*
X96153461Y-114294497D01*
X96300183Y-114392533D01*
X96301178Y-114393198D01*
X96426802Y-114518822D01*
X96426804Y-114518825D01*
X96525503Y-114666539D01*
X96525503Y-114666540D01*
X96593491Y-114830675D01*
X96593491Y-114830677D01*
X96620757Y-114967750D01*
X96628150Y-115004921D01*
X96628150Y-115182579D01*
X96593491Y-115356825D01*
X96548166Y-115466248D01*
X96525503Y-115520961D01*
X96427467Y-115667683D01*
X96426802Y-115668678D01*
X96301178Y-115794302D01*
X96301175Y-115794304D01*
X96153461Y-115893003D01*
X96098748Y-115915666D01*
X95989325Y-115960991D01*
X95902202Y-115978321D01*
X95815081Y-115995650D01*
X95637419Y-115995650D01*
X95550298Y-115978321D01*
X95463175Y-115960991D01*
X95353752Y-115915666D01*
X95299039Y-115893003D01*
X95151325Y-115794304D01*
X95151322Y-115794302D01*
X95025698Y-115668678D01*
X95025033Y-115667683D01*
X94926997Y-115520961D01*
X94904334Y-115466248D01*
X94859009Y-115356825D01*
X94824350Y-115182579D01*
X94824350Y-115004921D01*
X94831744Y-114967750D01*
X94859009Y-114830677D01*
X94859009Y-114830675D01*
X94926997Y-114666540D01*
X94926997Y-114666539D01*
X95025696Y-114518825D01*
X95025698Y-114518822D01*
X95151322Y-114393198D01*
X95152317Y-114392533D01*
X95299039Y-114294497D01*
X95353752Y-114271834D01*
X95463175Y-114226509D01*
X95550298Y-114209179D01*
X95637419Y-114191850D01*
X95815081Y-114191850D01*
X95902202Y-114209179D01*
G37*
G36*
X87012202Y-114209179D02*
G01*
X87099325Y-114226509D01*
X87208748Y-114271834D01*
X87263461Y-114294497D01*
X87410183Y-114392533D01*
X87411178Y-114393198D01*
X87536802Y-114518822D01*
X87536804Y-114518825D01*
X87635503Y-114666539D01*
X87635503Y-114666540D01*
X87703491Y-114830675D01*
X87703491Y-114830677D01*
X87730757Y-114967750D01*
X87738150Y-115004921D01*
X87738150Y-115182579D01*
X87703491Y-115356825D01*
X87658166Y-115466248D01*
X87635503Y-115520961D01*
X87537467Y-115667683D01*
X87536802Y-115668678D01*
X87411178Y-115794302D01*
X87411175Y-115794304D01*
X87263461Y-115893003D01*
X87208748Y-115915666D01*
X87099325Y-115960991D01*
X87012202Y-115978321D01*
X86925081Y-115995650D01*
X86747419Y-115995650D01*
X86660298Y-115978321D01*
X86573175Y-115960991D01*
X86463752Y-115915666D01*
X86409039Y-115893003D01*
X86261325Y-115794304D01*
X86261322Y-115794302D01*
X86135698Y-115668678D01*
X86135033Y-115667683D01*
X86036997Y-115520961D01*
X86014334Y-115466248D01*
X85969009Y-115356825D01*
X85934350Y-115182579D01*
X85934350Y-115004921D01*
X85941744Y-114967750D01*
X85969009Y-114830677D01*
X85969009Y-114830675D01*
X86036997Y-114666540D01*
X86036997Y-114666539D01*
X86135696Y-114518825D01*
X86135698Y-114518822D01*
X86261322Y-114393198D01*
X86262317Y-114392533D01*
X86409039Y-114294497D01*
X86463752Y-114271834D01*
X86573175Y-114226509D01*
X86660298Y-114209179D01*
X86747419Y-114191850D01*
X86925081Y-114191850D01*
X87012202Y-114209179D01*
G37*
G36*
X76852202Y-114209179D02*
G01*
X76939325Y-114226509D01*
X77048748Y-114271834D01*
X77103461Y-114294497D01*
X77250183Y-114392533D01*
X77251178Y-114393198D01*
X77376802Y-114518822D01*
X77376804Y-114518825D01*
X77475503Y-114666539D01*
X77475503Y-114666540D01*
X77543491Y-114830675D01*
X77543491Y-114830677D01*
X77570757Y-114967750D01*
X77578150Y-115004921D01*
X77578150Y-115182579D01*
X77543491Y-115356825D01*
X77498166Y-115466248D01*
X77475503Y-115520961D01*
X77377467Y-115667683D01*
X77376802Y-115668678D01*
X77251178Y-115794302D01*
X77251175Y-115794304D01*
X77103461Y-115893003D01*
X77048748Y-115915666D01*
X76939325Y-115960991D01*
X76852202Y-115978321D01*
X76765081Y-115995650D01*
X76587419Y-115995650D01*
X76500298Y-115978321D01*
X76413175Y-115960991D01*
X76303752Y-115915666D01*
X76249039Y-115893003D01*
X76101325Y-115794304D01*
X76101322Y-115794302D01*
X75975698Y-115668678D01*
X75975033Y-115667683D01*
X75876997Y-115520961D01*
X75854334Y-115466248D01*
X75809009Y-115356825D01*
X75774350Y-115182579D01*
X75774350Y-115004921D01*
X75781744Y-114967750D01*
X75809009Y-114830677D01*
X75809009Y-114830675D01*
X75876997Y-114666540D01*
X75876997Y-114666539D01*
X75975696Y-114518825D01*
X75975698Y-114518822D01*
X76101322Y-114393198D01*
X76102317Y-114392533D01*
X76249039Y-114294497D01*
X76303752Y-114271834D01*
X76413175Y-114226509D01*
X76500298Y-114209179D01*
X76587419Y-114191850D01*
X76765081Y-114191850D01*
X76852202Y-114209179D01*
G37*
G36*
X67962202Y-114209179D02*
G01*
X68049325Y-114226509D01*
X68158748Y-114271834D01*
X68213461Y-114294497D01*
X68360183Y-114392533D01*
X68361178Y-114393198D01*
X68486802Y-114518822D01*
X68486804Y-114518825D01*
X68585503Y-114666539D01*
X68585503Y-114666540D01*
X68653491Y-114830675D01*
X68653491Y-114830677D01*
X68680757Y-114967750D01*
X68688150Y-115004921D01*
X68688150Y-115182579D01*
X68653491Y-115356825D01*
X68608166Y-115466248D01*
X68585503Y-115520961D01*
X68487467Y-115667683D01*
X68486802Y-115668678D01*
X68361178Y-115794302D01*
X68361175Y-115794304D01*
X68213461Y-115893003D01*
X68158748Y-115915666D01*
X68049325Y-115960991D01*
X67962202Y-115978321D01*
X67875081Y-115995650D01*
X67697419Y-115995650D01*
X67610298Y-115978321D01*
X67523175Y-115960991D01*
X67413752Y-115915666D01*
X67359039Y-115893003D01*
X67211325Y-115794304D01*
X67211322Y-115794302D01*
X67085698Y-115668678D01*
X67085033Y-115667683D01*
X66986997Y-115520961D01*
X66964334Y-115466248D01*
X66919009Y-115356825D01*
X66884350Y-115182579D01*
X66884350Y-115004921D01*
X66891744Y-114967750D01*
X66919009Y-114830677D01*
X66919009Y-114830675D01*
X66986997Y-114666540D01*
X66986997Y-114666539D01*
X67085696Y-114518825D01*
X67085698Y-114518822D01*
X67211322Y-114393198D01*
X67212317Y-114392533D01*
X67359039Y-114294497D01*
X67413752Y-114271834D01*
X67523175Y-114226509D01*
X67610298Y-114209179D01*
X67697419Y-114191850D01*
X67875081Y-114191850D01*
X67962202Y-114209179D01*
G37*
G36*
X57802202Y-114209179D02*
G01*
X57889325Y-114226509D01*
X57998748Y-114271834D01*
X58053461Y-114294497D01*
X58200183Y-114392533D01*
X58201178Y-114393198D01*
X58326802Y-114518822D01*
X58326804Y-114518825D01*
X58425503Y-114666539D01*
X58425503Y-114666540D01*
X58493491Y-114830675D01*
X58493491Y-114830677D01*
X58520757Y-114967750D01*
X58528150Y-115004921D01*
X58528150Y-115182579D01*
X58493491Y-115356825D01*
X58448166Y-115466248D01*
X58425503Y-115520961D01*
X58327467Y-115667683D01*
X58326802Y-115668678D01*
X58201178Y-115794302D01*
X58201175Y-115794304D01*
X58053461Y-115893003D01*
X57998748Y-115915666D01*
X57889325Y-115960991D01*
X57802202Y-115978321D01*
X57715081Y-115995650D01*
X57537419Y-115995650D01*
X57450298Y-115978321D01*
X57363175Y-115960991D01*
X57253752Y-115915666D01*
X57199039Y-115893003D01*
X57051325Y-115794304D01*
X57051322Y-115794302D01*
X56925698Y-115668678D01*
X56925033Y-115667683D01*
X56826997Y-115520961D01*
X56804334Y-115466248D01*
X56759009Y-115356825D01*
X56724350Y-115182579D01*
X56724350Y-115004921D01*
X56731744Y-114967750D01*
X56759009Y-114830677D01*
X56759009Y-114830675D01*
X56826997Y-114666540D01*
X56826997Y-114666539D01*
X56925696Y-114518825D01*
X56925698Y-114518822D01*
X57051322Y-114393198D01*
X57052317Y-114392533D01*
X57199039Y-114294497D01*
X57253752Y-114271834D01*
X57363175Y-114226509D01*
X57450298Y-114209179D01*
X57537419Y-114191850D01*
X57715081Y-114191850D01*
X57802202Y-114209179D01*
G37*
G36*
X104918835Y-111032552D02*
G01*
X105068660Y-111062354D01*
X105350924Y-111179271D01*
X105604955Y-111349009D01*
X105820991Y-111565045D01*
X105990729Y-111819076D01*
X106107646Y-112101340D01*
X106167250Y-112400990D01*
X106167250Y-112706510D01*
X106107646Y-113006160D01*
X105990729Y-113288424D01*
X105820991Y-113542455D01*
X105604955Y-113758491D01*
X105350924Y-113928229D01*
X105068660Y-114045146D01*
X104918835Y-114074948D01*
X104769011Y-114104750D01*
X104463489Y-114104750D01*
X104313665Y-114074948D01*
X104163840Y-114045146D01*
X103881576Y-113928229D01*
X103627545Y-113758491D01*
X103411509Y-113542455D01*
X103241771Y-113288424D01*
X103124854Y-113006160D01*
X103065250Y-112706510D01*
X103065250Y-112400990D01*
X103124854Y-112101340D01*
X103241771Y-111819076D01*
X103411509Y-111565045D01*
X103627545Y-111349009D01*
X103881576Y-111179271D01*
X104163840Y-111062354D01*
X104313665Y-111032552D01*
X104463489Y-111002750D01*
X104769011Y-111002750D01*
X104918835Y-111032552D01*
G37*
G36*
X66818835Y-111032552D02*
G01*
X66968660Y-111062354D01*
X67250924Y-111179271D01*
X67504955Y-111349009D01*
X67720991Y-111565045D01*
X67890729Y-111819076D01*
X68007646Y-112101340D01*
X68067250Y-112400990D01*
X68067250Y-112706510D01*
X68007646Y-113006160D01*
X67890729Y-113288424D01*
X67720991Y-113542455D01*
X67504955Y-113758491D01*
X67250924Y-113928229D01*
X66968660Y-114045146D01*
X66818835Y-114074948D01*
X66669011Y-114104750D01*
X66363489Y-114104750D01*
X66213665Y-114074948D01*
X66063840Y-114045146D01*
X65781576Y-113928229D01*
X65527545Y-113758491D01*
X65311509Y-113542455D01*
X65141771Y-113288424D01*
X65024854Y-113006160D01*
X64965250Y-112706510D01*
X64965250Y-112400990D01*
X65024854Y-112101340D01*
X65141771Y-111819076D01*
X65311509Y-111565045D01*
X65527545Y-111349009D01*
X65781576Y-111179271D01*
X66063840Y-111062354D01*
X66213665Y-111032552D01*
X66363489Y-111002750D01*
X66669011Y-111002750D01*
X66818835Y-111032552D01*
G37*
G36*
X85868835Y-111032552D02*
G01*
X86018660Y-111062354D01*
X86300924Y-111179271D01*
X86554955Y-111349009D01*
X86770991Y-111565045D01*
X86940729Y-111819076D01*
X87057646Y-112101340D01*
X87117250Y-112400990D01*
X87117250Y-112706510D01*
X87057646Y-113006160D01*
X86940729Y-113288424D01*
X86770991Y-113542455D01*
X86554955Y-113758491D01*
X86300924Y-113928229D01*
X86018660Y-114045146D01*
X85868835Y-114074948D01*
X85719011Y-114104750D01*
X85413489Y-114104750D01*
X85263665Y-114074948D01*
X85113840Y-114045146D01*
X84831576Y-113928229D01*
X84577545Y-113758491D01*
X84361509Y-113542455D01*
X84191771Y-113288424D01*
X84074854Y-113006160D01*
X84015250Y-112706510D01*
X84015250Y-112400990D01*
X84074854Y-112101340D01*
X84191771Y-111819076D01*
X84361509Y-111565045D01*
X84577545Y-111349009D01*
X84831576Y-111179271D01*
X85113840Y-111062354D01*
X85263665Y-111032552D01*
X85413489Y-111002750D01*
X85719011Y-111002750D01*
X85868835Y-111032552D01*
G37*
G36*
X79518835Y-108492552D02*
G01*
X79668660Y-108522354D01*
X79950924Y-108639271D01*
X80204955Y-108809009D01*
X80420991Y-109025045D01*
X80590729Y-109279076D01*
X80707646Y-109561340D01*
X80767250Y-109860990D01*
X80767250Y-110166510D01*
X80707646Y-110466160D01*
X80590729Y-110748424D01*
X80420991Y-111002455D01*
X80204955Y-111218491D01*
X79950924Y-111388229D01*
X79668660Y-111505146D01*
X79518835Y-111534948D01*
X79369011Y-111564750D01*
X79063489Y-111564750D01*
X78913665Y-111534948D01*
X78763840Y-111505146D01*
X78481576Y-111388229D01*
X78227545Y-111218491D01*
X78011509Y-111002455D01*
X77841771Y-110748424D01*
X77724854Y-110466160D01*
X77665250Y-110166510D01*
X77665250Y-109860990D01*
X77724854Y-109561340D01*
X77841771Y-109279076D01*
X78011509Y-109025045D01*
X78227545Y-108809009D01*
X78481576Y-108639271D01*
X78763840Y-108522354D01*
X78913665Y-108492552D01*
X79063489Y-108462750D01*
X79369011Y-108462750D01*
X79518835Y-108492552D01*
G37*
G36*
X98568835Y-108492552D02*
G01*
X98718660Y-108522354D01*
X99000924Y-108639271D01*
X99254955Y-108809009D01*
X99470991Y-109025045D01*
X99640729Y-109279076D01*
X99757646Y-109561340D01*
X99817250Y-109860990D01*
X99817250Y-110166510D01*
X99757646Y-110466160D01*
X99640729Y-110748424D01*
X99470991Y-111002455D01*
X99254955Y-111218491D01*
X99000924Y-111388229D01*
X98718660Y-111505146D01*
X98568835Y-111534948D01*
X98419011Y-111564750D01*
X98113489Y-111564750D01*
X97963665Y-111534948D01*
X97813840Y-111505146D01*
X97531576Y-111388229D01*
X97277545Y-111218491D01*
X97061509Y-111002455D01*
X96891771Y-110748424D01*
X96774854Y-110466160D01*
X96715250Y-110166510D01*
X96715250Y-109860990D01*
X96774854Y-109561340D01*
X96891771Y-109279076D01*
X97061509Y-109025045D01*
X97277545Y-108809009D01*
X97531576Y-108639271D01*
X97813840Y-108522354D01*
X97963665Y-108492552D01*
X98113489Y-108462750D01*
X98419011Y-108462750D01*
X98568835Y-108492552D01*
G37*
G36*
X60468835Y-108492552D02*
G01*
X60618660Y-108522354D01*
X60900924Y-108639271D01*
X61154955Y-108809009D01*
X61370991Y-109025045D01*
X61540729Y-109279076D01*
X61657646Y-109561340D01*
X61717250Y-109860990D01*
X61717250Y-110166510D01*
X61657646Y-110466160D01*
X61540729Y-110748424D01*
X61370991Y-111002455D01*
X61154955Y-111218491D01*
X60900924Y-111388229D01*
X60618660Y-111505146D01*
X60468835Y-111534948D01*
X60319011Y-111564750D01*
X60013489Y-111564750D01*
X59863665Y-111534948D01*
X59713840Y-111505146D01*
X59431576Y-111388229D01*
X59177545Y-111218491D01*
X58961509Y-111002455D01*
X58791771Y-110748424D01*
X58674854Y-110466160D01*
X58615250Y-110166510D01*
X58615250Y-109860990D01*
X58674854Y-109561340D01*
X58791771Y-109279076D01*
X58961509Y-109025045D01*
X59177545Y-108809009D01*
X59431576Y-108639271D01*
X59713840Y-108522354D01*
X59863665Y-108492552D01*
X60013489Y-108462750D01*
X60319011Y-108462750D01*
X60468835Y-108492552D01*
G37*
G36*
X146520478Y-107200453D02*
G01*
X146675350Y-107264603D01*
X146814731Y-107357735D01*
X146933265Y-107476269D01*
X147026397Y-107615650D01*
X147090547Y-107770522D01*
X147123250Y-107934934D01*
X147123250Y-108102566D01*
X147090547Y-108266978D01*
X147026397Y-108421850D01*
X146933265Y-108561231D01*
X146814731Y-108679765D01*
X146675350Y-108772897D01*
X146520478Y-108837047D01*
X146356066Y-108869750D01*
X146188434Y-108869750D01*
X146024022Y-108837047D01*
X145869150Y-108772897D01*
X145729769Y-108679765D01*
X145611235Y-108561231D01*
X145518103Y-108421850D01*
X145453953Y-108266978D01*
X145421250Y-108102566D01*
X145421250Y-107934934D01*
X145453953Y-107770522D01*
X145518103Y-107615650D01*
X145611235Y-107476269D01*
X145729769Y-107357735D01*
X145869150Y-107264603D01*
X146024022Y-107200453D01*
X146188434Y-107167750D01*
X146356066Y-107167750D01*
X146520478Y-107200453D01*
G37*
G36*
X139376728Y-107200453D02*
G01*
X139531600Y-107264603D01*
X139670981Y-107357735D01*
X139789515Y-107476269D01*
X139882647Y-107615650D01*
X139946797Y-107770522D01*
X139979500Y-107934934D01*
X139979500Y-108102566D01*
X139946797Y-108266978D01*
X139882647Y-108421850D01*
X139789515Y-108561231D01*
X139670981Y-108679765D01*
X139531600Y-108772897D01*
X139376728Y-108837047D01*
X139212316Y-108869750D01*
X139044684Y-108869750D01*
X138880272Y-108837047D01*
X138725400Y-108772897D01*
X138586019Y-108679765D01*
X138467485Y-108561231D01*
X138374353Y-108421850D01*
X138310203Y-108266978D01*
X138277500Y-108102566D01*
X138277500Y-107934934D01*
X138310203Y-107770522D01*
X138374353Y-107615650D01*
X138467485Y-107476269D01*
X138586019Y-107357735D01*
X138725400Y-107264603D01*
X138880272Y-107200453D01*
X139044684Y-107167750D01*
X139212316Y-107167750D01*
X139376728Y-107200453D01*
G37*
G36*
X153441978Y-107200453D02*
G01*
X153596850Y-107264603D01*
X153736231Y-107357735D01*
X153854765Y-107476269D01*
X153947897Y-107615650D01*
X154012047Y-107770522D01*
X154044750Y-107934934D01*
X154044750Y-108102566D01*
X154012047Y-108266978D01*
X153947897Y-108421850D01*
X153854765Y-108561231D01*
X153736231Y-108679765D01*
X153596850Y-108772897D01*
X153441978Y-108837047D01*
X153277566Y-108869750D01*
X153109934Y-108869750D01*
X152945522Y-108837047D01*
X152790650Y-108772897D01*
X152651269Y-108679765D01*
X152532735Y-108561231D01*
X152439603Y-108421850D01*
X152375453Y-108266978D01*
X152342750Y-108102566D01*
X152342750Y-107934934D01*
X152375453Y-107770522D01*
X152439603Y-107615650D01*
X152532735Y-107476269D01*
X152651269Y-107357735D01*
X152790650Y-107264603D01*
X152945522Y-107200453D01*
X153109934Y-107167750D01*
X153277566Y-107167750D01*
X153441978Y-107200453D01*
G37*
G36*
X160585728Y-107200453D02*
G01*
X160740600Y-107264603D01*
X160879981Y-107357735D01*
X160998515Y-107476269D01*
X161091647Y-107615650D01*
X161155797Y-107770522D01*
X161188500Y-107934934D01*
X161188500Y-108102566D01*
X161155797Y-108266978D01*
X161091647Y-108421850D01*
X160998515Y-108561231D01*
X160879981Y-108679765D01*
X160740600Y-108772897D01*
X160585728Y-108837047D01*
X160421316Y-108869750D01*
X160253684Y-108869750D01*
X160089272Y-108837047D01*
X159934400Y-108772897D01*
X159795019Y-108679765D01*
X159676485Y-108561231D01*
X159583353Y-108421850D01*
X159519203Y-108266978D01*
X159486500Y-108102566D01*
X159486500Y-107934934D01*
X159519203Y-107770522D01*
X159583353Y-107615650D01*
X159676485Y-107476269D01*
X159795019Y-107357735D01*
X159934400Y-107264603D01*
X160089272Y-107200453D01*
X160253684Y-107167750D01*
X160421316Y-107167750D01*
X160585728Y-107200453D01*
G37*
G36*
X120452724Y-103602434D02*
G01*
X120670724Y-103692733D01*
X120824873Y-103756583D01*
X121159798Y-103980373D01*
X121444627Y-104265202D01*
X121668417Y-104600127D01*
X121732267Y-104754276D01*
X121822566Y-104972276D01*
X121901150Y-105367344D01*
X121901150Y-105770156D01*
X121822566Y-106165224D01*
X121738572Y-106368003D01*
X121668417Y-106537373D01*
X121444627Y-106872298D01*
X121159798Y-107157127D01*
X120824873Y-107380917D01*
X120670724Y-107444767D01*
X120452724Y-107535066D01*
X120057656Y-107613650D01*
X119654844Y-107613650D01*
X119259776Y-107535066D01*
X119041776Y-107444767D01*
X118887627Y-107380917D01*
X118552702Y-107157127D01*
X118267873Y-106872298D01*
X118044083Y-106537373D01*
X117973928Y-106368003D01*
X117889934Y-106165224D01*
X117811350Y-105770156D01*
X117811350Y-105367344D01*
X117889934Y-104972276D01*
X117980233Y-104754276D01*
X118044083Y-104600127D01*
X118267873Y-104265202D01*
X118552702Y-103980373D01*
X118887627Y-103756583D01*
X119041776Y-103692733D01*
X119259776Y-103602434D01*
X119654844Y-103523850D01*
X120057656Y-103523850D01*
X120452724Y-103602434D01*
G37*
G36*
X114952202Y-104684180D02*
G01*
X115039325Y-104701509D01*
X115148748Y-104746834D01*
X115203461Y-104769497D01*
X115350183Y-104867533D01*
X115351178Y-104868198D01*
X115476802Y-104993822D01*
X115476804Y-104993825D01*
X115575503Y-105141539D01*
X115575503Y-105141540D01*
X115643491Y-105305675D01*
X115678150Y-105479921D01*
X115678150Y-105657579D01*
X115643491Y-105831825D01*
X115598166Y-105941248D01*
X115575503Y-105995961D01*
X115477467Y-106142683D01*
X115476802Y-106143678D01*
X115351178Y-106269302D01*
X115351175Y-106269304D01*
X115203461Y-106368003D01*
X115148748Y-106390666D01*
X115039325Y-106435991D01*
X114952202Y-106453321D01*
X114865081Y-106470650D01*
X114687419Y-106470650D01*
X114600298Y-106453320D01*
X114513175Y-106435991D01*
X114403752Y-106390666D01*
X114349039Y-106368003D01*
X114201325Y-106269304D01*
X114201322Y-106269302D01*
X114075698Y-106143678D01*
X114075033Y-106142683D01*
X113976997Y-105995961D01*
X113954334Y-105941248D01*
X113909009Y-105831825D01*
X113874350Y-105657579D01*
X113874350Y-105479921D01*
X113909009Y-105305675D01*
X113976997Y-105141540D01*
X113976997Y-105141539D01*
X114075696Y-104993825D01*
X114075698Y-104993822D01*
X114201322Y-104868198D01*
X114202317Y-104867533D01*
X114349039Y-104769497D01*
X114403752Y-104746834D01*
X114513175Y-104701509D01*
X114600298Y-104684180D01*
X114687419Y-104666850D01*
X114865081Y-104666850D01*
X114952202Y-104684180D01*
G37*
G36*
X125112202Y-104684180D02*
G01*
X125199325Y-104701509D01*
X125308748Y-104746834D01*
X125363461Y-104769497D01*
X125510183Y-104867533D01*
X125511178Y-104868198D01*
X125636802Y-104993822D01*
X125636804Y-104993825D01*
X125735503Y-105141539D01*
X125735503Y-105141540D01*
X125803491Y-105305675D01*
X125838150Y-105479921D01*
X125838150Y-105657579D01*
X125803491Y-105831825D01*
X125758166Y-105941248D01*
X125735503Y-105995961D01*
X125637467Y-106142683D01*
X125636802Y-106143678D01*
X125511178Y-106269302D01*
X125511175Y-106269304D01*
X125363461Y-106368003D01*
X125308748Y-106390666D01*
X125199325Y-106435991D01*
X125112202Y-106453321D01*
X125025081Y-106470650D01*
X124847419Y-106470650D01*
X124760298Y-106453320D01*
X124673175Y-106435991D01*
X124563752Y-106390666D01*
X124509039Y-106368003D01*
X124361325Y-106269304D01*
X124361322Y-106269302D01*
X124235698Y-106143678D01*
X124235033Y-106142683D01*
X124136997Y-105995961D01*
X124114334Y-105941248D01*
X124069009Y-105831825D01*
X124034350Y-105657579D01*
X124034350Y-105479921D01*
X124069009Y-105305675D01*
X124136997Y-105141540D01*
X124136997Y-105141539D01*
X124235696Y-104993825D01*
X124235698Y-104993822D01*
X124361322Y-104868198D01*
X124362317Y-104867533D01*
X124509039Y-104769497D01*
X124563752Y-104746834D01*
X124673175Y-104701509D01*
X124760298Y-104684180D01*
X124847419Y-104666850D01*
X125025081Y-104666850D01*
X125112202Y-104684180D01*
G37*
G36*
X123968835Y-101507552D02*
G01*
X124118660Y-101537354D01*
X124400924Y-101654271D01*
X124654955Y-101824009D01*
X124870991Y-102040045D01*
X125040729Y-102294076D01*
X125157646Y-102576340D01*
X125217250Y-102875990D01*
X125217250Y-103181510D01*
X125157646Y-103481160D01*
X125040729Y-103763424D01*
X124870991Y-104017455D01*
X124654955Y-104233491D01*
X124400924Y-104403229D01*
X124118660Y-104520146D01*
X123968835Y-104549948D01*
X123819011Y-104579750D01*
X123513489Y-104579750D01*
X123363665Y-104549948D01*
X123213840Y-104520146D01*
X122931576Y-104403229D01*
X122677545Y-104233491D01*
X122461509Y-104017455D01*
X122291771Y-103763424D01*
X122174854Y-103481160D01*
X122115250Y-103181510D01*
X122115250Y-102875990D01*
X122174854Y-102576340D01*
X122291771Y-102294076D01*
X122461509Y-102040045D01*
X122677545Y-101824009D01*
X122931576Y-101654271D01*
X123213840Y-101537354D01*
X123363665Y-101507552D01*
X123513489Y-101477750D01*
X123819011Y-101477750D01*
X123968835Y-101507552D01*
G37*
G36*
X117618835Y-98967552D02*
G01*
X117768660Y-98997354D01*
X118050924Y-99114271D01*
X118304955Y-99284009D01*
X118520991Y-99500045D01*
X118690729Y-99754076D01*
X118807646Y-100036340D01*
X118867250Y-100335990D01*
X118867250Y-100641510D01*
X118807646Y-100941160D01*
X118690729Y-101223424D01*
X118520991Y-101477455D01*
X118304955Y-101693491D01*
X118050924Y-101863229D01*
X117768660Y-101980146D01*
X117618835Y-102009948D01*
X117469011Y-102039750D01*
X117163489Y-102039750D01*
X117013665Y-102009948D01*
X116863840Y-101980146D01*
X116581576Y-101863229D01*
X116327545Y-101693491D01*
X116111509Y-101477455D01*
X115941771Y-101223424D01*
X115824854Y-100941160D01*
X115765250Y-100641510D01*
X115765250Y-100335990D01*
X115824854Y-100036340D01*
X115941771Y-99754076D01*
X116111509Y-99500045D01*
X116327545Y-99284009D01*
X116581576Y-99114271D01*
X116863840Y-98997354D01*
X117013665Y-98967552D01*
X117163489Y-98937750D01*
X117469011Y-98937750D01*
X117618835Y-98967552D01*
G37*
G36*
X154267000Y-101588500D02*
G01*
X152565000Y-101588500D01*
X152565000Y-99886500D01*
X154267000Y-99886500D01*
X154267000Y-101588500D01*
G37*
G36*
X139979500Y-101588500D02*
G01*
X138277500Y-101588500D01*
X138277500Y-99886500D01*
X139979500Y-99886500D01*
X139979500Y-101588500D01*
G37*
G36*
X147123250Y-101588500D02*
G01*
X145421250Y-101588500D01*
X145421250Y-99886500D01*
X147123250Y-99886500D01*
X147123250Y-101588500D01*
G37*
G36*
X161188500Y-101588500D02*
G01*
X159486500Y-101588500D01*
X159486500Y-99886500D01*
X161188500Y-99886500D01*
X161188500Y-101588500D01*
G37*
G36*
X82352724Y-94077434D02*
G01*
X82570724Y-94167733D01*
X82724873Y-94231583D01*
X83059798Y-94455373D01*
X83344627Y-94740202D01*
X83568417Y-95075127D01*
X83632267Y-95229276D01*
X83722566Y-95447276D01*
X83801150Y-95842344D01*
X83801150Y-96245156D01*
X83722566Y-96640224D01*
X83638572Y-96843003D01*
X83568417Y-97012373D01*
X83344627Y-97347298D01*
X83059798Y-97632127D01*
X82724873Y-97855917D01*
X82570724Y-97919767D01*
X82352724Y-98010066D01*
X81957656Y-98088650D01*
X81554844Y-98088650D01*
X81159776Y-98010066D01*
X80941776Y-97919767D01*
X80787627Y-97855917D01*
X80452702Y-97632127D01*
X80167873Y-97347298D01*
X79944083Y-97012373D01*
X79873928Y-96843003D01*
X79789934Y-96640224D01*
X79711350Y-96245156D01*
X79711350Y-95842344D01*
X79789934Y-95447276D01*
X79880233Y-95229276D01*
X79944083Y-95075127D01*
X80167873Y-94740202D01*
X80452702Y-94455373D01*
X80787627Y-94231583D01*
X80941776Y-94167733D01*
X81159776Y-94077434D01*
X81554844Y-93998850D01*
X81957656Y-93998850D01*
X82352724Y-94077434D01*
G37*
G36*
X101402724Y-94077434D02*
G01*
X101620724Y-94167733D01*
X101774873Y-94231583D01*
X102109798Y-94455373D01*
X102394627Y-94740202D01*
X102618417Y-95075127D01*
X102682267Y-95229276D01*
X102772566Y-95447276D01*
X102851150Y-95842344D01*
X102851150Y-96245156D01*
X102772566Y-96640224D01*
X102688572Y-96843003D01*
X102618417Y-97012373D01*
X102394627Y-97347298D01*
X102109798Y-97632127D01*
X101774873Y-97855917D01*
X101620724Y-97919767D01*
X101402724Y-98010066D01*
X101007656Y-98088650D01*
X100604844Y-98088650D01*
X100209776Y-98010066D01*
X99991776Y-97919767D01*
X99837627Y-97855917D01*
X99502702Y-97632127D01*
X99217873Y-97347298D01*
X98994083Y-97012373D01*
X98923928Y-96843003D01*
X98839934Y-96640224D01*
X98761350Y-96245156D01*
X98761350Y-95842344D01*
X98839934Y-95447276D01*
X98930233Y-95229276D01*
X98994083Y-95075127D01*
X99217873Y-94740202D01*
X99502702Y-94455373D01*
X99837627Y-94231583D01*
X99991776Y-94167733D01*
X100209776Y-94077434D01*
X100604844Y-93998850D01*
X101007656Y-93998850D01*
X101402724Y-94077434D01*
G37*
G36*
X63302724Y-94077434D02*
G01*
X63520724Y-94167733D01*
X63674873Y-94231583D01*
X64009798Y-94455373D01*
X64294627Y-94740202D01*
X64518417Y-95075127D01*
X64582267Y-95229276D01*
X64672566Y-95447276D01*
X64751150Y-95842344D01*
X64751150Y-96245156D01*
X64672566Y-96640224D01*
X64588572Y-96843003D01*
X64518417Y-97012373D01*
X64294627Y-97347298D01*
X64009798Y-97632127D01*
X63674873Y-97855917D01*
X63520724Y-97919767D01*
X63302724Y-98010066D01*
X62907656Y-98088650D01*
X62504844Y-98088650D01*
X62109776Y-98010066D01*
X61891776Y-97919767D01*
X61737627Y-97855917D01*
X61402702Y-97632127D01*
X61117873Y-97347298D01*
X60894083Y-97012373D01*
X60823928Y-96843003D01*
X60739934Y-96640224D01*
X60661350Y-96245156D01*
X60661350Y-95842344D01*
X60739934Y-95447276D01*
X60830233Y-95229276D01*
X60894083Y-95075127D01*
X61117873Y-94740202D01*
X61402702Y-94455373D01*
X61737627Y-94231583D01*
X61891776Y-94167733D01*
X62109776Y-94077434D01*
X62504844Y-93998850D01*
X62907656Y-93998850D01*
X63302724Y-94077434D01*
G37*
G36*
X106062202Y-95159179D02*
G01*
X106149325Y-95176509D01*
X106258748Y-95221834D01*
X106313461Y-95244497D01*
X106460183Y-95342533D01*
X106461178Y-95343198D01*
X106586802Y-95468822D01*
X106586804Y-95468825D01*
X106685503Y-95616539D01*
X106685503Y-95616540D01*
X106753491Y-95780675D01*
X106788150Y-95954921D01*
X106788150Y-96132579D01*
X106753491Y-96306825D01*
X106708166Y-96416248D01*
X106685503Y-96470961D01*
X106587467Y-96617683D01*
X106586802Y-96618678D01*
X106461178Y-96744302D01*
X106461175Y-96744304D01*
X106313461Y-96843003D01*
X106258748Y-96865666D01*
X106149325Y-96910991D01*
X106062202Y-96928320D01*
X105975081Y-96945650D01*
X105797419Y-96945650D01*
X105710298Y-96928321D01*
X105623175Y-96910991D01*
X105513752Y-96865666D01*
X105459039Y-96843003D01*
X105311325Y-96744304D01*
X105311322Y-96744302D01*
X105185698Y-96618678D01*
X105185033Y-96617683D01*
X105086997Y-96470961D01*
X105064334Y-96416248D01*
X105019009Y-96306825D01*
X104984350Y-96132579D01*
X104984350Y-95954921D01*
X105019009Y-95780675D01*
X105086997Y-95616540D01*
X105086997Y-95616539D01*
X105185696Y-95468825D01*
X105185698Y-95468822D01*
X105311322Y-95343198D01*
X105312317Y-95342533D01*
X105459039Y-95244497D01*
X105513752Y-95221834D01*
X105623175Y-95176509D01*
X105710298Y-95159180D01*
X105797419Y-95141850D01*
X105975081Y-95141850D01*
X106062202Y-95159179D01*
G37*
G36*
X95902202Y-95159179D02*
G01*
X95989325Y-95176509D01*
X96098748Y-95221834D01*
X96153461Y-95244497D01*
X96300183Y-95342533D01*
X96301178Y-95343198D01*
X96426802Y-95468822D01*
X96426804Y-95468825D01*
X96525503Y-95616539D01*
X96525503Y-95616540D01*
X96593491Y-95780675D01*
X96628150Y-95954921D01*
X96628150Y-96132579D01*
X96593491Y-96306825D01*
X96548166Y-96416248D01*
X96525503Y-96470961D01*
X96427467Y-96617683D01*
X96426802Y-96618678D01*
X96301178Y-96744302D01*
X96301175Y-96744304D01*
X96153461Y-96843003D01*
X96098748Y-96865666D01*
X95989325Y-96910991D01*
X95902202Y-96928320D01*
X95815081Y-96945650D01*
X95637419Y-96945650D01*
X95550298Y-96928321D01*
X95463175Y-96910991D01*
X95353752Y-96865666D01*
X95299039Y-96843003D01*
X95151325Y-96744304D01*
X95151322Y-96744302D01*
X95025698Y-96618678D01*
X95025033Y-96617683D01*
X94926997Y-96470961D01*
X94904334Y-96416248D01*
X94859009Y-96306825D01*
X94824350Y-96132579D01*
X94824350Y-95954921D01*
X94859009Y-95780675D01*
X94926997Y-95616540D01*
X94926997Y-95616539D01*
X95025696Y-95468825D01*
X95025698Y-95468822D01*
X95151322Y-95343198D01*
X95152317Y-95342533D01*
X95299039Y-95244497D01*
X95353752Y-95221834D01*
X95463175Y-95176509D01*
X95550298Y-95159180D01*
X95637419Y-95141850D01*
X95815081Y-95141850D01*
X95902202Y-95159179D01*
G37*
G36*
X67962202Y-95159179D02*
G01*
X68049325Y-95176509D01*
X68158748Y-95221834D01*
X68213461Y-95244497D01*
X68360183Y-95342533D01*
X68361178Y-95343198D01*
X68486802Y-95468822D01*
X68486804Y-95468825D01*
X68585503Y-95616539D01*
X68585503Y-95616540D01*
X68653491Y-95780675D01*
X68688150Y-95954921D01*
X68688150Y-96132579D01*
X68653491Y-96306825D01*
X68608166Y-96416248D01*
X68585503Y-96470961D01*
X68487467Y-96617683D01*
X68486802Y-96618678D01*
X68361178Y-96744302D01*
X68361175Y-96744304D01*
X68213461Y-96843003D01*
X68158748Y-96865666D01*
X68049325Y-96910991D01*
X67962202Y-96928320D01*
X67875081Y-96945650D01*
X67697419Y-96945650D01*
X67610298Y-96928321D01*
X67523175Y-96910991D01*
X67413752Y-96865666D01*
X67359039Y-96843003D01*
X67211325Y-96744304D01*
X67211322Y-96744302D01*
X67085698Y-96618678D01*
X67085033Y-96617683D01*
X66986997Y-96470961D01*
X66964334Y-96416248D01*
X66919009Y-96306825D01*
X66884350Y-96132579D01*
X66884350Y-95954921D01*
X66919009Y-95780675D01*
X66986997Y-95616540D01*
X66986997Y-95616539D01*
X67085696Y-95468825D01*
X67085698Y-95468822D01*
X67211322Y-95343198D01*
X67212317Y-95342533D01*
X67359039Y-95244497D01*
X67413752Y-95221834D01*
X67523175Y-95176509D01*
X67610298Y-95159180D01*
X67697419Y-95141850D01*
X67875081Y-95141850D01*
X67962202Y-95159179D01*
G37*
G36*
X57802202Y-95159179D02*
G01*
X57889325Y-95176509D01*
X57998748Y-95221834D01*
X58053461Y-95244497D01*
X58200183Y-95342533D01*
X58201178Y-95343198D01*
X58326802Y-95468822D01*
X58326804Y-95468825D01*
X58425503Y-95616539D01*
X58425503Y-95616540D01*
X58493491Y-95780675D01*
X58528150Y-95954921D01*
X58528150Y-96132579D01*
X58493491Y-96306825D01*
X58448166Y-96416248D01*
X58425503Y-96470961D01*
X58327467Y-96617683D01*
X58326802Y-96618678D01*
X58201178Y-96744302D01*
X58201175Y-96744304D01*
X58053461Y-96843003D01*
X57998748Y-96865666D01*
X57889325Y-96910991D01*
X57802202Y-96928320D01*
X57715081Y-96945650D01*
X57537419Y-96945650D01*
X57450298Y-96928321D01*
X57363175Y-96910991D01*
X57253752Y-96865666D01*
X57199039Y-96843003D01*
X57051325Y-96744304D01*
X57051322Y-96744302D01*
X56925698Y-96618678D01*
X56925033Y-96617683D01*
X56826997Y-96470961D01*
X56804334Y-96416248D01*
X56759009Y-96306825D01*
X56724350Y-96132579D01*
X56724350Y-95954921D01*
X56759009Y-95780675D01*
X56826997Y-95616540D01*
X56826997Y-95616539D01*
X56925696Y-95468825D01*
X56925698Y-95468822D01*
X57051322Y-95343198D01*
X57052317Y-95342533D01*
X57199039Y-95244497D01*
X57253752Y-95221834D01*
X57363175Y-95176509D01*
X57450298Y-95159179D01*
X57537419Y-95141850D01*
X57715081Y-95141850D01*
X57802202Y-95159179D01*
G37*
G36*
X76852202Y-95159179D02*
G01*
X76939325Y-95176509D01*
X77048748Y-95221834D01*
X77103461Y-95244497D01*
X77250183Y-95342533D01*
X77251178Y-95343198D01*
X77376802Y-95468822D01*
X77376804Y-95468825D01*
X77475503Y-95616539D01*
X77475503Y-95616540D01*
X77543491Y-95780675D01*
X77578150Y-95954921D01*
X77578150Y-96132579D01*
X77543491Y-96306825D01*
X77498166Y-96416248D01*
X77475503Y-96470961D01*
X77377467Y-96617683D01*
X77376802Y-96618678D01*
X77251178Y-96744302D01*
X77251175Y-96744304D01*
X77103461Y-96843003D01*
X77048748Y-96865666D01*
X76939325Y-96910991D01*
X76852202Y-96928320D01*
X76765081Y-96945650D01*
X76587419Y-96945650D01*
X76500298Y-96928321D01*
X76413175Y-96910991D01*
X76303752Y-96865666D01*
X76249039Y-96843003D01*
X76101325Y-96744304D01*
X76101322Y-96744302D01*
X75975698Y-96618678D01*
X75975033Y-96617683D01*
X75876997Y-96470961D01*
X75854334Y-96416248D01*
X75809009Y-96306825D01*
X75774350Y-96132579D01*
X75774350Y-95954921D01*
X75809009Y-95780675D01*
X75876997Y-95616540D01*
X75876997Y-95616539D01*
X75975696Y-95468825D01*
X75975698Y-95468822D01*
X76101322Y-95343198D01*
X76102317Y-95342533D01*
X76249039Y-95244497D01*
X76303752Y-95221834D01*
X76413175Y-95176509D01*
X76500298Y-95159180D01*
X76587419Y-95141850D01*
X76765081Y-95141850D01*
X76852202Y-95159179D01*
G37*
G36*
X87012202Y-95159179D02*
G01*
X87099325Y-95176509D01*
X87208748Y-95221834D01*
X87263461Y-95244497D01*
X87410183Y-95342533D01*
X87411178Y-95343198D01*
X87536802Y-95468822D01*
X87536804Y-95468825D01*
X87635503Y-95616539D01*
X87635503Y-95616540D01*
X87703491Y-95780675D01*
X87738150Y-95954921D01*
X87738150Y-96132579D01*
X87703491Y-96306825D01*
X87658166Y-96416248D01*
X87635503Y-96470961D01*
X87537467Y-96617683D01*
X87536802Y-96618678D01*
X87411178Y-96744302D01*
X87411175Y-96744304D01*
X87263461Y-96843003D01*
X87208748Y-96865666D01*
X87099325Y-96910991D01*
X87012202Y-96928320D01*
X86925081Y-96945650D01*
X86747419Y-96945650D01*
X86660298Y-96928321D01*
X86573175Y-96910991D01*
X86463752Y-96865666D01*
X86409039Y-96843003D01*
X86261325Y-96744304D01*
X86261322Y-96744302D01*
X86135698Y-96618678D01*
X86135033Y-96617683D01*
X86036997Y-96470961D01*
X86014334Y-96416248D01*
X85969009Y-96306825D01*
X85934350Y-96132579D01*
X85934350Y-95954921D01*
X85969009Y-95780675D01*
X86036997Y-95616540D01*
X86036997Y-95616539D01*
X86135696Y-95468825D01*
X86135698Y-95468822D01*
X86261322Y-95343198D01*
X86262317Y-95342533D01*
X86409039Y-95244497D01*
X86463752Y-95221834D01*
X86573175Y-95176509D01*
X86660298Y-95159180D01*
X86747419Y-95141850D01*
X86925081Y-95141850D01*
X87012202Y-95159179D01*
G37*
G36*
X66818835Y-91982552D02*
G01*
X66968660Y-92012354D01*
X67250924Y-92129271D01*
X67504955Y-92299009D01*
X67720991Y-92515045D01*
X67890729Y-92769076D01*
X68007646Y-93051340D01*
X68067250Y-93350990D01*
X68067250Y-93656510D01*
X68007646Y-93956160D01*
X67890729Y-94238424D01*
X67720991Y-94492455D01*
X67504955Y-94708491D01*
X67250924Y-94878229D01*
X66968660Y-94995146D01*
X66818835Y-95024948D01*
X66669011Y-95054750D01*
X66363489Y-95054750D01*
X66213665Y-95024948D01*
X66063840Y-94995146D01*
X65781576Y-94878229D01*
X65527545Y-94708491D01*
X65311509Y-94492455D01*
X65141771Y-94238424D01*
X65024854Y-93956160D01*
X64965250Y-93656510D01*
X64965250Y-93350990D01*
X65024854Y-93051340D01*
X65141771Y-92769076D01*
X65311509Y-92515045D01*
X65527545Y-92299009D01*
X65781576Y-92129271D01*
X66063840Y-92012354D01*
X66213665Y-91982552D01*
X66363489Y-91952750D01*
X66669011Y-91952750D01*
X66818835Y-91982552D01*
G37*
G36*
X104918835Y-91982552D02*
G01*
X105068660Y-92012354D01*
X105350924Y-92129271D01*
X105604955Y-92299009D01*
X105820991Y-92515045D01*
X105990729Y-92769076D01*
X106107646Y-93051340D01*
X106167250Y-93350990D01*
X106167250Y-93656510D01*
X106107646Y-93956160D01*
X105990729Y-94238424D01*
X105820991Y-94492455D01*
X105604955Y-94708491D01*
X105350924Y-94878229D01*
X105068660Y-94995146D01*
X104918835Y-95024948D01*
X104769011Y-95054750D01*
X104463489Y-95054750D01*
X104313665Y-95024948D01*
X104163840Y-94995146D01*
X103881576Y-94878229D01*
X103627545Y-94708491D01*
X103411509Y-94492455D01*
X103241771Y-94238424D01*
X103124854Y-93956160D01*
X103065250Y-93656510D01*
X103065250Y-93350990D01*
X103124854Y-93051340D01*
X103241771Y-92769076D01*
X103411509Y-92515045D01*
X103627545Y-92299009D01*
X103881576Y-92129271D01*
X104163840Y-92012354D01*
X104313665Y-91982552D01*
X104463489Y-91952750D01*
X104769011Y-91952750D01*
X104918835Y-91982552D01*
G37*
G36*
X85868835Y-91982552D02*
G01*
X86018660Y-92012354D01*
X86300924Y-92129271D01*
X86554955Y-92299009D01*
X86770991Y-92515045D01*
X86940729Y-92769076D01*
X87057646Y-93051340D01*
X87117250Y-93350990D01*
X87117250Y-93656510D01*
X87057646Y-93956160D01*
X86940729Y-94238424D01*
X86770991Y-94492455D01*
X86554955Y-94708491D01*
X86300924Y-94878229D01*
X86018660Y-94995146D01*
X85868835Y-95024948D01*
X85719011Y-95054750D01*
X85413489Y-95054750D01*
X85263665Y-95024948D01*
X85113840Y-94995146D01*
X84831576Y-94878229D01*
X84577545Y-94708491D01*
X84361509Y-94492455D01*
X84191771Y-94238424D01*
X84074854Y-93956160D01*
X84015250Y-93656510D01*
X84015250Y-93350990D01*
X84074854Y-93051340D01*
X84191771Y-92769076D01*
X84361509Y-92515045D01*
X84577545Y-92299009D01*
X84831576Y-92129271D01*
X85113840Y-92012354D01*
X85263665Y-91982552D01*
X85413489Y-91952750D01*
X85719011Y-91952750D01*
X85868835Y-91982552D01*
G37*
G36*
X139376728Y-92119203D02*
G01*
X139531600Y-92183353D01*
X139670981Y-92276485D01*
X139789515Y-92395019D01*
X139882647Y-92534400D01*
X139946797Y-92689272D01*
X139979500Y-92853684D01*
X139979500Y-93021316D01*
X139946797Y-93185728D01*
X139882647Y-93340600D01*
X139789515Y-93479981D01*
X139670981Y-93598515D01*
X139531600Y-93691647D01*
X139376728Y-93755797D01*
X139212316Y-93788500D01*
X139044684Y-93788500D01*
X138880272Y-93755797D01*
X138725400Y-93691647D01*
X138586019Y-93598515D01*
X138467485Y-93479981D01*
X138374353Y-93340600D01*
X138310203Y-93185728D01*
X138277500Y-93021316D01*
X138277500Y-92853684D01*
X138310203Y-92689272D01*
X138374353Y-92534400D01*
X138467485Y-92395019D01*
X138586019Y-92276485D01*
X138725400Y-92183353D01*
X138880272Y-92119203D01*
X139044684Y-92086500D01*
X139212316Y-92086500D01*
X139376728Y-92119203D01*
G37*
G36*
X146520478Y-92119203D02*
G01*
X146675350Y-92183353D01*
X146814731Y-92276485D01*
X146933265Y-92395019D01*
X147026397Y-92534400D01*
X147090547Y-92689272D01*
X147123250Y-92853684D01*
X147123250Y-93021316D01*
X147090547Y-93185728D01*
X147026397Y-93340600D01*
X146933265Y-93479981D01*
X146814731Y-93598515D01*
X146675350Y-93691647D01*
X146520478Y-93755797D01*
X146356066Y-93788500D01*
X146188434Y-93788500D01*
X146024022Y-93755797D01*
X145869150Y-93691647D01*
X145729769Y-93598515D01*
X145611235Y-93479981D01*
X145518103Y-93340600D01*
X145453953Y-93185728D01*
X145421250Y-93021316D01*
X145421250Y-92853684D01*
X145453953Y-92689272D01*
X145518103Y-92534400D01*
X145611235Y-92395019D01*
X145729769Y-92276485D01*
X145869150Y-92183353D01*
X146024022Y-92119203D01*
X146188434Y-92086500D01*
X146356066Y-92086500D01*
X146520478Y-92119203D01*
G37*
G36*
X153664228Y-92119203D02*
G01*
X153819100Y-92183353D01*
X153958481Y-92276485D01*
X154077015Y-92395019D01*
X154170147Y-92534400D01*
X154234297Y-92689272D01*
X154267000Y-92853684D01*
X154267000Y-93021316D01*
X154234297Y-93185728D01*
X154170147Y-93340600D01*
X154077015Y-93479981D01*
X153958481Y-93598515D01*
X153819100Y-93691647D01*
X153664228Y-93755797D01*
X153499816Y-93788500D01*
X153332184Y-93788500D01*
X153167772Y-93755797D01*
X153012900Y-93691647D01*
X152873519Y-93598515D01*
X152754985Y-93479981D01*
X152661853Y-93340600D01*
X152597703Y-93185728D01*
X152565000Y-93021316D01*
X152565000Y-92853684D01*
X152597703Y-92689272D01*
X152661853Y-92534400D01*
X152754985Y-92395019D01*
X152873519Y-92276485D01*
X153012900Y-92183353D01*
X153167772Y-92119203D01*
X153332184Y-92086500D01*
X153499816Y-92086500D01*
X153664228Y-92119203D01*
G37*
G36*
X160585728Y-92119203D02*
G01*
X160740600Y-92183353D01*
X160879981Y-92276485D01*
X160998515Y-92395019D01*
X161091647Y-92534400D01*
X161155797Y-92689272D01*
X161188500Y-92853684D01*
X161188500Y-93021316D01*
X161155797Y-93185728D01*
X161091647Y-93340600D01*
X160998515Y-93479981D01*
X160879981Y-93598515D01*
X160740600Y-93691647D01*
X160585728Y-93755797D01*
X160421316Y-93788500D01*
X160253684Y-93788500D01*
X160089272Y-93755797D01*
X159934400Y-93691647D01*
X159795019Y-93598515D01*
X159676485Y-93479981D01*
X159583353Y-93340600D01*
X159519203Y-93185728D01*
X159486500Y-93021316D01*
X159486500Y-92853684D01*
X159519203Y-92689272D01*
X159583353Y-92534400D01*
X159676485Y-92395019D01*
X159795019Y-92276485D01*
X159934400Y-92183353D01*
X160089272Y-92119203D01*
X160253684Y-92086500D01*
X160421316Y-92086500D01*
X160585728Y-92119203D01*
G37*
G36*
X79518835Y-89442552D02*
G01*
X79668660Y-89472354D01*
X79950924Y-89589271D01*
X80204955Y-89759009D01*
X80420991Y-89975045D01*
X80590729Y-90229076D01*
X80707646Y-90511340D01*
X80767250Y-90810990D01*
X80767250Y-91116510D01*
X80707646Y-91416160D01*
X80590729Y-91698424D01*
X80420991Y-91952455D01*
X80204955Y-92168491D01*
X79950924Y-92338229D01*
X79668660Y-92455146D01*
X79518835Y-92484948D01*
X79369011Y-92514750D01*
X79063489Y-92514750D01*
X78913665Y-92484948D01*
X78763840Y-92455146D01*
X78481576Y-92338229D01*
X78227545Y-92168491D01*
X78011509Y-91952455D01*
X77841771Y-91698424D01*
X77724854Y-91416160D01*
X77665250Y-91116510D01*
X77665250Y-90810990D01*
X77724854Y-90511340D01*
X77841771Y-90229076D01*
X78011509Y-89975045D01*
X78227545Y-89759009D01*
X78481576Y-89589271D01*
X78763840Y-89472354D01*
X78913665Y-89442552D01*
X79063489Y-89412750D01*
X79369011Y-89412750D01*
X79518835Y-89442552D01*
G37*
G36*
X98568835Y-89442552D02*
G01*
X98718660Y-89472354D01*
X99000924Y-89589271D01*
X99254955Y-89759009D01*
X99470991Y-89975045D01*
X99640729Y-90229076D01*
X99757646Y-90511340D01*
X99817250Y-90810990D01*
X99817250Y-91116510D01*
X99757646Y-91416160D01*
X99640729Y-91698424D01*
X99470991Y-91952455D01*
X99254955Y-92168491D01*
X99000924Y-92338229D01*
X98718660Y-92455146D01*
X98568835Y-92484948D01*
X98419011Y-92514750D01*
X98113489Y-92514750D01*
X97963665Y-92484948D01*
X97813840Y-92455146D01*
X97531576Y-92338229D01*
X97277545Y-92168491D01*
X97061509Y-91952455D01*
X96891771Y-91698424D01*
X96774854Y-91416160D01*
X96715250Y-91116510D01*
X96715250Y-90810990D01*
X96774854Y-90511340D01*
X96891771Y-90229076D01*
X97061509Y-89975045D01*
X97277545Y-89759009D01*
X97531576Y-89589271D01*
X97813840Y-89472354D01*
X97963665Y-89442552D01*
X98113489Y-89412750D01*
X98419011Y-89412750D01*
X98568835Y-89442552D01*
G37*
G36*
X60468835Y-89442552D02*
G01*
X60618660Y-89472354D01*
X60900924Y-89589271D01*
X61154955Y-89759009D01*
X61370991Y-89975045D01*
X61540729Y-90229076D01*
X61657646Y-90511340D01*
X61717250Y-90810990D01*
X61717250Y-91116510D01*
X61657646Y-91416160D01*
X61540729Y-91698424D01*
X61370991Y-91952455D01*
X61154955Y-92168491D01*
X60900924Y-92338229D01*
X60618660Y-92455146D01*
X60468835Y-92484948D01*
X60319011Y-92514750D01*
X60013489Y-92514750D01*
X59863665Y-92484948D01*
X59713840Y-92455146D01*
X59431576Y-92338229D01*
X59177545Y-92168491D01*
X58961509Y-91952455D01*
X58791771Y-91698424D01*
X58674854Y-91416160D01*
X58615250Y-91116510D01*
X58615250Y-90810990D01*
X58674854Y-90511340D01*
X58791771Y-90229076D01*
X58961509Y-89975045D01*
X59177545Y-89759009D01*
X59431576Y-89589271D01*
X59713840Y-89472354D01*
X59863665Y-89442552D01*
X60013489Y-89412750D01*
X60319011Y-89412750D01*
X60468835Y-89442552D01*
G37*
G36*
X144476807Y-85506002D02*
G01*
X144514500Y-85517436D01*
X144549236Y-85536003D01*
X144584449Y-85564901D01*
X145352849Y-86333301D01*
X145381747Y-86368514D01*
X145400314Y-86403250D01*
X145411748Y-86440943D01*
X145415608Y-86480138D01*
X145411748Y-86519333D01*
X145400314Y-86557026D01*
X145381747Y-86591762D01*
X145352849Y-86626975D01*
X144761225Y-87218599D01*
X144726012Y-87247497D01*
X144691276Y-87266064D01*
X144653583Y-87277498D01*
X144614388Y-87281358D01*
X144575193Y-87277498D01*
X144537500Y-87266064D01*
X144502764Y-87247497D01*
X144467551Y-87218599D01*
X143699151Y-86450199D01*
X143670253Y-86414986D01*
X143651686Y-86380250D01*
X143640252Y-86342557D01*
X143636392Y-86303362D01*
X143640252Y-86264167D01*
X143651686Y-86226474D01*
X143670253Y-86191738D01*
X143699151Y-86156525D01*
X144290775Y-85564901D01*
X144325988Y-85536003D01*
X144360724Y-85517436D01*
X144398417Y-85506002D01*
X144437612Y-85502142D01*
X144476807Y-85506002D01*
G37*
G36*
X140933367Y-84198786D02*
G01*
X140971060Y-84210220D01*
X141005796Y-84228787D01*
X141041009Y-84257685D01*
X141632633Y-84849309D01*
X141661531Y-84884522D01*
X141680098Y-84919258D01*
X141691532Y-84956951D01*
X141695392Y-84996146D01*
X141691532Y-85035341D01*
X141680098Y-85073034D01*
X141661531Y-85107770D01*
X141632633Y-85142983D01*
X140864233Y-85911383D01*
X140829020Y-85940281D01*
X140794284Y-85958848D01*
X140756591Y-85970282D01*
X140717396Y-85974142D01*
X140678201Y-85970282D01*
X140640508Y-85958848D01*
X140605772Y-85940281D01*
X140570559Y-85911383D01*
X139978935Y-85319759D01*
X139950037Y-85284546D01*
X139931470Y-85249810D01*
X139920036Y-85212117D01*
X139916176Y-85172922D01*
X139920036Y-85133727D01*
X139931470Y-85096034D01*
X139950037Y-85061298D01*
X139978935Y-85026085D01*
X140747335Y-84257685D01*
X140782548Y-84228787D01*
X140817284Y-84210220D01*
X140854977Y-84198786D01*
X140894172Y-84194926D01*
X140933367Y-84198786D01*
G37*
G36*
X145926375Y-84056434D02*
G01*
X145964068Y-84067868D01*
X145998804Y-84086435D01*
X146034017Y-84115333D01*
X146802417Y-84883733D01*
X146831315Y-84918946D01*
X146849882Y-84953682D01*
X146861316Y-84991375D01*
X146865176Y-85030570D01*
X146861316Y-85069765D01*
X146849882Y-85107458D01*
X146831315Y-85142194D01*
X146802417Y-85177407D01*
X146210793Y-85769031D01*
X146175580Y-85797929D01*
X146140844Y-85816496D01*
X146103151Y-85827930D01*
X146063956Y-85831790D01*
X146024761Y-85827930D01*
X145987068Y-85816496D01*
X145952332Y-85797929D01*
X145917119Y-85769031D01*
X145148719Y-85000631D01*
X145119821Y-84965418D01*
X145101254Y-84930682D01*
X145089820Y-84892989D01*
X145085960Y-84853794D01*
X145089820Y-84814599D01*
X145101254Y-84776906D01*
X145119821Y-84742170D01*
X145148719Y-84706957D01*
X145740343Y-84115333D01*
X145775556Y-84086435D01*
X145810292Y-84067868D01*
X145847985Y-84056434D01*
X145887180Y-84052574D01*
X145926375Y-84056434D01*
G37*
G36*
X139483799Y-82749218D02*
G01*
X139521492Y-82760652D01*
X139556228Y-82779219D01*
X139591441Y-82808117D01*
X140183065Y-83399741D01*
X140211963Y-83434954D01*
X140230530Y-83469690D01*
X140241964Y-83507383D01*
X140245824Y-83546578D01*
X140241964Y-83585773D01*
X140230530Y-83623466D01*
X140211963Y-83658202D01*
X140183065Y-83693415D01*
X139414665Y-84461815D01*
X139379452Y-84490713D01*
X139344716Y-84509280D01*
X139307023Y-84520714D01*
X139267828Y-84524574D01*
X139228633Y-84520714D01*
X139190940Y-84509280D01*
X139156204Y-84490713D01*
X139120991Y-84461815D01*
X138529367Y-83870191D01*
X138500469Y-83834978D01*
X138481902Y-83800242D01*
X138470468Y-83762549D01*
X138466608Y-83723354D01*
X138470468Y-83684159D01*
X138481902Y-83646466D01*
X138500469Y-83611730D01*
X138529367Y-83576517D01*
X139297767Y-82808117D01*
X139332980Y-82779219D01*
X139367716Y-82760652D01*
X139405409Y-82749218D01*
X139444604Y-82745358D01*
X139483799Y-82749218D01*
G37*
G36*
X151144328Y-76207208D02*
G01*
X150594907Y-76756629D01*
X150029221Y-77322314D01*
X149535660Y-77815876D01*
X146635109Y-80716427D01*
X146069423Y-81282112D01*
X145575862Y-81775674D01*
X145026441Y-82325095D01*
X143893656Y-81192310D01*
X144354689Y-80731277D01*
X144370954Y-80715013D01*
X144370963Y-80715002D01*
X145574437Y-79511528D01*
X145574448Y-79511519D01*
X145590713Y-79495255D01*
X145590712Y-79495254D01*
X146051745Y-79034221D01*
X146051746Y-79034222D01*
X146068010Y-79017957D01*
X146068019Y-79017946D01*
X146705808Y-78380157D01*
X146705819Y-78380148D01*
X146722084Y-78363884D01*
X146722083Y-78363883D01*
X147183116Y-77902850D01*
X147183117Y-77902851D01*
X147199381Y-77886586D01*
X147199390Y-77886575D01*
X147837179Y-77248786D01*
X147837190Y-77248777D01*
X147853455Y-77232513D01*
X147853454Y-77232512D01*
X148314487Y-76771479D01*
X148314488Y-76771480D01*
X148330752Y-76755215D01*
X148330761Y-76755204D01*
X149534235Y-75551730D01*
X149534246Y-75551721D01*
X149550510Y-75535456D01*
X150011543Y-75074423D01*
X151144328Y-76207208D01*
G37*
G36*
X137442721Y-75551721D02*
G01*
X137442727Y-75551726D01*
X138646210Y-76755209D01*
X138646215Y-76755215D01*
X139139777Y-77248777D01*
X139139783Y-77248782D01*
X139777581Y-77886580D01*
X139777586Y-77886586D01*
X140271148Y-78380148D01*
X140271154Y-78380153D01*
X140908952Y-79017951D01*
X140908957Y-79017957D01*
X141402519Y-79511519D01*
X141402525Y-79511524D01*
X142606008Y-80715007D01*
X142606013Y-80715013D01*
X143083310Y-81192310D01*
X141950525Y-82325095D01*
X141401110Y-81775680D01*
X141401105Y-81775674D01*
X140341858Y-80716427D01*
X140341852Y-80716422D01*
X139704054Y-80078624D01*
X139704049Y-80078618D01*
X139210487Y-79585056D01*
X139210481Y-79585051D01*
X138572683Y-78947253D01*
X138572678Y-78947247D01*
X138079116Y-78453685D01*
X138079110Y-78453680D01*
X137441312Y-77815882D01*
X137441307Y-77815876D01*
X136382060Y-76756629D01*
X136382054Y-76756624D01*
X135832638Y-76207208D01*
X136965423Y-75074423D01*
X137442721Y-75551721D01*
G37*
G36*
X152007023Y-77975786D02*
G01*
X152044716Y-77987220D01*
X152079452Y-78005787D01*
X152114665Y-78034685D01*
X152883065Y-78803085D01*
X152911963Y-78838298D01*
X152930530Y-78873034D01*
X152941964Y-78910727D01*
X152945824Y-78949922D01*
X152941964Y-78989117D01*
X152930530Y-79026810D01*
X152911963Y-79061546D01*
X152883065Y-79096759D01*
X152291441Y-79688383D01*
X152256228Y-79717281D01*
X152221492Y-79735848D01*
X152183799Y-79747282D01*
X152144604Y-79751142D01*
X152105409Y-79747282D01*
X152067716Y-79735848D01*
X152032980Y-79717281D01*
X151997767Y-79688383D01*
X151229367Y-78919983D01*
X151200469Y-78884770D01*
X151181902Y-78850034D01*
X151170468Y-78812341D01*
X151166608Y-78773146D01*
X151170468Y-78733951D01*
X151181902Y-78696258D01*
X151200469Y-78661522D01*
X151229367Y-78626309D01*
X151820991Y-78034685D01*
X151856204Y-78005787D01*
X151890940Y-77987220D01*
X151928633Y-77975786D01*
X151967828Y-77971926D01*
X152007023Y-77975786D01*
G37*
G36*
X134329367Y-77340786D02*
G01*
X134367060Y-77352220D01*
X134401796Y-77370787D01*
X134437009Y-77399685D01*
X135028633Y-77991309D01*
X135057531Y-78026522D01*
X135076098Y-78061258D01*
X135087532Y-78098951D01*
X135091392Y-78138146D01*
X135087532Y-78177341D01*
X135076098Y-78215034D01*
X135057531Y-78249770D01*
X135028633Y-78284983D01*
X134260233Y-79053383D01*
X134225020Y-79082281D01*
X134190284Y-79100848D01*
X134152591Y-79112282D01*
X134113396Y-79116142D01*
X134074201Y-79112282D01*
X134036508Y-79100848D01*
X134001772Y-79082281D01*
X133966559Y-79053383D01*
X133374935Y-78461759D01*
X133346037Y-78426546D01*
X133327470Y-78391810D01*
X133316036Y-78354117D01*
X133312176Y-78314922D01*
X133316036Y-78275727D01*
X133327470Y-78238034D01*
X133346037Y-78203298D01*
X133374935Y-78168085D01*
X134143335Y-77399685D01*
X134178548Y-77370787D01*
X134213284Y-77352220D01*
X134250977Y-77340786D01*
X134290172Y-77336926D01*
X134329367Y-77340786D01*
G37*
G36*
X82352724Y-75027434D02*
G01*
X82466165Y-75074423D01*
X82724873Y-75181583D01*
X83059798Y-75405373D01*
X83344627Y-75690202D01*
X83568417Y-76025127D01*
X83632267Y-76179276D01*
X83722566Y-76397276D01*
X83801150Y-76792344D01*
X83801150Y-77195156D01*
X83722566Y-77590224D01*
X83638572Y-77793003D01*
X83568417Y-77962373D01*
X83344627Y-78297298D01*
X83059798Y-78582127D01*
X82724873Y-78805917D01*
X82570724Y-78869767D01*
X82352724Y-78960066D01*
X81957656Y-79038650D01*
X81554844Y-79038650D01*
X81159776Y-78960066D01*
X80941776Y-78869767D01*
X80787627Y-78805917D01*
X80452702Y-78582127D01*
X80167873Y-78297298D01*
X79944083Y-77962373D01*
X79873928Y-77793003D01*
X79789934Y-77590224D01*
X79711350Y-77195156D01*
X79711350Y-76792344D01*
X79789934Y-76397276D01*
X79880233Y-76179276D01*
X79944083Y-76025127D01*
X80167873Y-75690202D01*
X80452702Y-75405373D01*
X80787627Y-75181583D01*
X81046335Y-75074423D01*
X81159776Y-75027434D01*
X81554844Y-74948850D01*
X81957656Y-74948850D01*
X82352724Y-75027434D01*
G37*
G36*
X101402724Y-75027434D02*
G01*
X101516165Y-75074423D01*
X101774873Y-75181583D01*
X102109798Y-75405373D01*
X102394627Y-75690202D01*
X102618417Y-76025127D01*
X102682267Y-76179276D01*
X102772566Y-76397276D01*
X102851150Y-76792344D01*
X102851150Y-77195156D01*
X102772566Y-77590224D01*
X102688572Y-77793003D01*
X102618417Y-77962373D01*
X102394627Y-78297298D01*
X102109798Y-78582127D01*
X101774873Y-78805917D01*
X101620724Y-78869767D01*
X101402724Y-78960066D01*
X101007656Y-79038650D01*
X100604844Y-79038650D01*
X100209776Y-78960066D01*
X99991776Y-78869767D01*
X99837627Y-78805917D01*
X99502702Y-78582127D01*
X99217873Y-78297298D01*
X98994083Y-77962373D01*
X98923928Y-77793003D01*
X98839934Y-77590224D01*
X98761350Y-77195156D01*
X98761350Y-76792344D01*
X98839934Y-76397276D01*
X98930233Y-76179276D01*
X98994083Y-76025127D01*
X99217873Y-75690202D01*
X99502702Y-75405373D01*
X99837627Y-75181583D01*
X100096335Y-75074423D01*
X100209776Y-75027434D01*
X100604844Y-74948850D01*
X101007656Y-74948850D01*
X101402724Y-75027434D01*
G37*
G36*
X120452724Y-75027434D02*
G01*
X120566165Y-75074423D01*
X120824873Y-75181583D01*
X121159798Y-75405373D01*
X121444627Y-75690202D01*
X121668417Y-76025127D01*
X121732267Y-76179276D01*
X121822566Y-76397276D01*
X121901150Y-76792344D01*
X121901150Y-77195156D01*
X121822566Y-77590224D01*
X121738572Y-77793003D01*
X121668417Y-77962373D01*
X121444627Y-78297298D01*
X121159798Y-78582127D01*
X120824873Y-78805917D01*
X120670724Y-78869767D01*
X120452724Y-78960066D01*
X120057656Y-79038650D01*
X119654844Y-79038650D01*
X119259776Y-78960066D01*
X119041776Y-78869767D01*
X118887627Y-78805917D01*
X118552702Y-78582127D01*
X118267873Y-78297298D01*
X118044083Y-77962373D01*
X117973928Y-77793003D01*
X117889934Y-77590224D01*
X117811350Y-77195156D01*
X117811350Y-76792344D01*
X117889934Y-76397276D01*
X117980233Y-76179276D01*
X118044083Y-76025127D01*
X118267873Y-75690202D01*
X118552702Y-75405373D01*
X118887627Y-75181583D01*
X119146335Y-75074423D01*
X119259776Y-75027434D01*
X119654844Y-74948850D01*
X120057656Y-74948850D01*
X120452724Y-75027434D01*
G37*
G36*
X153456591Y-76526218D02*
G01*
X153494284Y-76537652D01*
X153529020Y-76556219D01*
X153564233Y-76585117D01*
X154332633Y-77353517D01*
X154361531Y-77388730D01*
X154380098Y-77423466D01*
X154391532Y-77461159D01*
X154395392Y-77500354D01*
X154391532Y-77539549D01*
X154380098Y-77577242D01*
X154361531Y-77611978D01*
X154332633Y-77647191D01*
X153741009Y-78238815D01*
X153705796Y-78267713D01*
X153671060Y-78286280D01*
X153633367Y-78297714D01*
X153594172Y-78301574D01*
X153554977Y-78297714D01*
X153517284Y-78286280D01*
X153482548Y-78267713D01*
X153447335Y-78238815D01*
X152678935Y-77470415D01*
X152650037Y-77435202D01*
X152631470Y-77400466D01*
X152620036Y-77362773D01*
X152616176Y-77323578D01*
X152620036Y-77284383D01*
X152631470Y-77246690D01*
X152650037Y-77211954D01*
X152678935Y-77176741D01*
X153270559Y-76585117D01*
X153305772Y-76556219D01*
X153340508Y-76537652D01*
X153378201Y-76526218D01*
X153417396Y-76522358D01*
X153456591Y-76526218D01*
G37*
G36*
X95902202Y-76109179D02*
G01*
X95989325Y-76126509D01*
X96098748Y-76171834D01*
X96153461Y-76194497D01*
X96172484Y-76207208D01*
X96301178Y-76293198D01*
X96426802Y-76418822D01*
X96426804Y-76418825D01*
X96525503Y-76566539D01*
X96544205Y-76611690D01*
X96593491Y-76730675D01*
X96609718Y-76812256D01*
X96623399Y-76881033D01*
X96628150Y-76904921D01*
X96628150Y-77082579D01*
X96593491Y-77256825D01*
X96555251Y-77349143D01*
X96525503Y-77420961D01*
X96492459Y-77470415D01*
X96426802Y-77568678D01*
X96301178Y-77694302D01*
X96301175Y-77694304D01*
X96153461Y-77793003D01*
X96098748Y-77815666D01*
X95989325Y-77860991D01*
X95902202Y-77878320D01*
X95815081Y-77895650D01*
X95637419Y-77895650D01*
X95550298Y-77878320D01*
X95463175Y-77860991D01*
X95353752Y-77815666D01*
X95299039Y-77793003D01*
X95151325Y-77694304D01*
X95151322Y-77694302D01*
X95025698Y-77568678D01*
X94960041Y-77470415D01*
X94926997Y-77420961D01*
X94897249Y-77349143D01*
X94859009Y-77256825D01*
X94824350Y-77082579D01*
X94824350Y-76904921D01*
X94829102Y-76881033D01*
X94842782Y-76812256D01*
X94859009Y-76730675D01*
X94908295Y-76611690D01*
X94926997Y-76566539D01*
X95025696Y-76418825D01*
X95025698Y-76418822D01*
X95151322Y-76293198D01*
X95280016Y-76207208D01*
X95299039Y-76194497D01*
X95353752Y-76171834D01*
X95463175Y-76126509D01*
X95550298Y-76109179D01*
X95637419Y-76091850D01*
X95815081Y-76091850D01*
X95902202Y-76109179D01*
G37*
G36*
X114952202Y-76109179D02*
G01*
X115039325Y-76126509D01*
X115148748Y-76171834D01*
X115203461Y-76194497D01*
X115222484Y-76207208D01*
X115351178Y-76293198D01*
X115476802Y-76418822D01*
X115476804Y-76418825D01*
X115575503Y-76566539D01*
X115594205Y-76611690D01*
X115643491Y-76730675D01*
X115659718Y-76812256D01*
X115673399Y-76881033D01*
X115678150Y-76904921D01*
X115678150Y-77082579D01*
X115643491Y-77256825D01*
X115605251Y-77349143D01*
X115575503Y-77420961D01*
X115542459Y-77470415D01*
X115476802Y-77568678D01*
X115351178Y-77694302D01*
X115351175Y-77694304D01*
X115203461Y-77793003D01*
X115148748Y-77815666D01*
X115039325Y-77860991D01*
X114952202Y-77878320D01*
X114865081Y-77895650D01*
X114687419Y-77895650D01*
X114600298Y-77878320D01*
X114513175Y-77860991D01*
X114403752Y-77815666D01*
X114349039Y-77793003D01*
X114201325Y-77694304D01*
X114201322Y-77694302D01*
X114075698Y-77568678D01*
X114010041Y-77470415D01*
X113976997Y-77420961D01*
X113947249Y-77349143D01*
X113909009Y-77256825D01*
X113874350Y-77082579D01*
X113874350Y-76904921D01*
X113879102Y-76881033D01*
X113892782Y-76812256D01*
X113909009Y-76730675D01*
X113958295Y-76611690D01*
X113976997Y-76566539D01*
X114075696Y-76418825D01*
X114075698Y-76418822D01*
X114201322Y-76293198D01*
X114330016Y-76207208D01*
X114349039Y-76194497D01*
X114403752Y-76171834D01*
X114513175Y-76126509D01*
X114600298Y-76109179D01*
X114687419Y-76091850D01*
X114865081Y-76091850D01*
X114952202Y-76109179D01*
G37*
G36*
X106062202Y-76109179D02*
G01*
X106149325Y-76126509D01*
X106258748Y-76171834D01*
X106313461Y-76194497D01*
X106332484Y-76207208D01*
X106461178Y-76293198D01*
X106586802Y-76418822D01*
X106586804Y-76418825D01*
X106685503Y-76566539D01*
X106704205Y-76611690D01*
X106753491Y-76730675D01*
X106769718Y-76812256D01*
X106783399Y-76881033D01*
X106788150Y-76904921D01*
X106788150Y-77082579D01*
X106753491Y-77256825D01*
X106715251Y-77349143D01*
X106685503Y-77420961D01*
X106652459Y-77470415D01*
X106586802Y-77568678D01*
X106461178Y-77694302D01*
X106461175Y-77694304D01*
X106313461Y-77793003D01*
X106258748Y-77815666D01*
X106149325Y-77860991D01*
X106062202Y-77878320D01*
X105975081Y-77895650D01*
X105797419Y-77895650D01*
X105710298Y-77878320D01*
X105623175Y-77860991D01*
X105513752Y-77815666D01*
X105459039Y-77793003D01*
X105311325Y-77694304D01*
X105311322Y-77694302D01*
X105185698Y-77568678D01*
X105120041Y-77470415D01*
X105086997Y-77420961D01*
X105057249Y-77349143D01*
X105019009Y-77256825D01*
X104984350Y-77082579D01*
X104984350Y-76904921D01*
X104989102Y-76881033D01*
X105002782Y-76812256D01*
X105019009Y-76730675D01*
X105068295Y-76611690D01*
X105086997Y-76566539D01*
X105185696Y-76418825D01*
X105185698Y-76418822D01*
X105311322Y-76293198D01*
X105440016Y-76207208D01*
X105459039Y-76194497D01*
X105513752Y-76171834D01*
X105623175Y-76126509D01*
X105710298Y-76109179D01*
X105797419Y-76091850D01*
X105975081Y-76091850D01*
X106062202Y-76109179D01*
G37*
G36*
X76852202Y-76109179D02*
G01*
X76939325Y-76126509D01*
X77048748Y-76171834D01*
X77103461Y-76194497D01*
X77122484Y-76207208D01*
X77251178Y-76293198D01*
X77376802Y-76418822D01*
X77376804Y-76418825D01*
X77475503Y-76566539D01*
X77494205Y-76611690D01*
X77543491Y-76730675D01*
X77559718Y-76812256D01*
X77573399Y-76881033D01*
X77578150Y-76904921D01*
X77578150Y-77082579D01*
X77543491Y-77256825D01*
X77505251Y-77349143D01*
X77475503Y-77420961D01*
X77442459Y-77470415D01*
X77376802Y-77568678D01*
X77251178Y-77694302D01*
X77251175Y-77694304D01*
X77103461Y-77793003D01*
X77048748Y-77815666D01*
X76939325Y-77860991D01*
X76852202Y-77878320D01*
X76765081Y-77895650D01*
X76587419Y-77895650D01*
X76500298Y-77878320D01*
X76413175Y-77860991D01*
X76303752Y-77815666D01*
X76249039Y-77793003D01*
X76101325Y-77694304D01*
X76101322Y-77694302D01*
X75975698Y-77568678D01*
X75910041Y-77470415D01*
X75876997Y-77420961D01*
X75847249Y-77349143D01*
X75809009Y-77256825D01*
X75774350Y-77082579D01*
X75774350Y-76904921D01*
X75779102Y-76881033D01*
X75792782Y-76812256D01*
X75809009Y-76730675D01*
X75858295Y-76611690D01*
X75876997Y-76566539D01*
X75975696Y-76418825D01*
X75975698Y-76418822D01*
X76101322Y-76293198D01*
X76230016Y-76207208D01*
X76249039Y-76194497D01*
X76303752Y-76171834D01*
X76413175Y-76126509D01*
X76500298Y-76109179D01*
X76587419Y-76091850D01*
X76765081Y-76091850D01*
X76852202Y-76109179D01*
G37*
G36*
X87012202Y-76109179D02*
G01*
X87099325Y-76126509D01*
X87208748Y-76171834D01*
X87263461Y-76194497D01*
X87282484Y-76207208D01*
X87411178Y-76293198D01*
X87536802Y-76418822D01*
X87536804Y-76418825D01*
X87635503Y-76566539D01*
X87654205Y-76611690D01*
X87703491Y-76730675D01*
X87719718Y-76812256D01*
X87733399Y-76881033D01*
X87738150Y-76904921D01*
X87738150Y-77082579D01*
X87703491Y-77256825D01*
X87665251Y-77349143D01*
X87635503Y-77420961D01*
X87602459Y-77470415D01*
X87536802Y-77568678D01*
X87411178Y-77694302D01*
X87411175Y-77694304D01*
X87263461Y-77793003D01*
X87208748Y-77815666D01*
X87099325Y-77860991D01*
X87012202Y-77878320D01*
X86925081Y-77895650D01*
X86747419Y-77895650D01*
X86660298Y-77878320D01*
X86573175Y-77860991D01*
X86463752Y-77815666D01*
X86409039Y-77793003D01*
X86261325Y-77694304D01*
X86261322Y-77694302D01*
X86135698Y-77568678D01*
X86070041Y-77470415D01*
X86036997Y-77420961D01*
X86007249Y-77349143D01*
X85969009Y-77256825D01*
X85934350Y-77082579D01*
X85934350Y-76904921D01*
X85939102Y-76881033D01*
X85952782Y-76812256D01*
X85969009Y-76730675D01*
X86018295Y-76611690D01*
X86036997Y-76566539D01*
X86135696Y-76418825D01*
X86135698Y-76418822D01*
X86261322Y-76293198D01*
X86390016Y-76207208D01*
X86409039Y-76194497D01*
X86463752Y-76171834D01*
X86573175Y-76126509D01*
X86660298Y-76109179D01*
X86747419Y-76091850D01*
X86925081Y-76091850D01*
X87012202Y-76109179D01*
G37*
G36*
X125112202Y-76109179D02*
G01*
X125199325Y-76126509D01*
X125308748Y-76171834D01*
X125363461Y-76194497D01*
X125382484Y-76207208D01*
X125511178Y-76293198D01*
X125636802Y-76418822D01*
X125636804Y-76418825D01*
X125735503Y-76566539D01*
X125754205Y-76611690D01*
X125803491Y-76730675D01*
X125819718Y-76812256D01*
X125833399Y-76881033D01*
X125838150Y-76904921D01*
X125838150Y-77082579D01*
X125803491Y-77256825D01*
X125765251Y-77349143D01*
X125735503Y-77420961D01*
X125702459Y-77470415D01*
X125636802Y-77568678D01*
X125511178Y-77694302D01*
X125511175Y-77694304D01*
X125363461Y-77793003D01*
X125308748Y-77815666D01*
X125199325Y-77860991D01*
X125112202Y-77878320D01*
X125025081Y-77895650D01*
X124847419Y-77895650D01*
X124760298Y-77878320D01*
X124673175Y-77860991D01*
X124563752Y-77815666D01*
X124509039Y-77793003D01*
X124361325Y-77694304D01*
X124361322Y-77694302D01*
X124235698Y-77568678D01*
X124170041Y-77470415D01*
X124136997Y-77420961D01*
X124107249Y-77349143D01*
X124069009Y-77256825D01*
X124034350Y-77082579D01*
X124034350Y-76904921D01*
X124039102Y-76881033D01*
X124052782Y-76812256D01*
X124069009Y-76730675D01*
X124118295Y-76611690D01*
X124136997Y-76566539D01*
X124235696Y-76418825D01*
X124235698Y-76418822D01*
X124361322Y-76293198D01*
X124490016Y-76207208D01*
X124509039Y-76194497D01*
X124563752Y-76171834D01*
X124673175Y-76126509D01*
X124760298Y-76109179D01*
X124847419Y-76091850D01*
X125025081Y-76091850D01*
X125112202Y-76109179D01*
G37*
G36*
X132879799Y-75891218D02*
G01*
X132917492Y-75902652D01*
X132952228Y-75921219D01*
X132987441Y-75950117D01*
X133579065Y-76541741D01*
X133607963Y-76576954D01*
X133626530Y-76611690D01*
X133637964Y-76649383D01*
X133641824Y-76688578D01*
X133637964Y-76727773D01*
X133626530Y-76765466D01*
X133607963Y-76800202D01*
X133579065Y-76835415D01*
X132810665Y-77603815D01*
X132775452Y-77632713D01*
X132740716Y-77651280D01*
X132703023Y-77662714D01*
X132663828Y-77666574D01*
X132624633Y-77662714D01*
X132586940Y-77651280D01*
X132552204Y-77632713D01*
X132516991Y-77603815D01*
X131925367Y-77012191D01*
X131896469Y-76976978D01*
X131877902Y-76942242D01*
X131866468Y-76904549D01*
X131862608Y-76865354D01*
X131866468Y-76826159D01*
X131877902Y-76788466D01*
X131896469Y-76753730D01*
X131925367Y-76718517D01*
X132693767Y-75950117D01*
X132728980Y-75921219D01*
X132763716Y-75902652D01*
X132801409Y-75891218D01*
X132840604Y-75887358D01*
X132879799Y-75891218D01*
G37*
G36*
X57630564Y-74354139D02*
G01*
X57821833Y-74433365D01*
X57821835Y-74433366D01*
X57993973Y-74548385D01*
X58140365Y-74694777D01*
X58255385Y-74866917D01*
X58334611Y-75058186D01*
X58375000Y-75261234D01*
X58375000Y-75468266D01*
X58334611Y-75671314D01*
X58269615Y-75828229D01*
X58255384Y-75862585D01*
X58140365Y-76034723D01*
X57993973Y-76181115D01*
X57821835Y-76296134D01*
X57821834Y-76296135D01*
X57821833Y-76296135D01*
X57630564Y-76375361D01*
X57427516Y-76415750D01*
X57220484Y-76415750D01*
X57017436Y-76375361D01*
X56826167Y-76296135D01*
X56826166Y-76296135D01*
X56826165Y-76296134D01*
X56654027Y-76181115D01*
X56507635Y-76034723D01*
X56392616Y-75862585D01*
X56378385Y-75828229D01*
X56313389Y-75671314D01*
X56273000Y-75468266D01*
X56273000Y-75261234D01*
X56313389Y-75058186D01*
X56392615Y-74866917D01*
X56507635Y-74694777D01*
X56654027Y-74548385D01*
X56826165Y-74433366D01*
X56826167Y-74433365D01*
X57017436Y-74354139D01*
X57220484Y-74313750D01*
X57427516Y-74313750D01*
X57630564Y-74354139D01*
G37*
G36*
X52630564Y-74354139D02*
G01*
X52821833Y-74433365D01*
X52821835Y-74433366D01*
X52993973Y-74548385D01*
X53140365Y-74694777D01*
X53255385Y-74866917D01*
X53334611Y-75058186D01*
X53375000Y-75261234D01*
X53375000Y-75468266D01*
X53334611Y-75671314D01*
X53269615Y-75828229D01*
X53255384Y-75862585D01*
X53140365Y-76034723D01*
X52993973Y-76181115D01*
X52821835Y-76296134D01*
X52821834Y-76296135D01*
X52821833Y-76296135D01*
X52630564Y-76375361D01*
X52427516Y-76415750D01*
X52220484Y-76415750D01*
X52017436Y-76375361D01*
X51826167Y-76296135D01*
X51826166Y-76296135D01*
X51826165Y-76296134D01*
X51654027Y-76181115D01*
X51507635Y-76034723D01*
X51392616Y-75862585D01*
X51378385Y-75828229D01*
X51313389Y-75671314D01*
X51273000Y-75468266D01*
X51273000Y-75261234D01*
X51313389Y-75058186D01*
X51392615Y-74866917D01*
X51507635Y-74694777D01*
X51654027Y-74548385D01*
X51826165Y-74433366D01*
X51826167Y-74433365D01*
X52017436Y-74354139D01*
X52220484Y-74313750D01*
X52427516Y-74313750D01*
X52630564Y-74354139D01*
G37*
G36*
X85868835Y-72932552D02*
G01*
X86018660Y-72962354D01*
X86300924Y-73079271D01*
X86554955Y-73249009D01*
X86770991Y-73465045D01*
X86940729Y-73719076D01*
X87057646Y-74001340D01*
X87117250Y-74300990D01*
X87117250Y-74606510D01*
X87057646Y-74906160D01*
X86940729Y-75188424D01*
X86770991Y-75442455D01*
X86554955Y-75658491D01*
X86300924Y-75828229D01*
X86018660Y-75945146D01*
X85934497Y-75961887D01*
X85719011Y-76004750D01*
X85413489Y-76004750D01*
X85198003Y-75961887D01*
X85113840Y-75945146D01*
X84831576Y-75828229D01*
X84577545Y-75658491D01*
X84361509Y-75442455D01*
X84191771Y-75188424D01*
X84074854Y-74906160D01*
X84015250Y-74606510D01*
X84015250Y-74300990D01*
X84074854Y-74001340D01*
X84191771Y-73719076D01*
X84361509Y-73465045D01*
X84577545Y-73249009D01*
X84831576Y-73079271D01*
X85113840Y-72962354D01*
X85263665Y-72932552D01*
X85413489Y-72902750D01*
X85719011Y-72902750D01*
X85868835Y-72932552D01*
G37*
G36*
X123968835Y-72932552D02*
G01*
X124118660Y-72962354D01*
X124400924Y-73079271D01*
X124654955Y-73249009D01*
X124870991Y-73465045D01*
X125040729Y-73719076D01*
X125157646Y-74001340D01*
X125217250Y-74300990D01*
X125217250Y-74606510D01*
X125157646Y-74906160D01*
X125040729Y-75188424D01*
X124870991Y-75442455D01*
X124654955Y-75658491D01*
X124400924Y-75828229D01*
X124118660Y-75945146D01*
X124034497Y-75961887D01*
X123819011Y-76004750D01*
X123513489Y-76004750D01*
X123298003Y-75961887D01*
X123213840Y-75945146D01*
X122931576Y-75828229D01*
X122677545Y-75658491D01*
X122461509Y-75442455D01*
X122291771Y-75188424D01*
X122174854Y-74906160D01*
X122115250Y-74606510D01*
X122115250Y-74300990D01*
X122174854Y-74001340D01*
X122291771Y-73719076D01*
X122461509Y-73465045D01*
X122677545Y-73249009D01*
X122931576Y-73079271D01*
X123213840Y-72962354D01*
X123363665Y-72932552D01*
X123513489Y-72902750D01*
X123819011Y-72902750D01*
X123968835Y-72932552D01*
G37*
G36*
X104918835Y-72932552D02*
G01*
X105068660Y-72962354D01*
X105350924Y-73079271D01*
X105604955Y-73249009D01*
X105820991Y-73465045D01*
X105990729Y-73719076D01*
X106107646Y-74001340D01*
X106167250Y-74300990D01*
X106167250Y-74606510D01*
X106107646Y-74906160D01*
X105990729Y-75188424D01*
X105820991Y-75442455D01*
X105604955Y-75658491D01*
X105350924Y-75828229D01*
X105068660Y-75945146D01*
X104984497Y-75961887D01*
X104769011Y-76004750D01*
X104463489Y-76004750D01*
X104248003Y-75961887D01*
X104163840Y-75945146D01*
X103881576Y-75828229D01*
X103627545Y-75658491D01*
X103411509Y-75442455D01*
X103241771Y-75188424D01*
X103124854Y-74906160D01*
X103065250Y-74606510D01*
X103065250Y-74300990D01*
X103124854Y-74001340D01*
X103241771Y-73719076D01*
X103411509Y-73465045D01*
X103627545Y-73249009D01*
X103881576Y-73079271D01*
X104163840Y-72962354D01*
X104313665Y-72932552D01*
X104463489Y-72902750D01*
X104769011Y-72902750D01*
X104918835Y-72932552D01*
G37*
G36*
X143083310Y-68146190D02*
G01*
X142606013Y-68623488D01*
X137442721Y-73786780D01*
X136965423Y-74264077D01*
X135832638Y-73131292D01*
X136382049Y-72581881D01*
X136382060Y-72581872D01*
X136398324Y-72565607D01*
X137425042Y-71538889D01*
X137441307Y-71522625D01*
X137441316Y-71522614D01*
X138079105Y-70884825D01*
X138079116Y-70884816D01*
X138095381Y-70868552D01*
X138095380Y-70868551D01*
X138556413Y-70407518D01*
X138556414Y-70407519D01*
X138572678Y-70391254D01*
X138572687Y-70391243D01*
X139210476Y-69753454D01*
X139210487Y-69753445D01*
X139226752Y-69737181D01*
X139226751Y-69737180D01*
X139687784Y-69276147D01*
X139687785Y-69276148D01*
X139704049Y-69259883D01*
X139704058Y-69259872D01*
X140341847Y-68622083D01*
X140341858Y-68622074D01*
X140358122Y-68605809D01*
X141384840Y-67579091D01*
X141401105Y-67562827D01*
X141401114Y-67562816D01*
X141950525Y-67013405D01*
X143083310Y-68146190D01*
G37*
G36*
X145575857Y-67562821D02*
G01*
X145575862Y-67562827D01*
X146635109Y-68622074D01*
X146635115Y-68622079D01*
X147272913Y-69259877D01*
X147272918Y-69259883D01*
X147766480Y-69753445D01*
X147766486Y-69753450D01*
X148404284Y-70391248D01*
X148404289Y-70391254D01*
X148897851Y-70884816D01*
X148897857Y-70884821D01*
X149535655Y-71522619D01*
X149535660Y-71522625D01*
X150594907Y-72581872D01*
X150594913Y-72581877D01*
X151144328Y-73131292D01*
X150011543Y-74264077D01*
X149534246Y-73786780D01*
X149534240Y-73786775D01*
X148330757Y-72583292D01*
X148330752Y-72583286D01*
X147837190Y-72089724D01*
X147837184Y-72089719D01*
X147199386Y-71451921D01*
X147199381Y-71451915D01*
X146705819Y-70958353D01*
X146705813Y-70958348D01*
X146068015Y-70320550D01*
X146068010Y-70320544D01*
X145574448Y-69826982D01*
X145574442Y-69826977D01*
X144370959Y-68623494D01*
X144370954Y-68623488D01*
X143893656Y-68146190D01*
X145026441Y-67013405D01*
X145575857Y-67562821D01*
G37*
G36*
X117612254Y-70391243D02*
G01*
X117768660Y-70422354D01*
X118050924Y-70539271D01*
X118304955Y-70709009D01*
X118520991Y-70925045D01*
X118690729Y-71179076D01*
X118807646Y-71461340D01*
X118807646Y-71461341D01*
X118867250Y-71760989D01*
X118867250Y-72066511D01*
X118859679Y-72104574D01*
X118807646Y-72366160D01*
X118690729Y-72648424D01*
X118520991Y-72902455D01*
X118304955Y-73118491D01*
X118050924Y-73288229D01*
X117768660Y-73405146D01*
X117618835Y-73434948D01*
X117469011Y-73464750D01*
X117163489Y-73464750D01*
X117013665Y-73434948D01*
X116863840Y-73405146D01*
X116581576Y-73288229D01*
X116327545Y-73118491D01*
X116111509Y-72902455D01*
X115941771Y-72648424D01*
X115824854Y-72366160D01*
X115772821Y-72104574D01*
X115765250Y-72066511D01*
X115765250Y-71760989D01*
X115824854Y-71461341D01*
X115824854Y-71461340D01*
X115941771Y-71179076D01*
X116111509Y-70925045D01*
X116327545Y-70709009D01*
X116581576Y-70539271D01*
X116863840Y-70422354D01*
X117020246Y-70391243D01*
X117163489Y-70362750D01*
X117469011Y-70362750D01*
X117612254Y-70391243D01*
G37*
G36*
X98562254Y-70391243D02*
G01*
X98718660Y-70422354D01*
X99000924Y-70539271D01*
X99254955Y-70709009D01*
X99470991Y-70925045D01*
X99640729Y-71179076D01*
X99757646Y-71461340D01*
X99757646Y-71461341D01*
X99817250Y-71760989D01*
X99817250Y-72066511D01*
X99809679Y-72104574D01*
X99757646Y-72366160D01*
X99640729Y-72648424D01*
X99470991Y-72902455D01*
X99254955Y-73118491D01*
X99000924Y-73288229D01*
X98718660Y-73405146D01*
X98568835Y-73434948D01*
X98419011Y-73464750D01*
X98113489Y-73464750D01*
X97963665Y-73434948D01*
X97813840Y-73405146D01*
X97531576Y-73288229D01*
X97277545Y-73118491D01*
X97061509Y-72902455D01*
X96891771Y-72648424D01*
X96774854Y-72366160D01*
X96722821Y-72104574D01*
X96715250Y-72066511D01*
X96715250Y-71760989D01*
X96774854Y-71461341D01*
X96774854Y-71461340D01*
X96891771Y-71179076D01*
X97061509Y-70925045D01*
X97277545Y-70709009D01*
X97531576Y-70539271D01*
X97813840Y-70422354D01*
X97970246Y-70391243D01*
X98113489Y-70362750D01*
X98419011Y-70362750D01*
X98562254Y-70391243D01*
G37*
G36*
X79512254Y-70391243D02*
G01*
X79668660Y-70422354D01*
X79950924Y-70539271D01*
X80204955Y-70709009D01*
X80420991Y-70925045D01*
X80590729Y-71179076D01*
X80707646Y-71461340D01*
X80707646Y-71461341D01*
X80767250Y-71760989D01*
X80767250Y-72066511D01*
X80759679Y-72104574D01*
X80707646Y-72366160D01*
X80590729Y-72648424D01*
X80420991Y-72902455D01*
X80204955Y-73118491D01*
X79950924Y-73288229D01*
X79668660Y-73405146D01*
X79518835Y-73434948D01*
X79369011Y-73464750D01*
X79063489Y-73464750D01*
X78913665Y-73434948D01*
X78763840Y-73405146D01*
X78481576Y-73288229D01*
X78227545Y-73118491D01*
X78011509Y-72902455D01*
X77841771Y-72648424D01*
X77724854Y-72366160D01*
X77672821Y-72104574D01*
X77665250Y-72066511D01*
X77665250Y-71760989D01*
X77724854Y-71461341D01*
X77724854Y-71461340D01*
X77841771Y-71179076D01*
X78011509Y-70925045D01*
X78227545Y-70709009D01*
X78481576Y-70539271D01*
X78763840Y-70422354D01*
X78920246Y-70391243D01*
X79063489Y-70362750D01*
X79369011Y-70362750D01*
X79512254Y-70391243D01*
G37*
G36*
X130900367Y-68704786D02*
G01*
X130938060Y-68716220D01*
X130972796Y-68734787D01*
X131008009Y-68763685D01*
X131599633Y-69355309D01*
X131628531Y-69390522D01*
X131647098Y-69425258D01*
X131658532Y-69462951D01*
X131662392Y-69502146D01*
X131658532Y-69541341D01*
X131647098Y-69579034D01*
X131628531Y-69613770D01*
X131599633Y-69648983D01*
X130831233Y-70417383D01*
X130796020Y-70446281D01*
X130761284Y-70464848D01*
X130723591Y-70476282D01*
X130684396Y-70480142D01*
X130645201Y-70476282D01*
X130607508Y-70464848D01*
X130572772Y-70446281D01*
X130537559Y-70417383D01*
X129945935Y-69825759D01*
X129917037Y-69790546D01*
X129898470Y-69755810D01*
X129887036Y-69718117D01*
X129883176Y-69678922D01*
X129887036Y-69639727D01*
X129898470Y-69602034D01*
X129917037Y-69567298D01*
X129945935Y-69532085D01*
X130714335Y-68763685D01*
X130749548Y-68734787D01*
X130784284Y-68716220D01*
X130821977Y-68704786D01*
X130861172Y-68700926D01*
X130900367Y-68704786D01*
G37*
G36*
X135026239Y-68667570D02*
G01*
X135063932Y-68679004D01*
X135098668Y-68697571D01*
X135133881Y-68726469D01*
X135902281Y-69494869D01*
X135931179Y-69530082D01*
X135949746Y-69564818D01*
X135961180Y-69602511D01*
X135965040Y-69641706D01*
X135961180Y-69680901D01*
X135949746Y-69718594D01*
X135931179Y-69753330D01*
X135902281Y-69788543D01*
X135310657Y-70380167D01*
X135275444Y-70409065D01*
X135240708Y-70427632D01*
X135203015Y-70439066D01*
X135163820Y-70442926D01*
X135124625Y-70439066D01*
X135086932Y-70427632D01*
X135052196Y-70409065D01*
X135016983Y-70380167D01*
X134248583Y-69611767D01*
X134219685Y-69576554D01*
X134201118Y-69541818D01*
X134189684Y-69504125D01*
X134185824Y-69464930D01*
X134189684Y-69425735D01*
X134201118Y-69388042D01*
X134219685Y-69353306D01*
X134248583Y-69318093D01*
X134840207Y-68726469D01*
X134875420Y-68697571D01*
X134910156Y-68679004D01*
X134947849Y-68667570D01*
X134987044Y-68663710D01*
X135026239Y-68667570D01*
G37*
G36*
X50275000Y-70015750D02*
G01*
X48173000Y-70015750D01*
X48173000Y-66713750D01*
X50275000Y-66713750D01*
X50275000Y-70015750D01*
G37*
G36*
X61475000Y-70015750D02*
G01*
X59373000Y-70015750D01*
X59373000Y-66713750D01*
X61475000Y-66713750D01*
X61475000Y-70015750D01*
G37*
G36*
X154808898Y-68500028D02*
G01*
X153463981Y-69844945D01*
X151906932Y-68287896D01*
X153251849Y-66942979D01*
X154808898Y-68500028D01*
G37*
G36*
X129450799Y-67255218D02*
G01*
X129488492Y-67266652D01*
X129523228Y-67285219D01*
X129558441Y-67314117D01*
X130150065Y-67905741D01*
X130178963Y-67940954D01*
X130197530Y-67975690D01*
X130208964Y-68013383D01*
X130212824Y-68052578D01*
X130208964Y-68091773D01*
X130197530Y-68129466D01*
X130178963Y-68164202D01*
X130150065Y-68199415D01*
X129381665Y-68967815D01*
X129346452Y-68996713D01*
X129311716Y-69015280D01*
X129274023Y-69026714D01*
X129234828Y-69030574D01*
X129195633Y-69026714D01*
X129157940Y-69015280D01*
X129123204Y-68996713D01*
X129087991Y-68967815D01*
X128496367Y-68376191D01*
X128467469Y-68340978D01*
X128448902Y-68306242D01*
X128437468Y-68268549D01*
X128433608Y-68229354D01*
X128437468Y-68190159D01*
X128448902Y-68152466D01*
X128467469Y-68117730D01*
X128496367Y-68082517D01*
X129264767Y-67314117D01*
X129299980Y-67285219D01*
X129334716Y-67266652D01*
X129372409Y-67255218D01*
X129411604Y-67251358D01*
X129450799Y-67255218D01*
G37*
G36*
X136475807Y-67218002D02*
G01*
X136513500Y-67229436D01*
X136548236Y-67248003D01*
X136583449Y-67276901D01*
X137351849Y-68045301D01*
X137380747Y-68080514D01*
X137399314Y-68115250D01*
X137410748Y-68152943D01*
X137414608Y-68192138D01*
X137410748Y-68231333D01*
X137399314Y-68269026D01*
X137380747Y-68303762D01*
X137351849Y-68338975D01*
X136760225Y-68930599D01*
X136725012Y-68959497D01*
X136690276Y-68978064D01*
X136652583Y-68989498D01*
X136613388Y-68993358D01*
X136574193Y-68989498D01*
X136536500Y-68978064D01*
X136501764Y-68959497D01*
X136466551Y-68930599D01*
X135698151Y-68162199D01*
X135669253Y-68126986D01*
X135650686Y-68092250D01*
X135639252Y-68054557D01*
X135635392Y-68015362D01*
X135639252Y-67976167D01*
X135650686Y-67938474D01*
X135669253Y-67903738D01*
X135698151Y-67868525D01*
X136289775Y-67276901D01*
X136324988Y-67248003D01*
X136359724Y-67229436D01*
X136397417Y-67218002D01*
X136436612Y-67214142D01*
X136475807Y-67218002D01*
G37*
G36*
X132842583Y-66837002D02*
G01*
X132880276Y-66848436D01*
X132915012Y-66867003D01*
X132950225Y-66895901D01*
X133541849Y-67487525D01*
X133570747Y-67522738D01*
X133589314Y-67557474D01*
X133600748Y-67595167D01*
X133604608Y-67634362D01*
X133600748Y-67673557D01*
X133589314Y-67711250D01*
X133570747Y-67745986D01*
X133541849Y-67781199D01*
X132773449Y-68549599D01*
X132738236Y-68578497D01*
X132703500Y-68597064D01*
X132665807Y-68608498D01*
X132626612Y-68612358D01*
X132587417Y-68608498D01*
X132549724Y-68597064D01*
X132514988Y-68578497D01*
X132479775Y-68549599D01*
X131888151Y-67957975D01*
X131859253Y-67922762D01*
X131840686Y-67888026D01*
X131829252Y-67850333D01*
X131825392Y-67811138D01*
X131829252Y-67771943D01*
X131840686Y-67734250D01*
X131859253Y-67699514D01*
X131888151Y-67664301D01*
X132656551Y-66895901D01*
X132691764Y-66867003D01*
X132726500Y-66848436D01*
X132764193Y-66837002D01*
X132803388Y-66833142D01*
X132842583Y-66837002D01*
G37*
G36*
X156435244Y-66873682D02*
G01*
X155090327Y-68218599D01*
X153533278Y-66661550D01*
X154878195Y-65316633D01*
X156435244Y-66873682D01*
G37*
G36*
X139700583Y-66329002D02*
G01*
X139738276Y-66340436D01*
X139773012Y-66359003D01*
X139808225Y-66387901D01*
X140399849Y-66979525D01*
X140428747Y-67014738D01*
X140447314Y-67049474D01*
X140458748Y-67087167D01*
X140462608Y-67126362D01*
X140458748Y-67165557D01*
X140447314Y-67203250D01*
X140428747Y-67237986D01*
X140399849Y-67273199D01*
X139631449Y-68041599D01*
X139596236Y-68070497D01*
X139561500Y-68089064D01*
X139523807Y-68100498D01*
X139484612Y-68104358D01*
X139445417Y-68100498D01*
X139407724Y-68089064D01*
X139372988Y-68070497D01*
X139337775Y-68041599D01*
X138746151Y-67449975D01*
X138717253Y-67414762D01*
X138698686Y-67380026D01*
X138687252Y-67342333D01*
X138683392Y-67303138D01*
X138687252Y-67263943D01*
X138698686Y-67226250D01*
X138717253Y-67191514D01*
X138746151Y-67156301D01*
X139514551Y-66387901D01*
X139549764Y-66359003D01*
X139584500Y-66340436D01*
X139622193Y-66329002D01*
X139661388Y-66325142D01*
X139700583Y-66329002D01*
G37*
G36*
X152758288Y-66449418D02*
G01*
X151413371Y-67794335D01*
X149856322Y-66237286D01*
X151201239Y-64892369D01*
X152758288Y-66449418D01*
G37*
G36*
X131393015Y-65387434D02*
G01*
X131430708Y-65398868D01*
X131465444Y-65417435D01*
X131500657Y-65446333D01*
X132092281Y-66037957D01*
X132121179Y-66073170D01*
X132139746Y-66107906D01*
X132151180Y-66145599D01*
X132155040Y-66184794D01*
X132151180Y-66223989D01*
X132139746Y-66261682D01*
X132121179Y-66296418D01*
X132092281Y-66331631D01*
X131323881Y-67100031D01*
X131288668Y-67128929D01*
X131253932Y-67147496D01*
X131216239Y-67158930D01*
X131177044Y-67162790D01*
X131137849Y-67158930D01*
X131100156Y-67147496D01*
X131065420Y-67128929D01*
X131030207Y-67100031D01*
X130438583Y-66508407D01*
X130409685Y-66473194D01*
X130391118Y-66438458D01*
X130379684Y-66400765D01*
X130375824Y-66361570D01*
X130379684Y-66322375D01*
X130391118Y-66284682D01*
X130409685Y-66249946D01*
X130438583Y-66214733D01*
X131206983Y-65446333D01*
X131242196Y-65417435D01*
X131276932Y-65398868D01*
X131314625Y-65387434D01*
X131353820Y-65383574D01*
X131393015Y-65387434D01*
G37*
G36*
X138251015Y-64879434D02*
G01*
X138288708Y-64890868D01*
X138323444Y-64909435D01*
X138358657Y-64938333D01*
X138950281Y-65529957D01*
X138979179Y-65565170D01*
X138997746Y-65599906D01*
X139009180Y-65637599D01*
X139013040Y-65676794D01*
X139009180Y-65715989D01*
X138997746Y-65753682D01*
X138979179Y-65788418D01*
X138950281Y-65823631D01*
X138181881Y-66592031D01*
X138146668Y-66620929D01*
X138111932Y-66639496D01*
X138074239Y-66650930D01*
X138035044Y-66654790D01*
X137995849Y-66650930D01*
X137958156Y-66639496D01*
X137923420Y-66620929D01*
X137888207Y-66592031D01*
X137296583Y-66000407D01*
X137267685Y-65965194D01*
X137249118Y-65930458D01*
X137237684Y-65892765D01*
X137233824Y-65853570D01*
X137237684Y-65814375D01*
X137249118Y-65776682D01*
X137267685Y-65741946D01*
X137296583Y-65706733D01*
X138064983Y-64938333D01*
X138100196Y-64909435D01*
X138134932Y-64890868D01*
X138172625Y-64879434D01*
X138211820Y-64875574D01*
X138251015Y-64879434D01*
G37*
G36*
X154384634Y-64823072D02*
G01*
X153039717Y-66167989D01*
X151482668Y-64610940D01*
X152827585Y-63266023D01*
X154384634Y-64823072D01*
G37*
G36*
X156782208Y-64304136D02*
G01*
X156819901Y-64315570D01*
X156854637Y-64334137D01*
X156889850Y-64363035D01*
X157658250Y-65131435D01*
X157687148Y-65166648D01*
X157705715Y-65201384D01*
X157717149Y-65239077D01*
X157721009Y-65278272D01*
X157717149Y-65317467D01*
X157705715Y-65355160D01*
X157687148Y-65389896D01*
X157658250Y-65425109D01*
X157066626Y-66016733D01*
X157031413Y-66045631D01*
X156996677Y-66064198D01*
X156958984Y-66075632D01*
X156919789Y-66079492D01*
X156880594Y-66075632D01*
X156842901Y-66064198D01*
X156808165Y-66045631D01*
X156772952Y-66016733D01*
X156004552Y-65248333D01*
X155975654Y-65213120D01*
X155957087Y-65178384D01*
X155945653Y-65140691D01*
X155941793Y-65101496D01*
X155945653Y-65062301D01*
X155957087Y-65024608D01*
X155975654Y-64989872D01*
X156004552Y-64954659D01*
X156596176Y-64363035D01*
X156631389Y-64334137D01*
X156666125Y-64315570D01*
X156703818Y-64304136D01*
X156743013Y-64300276D01*
X156782208Y-64304136D01*
G37*
G36*
X121806562Y-64513931D02*
G01*
X121841481Y-64524524D01*
X121873663Y-64541726D01*
X121901873Y-64564877D01*
X121925024Y-64593087D01*
X121942226Y-64625269D01*
X121952819Y-64660188D01*
X121957000Y-64702645D01*
X121957000Y-65843855D01*
X121952819Y-65886312D01*
X121942226Y-65921231D01*
X121925024Y-65953413D01*
X121901873Y-65981623D01*
X121873663Y-66004774D01*
X121841481Y-66021976D01*
X121806562Y-66032569D01*
X121764105Y-66036750D01*
X120297895Y-66036750D01*
X120255438Y-66032569D01*
X120220519Y-66021976D01*
X120188337Y-66004774D01*
X120160127Y-65981623D01*
X120136976Y-65953413D01*
X120119774Y-65921231D01*
X120109181Y-65886312D01*
X120105000Y-65843855D01*
X120105000Y-64702645D01*
X120109181Y-64660188D01*
X120119774Y-64625269D01*
X120136976Y-64593087D01*
X120160127Y-64564877D01*
X120188337Y-64541726D01*
X120220519Y-64524524D01*
X120255438Y-64513931D01*
X120297895Y-64509750D01*
X121764105Y-64509750D01*
X121806562Y-64513931D01*
G37*
G36*
X158231776Y-62854568D02*
G01*
X158269469Y-62866002D01*
X158304205Y-62884569D01*
X158339418Y-62913467D01*
X159107818Y-63681867D01*
X159136716Y-63717080D01*
X159155283Y-63751816D01*
X159166717Y-63789509D01*
X159170577Y-63828704D01*
X159166717Y-63867899D01*
X159155283Y-63905592D01*
X159136716Y-63940328D01*
X159107818Y-63975541D01*
X158516194Y-64567165D01*
X158480981Y-64596063D01*
X158446245Y-64614630D01*
X158408552Y-64626064D01*
X158369357Y-64629924D01*
X158330162Y-64626064D01*
X158292469Y-64614630D01*
X158257733Y-64596063D01*
X158222520Y-64567165D01*
X157454120Y-63798765D01*
X157425222Y-63763552D01*
X157406655Y-63728816D01*
X157395221Y-63691123D01*
X157391361Y-63651928D01*
X157395221Y-63612733D01*
X157406655Y-63575040D01*
X157425222Y-63540304D01*
X157454120Y-63505091D01*
X158045744Y-62913467D01*
X158080957Y-62884569D01*
X158115693Y-62866002D01*
X158153386Y-62854568D01*
X158192581Y-62850708D01*
X158231776Y-62854568D01*
G37*
G36*
X154453705Y-61962905D02*
G01*
X154491398Y-61974339D01*
X154526134Y-61992906D01*
X154561347Y-62021804D01*
X155329747Y-62790204D01*
X155358645Y-62825417D01*
X155377212Y-62860153D01*
X155388646Y-62897846D01*
X155392506Y-62937041D01*
X155388646Y-62976236D01*
X155377212Y-63013929D01*
X155358645Y-63048665D01*
X155329747Y-63083878D01*
X154738123Y-63675502D01*
X154702910Y-63704400D01*
X154668174Y-63722967D01*
X154630481Y-63734401D01*
X154591286Y-63738261D01*
X154552091Y-63734401D01*
X154514398Y-63722967D01*
X154479662Y-63704400D01*
X154444449Y-63675502D01*
X153676049Y-62907102D01*
X153647151Y-62871889D01*
X153628584Y-62837153D01*
X153617150Y-62799460D01*
X153613290Y-62760265D01*
X153617150Y-62721070D01*
X153628584Y-62683377D01*
X153647151Y-62648641D01*
X153676049Y-62613428D01*
X154267673Y-62021804D01*
X154302886Y-61992906D01*
X154337622Y-61974339D01*
X154375315Y-61962905D01*
X154414510Y-61959045D01*
X154453705Y-61962905D01*
G37*
G36*
X151220367Y-61846786D02*
G01*
X151258060Y-61858220D01*
X151292796Y-61876787D01*
X151328009Y-61905685D01*
X151919633Y-62497309D01*
X151948531Y-62532522D01*
X151967098Y-62567258D01*
X151978532Y-62604951D01*
X151982392Y-62644146D01*
X151978532Y-62683341D01*
X151967098Y-62721034D01*
X151948531Y-62755770D01*
X151919633Y-62790983D01*
X151151233Y-63559383D01*
X151116020Y-63588281D01*
X151081284Y-63606848D01*
X151043591Y-63618282D01*
X151004396Y-63622142D01*
X150965201Y-63618282D01*
X150927508Y-63606848D01*
X150892772Y-63588281D01*
X150857559Y-63559383D01*
X150265935Y-62967759D01*
X150237037Y-62932546D01*
X150218470Y-62897810D01*
X150207036Y-62860117D01*
X150203176Y-62820922D01*
X150207036Y-62781727D01*
X150218470Y-62744034D01*
X150237037Y-62709298D01*
X150265935Y-62674085D01*
X151034335Y-61905685D01*
X151069548Y-61876787D01*
X151104284Y-61858220D01*
X151141977Y-61846786D01*
X151181172Y-61842926D01*
X151220367Y-61846786D01*
G37*
G36*
X121806562Y-61538931D02*
G01*
X121841481Y-61549524D01*
X121873663Y-61566726D01*
X121901873Y-61589877D01*
X121925024Y-61618087D01*
X121942226Y-61650269D01*
X121952819Y-61685188D01*
X121957000Y-61727645D01*
X121957000Y-62868855D01*
X121952819Y-62911312D01*
X121942226Y-62946231D01*
X121925024Y-62978413D01*
X121901873Y-63006623D01*
X121873663Y-63029774D01*
X121841481Y-63046976D01*
X121806562Y-63057569D01*
X121764105Y-63061750D01*
X120297895Y-63061750D01*
X120255438Y-63057569D01*
X120220519Y-63046976D01*
X120188337Y-63029774D01*
X120160127Y-63006623D01*
X120136976Y-62978413D01*
X120119774Y-62946231D01*
X120109181Y-62911312D01*
X120105000Y-62868855D01*
X120105000Y-61727645D01*
X120109181Y-61685188D01*
X120119774Y-61650269D01*
X120136976Y-61618087D01*
X120160127Y-61589877D01*
X120188337Y-61566726D01*
X120220519Y-61549524D01*
X120255438Y-61538931D01*
X120297895Y-61534750D01*
X121764105Y-61534750D01*
X121806562Y-61538931D01*
G37*
G36*
X144091674Y-61134215D02*
G01*
X144129367Y-61145649D01*
X144164103Y-61164216D01*
X144194548Y-61189202D01*
X144219534Y-61219647D01*
X144238101Y-61254383D01*
X144249535Y-61292076D01*
X144254000Y-61337411D01*
X144254000Y-62424089D01*
X144249535Y-62469424D01*
X144238101Y-62507117D01*
X144219534Y-62541853D01*
X144194548Y-62572298D01*
X144164103Y-62597284D01*
X144129367Y-62615851D01*
X144091674Y-62627285D01*
X144046339Y-62631750D01*
X143209661Y-62631750D01*
X143164326Y-62627285D01*
X143126633Y-62615851D01*
X143091897Y-62597284D01*
X143061452Y-62572298D01*
X143036466Y-62541853D01*
X143017899Y-62507117D01*
X143006465Y-62469424D01*
X143002000Y-62424089D01*
X143002000Y-61337411D01*
X143006465Y-61292076D01*
X143017899Y-61254383D01*
X143036466Y-61219647D01*
X143061452Y-61189202D01*
X143091897Y-61164216D01*
X143126633Y-61145649D01*
X143164326Y-61134215D01*
X143209661Y-61129750D01*
X144046339Y-61129750D01*
X144091674Y-61134215D01*
G37*
G36*
X146141674Y-61134215D02*
G01*
X146179367Y-61145649D01*
X146214103Y-61164216D01*
X146244548Y-61189202D01*
X146269534Y-61219647D01*
X146288101Y-61254383D01*
X146299535Y-61292076D01*
X146304000Y-61337411D01*
X146304000Y-62424089D01*
X146299535Y-62469424D01*
X146288101Y-62507117D01*
X146269534Y-62541853D01*
X146244548Y-62572298D01*
X146214103Y-62597284D01*
X146179367Y-62615851D01*
X146141674Y-62627285D01*
X146096339Y-62631750D01*
X145259661Y-62631750D01*
X145214326Y-62627285D01*
X145176633Y-62615851D01*
X145141897Y-62597284D01*
X145111452Y-62572298D01*
X145086466Y-62541853D01*
X145067899Y-62507117D01*
X145056465Y-62469424D01*
X145052000Y-62424089D01*
X145052000Y-61337411D01*
X145056465Y-61292076D01*
X145067899Y-61254383D01*
X145086466Y-61219647D01*
X145111452Y-61189202D01*
X145141897Y-61164216D01*
X145176633Y-61145649D01*
X145214326Y-61134215D01*
X145259661Y-61129750D01*
X146096339Y-61129750D01*
X146141674Y-61134215D01*
G37*
G36*
X127920000Y-62610250D02*
G01*
X127218000Y-62610250D01*
X127218000Y-61908250D01*
X127920000Y-61908250D01*
X127920000Y-62610250D01*
G37*
G36*
X126020000Y-62610250D02*
G01*
X125318000Y-62610250D01*
X125318000Y-61908250D01*
X126020000Y-61908250D01*
X126020000Y-62610250D01*
G37*
G36*
X155903273Y-60513337D02*
G01*
X155940966Y-60524771D01*
X155975702Y-60543338D01*
X156010915Y-60572236D01*
X156779315Y-61340636D01*
X156808213Y-61375849D01*
X156826780Y-61410585D01*
X156838214Y-61448278D01*
X156842074Y-61487473D01*
X156838214Y-61526668D01*
X156826780Y-61564361D01*
X156808213Y-61599097D01*
X156779315Y-61634310D01*
X156187691Y-62225934D01*
X156152478Y-62254832D01*
X156117742Y-62273399D01*
X156080049Y-62284833D01*
X156040854Y-62288693D01*
X156001659Y-62284833D01*
X155963966Y-62273399D01*
X155929230Y-62254832D01*
X155894017Y-62225934D01*
X155125617Y-61457534D01*
X155096719Y-61422321D01*
X155078152Y-61387585D01*
X155066718Y-61349892D01*
X155062858Y-61310697D01*
X155066718Y-61271502D01*
X155078152Y-61233809D01*
X155096719Y-61199073D01*
X155125617Y-61163860D01*
X155717241Y-60572236D01*
X155752454Y-60543338D01*
X155787190Y-60524771D01*
X155824883Y-60513337D01*
X155864078Y-60509477D01*
X155903273Y-60513337D01*
G37*
G36*
X149770799Y-60397218D02*
G01*
X149808492Y-60408652D01*
X149843228Y-60427219D01*
X149878441Y-60456117D01*
X150470065Y-61047741D01*
X150498963Y-61082954D01*
X150517530Y-61117690D01*
X150528964Y-61155383D01*
X150532824Y-61194578D01*
X150528964Y-61233773D01*
X150517530Y-61271466D01*
X150498963Y-61306202D01*
X150470065Y-61341415D01*
X149701665Y-62109815D01*
X149666452Y-62138713D01*
X149631716Y-62157280D01*
X149594023Y-62168714D01*
X149554828Y-62172574D01*
X149515633Y-62168714D01*
X149477940Y-62157280D01*
X149443204Y-62138713D01*
X149407991Y-62109815D01*
X148816367Y-61518191D01*
X148787469Y-61482978D01*
X148768902Y-61448242D01*
X148757468Y-61410549D01*
X148753608Y-61371354D01*
X148757468Y-61332159D01*
X148768902Y-61294466D01*
X148787469Y-61259730D01*
X148816367Y-61224517D01*
X149584767Y-60456117D01*
X149619980Y-60427219D01*
X149654716Y-60408652D01*
X149692409Y-60397218D01*
X149731604Y-60393358D01*
X149770799Y-60397218D01*
G37*
G36*
X53375000Y-61915750D02*
G01*
X51273000Y-61915750D01*
X51273000Y-59813750D01*
X53375000Y-59813750D01*
X53375000Y-61915750D01*
G37*
G36*
X55130564Y-59854139D02*
G01*
X55321833Y-59933365D01*
X55321835Y-59933366D01*
X55433907Y-60008250D01*
X55493973Y-60048385D01*
X55640365Y-60194777D01*
X55755385Y-60366917D01*
X55834611Y-60558186D01*
X55875000Y-60761234D01*
X55875000Y-60968266D01*
X55834611Y-61171314D01*
X55764476Y-61340636D01*
X55755384Y-61362585D01*
X55640365Y-61534723D01*
X55493973Y-61681115D01*
X55321835Y-61796134D01*
X55321834Y-61796135D01*
X55321833Y-61796135D01*
X55130564Y-61875361D01*
X54927516Y-61915750D01*
X54720484Y-61915750D01*
X54517436Y-61875361D01*
X54326167Y-61796135D01*
X54326166Y-61796135D01*
X54326165Y-61796134D01*
X54154027Y-61681115D01*
X54007635Y-61534723D01*
X53892616Y-61362585D01*
X53883524Y-61340636D01*
X53813389Y-61171314D01*
X53773000Y-60968266D01*
X53773000Y-60761234D01*
X53813389Y-60558186D01*
X53892615Y-60366917D01*
X54007635Y-60194777D01*
X54154027Y-60048385D01*
X54214093Y-60008250D01*
X54326165Y-59933366D01*
X54326167Y-59933365D01*
X54517436Y-59854139D01*
X54720484Y-59813750D01*
X54927516Y-59813750D01*
X55130564Y-59854139D01*
G37*
G36*
X57630564Y-59854139D02*
G01*
X57821833Y-59933365D01*
X57821835Y-59933366D01*
X57933907Y-60008250D01*
X57993973Y-60048385D01*
X58140365Y-60194777D01*
X58255385Y-60366917D01*
X58334611Y-60558186D01*
X58375000Y-60761234D01*
X58375000Y-60968266D01*
X58334611Y-61171314D01*
X58264476Y-61340636D01*
X58255384Y-61362585D01*
X58140365Y-61534723D01*
X57993973Y-61681115D01*
X57821835Y-61796134D01*
X57821834Y-61796135D01*
X57821833Y-61796135D01*
X57630564Y-61875361D01*
X57427516Y-61915750D01*
X57220484Y-61915750D01*
X57017436Y-61875361D01*
X56826167Y-61796135D01*
X56826166Y-61796135D01*
X56826165Y-61796134D01*
X56654027Y-61681115D01*
X56507635Y-61534723D01*
X56392616Y-61362585D01*
X56383524Y-61340636D01*
X56313389Y-61171314D01*
X56273000Y-60968266D01*
X56273000Y-60761234D01*
X56313389Y-60558186D01*
X56392615Y-60366917D01*
X56507635Y-60194777D01*
X56654027Y-60048385D01*
X56714093Y-60008250D01*
X56826165Y-59933366D01*
X56826167Y-59933365D01*
X57017436Y-59854139D01*
X57220484Y-59813750D01*
X57427516Y-59813750D01*
X57630564Y-59854139D01*
G37*
G36*
X113601000Y-61353750D02*
G01*
X111799000Y-61353750D01*
X111799000Y-59551750D01*
X113601000Y-59551750D01*
X113601000Y-61353750D01*
G37*
G36*
X127920000Y-61110250D02*
G01*
X127218000Y-61110250D01*
X127218000Y-60008250D01*
X127920000Y-60008250D01*
X127920000Y-61110250D01*
G37*
G36*
X126020000Y-60710250D02*
G01*
X125318000Y-60710250D01*
X125318000Y-60008250D01*
X126020000Y-60008250D01*
X126020000Y-60710250D01*
G37*
G36*
X112813512Y-57016677D02*
G01*
X112962812Y-57046374D01*
X113126784Y-57114294D01*
X113274354Y-57212897D01*
X113399853Y-57338396D01*
X113498456Y-57485966D01*
X113566376Y-57649938D01*
X113601000Y-57824009D01*
X113601000Y-58001491D01*
X113566376Y-58175562D01*
X113498456Y-58339534D01*
X113399853Y-58487104D01*
X113274354Y-58612603D01*
X113126784Y-58711206D01*
X112962812Y-58779126D01*
X112813512Y-58808823D01*
X112788742Y-58813750D01*
X112611258Y-58813750D01*
X112586488Y-58808823D01*
X112437188Y-58779126D01*
X112273216Y-58711206D01*
X112125646Y-58612603D01*
X112000147Y-58487104D01*
X111901544Y-58339534D01*
X111833624Y-58175562D01*
X111799000Y-58001491D01*
X111799000Y-57824009D01*
X111833624Y-57649938D01*
X111901544Y-57485966D01*
X112000147Y-57338396D01*
X112125646Y-57212897D01*
X112273216Y-57114294D01*
X112437188Y-57046374D01*
X112586488Y-57016677D01*
X112611258Y-57011750D01*
X112788742Y-57011750D01*
X112813512Y-57016677D01*
G37*
G36*
X122392674Y-56593965D02*
G01*
X122430367Y-56605399D01*
X122465103Y-56623966D01*
X122495548Y-56648952D01*
X122520534Y-56679397D01*
X122539101Y-56714133D01*
X122550535Y-56751826D01*
X122555000Y-56797161D01*
X122555000Y-57883839D01*
X122550535Y-57929174D01*
X122539101Y-57966867D01*
X122520534Y-58001603D01*
X122495548Y-58032048D01*
X122465103Y-58057034D01*
X122430367Y-58075601D01*
X122392674Y-58087035D01*
X122347339Y-58091500D01*
X121510661Y-58091500D01*
X121465326Y-58087035D01*
X121427633Y-58075601D01*
X121392897Y-58057034D01*
X121362452Y-58032048D01*
X121337466Y-58001603D01*
X121318899Y-57966867D01*
X121307465Y-57929174D01*
X121303000Y-57883839D01*
X121303000Y-56797161D01*
X121307465Y-56751826D01*
X121318899Y-56714133D01*
X121337466Y-56679397D01*
X121362452Y-56648952D01*
X121392897Y-56623966D01*
X121427633Y-56605399D01*
X121465326Y-56593965D01*
X121510661Y-56589500D01*
X122347339Y-56589500D01*
X122392674Y-56593965D01*
G37*
G36*
X131455174Y-56593965D02*
G01*
X131492867Y-56605399D01*
X131527603Y-56623966D01*
X131558048Y-56648952D01*
X131583034Y-56679397D01*
X131601601Y-56714133D01*
X131613035Y-56751826D01*
X131617500Y-56797161D01*
X131617500Y-57883839D01*
X131613035Y-57929174D01*
X131601601Y-57966867D01*
X131583034Y-58001603D01*
X131558048Y-58032048D01*
X131527603Y-58057034D01*
X131492867Y-58075601D01*
X131455174Y-58087035D01*
X131409839Y-58091500D01*
X130573161Y-58091500D01*
X130527826Y-58087035D01*
X130490133Y-58075601D01*
X130455397Y-58057034D01*
X130424952Y-58032048D01*
X130399966Y-58001603D01*
X130381399Y-57966867D01*
X130369965Y-57929174D01*
X130365500Y-57883839D01*
X130365500Y-56797161D01*
X130369965Y-56751826D01*
X130381399Y-56714133D01*
X130399966Y-56679397D01*
X130424952Y-56648952D01*
X130455397Y-56623966D01*
X130490133Y-56605399D01*
X130527826Y-56593965D01*
X130573161Y-56589500D01*
X131409839Y-56589500D01*
X131455174Y-56593965D01*
G37*
G36*
X133505174Y-56593965D02*
G01*
X133542867Y-56605399D01*
X133577603Y-56623966D01*
X133608048Y-56648952D01*
X133633034Y-56679397D01*
X133651601Y-56714133D01*
X133663035Y-56751826D01*
X133667500Y-56797161D01*
X133667500Y-57883839D01*
X133663035Y-57929174D01*
X133651601Y-57966867D01*
X133633034Y-58001603D01*
X133608048Y-58032048D01*
X133577603Y-58057034D01*
X133542867Y-58075601D01*
X133505174Y-58087035D01*
X133459839Y-58091500D01*
X132623161Y-58091500D01*
X132577826Y-58087035D01*
X132540133Y-58075601D01*
X132505397Y-58057034D01*
X132474952Y-58032048D01*
X132449966Y-58001603D01*
X132431399Y-57966867D01*
X132419965Y-57929174D01*
X132415500Y-57883839D01*
X132415500Y-56797161D01*
X132419965Y-56751826D01*
X132431399Y-56714133D01*
X132449966Y-56679397D01*
X132474952Y-56648952D01*
X132505397Y-56623966D01*
X132540133Y-56605399D01*
X132577826Y-56593965D01*
X132623161Y-56589500D01*
X133459839Y-56589500D01*
X133505174Y-56593965D01*
G37*
G36*
X120342674Y-56593965D02*
G01*
X120380367Y-56605399D01*
X120415103Y-56623966D01*
X120445548Y-56648952D01*
X120470534Y-56679397D01*
X120489101Y-56714133D01*
X120500535Y-56751826D01*
X120505000Y-56797161D01*
X120505000Y-57883839D01*
X120500535Y-57929174D01*
X120489101Y-57966867D01*
X120470534Y-58001603D01*
X120445548Y-58032048D01*
X120415103Y-58057034D01*
X120380367Y-58075601D01*
X120342674Y-58087035D01*
X120297339Y-58091500D01*
X119460661Y-58091500D01*
X119415326Y-58087035D01*
X119377633Y-58075601D01*
X119342897Y-58057034D01*
X119312452Y-58032048D01*
X119287466Y-58001603D01*
X119268899Y-57966867D01*
X119257465Y-57929174D01*
X119253000Y-57883839D01*
X119253000Y-56797161D01*
X119257465Y-56751826D01*
X119268899Y-56714133D01*
X119287466Y-56679397D01*
X119312452Y-56648952D01*
X119342897Y-56623966D01*
X119377633Y-56605399D01*
X119415326Y-56593965D01*
X119460661Y-56589500D01*
X120297339Y-56589500D01*
X120342674Y-56593965D01*
G37*
G36*
X146850000Y-56533750D02*
G01*
X145648000Y-56533750D01*
X145648000Y-54631750D01*
X146850000Y-54631750D01*
X146850000Y-56533750D01*
G37*
G36*
X143150000Y-56533750D02*
G01*
X141948000Y-56533750D01*
X141948000Y-54631750D01*
X143150000Y-54631750D01*
X143150000Y-56533750D01*
G37*
G36*
X112813512Y-54476677D02*
G01*
X112962812Y-54506374D01*
X113126784Y-54574294D01*
X113274354Y-54672897D01*
X113399853Y-54798396D01*
X113498456Y-54945966D01*
X113566376Y-55109938D01*
X113601000Y-55284009D01*
X113601000Y-55461491D01*
X113566376Y-55635562D01*
X113498456Y-55799534D01*
X113399853Y-55947104D01*
X113274354Y-56072603D01*
X113126784Y-56171206D01*
X112962812Y-56239126D01*
X112813512Y-56268823D01*
X112788742Y-56273750D01*
X112611258Y-56273750D01*
X112586488Y-56268823D01*
X112437188Y-56239126D01*
X112273216Y-56171206D01*
X112125646Y-56072603D01*
X112000147Y-55947104D01*
X111901544Y-55799534D01*
X111833624Y-55635562D01*
X111799000Y-55461491D01*
X111799000Y-55284009D01*
X111833624Y-55109938D01*
X111901544Y-54945966D01*
X112000147Y-54798396D01*
X112125646Y-54672897D01*
X112273216Y-54574294D01*
X112437188Y-54506374D01*
X112586488Y-54476677D01*
X112611258Y-54471750D01*
X112788742Y-54471750D01*
X112813512Y-54476677D01*
G37*
G36*
X139686600Y-55999950D02*
G01*
X137884600Y-55999950D01*
X137884600Y-54197950D01*
X139686600Y-54197950D01*
X139686600Y-55999950D01*
G37*
G36*
X136359112Y-54202877D02*
G01*
X136508412Y-54232574D01*
X136672384Y-54300494D01*
X136819954Y-54399097D01*
X136945453Y-54524596D01*
X137044056Y-54672166D01*
X137111976Y-54836138D01*
X137146600Y-55010209D01*
X137146600Y-55187691D01*
X137111976Y-55361762D01*
X137044056Y-55525734D01*
X136945453Y-55673304D01*
X136819954Y-55798803D01*
X136672384Y-55897406D01*
X136508412Y-55965326D01*
X136359112Y-55995023D01*
X136334342Y-55999950D01*
X136156858Y-55999950D01*
X136132088Y-55995023D01*
X135982788Y-55965326D01*
X135818816Y-55897406D01*
X135671246Y-55798803D01*
X135545747Y-55673304D01*
X135447144Y-55525734D01*
X135379224Y-55361762D01*
X135344600Y-55187691D01*
X135344600Y-55010209D01*
X135379224Y-54836138D01*
X135447144Y-54672166D01*
X135545747Y-54524596D01*
X135671246Y-54399097D01*
X135818816Y-54300494D01*
X135982788Y-54232574D01*
X136132088Y-54202877D01*
X136156858Y-54197950D01*
X136334342Y-54197950D01*
X136359112Y-54202877D01*
G37*
G36*
X124403613Y-52350848D02*
G01*
X124427999Y-52353250D01*
X128429001Y-52353250D01*
X128453387Y-52350848D01*
X128457007Y-52349750D01*
X130145000Y-52349750D01*
X130145000Y-54901750D01*
X128536249Y-54901750D01*
X128511863Y-54904152D01*
X128508243Y-54905250D01*
X124412257Y-54905250D01*
X124408637Y-54904152D01*
X124384251Y-54901750D01*
X122712000Y-54901750D01*
X122712000Y-52349750D01*
X124399993Y-52349750D01*
X124403613Y-52350848D01*
G37*
G36*
X112813512Y-51936677D02*
G01*
X112962812Y-51966374D01*
X113126784Y-52034294D01*
X113274354Y-52132897D01*
X113399853Y-52258396D01*
X113498456Y-52405966D01*
X113566376Y-52569938D01*
X113601000Y-52744009D01*
X113601000Y-52921491D01*
X113566376Y-53095562D01*
X113498456Y-53259534D01*
X113399853Y-53407104D01*
X113274354Y-53532603D01*
X113126784Y-53631206D01*
X112962812Y-53699126D01*
X112813512Y-53728823D01*
X112788742Y-53733750D01*
X112611258Y-53733750D01*
X112586488Y-53728823D01*
X112437188Y-53699126D01*
X112273216Y-53631206D01*
X112125646Y-53532603D01*
X112000147Y-53407104D01*
X111901544Y-53259534D01*
X111833624Y-53095562D01*
X111799000Y-52921491D01*
X111799000Y-52744009D01*
X111833624Y-52569938D01*
X111901544Y-52405966D01*
X112000147Y-52258396D01*
X112125646Y-52132897D01*
X112273216Y-52034294D01*
X112437188Y-51966374D01*
X112586488Y-51936677D01*
X112611258Y-51931750D01*
X112788742Y-51931750D01*
X112813512Y-51936677D01*
G37*
G36*
X117809674Y-52473465D02*
G01*
X117847367Y-52484899D01*
X117882103Y-52503466D01*
X117912548Y-52528452D01*
X117937534Y-52558897D01*
X117956101Y-52593633D01*
X117967535Y-52631326D01*
X117972000Y-52676661D01*
X117972000Y-53513339D01*
X117967535Y-53558674D01*
X117956101Y-53596367D01*
X117937534Y-53631103D01*
X117912548Y-53661548D01*
X117882103Y-53686534D01*
X117847367Y-53705101D01*
X117809674Y-53716535D01*
X117764339Y-53721000D01*
X116677661Y-53721000D01*
X116632326Y-53716535D01*
X116594633Y-53705101D01*
X116559897Y-53686534D01*
X116529452Y-53661548D01*
X116504466Y-53631103D01*
X116485899Y-53596367D01*
X116474465Y-53558674D01*
X116470000Y-53513339D01*
X116470000Y-52676661D01*
X116474465Y-52631326D01*
X116485899Y-52593633D01*
X116504466Y-52558897D01*
X116529452Y-52528452D01*
X116559897Y-52503466D01*
X116594633Y-52484899D01*
X116632326Y-52473465D01*
X116677661Y-52469000D01*
X117764339Y-52469000D01*
X117809674Y-52473465D01*
G37*
G36*
X138899112Y-51662877D02*
G01*
X139048412Y-51692574D01*
X139212384Y-51760494D01*
X139359954Y-51859097D01*
X139485453Y-51984596D01*
X139584056Y-52132166D01*
X139651976Y-52296138D01*
X139686600Y-52470209D01*
X139686600Y-52647691D01*
X139651976Y-52821762D01*
X139584056Y-52985734D01*
X139485453Y-53133304D01*
X139359954Y-53258803D01*
X139212384Y-53357406D01*
X139048412Y-53425326D01*
X138899112Y-53455023D01*
X138874342Y-53459950D01*
X138696858Y-53459950D01*
X138672088Y-53455023D01*
X138522788Y-53425326D01*
X138358816Y-53357406D01*
X138211246Y-53258803D01*
X138085747Y-53133304D01*
X137987144Y-52985734D01*
X137919224Y-52821762D01*
X137884600Y-52647691D01*
X137884600Y-52470209D01*
X137919224Y-52296138D01*
X137987144Y-52132166D01*
X138085747Y-51984596D01*
X138211246Y-51859097D01*
X138358816Y-51760494D01*
X138522788Y-51692574D01*
X138672088Y-51662877D01*
X138696858Y-51657950D01*
X138874342Y-51657950D01*
X138899112Y-51662877D01*
G37*
G36*
X136359112Y-51662877D02*
G01*
X136508412Y-51692574D01*
X136672384Y-51760494D01*
X136819954Y-51859097D01*
X136945453Y-51984596D01*
X137044056Y-52132166D01*
X137111976Y-52296138D01*
X137146600Y-52470209D01*
X137146600Y-52647691D01*
X137111976Y-52821762D01*
X137044056Y-52985734D01*
X136945453Y-53133304D01*
X136819954Y-53258803D01*
X136672384Y-53357406D01*
X136508412Y-53425326D01*
X136359112Y-53455023D01*
X136334342Y-53459950D01*
X136156858Y-53459950D01*
X136132088Y-53455023D01*
X135982788Y-53425326D01*
X135818816Y-53357406D01*
X135671246Y-53258803D01*
X135545747Y-53133304D01*
X135447144Y-52985734D01*
X135379224Y-52821762D01*
X135344600Y-52647691D01*
X135344600Y-52470209D01*
X135379224Y-52296138D01*
X135447144Y-52132166D01*
X135545747Y-51984596D01*
X135671246Y-51859097D01*
X135818816Y-51760494D01*
X135982788Y-51692574D01*
X136132088Y-51662877D01*
X136156858Y-51657950D01*
X136334342Y-51657950D01*
X136359112Y-51662877D01*
G37*
G36*
X123679922Y-51322699D02*
G01*
X123679924Y-51322700D01*
X123679925Y-51322700D01*
X123748353Y-51351043D01*
X123809936Y-51392192D01*
X123862308Y-51444564D01*
X123903457Y-51506147D01*
X123931800Y-51574575D01*
X123931801Y-51574578D01*
X123939155Y-51611548D01*
X123946250Y-51647217D01*
X123946250Y-51721283D01*
X123931800Y-51793925D01*
X123903457Y-51862353D01*
X123862308Y-51923936D01*
X123809936Y-51976308D01*
X123748353Y-52017457D01*
X123679925Y-52045800D01*
X123679924Y-52045800D01*
X123679922Y-52045801D01*
X123607284Y-52060250D01*
X123533216Y-52060250D01*
X123460578Y-52045801D01*
X123460576Y-52045800D01*
X123460575Y-52045800D01*
X123392147Y-52017457D01*
X123330564Y-51976308D01*
X123278192Y-51923936D01*
X123237043Y-51862353D01*
X123208700Y-51793925D01*
X123194250Y-51721283D01*
X123194250Y-51647217D01*
X123201345Y-51611548D01*
X123208699Y-51574578D01*
X123208700Y-51574575D01*
X123237043Y-51506147D01*
X123278192Y-51444564D01*
X123330564Y-51392192D01*
X123392147Y-51351043D01*
X123460575Y-51322700D01*
X123460576Y-51322700D01*
X123460578Y-51322699D01*
X123533216Y-51308250D01*
X123607284Y-51308250D01*
X123679922Y-51322699D01*
G37*
G36*
X129459922Y-51322699D02*
G01*
X129459924Y-51322700D01*
X129459925Y-51322700D01*
X129528353Y-51351043D01*
X129589936Y-51392192D01*
X129642308Y-51444564D01*
X129683457Y-51506147D01*
X129711800Y-51574575D01*
X129711801Y-51574578D01*
X129719155Y-51611548D01*
X129726250Y-51647217D01*
X129726250Y-51721283D01*
X129711800Y-51793925D01*
X129683457Y-51862353D01*
X129642308Y-51923936D01*
X129589936Y-51976308D01*
X129528353Y-52017457D01*
X129459925Y-52045800D01*
X129459924Y-52045800D01*
X129459922Y-52045801D01*
X129387284Y-52060250D01*
X129313216Y-52060250D01*
X129240578Y-52045801D01*
X129240576Y-52045800D01*
X129240575Y-52045800D01*
X129172147Y-52017457D01*
X129110564Y-51976308D01*
X129058192Y-51923936D01*
X129017043Y-51862353D01*
X128988700Y-51793925D01*
X128974250Y-51721283D01*
X128974250Y-51647217D01*
X128981345Y-51611548D01*
X128988699Y-51574578D01*
X128988700Y-51574575D01*
X129017043Y-51506147D01*
X129058192Y-51444564D01*
X129110564Y-51392192D01*
X129172147Y-51351043D01*
X129240575Y-51322700D01*
X129240576Y-51322700D01*
X129240578Y-51322699D01*
X129313216Y-51308250D01*
X129387284Y-51308250D01*
X129459922Y-51322699D01*
G37*
G36*
X117809674Y-50423465D02*
G01*
X117847367Y-50434899D01*
X117882103Y-50453466D01*
X117912548Y-50478452D01*
X117937534Y-50508897D01*
X117956101Y-50543633D01*
X117967535Y-50581326D01*
X117972000Y-50626661D01*
X117972000Y-51463339D01*
X117967535Y-51508674D01*
X117956101Y-51546367D01*
X117937534Y-51581103D01*
X117912548Y-51611548D01*
X117882103Y-51636534D01*
X117847367Y-51655101D01*
X117809674Y-51666535D01*
X117764339Y-51671000D01*
X116677661Y-51671000D01*
X116632326Y-51666535D01*
X116594633Y-51655101D01*
X116559897Y-51636534D01*
X116529452Y-51611548D01*
X116504466Y-51581103D01*
X116485899Y-51546367D01*
X116474465Y-51508674D01*
X116470000Y-51463339D01*
X116470000Y-50626661D01*
X116474465Y-50581326D01*
X116485899Y-50543633D01*
X116504466Y-50508897D01*
X116529452Y-50478452D01*
X116559897Y-50453466D01*
X116594633Y-50434899D01*
X116632326Y-50423465D01*
X116677661Y-50419000D01*
X117764339Y-50419000D01*
X117809674Y-50423465D01*
G37*
G36*
X136359112Y-49122877D02*
G01*
X136508412Y-49152574D01*
X136672384Y-49220494D01*
X136819954Y-49319097D01*
X136945453Y-49444596D01*
X137044056Y-49592166D01*
X137111976Y-49756138D01*
X137146600Y-49930209D01*
X137146600Y-50107691D01*
X137111976Y-50281762D01*
X137044056Y-50445734D01*
X136945453Y-50593304D01*
X136819954Y-50718803D01*
X136672384Y-50817406D01*
X136508412Y-50885326D01*
X136359112Y-50915023D01*
X136334342Y-50919950D01*
X136156858Y-50919950D01*
X136132088Y-50915023D01*
X135982788Y-50885326D01*
X135818816Y-50817406D01*
X135671246Y-50718803D01*
X135545747Y-50593304D01*
X135447144Y-50445734D01*
X135379224Y-50281762D01*
X135344600Y-50107691D01*
X135344600Y-49930209D01*
X135379224Y-49756138D01*
X135447144Y-49592166D01*
X135545747Y-49444596D01*
X135671246Y-49319097D01*
X135818816Y-49220494D01*
X135982788Y-49152574D01*
X136132088Y-49122877D01*
X136156858Y-49117950D01*
X136334342Y-49117950D01*
X136359112Y-49122877D01*
G37*
G36*
X138899112Y-49122877D02*
G01*
X139048412Y-49152574D01*
X139212384Y-49220494D01*
X139359954Y-49319097D01*
X139485453Y-49444596D01*
X139584056Y-49592166D01*
X139651976Y-49756138D01*
X139686600Y-49930209D01*
X139686600Y-50107691D01*
X139651976Y-50281762D01*
X139584056Y-50445734D01*
X139485453Y-50593304D01*
X139359954Y-50718803D01*
X139212384Y-50817406D01*
X139048412Y-50885326D01*
X138899112Y-50915023D01*
X138874342Y-50919950D01*
X138696858Y-50919950D01*
X138672088Y-50915023D01*
X138522788Y-50885326D01*
X138358816Y-50817406D01*
X138211246Y-50718803D01*
X138085747Y-50593304D01*
X137987144Y-50445734D01*
X137919224Y-50281762D01*
X137884600Y-50107691D01*
X137884600Y-49930209D01*
X137919224Y-49756138D01*
X137987144Y-49592166D01*
X138085747Y-49444596D01*
X138211246Y-49319097D01*
X138358816Y-49220494D01*
X138522788Y-49152574D01*
X138672088Y-49122877D01*
X138696858Y-49117950D01*
X138874342Y-49117950D01*
X138899112Y-49122877D01*
G37*
G36*
X143150000Y-50333750D02*
G01*
X141948000Y-50333750D01*
X141948000Y-48431750D01*
X143150000Y-48431750D01*
X143150000Y-50333750D01*
G37*
G36*
X146850000Y-50333750D02*
G01*
X145648000Y-50333750D01*
X145648000Y-48431750D01*
X146850000Y-48431750D01*
X146850000Y-50333750D01*
G37*
M02*
