G04 #@! TF.GenerationSoftware,KiCad,Pcbnew,(5.1.5)-3*
G04 #@! TF.CreationDate,2021-05-08T00:02:10-05:00*
G04 #@! TF.ProjectId,MacroPad,4d616372-6f50-4616-942e-6b696361645f,rev?*
G04 #@! TF.SameCoordinates,Original*
G04 #@! TF.FileFunction,Paste,Bot*
G04 #@! TF.FilePolarity,Positive*
%FSLAX46Y46*%
G04 Gerber Fmt 4.6, Leading zero omitted, Abs format (unit mm)*
G04 Created by KiCad (PCBNEW (5.1.5)-3) date 2021-05-08 00:02:10*
%MOMM*%
%LPD*%
G04 APERTURE LIST*
%ADD10C,0.100000*%
%ADD11R,0.600000X2.450000*%
%ADD12R,0.300000X2.450000*%
%ADD13R,0.600000X0.600000*%
%ADD14R,0.600000X1.000000*%
%ADD15R,1.100000X1.800000*%
G04 APERTURE END LIST*
D10*
G36*
X117695505Y-50471204D02*
G01*
X117719773Y-50474804D01*
X117743572Y-50480765D01*
X117766671Y-50489030D01*
X117788850Y-50499520D01*
X117809893Y-50512132D01*
X117829599Y-50526747D01*
X117847777Y-50543223D01*
X117864253Y-50561401D01*
X117878868Y-50581107D01*
X117891480Y-50602150D01*
X117901970Y-50624329D01*
X117910235Y-50647428D01*
X117916196Y-50671227D01*
X117919796Y-50695495D01*
X117921000Y-50719999D01*
X117921000Y-51370001D01*
X117919796Y-51394505D01*
X117916196Y-51418773D01*
X117910235Y-51442572D01*
X117901970Y-51465671D01*
X117891480Y-51487850D01*
X117878868Y-51508893D01*
X117864253Y-51528599D01*
X117847777Y-51546777D01*
X117829599Y-51563253D01*
X117809893Y-51577868D01*
X117788850Y-51590480D01*
X117766671Y-51600970D01*
X117743572Y-51609235D01*
X117719773Y-51615196D01*
X117695505Y-51618796D01*
X117671001Y-51620000D01*
X116770999Y-51620000D01*
X116746495Y-51618796D01*
X116722227Y-51615196D01*
X116698428Y-51609235D01*
X116675329Y-51600970D01*
X116653150Y-51590480D01*
X116632107Y-51577868D01*
X116612401Y-51563253D01*
X116594223Y-51546777D01*
X116577747Y-51528599D01*
X116563132Y-51508893D01*
X116550520Y-51487850D01*
X116540030Y-51465671D01*
X116531765Y-51442572D01*
X116525804Y-51418773D01*
X116522204Y-51394505D01*
X116521000Y-51370001D01*
X116521000Y-50719999D01*
X116522204Y-50695495D01*
X116525804Y-50671227D01*
X116531765Y-50647428D01*
X116540030Y-50624329D01*
X116550520Y-50602150D01*
X116563132Y-50581107D01*
X116577747Y-50561401D01*
X116594223Y-50543223D01*
X116612401Y-50526747D01*
X116632107Y-50512132D01*
X116653150Y-50499520D01*
X116675329Y-50489030D01*
X116698428Y-50480765D01*
X116722227Y-50474804D01*
X116746495Y-50471204D01*
X116770999Y-50470000D01*
X117671001Y-50470000D01*
X117695505Y-50471204D01*
G37*
G36*
X117695505Y-52521204D02*
G01*
X117719773Y-52524804D01*
X117743572Y-52530765D01*
X117766671Y-52539030D01*
X117788850Y-52549520D01*
X117809893Y-52562132D01*
X117829599Y-52576747D01*
X117847777Y-52593223D01*
X117864253Y-52611401D01*
X117878868Y-52631107D01*
X117891480Y-52652150D01*
X117901970Y-52674329D01*
X117910235Y-52697428D01*
X117916196Y-52721227D01*
X117919796Y-52745495D01*
X117921000Y-52769999D01*
X117921000Y-53420001D01*
X117919796Y-53444505D01*
X117916196Y-53468773D01*
X117910235Y-53492572D01*
X117901970Y-53515671D01*
X117891480Y-53537850D01*
X117878868Y-53558893D01*
X117864253Y-53578599D01*
X117847777Y-53596777D01*
X117829599Y-53613253D01*
X117809893Y-53627868D01*
X117788850Y-53640480D01*
X117766671Y-53650970D01*
X117743572Y-53659235D01*
X117719773Y-53665196D01*
X117695505Y-53668796D01*
X117671001Y-53670000D01*
X116770999Y-53670000D01*
X116746495Y-53668796D01*
X116722227Y-53665196D01*
X116698428Y-53659235D01*
X116675329Y-53650970D01*
X116653150Y-53640480D01*
X116632107Y-53627868D01*
X116612401Y-53613253D01*
X116594223Y-53596777D01*
X116577747Y-53578599D01*
X116563132Y-53558893D01*
X116550520Y-53537850D01*
X116540030Y-53515671D01*
X116531765Y-53492572D01*
X116525804Y-53468773D01*
X116522204Y-53444505D01*
X116521000Y-53420001D01*
X116521000Y-52769999D01*
X116522204Y-52745495D01*
X116525804Y-52721227D01*
X116531765Y-52697428D01*
X116540030Y-52674329D01*
X116550520Y-52652150D01*
X116563132Y-52631107D01*
X116577747Y-52611401D01*
X116594223Y-52593223D01*
X116612401Y-52576747D01*
X116632107Y-52562132D01*
X116653150Y-52549520D01*
X116675329Y-52539030D01*
X116698428Y-52530765D01*
X116722227Y-52524804D01*
X116746495Y-52521204D01*
X116770999Y-52520000D01*
X117671001Y-52520000D01*
X117695505Y-52521204D01*
G37*
D11*
X129794000Y-53625750D03*
X123063000Y-53625750D03*
X128905000Y-53625750D03*
X123952000Y-53625750D03*
D12*
X124710250Y-53629250D03*
X128210250Y-53629250D03*
X125210250Y-53629250D03*
X127710250Y-53629250D03*
X125710250Y-53629250D03*
X127210250Y-53629250D03*
X126710250Y-53629250D03*
X126210250Y-53629250D03*
D10*
G36*
X156363119Y-66873682D02*
G01*
X155090327Y-68146474D01*
X153605403Y-66661550D01*
X154878195Y-65388758D01*
X156363119Y-66873682D01*
G37*
G36*
X154312509Y-64823072D02*
G01*
X153039717Y-66095864D01*
X151554793Y-64610940D01*
X152827585Y-63338148D01*
X154312509Y-64823072D01*
G37*
G36*
X152686163Y-66449418D02*
G01*
X151413371Y-67722210D01*
X149928447Y-66237286D01*
X151201239Y-64964494D01*
X152686163Y-66449418D01*
G37*
G36*
X154736773Y-68500028D02*
G01*
X153463981Y-69772820D01*
X151979057Y-68287896D01*
X153251849Y-67015104D01*
X154736773Y-68500028D01*
G37*
D13*
X125669000Y-60359250D03*
X125669000Y-62259250D03*
X127569000Y-62259250D03*
D14*
X127569000Y-60559250D03*
D10*
G36*
X135904763Y-73131292D02*
G01*
X136293671Y-72742384D01*
X137354331Y-73803044D01*
X136965423Y-74191952D01*
X135904763Y-73131292D01*
G37*
G36*
X136470449Y-72565607D02*
G01*
X136859357Y-72176699D01*
X137920017Y-73237359D01*
X137531109Y-73626267D01*
X136470449Y-72565607D01*
G37*
G36*
X137036134Y-71999922D02*
G01*
X137425042Y-71611014D01*
X138485702Y-72671674D01*
X138096794Y-73060582D01*
X137036134Y-71999922D01*
G37*
G36*
X137601819Y-71434236D02*
G01*
X137990727Y-71045328D01*
X139051387Y-72105988D01*
X138662479Y-72494896D01*
X137601819Y-71434236D01*
G37*
G36*
X138167505Y-70868551D02*
G01*
X138556413Y-70479643D01*
X139617073Y-71540303D01*
X139228165Y-71929211D01*
X138167505Y-70868551D01*
G37*
G36*
X138733190Y-70302865D02*
G01*
X139122098Y-69913957D01*
X140182758Y-70974617D01*
X139793850Y-71363525D01*
X138733190Y-70302865D01*
G37*
G36*
X139298876Y-69737180D02*
G01*
X139687784Y-69348272D01*
X140748444Y-70408932D01*
X140359536Y-70797840D01*
X139298876Y-69737180D01*
G37*
G36*
X139864561Y-69171494D02*
G01*
X140253469Y-68782586D01*
X141314129Y-69843246D01*
X140925221Y-70232154D01*
X139864561Y-69171494D01*
G37*
G36*
X140430247Y-68605809D02*
G01*
X140819155Y-68216901D01*
X141879815Y-69277561D01*
X141490907Y-69666469D01*
X140430247Y-68605809D01*
G37*
G36*
X140995932Y-68040124D02*
G01*
X141384840Y-67651216D01*
X142445500Y-68711876D01*
X142056592Y-69100784D01*
X140995932Y-68040124D01*
G37*
G36*
X141561617Y-67474438D02*
G01*
X141950525Y-67085530D01*
X143011185Y-68146190D01*
X142622277Y-68535098D01*
X141561617Y-67474438D01*
G37*
G36*
X145026441Y-67085530D02*
G01*
X145415349Y-67474438D01*
X144354689Y-68535098D01*
X143965781Y-68146190D01*
X145026441Y-67085530D01*
G37*
G36*
X145592126Y-67651216D02*
G01*
X145981034Y-68040124D01*
X144920374Y-69100784D01*
X144531466Y-68711876D01*
X145592126Y-67651216D01*
G37*
G36*
X146157811Y-68216901D02*
G01*
X146546719Y-68605809D01*
X145486059Y-69666469D01*
X145097151Y-69277561D01*
X146157811Y-68216901D01*
G37*
G36*
X146723497Y-68782586D02*
G01*
X147112405Y-69171494D01*
X146051745Y-70232154D01*
X145662837Y-69843246D01*
X146723497Y-68782586D01*
G37*
G36*
X147289182Y-69348272D02*
G01*
X147678090Y-69737180D01*
X146617430Y-70797840D01*
X146228522Y-70408932D01*
X147289182Y-69348272D01*
G37*
G36*
X147854868Y-69913957D02*
G01*
X148243776Y-70302865D01*
X147183116Y-71363525D01*
X146794208Y-70974617D01*
X147854868Y-69913957D01*
G37*
G36*
X148420553Y-70479643D02*
G01*
X148809461Y-70868551D01*
X147748801Y-71929211D01*
X147359893Y-71540303D01*
X148420553Y-70479643D01*
G37*
G36*
X148986239Y-71045328D02*
G01*
X149375147Y-71434236D01*
X148314487Y-72494896D01*
X147925579Y-72105988D01*
X148986239Y-71045328D01*
G37*
G36*
X149551924Y-71611014D02*
G01*
X149940832Y-71999922D01*
X148880172Y-73060582D01*
X148491264Y-72671674D01*
X149551924Y-71611014D01*
G37*
G36*
X150117609Y-72176699D02*
G01*
X150506517Y-72565607D01*
X149445857Y-73626267D01*
X149056949Y-73237359D01*
X150117609Y-72176699D01*
G37*
G36*
X150683295Y-72742384D02*
G01*
X151072203Y-73131292D01*
X150011543Y-74191952D01*
X149622635Y-73803044D01*
X150683295Y-72742384D01*
G37*
G36*
X149622635Y-75535456D02*
G01*
X150011543Y-75146548D01*
X151072203Y-76207208D01*
X150683295Y-76596116D01*
X149622635Y-75535456D01*
G37*
G36*
X149056949Y-76101141D02*
G01*
X149445857Y-75712233D01*
X150506517Y-76772893D01*
X150117609Y-77161801D01*
X149056949Y-76101141D01*
G37*
G36*
X148491264Y-76666826D02*
G01*
X148880172Y-76277918D01*
X149940832Y-77338578D01*
X149551924Y-77727486D01*
X148491264Y-76666826D01*
G37*
G36*
X147925579Y-77232512D02*
G01*
X148314487Y-76843604D01*
X149375147Y-77904264D01*
X148986239Y-78293172D01*
X147925579Y-77232512D01*
G37*
G36*
X147359893Y-77798197D02*
G01*
X147748801Y-77409289D01*
X148809461Y-78469949D01*
X148420553Y-78858857D01*
X147359893Y-77798197D01*
G37*
G36*
X146794208Y-78363883D02*
G01*
X147183116Y-77974975D01*
X148243776Y-79035635D01*
X147854868Y-79424543D01*
X146794208Y-78363883D01*
G37*
G36*
X146228522Y-78929568D02*
G01*
X146617430Y-78540660D01*
X147678090Y-79601320D01*
X147289182Y-79990228D01*
X146228522Y-78929568D01*
G37*
G36*
X145662837Y-79495254D02*
G01*
X146051745Y-79106346D01*
X147112405Y-80167006D01*
X146723497Y-80555914D01*
X145662837Y-79495254D01*
G37*
G36*
X145097151Y-80060939D02*
G01*
X145486059Y-79672031D01*
X146546719Y-80732691D01*
X146157811Y-81121599D01*
X145097151Y-80060939D01*
G37*
G36*
X144531466Y-80626624D02*
G01*
X144920374Y-80237716D01*
X145981034Y-81298376D01*
X145592126Y-81687284D01*
X144531466Y-80626624D01*
G37*
G36*
X143965781Y-81192310D02*
G01*
X144354689Y-80803402D01*
X145415349Y-81864062D01*
X145026441Y-82252970D01*
X143965781Y-81192310D01*
G37*
G36*
X142622277Y-80803402D02*
G01*
X143011185Y-81192310D01*
X141950525Y-82252970D01*
X141561617Y-81864062D01*
X142622277Y-80803402D01*
G37*
G36*
X142056592Y-80237716D02*
G01*
X142445500Y-80626624D01*
X141384840Y-81687284D01*
X140995932Y-81298376D01*
X142056592Y-80237716D01*
G37*
G36*
X141490907Y-79672031D02*
G01*
X141879815Y-80060939D01*
X140819155Y-81121599D01*
X140430247Y-80732691D01*
X141490907Y-79672031D01*
G37*
G36*
X140925221Y-79106346D02*
G01*
X141314129Y-79495254D01*
X140253469Y-80555914D01*
X139864561Y-80167006D01*
X140925221Y-79106346D01*
G37*
G36*
X140359536Y-78540660D02*
G01*
X140748444Y-78929568D01*
X139687784Y-79990228D01*
X139298876Y-79601320D01*
X140359536Y-78540660D01*
G37*
G36*
X139793850Y-77974975D02*
G01*
X140182758Y-78363883D01*
X139122098Y-79424543D01*
X138733190Y-79035635D01*
X139793850Y-77974975D01*
G37*
G36*
X139228165Y-77409289D02*
G01*
X139617073Y-77798197D01*
X138556413Y-78858857D01*
X138167505Y-78469949D01*
X139228165Y-77409289D01*
G37*
G36*
X138662479Y-76843604D02*
G01*
X139051387Y-77232512D01*
X137990727Y-78293172D01*
X137601819Y-77904264D01*
X138662479Y-76843604D01*
G37*
G36*
X138096794Y-76277918D02*
G01*
X138485702Y-76666826D01*
X137425042Y-77727486D01*
X137036134Y-77338578D01*
X138096794Y-76277918D01*
G37*
G36*
X137531109Y-75712233D02*
G01*
X137920017Y-76101141D01*
X136859357Y-77161801D01*
X136470449Y-76772893D01*
X137531109Y-75712233D01*
G37*
G36*
X136965423Y-75146548D02*
G01*
X137354331Y-75535456D01*
X136293671Y-76596116D01*
X135904763Y-76207208D01*
X136965423Y-75146548D01*
G37*
D15*
X146249000Y-55582750D03*
X146249000Y-49382750D03*
X142549000Y-55582750D03*
X142549000Y-49382750D03*
D10*
G36*
X145911684Y-84145378D02*
G01*
X145935952Y-84148978D01*
X145959751Y-84154939D01*
X145982850Y-84163204D01*
X146005029Y-84173694D01*
X146026072Y-84186306D01*
X146045778Y-84200921D01*
X146063956Y-84217397D01*
X146700353Y-84853794D01*
X146716829Y-84871972D01*
X146731444Y-84891678D01*
X146744056Y-84912721D01*
X146754546Y-84934900D01*
X146762811Y-84957999D01*
X146768772Y-84981798D01*
X146772372Y-85006066D01*
X146773576Y-85030570D01*
X146772372Y-85055074D01*
X146768772Y-85079342D01*
X146762811Y-85103141D01*
X146754546Y-85126240D01*
X146744056Y-85148419D01*
X146731444Y-85169462D01*
X146716829Y-85189168D01*
X146700353Y-85207346D01*
X146240732Y-85666967D01*
X146222554Y-85683443D01*
X146202848Y-85698058D01*
X146181805Y-85710670D01*
X146159626Y-85721160D01*
X146136527Y-85729425D01*
X146112728Y-85735386D01*
X146088460Y-85738986D01*
X146063956Y-85740190D01*
X146039452Y-85738986D01*
X146015184Y-85735386D01*
X145991385Y-85729425D01*
X145968286Y-85721160D01*
X145946107Y-85710670D01*
X145925064Y-85698058D01*
X145905358Y-85683443D01*
X145887180Y-85666967D01*
X145250783Y-85030570D01*
X145234307Y-85012392D01*
X145219692Y-84992686D01*
X145207080Y-84971643D01*
X145196590Y-84949464D01*
X145188325Y-84926365D01*
X145182364Y-84902566D01*
X145178764Y-84878298D01*
X145177560Y-84853794D01*
X145178764Y-84829290D01*
X145182364Y-84805022D01*
X145188325Y-84781223D01*
X145196590Y-84758124D01*
X145207080Y-84735945D01*
X145219692Y-84714902D01*
X145234307Y-84695196D01*
X145250783Y-84677018D01*
X145710404Y-84217397D01*
X145728582Y-84200921D01*
X145748288Y-84186306D01*
X145769331Y-84173694D01*
X145791510Y-84163204D01*
X145814609Y-84154939D01*
X145838408Y-84148978D01*
X145862676Y-84145378D01*
X145887180Y-84144174D01*
X145911684Y-84145378D01*
G37*
G36*
X144462116Y-85594946D02*
G01*
X144486384Y-85598546D01*
X144510183Y-85604507D01*
X144533282Y-85612772D01*
X144555461Y-85623262D01*
X144576504Y-85635874D01*
X144596210Y-85650489D01*
X144614388Y-85666965D01*
X145250785Y-86303362D01*
X145267261Y-86321540D01*
X145281876Y-86341246D01*
X145294488Y-86362289D01*
X145304978Y-86384468D01*
X145313243Y-86407567D01*
X145319204Y-86431366D01*
X145322804Y-86455634D01*
X145324008Y-86480138D01*
X145322804Y-86504642D01*
X145319204Y-86528910D01*
X145313243Y-86552709D01*
X145304978Y-86575808D01*
X145294488Y-86597987D01*
X145281876Y-86619030D01*
X145267261Y-86638736D01*
X145250785Y-86656914D01*
X144791164Y-87116535D01*
X144772986Y-87133011D01*
X144753280Y-87147626D01*
X144732237Y-87160238D01*
X144710058Y-87170728D01*
X144686959Y-87178993D01*
X144663160Y-87184954D01*
X144638892Y-87188554D01*
X144614388Y-87189758D01*
X144589884Y-87188554D01*
X144565616Y-87184954D01*
X144541817Y-87178993D01*
X144518718Y-87170728D01*
X144496539Y-87160238D01*
X144475496Y-87147626D01*
X144455790Y-87133011D01*
X144437612Y-87116535D01*
X143801215Y-86480138D01*
X143784739Y-86461960D01*
X143770124Y-86442254D01*
X143757512Y-86421211D01*
X143747022Y-86399032D01*
X143738757Y-86375933D01*
X143732796Y-86352134D01*
X143729196Y-86327866D01*
X143727992Y-86303362D01*
X143729196Y-86278858D01*
X143732796Y-86254590D01*
X143738757Y-86230791D01*
X143747022Y-86207692D01*
X143757512Y-86185513D01*
X143770124Y-86164470D01*
X143784739Y-86144764D01*
X143801215Y-86126586D01*
X144260836Y-85666965D01*
X144279014Y-85650489D01*
X144298720Y-85635874D01*
X144319763Y-85623262D01*
X144341942Y-85612772D01*
X144365041Y-85604507D01*
X144388840Y-85598546D01*
X144413108Y-85594946D01*
X144437612Y-85593742D01*
X144462116Y-85594946D01*
G37*
G36*
X146027505Y-61181954D02*
G01*
X146051773Y-61185554D01*
X146075572Y-61191515D01*
X146098671Y-61199780D01*
X146120850Y-61210270D01*
X146141893Y-61222882D01*
X146161599Y-61237497D01*
X146179777Y-61253973D01*
X146196253Y-61272151D01*
X146210868Y-61291857D01*
X146223480Y-61312900D01*
X146233970Y-61335079D01*
X146242235Y-61358178D01*
X146248196Y-61381977D01*
X146251796Y-61406245D01*
X146253000Y-61430749D01*
X146253000Y-62330751D01*
X146251796Y-62355255D01*
X146248196Y-62379523D01*
X146242235Y-62403322D01*
X146233970Y-62426421D01*
X146223480Y-62448600D01*
X146210868Y-62469643D01*
X146196253Y-62489349D01*
X146179777Y-62507527D01*
X146161599Y-62524003D01*
X146141893Y-62538618D01*
X146120850Y-62551230D01*
X146098671Y-62561720D01*
X146075572Y-62569985D01*
X146051773Y-62575946D01*
X146027505Y-62579546D01*
X146003001Y-62580750D01*
X145352999Y-62580750D01*
X145328495Y-62579546D01*
X145304227Y-62575946D01*
X145280428Y-62569985D01*
X145257329Y-62561720D01*
X145235150Y-62551230D01*
X145214107Y-62538618D01*
X145194401Y-62524003D01*
X145176223Y-62507527D01*
X145159747Y-62489349D01*
X145145132Y-62469643D01*
X145132520Y-62448600D01*
X145122030Y-62426421D01*
X145113765Y-62403322D01*
X145107804Y-62379523D01*
X145104204Y-62355255D01*
X145103000Y-62330751D01*
X145103000Y-61430749D01*
X145104204Y-61406245D01*
X145107804Y-61381977D01*
X145113765Y-61358178D01*
X145122030Y-61335079D01*
X145132520Y-61312900D01*
X145145132Y-61291857D01*
X145159747Y-61272151D01*
X145176223Y-61253973D01*
X145194401Y-61237497D01*
X145214107Y-61222882D01*
X145235150Y-61210270D01*
X145257329Y-61199780D01*
X145280428Y-61191515D01*
X145304227Y-61185554D01*
X145328495Y-61181954D01*
X145352999Y-61180750D01*
X146003001Y-61180750D01*
X146027505Y-61181954D01*
G37*
G36*
X143977505Y-61181954D02*
G01*
X144001773Y-61185554D01*
X144025572Y-61191515D01*
X144048671Y-61199780D01*
X144070850Y-61210270D01*
X144091893Y-61222882D01*
X144111599Y-61237497D01*
X144129777Y-61253973D01*
X144146253Y-61272151D01*
X144160868Y-61291857D01*
X144173480Y-61312900D01*
X144183970Y-61335079D01*
X144192235Y-61358178D01*
X144198196Y-61381977D01*
X144201796Y-61406245D01*
X144203000Y-61430749D01*
X144203000Y-62330751D01*
X144201796Y-62355255D01*
X144198196Y-62379523D01*
X144192235Y-62403322D01*
X144183970Y-62426421D01*
X144173480Y-62448600D01*
X144160868Y-62469643D01*
X144146253Y-62489349D01*
X144129777Y-62507527D01*
X144111599Y-62524003D01*
X144091893Y-62538618D01*
X144070850Y-62551230D01*
X144048671Y-62561720D01*
X144025572Y-62569985D01*
X144001773Y-62575946D01*
X143977505Y-62579546D01*
X143953001Y-62580750D01*
X143302999Y-62580750D01*
X143278495Y-62579546D01*
X143254227Y-62575946D01*
X143230428Y-62569985D01*
X143207329Y-62561720D01*
X143185150Y-62551230D01*
X143164107Y-62538618D01*
X143144401Y-62524003D01*
X143126223Y-62507527D01*
X143109747Y-62489349D01*
X143095132Y-62469643D01*
X143082520Y-62448600D01*
X143072030Y-62426421D01*
X143063765Y-62403322D01*
X143057804Y-62379523D01*
X143054204Y-62355255D01*
X143053000Y-62330751D01*
X143053000Y-61430749D01*
X143054204Y-61406245D01*
X143057804Y-61381977D01*
X143063765Y-61358178D01*
X143072030Y-61335079D01*
X143082520Y-61312900D01*
X143095132Y-61291857D01*
X143109747Y-61272151D01*
X143126223Y-61253973D01*
X143144401Y-61237497D01*
X143164107Y-61222882D01*
X143185150Y-61210270D01*
X143207329Y-61199780D01*
X143230428Y-61191515D01*
X143254227Y-61185554D01*
X143278495Y-61181954D01*
X143302999Y-61180750D01*
X143953001Y-61180750D01*
X143977505Y-61181954D01*
G37*
G36*
X131378324Y-65476378D02*
G01*
X131402592Y-65479978D01*
X131426391Y-65485939D01*
X131449490Y-65494204D01*
X131471669Y-65504694D01*
X131492712Y-65517306D01*
X131512418Y-65531921D01*
X131530596Y-65548397D01*
X131990217Y-66008018D01*
X132006693Y-66026196D01*
X132021308Y-66045902D01*
X132033920Y-66066945D01*
X132044410Y-66089124D01*
X132052675Y-66112223D01*
X132058636Y-66136022D01*
X132062236Y-66160290D01*
X132063440Y-66184794D01*
X132062236Y-66209298D01*
X132058636Y-66233566D01*
X132052675Y-66257365D01*
X132044410Y-66280464D01*
X132033920Y-66302643D01*
X132021308Y-66323686D01*
X132006693Y-66343392D01*
X131990217Y-66361570D01*
X131353820Y-66997967D01*
X131335642Y-67014443D01*
X131315936Y-67029058D01*
X131294893Y-67041670D01*
X131272714Y-67052160D01*
X131249615Y-67060425D01*
X131225816Y-67066386D01*
X131201548Y-67069986D01*
X131177044Y-67071190D01*
X131152540Y-67069986D01*
X131128272Y-67066386D01*
X131104473Y-67060425D01*
X131081374Y-67052160D01*
X131059195Y-67041670D01*
X131038152Y-67029058D01*
X131018446Y-67014443D01*
X131000268Y-66997967D01*
X130540647Y-66538346D01*
X130524171Y-66520168D01*
X130509556Y-66500462D01*
X130496944Y-66479419D01*
X130486454Y-66457240D01*
X130478189Y-66434141D01*
X130472228Y-66410342D01*
X130468628Y-66386074D01*
X130467424Y-66361570D01*
X130468628Y-66337066D01*
X130472228Y-66312798D01*
X130478189Y-66288999D01*
X130486454Y-66265900D01*
X130496944Y-66243721D01*
X130509556Y-66222678D01*
X130524171Y-66202972D01*
X130540647Y-66184794D01*
X131177044Y-65548397D01*
X131195222Y-65531921D01*
X131214928Y-65517306D01*
X131235971Y-65504694D01*
X131258150Y-65494204D01*
X131281249Y-65485939D01*
X131305048Y-65479978D01*
X131329316Y-65476378D01*
X131353820Y-65475174D01*
X131378324Y-65476378D01*
G37*
G36*
X132827892Y-66925946D02*
G01*
X132852160Y-66929546D01*
X132875959Y-66935507D01*
X132899058Y-66943772D01*
X132921237Y-66954262D01*
X132942280Y-66966874D01*
X132961986Y-66981489D01*
X132980164Y-66997965D01*
X133439785Y-67457586D01*
X133456261Y-67475764D01*
X133470876Y-67495470D01*
X133483488Y-67516513D01*
X133493978Y-67538692D01*
X133502243Y-67561791D01*
X133508204Y-67585590D01*
X133511804Y-67609858D01*
X133513008Y-67634362D01*
X133511804Y-67658866D01*
X133508204Y-67683134D01*
X133502243Y-67706933D01*
X133493978Y-67730032D01*
X133483488Y-67752211D01*
X133470876Y-67773254D01*
X133456261Y-67792960D01*
X133439785Y-67811138D01*
X132803388Y-68447535D01*
X132785210Y-68464011D01*
X132765504Y-68478626D01*
X132744461Y-68491238D01*
X132722282Y-68501728D01*
X132699183Y-68509993D01*
X132675384Y-68515954D01*
X132651116Y-68519554D01*
X132626612Y-68520758D01*
X132602108Y-68519554D01*
X132577840Y-68515954D01*
X132554041Y-68509993D01*
X132530942Y-68501728D01*
X132508763Y-68491238D01*
X132487720Y-68478626D01*
X132468014Y-68464011D01*
X132449836Y-68447535D01*
X131990215Y-67987914D01*
X131973739Y-67969736D01*
X131959124Y-67950030D01*
X131946512Y-67928987D01*
X131936022Y-67906808D01*
X131927757Y-67883709D01*
X131921796Y-67859910D01*
X131918196Y-67835642D01*
X131916992Y-67811138D01*
X131918196Y-67786634D01*
X131921796Y-67762366D01*
X131927757Y-67738567D01*
X131936022Y-67715468D01*
X131946512Y-67693289D01*
X131959124Y-67672246D01*
X131973739Y-67652540D01*
X131990215Y-67634362D01*
X132626612Y-66997965D01*
X132644790Y-66981489D01*
X132664496Y-66966874D01*
X132685539Y-66954262D01*
X132707718Y-66943772D01*
X132730817Y-66935507D01*
X132754616Y-66929546D01*
X132778884Y-66925946D01*
X132803388Y-66924742D01*
X132827892Y-66925946D01*
G37*
G36*
X129436108Y-67344162D02*
G01*
X129460376Y-67347762D01*
X129484175Y-67353723D01*
X129507274Y-67361988D01*
X129529453Y-67372478D01*
X129550496Y-67385090D01*
X129570202Y-67399705D01*
X129588380Y-67416181D01*
X130048001Y-67875802D01*
X130064477Y-67893980D01*
X130079092Y-67913686D01*
X130091704Y-67934729D01*
X130102194Y-67956908D01*
X130110459Y-67980007D01*
X130116420Y-68003806D01*
X130120020Y-68028074D01*
X130121224Y-68052578D01*
X130120020Y-68077082D01*
X130116420Y-68101350D01*
X130110459Y-68125149D01*
X130102194Y-68148248D01*
X130091704Y-68170427D01*
X130079092Y-68191470D01*
X130064477Y-68211176D01*
X130048001Y-68229354D01*
X129411604Y-68865751D01*
X129393426Y-68882227D01*
X129373720Y-68896842D01*
X129352677Y-68909454D01*
X129330498Y-68919944D01*
X129307399Y-68928209D01*
X129283600Y-68934170D01*
X129259332Y-68937770D01*
X129234828Y-68938974D01*
X129210324Y-68937770D01*
X129186056Y-68934170D01*
X129162257Y-68928209D01*
X129139158Y-68919944D01*
X129116979Y-68909454D01*
X129095936Y-68896842D01*
X129076230Y-68882227D01*
X129058052Y-68865751D01*
X128598431Y-68406130D01*
X128581955Y-68387952D01*
X128567340Y-68368246D01*
X128554728Y-68347203D01*
X128544238Y-68325024D01*
X128535973Y-68301925D01*
X128530012Y-68278126D01*
X128526412Y-68253858D01*
X128525208Y-68229354D01*
X128526412Y-68204850D01*
X128530012Y-68180582D01*
X128535973Y-68156783D01*
X128544238Y-68133684D01*
X128554728Y-68111505D01*
X128567340Y-68090462D01*
X128581955Y-68070756D01*
X128598431Y-68052578D01*
X129234828Y-67416181D01*
X129253006Y-67399705D01*
X129272712Y-67385090D01*
X129293755Y-67372478D01*
X129315934Y-67361988D01*
X129339033Y-67353723D01*
X129362832Y-67347762D01*
X129387100Y-67344162D01*
X129411604Y-67342958D01*
X129436108Y-67344162D01*
G37*
G36*
X130885676Y-68793730D02*
G01*
X130909944Y-68797330D01*
X130933743Y-68803291D01*
X130956842Y-68811556D01*
X130979021Y-68822046D01*
X131000064Y-68834658D01*
X131019770Y-68849273D01*
X131037948Y-68865749D01*
X131497569Y-69325370D01*
X131514045Y-69343548D01*
X131528660Y-69363254D01*
X131541272Y-69384297D01*
X131551762Y-69406476D01*
X131560027Y-69429575D01*
X131565988Y-69453374D01*
X131569588Y-69477642D01*
X131570792Y-69502146D01*
X131569588Y-69526650D01*
X131565988Y-69550918D01*
X131560027Y-69574717D01*
X131551762Y-69597816D01*
X131541272Y-69619995D01*
X131528660Y-69641038D01*
X131514045Y-69660744D01*
X131497569Y-69678922D01*
X130861172Y-70315319D01*
X130842994Y-70331795D01*
X130823288Y-70346410D01*
X130802245Y-70359022D01*
X130780066Y-70369512D01*
X130756967Y-70377777D01*
X130733168Y-70383738D01*
X130708900Y-70387338D01*
X130684396Y-70388542D01*
X130659892Y-70387338D01*
X130635624Y-70383738D01*
X130611825Y-70377777D01*
X130588726Y-70369512D01*
X130566547Y-70359022D01*
X130545504Y-70346410D01*
X130525798Y-70331795D01*
X130507620Y-70315319D01*
X130047999Y-69855698D01*
X130031523Y-69837520D01*
X130016908Y-69817814D01*
X130004296Y-69796771D01*
X129993806Y-69774592D01*
X129985541Y-69751493D01*
X129979580Y-69727694D01*
X129975980Y-69703426D01*
X129974776Y-69678922D01*
X129975980Y-69654418D01*
X129979580Y-69630150D01*
X129985541Y-69606351D01*
X129993806Y-69583252D01*
X130004296Y-69561073D01*
X130016908Y-69540030D01*
X130031523Y-69520324D01*
X130047999Y-69502146D01*
X130684396Y-68865749D01*
X130702574Y-68849273D01*
X130722280Y-68834658D01*
X130743323Y-68822046D01*
X130765502Y-68811556D01*
X130788601Y-68803291D01*
X130812400Y-68797330D01*
X130836668Y-68793730D01*
X130861172Y-68792526D01*
X130885676Y-68793730D01*
G37*
G36*
X120228505Y-56641704D02*
G01*
X120252773Y-56645304D01*
X120276572Y-56651265D01*
X120299671Y-56659530D01*
X120321850Y-56670020D01*
X120342893Y-56682632D01*
X120362599Y-56697247D01*
X120380777Y-56713723D01*
X120397253Y-56731901D01*
X120411868Y-56751607D01*
X120424480Y-56772650D01*
X120434970Y-56794829D01*
X120443235Y-56817928D01*
X120449196Y-56841727D01*
X120452796Y-56865995D01*
X120454000Y-56890499D01*
X120454000Y-57790501D01*
X120452796Y-57815005D01*
X120449196Y-57839273D01*
X120443235Y-57863072D01*
X120434970Y-57886171D01*
X120424480Y-57908350D01*
X120411868Y-57929393D01*
X120397253Y-57949099D01*
X120380777Y-57967277D01*
X120362599Y-57983753D01*
X120342893Y-57998368D01*
X120321850Y-58010980D01*
X120299671Y-58021470D01*
X120276572Y-58029735D01*
X120252773Y-58035696D01*
X120228505Y-58039296D01*
X120204001Y-58040500D01*
X119553999Y-58040500D01*
X119529495Y-58039296D01*
X119505227Y-58035696D01*
X119481428Y-58029735D01*
X119458329Y-58021470D01*
X119436150Y-58010980D01*
X119415107Y-57998368D01*
X119395401Y-57983753D01*
X119377223Y-57967277D01*
X119360747Y-57949099D01*
X119346132Y-57929393D01*
X119333520Y-57908350D01*
X119323030Y-57886171D01*
X119314765Y-57863072D01*
X119308804Y-57839273D01*
X119305204Y-57815005D01*
X119304000Y-57790501D01*
X119304000Y-56890499D01*
X119305204Y-56865995D01*
X119308804Y-56841727D01*
X119314765Y-56817928D01*
X119323030Y-56794829D01*
X119333520Y-56772650D01*
X119346132Y-56751607D01*
X119360747Y-56731901D01*
X119377223Y-56713723D01*
X119395401Y-56697247D01*
X119415107Y-56682632D01*
X119436150Y-56670020D01*
X119458329Y-56659530D01*
X119481428Y-56651265D01*
X119505227Y-56645304D01*
X119529495Y-56641704D01*
X119553999Y-56640500D01*
X120204001Y-56640500D01*
X120228505Y-56641704D01*
G37*
G36*
X122278505Y-56641704D02*
G01*
X122302773Y-56645304D01*
X122326572Y-56651265D01*
X122349671Y-56659530D01*
X122371850Y-56670020D01*
X122392893Y-56682632D01*
X122412599Y-56697247D01*
X122430777Y-56713723D01*
X122447253Y-56731901D01*
X122461868Y-56751607D01*
X122474480Y-56772650D01*
X122484970Y-56794829D01*
X122493235Y-56817928D01*
X122499196Y-56841727D01*
X122502796Y-56865995D01*
X122504000Y-56890499D01*
X122504000Y-57790501D01*
X122502796Y-57815005D01*
X122499196Y-57839273D01*
X122493235Y-57863072D01*
X122484970Y-57886171D01*
X122474480Y-57908350D01*
X122461868Y-57929393D01*
X122447253Y-57949099D01*
X122430777Y-57967277D01*
X122412599Y-57983753D01*
X122392893Y-57998368D01*
X122371850Y-58010980D01*
X122349671Y-58021470D01*
X122326572Y-58029735D01*
X122302773Y-58035696D01*
X122278505Y-58039296D01*
X122254001Y-58040500D01*
X121603999Y-58040500D01*
X121579495Y-58039296D01*
X121555227Y-58035696D01*
X121531428Y-58029735D01*
X121508329Y-58021470D01*
X121486150Y-58010980D01*
X121465107Y-57998368D01*
X121445401Y-57983753D01*
X121427223Y-57967277D01*
X121410747Y-57949099D01*
X121396132Y-57929393D01*
X121383520Y-57908350D01*
X121373030Y-57886171D01*
X121364765Y-57863072D01*
X121358804Y-57839273D01*
X121355204Y-57815005D01*
X121354000Y-57790501D01*
X121354000Y-56890499D01*
X121355204Y-56865995D01*
X121358804Y-56841727D01*
X121364765Y-56817928D01*
X121373030Y-56794829D01*
X121383520Y-56772650D01*
X121396132Y-56751607D01*
X121410747Y-56731901D01*
X121427223Y-56713723D01*
X121445401Y-56697247D01*
X121465107Y-56682632D01*
X121486150Y-56670020D01*
X121508329Y-56659530D01*
X121531428Y-56651265D01*
X121555227Y-56645304D01*
X121579495Y-56641704D01*
X121603999Y-56640500D01*
X122254001Y-56640500D01*
X122278505Y-56641704D01*
G37*
G36*
X133391005Y-56641704D02*
G01*
X133415273Y-56645304D01*
X133439072Y-56651265D01*
X133462171Y-56659530D01*
X133484350Y-56670020D01*
X133505393Y-56682632D01*
X133525099Y-56697247D01*
X133543277Y-56713723D01*
X133559753Y-56731901D01*
X133574368Y-56751607D01*
X133586980Y-56772650D01*
X133597470Y-56794829D01*
X133605735Y-56817928D01*
X133611696Y-56841727D01*
X133615296Y-56865995D01*
X133616500Y-56890499D01*
X133616500Y-57790501D01*
X133615296Y-57815005D01*
X133611696Y-57839273D01*
X133605735Y-57863072D01*
X133597470Y-57886171D01*
X133586980Y-57908350D01*
X133574368Y-57929393D01*
X133559753Y-57949099D01*
X133543277Y-57967277D01*
X133525099Y-57983753D01*
X133505393Y-57998368D01*
X133484350Y-58010980D01*
X133462171Y-58021470D01*
X133439072Y-58029735D01*
X133415273Y-58035696D01*
X133391005Y-58039296D01*
X133366501Y-58040500D01*
X132716499Y-58040500D01*
X132691995Y-58039296D01*
X132667727Y-58035696D01*
X132643928Y-58029735D01*
X132620829Y-58021470D01*
X132598650Y-58010980D01*
X132577607Y-57998368D01*
X132557901Y-57983753D01*
X132539723Y-57967277D01*
X132523247Y-57949099D01*
X132508632Y-57929393D01*
X132496020Y-57908350D01*
X132485530Y-57886171D01*
X132477265Y-57863072D01*
X132471304Y-57839273D01*
X132467704Y-57815005D01*
X132466500Y-57790501D01*
X132466500Y-56890499D01*
X132467704Y-56865995D01*
X132471304Y-56841727D01*
X132477265Y-56817928D01*
X132485530Y-56794829D01*
X132496020Y-56772650D01*
X132508632Y-56751607D01*
X132523247Y-56731901D01*
X132539723Y-56713723D01*
X132557901Y-56697247D01*
X132577607Y-56682632D01*
X132598650Y-56670020D01*
X132620829Y-56659530D01*
X132643928Y-56651265D01*
X132667727Y-56645304D01*
X132691995Y-56641704D01*
X132716499Y-56640500D01*
X133366501Y-56640500D01*
X133391005Y-56641704D01*
G37*
G36*
X131341005Y-56641704D02*
G01*
X131365273Y-56645304D01*
X131389072Y-56651265D01*
X131412171Y-56659530D01*
X131434350Y-56670020D01*
X131455393Y-56682632D01*
X131475099Y-56697247D01*
X131493277Y-56713723D01*
X131509753Y-56731901D01*
X131524368Y-56751607D01*
X131536980Y-56772650D01*
X131547470Y-56794829D01*
X131555735Y-56817928D01*
X131561696Y-56841727D01*
X131565296Y-56865995D01*
X131566500Y-56890499D01*
X131566500Y-57790501D01*
X131565296Y-57815005D01*
X131561696Y-57839273D01*
X131555735Y-57863072D01*
X131547470Y-57886171D01*
X131536980Y-57908350D01*
X131524368Y-57929393D01*
X131509753Y-57949099D01*
X131493277Y-57967277D01*
X131475099Y-57983753D01*
X131455393Y-57998368D01*
X131434350Y-58010980D01*
X131412171Y-58021470D01*
X131389072Y-58029735D01*
X131365273Y-58035696D01*
X131341005Y-58039296D01*
X131316501Y-58040500D01*
X130666499Y-58040500D01*
X130641995Y-58039296D01*
X130617727Y-58035696D01*
X130593928Y-58029735D01*
X130570829Y-58021470D01*
X130548650Y-58010980D01*
X130527607Y-57998368D01*
X130507901Y-57983753D01*
X130489723Y-57967277D01*
X130473247Y-57949099D01*
X130458632Y-57929393D01*
X130446020Y-57908350D01*
X130435530Y-57886171D01*
X130427265Y-57863072D01*
X130421304Y-57839273D01*
X130417704Y-57815005D01*
X130416500Y-57790501D01*
X130416500Y-56890499D01*
X130417704Y-56865995D01*
X130421304Y-56841727D01*
X130427265Y-56817928D01*
X130435530Y-56794829D01*
X130446020Y-56772650D01*
X130458632Y-56751607D01*
X130473247Y-56731901D01*
X130489723Y-56713723D01*
X130507901Y-56697247D01*
X130527607Y-56682632D01*
X130548650Y-56670020D01*
X130570829Y-56659530D01*
X130593928Y-56651265D01*
X130617727Y-56645304D01*
X130641995Y-56641704D01*
X130666499Y-56640500D01*
X131316501Y-56640500D01*
X131341005Y-56641704D01*
G37*
G36*
X121680504Y-61586954D02*
G01*
X121704773Y-61590554D01*
X121728571Y-61596515D01*
X121751671Y-61604780D01*
X121773849Y-61615270D01*
X121794893Y-61627883D01*
X121814598Y-61642497D01*
X121832777Y-61658973D01*
X121849253Y-61677152D01*
X121863867Y-61696857D01*
X121876480Y-61717901D01*
X121886970Y-61740079D01*
X121895235Y-61763179D01*
X121901196Y-61786977D01*
X121904796Y-61811246D01*
X121906000Y-61835750D01*
X121906000Y-62760750D01*
X121904796Y-62785254D01*
X121901196Y-62809523D01*
X121895235Y-62833321D01*
X121886970Y-62856421D01*
X121876480Y-62878599D01*
X121863867Y-62899643D01*
X121849253Y-62919348D01*
X121832777Y-62937527D01*
X121814598Y-62954003D01*
X121794893Y-62968617D01*
X121773849Y-62981230D01*
X121751671Y-62991720D01*
X121728571Y-62999985D01*
X121704773Y-63005946D01*
X121680504Y-63009546D01*
X121656000Y-63010750D01*
X120406000Y-63010750D01*
X120381496Y-63009546D01*
X120357227Y-63005946D01*
X120333429Y-62999985D01*
X120310329Y-62991720D01*
X120288151Y-62981230D01*
X120267107Y-62968617D01*
X120247402Y-62954003D01*
X120229223Y-62937527D01*
X120212747Y-62919348D01*
X120198133Y-62899643D01*
X120185520Y-62878599D01*
X120175030Y-62856421D01*
X120166765Y-62833321D01*
X120160804Y-62809523D01*
X120157204Y-62785254D01*
X120156000Y-62760750D01*
X120156000Y-61835750D01*
X120157204Y-61811246D01*
X120160804Y-61786977D01*
X120166765Y-61763179D01*
X120175030Y-61740079D01*
X120185520Y-61717901D01*
X120198133Y-61696857D01*
X120212747Y-61677152D01*
X120229223Y-61658973D01*
X120247402Y-61642497D01*
X120267107Y-61627883D01*
X120288151Y-61615270D01*
X120310329Y-61604780D01*
X120333429Y-61596515D01*
X120357227Y-61590554D01*
X120381496Y-61586954D01*
X120406000Y-61585750D01*
X121656000Y-61585750D01*
X121680504Y-61586954D01*
G37*
G36*
X121680504Y-64561954D02*
G01*
X121704773Y-64565554D01*
X121728571Y-64571515D01*
X121751671Y-64579780D01*
X121773849Y-64590270D01*
X121794893Y-64602883D01*
X121814598Y-64617497D01*
X121832777Y-64633973D01*
X121849253Y-64652152D01*
X121863867Y-64671857D01*
X121876480Y-64692901D01*
X121886970Y-64715079D01*
X121895235Y-64738179D01*
X121901196Y-64761977D01*
X121904796Y-64786246D01*
X121906000Y-64810750D01*
X121906000Y-65735750D01*
X121904796Y-65760254D01*
X121901196Y-65784523D01*
X121895235Y-65808321D01*
X121886970Y-65831421D01*
X121876480Y-65853599D01*
X121863867Y-65874643D01*
X121849253Y-65894348D01*
X121832777Y-65912527D01*
X121814598Y-65929003D01*
X121794893Y-65943617D01*
X121773849Y-65956230D01*
X121751671Y-65966720D01*
X121728571Y-65974985D01*
X121704773Y-65980946D01*
X121680504Y-65984546D01*
X121656000Y-65985750D01*
X120406000Y-65985750D01*
X120381496Y-65984546D01*
X120357227Y-65980946D01*
X120333429Y-65974985D01*
X120310329Y-65966720D01*
X120288151Y-65956230D01*
X120267107Y-65943617D01*
X120247402Y-65929003D01*
X120229223Y-65912527D01*
X120212747Y-65894348D01*
X120198133Y-65874643D01*
X120185520Y-65853599D01*
X120175030Y-65831421D01*
X120166765Y-65808321D01*
X120160804Y-65784523D01*
X120157204Y-65760254D01*
X120156000Y-65735750D01*
X120156000Y-64810750D01*
X120157204Y-64786246D01*
X120160804Y-64761977D01*
X120166765Y-64738179D01*
X120175030Y-64715079D01*
X120185520Y-64692901D01*
X120198133Y-64671857D01*
X120212747Y-64652152D01*
X120229223Y-64633973D01*
X120247402Y-64617497D01*
X120267107Y-64602883D01*
X120288151Y-64590270D01*
X120310329Y-64579780D01*
X120333429Y-64571515D01*
X120357227Y-64565554D01*
X120381496Y-64561954D01*
X120406000Y-64560750D01*
X121656000Y-64560750D01*
X121680504Y-64561954D01*
G37*
G36*
X136461116Y-67306946D02*
G01*
X136485384Y-67310546D01*
X136509183Y-67316507D01*
X136532282Y-67324772D01*
X136554461Y-67335262D01*
X136575504Y-67347874D01*
X136595210Y-67362489D01*
X136613388Y-67378965D01*
X137249785Y-68015362D01*
X137266261Y-68033540D01*
X137280876Y-68053246D01*
X137293488Y-68074289D01*
X137303978Y-68096468D01*
X137312243Y-68119567D01*
X137318204Y-68143366D01*
X137321804Y-68167634D01*
X137323008Y-68192138D01*
X137321804Y-68216642D01*
X137318204Y-68240910D01*
X137312243Y-68264709D01*
X137303978Y-68287808D01*
X137293488Y-68309987D01*
X137280876Y-68331030D01*
X137266261Y-68350736D01*
X137249785Y-68368914D01*
X136790164Y-68828535D01*
X136771986Y-68845011D01*
X136752280Y-68859626D01*
X136731237Y-68872238D01*
X136709058Y-68882728D01*
X136685959Y-68890993D01*
X136662160Y-68896954D01*
X136637892Y-68900554D01*
X136613388Y-68901758D01*
X136588884Y-68900554D01*
X136564616Y-68896954D01*
X136540817Y-68890993D01*
X136517718Y-68882728D01*
X136495539Y-68872238D01*
X136474496Y-68859626D01*
X136454790Y-68845011D01*
X136436612Y-68828535D01*
X135800215Y-68192138D01*
X135783739Y-68173960D01*
X135769124Y-68154254D01*
X135756512Y-68133211D01*
X135746022Y-68111032D01*
X135737757Y-68087933D01*
X135731796Y-68064134D01*
X135728196Y-68039866D01*
X135726992Y-68015362D01*
X135728196Y-67990858D01*
X135731796Y-67966590D01*
X135737757Y-67942791D01*
X135746022Y-67919692D01*
X135756512Y-67897513D01*
X135769124Y-67876470D01*
X135783739Y-67856764D01*
X135800215Y-67838586D01*
X136259836Y-67378965D01*
X136278014Y-67362489D01*
X136297720Y-67347874D01*
X136318763Y-67335262D01*
X136340942Y-67324772D01*
X136364041Y-67316507D01*
X136387840Y-67310546D01*
X136412108Y-67306946D01*
X136436612Y-67305742D01*
X136461116Y-67306946D01*
G37*
G36*
X135011548Y-68756514D02*
G01*
X135035816Y-68760114D01*
X135059615Y-68766075D01*
X135082714Y-68774340D01*
X135104893Y-68784830D01*
X135125936Y-68797442D01*
X135145642Y-68812057D01*
X135163820Y-68828533D01*
X135800217Y-69464930D01*
X135816693Y-69483108D01*
X135831308Y-69502814D01*
X135843920Y-69523857D01*
X135854410Y-69546036D01*
X135862675Y-69569135D01*
X135868636Y-69592934D01*
X135872236Y-69617202D01*
X135873440Y-69641706D01*
X135872236Y-69666210D01*
X135868636Y-69690478D01*
X135862675Y-69714277D01*
X135854410Y-69737376D01*
X135843920Y-69759555D01*
X135831308Y-69780598D01*
X135816693Y-69800304D01*
X135800217Y-69818482D01*
X135340596Y-70278103D01*
X135322418Y-70294579D01*
X135302712Y-70309194D01*
X135281669Y-70321806D01*
X135259490Y-70332296D01*
X135236391Y-70340561D01*
X135212592Y-70346522D01*
X135188324Y-70350122D01*
X135163820Y-70351326D01*
X135139316Y-70350122D01*
X135115048Y-70346522D01*
X135091249Y-70340561D01*
X135068150Y-70332296D01*
X135045971Y-70321806D01*
X135024928Y-70309194D01*
X135005222Y-70294579D01*
X134987044Y-70278103D01*
X134350647Y-69641706D01*
X134334171Y-69623528D01*
X134319556Y-69603822D01*
X134306944Y-69582779D01*
X134296454Y-69560600D01*
X134288189Y-69537501D01*
X134282228Y-69513702D01*
X134278628Y-69489434D01*
X134277424Y-69464930D01*
X134278628Y-69440426D01*
X134282228Y-69416158D01*
X134288189Y-69392359D01*
X134296454Y-69369260D01*
X134306944Y-69347081D01*
X134319556Y-69326038D01*
X134334171Y-69306332D01*
X134350647Y-69288154D01*
X134810268Y-68828533D01*
X134828446Y-68812057D01*
X134848152Y-68797442D01*
X134869195Y-68784830D01*
X134891374Y-68774340D01*
X134914473Y-68766075D01*
X134938272Y-68760114D01*
X134962540Y-68756514D01*
X134987044Y-68755310D01*
X135011548Y-68756514D01*
G37*
G36*
X155888582Y-60602281D02*
G01*
X155912850Y-60605881D01*
X155936649Y-60611842D01*
X155959748Y-60620107D01*
X155981927Y-60630597D01*
X156002970Y-60643209D01*
X156022676Y-60657824D01*
X156040854Y-60674300D01*
X156677251Y-61310697D01*
X156693727Y-61328875D01*
X156708342Y-61348581D01*
X156720954Y-61369624D01*
X156731444Y-61391803D01*
X156739709Y-61414902D01*
X156745670Y-61438701D01*
X156749270Y-61462969D01*
X156750474Y-61487473D01*
X156749270Y-61511977D01*
X156745670Y-61536245D01*
X156739709Y-61560044D01*
X156731444Y-61583143D01*
X156720954Y-61605322D01*
X156708342Y-61626365D01*
X156693727Y-61646071D01*
X156677251Y-61664249D01*
X156217630Y-62123870D01*
X156199452Y-62140346D01*
X156179746Y-62154961D01*
X156158703Y-62167573D01*
X156136524Y-62178063D01*
X156113425Y-62186328D01*
X156089626Y-62192289D01*
X156065358Y-62195889D01*
X156040854Y-62197093D01*
X156016350Y-62195889D01*
X155992082Y-62192289D01*
X155968283Y-62186328D01*
X155945184Y-62178063D01*
X155923005Y-62167573D01*
X155901962Y-62154961D01*
X155882256Y-62140346D01*
X155864078Y-62123870D01*
X155227681Y-61487473D01*
X155211205Y-61469295D01*
X155196590Y-61449589D01*
X155183978Y-61428546D01*
X155173488Y-61406367D01*
X155165223Y-61383268D01*
X155159262Y-61359469D01*
X155155662Y-61335201D01*
X155154458Y-61310697D01*
X155155662Y-61286193D01*
X155159262Y-61261925D01*
X155165223Y-61238126D01*
X155173488Y-61215027D01*
X155183978Y-61192848D01*
X155196590Y-61171805D01*
X155211205Y-61152099D01*
X155227681Y-61133921D01*
X155687302Y-60674300D01*
X155705480Y-60657824D01*
X155725186Y-60643209D01*
X155746229Y-60630597D01*
X155768408Y-60620107D01*
X155791507Y-60611842D01*
X155815306Y-60605881D01*
X155839574Y-60602281D01*
X155864078Y-60601077D01*
X155888582Y-60602281D01*
G37*
G36*
X154439014Y-62051849D02*
G01*
X154463282Y-62055449D01*
X154487081Y-62061410D01*
X154510180Y-62069675D01*
X154532359Y-62080165D01*
X154553402Y-62092777D01*
X154573108Y-62107392D01*
X154591286Y-62123868D01*
X155227683Y-62760265D01*
X155244159Y-62778443D01*
X155258774Y-62798149D01*
X155271386Y-62819192D01*
X155281876Y-62841371D01*
X155290141Y-62864470D01*
X155296102Y-62888269D01*
X155299702Y-62912537D01*
X155300906Y-62937041D01*
X155299702Y-62961545D01*
X155296102Y-62985813D01*
X155290141Y-63009612D01*
X155281876Y-63032711D01*
X155271386Y-63054890D01*
X155258774Y-63075933D01*
X155244159Y-63095639D01*
X155227683Y-63113817D01*
X154768062Y-63573438D01*
X154749884Y-63589914D01*
X154730178Y-63604529D01*
X154709135Y-63617141D01*
X154686956Y-63627631D01*
X154663857Y-63635896D01*
X154640058Y-63641857D01*
X154615790Y-63645457D01*
X154591286Y-63646661D01*
X154566782Y-63645457D01*
X154542514Y-63641857D01*
X154518715Y-63635896D01*
X154495616Y-63627631D01*
X154473437Y-63617141D01*
X154452394Y-63604529D01*
X154432688Y-63589914D01*
X154414510Y-63573438D01*
X153778113Y-62937041D01*
X153761637Y-62918863D01*
X153747022Y-62899157D01*
X153734410Y-62878114D01*
X153723920Y-62855935D01*
X153715655Y-62832836D01*
X153709694Y-62809037D01*
X153706094Y-62784769D01*
X153704890Y-62760265D01*
X153706094Y-62735761D01*
X153709694Y-62711493D01*
X153715655Y-62687694D01*
X153723920Y-62664595D01*
X153734410Y-62642416D01*
X153747022Y-62621373D01*
X153761637Y-62601667D01*
X153778113Y-62583489D01*
X154237734Y-62123868D01*
X154255912Y-62107392D01*
X154275618Y-62092777D01*
X154296661Y-62080165D01*
X154318840Y-62069675D01*
X154341939Y-62061410D01*
X154365738Y-62055449D01*
X154390006Y-62051849D01*
X154414510Y-62050645D01*
X154439014Y-62051849D01*
G37*
G36*
X158217085Y-62943512D02*
G01*
X158241353Y-62947112D01*
X158265152Y-62953073D01*
X158288251Y-62961338D01*
X158310430Y-62971828D01*
X158331473Y-62984440D01*
X158351179Y-62999055D01*
X158369357Y-63015531D01*
X159005754Y-63651928D01*
X159022230Y-63670106D01*
X159036845Y-63689812D01*
X159049457Y-63710855D01*
X159059947Y-63733034D01*
X159068212Y-63756133D01*
X159074173Y-63779932D01*
X159077773Y-63804200D01*
X159078977Y-63828704D01*
X159077773Y-63853208D01*
X159074173Y-63877476D01*
X159068212Y-63901275D01*
X159059947Y-63924374D01*
X159049457Y-63946553D01*
X159036845Y-63967596D01*
X159022230Y-63987302D01*
X159005754Y-64005480D01*
X158546133Y-64465101D01*
X158527955Y-64481577D01*
X158508249Y-64496192D01*
X158487206Y-64508804D01*
X158465027Y-64519294D01*
X158441928Y-64527559D01*
X158418129Y-64533520D01*
X158393861Y-64537120D01*
X158369357Y-64538324D01*
X158344853Y-64537120D01*
X158320585Y-64533520D01*
X158296786Y-64527559D01*
X158273687Y-64519294D01*
X158251508Y-64508804D01*
X158230465Y-64496192D01*
X158210759Y-64481577D01*
X158192581Y-64465101D01*
X157556184Y-63828704D01*
X157539708Y-63810526D01*
X157525093Y-63790820D01*
X157512481Y-63769777D01*
X157501991Y-63747598D01*
X157493726Y-63724499D01*
X157487765Y-63700700D01*
X157484165Y-63676432D01*
X157482961Y-63651928D01*
X157484165Y-63627424D01*
X157487765Y-63603156D01*
X157493726Y-63579357D01*
X157501991Y-63556258D01*
X157512481Y-63534079D01*
X157525093Y-63513036D01*
X157539708Y-63493330D01*
X157556184Y-63475152D01*
X158015805Y-63015531D01*
X158033983Y-62999055D01*
X158053689Y-62984440D01*
X158074732Y-62971828D01*
X158096911Y-62961338D01*
X158120010Y-62953073D01*
X158143809Y-62947112D01*
X158168077Y-62943512D01*
X158192581Y-62942308D01*
X158217085Y-62943512D01*
G37*
G36*
X156767517Y-64393080D02*
G01*
X156791785Y-64396680D01*
X156815584Y-64402641D01*
X156838683Y-64410906D01*
X156860862Y-64421396D01*
X156881905Y-64434008D01*
X156901611Y-64448623D01*
X156919789Y-64465099D01*
X157556186Y-65101496D01*
X157572662Y-65119674D01*
X157587277Y-65139380D01*
X157599889Y-65160423D01*
X157610379Y-65182602D01*
X157618644Y-65205701D01*
X157624605Y-65229500D01*
X157628205Y-65253768D01*
X157629409Y-65278272D01*
X157628205Y-65302776D01*
X157624605Y-65327044D01*
X157618644Y-65350843D01*
X157610379Y-65373942D01*
X157599889Y-65396121D01*
X157587277Y-65417164D01*
X157572662Y-65436870D01*
X157556186Y-65455048D01*
X157096565Y-65914669D01*
X157078387Y-65931145D01*
X157058681Y-65945760D01*
X157037638Y-65958372D01*
X157015459Y-65968862D01*
X156992360Y-65977127D01*
X156968561Y-65983088D01*
X156944293Y-65986688D01*
X156919789Y-65987892D01*
X156895285Y-65986688D01*
X156871017Y-65983088D01*
X156847218Y-65977127D01*
X156824119Y-65968862D01*
X156801940Y-65958372D01*
X156780897Y-65945760D01*
X156761191Y-65931145D01*
X156743013Y-65914669D01*
X156106616Y-65278272D01*
X156090140Y-65260094D01*
X156075525Y-65240388D01*
X156062913Y-65219345D01*
X156052423Y-65197166D01*
X156044158Y-65174067D01*
X156038197Y-65150268D01*
X156034597Y-65126000D01*
X156033393Y-65101496D01*
X156034597Y-65076992D01*
X156038197Y-65052724D01*
X156044158Y-65028925D01*
X156052423Y-65005826D01*
X156062913Y-64983647D01*
X156075525Y-64962604D01*
X156090140Y-64942898D01*
X156106616Y-64924720D01*
X156566237Y-64465099D01*
X156584415Y-64448623D01*
X156604121Y-64434008D01*
X156625164Y-64421396D01*
X156647343Y-64410906D01*
X156670442Y-64402641D01*
X156694241Y-64396680D01*
X156718509Y-64393080D01*
X156743013Y-64391876D01*
X156767517Y-64393080D01*
G37*
G36*
X134314676Y-77429730D02*
G01*
X134338944Y-77433330D01*
X134362743Y-77439291D01*
X134385842Y-77447556D01*
X134408021Y-77458046D01*
X134429064Y-77470658D01*
X134448770Y-77485273D01*
X134466948Y-77501749D01*
X134926569Y-77961370D01*
X134943045Y-77979548D01*
X134957660Y-77999254D01*
X134970272Y-78020297D01*
X134980762Y-78042476D01*
X134989027Y-78065575D01*
X134994988Y-78089374D01*
X134998588Y-78113642D01*
X134999792Y-78138146D01*
X134998588Y-78162650D01*
X134994988Y-78186918D01*
X134989027Y-78210717D01*
X134980762Y-78233816D01*
X134970272Y-78255995D01*
X134957660Y-78277038D01*
X134943045Y-78296744D01*
X134926569Y-78314922D01*
X134290172Y-78951319D01*
X134271994Y-78967795D01*
X134252288Y-78982410D01*
X134231245Y-78995022D01*
X134209066Y-79005512D01*
X134185967Y-79013777D01*
X134162168Y-79019738D01*
X134137900Y-79023338D01*
X134113396Y-79024542D01*
X134088892Y-79023338D01*
X134064624Y-79019738D01*
X134040825Y-79013777D01*
X134017726Y-79005512D01*
X133995547Y-78995022D01*
X133974504Y-78982410D01*
X133954798Y-78967795D01*
X133936620Y-78951319D01*
X133476999Y-78491698D01*
X133460523Y-78473520D01*
X133445908Y-78453814D01*
X133433296Y-78432771D01*
X133422806Y-78410592D01*
X133414541Y-78387493D01*
X133408580Y-78363694D01*
X133404980Y-78339426D01*
X133403776Y-78314922D01*
X133404980Y-78290418D01*
X133408580Y-78266150D01*
X133414541Y-78242351D01*
X133422806Y-78219252D01*
X133433296Y-78197073D01*
X133445908Y-78176030D01*
X133460523Y-78156324D01*
X133476999Y-78138146D01*
X134113396Y-77501749D01*
X134131574Y-77485273D01*
X134151280Y-77470658D01*
X134172323Y-77458046D01*
X134194502Y-77447556D01*
X134217601Y-77439291D01*
X134241400Y-77433330D01*
X134265668Y-77429730D01*
X134290172Y-77428526D01*
X134314676Y-77429730D01*
G37*
G36*
X132865108Y-75980162D02*
G01*
X132889376Y-75983762D01*
X132913175Y-75989723D01*
X132936274Y-75997988D01*
X132958453Y-76008478D01*
X132979496Y-76021090D01*
X132999202Y-76035705D01*
X133017380Y-76052181D01*
X133477001Y-76511802D01*
X133493477Y-76529980D01*
X133508092Y-76549686D01*
X133520704Y-76570729D01*
X133531194Y-76592908D01*
X133539459Y-76616007D01*
X133545420Y-76639806D01*
X133549020Y-76664074D01*
X133550224Y-76688578D01*
X133549020Y-76713082D01*
X133545420Y-76737350D01*
X133539459Y-76761149D01*
X133531194Y-76784248D01*
X133520704Y-76806427D01*
X133508092Y-76827470D01*
X133493477Y-76847176D01*
X133477001Y-76865354D01*
X132840604Y-77501751D01*
X132822426Y-77518227D01*
X132802720Y-77532842D01*
X132781677Y-77545454D01*
X132759498Y-77555944D01*
X132736399Y-77564209D01*
X132712600Y-77570170D01*
X132688332Y-77573770D01*
X132663828Y-77574974D01*
X132639324Y-77573770D01*
X132615056Y-77570170D01*
X132591257Y-77564209D01*
X132568158Y-77555944D01*
X132545979Y-77545454D01*
X132524936Y-77532842D01*
X132505230Y-77518227D01*
X132487052Y-77501751D01*
X132027431Y-77042130D01*
X132010955Y-77023952D01*
X131996340Y-77004246D01*
X131983728Y-76983203D01*
X131973238Y-76961024D01*
X131964973Y-76937925D01*
X131959012Y-76914126D01*
X131955412Y-76889858D01*
X131954208Y-76865354D01*
X131955412Y-76840850D01*
X131959012Y-76816582D01*
X131964973Y-76792783D01*
X131973238Y-76769684D01*
X131983728Y-76747505D01*
X131996340Y-76726462D01*
X132010955Y-76706756D01*
X132027431Y-76688578D01*
X132663828Y-76052181D01*
X132682006Y-76035705D01*
X132701712Y-76021090D01*
X132722755Y-76008478D01*
X132744934Y-75997988D01*
X132768033Y-75989723D01*
X132791832Y-75983762D01*
X132816100Y-75980162D01*
X132840604Y-75978958D01*
X132865108Y-75980162D01*
G37*
G36*
X153441900Y-76615162D02*
G01*
X153466168Y-76618762D01*
X153489967Y-76624723D01*
X153513066Y-76632988D01*
X153535245Y-76643478D01*
X153556288Y-76656090D01*
X153575994Y-76670705D01*
X153594172Y-76687181D01*
X154230569Y-77323578D01*
X154247045Y-77341756D01*
X154261660Y-77361462D01*
X154274272Y-77382505D01*
X154284762Y-77404684D01*
X154293027Y-77427783D01*
X154298988Y-77451582D01*
X154302588Y-77475850D01*
X154303792Y-77500354D01*
X154302588Y-77524858D01*
X154298988Y-77549126D01*
X154293027Y-77572925D01*
X154284762Y-77596024D01*
X154274272Y-77618203D01*
X154261660Y-77639246D01*
X154247045Y-77658952D01*
X154230569Y-77677130D01*
X153770948Y-78136751D01*
X153752770Y-78153227D01*
X153733064Y-78167842D01*
X153712021Y-78180454D01*
X153689842Y-78190944D01*
X153666743Y-78199209D01*
X153642944Y-78205170D01*
X153618676Y-78208770D01*
X153594172Y-78209974D01*
X153569668Y-78208770D01*
X153545400Y-78205170D01*
X153521601Y-78199209D01*
X153498502Y-78190944D01*
X153476323Y-78180454D01*
X153455280Y-78167842D01*
X153435574Y-78153227D01*
X153417396Y-78136751D01*
X152780999Y-77500354D01*
X152764523Y-77482176D01*
X152749908Y-77462470D01*
X152737296Y-77441427D01*
X152726806Y-77419248D01*
X152718541Y-77396149D01*
X152712580Y-77372350D01*
X152708980Y-77348082D01*
X152707776Y-77323578D01*
X152708980Y-77299074D01*
X152712580Y-77274806D01*
X152718541Y-77251007D01*
X152726806Y-77227908D01*
X152737296Y-77205729D01*
X152749908Y-77184686D01*
X152764523Y-77164980D01*
X152780999Y-77146802D01*
X153240620Y-76687181D01*
X153258798Y-76670705D01*
X153278504Y-76656090D01*
X153299547Y-76643478D01*
X153321726Y-76632988D01*
X153344825Y-76624723D01*
X153368624Y-76618762D01*
X153392892Y-76615162D01*
X153417396Y-76613958D01*
X153441900Y-76615162D01*
G37*
G36*
X151992332Y-78064730D02*
G01*
X152016600Y-78068330D01*
X152040399Y-78074291D01*
X152063498Y-78082556D01*
X152085677Y-78093046D01*
X152106720Y-78105658D01*
X152126426Y-78120273D01*
X152144604Y-78136749D01*
X152781001Y-78773146D01*
X152797477Y-78791324D01*
X152812092Y-78811030D01*
X152824704Y-78832073D01*
X152835194Y-78854252D01*
X152843459Y-78877351D01*
X152849420Y-78901150D01*
X152853020Y-78925418D01*
X152854224Y-78949922D01*
X152853020Y-78974426D01*
X152849420Y-78998694D01*
X152843459Y-79022493D01*
X152835194Y-79045592D01*
X152824704Y-79067771D01*
X152812092Y-79088814D01*
X152797477Y-79108520D01*
X152781001Y-79126698D01*
X152321380Y-79586319D01*
X152303202Y-79602795D01*
X152283496Y-79617410D01*
X152262453Y-79630022D01*
X152240274Y-79640512D01*
X152217175Y-79648777D01*
X152193376Y-79654738D01*
X152169108Y-79658338D01*
X152144604Y-79659542D01*
X152120100Y-79658338D01*
X152095832Y-79654738D01*
X152072033Y-79648777D01*
X152048934Y-79640512D01*
X152026755Y-79630022D01*
X152005712Y-79617410D01*
X151986006Y-79602795D01*
X151967828Y-79586319D01*
X151331431Y-78949922D01*
X151314955Y-78931744D01*
X151300340Y-78912038D01*
X151287728Y-78890995D01*
X151277238Y-78868816D01*
X151268973Y-78845717D01*
X151263012Y-78821918D01*
X151259412Y-78797650D01*
X151258208Y-78773146D01*
X151259412Y-78748642D01*
X151263012Y-78724374D01*
X151268973Y-78700575D01*
X151277238Y-78677476D01*
X151287728Y-78655297D01*
X151300340Y-78634254D01*
X151314955Y-78614548D01*
X151331431Y-78596370D01*
X151791052Y-78136749D01*
X151809230Y-78120273D01*
X151828936Y-78105658D01*
X151849979Y-78093046D01*
X151872158Y-78082556D01*
X151895257Y-78074291D01*
X151919056Y-78068330D01*
X151943324Y-78064730D01*
X151967828Y-78063526D01*
X151992332Y-78064730D01*
G37*
G36*
X138236324Y-64968378D02*
G01*
X138260592Y-64971978D01*
X138284391Y-64977939D01*
X138307490Y-64986204D01*
X138329669Y-64996694D01*
X138350712Y-65009306D01*
X138370418Y-65023921D01*
X138388596Y-65040397D01*
X138848217Y-65500018D01*
X138864693Y-65518196D01*
X138879308Y-65537902D01*
X138891920Y-65558945D01*
X138902410Y-65581124D01*
X138910675Y-65604223D01*
X138916636Y-65628022D01*
X138920236Y-65652290D01*
X138921440Y-65676794D01*
X138920236Y-65701298D01*
X138916636Y-65725566D01*
X138910675Y-65749365D01*
X138902410Y-65772464D01*
X138891920Y-65794643D01*
X138879308Y-65815686D01*
X138864693Y-65835392D01*
X138848217Y-65853570D01*
X138211820Y-66489967D01*
X138193642Y-66506443D01*
X138173936Y-66521058D01*
X138152893Y-66533670D01*
X138130714Y-66544160D01*
X138107615Y-66552425D01*
X138083816Y-66558386D01*
X138059548Y-66561986D01*
X138035044Y-66563190D01*
X138010540Y-66561986D01*
X137986272Y-66558386D01*
X137962473Y-66552425D01*
X137939374Y-66544160D01*
X137917195Y-66533670D01*
X137896152Y-66521058D01*
X137876446Y-66506443D01*
X137858268Y-66489967D01*
X137398647Y-66030346D01*
X137382171Y-66012168D01*
X137367556Y-65992462D01*
X137354944Y-65971419D01*
X137344454Y-65949240D01*
X137336189Y-65926141D01*
X137330228Y-65902342D01*
X137326628Y-65878074D01*
X137325424Y-65853570D01*
X137326628Y-65829066D01*
X137330228Y-65804798D01*
X137336189Y-65780999D01*
X137344454Y-65757900D01*
X137354944Y-65735721D01*
X137367556Y-65714678D01*
X137382171Y-65694972D01*
X137398647Y-65676794D01*
X138035044Y-65040397D01*
X138053222Y-65023921D01*
X138072928Y-65009306D01*
X138093971Y-64996694D01*
X138116150Y-64986204D01*
X138139249Y-64977939D01*
X138163048Y-64971978D01*
X138187316Y-64968378D01*
X138211820Y-64967174D01*
X138236324Y-64968378D01*
G37*
G36*
X139685892Y-66417946D02*
G01*
X139710160Y-66421546D01*
X139733959Y-66427507D01*
X139757058Y-66435772D01*
X139779237Y-66446262D01*
X139800280Y-66458874D01*
X139819986Y-66473489D01*
X139838164Y-66489965D01*
X140297785Y-66949586D01*
X140314261Y-66967764D01*
X140328876Y-66987470D01*
X140341488Y-67008513D01*
X140351978Y-67030692D01*
X140360243Y-67053791D01*
X140366204Y-67077590D01*
X140369804Y-67101858D01*
X140371008Y-67126362D01*
X140369804Y-67150866D01*
X140366204Y-67175134D01*
X140360243Y-67198933D01*
X140351978Y-67222032D01*
X140341488Y-67244211D01*
X140328876Y-67265254D01*
X140314261Y-67284960D01*
X140297785Y-67303138D01*
X139661388Y-67939535D01*
X139643210Y-67956011D01*
X139623504Y-67970626D01*
X139602461Y-67983238D01*
X139580282Y-67993728D01*
X139557183Y-68001993D01*
X139533384Y-68007954D01*
X139509116Y-68011554D01*
X139484612Y-68012758D01*
X139460108Y-68011554D01*
X139435840Y-68007954D01*
X139412041Y-68001993D01*
X139388942Y-67993728D01*
X139366763Y-67983238D01*
X139345720Y-67970626D01*
X139326014Y-67956011D01*
X139307836Y-67939535D01*
X138848215Y-67479914D01*
X138831739Y-67461736D01*
X138817124Y-67442030D01*
X138804512Y-67420987D01*
X138794022Y-67398808D01*
X138785757Y-67375709D01*
X138779796Y-67351910D01*
X138776196Y-67327642D01*
X138774992Y-67303138D01*
X138776196Y-67278634D01*
X138779796Y-67254366D01*
X138785757Y-67230567D01*
X138794022Y-67207468D01*
X138804512Y-67185289D01*
X138817124Y-67164246D01*
X138831739Y-67144540D01*
X138848215Y-67126362D01*
X139484612Y-66489965D01*
X139502790Y-66473489D01*
X139522496Y-66458874D01*
X139543539Y-66446262D01*
X139565718Y-66435772D01*
X139588817Y-66427507D01*
X139612616Y-66421546D01*
X139636884Y-66417946D01*
X139661388Y-66416742D01*
X139685892Y-66417946D01*
G37*
G36*
X139469108Y-82838162D02*
G01*
X139493376Y-82841762D01*
X139517175Y-82847723D01*
X139540274Y-82855988D01*
X139562453Y-82866478D01*
X139583496Y-82879090D01*
X139603202Y-82893705D01*
X139621380Y-82910181D01*
X140081001Y-83369802D01*
X140097477Y-83387980D01*
X140112092Y-83407686D01*
X140124704Y-83428729D01*
X140135194Y-83450908D01*
X140143459Y-83474007D01*
X140149420Y-83497806D01*
X140153020Y-83522074D01*
X140154224Y-83546578D01*
X140153020Y-83571082D01*
X140149420Y-83595350D01*
X140143459Y-83619149D01*
X140135194Y-83642248D01*
X140124704Y-83664427D01*
X140112092Y-83685470D01*
X140097477Y-83705176D01*
X140081001Y-83723354D01*
X139444604Y-84359751D01*
X139426426Y-84376227D01*
X139406720Y-84390842D01*
X139385677Y-84403454D01*
X139363498Y-84413944D01*
X139340399Y-84422209D01*
X139316600Y-84428170D01*
X139292332Y-84431770D01*
X139267828Y-84432974D01*
X139243324Y-84431770D01*
X139219056Y-84428170D01*
X139195257Y-84422209D01*
X139172158Y-84413944D01*
X139149979Y-84403454D01*
X139128936Y-84390842D01*
X139109230Y-84376227D01*
X139091052Y-84359751D01*
X138631431Y-83900130D01*
X138614955Y-83881952D01*
X138600340Y-83862246D01*
X138587728Y-83841203D01*
X138577238Y-83819024D01*
X138568973Y-83795925D01*
X138563012Y-83772126D01*
X138559412Y-83747858D01*
X138558208Y-83723354D01*
X138559412Y-83698850D01*
X138563012Y-83674582D01*
X138568973Y-83650783D01*
X138577238Y-83627684D01*
X138587728Y-83605505D01*
X138600340Y-83584462D01*
X138614955Y-83564756D01*
X138631431Y-83546578D01*
X139267828Y-82910181D01*
X139286006Y-82893705D01*
X139305712Y-82879090D01*
X139326755Y-82866478D01*
X139348934Y-82855988D01*
X139372033Y-82847723D01*
X139395832Y-82841762D01*
X139420100Y-82838162D01*
X139444604Y-82836958D01*
X139469108Y-82838162D01*
G37*
G36*
X140918676Y-84287730D02*
G01*
X140942944Y-84291330D01*
X140966743Y-84297291D01*
X140989842Y-84305556D01*
X141012021Y-84316046D01*
X141033064Y-84328658D01*
X141052770Y-84343273D01*
X141070948Y-84359749D01*
X141530569Y-84819370D01*
X141547045Y-84837548D01*
X141561660Y-84857254D01*
X141574272Y-84878297D01*
X141584762Y-84900476D01*
X141593027Y-84923575D01*
X141598988Y-84947374D01*
X141602588Y-84971642D01*
X141603792Y-84996146D01*
X141602588Y-85020650D01*
X141598988Y-85044918D01*
X141593027Y-85068717D01*
X141584762Y-85091816D01*
X141574272Y-85113995D01*
X141561660Y-85135038D01*
X141547045Y-85154744D01*
X141530569Y-85172922D01*
X140894172Y-85809319D01*
X140875994Y-85825795D01*
X140856288Y-85840410D01*
X140835245Y-85853022D01*
X140813066Y-85863512D01*
X140789967Y-85871777D01*
X140766168Y-85877738D01*
X140741900Y-85881338D01*
X140717396Y-85882542D01*
X140692892Y-85881338D01*
X140668624Y-85877738D01*
X140644825Y-85871777D01*
X140621726Y-85863512D01*
X140599547Y-85853022D01*
X140578504Y-85840410D01*
X140558798Y-85825795D01*
X140540620Y-85809319D01*
X140080999Y-85349698D01*
X140064523Y-85331520D01*
X140049908Y-85311814D01*
X140037296Y-85290771D01*
X140026806Y-85268592D01*
X140018541Y-85245493D01*
X140012580Y-85221694D01*
X140008980Y-85197426D01*
X140007776Y-85172922D01*
X140008980Y-85148418D01*
X140012580Y-85124150D01*
X140018541Y-85100351D01*
X140026806Y-85077252D01*
X140037296Y-85055073D01*
X140049908Y-85034030D01*
X140064523Y-85014324D01*
X140080999Y-84996146D01*
X140717396Y-84359749D01*
X140735574Y-84343273D01*
X140755280Y-84328658D01*
X140776323Y-84316046D01*
X140798502Y-84305556D01*
X140821601Y-84297291D01*
X140845400Y-84291330D01*
X140869668Y-84287730D01*
X140894172Y-84286526D01*
X140918676Y-84287730D01*
G37*
G36*
X151205676Y-61935730D02*
G01*
X151229944Y-61939330D01*
X151253743Y-61945291D01*
X151276842Y-61953556D01*
X151299021Y-61964046D01*
X151320064Y-61976658D01*
X151339770Y-61991273D01*
X151357948Y-62007749D01*
X151817569Y-62467370D01*
X151834045Y-62485548D01*
X151848660Y-62505254D01*
X151861272Y-62526297D01*
X151871762Y-62548476D01*
X151880027Y-62571575D01*
X151885988Y-62595374D01*
X151889588Y-62619642D01*
X151890792Y-62644146D01*
X151889588Y-62668650D01*
X151885988Y-62692918D01*
X151880027Y-62716717D01*
X151871762Y-62739816D01*
X151861272Y-62761995D01*
X151848660Y-62783038D01*
X151834045Y-62802744D01*
X151817569Y-62820922D01*
X151181172Y-63457319D01*
X151162994Y-63473795D01*
X151143288Y-63488410D01*
X151122245Y-63501022D01*
X151100066Y-63511512D01*
X151076967Y-63519777D01*
X151053168Y-63525738D01*
X151028900Y-63529338D01*
X151004396Y-63530542D01*
X150979892Y-63529338D01*
X150955624Y-63525738D01*
X150931825Y-63519777D01*
X150908726Y-63511512D01*
X150886547Y-63501022D01*
X150865504Y-63488410D01*
X150845798Y-63473795D01*
X150827620Y-63457319D01*
X150367999Y-62997698D01*
X150351523Y-62979520D01*
X150336908Y-62959814D01*
X150324296Y-62938771D01*
X150313806Y-62916592D01*
X150305541Y-62893493D01*
X150299580Y-62869694D01*
X150295980Y-62845426D01*
X150294776Y-62820922D01*
X150295980Y-62796418D01*
X150299580Y-62772150D01*
X150305541Y-62748351D01*
X150313806Y-62725252D01*
X150324296Y-62703073D01*
X150336908Y-62682030D01*
X150351523Y-62662324D01*
X150367999Y-62644146D01*
X151004396Y-62007749D01*
X151022574Y-61991273D01*
X151042280Y-61976658D01*
X151063323Y-61964046D01*
X151085502Y-61953556D01*
X151108601Y-61945291D01*
X151132400Y-61939330D01*
X151156668Y-61935730D01*
X151181172Y-61934526D01*
X151205676Y-61935730D01*
G37*
G36*
X149756108Y-60486162D02*
G01*
X149780376Y-60489762D01*
X149804175Y-60495723D01*
X149827274Y-60503988D01*
X149849453Y-60514478D01*
X149870496Y-60527090D01*
X149890202Y-60541705D01*
X149908380Y-60558181D01*
X150368001Y-61017802D01*
X150384477Y-61035980D01*
X150399092Y-61055686D01*
X150411704Y-61076729D01*
X150422194Y-61098908D01*
X150430459Y-61122007D01*
X150436420Y-61145806D01*
X150440020Y-61170074D01*
X150441224Y-61194578D01*
X150440020Y-61219082D01*
X150436420Y-61243350D01*
X150430459Y-61267149D01*
X150422194Y-61290248D01*
X150411704Y-61312427D01*
X150399092Y-61333470D01*
X150384477Y-61353176D01*
X150368001Y-61371354D01*
X149731604Y-62007751D01*
X149713426Y-62024227D01*
X149693720Y-62038842D01*
X149672677Y-62051454D01*
X149650498Y-62061944D01*
X149627399Y-62070209D01*
X149603600Y-62076170D01*
X149579332Y-62079770D01*
X149554828Y-62080974D01*
X149530324Y-62079770D01*
X149506056Y-62076170D01*
X149482257Y-62070209D01*
X149459158Y-62061944D01*
X149436979Y-62051454D01*
X149415936Y-62038842D01*
X149396230Y-62024227D01*
X149378052Y-62007751D01*
X148918431Y-61548130D01*
X148901955Y-61529952D01*
X148887340Y-61510246D01*
X148874728Y-61489203D01*
X148864238Y-61467024D01*
X148855973Y-61443925D01*
X148850012Y-61420126D01*
X148846412Y-61395858D01*
X148845208Y-61371354D01*
X148846412Y-61346850D01*
X148850012Y-61322582D01*
X148855973Y-61298783D01*
X148864238Y-61275684D01*
X148874728Y-61253505D01*
X148887340Y-61232462D01*
X148901955Y-61212756D01*
X148918431Y-61194578D01*
X149554828Y-60558181D01*
X149573006Y-60541705D01*
X149592712Y-60527090D01*
X149613755Y-60514478D01*
X149635934Y-60503988D01*
X149659033Y-60495723D01*
X149682832Y-60489762D01*
X149707100Y-60486162D01*
X149731604Y-60484958D01*
X149756108Y-60486162D01*
G37*
M02*
