M48
; DRILL file {KiCad (5.1.5)-3} date 27/06/2021 04:27:38 p. m.
; FORMAT={-:-/ absolute / metric / decimal}
; #@! TF.CreationDate,2021-06-27T16:27:38-05:00
; #@! TF.GenerationSoftware,Kicad,Pcbnew,(5.1.5)-3
; #@! TF.FileFunction,Plated,1,2,PTH
FMAT,2
METRIC
T1C0.400
T2C0.700
T3C0.813
T4C0.900
T5C1.000
T6C1.500
T7C2.300
%
G90
G05
T1
X31.496Y-163.449
X34.671Y-70.58
X38.64Y-195.993
X39.116Y-129.794
X46.355Y-134.366
X57.69Y-190.436
X68.802Y-81.058
X68.802Y-97.568
X68.802Y-105.823
X69.517Y-116.538
X71.183Y-163.258
X71.183Y-173.546
X73.85Y-125.666
X73.85Y-135.319
X75.946Y-144.399
X75.946Y-154.432
X77.724Y-124.46
X78.327Y-95.186
X81.502Y-148.368
X87.852Y-80.423
X87.852Y-97.695
X87.852Y-105.95
X87.852Y-198.374
X92.9Y-162.877
X92.9Y-173.799
X93.424Y-116.634
X97.377Y-124.873
X99.06Y-135.763
X99.758Y-61.055
X100.711Y-154.559
X102.14Y-144.113
X106.902Y-80.423
X106.902Y-97.568
X106.902Y-105.823
X108.966Y-116.697
X112.125Y-162.322
X115.983Y-173.323
X116.427Y-125.0
X119.444Y-154.495
X119.602Y-135.668
X121.19Y-143.859
X124.365Y-149.161
X125.952Y-80.296
X125.952Y-97.568
X125.952Y-105.696
X127.889Y-116.713
X131.112Y-162.258
X131.445Y-174.117
X133.89Y-95.186
X135.477Y-120.587
X135.477Y-124.873
X138.144Y-135.16
X138.874Y-154.623
X140.24Y-143.732
X145.002Y-80.296
X145.002Y-97.568
X145.002Y-105.696
X146.05Y-71.755
X147.383Y-116.634
X152.94Y-197.58
X154.527Y-124.873
X157.147Y-134.318
X159.29Y-143.859
X159.29Y-154.654
X162.465Y-149.161
X164.052Y-80.423
X164.052Y-97.441
X164.846Y-106.299
X166.433Y-116.618
X166.751Y-156.972
X168.815Y-95.186
X169.037Y-171.069
X169.608Y-156.909
X172.466Y-157.861
X174.371Y-63.436
X174.371Y-125.476
X176.244Y-134.366
X176.752Y-130.112
X178.34Y-143.859
X180.467Y-96.393
X180.848Y-101.346
X181.102Y-107.188
X181.229Y-81.661
X181.991Y-87.757
X182.372Y-120.904
X183.388Y-116.459
X192.024Y-139.573
X192.278Y-131.445
X196.469Y-146.78
X196.469Y-152.908
X229.14Y-96.806
X229.14Y-101.251
X231.184Y-107.716
X239.935Y-121.952
X242.03Y-131.953
X242.729Y-98.584
X242.824Y-136.715
X243.618Y-155.734
X245.205Y-194.659
X246.666Y-113.062
X246.793Y-144.112
X251.111Y-155.353
X251.712Y-116.778
X253.936Y-103.378
X256.302Y-117.65
X256.318Y-114.332
X257.207Y-163.862
X258.604Y-170.212
X258.635Y-174.752
X261.144Y-125.126
X261.621Y-136.588
X264.363Y-145.657
X264.446Y-122.079
X264.681Y-136.068
X265.081Y-139.732
X265.462Y-154.972
X268.637Y-155.607
X269.018Y-117.126
X269.018Y-149.415
X270.605Y-106.012
X273.78Y-111.316
X274.637Y-117.729
X275.368Y-166.084
X275.907Y-163.449
X279.337Y-127.984
X279.94Y-88.805
X280.321Y-125.253
X280.67Y-174.561
X280.829Y-96.298
X280.924Y-136.588
X282.734Y-96.298
X283.476Y-145.72
X283.623Y-98.076
X287.56Y-155.48
X289.973Y-106.33
X290.449Y-101.79
X293.56Y-117.602
X294.91Y-162.608
X296.069Y-174.847
X299.498Y-125.38
X300.768Y-136.684
X303.943Y-144.177
X307.118Y-149.415
X308.705Y-187.516
X309.023Y-106.077
X311.563Y-103.283
X313.452Y-117.65
X314.515Y-163.322
X318.167Y-124.999
X318.23Y-127.984
X319.818Y-136.557
X320.675Y-155.702
X323.152Y-144.272
X323.786Y-162.909
X325.66Y-174.466
X328.073Y-106.077
X331.248Y-102.648
X333.026Y-117.507
X337.804Y-124.539
X339.947Y-136.493
X342.202Y-144.018
X345.075Y-155.623
X347.758Y-174.657
X349.33Y-163.306
X349.98Y-188.309
X350.774Y-124.015
X356.521Y-106.203
X357.918Y-127.508
X357.918Y-152.59
X358.712Y-171.641
X363.506Y-105.981
X363.76Y-135.033
X363.76Y-147.733
X387.286Y-189.103
X390.462Y-107.347
X390.462Y-117.225
X390.462Y-131.159
X390.462Y-136.715
X390.462Y-150.209
X390.462Y-155.766
X390.462Y-169.259
X232.656Y-188.912
X233.096Y-187.852
X233.096Y-189.972
X234.156Y-187.412
X234.156Y-190.412
X235.216Y-187.852
X235.216Y-189.972
X235.656Y-188.912
X329.494Y-109.537
X329.934Y-108.477
X329.934Y-110.597
X330.994Y-108.037
X330.994Y-111.037
X332.054Y-108.477
X332.054Y-110.597
X332.494Y-109.537
X190.587Y-72.231
X191.028Y-71.171
X191.028Y-73.291
X192.087Y-70.731
X192.087Y-73.731
X193.147Y-71.171
X193.147Y-73.291
X193.587Y-72.231
X260.438Y-130.969
X260.877Y-129.909
X260.877Y-132.029
X261.938Y-129.469
X261.938Y-132.469
X262.998Y-129.909
X262.998Y-132.029
X263.438Y-130.969
X120.737Y-185.737
X121.177Y-184.677
X121.177Y-186.797
X122.237Y-184.237
X122.237Y-187.237
X123.297Y-184.677
X123.297Y-186.797
X123.737Y-185.737
X107.236Y-110.871
X107.676Y-109.811
X107.676Y-111.931
X108.736Y-109.371
X108.736Y-112.371
X109.796Y-109.811
X109.796Y-111.931
X110.236Y-110.871
X35.806Y-188.119
X36.246Y-187.059
X36.246Y-189.179
X37.306Y-186.619
X37.306Y-189.619
X38.366Y-187.059
X38.366Y-189.179
X38.806Y-188.119
X248.531Y-92.075
X248.971Y-91.015
X248.971Y-93.135
X250.031Y-90.575
X250.031Y-93.575
X251.091Y-91.015
X251.091Y-93.135
X251.531Y-92.075
X189.0Y-166.688
X189.44Y-165.627
X189.44Y-167.748
X190.5Y-165.188
X190.5Y-168.188
X191.56Y-165.627
X191.56Y-167.748
X192.0Y-166.688
X38.188Y-70.644
X38.627Y-69.584
X38.627Y-71.704
X39.688Y-69.144
X39.688Y-72.144
X40.747Y-69.584
X40.747Y-71.704
X41.188Y-70.644
X383.469Y-101.6
X383.909Y-100.54
X383.909Y-102.66
X384.969Y-100.1
X384.969Y-103.1
X386.029Y-100.54
X386.029Y-102.66
X386.469Y-101.6
X318.381Y-162.719
X318.821Y-161.659
X318.821Y-163.779
X319.881Y-161.219
X319.881Y-164.219
X320.941Y-161.659
X320.941Y-163.779
X321.381Y-162.719
X216.781Y-148.431
X217.221Y-147.371
X217.221Y-149.491
X218.281Y-146.931
X218.281Y-149.931
X219.341Y-147.371
X219.341Y-149.491
X219.781Y-148.431
X383.469Y-193.675
X383.909Y-192.615
X383.909Y-194.735
X384.969Y-192.175
X384.969Y-195.175
X386.029Y-192.615
X386.029Y-194.735
X386.469Y-193.675
T2
X91.89Y-99.949
X99.69Y-99.949
X341.305Y-100.997
X349.105Y-100.997
X87.127Y-138.049
X94.927Y-138.049
X312.743Y-177.197
X320.543Y-177.197
X144.277Y-138.049
X152.077Y-138.049
X327.03Y-139.097
X334.83Y-139.097
X377.83Y-129.572
X385.63Y-129.572
X168.09Y-99.949
X175.89Y-99.949
X129.99Y-99.949
X137.79Y-99.949
X250.83Y-139.097
X258.63Y-139.097
X127.608Y-176.149
X135.409Y-176.149
X96.652Y-157.099
X104.452Y-157.099
X53.79Y-99.949
X61.59Y-99.949
X231.78Y-139.097
X239.58Y-139.097
X110.94Y-99.949
X118.74Y-99.949
X272.262Y-177.197
X280.061Y-177.197
X53.79Y-74.549
X61.59Y-74.549
X260.355Y-158.147
X268.155Y-158.147
X72.84Y-74.549
X80.64Y-74.549
X293.693Y-100.997
X301.493Y-100.997
X298.455Y-158.147
X306.255Y-158.147
X265.118Y-120.047
X272.918Y-120.047
X345.286Y-130.365
X353.087Y-130.365
X82.365Y-118.999
X90.165Y-118.999
X322.268Y-120.047
X330.068Y-120.047
X77.602Y-158.369
X85.402Y-158.369
X377.83Y-148.622
X385.63Y-148.622
X312.616Y-100.997
X320.416Y-100.997
X91.89Y-74.549
X99.69Y-74.549
X279.405Y-158.147
X287.205Y-158.147
X129.99Y-74.549
X137.79Y-74.549
X274.63Y-100.997
X282.43Y-100.997
X134.752Y-157.099
X142.552Y-157.099
X158.565Y-118.999
X166.365Y-118.999
X120.465Y-118.999
X128.265Y-118.999
X229.812Y-159.29
X237.612Y-159.29
X103.796Y-176.149
X111.596Y-176.149
X334.174Y-158.147
X341.974Y-158.147
X79.983Y-176.149
X87.783Y-176.149
X331.793Y-177.197
X339.593Y-177.197
X161.2Y-183.134
X169.0Y-183.134
X284.168Y-120.047
X291.968Y-120.047
X149.04Y-99.949
X156.84Y-99.949
X149.04Y-74.549
X156.84Y-74.549
X236.543Y-100.997
X244.343Y-100.997
X139.515Y-118.999
X147.315Y-118.999
X168.09Y-74.549
X175.89Y-74.549
X110.94Y-74.549
X118.74Y-74.549
X288.93Y-139.097
X296.73Y-139.097
X60.933Y-138.049
X68.733Y-138.049
X246.068Y-120.047
X253.868Y-120.047
X58.552Y-118.999
X66.352Y-118.999
X115.702Y-157.099
X123.502Y-157.099
X269.88Y-139.097
X277.68Y-139.097
X255.466Y-100.997
X263.266Y-100.997
X172.376Y-119.38
X180.176Y-119.38
X48.895Y-139.705
X48.895Y-147.505
X217.493Y-100.997
X225.293Y-100.997
X348.462Y-177.99
X356.262Y-177.99
X106.177Y-138.049
X113.977Y-138.049
X377.83Y-110.522
X385.63Y-110.522
X56.171Y-176.149
X63.971Y-176.149
X293.693Y-177.197
X301.493Y-177.197
X101.415Y-118.999
X109.215Y-118.999
X227.018Y-120.047
X234.818Y-120.047
X303.218Y-120.047
X311.018Y-120.047
X163.327Y-138.049
X171.127Y-138.049
X182.377Y-138.049
X190.177Y-138.049
X248.449Y-177.197
X256.249Y-177.197
X307.98Y-139.097
X315.78Y-139.097
X54.901Y-158.242
X62.701Y-158.242
X72.84Y-99.949
X80.64Y-99.949
X377.83Y-167.672
X385.63Y-167.672
X125.227Y-138.049
X133.027Y-138.049
X241.305Y-158.147
X249.105Y-158.147
X153.802Y-157.099
X161.602Y-157.099
T3
X31.655Y-121.38
X34.195Y-121.38
X36.735Y-121.38
X39.275Y-121.38
T5
X28.321Y-142.811
X28.321Y-145.311
X28.321Y-147.811
X42.821Y-142.811
X42.821Y-147.811
X27.686Y-78.828
X27.686Y-81.368
X27.686Y-83.908
X27.686Y-86.448
X27.686Y-88.988
X27.686Y-91.528
X27.686Y-94.068
X27.686Y-96.608
X27.686Y-99.148
X27.686Y-101.688
X27.686Y-104.228
X27.686Y-106.768
X27.686Y-109.308
X27.686Y-111.848
X27.686Y-114.388
X27.686Y-116.928
X27.686Y-119.468
X42.942Y-78.828
X42.942Y-81.368
X42.942Y-83.908
X42.942Y-86.448
X42.942Y-88.988
X42.942Y-91.528
X42.942Y-94.068
X42.942Y-96.608
X42.942Y-99.148
X42.942Y-101.688
X42.942Y-104.228
X42.942Y-106.768
X42.942Y-109.308
X42.942Y-111.848
X42.942Y-114.388
X42.942Y-116.928
X42.942Y-119.468
T7
X319.881Y-162.719
X384.969Y-193.675
X330.994Y-109.537
X261.938Y-130.969
X122.237Y-185.737
X108.736Y-110.871
X250.031Y-92.075
X190.5Y-166.688
X39.688Y-70.644
X384.969Y-101.6
X218.281Y-148.431
X234.156Y-188.912
X192.087Y-72.231
X37.306Y-188.119
T4
X254.849Y-83.235G85X255.132Y-83.518
G05
X256.97Y-85.357G85X257.253Y-85.64
G05
X257.324Y-92.216G85X257.606Y-92.499
G05
X259.799Y-88.185G85X260.081Y-88.468
G05
X138.702Y-62.515G85X138.419Y-62.798
G05
X142.733Y-64.99G85X142.45Y-65.273
G05
X145.561Y-62.162G85X145.278Y-62.445
G05
X147.682Y-60.04G85X147.399Y-60.323
G05
X271.178Y-83.235G85X271.461Y-83.518
G05
X273.299Y-85.357G85X273.582Y-85.64
G05
X273.653Y-92.216G85X273.936Y-92.499
G05
X276.128Y-88.185G85X276.411Y-88.468
G05
X222.759Y-83.235G85X223.042Y-83.518
G05
X224.88Y-85.357G85X225.163Y-85.64
G05
X225.234Y-92.216G85X225.517Y-92.499
G05
X227.709Y-88.185G85X227.992Y-88.468
G05
X154.577Y-62.515G85X154.294Y-62.798
G05
X158.608Y-64.99G85X158.325Y-65.273
G05
X161.436Y-62.162G85X161.153Y-62.445
G05
X163.557Y-60.04G85X163.274Y-60.323
G05
X122.827Y-62.515G85X122.544Y-62.798
G05
X126.858Y-64.99G85X126.575Y-65.273
G05
X129.686Y-62.162G85X129.403Y-62.445
G05
X131.807Y-60.04G85X131.524Y-60.323
G05
X106.952Y-62.515G85X106.669Y-62.798
G05
X110.983Y-64.99G85X110.7Y-65.273
G05
X113.811Y-62.162G85X113.528Y-62.445
G05
X115.932Y-60.04G85X115.649Y-60.323
G05
X238.634Y-83.235G85X238.917Y-83.518
G05
X240.755Y-85.357G85X241.038Y-85.64
G05
X241.109Y-92.216G85X241.392Y-92.499
G05
X243.584Y-88.185G85X243.867Y-88.468
G05
T6
X35.171Y-139.712G85X36.471Y-139.712
G05
X35.171Y-150.911G85X36.471Y-150.911
G05
T0
M30
