G04 #@! TF.GenerationSoftware,KiCad,Pcbnew,(5.1.5)-3*
G04 #@! TF.CreationDate,2021-06-27T16:27:36-05:00*
G04 #@! TF.ProjectId,SplitKeyboard,53706c69-744b-4657-9962-6f6172642e6b,rev?*
G04 #@! TF.SameCoordinates,Original*
G04 #@! TF.FileFunction,Profile,NP*
%FSLAX46Y46*%
G04 Gerber Fmt 4.6, Leading zero omitted, Abs format (unit mm)*
G04 Created by KiCad (PCBNEW (5.1.5)-3) date 2021-06-27 16:27:36*
%MOMM*%
%LPD*%
G04 APERTURE LIST*
%ADD10C,0.050000*%
%ADD11C,0.120000*%
G04 APERTURE END LIST*
D10*
X16668750Y-48418750D02*
X404812500Y-48418750D01*
X16668750Y-205581250D02*
X16668750Y-48418750D01*
X404812500Y-205581250D02*
X16668750Y-205581250D01*
X404812500Y-48418750D02*
X404812500Y-205581250D01*
X83343750Y-65087500D02*
X35718750Y-65087500D01*
X83343750Y-63500000D02*
X83343750Y-65087500D01*
X35718750Y-63500000D02*
X83343750Y-63500000D01*
X35718750Y-65087500D02*
X35718750Y-63500000D01*
X85803785Y-65095378D02*
X84216160Y-65019396D01*
X101600000Y-50800000D02*
X101600000Y-49212500D01*
X84216160Y-65019396D02*
G75*
G02X101600000Y-49212500I17383840J-1655604D01*
G01*
X85803785Y-65095378D02*
G75*
G02X101600000Y-50800000I15796215J-1579622D01*
G01*
X203993750Y-66675000D02*
X205581250Y-66675000D01*
X188118750Y-49212500D02*
X188118750Y-50800000D01*
X188118750Y-49212500D02*
G75*
G02X205581250Y-66675000I0J-17462500D01*
G01*
X188118750Y-50800000D02*
G75*
G02X203993750Y-66675000I0J-15875000D01*
G01*
X103187500Y-50800000D02*
X186531250Y-50800000D01*
X103187500Y-49212500D02*
X103187500Y-50800000D01*
X186531250Y-49212500D02*
X103187500Y-49212500D01*
X186531250Y-50800000D02*
X186531250Y-49212500D01*
X205581250Y-185737500D02*
X203993750Y-185737500D01*
X205581250Y-67468750D02*
X205581250Y-185737500D01*
X203993750Y-67468750D02*
X205581250Y-67468750D01*
X203993750Y-185737500D02*
X203993750Y-67468750D01*
X36512500Y-204787500D02*
X36512500Y-203200000D01*
X186531250Y-204787500D02*
X36512500Y-204787500D01*
X186531250Y-203200000D02*
X186531250Y-204787500D01*
X36512500Y-203200000D02*
X186531250Y-203200000D01*
X19050000Y-82550000D02*
X19050000Y-185737500D01*
X17462500Y-82550000D02*
X19050000Y-82550000D01*
X17462500Y-185737500D02*
X17462500Y-82550000D01*
X19050000Y-185737500D02*
X17462500Y-185737500D01*
X17462500Y-80962500D02*
X19050000Y-80962500D01*
X34925000Y-63500000D02*
X34925000Y-65087500D01*
X17462500Y-80962500D02*
G75*
G02X34925000Y-63500000I17462500J0D01*
G01*
X19050000Y-80962500D02*
G75*
G02X34925000Y-65087500I15875000J0D01*
G01*
X19050000Y-187325000D02*
X17462500Y-187325000D01*
X34925000Y-204787500D02*
X34925000Y-203200000D01*
X34925000Y-204787500D02*
G75*
G02X17462500Y-187325000I0J17462500D01*
G01*
X34925000Y-203200000D02*
G75*
G02X19050000Y-187325000I0J15875000D01*
G01*
X188118750Y-203200000D02*
X188118750Y-204787500D01*
X203993750Y-187325000D02*
X205581250Y-187325000D01*
X205581250Y-187325000D02*
G75*
G02X188118750Y-204787500I-17462500J0D01*
G01*
X203993750Y-187325000D02*
G75*
G02X188118750Y-203200000I-15875000J0D01*
G01*
X290512500Y-87312500D02*
X383381250Y-87312500D01*
X290512500Y-88900000D02*
X290512500Y-87312500D01*
X383381250Y-88900000D02*
X290512500Y-88900000D01*
X383381250Y-87312500D02*
X383381250Y-88900000D01*
X402431250Y-107950000D02*
X402431250Y-184150000D01*
X404018750Y-107950000D02*
X402431250Y-107950000D01*
X404018750Y-184150000D02*
X404018750Y-107950000D01*
X402431250Y-184150000D02*
X404018750Y-184150000D01*
X383381250Y-203200000D02*
X228600000Y-203200000D01*
X383381250Y-204787500D02*
X383381250Y-203200000D01*
X228600000Y-204787500D02*
X383381250Y-204787500D01*
X228600000Y-203200000D02*
X228600000Y-204787500D01*
X207168750Y-92075000D02*
X208756250Y-92075000D01*
X207962500Y-184150000D02*
X207168750Y-92075000D01*
X209550000Y-184150000D02*
X207962500Y-184150000D01*
X208756250Y-92075000D02*
X209550000Y-184150000D01*
X269081250Y-71437500D02*
X227806250Y-71437500D01*
X269081250Y-73025000D02*
X269081250Y-71437500D01*
X227806250Y-73025000D02*
X269081250Y-73025000D01*
X227806250Y-71437500D02*
X227806250Y-73025000D01*
X288131250Y-88900000D02*
X289718750Y-88900000D01*
X270668750Y-72952989D02*
X270668750Y-71371469D01*
X270668750Y-71371469D02*
G75*
G02X289718750Y-88900000I0J-19116031D01*
G01*
X384968750Y-88900000D02*
X384968750Y-87312500D01*
X402431250Y-106362500D02*
X404018750Y-106362500D01*
X384968750Y-87312500D02*
G75*
G02X404018750Y-106362500I0J-19050000D01*
G01*
X384968750Y-203200000D02*
X384968750Y-204787500D01*
X402431250Y-185737500D02*
X404018750Y-185737500D01*
X404018750Y-185737500D02*
G75*
G02X384968750Y-204787500I-19050000J0D01*
G01*
X209550000Y-185737500D02*
X207962500Y-185737500D01*
X227012500Y-204787500D02*
X227012500Y-203200000D01*
X227012500Y-204787500D02*
G75*
G02X207962500Y-185737500I0J19050000D01*
G01*
X208756250Y-90487500D02*
X207168750Y-90487500D01*
X226218750Y-73025000D02*
X226218750Y-71437500D01*
X207168750Y-90487500D02*
G75*
G02X226218750Y-71437500I19050000J0D01*
G01*
X270668750Y-72952989D02*
G75*
G02X288131250Y-88900000I0J-17534511D01*
G01*
X384968750Y-88900000D02*
G75*
G02X402431250Y-106362500I0J-17462500D01*
G01*
X402431250Y-185737500D02*
G75*
G02X384968750Y-203200000I-17462500J0D01*
G01*
X227012500Y-203200000D02*
G75*
G02X209550000Y-185737500I0J17462500D01*
G01*
X208756250Y-90487500D02*
G75*
G02X226218750Y-73025000I17462500J0D01*
G01*
D11*
X222767750Y-117628000D02*
X222767750Y-114528000D01*
X222767750Y-114528000D02*
X226367750Y-114528000D01*
X226367750Y-114528000D02*
X226367750Y-117628000D01*
X226367750Y-117628000D02*
X222767750Y-117628000D01*
X343049000Y-171678000D02*
X343049000Y-174778000D01*
X343049000Y-174778000D02*
X339449000Y-174778000D01*
X339449000Y-174778000D02*
X339449000Y-171678000D01*
X339449000Y-171678000D02*
X343049000Y-171678000D01*
X241817750Y-117628000D02*
X241817750Y-114528000D01*
X241817750Y-114528000D02*
X245417750Y-114528000D01*
X245417750Y-114528000D02*
X245417750Y-117628000D01*
X245417750Y-117628000D02*
X241817750Y-117628000D01*
X260867750Y-117628000D02*
X260867750Y-114528000D01*
X260867750Y-114528000D02*
X264467750Y-114528000D01*
X264467750Y-114528000D02*
X264467750Y-117628000D01*
X264467750Y-117628000D02*
X260867750Y-117628000D01*
X283517750Y-117628000D02*
X279917750Y-117628000D01*
X283517750Y-114528000D02*
X283517750Y-117628000D01*
X279917750Y-114528000D02*
X283517750Y-114528000D01*
X279917750Y-117628000D02*
X279917750Y-114528000D01*
X269230250Y-171678000D02*
X269230250Y-174778000D01*
X269230250Y-174778000D02*
X265630250Y-174778000D01*
X265630250Y-174778000D02*
X265630250Y-171678000D01*
X265630250Y-171678000D02*
X269230250Y-171678000D01*
X288280250Y-171678000D02*
X288280250Y-174778000D01*
X288280250Y-174778000D02*
X284680250Y-174778000D01*
X284680250Y-174778000D02*
X284680250Y-171678000D01*
X284680250Y-171678000D02*
X288280250Y-171678000D01*
X332305250Y-155728000D02*
X332305250Y-152628000D01*
X332305250Y-152628000D02*
X335905250Y-152628000D01*
X335905250Y-152628000D02*
X335905250Y-155728000D01*
X335905250Y-155728000D02*
X332305250Y-155728000D01*
X313255250Y-155728000D02*
X313255250Y-152628000D01*
X313255250Y-152628000D02*
X316855250Y-152628000D01*
X316855250Y-152628000D02*
X316855250Y-155728000D01*
X316855250Y-155728000D02*
X313255250Y-155728000D01*
X294205250Y-155728000D02*
X294205250Y-152628000D01*
X294205250Y-152628000D02*
X297805250Y-152628000D01*
X297805250Y-152628000D02*
X297805250Y-155728000D01*
X297805250Y-155728000D02*
X294205250Y-155728000D01*
X307330250Y-171678000D02*
X307330250Y-174778000D01*
X307330250Y-174778000D02*
X303730250Y-174778000D01*
X303730250Y-174778000D02*
X303730250Y-171678000D01*
X303730250Y-171678000D02*
X307330250Y-171678000D01*
X350192750Y-117628000D02*
X346592750Y-117628000D01*
X350192750Y-114528000D02*
X350192750Y-117628000D01*
X346592750Y-114528000D02*
X350192750Y-114528000D01*
X346592750Y-117628000D02*
X346592750Y-114528000D01*
X250180250Y-171678000D02*
X250180250Y-174778000D01*
X250180250Y-174778000D02*
X246580250Y-174778000D01*
X246580250Y-174778000D02*
X246580250Y-171678000D01*
X246580250Y-171678000D02*
X250180250Y-171678000D01*
X275155250Y-155728000D02*
X275155250Y-152628000D01*
X275155250Y-152628000D02*
X278755250Y-152628000D01*
X278755250Y-152628000D02*
X278755250Y-155728000D01*
X278755250Y-155728000D02*
X275155250Y-155728000D01*
X257324000Y-193828000D02*
X253724000Y-193828000D01*
X257324000Y-190728000D02*
X257324000Y-193828000D01*
X253724000Y-190728000D02*
X257324000Y-190728000D01*
X253724000Y-193828000D02*
X253724000Y-190728000D01*
X321617750Y-117628000D02*
X318017750Y-117628000D01*
X321617750Y-114528000D02*
X321617750Y-117628000D01*
X318017750Y-114528000D02*
X321617750Y-114528000D01*
X318017750Y-117628000D02*
X318017750Y-114528000D01*
X256105250Y-155728000D02*
X256105250Y-152628000D01*
X256105250Y-152628000D02*
X259705250Y-152628000D01*
X259705250Y-152628000D02*
X259705250Y-155728000D01*
X259705250Y-155728000D02*
X256105250Y-155728000D01*
X302567750Y-117628000D02*
X298967750Y-117628000D01*
X302567750Y-114528000D02*
X302567750Y-117628000D01*
X298967750Y-114528000D02*
X302567750Y-114528000D01*
X298967750Y-117628000D02*
X298967750Y-114528000D01*
X231130250Y-171678000D02*
X231130250Y-174778000D01*
X231130250Y-174778000D02*
X227530250Y-174778000D01*
X227530250Y-174778000D02*
X227530250Y-171678000D01*
X227530250Y-171678000D02*
X231130250Y-171678000D01*
X281136500Y-193828000D02*
X277536500Y-193828000D01*
X281136500Y-190728000D02*
X281136500Y-193828000D01*
X277536500Y-190728000D02*
X281136500Y-190728000D01*
X277536500Y-193828000D02*
X277536500Y-190728000D01*
X327542750Y-133578000D02*
X331142750Y-133578000D01*
X327542750Y-136678000D02*
X327542750Y-133578000D01*
X331142750Y-136678000D02*
X327542750Y-136678000D01*
X331142750Y-133578000D02*
X331142750Y-136678000D01*
X353736500Y-143103000D02*
X357336500Y-143103000D01*
X353736500Y-146203000D02*
X353736500Y-143103000D01*
X357336500Y-146203000D02*
X353736500Y-146203000D01*
X357336500Y-143103000D02*
X357336500Y-146203000D01*
X240655250Y-155728000D02*
X237055250Y-155728000D01*
X240655250Y-152628000D02*
X240655250Y-155728000D01*
X237055250Y-152628000D02*
X240655250Y-152628000D01*
X237055250Y-155728000D02*
X237055250Y-152628000D01*
X302567750Y-193828000D02*
X298967750Y-193828000D01*
X302567750Y-190728000D02*
X302567750Y-193828000D01*
X298967750Y-190728000D02*
X302567750Y-190728000D01*
X298967750Y-193828000D02*
X298967750Y-190728000D01*
X251342750Y-133578000D02*
X254942750Y-133578000D01*
X251342750Y-136678000D02*
X251342750Y-133578000D01*
X254942750Y-136678000D02*
X251342750Y-136678000D01*
X254942750Y-133578000D02*
X254942750Y-136678000D01*
X232292750Y-133578000D02*
X235892750Y-133578000D01*
X232292750Y-136678000D02*
X232292750Y-133578000D01*
X235892750Y-136678000D02*
X232292750Y-136678000D01*
X235892750Y-133578000D02*
X235892750Y-136678000D01*
X340667750Y-193828000D02*
X337067750Y-193828000D01*
X340667750Y-190728000D02*
X340667750Y-193828000D01*
X337067750Y-190728000D02*
X340667750Y-190728000D01*
X337067750Y-193828000D02*
X337067750Y-190728000D01*
X386705250Y-127153000D02*
X383105250Y-127153000D01*
X386705250Y-124053000D02*
X386705250Y-127153000D01*
X383105250Y-124053000D02*
X386705250Y-124053000D01*
X383105250Y-127153000D02*
X383105250Y-124053000D01*
X386705250Y-146203000D02*
X383105250Y-146203000D01*
X386705250Y-143103000D02*
X386705250Y-146203000D01*
X383105250Y-143103000D02*
X386705250Y-143103000D01*
X383105250Y-146203000D02*
X383105250Y-143103000D01*
X386705250Y-184303000D02*
X383105250Y-184303000D01*
X386705250Y-181203000D02*
X386705250Y-184303000D01*
X383105250Y-181203000D02*
X386705250Y-181203000D01*
X383105250Y-184303000D02*
X383105250Y-181203000D01*
X386705250Y-165253000D02*
X383105250Y-165253000D01*
X386705250Y-162153000D02*
X386705250Y-165253000D01*
X383105250Y-162153000D02*
X386705250Y-162153000D01*
X383105250Y-165253000D02*
X383105250Y-162153000D01*
X308492750Y-133578000D02*
X312092750Y-133578000D01*
X308492750Y-136678000D02*
X308492750Y-133578000D01*
X312092750Y-136678000D02*
X308492750Y-136678000D01*
X312092750Y-133578000D02*
X312092750Y-136678000D01*
X359717750Y-193828000D02*
X356117750Y-193828000D01*
X359717750Y-190728000D02*
X359717750Y-193828000D01*
X356117750Y-190728000D02*
X359717750Y-190728000D01*
X356117750Y-193828000D02*
X356117750Y-190728000D01*
X321617750Y-193828000D02*
X318017750Y-193828000D01*
X321617750Y-190728000D02*
X321617750Y-193828000D01*
X318017750Y-190728000D02*
X321617750Y-190728000D01*
X318017750Y-193828000D02*
X318017750Y-190728000D01*
X289442750Y-133578000D02*
X293042750Y-133578000D01*
X289442750Y-136678000D02*
X289442750Y-133578000D01*
X293042750Y-136678000D02*
X289442750Y-136678000D01*
X293042750Y-133578000D02*
X293042750Y-136678000D01*
X270392750Y-133578000D02*
X273992750Y-133578000D01*
X270392750Y-136678000D02*
X270392750Y-133578000D01*
X273992750Y-136678000D02*
X270392750Y-136678000D01*
X273992750Y-133578000D02*
X273992750Y-136678000D01*
X181727250Y-189680250D02*
X181727250Y-192780250D01*
X181727250Y-192780250D02*
X178127250Y-192780250D01*
X178127250Y-192780250D02*
X178127250Y-189680250D01*
X178127250Y-189680250D02*
X181727250Y-189680250D01*
X158339750Y-116674000D02*
X154739750Y-116674000D01*
X158339750Y-113574000D02*
X158339750Y-116674000D01*
X154739750Y-113574000D02*
X158339750Y-113574000D01*
X154739750Y-116674000D02*
X154739750Y-113574000D01*
X138864750Y-116580250D02*
X135264750Y-116580250D01*
X138864750Y-113480250D02*
X138864750Y-116580250D01*
X135264750Y-113480250D02*
X138864750Y-113480250D01*
X135264750Y-116580250D02*
X135264750Y-113480250D01*
X65046000Y-173730250D02*
X61446000Y-173730250D01*
X65046000Y-170630250D02*
X65046000Y-173730250D01*
X61446000Y-170630250D02*
X65046000Y-170630250D01*
X61446000Y-173730250D02*
X61446000Y-170630250D01*
X82877250Y-170630250D02*
X86477250Y-170630250D01*
X82877250Y-173730250D02*
X82877250Y-170630250D01*
X86477250Y-173730250D02*
X82877250Y-173730250D01*
X86477250Y-170630250D02*
X86477250Y-173730250D01*
X119814750Y-116580250D02*
X116214750Y-116580250D01*
X119814750Y-113480250D02*
X119814750Y-116580250D01*
X116214750Y-113480250D02*
X119814750Y-113480250D01*
X116214750Y-116580250D02*
X116214750Y-113480250D01*
X101927250Y-170630250D02*
X105527250Y-170630250D01*
X101927250Y-173730250D02*
X101927250Y-170630250D01*
X105527250Y-173730250D02*
X101927250Y-173730250D01*
X105527250Y-170630250D02*
X105527250Y-173730250D01*
X176964750Y-116580250D02*
X173364750Y-116580250D01*
X176964750Y-113480250D02*
X176964750Y-116580250D01*
X173364750Y-113480250D02*
X176964750Y-113480250D01*
X173364750Y-116580250D02*
X173364750Y-113480250D01*
X69808500Y-154680250D02*
X66208500Y-154680250D01*
X69808500Y-151580250D02*
X69808500Y-154680250D01*
X66208500Y-151580250D02*
X69808500Y-151580250D01*
X66208500Y-154680250D02*
X66208500Y-151580250D01*
X97164750Y-116580250D02*
X97164750Y-113480250D01*
X97164750Y-113480250D02*
X100764750Y-113480250D01*
X100764750Y-113480250D02*
X100764750Y-116580250D01*
X100764750Y-116580250D02*
X97164750Y-116580250D01*
X120977250Y-170630250D02*
X124577250Y-170630250D01*
X120977250Y-173730250D02*
X120977250Y-170630250D01*
X124577250Y-173730250D02*
X120977250Y-173730250D01*
X124577250Y-170630250D02*
X124577250Y-173730250D01*
X173364750Y-88080250D02*
X176964750Y-88080250D01*
X173364750Y-91180250D02*
X173364750Y-88080250D01*
X176964750Y-91180250D02*
X173364750Y-91180250D01*
X176964750Y-88080250D02*
X176964750Y-91180250D01*
X96002250Y-154680250D02*
X92402250Y-154680250D01*
X96002250Y-151580250D02*
X96002250Y-154680250D01*
X92402250Y-151580250D02*
X96002250Y-151580250D01*
X92402250Y-154680250D02*
X92402250Y-151580250D01*
X78114750Y-116580250D02*
X78114750Y-113480250D01*
X78114750Y-113480250D02*
X81714750Y-113480250D01*
X81714750Y-113480250D02*
X81714750Y-116580250D01*
X81714750Y-116580250D02*
X78114750Y-116580250D01*
X143627250Y-170630250D02*
X143627250Y-173730250D01*
X143627250Y-173730250D02*
X140027250Y-173730250D01*
X140027250Y-173730250D02*
X140027250Y-170630250D01*
X140027250Y-170630250D02*
X143627250Y-170630250D01*
X154314750Y-88080250D02*
X157914750Y-88080250D01*
X154314750Y-91180250D02*
X154314750Y-88080250D01*
X157914750Y-91180250D02*
X154314750Y-91180250D01*
X157914750Y-88080250D02*
X157914750Y-91180250D01*
X115052250Y-154680250D02*
X111452250Y-154680250D01*
X115052250Y-151580250D02*
X115052250Y-154680250D01*
X111452250Y-151580250D02*
X115052250Y-151580250D01*
X111452250Y-154680250D02*
X111452250Y-151580250D01*
X135264750Y-88080250D02*
X138864750Y-88080250D01*
X135264750Y-91180250D02*
X135264750Y-88080250D01*
X138864750Y-91180250D02*
X135264750Y-91180250D01*
X138864750Y-88080250D02*
X138864750Y-91180250D01*
X59064750Y-116580250D02*
X59064750Y-113480250D01*
X59064750Y-113480250D02*
X62664750Y-113480250D01*
X62664750Y-113480250D02*
X62664750Y-116580250D01*
X62664750Y-116580250D02*
X59064750Y-116580250D01*
X130502250Y-154680250D02*
X130502250Y-151580250D01*
X130502250Y-151580250D02*
X134102250Y-151580250D01*
X134102250Y-151580250D02*
X134102250Y-154680250D01*
X134102250Y-154680250D02*
X130502250Y-154680250D01*
X162677250Y-170630250D02*
X162677250Y-173730250D01*
X162677250Y-173730250D02*
X159077250Y-173730250D01*
X159077250Y-173730250D02*
X159077250Y-170630250D01*
X159077250Y-170630250D02*
X162677250Y-170630250D01*
X116214750Y-88080250D02*
X119814750Y-88080250D01*
X116214750Y-91180250D02*
X116214750Y-88080250D01*
X119814750Y-91180250D02*
X116214750Y-91180250D01*
X119814750Y-88080250D02*
X119814750Y-91180250D01*
X67427250Y-132530250D02*
X67427250Y-135630250D01*
X67427250Y-135630250D02*
X63827250Y-135630250D01*
X63827250Y-135630250D02*
X63827250Y-132530250D01*
X63827250Y-132530250D02*
X67427250Y-132530250D01*
X149552250Y-154680250D02*
X149552250Y-151580250D01*
X149552250Y-151580250D02*
X153152250Y-151580250D01*
X153152250Y-151580250D02*
X153152250Y-154680250D01*
X153152250Y-154680250D02*
X149552250Y-154680250D01*
X91239750Y-132530250D02*
X91239750Y-135630250D01*
X91239750Y-135630250D02*
X87639750Y-135630250D01*
X87639750Y-135630250D02*
X87639750Y-132530250D01*
X87639750Y-132530250D02*
X91239750Y-132530250D01*
X132883500Y-192780250D02*
X132883500Y-189680250D01*
X132883500Y-189680250D02*
X136483500Y-189680250D01*
X136483500Y-189680250D02*
X136483500Y-192780250D01*
X136483500Y-192780250D02*
X132883500Y-192780250D01*
X97164750Y-88080250D02*
X100764750Y-88080250D01*
X97164750Y-91180250D02*
X97164750Y-88080250D01*
X100764750Y-91180250D02*
X97164750Y-91180250D01*
X100764750Y-88080250D02*
X100764750Y-91180250D01*
X168602250Y-154680250D02*
X168602250Y-151580250D01*
X168602250Y-151580250D02*
X172202250Y-151580250D01*
X172202250Y-151580250D02*
X172202250Y-154680250D01*
X172202250Y-154680250D02*
X168602250Y-154680250D01*
X110289750Y-132530250D02*
X110289750Y-135630250D01*
X110289750Y-135630250D02*
X106689750Y-135630250D01*
X106689750Y-135630250D02*
X106689750Y-132530250D01*
X106689750Y-132530250D02*
X110289750Y-132530250D01*
X109071000Y-192780250D02*
X109071000Y-189680250D01*
X109071000Y-189680250D02*
X112671000Y-189680250D01*
X112671000Y-189680250D02*
X112671000Y-192780250D01*
X112671000Y-192780250D02*
X109071000Y-192780250D01*
X78114750Y-88080250D02*
X81714750Y-88080250D01*
X78114750Y-91180250D02*
X78114750Y-88080250D01*
X81714750Y-91180250D02*
X78114750Y-91180250D01*
X81714750Y-88080250D02*
X81714750Y-91180250D01*
X187652250Y-154680250D02*
X187652250Y-151580250D01*
X187652250Y-151580250D02*
X191252250Y-151580250D01*
X191252250Y-151580250D02*
X191252250Y-154680250D01*
X191252250Y-154680250D02*
X187652250Y-154680250D01*
X129339750Y-132530250D02*
X129339750Y-135630250D01*
X129339750Y-135630250D02*
X125739750Y-135630250D01*
X125739750Y-135630250D02*
X125739750Y-132530250D01*
X125739750Y-132530250D02*
X129339750Y-132530250D01*
X85258500Y-192780250D02*
X85258500Y-189680250D01*
X85258500Y-189680250D02*
X88858500Y-189680250D01*
X88858500Y-189680250D02*
X88858500Y-192780250D01*
X88858500Y-192780250D02*
X85258500Y-192780250D01*
X59064750Y-88080250D02*
X62664750Y-88080250D01*
X59064750Y-91180250D02*
X59064750Y-88080250D01*
X62664750Y-91180250D02*
X59064750Y-91180250D01*
X62664750Y-88080250D02*
X62664750Y-91180250D01*
X186489750Y-132530250D02*
X186489750Y-135630250D01*
X186489750Y-135630250D02*
X182889750Y-135630250D01*
X182889750Y-135630250D02*
X182889750Y-132530250D01*
X182889750Y-132530250D02*
X186489750Y-132530250D01*
X148389750Y-132530250D02*
X148389750Y-135630250D01*
X148389750Y-135630250D02*
X144789750Y-135630250D01*
X144789750Y-135630250D02*
X144789750Y-132530250D01*
X144789750Y-132530250D02*
X148389750Y-132530250D01*
X167439750Y-132530250D02*
X167439750Y-135630250D01*
X167439750Y-135630250D02*
X163839750Y-135630250D01*
X163839750Y-135630250D02*
X163839750Y-132530250D01*
X163839750Y-132530250D02*
X167439750Y-132530250D01*
X61446000Y-192780250D02*
X61446000Y-189680250D01*
X61446000Y-189680250D02*
X65046000Y-189680250D01*
X65046000Y-189680250D02*
X65046000Y-192780250D01*
X65046000Y-192780250D02*
X61446000Y-192780250D01*
M02*
