G04 #@! TF.GenerationSoftware,KiCad,Pcbnew,(5.1.5)-3*
G04 #@! TF.CreationDate,2021-06-27T16:27:36-05:00*
G04 #@! TF.ProjectId,SplitKeyboard,53706c69-744b-4657-9962-6f6172642e6b,rev?*
G04 #@! TF.SameCoordinates,Original*
G04 #@! TF.FileFunction,Paste,Bot*
G04 #@! TF.FilePolarity,Positive*
%FSLAX46Y46*%
G04 Gerber Fmt 4.6, Leading zero omitted, Abs format (unit mm)*
G04 Created by KiCad (PCBNEW (5.1.5)-3) date 2021-06-27 16:27:36*
%MOMM*%
%LPD*%
G04 APERTURE LIST*
%ADD10R,2.550000X2.500000*%
%ADD11R,1.200000X1.200000*%
%ADD12R,1.700000X1.000000*%
%ADD13R,1.524000X1.524000*%
G04 APERTURE END LIST*
D10*
X104806750Y-78994000D03*
X91879750Y-81534000D03*
X265107750Y-127031750D03*
X278034750Y-124491750D03*
D11*
X246780250Y-158146750D03*
X243630250Y-158146750D03*
X308692750Y-120046750D03*
X305542750Y-120046750D03*
X275355250Y-139096750D03*
X272205250Y-139096750D03*
X280105250Y-100996750D03*
X276955250Y-100996750D03*
X260940750Y-100996750D03*
X257790750Y-100996750D03*
X270592750Y-120046750D03*
X267442750Y-120046750D03*
X242017750Y-100996750D03*
X238867750Y-100996750D03*
X313455250Y-139096750D03*
X310305250Y-139096750D03*
X303930250Y-158146750D03*
X300780250Y-158146750D03*
X222967750Y-100996750D03*
X219817750Y-100996750D03*
X256305250Y-139096750D03*
X253155250Y-139096750D03*
X253924000Y-177196750D03*
X250774000Y-177196750D03*
X299167750Y-100996750D03*
X296017750Y-100996750D03*
X289642750Y-120046750D03*
X286492750Y-120046750D03*
X294405250Y-139096750D03*
X291255250Y-139096750D03*
X327742750Y-120046750D03*
X324592750Y-120046750D03*
X284880250Y-158146750D03*
X281730250Y-158146750D03*
X232492750Y-120046750D03*
X229342750Y-120046750D03*
X265830250Y-158146750D03*
X262680250Y-158146750D03*
X237255250Y-139096750D03*
X234105250Y-139096750D03*
X318090750Y-100996750D03*
X314940750Y-100996750D03*
X251542750Y-120046750D03*
X248392750Y-120046750D03*
X232136750Y-159289750D03*
X235286750Y-159289750D03*
X350761500Y-130365500D03*
X347611500Y-130365500D03*
X383305250Y-129571750D03*
X380155250Y-129571750D03*
D10*
X293682750Y-184181750D03*
X306609750Y-181641750D03*
D11*
X277736500Y-177196750D03*
X274586500Y-177196750D03*
D10*
X236532750Y-107981750D03*
X249459750Y-105441750D03*
X331782750Y-184181750D03*
X344709750Y-181641750D03*
X350832750Y-184181750D03*
X363759750Y-181641750D03*
D11*
X346780250Y-100996750D03*
X343630250Y-100996750D03*
X337267750Y-177196750D03*
X334117750Y-177196750D03*
X383305250Y-110521750D03*
X380155250Y-110521750D03*
X353936500Y-177990500D03*
X350786500Y-177990500D03*
D10*
X217482750Y-107981750D03*
X230409750Y-105441750D03*
X312732750Y-184181750D03*
X325659750Y-181641750D03*
D11*
X318217750Y-177196750D03*
X315067750Y-177196750D03*
X383305250Y-167671750D03*
X380155250Y-167671750D03*
X299167750Y-177196750D03*
X296017750Y-177196750D03*
D10*
X274632750Y-107981750D03*
X287559750Y-105441750D03*
X255582750Y-107981750D03*
X268509750Y-105441750D03*
X288920250Y-146081750D03*
X301847250Y-143541750D03*
D11*
X332505250Y-139096750D03*
X329355250Y-139096750D03*
X339649000Y-158146750D03*
X336499000Y-158146750D03*
X383305250Y-148621750D03*
X380155250Y-148621750D03*
D10*
X293682750Y-107981750D03*
X306609750Y-105441750D03*
X227007750Y-127031750D03*
X239934750Y-124491750D03*
X307970250Y-146081750D03*
X320897250Y-143541750D03*
X327020250Y-146081750D03*
X339947250Y-143541750D03*
D12*
X221817750Y-116778000D03*
X221817750Y-115378000D03*
X227317750Y-116778000D03*
X227317750Y-115378000D03*
X343999000Y-172528000D03*
X343999000Y-173928000D03*
X338499000Y-172528000D03*
X338499000Y-173928000D03*
D10*
X272251500Y-184181750D03*
X285178500Y-181641750D03*
X334164000Y-165131750D03*
X347091000Y-162591750D03*
X341307750Y-107981750D03*
X354234750Y-105441750D03*
D12*
X240867750Y-116778000D03*
X240867750Y-115378000D03*
X246367750Y-116778000D03*
X246367750Y-115378000D03*
D10*
X348451500Y-136556750D03*
X361378500Y-134016750D03*
X248439000Y-184181750D03*
X261366000Y-181641750D03*
D12*
X259917750Y-116778000D03*
X259917750Y-115378000D03*
X265417750Y-116778000D03*
X265417750Y-115378000D03*
X284467750Y-115378000D03*
X284467750Y-116778000D03*
X278967750Y-115378000D03*
X278967750Y-116778000D03*
X270180250Y-172528000D03*
X270180250Y-173928000D03*
X264680250Y-172528000D03*
X264680250Y-173928000D03*
X289230250Y-172528000D03*
X289230250Y-173928000D03*
X283730250Y-172528000D03*
X283730250Y-173928000D03*
X331355250Y-154878000D03*
X331355250Y-153478000D03*
X336855250Y-154878000D03*
X336855250Y-153478000D03*
X312305250Y-154878000D03*
X312305250Y-153478000D03*
X317805250Y-154878000D03*
X317805250Y-153478000D03*
X293255250Y-154878000D03*
X293255250Y-153478000D03*
X298755250Y-154878000D03*
X298755250Y-153478000D03*
X308280250Y-172528000D03*
X308280250Y-173928000D03*
X302780250Y-172528000D03*
X302780250Y-173928000D03*
X351142750Y-115378000D03*
X351142750Y-116778000D03*
X345642750Y-115378000D03*
X345642750Y-116778000D03*
X251130250Y-172528000D03*
X251130250Y-173928000D03*
X245630250Y-172528000D03*
X245630250Y-173928000D03*
X274205250Y-154878000D03*
X274205250Y-153478000D03*
X279705250Y-154878000D03*
X279705250Y-153478000D03*
X258274000Y-191578000D03*
X258274000Y-192978000D03*
X252774000Y-191578000D03*
X252774000Y-192978000D03*
X322567750Y-115378000D03*
X322567750Y-116778000D03*
X317067750Y-115378000D03*
X317067750Y-116778000D03*
X255155250Y-154878000D03*
X255155250Y-153478000D03*
X260655250Y-154878000D03*
X260655250Y-153478000D03*
X303517750Y-115378000D03*
X303517750Y-116778000D03*
X298017750Y-115378000D03*
X298017750Y-116778000D03*
X232080250Y-172528000D03*
X232080250Y-173928000D03*
X226580250Y-172528000D03*
X226580250Y-173928000D03*
X282086500Y-191578000D03*
X282086500Y-192978000D03*
X276586500Y-191578000D03*
X276586500Y-192978000D03*
X326592750Y-135828000D03*
X326592750Y-134428000D03*
X332092750Y-135828000D03*
X332092750Y-134428000D03*
X352786500Y-145353000D03*
X352786500Y-143953000D03*
X358286500Y-145353000D03*
X358286500Y-143953000D03*
X241605250Y-153478000D03*
X241605250Y-154878000D03*
X236105250Y-153478000D03*
X236105250Y-154878000D03*
X303517750Y-191578000D03*
X303517750Y-192978000D03*
X298017750Y-191578000D03*
X298017750Y-192978000D03*
X250392750Y-135828000D03*
X250392750Y-134428000D03*
X255892750Y-135828000D03*
X255892750Y-134428000D03*
X231342750Y-135828000D03*
X231342750Y-134428000D03*
X236842750Y-135828000D03*
X236842750Y-134428000D03*
D10*
X303207750Y-127031750D03*
X316134750Y-124491750D03*
X377661500Y-136556750D03*
X390588500Y-134016750D03*
X322257750Y-127031750D03*
X335184750Y-124491750D03*
X260345250Y-165131750D03*
X273272250Y-162591750D03*
X279395250Y-165131750D03*
X292322250Y-162591750D03*
X312732750Y-107981750D03*
X325659750Y-105441750D03*
X298445250Y-165131750D03*
X311372250Y-162591750D03*
X269870250Y-146081750D03*
X282797250Y-143541750D03*
X246057750Y-127031750D03*
X258984750Y-124491750D03*
X222245250Y-165131750D03*
X235172250Y-162591750D03*
X377661500Y-174656750D03*
X390588500Y-172116750D03*
X377661500Y-117506750D03*
X390588500Y-114966750D03*
X231770250Y-146081750D03*
X244697250Y-143541750D03*
X250820250Y-146081750D03*
X263747250Y-143541750D03*
X241295250Y-165131750D03*
X254222250Y-162591750D03*
X284157750Y-127031750D03*
X297084750Y-124491750D03*
X377661500Y-155606750D03*
X390588500Y-153066750D03*
D12*
X341617750Y-191578000D03*
X341617750Y-192978000D03*
X336117750Y-191578000D03*
X336117750Y-192978000D03*
X387655250Y-124903000D03*
X387655250Y-126303000D03*
X382155250Y-124903000D03*
X382155250Y-126303000D03*
X387655250Y-143953000D03*
X387655250Y-145353000D03*
X382155250Y-143953000D03*
X382155250Y-145353000D03*
X387655250Y-182053000D03*
X387655250Y-183453000D03*
X382155250Y-182053000D03*
X382155250Y-183453000D03*
X387655250Y-163003000D03*
X387655250Y-164403000D03*
X382155250Y-163003000D03*
X382155250Y-164403000D03*
X307542750Y-135828000D03*
X307542750Y-134428000D03*
X313042750Y-135828000D03*
X313042750Y-134428000D03*
X360667750Y-191578000D03*
X360667750Y-192978000D03*
X355167750Y-191578000D03*
X355167750Y-192978000D03*
X322567750Y-191578000D03*
X322567750Y-192978000D03*
X317067750Y-191578000D03*
X317067750Y-192978000D03*
X288492750Y-135828000D03*
X288492750Y-134428000D03*
X293992750Y-135828000D03*
X293992750Y-134428000D03*
X269442750Y-135828000D03*
X269442750Y-134428000D03*
X274942750Y-135828000D03*
X274942750Y-134428000D03*
D10*
X181006750Y-104394000D03*
X168079750Y-106934000D03*
X190531750Y-123444000D03*
X177604750Y-125984000D03*
X152431750Y-123444000D03*
X139504750Y-125984000D03*
D12*
X182677250Y-190530250D03*
X182677250Y-191930250D03*
X177177250Y-190530250D03*
X177177250Y-191930250D03*
D13*
X42989500Y-124777500D03*
X42989500Y-127317500D03*
X42989500Y-129857500D03*
D12*
X159289750Y-114424000D03*
X159289750Y-115824000D03*
X153789750Y-114424000D03*
X153789750Y-115824000D03*
X139814750Y-114330250D03*
X139814750Y-115730250D03*
X134314750Y-114330250D03*
X134314750Y-115730250D03*
X65996000Y-171480250D03*
X65996000Y-172880250D03*
X60496000Y-171480250D03*
X60496000Y-172880250D03*
X81927250Y-172880250D03*
X81927250Y-171480250D03*
X87427250Y-172880250D03*
X87427250Y-171480250D03*
X120764750Y-114330250D03*
X120764750Y-115730250D03*
X115264750Y-114330250D03*
X115264750Y-115730250D03*
X100977250Y-172880250D03*
X100977250Y-171480250D03*
X106477250Y-172880250D03*
X106477250Y-171480250D03*
X177914750Y-114330250D03*
X177914750Y-115730250D03*
X172414750Y-114330250D03*
X172414750Y-115730250D03*
X70758500Y-152430250D03*
X70758500Y-153830250D03*
X65258500Y-152430250D03*
X65258500Y-153830250D03*
X96214750Y-115730250D03*
X96214750Y-114330250D03*
X101714750Y-115730250D03*
X101714750Y-114330250D03*
X120027250Y-172880250D03*
X120027250Y-171480250D03*
X125527250Y-172880250D03*
X125527250Y-171480250D03*
X172414750Y-90330250D03*
X172414750Y-88930250D03*
X177914750Y-90330250D03*
X177914750Y-88930250D03*
X96952250Y-152430250D03*
X96952250Y-153830250D03*
X91452250Y-152430250D03*
X91452250Y-153830250D03*
X77164750Y-115730250D03*
X77164750Y-114330250D03*
X82664750Y-115730250D03*
X82664750Y-114330250D03*
X144577250Y-171480250D03*
X144577250Y-172880250D03*
X139077250Y-171480250D03*
X139077250Y-172880250D03*
X153364750Y-90330250D03*
X153364750Y-88930250D03*
X158864750Y-90330250D03*
X158864750Y-88930250D03*
X116002250Y-152430250D03*
X116002250Y-153830250D03*
X110502250Y-152430250D03*
X110502250Y-153830250D03*
X134314750Y-90330250D03*
X134314750Y-88930250D03*
X139814750Y-90330250D03*
X139814750Y-88930250D03*
X58114750Y-115730250D03*
X58114750Y-114330250D03*
X63614750Y-115730250D03*
X63614750Y-114330250D03*
X129552250Y-153830250D03*
X129552250Y-152430250D03*
X135052250Y-153830250D03*
X135052250Y-152430250D03*
X163627250Y-171480250D03*
X163627250Y-172880250D03*
X158127250Y-171480250D03*
X158127250Y-172880250D03*
X115264750Y-90330250D03*
X115264750Y-88930250D03*
X120764750Y-90330250D03*
X120764750Y-88930250D03*
X68377250Y-133380250D03*
X68377250Y-134780250D03*
X62877250Y-133380250D03*
X62877250Y-134780250D03*
X148602250Y-153830250D03*
X148602250Y-152430250D03*
X154102250Y-153830250D03*
X154102250Y-152430250D03*
X92189750Y-133380250D03*
X92189750Y-134780250D03*
X86689750Y-133380250D03*
X86689750Y-134780250D03*
X131933500Y-191930250D03*
X131933500Y-190530250D03*
X137433500Y-191930250D03*
X137433500Y-190530250D03*
X96214750Y-90330250D03*
X96214750Y-88930250D03*
X101714750Y-90330250D03*
X101714750Y-88930250D03*
X167652250Y-153830250D03*
X167652250Y-152430250D03*
X173152250Y-153830250D03*
X173152250Y-152430250D03*
X111239750Y-133380250D03*
X111239750Y-134780250D03*
X105739750Y-133380250D03*
X105739750Y-134780250D03*
X108121000Y-191930250D03*
X108121000Y-190530250D03*
X113621000Y-191930250D03*
X113621000Y-190530250D03*
X77164750Y-90330250D03*
X77164750Y-88930250D03*
X82664750Y-90330250D03*
X82664750Y-88930250D03*
X186702250Y-153830250D03*
X186702250Y-152430250D03*
X192202250Y-153830250D03*
X192202250Y-152430250D03*
X130289750Y-133380250D03*
X130289750Y-134780250D03*
X124789750Y-133380250D03*
X124789750Y-134780250D03*
X84308500Y-191930250D03*
X84308500Y-190530250D03*
X89808500Y-191930250D03*
X89808500Y-190530250D03*
X58114750Y-90330250D03*
X58114750Y-88930250D03*
X63614750Y-90330250D03*
X63614750Y-88930250D03*
X187439750Y-133380250D03*
X187439750Y-134780250D03*
X181939750Y-133380250D03*
X181939750Y-134780250D03*
X149339750Y-133380250D03*
X149339750Y-134780250D03*
X143839750Y-133380250D03*
X143839750Y-134780250D03*
X168389750Y-133380250D03*
X168389750Y-134780250D03*
X162889750Y-133380250D03*
X162889750Y-134780250D03*
X60496000Y-191930250D03*
X60496000Y-190530250D03*
X65996000Y-191930250D03*
X65996000Y-190530250D03*
D10*
X92900500Y-180594000D03*
X79973500Y-183134000D03*
X71469250Y-123444000D03*
X58542250Y-125984000D03*
X69088000Y-161544000D03*
X56161000Y-164084000D03*
X140525500Y-180594000D03*
X127598500Y-183134000D03*
X69088000Y-180594000D03*
X56161000Y-183134000D03*
X73850500Y-142494000D03*
X60923500Y-145034000D03*
X116713000Y-180594000D03*
X103786000Y-183134000D03*
X90519250Y-161544000D03*
X77592250Y-164084000D03*
X109569250Y-161544000D03*
X96642250Y-164084000D03*
X114331750Y-123444000D03*
X101404750Y-125984000D03*
X147669250Y-161544000D03*
X134742250Y-164084000D03*
X171481750Y-123444000D03*
X158554750Y-125984000D03*
X185769250Y-180594000D03*
X172842250Y-183134000D03*
X119094250Y-142494000D03*
X106167250Y-145034000D03*
X95281750Y-123444000D03*
X82354750Y-125984000D03*
X195294250Y-142494000D03*
X182367250Y-145034000D03*
X176244250Y-142494000D03*
X163317250Y-145034000D03*
X181006750Y-78994000D03*
X168079750Y-81534000D03*
X161956750Y-78994000D03*
X149029750Y-81534000D03*
X142906750Y-78994000D03*
X129979750Y-81534000D03*
X123856750Y-78994000D03*
X110929750Y-81534000D03*
X85756750Y-78994000D03*
X72829750Y-81534000D03*
X157194250Y-142494000D03*
X144267250Y-145034000D03*
X66706750Y-78994000D03*
X53779750Y-81534000D03*
X133381750Y-123444000D03*
X120454750Y-125984000D03*
X138144250Y-142494000D03*
X125217250Y-145034000D03*
X128619250Y-161544000D03*
X115692250Y-164084000D03*
X66706750Y-104394000D03*
X53779750Y-106934000D03*
X166719250Y-161544000D03*
X153792250Y-164084000D03*
X100044250Y-142494000D03*
X87117250Y-145034000D03*
X161956750Y-104394000D03*
X149029750Y-106934000D03*
X142906750Y-104394000D03*
X129979750Y-106934000D03*
X123856750Y-104394000D03*
X110929750Y-106934000D03*
X104806750Y-104394000D03*
X91879750Y-106934000D03*
X85756750Y-104394000D03*
X72829750Y-106934000D03*
D11*
X163525000Y-183134000D03*
X166675000Y-183134000D03*
X170414750Y-74549000D03*
X173564750Y-74549000D03*
X151364750Y-74549000D03*
X154514750Y-74549000D03*
X132314750Y-74549000D03*
X135464750Y-74549000D03*
X113264750Y-74549000D03*
X116414750Y-74549000D03*
X94214750Y-74549000D03*
X97364750Y-74549000D03*
X75164750Y-74549000D03*
X78314750Y-74549000D03*
X184702250Y-138049000D03*
X187852250Y-138049000D03*
X174701000Y-119380000D03*
X177851000Y-119380000D03*
X170414750Y-99949000D03*
X173564750Y-99949000D03*
X156127250Y-157099000D03*
X159277250Y-157099000D03*
X165652250Y-138049000D03*
X168802250Y-138049000D03*
X160889750Y-118999000D03*
X164039750Y-118999000D03*
X151364750Y-99949000D03*
X154514750Y-99949000D03*
X56114750Y-74549000D03*
X59264750Y-74549000D03*
X137077250Y-157099000D03*
X140227250Y-157099000D03*
X146602250Y-138049000D03*
X149752250Y-138049000D03*
X141839750Y-118999000D03*
X144989750Y-118999000D03*
X132314750Y-99949000D03*
X135464750Y-99949000D03*
X129933500Y-176149000D03*
X133083500Y-176149000D03*
X118027250Y-157099000D03*
X121177250Y-157099000D03*
X127552250Y-138049000D03*
X130702250Y-138049000D03*
X122789750Y-118999000D03*
X125939750Y-118999000D03*
X113264750Y-99949000D03*
X116414750Y-99949000D03*
X106121000Y-176149000D03*
X109271000Y-176149000D03*
X98977250Y-157099000D03*
X102127250Y-157099000D03*
X108502250Y-138049000D03*
X111652250Y-138049000D03*
X103739750Y-118999000D03*
X106889750Y-118999000D03*
X94214750Y-99949000D03*
X97364750Y-99949000D03*
X82308500Y-176149000D03*
X85458500Y-176149000D03*
X79927250Y-158369000D03*
X83077250Y-158369000D03*
X89452250Y-138049000D03*
X92602250Y-138049000D03*
X84689750Y-118999000D03*
X87839750Y-118999000D03*
X75164750Y-99949000D03*
X78314750Y-99949000D03*
X58496000Y-176149000D03*
X61646000Y-176149000D03*
X57226000Y-158242000D03*
X60376000Y-158242000D03*
X63258500Y-138049000D03*
X66408500Y-138049000D03*
X60877250Y-118999000D03*
X64027250Y-118999000D03*
X56114750Y-99949000D03*
X59264750Y-99949000D03*
M02*
