M48
; DRILL file {KiCad (5.1.5)-3} date 27/06/2021 04:27:38 p. m.
; FORMAT={-:-/ absolute / metric / decimal}
; #@! TF.CreationDate,2021-06-27T16:27:38-05:00
; #@! TF.GenerationSoftware,Kicad,Pcbnew,(5.1.5)-3
; #@! TF.FileFunction,NonPlated,1,2,NPTH
FMAT,2
METRIC
T1C0.800
T2C1.900
T3C3.000
T4C3.048
T5C3.988
T6C4.100
%
G90
G05
T1
X157.971Y-62.374
X236.018Y-83.872
X252.232Y-83.872
X257.182Y-88.822
X142.096Y-62.374
X147.046Y-57.424
X268.562Y-83.872
X273.511Y-88.822
X220.143Y-83.872
X225.093Y-88.822
X162.921Y-57.424
X126.221Y-62.374
X131.171Y-57.424
X110.346Y-62.374
X115.296Y-57.424
X240.968Y-88.822
T2
X243.3Y-167.672
X253.46Y-167.672
X286.163Y-129.572
X296.323Y-129.572
X276.638Y-110.522
X286.798Y-110.522
X314.738Y-186.722
X324.898Y-186.722
X122.46Y-128.524
X132.62Y-128.524
X160.56Y-128.524
X170.72Y-128.524
X117.697Y-166.624
X127.857Y-166.624
X112.935Y-109.474
X123.095Y-109.474
X98.647Y-166.624
X108.807Y-166.624
X129.603Y-185.674
X139.763Y-185.674
X267.113Y-129.572
X277.273Y-129.572
X233.775Y-148.622
X243.935Y-148.622
X271.875Y-148.622
X282.035Y-148.622
X170.085Y-109.474
X180.245Y-109.474
X336.169Y-167.672
X346.329Y-167.672
X55.785Y-84.074
X65.945Y-84.074
X55.785Y-109.474
X65.945Y-109.474
X58.166Y-166.624
X68.326Y-166.624
X112.935Y-84.074
X123.095Y-84.074
X379.666Y-177.197
X389.827Y-177.197
X300.45Y-167.672
X310.61Y-167.672
X250.444Y-186.722
X260.604Y-186.722
X290.925Y-148.622
X301.085Y-148.622
X329.025Y-148.622
X339.185Y-148.622
X238.538Y-110.522
X248.698Y-110.522
X219.488Y-110.522
X229.648Y-110.522
X151.035Y-109.474
X161.195Y-109.474
X105.791Y-185.674
X115.951Y-185.674
X170.085Y-84.074
X180.245Y-84.074
X93.885Y-109.474
X104.045Y-109.474
X108.172Y-147.574
X118.332Y-147.574
X155.797Y-166.624
X165.957Y-166.624
X89.122Y-147.574
X99.282Y-147.574
X305.213Y-129.572
X315.373Y-129.572
X179.61Y-128.524
X189.77Y-128.524
X314.738Y-110.522
X324.898Y-110.522
X274.256Y-186.722
X284.416Y-186.722
X295.688Y-186.722
X305.848Y-186.722
X229.013Y-129.572
X239.173Y-129.572
X131.985Y-109.474
X142.145Y-109.474
X62.928Y-147.574
X73.088Y-147.574
X165.322Y-147.574
X175.482Y-147.574
X93.885Y-84.074
X104.045Y-84.074
X74.835Y-84.074
X84.995Y-84.074
X174.847Y-185.674
X185.007Y-185.674
X379.666Y-158.147
X389.827Y-158.147
X224.25Y-167.672
X234.41Y-167.672
X141.51Y-128.524
X151.67Y-128.524
X262.35Y-167.672
X272.51Y-167.672
X343.313Y-110.522
X353.473Y-110.522
X257.588Y-110.522
X267.748Y-110.522
X352.838Y-186.722
X362.998Y-186.722
X309.975Y-148.622
X320.135Y-148.622
X74.835Y-109.474
X84.995Y-109.474
X184.372Y-147.574
X194.532Y-147.574
X146.272Y-147.574
X156.432Y-147.574
X58.166Y-185.674
X68.326Y-185.674
X131.985Y-84.074
X142.145Y-84.074
X151.035Y-84.074
X161.195Y-84.074
X281.4Y-167.672
X291.56Y-167.672
X324.263Y-129.572
X334.423Y-129.572
X295.688Y-110.522
X305.848Y-110.522
X79.597Y-166.624
X89.757Y-166.624
X84.36Y-128.524
X94.52Y-128.524
X127.222Y-147.574
X137.382Y-147.574
X60.547Y-128.524
X70.707Y-128.524
X81.978Y-185.674
X92.138Y-185.674
X379.666Y-120.047
X389.827Y-120.047
X248.063Y-129.572
X258.223Y-129.572
X379.666Y-139.097
X389.827Y-139.097
X350.457Y-139.097
X360.616Y-139.097
X333.788Y-186.722
X343.948Y-186.722
X136.747Y-166.624
X146.907Y-166.624
X103.41Y-128.524
X113.57Y-128.524
X252.825Y-148.622
X262.985Y-148.622
T3
X244.57Y-165.132
X250.92Y-162.592
X287.433Y-127.032
X293.783Y-124.492
X277.908Y-107.982
X284.258Y-105.442
X316.008Y-184.182
X322.358Y-181.642
X123.73Y-125.984
X130.08Y-123.444
X161.83Y-125.984
X168.18Y-123.444
X118.967Y-164.084
X125.317Y-161.544
X114.205Y-106.934
X120.555Y-104.394
X99.917Y-164.084
X106.267Y-161.544
X130.874Y-183.134
X137.224Y-180.594
X268.383Y-127.032
X274.733Y-124.492
X235.045Y-146.082
X241.395Y-143.542
X273.145Y-146.082
X279.495Y-143.542
X171.355Y-106.934
X177.705Y-104.394
X337.439Y-165.132
X343.789Y-162.592
X57.055Y-81.534
X63.405Y-78.994
X57.055Y-106.934
X63.405Y-104.394
X59.436Y-164.084
X65.786Y-161.544
X114.205Y-81.534
X120.555Y-78.994
X380.936Y-174.657
X387.286Y-172.117
X301.72Y-165.132
X308.07Y-162.592
X251.714Y-184.182
X258.064Y-181.642
X292.195Y-146.082
X298.545Y-143.542
X330.295Y-146.082
X336.645Y-143.542
X239.808Y-107.982
X246.158Y-105.442
X220.758Y-107.982
X227.108Y-105.442
X152.305Y-106.934
X158.655Y-104.394
X107.061Y-183.134
X113.411Y-180.594
X171.355Y-81.534
X177.705Y-78.994
X95.155Y-106.934
X101.505Y-104.394
X109.442Y-145.034
X115.792Y-142.494
X157.067Y-164.084
X163.417Y-161.544
X90.392Y-145.034
X96.742Y-142.494
X306.483Y-127.032
X312.833Y-124.492
X180.88Y-125.984
X187.23Y-123.444
X316.008Y-107.982
X322.358Y-105.442
X275.526Y-184.182
X281.876Y-181.642
X296.958Y-184.182
X303.308Y-181.642
X230.283Y-127.032
X236.633Y-124.492
X133.255Y-106.934
X139.605Y-104.394
X64.198Y-145.034
X70.548Y-142.494
X166.592Y-145.034
X172.942Y-142.494
X95.155Y-81.534
X101.505Y-78.994
X76.105Y-81.534
X82.455Y-78.994
X176.117Y-183.134
X182.467Y-180.594
X380.936Y-155.607
X387.286Y-153.067
X225.52Y-165.132
X231.87Y-162.592
X142.78Y-125.984
X149.13Y-123.444
X263.62Y-165.132
X269.97Y-162.592
X344.583Y-107.982
X350.933Y-105.442
X258.858Y-107.982
X265.208Y-105.442
X354.108Y-184.182
X360.458Y-181.642
X311.245Y-146.082
X317.595Y-143.542
X76.105Y-106.934
X82.455Y-104.394
X185.642Y-145.034
X191.992Y-142.494
X147.542Y-145.034
X153.892Y-142.494
X59.436Y-183.134
X65.786Y-180.594
X133.255Y-81.534
X139.605Y-78.994
X152.305Y-81.534
X158.655Y-78.994
X282.67Y-165.132
X289.02Y-162.592
X325.533Y-127.032
X331.883Y-124.492
X296.958Y-107.982
X303.308Y-105.442
X80.867Y-164.084
X87.217Y-161.544
X85.63Y-125.984
X91.98Y-123.444
X128.492Y-145.034
X134.842Y-142.494
X61.817Y-125.984
X68.167Y-123.444
X83.248Y-183.134
X89.599Y-180.594
X380.936Y-117.507
X387.286Y-114.967
X249.333Y-127.032
X255.683Y-124.492
X380.936Y-136.557
X387.286Y-134.017
X351.726Y-136.557
X358.077Y-134.017
X335.058Y-184.182
X341.408Y-181.642
X138.017Y-164.084
X144.367Y-161.544
X104.68Y-125.984
X111.03Y-123.444
X254.095Y-146.082
X260.445Y-143.542
T4
X167.989Y-192.659
X191.865Y-192.659
X329.311Y-174.657
X353.187Y-174.657
X56.07Y-154.559
X79.947Y-154.559
X53.689Y-135.509
X77.565Y-135.509
X348.551Y-127.159
X348.551Y-151.035
X336.455Y-117.507
X360.331Y-117.507
T5
X53.689Y-120.269
X77.565Y-120.269
X363.791Y-127.159
X363.791Y-151.035
X336.455Y-102.267
X360.331Y-102.267
X167.989Y-177.419
X191.865Y-177.419
X329.311Y-159.417
X353.187Y-159.417
X56.07Y-139.319
X79.947Y-139.319
T6
X84.677Y-166.624
X89.44Y-128.524
X132.302Y-147.574
X65.627Y-128.524
X87.058Y-185.674
X384.746Y-120.047
X253.143Y-129.572
X384.746Y-139.097
X355.536Y-139.097
X338.868Y-186.722
X141.827Y-166.624
X108.49Y-128.524
X257.905Y-148.622
X248.38Y-167.672
X291.243Y-129.572
X281.718Y-110.522
X319.818Y-186.722
X127.54Y-128.524
X165.64Y-128.524
X122.777Y-166.624
X118.015Y-109.474
X103.727Y-166.624
X134.683Y-185.674
X272.193Y-129.572
X238.855Y-148.622
X276.955Y-148.622
X175.165Y-109.474
X341.249Y-167.672
X60.865Y-84.074
X60.865Y-109.474
X63.246Y-166.624
X118.015Y-84.074
X384.746Y-177.197
X305.53Y-167.672
X255.524Y-186.722
X296.005Y-148.622
X334.105Y-148.622
X243.618Y-110.522
X224.568Y-110.522
X156.115Y-109.474
X110.871Y-185.674
X175.165Y-84.074
X98.965Y-109.474
X113.252Y-147.574
X160.877Y-166.624
X94.202Y-147.574
X310.293Y-129.572
X184.69Y-128.524
X319.818Y-110.522
X279.337Y-186.722
X300.768Y-186.722
X234.093Y-129.572
X137.065Y-109.474
X68.008Y-147.574
X170.402Y-147.574
X98.965Y-84.074
X79.915Y-84.074
X179.927Y-185.674
X384.746Y-158.147
X229.33Y-167.672
X146.59Y-128.524
X267.43Y-167.672
X348.393Y-110.522
X262.668Y-110.522
X357.918Y-186.722
X315.055Y-148.622
X79.915Y-109.474
X189.452Y-147.574
X151.352Y-147.574
X63.246Y-185.674
X137.065Y-84.074
X156.115Y-84.074
X286.48Y-167.672
X329.343Y-129.572
X300.768Y-110.522
T0
M30
