%FSLAX45Y45*%
G04 Gerber Fmt 4.5, Leading zero omitted, Abs format (unit mm)*
G04 Created by KiCad (PCBNEW (6.0.1)) date 2022-01-16 22:02:03*
%MOMM*%
%LPD*%
G01*
G04 APERTURE LIST*
%TA.AperFunction,Profile*%
%ADD10C,0.100000*%
%TD*%
%ADD11C,0.200000*%
%ADD12C,0.150000*%
%ADD13C,0.190000*%
%ADD14C,0.220000*%
%ADD15C,0.300000*%
%ADD16C,0.304800*%
%ADD17C,0.398780*%
%ADD18C,0.410000*%
G04 APERTURE END LIST*
D10*
X2426817Y-1550248D02*
G75*
G03*
X1633067Y-2343998I0J-793750D01*
G01*
X2416348Y-14543329D02*
X32515348Y-14533800D01*
X33319567Y-2341175D02*
G75*
G03*
X32528283Y-1547425I-791284J2462D01*
G01*
X1622598Y-13785204D02*
G75*
G03*
X2416348Y-14543329I793750J36462D01*
G01*
X33309098Y-13740050D02*
X33319567Y-2341175D01*
X32515348Y-14533800D02*
G75*
G03*
X33309098Y-13740050I0J793750D01*
G01*
X1633067Y-2343998D02*
X1622598Y-13785204D01*
X2426817Y-1550248D02*
X32528283Y-1547425D01*
D11*
D12*
X31637385Y-2543125D02*
X31787385Y-2693125D01*
X31787385Y-2543125D02*
X31637385Y-2693125D01*
D11*
X31647385Y-2683125D02*
X31777385Y-2683125D01*
X31647385Y-2553125D02*
X31777385Y-2553125D01*
X31777385Y-2683125D02*
G75*
G03*
X31777385Y-2553125I0J65000D01*
G01*
X31647385Y-2553125D02*
G75*
G03*
X31647385Y-2683125I0J-65000D01*
G01*
D12*
X31637385Y-3663125D02*
X31787385Y-3813125D01*
X31787385Y-3663125D02*
X31637385Y-3813125D01*
D11*
X31647385Y-3803125D02*
X31777385Y-3803125D01*
X31647385Y-3673125D02*
X31777385Y-3673125D01*
X31777385Y-3803125D02*
G75*
G03*
X31777385Y-3673125I0J65000D01*
G01*
X31647385Y-3673125D02*
G75*
G03*
X31647385Y-3803125I0J-65000D01*
G01*
D13*
X2448875Y-5661875D02*
G75*
G03*
X2448875Y-5661875I-95000J0D01*
G01*
X2682625Y-11375975D02*
G75*
G03*
X2682625Y-11375975I-95000J0D01*
G01*
X2687375Y-13280875D02*
G75*
G03*
X2687375Y-13280875I-95000J0D01*
G01*
X2928675Y-7565875D02*
G75*
G03*
X2928675Y-7565875I-95000J0D01*
G01*
X3169155Y-9468435D02*
G75*
G03*
X3169155Y-9468435I-95000J0D01*
G01*
X3464875Y-5661875D02*
G75*
G03*
X3464875Y-5661875I-95000J0D01*
G01*
X3698625Y-11375975D02*
G75*
G03*
X3698625Y-11375975I-95000J0D01*
G01*
X3703375Y-13280875D02*
G75*
G03*
X3703375Y-13280875I-95000J0D01*
G01*
X3944675Y-7565875D02*
G75*
G03*
X3944675Y-7565875I-95000J0D01*
G01*
X4185155Y-9468435D02*
G75*
G03*
X4185155Y-9468435I-95000J0D01*
G01*
X4351075Y-5660875D02*
G75*
G03*
X4351075Y-5660875I-95000J0D01*
G01*
X4835275Y-11375975D02*
G75*
G03*
X4835275Y-11375975I-95000J0D01*
G01*
X5063875Y-13280875D02*
G75*
G03*
X5063875Y-13280875I-95000J0D01*
G01*
X5316275Y-7565875D02*
G75*
G03*
X5316275Y-7565875I-95000J0D01*
G01*
X5367075Y-5660875D02*
G75*
G03*
X5367075Y-5660875I-95000J0D01*
G01*
X5798875Y-9470875D02*
G75*
G03*
X5798875Y-9470875I-95000J0D01*
G01*
X5851275Y-11375975D02*
G75*
G03*
X5851275Y-11375975I-95000J0D01*
G01*
X6079875Y-13280875D02*
G75*
G03*
X6079875Y-13280875I-95000J0D01*
G01*
X6251075Y-5660875D02*
G75*
G03*
X6251075Y-5660875I-95000J0D01*
G01*
X6332275Y-7565875D02*
G75*
G03*
X6332275Y-7565875I-95000J0D01*
G01*
X6735275Y-11375975D02*
G75*
G03*
X6735275Y-11375975I-95000J0D01*
G01*
X6814875Y-9470875D02*
G75*
G03*
X6814875Y-9470875I-95000J0D01*
G01*
X7216275Y-7565875D02*
G75*
G03*
X7216275Y-7565875I-95000J0D01*
G01*
X7267075Y-5660875D02*
G75*
G03*
X7267075Y-5660875I-95000J0D01*
G01*
X7451475Y-13280875D02*
G75*
G03*
X7451475Y-13280875I-95000J0D01*
G01*
X7698875Y-9470875D02*
G75*
G03*
X7698875Y-9470875I-95000J0D01*
G01*
X7751275Y-11375975D02*
G75*
G03*
X7751275Y-11375975I-95000J0D01*
G01*
X8151075Y-5660875D02*
G75*
G03*
X8151075Y-5660875I-95000J0D01*
G01*
X8232275Y-7565875D02*
G75*
G03*
X8232275Y-7565875I-95000J0D01*
G01*
X8467475Y-13280875D02*
G75*
G03*
X8467475Y-13280875I-95000J0D01*
G01*
X8635275Y-11375975D02*
G75*
G03*
X8635275Y-11375975I-95000J0D01*
G01*
X8714875Y-9470875D02*
G75*
G03*
X8714875Y-9470875I-95000J0D01*
G01*
X9116275Y-7565875D02*
G75*
G03*
X9116275Y-7565875I-95000J0D01*
G01*
X9167075Y-5660875D02*
G75*
G03*
X9167075Y-5660875I-95000J0D01*
G01*
X9598875Y-9470875D02*
G75*
G03*
X9598875Y-9470875I-95000J0D01*
G01*
X9651275Y-11375975D02*
G75*
G03*
X9651275Y-11375975I-95000J0D01*
G01*
X10051075Y-5660875D02*
G75*
G03*
X10051075Y-5660875I-95000J0D01*
G01*
X10132275Y-7565875D02*
G75*
G03*
X10132275Y-7565875I-95000J0D01*
G01*
X10535275Y-11375975D02*
G75*
G03*
X10535275Y-11375975I-95000J0D01*
G01*
X10614875Y-9470875D02*
G75*
G03*
X10614875Y-9470875I-95000J0D01*
G01*
X11016275Y-7565875D02*
G75*
G03*
X11016275Y-7565875I-95000J0D01*
G01*
X11067075Y-5660875D02*
G75*
G03*
X11067075Y-5660875I-95000J0D01*
G01*
X11498875Y-9470875D02*
G75*
G03*
X11498875Y-9470875I-95000J0D01*
G01*
X11551275Y-11375975D02*
G75*
G03*
X11551275Y-11375975I-95000J0D01*
G01*
X11951075Y-5660875D02*
G75*
G03*
X11951075Y-5660875I-95000J0D01*
G01*
X12032275Y-7565875D02*
G75*
G03*
X12032275Y-7565875I-95000J0D01*
G01*
X12435275Y-11375975D02*
G75*
G03*
X12435275Y-11375975I-95000J0D01*
G01*
X12514875Y-9470875D02*
G75*
G03*
X12514875Y-9470875I-95000J0D01*
G01*
X12916275Y-7565875D02*
G75*
G03*
X12916275Y-7565875I-95000J0D01*
G01*
X12967075Y-5660875D02*
G75*
G03*
X12967075Y-5660875I-95000J0D01*
G01*
X13398875Y-9470875D02*
G75*
G03*
X13398875Y-9470875I-95000J0D01*
G01*
X13451275Y-11375975D02*
G75*
G03*
X13451275Y-11375975I-95000J0D01*
G01*
X13851075Y-5660875D02*
G75*
G03*
X13851075Y-5660875I-95000J0D01*
G01*
X13932275Y-7565875D02*
G75*
G03*
X13932275Y-7565875I-95000J0D01*
G01*
X14335275Y-11375975D02*
G75*
G03*
X14335275Y-11375975I-95000J0D01*
G01*
X14414875Y-9470875D02*
G75*
G03*
X14414875Y-9470875I-95000J0D01*
G01*
X14601575Y-13280975D02*
G75*
G03*
X14601575Y-13280975I-95000J0D01*
G01*
X14816275Y-7565875D02*
G75*
G03*
X14816275Y-7565875I-95000J0D01*
G01*
X14867075Y-5660875D02*
G75*
G03*
X14867075Y-5660875I-95000J0D01*
G01*
X15298875Y-9470875D02*
G75*
G03*
X15298875Y-9470875I-95000J0D01*
G01*
X15351275Y-11375975D02*
G75*
G03*
X15351275Y-11375975I-95000J0D01*
G01*
X15617575Y-13280975D02*
G75*
G03*
X15617575Y-13280975I-95000J0D01*
G01*
X15751075Y-5660875D02*
G75*
G03*
X15751075Y-5660875I-95000J0D01*
G01*
X15832275Y-7565875D02*
G75*
G03*
X15832275Y-7565875I-95000J0D01*
G01*
X16235275Y-11375975D02*
G75*
G03*
X16235275Y-11375975I-95000J0D01*
G01*
X16314875Y-9470875D02*
G75*
G03*
X16314875Y-9470875I-95000J0D01*
G01*
X16716275Y-7565875D02*
G75*
G03*
X16716275Y-7565875I-95000J0D01*
G01*
X16767075Y-5660875D02*
G75*
G03*
X16767075Y-5660875I-95000J0D01*
G01*
X17198875Y-9470875D02*
G75*
G03*
X17198875Y-9470875I-95000J0D01*
G01*
X17251275Y-11375975D02*
G75*
G03*
X17251275Y-11375975I-95000J0D01*
G01*
X17651075Y-5660875D02*
G75*
G03*
X17651075Y-5660875I-95000J0D01*
G01*
X17732275Y-7565875D02*
G75*
G03*
X17732275Y-7565875I-95000J0D01*
G01*
X18135275Y-11375975D02*
G75*
G03*
X18135275Y-11375975I-95000J0D01*
G01*
X18214875Y-9470875D02*
G75*
G03*
X18214875Y-9470875I-95000J0D01*
G01*
X18616275Y-7565875D02*
G75*
G03*
X18616275Y-7565875I-95000J0D01*
G01*
X18667075Y-5660875D02*
G75*
G03*
X18667075Y-5660875I-95000J0D01*
G01*
X19098875Y-9470875D02*
G75*
G03*
X19098875Y-9470875I-95000J0D01*
G01*
X19151275Y-11375975D02*
G75*
G03*
X19151275Y-11375975I-95000J0D01*
G01*
X19551075Y-5660875D02*
G75*
G03*
X19551075Y-5660875I-95000J0D01*
G01*
X19632275Y-7565875D02*
G75*
G03*
X19632275Y-7565875I-95000J0D01*
G01*
X20035275Y-11375975D02*
G75*
G03*
X20035275Y-11375975I-95000J0D01*
G01*
X20114875Y-9470875D02*
G75*
G03*
X20114875Y-9470875I-95000J0D01*
G01*
X20516275Y-7565875D02*
G75*
G03*
X20516275Y-7565875I-95000J0D01*
G01*
X20567075Y-5660875D02*
G75*
G03*
X20567075Y-5660875I-95000J0D01*
G01*
X20998875Y-9470875D02*
G75*
G03*
X20998875Y-9470875I-95000J0D01*
G01*
X21051275Y-11375975D02*
G75*
G03*
X21051275Y-11375975I-95000J0D01*
G01*
X21451075Y-5660875D02*
G75*
G03*
X21451075Y-5660875I-95000J0D01*
G01*
X21502375Y-13280875D02*
G75*
G03*
X21502375Y-13280875I-95000J0D01*
G01*
X21532275Y-7565875D02*
G75*
G03*
X21532275Y-7565875I-95000J0D01*
G01*
X21935275Y-11375975D02*
G75*
G03*
X21935275Y-11375975I-95000J0D01*
G01*
X22014875Y-9470875D02*
G75*
G03*
X22014875Y-9470875I-95000J0D01*
G01*
X22416275Y-7565875D02*
G75*
G03*
X22416275Y-7565875I-95000J0D01*
G01*
X22467075Y-5660875D02*
G75*
G03*
X22467075Y-5660875I-95000J0D01*
G01*
X22518375Y-13280875D02*
G75*
G03*
X22518375Y-13280875I-95000J0D01*
G01*
X22898875Y-9470875D02*
G75*
G03*
X22898875Y-9470875I-95000J0D01*
G01*
X22951275Y-11375975D02*
G75*
G03*
X22951275Y-11375975I-95000J0D01*
G01*
X23351075Y-5660875D02*
G75*
G03*
X23351075Y-5660875I-95000J0D01*
G01*
X23402375Y-13280875D02*
G75*
G03*
X23402375Y-13280875I-95000J0D01*
G01*
X23432275Y-7565875D02*
G75*
G03*
X23432275Y-7565875I-95000J0D01*
G01*
X23835275Y-11375975D02*
G75*
G03*
X23835275Y-11375975I-95000J0D01*
G01*
X23914875Y-9470875D02*
G75*
G03*
X23914875Y-9470875I-95000J0D01*
G01*
X24316275Y-7565875D02*
G75*
G03*
X24316275Y-7565875I-95000J0D01*
G01*
X24367075Y-5660875D02*
G75*
G03*
X24367075Y-5660875I-95000J0D01*
G01*
X24418375Y-13280875D02*
G75*
G03*
X24418375Y-13280875I-95000J0D01*
G01*
X24798875Y-9470875D02*
G75*
G03*
X24798875Y-9470875I-95000J0D01*
G01*
X24851275Y-11375975D02*
G75*
G03*
X24851275Y-11375975I-95000J0D01*
G01*
X25251075Y-5660875D02*
G75*
G03*
X25251075Y-5660875I-95000J0D01*
G01*
X25302375Y-13280875D02*
G75*
G03*
X25302375Y-13280875I-95000J0D01*
G01*
X25332275Y-7565875D02*
G75*
G03*
X25332275Y-7565875I-95000J0D01*
G01*
X25814875Y-9470875D02*
G75*
G03*
X25814875Y-9470875I-95000J0D01*
G01*
X26216275Y-7565875D02*
G75*
G03*
X26216275Y-7565875I-95000J0D01*
G01*
X26267075Y-5660875D02*
G75*
G03*
X26267075Y-5660875I-95000J0D01*
G01*
X26318375Y-13280875D02*
G75*
G03*
X26318375Y-13280875I-95000J0D01*
G01*
X26463375Y-11375975D02*
G75*
G03*
X26463375Y-11375975I-95000J0D01*
G01*
X26698875Y-9470875D02*
G75*
G03*
X26698875Y-9470875I-95000J0D01*
G01*
X27202375Y-13280875D02*
G75*
G03*
X27202375Y-13280875I-95000J0D01*
G01*
X27232275Y-7565875D02*
G75*
G03*
X27232275Y-7565875I-95000J0D01*
G01*
X27479375Y-11375975D02*
G75*
G03*
X27479375Y-11375975I-95000J0D01*
G01*
X27714875Y-9470875D02*
G75*
G03*
X27714875Y-9470875I-95000J0D01*
G01*
X28112775Y-5660875D02*
G75*
G03*
X28112775Y-5660875I-95000J0D01*
G01*
X28218375Y-13280875D02*
G75*
G03*
X28218375Y-13280875I-95000J0D01*
G01*
X28849375Y-8518375D02*
G75*
G03*
X28849375Y-8518375I-95000J0D01*
G01*
X29092275Y-11375975D02*
G75*
G03*
X29092275Y-11375975I-95000J0D01*
G01*
X29102375Y-13280875D02*
G75*
G03*
X29102375Y-13280875I-95000J0D01*
G01*
X29128775Y-5660875D02*
G75*
G03*
X29128775Y-5660875I-95000J0D01*
G01*
X29865375Y-8518375D02*
G75*
G03*
X29865375Y-8518375I-95000J0D01*
G01*
X30108275Y-11375975D02*
G75*
G03*
X30108275Y-11375975I-95000J0D01*
G01*
X30118375Y-13280875D02*
G75*
G03*
X30118375Y-13280875I-95000J0D01*
G01*
X30992275Y-11375975D02*
G75*
G03*
X30992275Y-11375975I-95000J0D01*
G01*
X30995675Y-5656275D02*
G75*
G03*
X30995675Y-5656275I-95000J0D01*
G01*
X30995675Y-7565875D02*
G75*
G03*
X30995675Y-7565875I-95000J0D01*
G01*
X30995675Y-9470875D02*
G75*
G03*
X30995675Y-9470875I-95000J0D01*
G01*
X31002375Y-13280875D02*
G75*
G03*
X31002375Y-13280875I-95000J0D01*
G01*
X32008275Y-11375975D02*
G75*
G03*
X32008275Y-11375975I-95000J0D01*
G01*
X32011675Y-5656275D02*
G75*
G03*
X32011675Y-5656275I-95000J0D01*
G01*
X32011675Y-7565875D02*
G75*
G03*
X32011675Y-7565875I-95000J0D01*
G01*
X32011675Y-9470875D02*
G75*
G03*
X32011675Y-9470875I-95000J0D01*
G01*
X32018375Y-13280875D02*
G75*
G03*
X32018375Y-13280875I-95000J0D01*
G01*
D14*
X5044250Y-9133625D02*
X5044250Y-9353625D01*
X4934250Y-9243625D02*
X5154250Y-9243625D01*
X7812850Y-3901225D02*
X7812850Y-4121225D01*
X7702850Y-4011225D02*
X7922850Y-4011225D01*
X9184450Y-12930925D02*
X9184450Y-13150925D01*
X9074450Y-13040925D02*
X9294450Y-13040925D01*
X16779050Y-8447825D02*
X16779050Y-8667825D01*
X16669050Y-8557825D02*
X16889050Y-8557825D01*
X18083944Y-3976577D02*
X18083944Y-4196577D01*
X17973944Y-4086577D02*
X18193944Y-4086577D01*
X20576350Y-12842025D02*
X20576350Y-13062025D01*
X20466350Y-12952025D02*
X20686350Y-12952025D01*
X28399550Y-9692425D02*
X28399550Y-9912425D01*
X28289550Y-9802425D02*
X28509550Y-9802425D01*
X29288550Y-12461025D02*
X29288550Y-12681025D01*
X29178550Y-12571025D02*
X29398550Y-12571025D01*
X30152150Y-4891825D02*
X30152150Y-5111825D01*
X30042150Y-5001825D02*
X30262150Y-5001825D01*
D15*
X2586942Y-5513942D02*
X2586942Y-5301808D01*
X2374808Y-5301808D01*
X2374808Y-5513942D01*
X2586942Y-5513942D01*
X2820692Y-11228042D02*
X2820692Y-11015908D01*
X2608558Y-11015908D01*
X2608558Y-11228042D01*
X2820692Y-11228042D01*
X2825442Y-13132942D02*
X2825442Y-12920808D01*
X2613308Y-12920808D01*
X2613308Y-13132942D01*
X2825442Y-13132942D01*
X3066742Y-7417942D02*
X3066742Y-7205808D01*
X2854608Y-7205808D01*
X2854608Y-7417942D01*
X3066742Y-7417942D01*
X3221942Y-5259942D02*
X3221942Y-5047808D01*
X3009808Y-5047808D01*
X3009808Y-5259942D01*
X3221942Y-5259942D01*
X3307222Y-9320502D02*
X3307222Y-9108368D01*
X3095088Y-9108368D01*
X3095088Y-9320502D01*
X3307222Y-9320502D01*
X3455692Y-10974042D02*
X3455692Y-10761908D01*
X3243558Y-10761908D01*
X3243558Y-10974042D01*
X3455692Y-10974042D01*
X3460442Y-12878942D02*
X3460442Y-12666808D01*
X3248308Y-12666808D01*
X3248308Y-12878942D01*
X3460442Y-12878942D01*
X3701742Y-7163942D02*
X3701742Y-6951808D01*
X3489608Y-6951808D01*
X3489608Y-7163942D01*
X3701742Y-7163942D01*
X3942222Y-9066502D02*
X3942222Y-8854368D01*
X3730088Y-8854368D01*
X3730088Y-9066502D01*
X3942222Y-9066502D01*
X4489142Y-5512942D02*
X4489142Y-5300808D01*
X4277008Y-5300808D01*
X4277008Y-5512942D01*
X4489142Y-5512942D01*
X4973342Y-11228042D02*
X4973342Y-11015908D01*
X4761208Y-11015908D01*
X4761208Y-11228042D01*
X4973342Y-11228042D01*
X5124142Y-5258942D02*
X5124142Y-5046808D01*
X4912008Y-5046808D01*
X4912008Y-5258942D01*
X5124142Y-5258942D01*
X5201942Y-13132942D02*
X5201942Y-12920808D01*
X4989808Y-12920808D01*
X4989808Y-13132942D01*
X5201942Y-13132942D01*
X5454342Y-7417942D02*
X5454342Y-7205808D01*
X5242208Y-7205808D01*
X5242208Y-7417942D01*
X5454342Y-7417942D01*
X5608342Y-10974042D02*
X5608342Y-10761908D01*
X5396208Y-10761908D01*
X5396208Y-10974042D01*
X5608342Y-10974042D01*
X5836942Y-12878942D02*
X5836942Y-12666808D01*
X5624808Y-12666808D01*
X5624808Y-12878942D01*
X5836942Y-12878942D01*
X5936942Y-9322942D02*
X5936942Y-9110808D01*
X5724808Y-9110808D01*
X5724808Y-9322942D01*
X5936942Y-9322942D01*
X6089342Y-7163942D02*
X6089342Y-6951808D01*
X5877208Y-6951808D01*
X5877208Y-7163942D01*
X6089342Y-7163942D01*
X6389142Y-5512942D02*
X6389142Y-5300808D01*
X6177008Y-5300808D01*
X6177008Y-5512942D01*
X6389142Y-5512942D01*
X6571942Y-9068942D02*
X6571942Y-8856808D01*
X6359808Y-8856808D01*
X6359808Y-9068942D01*
X6571942Y-9068942D01*
X6873342Y-11228042D02*
X6873342Y-11015908D01*
X6661208Y-11015908D01*
X6661208Y-11228042D01*
X6873342Y-11228042D01*
X7024142Y-5258942D02*
X7024142Y-5046808D01*
X6812008Y-5046808D01*
X6812008Y-5258942D01*
X7024142Y-5258942D01*
X7354342Y-7417942D02*
X7354342Y-7205808D01*
X7142208Y-7205808D01*
X7142208Y-7417942D01*
X7354342Y-7417942D01*
X7508342Y-10974042D02*
X7508342Y-10761908D01*
X7296208Y-10761908D01*
X7296208Y-10974042D01*
X7508342Y-10974042D01*
X7589542Y-13132942D02*
X7589542Y-12920808D01*
X7377408Y-12920808D01*
X7377408Y-13132942D01*
X7589542Y-13132942D01*
X7836942Y-9322942D02*
X7836942Y-9110808D01*
X7624808Y-9110808D01*
X7624808Y-9322942D01*
X7836942Y-9322942D01*
X7989342Y-7163942D02*
X7989342Y-6951808D01*
X7777208Y-6951808D01*
X7777208Y-7163942D01*
X7989342Y-7163942D01*
X8224542Y-12878942D02*
X8224542Y-12666808D01*
X8012408Y-12666808D01*
X8012408Y-12878942D01*
X8224542Y-12878942D01*
X8289142Y-5512942D02*
X8289142Y-5300808D01*
X8077008Y-5300808D01*
X8077008Y-5512942D01*
X8289142Y-5512942D01*
X8471942Y-9068942D02*
X8471942Y-8856808D01*
X8259808Y-8856808D01*
X8259808Y-9068942D01*
X8471942Y-9068942D01*
X8773342Y-11228042D02*
X8773342Y-11015908D01*
X8561208Y-11015908D01*
X8561208Y-11228042D01*
X8773342Y-11228042D01*
X8924142Y-5258942D02*
X8924142Y-5046808D01*
X8712008Y-5046808D01*
X8712008Y-5258942D01*
X8924142Y-5258942D01*
X9254342Y-7417942D02*
X9254342Y-7205808D01*
X9042208Y-7205808D01*
X9042208Y-7417942D01*
X9254342Y-7417942D01*
X9408342Y-10974042D02*
X9408342Y-10761908D01*
X9196208Y-10761908D01*
X9196208Y-10974042D01*
X9408342Y-10974042D01*
X9736942Y-9322942D02*
X9736942Y-9110808D01*
X9524808Y-9110808D01*
X9524808Y-9322942D01*
X9736942Y-9322942D01*
X9889342Y-7163942D02*
X9889342Y-6951808D01*
X9677208Y-6951808D01*
X9677208Y-7163942D01*
X9889342Y-7163942D01*
X10189142Y-5512942D02*
X10189142Y-5300808D01*
X9977008Y-5300808D01*
X9977008Y-5512942D01*
X10189142Y-5512942D01*
X10371942Y-9068942D02*
X10371942Y-8856808D01*
X10159808Y-8856808D01*
X10159808Y-9068942D01*
X10371942Y-9068942D01*
X10673342Y-11228042D02*
X10673342Y-11015908D01*
X10461208Y-11015908D01*
X10461208Y-11228042D01*
X10673342Y-11228042D01*
X10824142Y-5258942D02*
X10824142Y-5046808D01*
X10612008Y-5046808D01*
X10612008Y-5258942D01*
X10824142Y-5258942D01*
X11154342Y-7417942D02*
X11154342Y-7205808D01*
X10942208Y-7205808D01*
X10942208Y-7417942D01*
X11154342Y-7417942D01*
X11308342Y-10974042D02*
X11308342Y-10761908D01*
X11096208Y-10761908D01*
X11096208Y-10974042D01*
X11308342Y-10974042D01*
X11636942Y-9322942D02*
X11636942Y-9110808D01*
X11424808Y-9110808D01*
X11424808Y-9322942D01*
X11636942Y-9322942D01*
X11789342Y-7163942D02*
X11789342Y-6951808D01*
X11577208Y-6951808D01*
X11577208Y-7163942D01*
X11789342Y-7163942D01*
X12089142Y-5512942D02*
X12089142Y-5300808D01*
X11877008Y-5300808D01*
X11877008Y-5512942D01*
X12089142Y-5512942D01*
X12271942Y-9068942D02*
X12271942Y-8856808D01*
X12059808Y-8856808D01*
X12059808Y-9068942D01*
X12271942Y-9068942D01*
X12573342Y-11228042D02*
X12573342Y-11015908D01*
X12361208Y-11015908D01*
X12361208Y-11228042D01*
X12573342Y-11228042D01*
X12724142Y-5258942D02*
X12724142Y-5046808D01*
X12512008Y-5046808D01*
X12512008Y-5258942D01*
X12724142Y-5258942D01*
X13054342Y-7417942D02*
X13054342Y-7205808D01*
X12842208Y-7205808D01*
X12842208Y-7417942D01*
X13054342Y-7417942D01*
X13208342Y-10974042D02*
X13208342Y-10761908D01*
X12996208Y-10761908D01*
X12996208Y-10974042D01*
X13208342Y-10974042D01*
X13536942Y-9322942D02*
X13536942Y-9110808D01*
X13324808Y-9110808D01*
X13324808Y-9322942D01*
X13536942Y-9322942D01*
X13689342Y-7163942D02*
X13689342Y-6951808D01*
X13477208Y-6951808D01*
X13477208Y-7163942D01*
X13689342Y-7163942D01*
X13989142Y-5512942D02*
X13989142Y-5300808D01*
X13777008Y-5300808D01*
X13777008Y-5512942D01*
X13989142Y-5512942D01*
X14171942Y-9068942D02*
X14171942Y-8856808D01*
X13959808Y-8856808D01*
X13959808Y-9068942D01*
X14171942Y-9068942D01*
X14473342Y-11228042D02*
X14473342Y-11015908D01*
X14261208Y-11015908D01*
X14261208Y-11228042D01*
X14473342Y-11228042D01*
X14624142Y-5258942D02*
X14624142Y-5046808D01*
X14412008Y-5046808D01*
X14412008Y-5258942D01*
X14624142Y-5258942D01*
X14739642Y-13133042D02*
X14739642Y-12920908D01*
X14527508Y-12920908D01*
X14527508Y-13133042D01*
X14739642Y-13133042D01*
X14954342Y-7417942D02*
X14954342Y-7205808D01*
X14742208Y-7205808D01*
X14742208Y-7417942D01*
X14954342Y-7417942D01*
X15108342Y-10974042D02*
X15108342Y-10761908D01*
X14896208Y-10761908D01*
X14896208Y-10974042D01*
X15108342Y-10974042D01*
X15374642Y-12879042D02*
X15374642Y-12666908D01*
X15162508Y-12666908D01*
X15162508Y-12879042D01*
X15374642Y-12879042D01*
X15436942Y-9322942D02*
X15436942Y-9110808D01*
X15224808Y-9110808D01*
X15224808Y-9322942D01*
X15436942Y-9322942D01*
X15589342Y-7163942D02*
X15589342Y-6951808D01*
X15377208Y-6951808D01*
X15377208Y-7163942D01*
X15589342Y-7163942D01*
X15889142Y-5512942D02*
X15889142Y-5300808D01*
X15677008Y-5300808D01*
X15677008Y-5512942D01*
X15889142Y-5512942D01*
X16071942Y-9068942D02*
X16071942Y-8856808D01*
X15859808Y-8856808D01*
X15859808Y-9068942D01*
X16071942Y-9068942D01*
X16373342Y-11228042D02*
X16373342Y-11015908D01*
X16161208Y-11015908D01*
X16161208Y-11228042D01*
X16373342Y-11228042D01*
X16524142Y-5258942D02*
X16524142Y-5046808D01*
X16312008Y-5046808D01*
X16312008Y-5258942D01*
X16524142Y-5258942D01*
X16854342Y-7417942D02*
X16854342Y-7205808D01*
X16642208Y-7205808D01*
X16642208Y-7417942D01*
X16854342Y-7417942D01*
X17008342Y-10974042D02*
X17008342Y-10761908D01*
X16796208Y-10761908D01*
X16796208Y-10974042D01*
X17008342Y-10974042D01*
X17336942Y-9322942D02*
X17336942Y-9110808D01*
X17124808Y-9110808D01*
X17124808Y-9322942D01*
X17336942Y-9322942D01*
X17489342Y-7163942D02*
X17489342Y-6951808D01*
X17277208Y-6951808D01*
X17277208Y-7163942D01*
X17489342Y-7163942D01*
X17789142Y-5512942D02*
X17789142Y-5300808D01*
X17577008Y-5300808D01*
X17577008Y-5512942D01*
X17789142Y-5512942D01*
X17971942Y-9068942D02*
X17971942Y-8856808D01*
X17759808Y-8856808D01*
X17759808Y-9068942D01*
X17971942Y-9068942D01*
X18273342Y-11228042D02*
X18273342Y-11015908D01*
X18061208Y-11015908D01*
X18061208Y-11228042D01*
X18273342Y-11228042D01*
X18424142Y-5258942D02*
X18424142Y-5046808D01*
X18212008Y-5046808D01*
X18212008Y-5258942D01*
X18424142Y-5258942D01*
X18754342Y-7417942D02*
X18754342Y-7205808D01*
X18542208Y-7205808D01*
X18542208Y-7417942D01*
X18754342Y-7417942D01*
X18908342Y-10974042D02*
X18908342Y-10761908D01*
X18696208Y-10761908D01*
X18696208Y-10974042D01*
X18908342Y-10974042D01*
X19236942Y-9322942D02*
X19236942Y-9110808D01*
X19024808Y-9110808D01*
X19024808Y-9322942D01*
X19236942Y-9322942D01*
X19389342Y-7163942D02*
X19389342Y-6951808D01*
X19177208Y-6951808D01*
X19177208Y-7163942D01*
X19389342Y-7163942D01*
X19689142Y-5512942D02*
X19689142Y-5300808D01*
X19477008Y-5300808D01*
X19477008Y-5512942D01*
X19689142Y-5512942D01*
X19871942Y-9068942D02*
X19871942Y-8856808D01*
X19659808Y-8856808D01*
X19659808Y-9068942D01*
X19871942Y-9068942D01*
X20173342Y-11228042D02*
X20173342Y-11015908D01*
X19961208Y-11015908D01*
X19961208Y-11228042D01*
X20173342Y-11228042D01*
X20324142Y-5258942D02*
X20324142Y-5046808D01*
X20112008Y-5046808D01*
X20112008Y-5258942D01*
X20324142Y-5258942D01*
X20654342Y-7417942D02*
X20654342Y-7205808D01*
X20442208Y-7205808D01*
X20442208Y-7417942D01*
X20654342Y-7417942D01*
X20808342Y-10974042D02*
X20808342Y-10761908D01*
X20596208Y-10761908D01*
X20596208Y-10974042D01*
X20808342Y-10974042D01*
X21136942Y-9322942D02*
X21136942Y-9110808D01*
X20924808Y-9110808D01*
X20924808Y-9322942D01*
X21136942Y-9322942D01*
X21289342Y-7163942D02*
X21289342Y-6951808D01*
X21077208Y-6951808D01*
X21077208Y-7163942D01*
X21289342Y-7163942D01*
X21589142Y-5512942D02*
X21589142Y-5300808D01*
X21377008Y-5300808D01*
X21377008Y-5512942D01*
X21589142Y-5512942D01*
X21640442Y-13132942D02*
X21640442Y-12920808D01*
X21428308Y-12920808D01*
X21428308Y-13132942D01*
X21640442Y-13132942D01*
X21771942Y-9068942D02*
X21771942Y-8856808D01*
X21559808Y-8856808D01*
X21559808Y-9068942D01*
X21771942Y-9068942D01*
X22073342Y-11228042D02*
X22073342Y-11015908D01*
X21861208Y-11015908D01*
X21861208Y-11228042D01*
X22073342Y-11228042D01*
X22224142Y-5258942D02*
X22224142Y-5046808D01*
X22012008Y-5046808D01*
X22012008Y-5258942D01*
X22224142Y-5258942D01*
X22275442Y-12878942D02*
X22275442Y-12666808D01*
X22063308Y-12666808D01*
X22063308Y-12878942D01*
X22275442Y-12878942D01*
X22554342Y-7417942D02*
X22554342Y-7205808D01*
X22342208Y-7205808D01*
X22342208Y-7417942D01*
X22554342Y-7417942D01*
X22708342Y-10974042D02*
X22708342Y-10761908D01*
X22496208Y-10761908D01*
X22496208Y-10974042D01*
X22708342Y-10974042D01*
X23036942Y-9322942D02*
X23036942Y-9110808D01*
X22824808Y-9110808D01*
X22824808Y-9322942D01*
X23036942Y-9322942D01*
X23189342Y-7163942D02*
X23189342Y-6951808D01*
X22977208Y-6951808D01*
X22977208Y-7163942D01*
X23189342Y-7163942D01*
X23489142Y-5512942D02*
X23489142Y-5300808D01*
X23277008Y-5300808D01*
X23277008Y-5512942D01*
X23489142Y-5512942D01*
X23540442Y-13132942D02*
X23540442Y-12920808D01*
X23328308Y-12920808D01*
X23328308Y-13132942D01*
X23540442Y-13132942D01*
X23671942Y-9068942D02*
X23671942Y-8856808D01*
X23459808Y-8856808D01*
X23459808Y-9068942D01*
X23671942Y-9068942D01*
X23973342Y-11228042D02*
X23973342Y-11015908D01*
X23761208Y-11015908D01*
X23761208Y-11228042D01*
X23973342Y-11228042D01*
X24124142Y-5258942D02*
X24124142Y-5046808D01*
X23912008Y-5046808D01*
X23912008Y-5258942D01*
X24124142Y-5258942D01*
X24175442Y-12878942D02*
X24175442Y-12666808D01*
X23963308Y-12666808D01*
X23963308Y-12878942D01*
X24175442Y-12878942D01*
X24454342Y-7417942D02*
X24454342Y-7205808D01*
X24242208Y-7205808D01*
X24242208Y-7417942D01*
X24454342Y-7417942D01*
X24608342Y-10974042D02*
X24608342Y-10761908D01*
X24396208Y-10761908D01*
X24396208Y-10974042D01*
X24608342Y-10974042D01*
X24936942Y-9322942D02*
X24936942Y-9110808D01*
X24724808Y-9110808D01*
X24724808Y-9322942D01*
X24936942Y-9322942D01*
X25089342Y-7163942D02*
X25089342Y-6951808D01*
X24877208Y-6951808D01*
X24877208Y-7163942D01*
X25089342Y-7163942D01*
X25389142Y-5512942D02*
X25389142Y-5300808D01*
X25177008Y-5300808D01*
X25177008Y-5512942D01*
X25389142Y-5512942D01*
X25440442Y-13132942D02*
X25440442Y-12920808D01*
X25228308Y-12920808D01*
X25228308Y-13132942D01*
X25440442Y-13132942D01*
X25571942Y-9068942D02*
X25571942Y-8856808D01*
X25359808Y-8856808D01*
X25359808Y-9068942D01*
X25571942Y-9068942D01*
X26024142Y-5258942D02*
X26024142Y-5046808D01*
X25812008Y-5046808D01*
X25812008Y-5258942D01*
X26024142Y-5258942D01*
X26075442Y-12878942D02*
X26075442Y-12666808D01*
X25863308Y-12666808D01*
X25863308Y-12878942D01*
X26075442Y-12878942D01*
X26354342Y-7417942D02*
X26354342Y-7205808D01*
X26142208Y-7205808D01*
X26142208Y-7417942D01*
X26354342Y-7417942D01*
X26601442Y-11228042D02*
X26601442Y-11015908D01*
X26389308Y-11015908D01*
X26389308Y-11228042D01*
X26601442Y-11228042D01*
X26836942Y-9322942D02*
X26836942Y-9110808D01*
X26624808Y-9110808D01*
X26624808Y-9322942D01*
X26836942Y-9322942D01*
X26989342Y-7163942D02*
X26989342Y-6951808D01*
X26777208Y-6951808D01*
X26777208Y-7163942D01*
X26989342Y-7163942D01*
X27236442Y-10974042D02*
X27236442Y-10761908D01*
X27024308Y-10761908D01*
X27024308Y-10974042D01*
X27236442Y-10974042D01*
X27340442Y-13132942D02*
X27340442Y-12920808D01*
X27128308Y-12920808D01*
X27128308Y-13132942D01*
X27340442Y-13132942D01*
X27471942Y-9068942D02*
X27471942Y-8856808D01*
X27259808Y-8856808D01*
X27259808Y-9068942D01*
X27471942Y-9068942D01*
X27975442Y-12878942D02*
X27975442Y-12666808D01*
X27763308Y-12666808D01*
X27763308Y-12878942D01*
X27975442Y-12878942D01*
X28250842Y-5512942D02*
X28250842Y-5300808D01*
X28038708Y-5300808D01*
X28038708Y-5512942D01*
X28250842Y-5512942D01*
X28885842Y-5258942D02*
X28885842Y-5046808D01*
X28673708Y-5046808D01*
X28673708Y-5258942D01*
X28885842Y-5258942D01*
X28987442Y-8370442D02*
X28987442Y-8158308D01*
X28775308Y-8158308D01*
X28775308Y-8370442D01*
X28987442Y-8370442D01*
X29230342Y-11228042D02*
X29230342Y-11015908D01*
X29018208Y-11015908D01*
X29018208Y-11228042D01*
X29230342Y-11228042D01*
X29240442Y-13132942D02*
X29240442Y-12920808D01*
X29028308Y-12920808D01*
X29028308Y-13132942D01*
X29240442Y-13132942D01*
X29622442Y-8116442D02*
X29622442Y-7904308D01*
X29410308Y-7904308D01*
X29410308Y-8116442D01*
X29622442Y-8116442D01*
X29865342Y-10974042D02*
X29865342Y-10761908D01*
X29653208Y-10761908D01*
X29653208Y-10974042D01*
X29865342Y-10974042D01*
X29875442Y-12878942D02*
X29875442Y-12666808D01*
X29663308Y-12666808D01*
X29663308Y-12878942D01*
X29875442Y-12878942D01*
X31130342Y-11228042D02*
X31130342Y-11015908D01*
X30918208Y-11015908D01*
X30918208Y-11228042D01*
X31130342Y-11228042D01*
X31133742Y-5508342D02*
X31133742Y-5296208D01*
X30921608Y-5296208D01*
X30921608Y-5508342D01*
X31133742Y-5508342D01*
X31133742Y-7417942D02*
X31133742Y-7205808D01*
X30921608Y-7205808D01*
X30921608Y-7417942D01*
X31133742Y-7417942D01*
X31133742Y-9322942D02*
X31133742Y-9110808D01*
X30921608Y-9110808D01*
X30921608Y-9322942D01*
X31133742Y-9322942D01*
X31140442Y-13132942D02*
X31140442Y-12920808D01*
X30928308Y-12920808D01*
X30928308Y-13132942D01*
X31140442Y-13132942D01*
X31765342Y-10974042D02*
X31765342Y-10761908D01*
X31553208Y-10761908D01*
X31553208Y-10974042D01*
X31765342Y-10974042D01*
X31768742Y-5254342D02*
X31768742Y-5042208D01*
X31556608Y-5042208D01*
X31556608Y-5254342D01*
X31768742Y-5254342D01*
X31768742Y-7163942D02*
X31768742Y-6951808D01*
X31556608Y-6951808D01*
X31556608Y-7163942D01*
X31768742Y-7163942D01*
X31768742Y-9068942D02*
X31768742Y-8856808D01*
X31556608Y-8856808D01*
X31556608Y-9068942D01*
X31768742Y-9068942D01*
X31775442Y-12878942D02*
X31775442Y-12666808D01*
X31563308Y-12666808D01*
X31563308Y-12878942D01*
X31775442Y-12878942D01*
D16*
X10014575Y-12734875D02*
X10166975Y-12582475D01*
X10014575Y-12430075D01*
X9862175Y-12582475D01*
X10014575Y-12734875D01*
X20014575Y-12734875D02*
X20166975Y-12582475D01*
X20014575Y-12430075D01*
X19862175Y-12582475D01*
X20014575Y-12734875D01*
X27331975Y-5114775D02*
X27484375Y-4962375D01*
X27331975Y-4809975D01*
X27179575Y-4962375D01*
X27331975Y-5114775D01*
X29719575Y-5114775D02*
X29871975Y-4962375D01*
X29719575Y-4809975D01*
X29567175Y-4962375D01*
X29719575Y-5114775D01*
D17*
X9815185Y-13907085D02*
X10213965Y-14305865D01*
X10213965Y-13907085D02*
X9815185Y-14305865D01*
X10213965Y-14106475D02*
G75*
G03*
X10213965Y-14106475I-199390J0D01*
G01*
X19815185Y-13907085D02*
X20213965Y-14305865D01*
X20213965Y-13907085D02*
X19815185Y-14305865D01*
X20213965Y-14106475D02*
G75*
G03*
X20213965Y-14106475I-199390J0D01*
G01*
X27132585Y-6286985D02*
X27531365Y-6685765D01*
X27531365Y-6286985D02*
X27132585Y-6685765D01*
X27531365Y-6486375D02*
G75*
G03*
X27531365Y-6486375I-199390J0D01*
G01*
X29520185Y-6286985D02*
X29918965Y-6685765D01*
X29918965Y-6286985D02*
X29520185Y-6685765D01*
X29918965Y-6486375D02*
G75*
G03*
X29918965Y-6486375I-199390J0D01*
G01*
D18*
X2656875Y-5456875D02*
X3066875Y-5866875D01*
X3066875Y-5456875D02*
X2656875Y-5866875D01*
X2861875Y-5456875D02*
X2861875Y-5866875D01*
X2656875Y-5661875D02*
X3066875Y-5661875D01*
X2890625Y-11170975D02*
X3300625Y-11580975D01*
X3300625Y-11170975D02*
X2890625Y-11580975D01*
X3095625Y-11170975D02*
X3095625Y-11580975D01*
X2890625Y-11375975D02*
X3300625Y-11375975D01*
X2895375Y-13075875D02*
X3305375Y-13485875D01*
X3305375Y-13075875D02*
X2895375Y-13485875D01*
X3100375Y-13075875D02*
X3100375Y-13485875D01*
X2895375Y-13280875D02*
X3305375Y-13280875D01*
X3136675Y-7360875D02*
X3546675Y-7770875D01*
X3546675Y-7360875D02*
X3136675Y-7770875D01*
X3341675Y-7360875D02*
X3341675Y-7770875D01*
X3136675Y-7565875D02*
X3546675Y-7565875D01*
X3377155Y-9263435D02*
X3787155Y-9673435D01*
X3787155Y-9263435D02*
X3377155Y-9673435D01*
X3582155Y-9263435D02*
X3582155Y-9673435D01*
X3377155Y-9468435D02*
X3787155Y-9468435D01*
X4559075Y-5455875D02*
X4969075Y-5865875D01*
X4969075Y-5455875D02*
X4559075Y-5865875D01*
X4764075Y-5455875D02*
X4764075Y-5865875D01*
X4559075Y-5660875D02*
X4969075Y-5660875D01*
X5043275Y-11170975D02*
X5453275Y-11580975D01*
X5453275Y-11170975D02*
X5043275Y-11580975D01*
X5248275Y-11170975D02*
X5248275Y-11580975D01*
X5043275Y-11375975D02*
X5453275Y-11375975D01*
X5271875Y-13075875D02*
X5681875Y-13485875D01*
X5681875Y-13075875D02*
X5271875Y-13485875D01*
X5476875Y-13075875D02*
X5476875Y-13485875D01*
X5271875Y-13280875D02*
X5681875Y-13280875D01*
X5524275Y-7360875D02*
X5934275Y-7770875D01*
X5934275Y-7360875D02*
X5524275Y-7770875D01*
X5729275Y-7360875D02*
X5729275Y-7770875D01*
X5524275Y-7565875D02*
X5934275Y-7565875D01*
X6006875Y-9265875D02*
X6416875Y-9675875D01*
X6416875Y-9265875D02*
X6006875Y-9675875D01*
X6211875Y-9265875D02*
X6211875Y-9675875D01*
X6006875Y-9470875D02*
X6416875Y-9470875D01*
X6459075Y-5455875D02*
X6869075Y-5865875D01*
X6869075Y-5455875D02*
X6459075Y-5865875D01*
X6664075Y-5455875D02*
X6664075Y-5865875D01*
X6459075Y-5660875D02*
X6869075Y-5660875D01*
X6943275Y-11170975D02*
X7353275Y-11580975D01*
X7353275Y-11170975D02*
X6943275Y-11580975D01*
X7148275Y-11170975D02*
X7148275Y-11580975D01*
X6943275Y-11375975D02*
X7353275Y-11375975D01*
X7424275Y-7360875D02*
X7834275Y-7770875D01*
X7834275Y-7360875D02*
X7424275Y-7770875D01*
X7629275Y-7360875D02*
X7629275Y-7770875D01*
X7424275Y-7565875D02*
X7834275Y-7565875D01*
X7659475Y-13075875D02*
X8069475Y-13485875D01*
X8069475Y-13075875D02*
X7659475Y-13485875D01*
X7864475Y-13075875D02*
X7864475Y-13485875D01*
X7659475Y-13280875D02*
X8069475Y-13280875D01*
X7906875Y-9265875D02*
X8316875Y-9675875D01*
X8316875Y-9265875D02*
X7906875Y-9675875D01*
X8111875Y-9265875D02*
X8111875Y-9675875D01*
X7906875Y-9470875D02*
X8316875Y-9470875D01*
X8359075Y-5455875D02*
X8769075Y-5865875D01*
X8769075Y-5455875D02*
X8359075Y-5865875D01*
X8564075Y-5455875D02*
X8564075Y-5865875D01*
X8359075Y-5660875D02*
X8769075Y-5660875D01*
X8843275Y-11170975D02*
X9253275Y-11580975D01*
X9253275Y-11170975D02*
X8843275Y-11580975D01*
X9048275Y-11170975D02*
X9048275Y-11580975D01*
X8843275Y-11375975D02*
X9253275Y-11375975D01*
X9324275Y-7360875D02*
X9734275Y-7770875D01*
X9734275Y-7360875D02*
X9324275Y-7770875D01*
X9529275Y-7360875D02*
X9529275Y-7770875D01*
X9324275Y-7565875D02*
X9734275Y-7565875D01*
X9806875Y-9265875D02*
X10216875Y-9675875D01*
X10216875Y-9265875D02*
X9806875Y-9675875D01*
X10011875Y-9265875D02*
X10011875Y-9675875D01*
X9806875Y-9470875D02*
X10216875Y-9470875D01*
X10259075Y-5455875D02*
X10669075Y-5865875D01*
X10669075Y-5455875D02*
X10259075Y-5865875D01*
X10464075Y-5455875D02*
X10464075Y-5865875D01*
X10259075Y-5660875D02*
X10669075Y-5660875D01*
X10743275Y-11170975D02*
X11153275Y-11580975D01*
X11153275Y-11170975D02*
X10743275Y-11580975D01*
X10948275Y-11170975D02*
X10948275Y-11580975D01*
X10743275Y-11375975D02*
X11153275Y-11375975D01*
X11224275Y-7360875D02*
X11634275Y-7770875D01*
X11634275Y-7360875D02*
X11224275Y-7770875D01*
X11429275Y-7360875D02*
X11429275Y-7770875D01*
X11224275Y-7565875D02*
X11634275Y-7565875D01*
X11706875Y-9265875D02*
X12116875Y-9675875D01*
X12116875Y-9265875D02*
X11706875Y-9675875D01*
X11911875Y-9265875D02*
X11911875Y-9675875D01*
X11706875Y-9470875D02*
X12116875Y-9470875D01*
X12159075Y-5455875D02*
X12569075Y-5865875D01*
X12569075Y-5455875D02*
X12159075Y-5865875D01*
X12364075Y-5455875D02*
X12364075Y-5865875D01*
X12159075Y-5660875D02*
X12569075Y-5660875D01*
X12643275Y-11170975D02*
X13053275Y-11580975D01*
X13053275Y-11170975D02*
X12643275Y-11580975D01*
X12848275Y-11170975D02*
X12848275Y-11580975D01*
X12643275Y-11375975D02*
X13053275Y-11375975D01*
X13124275Y-7360875D02*
X13534275Y-7770875D01*
X13534275Y-7360875D02*
X13124275Y-7770875D01*
X13329275Y-7360875D02*
X13329275Y-7770875D01*
X13124275Y-7565875D02*
X13534275Y-7565875D01*
X13606875Y-9265875D02*
X14016875Y-9675875D01*
X14016875Y-9265875D02*
X13606875Y-9675875D01*
X13811875Y-9265875D02*
X13811875Y-9675875D01*
X13606875Y-9470875D02*
X14016875Y-9470875D01*
X14059075Y-5455875D02*
X14469075Y-5865875D01*
X14469075Y-5455875D02*
X14059075Y-5865875D01*
X14264075Y-5455875D02*
X14264075Y-5865875D01*
X14059075Y-5660875D02*
X14469075Y-5660875D01*
X14543275Y-11170975D02*
X14953275Y-11580975D01*
X14953275Y-11170975D02*
X14543275Y-11580975D01*
X14748275Y-11170975D02*
X14748275Y-11580975D01*
X14543275Y-11375975D02*
X14953275Y-11375975D01*
X14809575Y-13075975D02*
X15219575Y-13485975D01*
X15219575Y-13075975D02*
X14809575Y-13485975D01*
X15014575Y-13075975D02*
X15014575Y-13485975D01*
X14809575Y-13280975D02*
X15219575Y-13280975D01*
X15024275Y-7360875D02*
X15434275Y-7770875D01*
X15434275Y-7360875D02*
X15024275Y-7770875D01*
X15229275Y-7360875D02*
X15229275Y-7770875D01*
X15024275Y-7565875D02*
X15434275Y-7565875D01*
X15506875Y-9265875D02*
X15916875Y-9675875D01*
X15916875Y-9265875D02*
X15506875Y-9675875D01*
X15711875Y-9265875D02*
X15711875Y-9675875D01*
X15506875Y-9470875D02*
X15916875Y-9470875D01*
X15959075Y-5455875D02*
X16369075Y-5865875D01*
X16369075Y-5455875D02*
X15959075Y-5865875D01*
X16164075Y-5455875D02*
X16164075Y-5865875D01*
X15959075Y-5660875D02*
X16369075Y-5660875D01*
X16443275Y-11170975D02*
X16853275Y-11580975D01*
X16853275Y-11170975D02*
X16443275Y-11580975D01*
X16648275Y-11170975D02*
X16648275Y-11580975D01*
X16443275Y-11375975D02*
X16853275Y-11375975D01*
X16924275Y-7360875D02*
X17334275Y-7770875D01*
X17334275Y-7360875D02*
X16924275Y-7770875D01*
X17129275Y-7360875D02*
X17129275Y-7770875D01*
X16924275Y-7565875D02*
X17334275Y-7565875D01*
X17406875Y-9265875D02*
X17816875Y-9675875D01*
X17816875Y-9265875D02*
X17406875Y-9675875D01*
X17611875Y-9265875D02*
X17611875Y-9675875D01*
X17406875Y-9470875D02*
X17816875Y-9470875D01*
X17859075Y-5455875D02*
X18269075Y-5865875D01*
X18269075Y-5455875D02*
X17859075Y-5865875D01*
X18064075Y-5455875D02*
X18064075Y-5865875D01*
X17859075Y-5660875D02*
X18269075Y-5660875D01*
X18343275Y-11170975D02*
X18753275Y-11580975D01*
X18753275Y-11170975D02*
X18343275Y-11580975D01*
X18548275Y-11170975D02*
X18548275Y-11580975D01*
X18343275Y-11375975D02*
X18753275Y-11375975D01*
X18824275Y-7360875D02*
X19234275Y-7770875D01*
X19234275Y-7360875D02*
X18824275Y-7770875D01*
X19029275Y-7360875D02*
X19029275Y-7770875D01*
X18824275Y-7565875D02*
X19234275Y-7565875D01*
X19306875Y-9265875D02*
X19716875Y-9675875D01*
X19716875Y-9265875D02*
X19306875Y-9675875D01*
X19511875Y-9265875D02*
X19511875Y-9675875D01*
X19306875Y-9470875D02*
X19716875Y-9470875D01*
X19759075Y-5455875D02*
X20169075Y-5865875D01*
X20169075Y-5455875D02*
X19759075Y-5865875D01*
X19964075Y-5455875D02*
X19964075Y-5865875D01*
X19759075Y-5660875D02*
X20169075Y-5660875D01*
X20243275Y-11170975D02*
X20653275Y-11580975D01*
X20653275Y-11170975D02*
X20243275Y-11580975D01*
X20448275Y-11170975D02*
X20448275Y-11580975D01*
X20243275Y-11375975D02*
X20653275Y-11375975D01*
X20724275Y-7360875D02*
X21134275Y-7770875D01*
X21134275Y-7360875D02*
X20724275Y-7770875D01*
X20929275Y-7360875D02*
X20929275Y-7770875D01*
X20724275Y-7565875D02*
X21134275Y-7565875D01*
X21206875Y-9265875D02*
X21616875Y-9675875D01*
X21616875Y-9265875D02*
X21206875Y-9675875D01*
X21411875Y-9265875D02*
X21411875Y-9675875D01*
X21206875Y-9470875D02*
X21616875Y-9470875D01*
X21659075Y-5455875D02*
X22069075Y-5865875D01*
X22069075Y-5455875D02*
X21659075Y-5865875D01*
X21864075Y-5455875D02*
X21864075Y-5865875D01*
X21659075Y-5660875D02*
X22069075Y-5660875D01*
X21710375Y-13075875D02*
X22120375Y-13485875D01*
X22120375Y-13075875D02*
X21710375Y-13485875D01*
X21915375Y-13075875D02*
X21915375Y-13485875D01*
X21710375Y-13280875D02*
X22120375Y-13280875D01*
X22143275Y-11170975D02*
X22553275Y-11580975D01*
X22553275Y-11170975D02*
X22143275Y-11580975D01*
X22348275Y-11170975D02*
X22348275Y-11580975D01*
X22143275Y-11375975D02*
X22553275Y-11375975D01*
X22624275Y-7360875D02*
X23034275Y-7770875D01*
X23034275Y-7360875D02*
X22624275Y-7770875D01*
X22829275Y-7360875D02*
X22829275Y-7770875D01*
X22624275Y-7565875D02*
X23034275Y-7565875D01*
X23106875Y-9265875D02*
X23516875Y-9675875D01*
X23516875Y-9265875D02*
X23106875Y-9675875D01*
X23311875Y-9265875D02*
X23311875Y-9675875D01*
X23106875Y-9470875D02*
X23516875Y-9470875D01*
X23559075Y-5455875D02*
X23969075Y-5865875D01*
X23969075Y-5455875D02*
X23559075Y-5865875D01*
X23764075Y-5455875D02*
X23764075Y-5865875D01*
X23559075Y-5660875D02*
X23969075Y-5660875D01*
X23610375Y-13075875D02*
X24020375Y-13485875D01*
X24020375Y-13075875D02*
X23610375Y-13485875D01*
X23815375Y-13075875D02*
X23815375Y-13485875D01*
X23610375Y-13280875D02*
X24020375Y-13280875D01*
X24043275Y-11170975D02*
X24453275Y-11580975D01*
X24453275Y-11170975D02*
X24043275Y-11580975D01*
X24248275Y-11170975D02*
X24248275Y-11580975D01*
X24043275Y-11375975D02*
X24453275Y-11375975D01*
X24524275Y-7360875D02*
X24934275Y-7770875D01*
X24934275Y-7360875D02*
X24524275Y-7770875D01*
X24729275Y-7360875D02*
X24729275Y-7770875D01*
X24524275Y-7565875D02*
X24934275Y-7565875D01*
X25006875Y-9265875D02*
X25416875Y-9675875D01*
X25416875Y-9265875D02*
X25006875Y-9675875D01*
X25211875Y-9265875D02*
X25211875Y-9675875D01*
X25006875Y-9470875D02*
X25416875Y-9470875D01*
X25459075Y-5455875D02*
X25869075Y-5865875D01*
X25869075Y-5455875D02*
X25459075Y-5865875D01*
X25664075Y-5455875D02*
X25664075Y-5865875D01*
X25459075Y-5660875D02*
X25869075Y-5660875D01*
X25510375Y-13075875D02*
X25920375Y-13485875D01*
X25920375Y-13075875D02*
X25510375Y-13485875D01*
X25715375Y-13075875D02*
X25715375Y-13485875D01*
X25510375Y-13280875D02*
X25920375Y-13280875D01*
X26424275Y-7360875D02*
X26834275Y-7770875D01*
X26834275Y-7360875D02*
X26424275Y-7770875D01*
X26629275Y-7360875D02*
X26629275Y-7770875D01*
X26424275Y-7565875D02*
X26834275Y-7565875D01*
X26671375Y-11170975D02*
X27081375Y-11580975D01*
X27081375Y-11170975D02*
X26671375Y-11580975D01*
X26876375Y-11170975D02*
X26876375Y-11580975D01*
X26671375Y-11375975D02*
X27081375Y-11375975D01*
X26906875Y-9265875D02*
X27316875Y-9675875D01*
X27316875Y-9265875D02*
X26906875Y-9675875D01*
X27111875Y-9265875D02*
X27111875Y-9675875D01*
X26906875Y-9470875D02*
X27316875Y-9470875D01*
X27410375Y-13075875D02*
X27820375Y-13485875D01*
X27820375Y-13075875D02*
X27410375Y-13485875D01*
X27615375Y-13075875D02*
X27615375Y-13485875D01*
X27410375Y-13280875D02*
X27820375Y-13280875D01*
X28320775Y-5455875D02*
X28730775Y-5865875D01*
X28730775Y-5455875D02*
X28320775Y-5865875D01*
X28525775Y-5455875D02*
X28525775Y-5865875D01*
X28320775Y-5660875D02*
X28730775Y-5660875D01*
X29057375Y-8313375D02*
X29467375Y-8723375D01*
X29467375Y-8313375D02*
X29057375Y-8723375D01*
X29262375Y-8313375D02*
X29262375Y-8723375D01*
X29057375Y-8518375D02*
X29467375Y-8518375D01*
X29300275Y-11170975D02*
X29710275Y-11580975D01*
X29710275Y-11170975D02*
X29300275Y-11580975D01*
X29505275Y-11170975D02*
X29505275Y-11580975D01*
X29300275Y-11375975D02*
X29710275Y-11375975D01*
X29310375Y-13075875D02*
X29720375Y-13485875D01*
X29720375Y-13075875D02*
X29310375Y-13485875D01*
X29515375Y-13075875D02*
X29515375Y-13485875D01*
X29310375Y-13280875D02*
X29720375Y-13280875D01*
X31200275Y-11170975D02*
X31610275Y-11580975D01*
X31610275Y-11170975D02*
X31200275Y-11580975D01*
X31405275Y-11170975D02*
X31405275Y-11580975D01*
X31200275Y-11375975D02*
X31610275Y-11375975D01*
X31203675Y-5451275D02*
X31613675Y-5861275D01*
X31613675Y-5451275D02*
X31203675Y-5861275D01*
X31408675Y-5451275D02*
X31408675Y-5861275D01*
X31203675Y-5656275D02*
X31613675Y-5656275D01*
X31203675Y-7360875D02*
X31613675Y-7770875D01*
X31613675Y-7360875D02*
X31203675Y-7770875D01*
X31408675Y-7360875D02*
X31408675Y-7770875D01*
X31203675Y-7565875D02*
X31613675Y-7565875D01*
X31203675Y-9265875D02*
X31613675Y-9675875D01*
X31613675Y-9265875D02*
X31203675Y-9675875D01*
X31408675Y-9265875D02*
X31408675Y-9675875D01*
X31203675Y-9470875D02*
X31613675Y-9470875D01*
X31210375Y-13075875D02*
X31620375Y-13485875D01*
X31620375Y-13075875D02*
X31210375Y-13485875D01*
X31415375Y-13075875D02*
X31415375Y-13485875D01*
X31210375Y-13280875D02*
X31620375Y-13280875D01*
D11*
X1875217Y-14858806D02*
X1875217Y-14658806D01*
X1922836Y-14658806D01*
X1951407Y-14668329D01*
X1970455Y-14687377D01*
X1979979Y-14706425D01*
X1989502Y-14744520D01*
X1989502Y-14773091D01*
X1979979Y-14811187D01*
X1970455Y-14830234D01*
X1951407Y-14849282D01*
X1922836Y-14858806D01*
X1875217Y-14858806D01*
X2075217Y-14858806D02*
X2075217Y-14725472D01*
X2075217Y-14763567D02*
X2084741Y-14744520D01*
X2094264Y-14734996D01*
X2113312Y-14725472D01*
X2132360Y-14725472D01*
X2199026Y-14858806D02*
X2199026Y-14725472D01*
X2199026Y-14658806D02*
X2189503Y-14668329D01*
X2199026Y-14677853D01*
X2208550Y-14668329D01*
X2199026Y-14658806D01*
X2199026Y-14677853D01*
X2322836Y-14858806D02*
X2303788Y-14849282D01*
X2294264Y-14830234D01*
X2294264Y-14658806D01*
X2427598Y-14858806D02*
X2408550Y-14849282D01*
X2399026Y-14830234D01*
X2399026Y-14658806D01*
X2656169Y-14858806D02*
X2656169Y-14658806D01*
X2722836Y-14801663D01*
X2789503Y-14658806D01*
X2789503Y-14858806D01*
X2970455Y-14858806D02*
X2970455Y-14754044D01*
X2960931Y-14734996D01*
X2941883Y-14725472D01*
X2903788Y-14725472D01*
X2884741Y-14734996D01*
X2970455Y-14849282D02*
X2951407Y-14858806D01*
X2903788Y-14858806D01*
X2884741Y-14849282D01*
X2875217Y-14830234D01*
X2875217Y-14811187D01*
X2884741Y-14792139D01*
X2903788Y-14782615D01*
X2951407Y-14782615D01*
X2970455Y-14773091D01*
X3065693Y-14725472D02*
X3065693Y-14925472D01*
X3065693Y-14734996D02*
X3084741Y-14725472D01*
X3122836Y-14725472D01*
X3141883Y-14734996D01*
X3151407Y-14744520D01*
X3160931Y-14763567D01*
X3160931Y-14820710D01*
X3151407Y-14839758D01*
X3141883Y-14849282D01*
X3122836Y-14858806D01*
X3084741Y-14858806D01*
X3065693Y-14849282D01*
X3246645Y-14839758D02*
X3256169Y-14849282D01*
X3246645Y-14858806D01*
X3237122Y-14849282D01*
X3246645Y-14839758D01*
X3246645Y-14858806D01*
X3246645Y-14734996D02*
X3256169Y-14744520D01*
X3246645Y-14754044D01*
X3237122Y-14744520D01*
X3246645Y-14734996D01*
X3246645Y-14754044D01*
D12*
X1467598Y-15113329D02*
X1617598Y-15263329D01*
X1617598Y-15113329D02*
X1467598Y-15263329D01*
D11*
X1979979Y-15278806D02*
X1865693Y-15278806D01*
X1922836Y-15278806D02*
X1922836Y-15078806D01*
X1903788Y-15107377D01*
X1884741Y-15126425D01*
X1865693Y-15135948D01*
X2065693Y-15259758D02*
X2075217Y-15269282D01*
X2065693Y-15278806D01*
X2056169Y-15269282D01*
X2065693Y-15259758D01*
X2065693Y-15278806D01*
X2256169Y-15078806D02*
X2160931Y-15078806D01*
X2151407Y-15174044D01*
X2160931Y-15164520D01*
X2179979Y-15154996D01*
X2227598Y-15154996D01*
X2246645Y-15164520D01*
X2256169Y-15174044D01*
X2265693Y-15193091D01*
X2265693Y-15240710D01*
X2256169Y-15259758D01*
X2246645Y-15269282D01*
X2227598Y-15278806D01*
X2179979Y-15278806D01*
X2160931Y-15269282D01*
X2151407Y-15259758D01*
X2389503Y-15078806D02*
X2408550Y-15078806D01*
X2427598Y-15088329D01*
X2437122Y-15097853D01*
X2446645Y-15116901D01*
X2456169Y-15154996D01*
X2456169Y-15202615D01*
X2446645Y-15240710D01*
X2437122Y-15259758D01*
X2427598Y-15269282D01*
X2408550Y-15278806D01*
X2389503Y-15278806D01*
X2370455Y-15269282D01*
X2360931Y-15259758D01*
X2351407Y-15240710D01*
X2341884Y-15202615D01*
X2341884Y-15154996D01*
X2351407Y-15116901D01*
X2360931Y-15097853D01*
X2370455Y-15088329D01*
X2389503Y-15078806D01*
X2579979Y-15078806D02*
X2599026Y-15078806D01*
X2618074Y-15088329D01*
X2627598Y-15097853D01*
X2637122Y-15116901D01*
X2646645Y-15154996D01*
X2646645Y-15202615D01*
X2637122Y-15240710D01*
X2627598Y-15259758D01*
X2618074Y-15269282D01*
X2599026Y-15278806D01*
X2579979Y-15278806D01*
X2560931Y-15269282D01*
X2551407Y-15259758D01*
X2541884Y-15240710D01*
X2532360Y-15202615D01*
X2532360Y-15154996D01*
X2541884Y-15116901D01*
X2551407Y-15097853D01*
X2560931Y-15088329D01*
X2579979Y-15078806D01*
X2732360Y-15278806D02*
X2732360Y-15145472D01*
X2732360Y-15164520D02*
X2741884Y-15154996D01*
X2760931Y-15145472D01*
X2789503Y-15145472D01*
X2808550Y-15154996D01*
X2818074Y-15174044D01*
X2818074Y-15278806D01*
X2818074Y-15174044D02*
X2827598Y-15154996D01*
X2846645Y-15145472D01*
X2875217Y-15145472D01*
X2894264Y-15154996D01*
X2903788Y-15174044D01*
X2903788Y-15278806D01*
X2999026Y-15278806D02*
X2999026Y-15145472D01*
X2999026Y-15164520D02*
X3008550Y-15154996D01*
X3027598Y-15145472D01*
X3056169Y-15145472D01*
X3075217Y-15154996D01*
X3084741Y-15174044D01*
X3084741Y-15278806D01*
X3084741Y-15174044D02*
X3094264Y-15154996D01*
X3113312Y-15145472D01*
X3141883Y-15145472D01*
X3160931Y-15154996D01*
X3170455Y-15174044D01*
X3170455Y-15278806D01*
X3560931Y-15069282D02*
X3389502Y-15326425D01*
X3818074Y-15078806D02*
X3837122Y-15078806D01*
X3856169Y-15088329D01*
X3865693Y-15097853D01*
X3875217Y-15116901D01*
X3884741Y-15154996D01*
X3884741Y-15202615D01*
X3875217Y-15240710D01*
X3865693Y-15259758D01*
X3856169Y-15269282D01*
X3837122Y-15278806D01*
X3818074Y-15278806D01*
X3799026Y-15269282D01*
X3789502Y-15259758D01*
X3779979Y-15240710D01*
X3770455Y-15202615D01*
X3770455Y-15154996D01*
X3779979Y-15116901D01*
X3789502Y-15097853D01*
X3799026Y-15088329D01*
X3818074Y-15078806D01*
X3970455Y-15259758D02*
X3979979Y-15269282D01*
X3970455Y-15278806D01*
X3960931Y-15269282D01*
X3970455Y-15259758D01*
X3970455Y-15278806D01*
X4103788Y-15078806D02*
X4122836Y-15078806D01*
X4141883Y-15088329D01*
X4151407Y-15097853D01*
X4160931Y-15116901D01*
X4170455Y-15154996D01*
X4170455Y-15202615D01*
X4160931Y-15240710D01*
X4151407Y-15259758D01*
X4141883Y-15269282D01*
X4122836Y-15278806D01*
X4103788Y-15278806D01*
X4084741Y-15269282D01*
X4075217Y-15259758D01*
X4065693Y-15240710D01*
X4056169Y-15202615D01*
X4056169Y-15154996D01*
X4065693Y-15116901D01*
X4075217Y-15097853D01*
X4084741Y-15088329D01*
X4103788Y-15078806D01*
X4351407Y-15078806D02*
X4256169Y-15078806D01*
X4246645Y-15174044D01*
X4256169Y-15164520D01*
X4275217Y-15154996D01*
X4322836Y-15154996D01*
X4341884Y-15164520D01*
X4351407Y-15174044D01*
X4360931Y-15193091D01*
X4360931Y-15240710D01*
X4351407Y-15259758D01*
X4341884Y-15269282D01*
X4322836Y-15278806D01*
X4275217Y-15278806D01*
X4256169Y-15269282D01*
X4246645Y-15259758D01*
X4456169Y-15278806D02*
X4494264Y-15278806D01*
X4513312Y-15269282D01*
X4522836Y-15259758D01*
X4541884Y-15231187D01*
X4551407Y-15193091D01*
X4551407Y-15116901D01*
X4541884Y-15097853D01*
X4532360Y-15088329D01*
X4513312Y-15078806D01*
X4475217Y-15078806D01*
X4456169Y-15088329D01*
X4446645Y-15097853D01*
X4437122Y-15116901D01*
X4437122Y-15164520D01*
X4446645Y-15183567D01*
X4456169Y-15193091D01*
X4475217Y-15202615D01*
X4513312Y-15202615D01*
X4532360Y-15193091D01*
X4541884Y-15183567D01*
X4551407Y-15164520D01*
X4741884Y-15278806D02*
X4627598Y-15278806D01*
X4684741Y-15278806D02*
X4684741Y-15078806D01*
X4665693Y-15107377D01*
X4646645Y-15126425D01*
X4627598Y-15135948D01*
X4818074Y-15078806D02*
X4818074Y-15116901D01*
X4894264Y-15078806D02*
X4894264Y-15116901D01*
X5189503Y-15354996D02*
X5179979Y-15345472D01*
X5160931Y-15316901D01*
X5151407Y-15297853D01*
X5141884Y-15269282D01*
X5132360Y-15221663D01*
X5132360Y-15183567D01*
X5141884Y-15135948D01*
X5151407Y-15107377D01*
X5160931Y-15088329D01*
X5179979Y-15059758D01*
X5189503Y-15050234D01*
X5303788Y-15078806D02*
X5322836Y-15078806D01*
X5341884Y-15088329D01*
X5351407Y-15097853D01*
X5360931Y-15116901D01*
X5370455Y-15154996D01*
X5370455Y-15202615D01*
X5360931Y-15240710D01*
X5351407Y-15259758D01*
X5341884Y-15269282D01*
X5322836Y-15278806D01*
X5303788Y-15278806D01*
X5284741Y-15269282D01*
X5275217Y-15259758D01*
X5265693Y-15240710D01*
X5256169Y-15202615D01*
X5256169Y-15154996D01*
X5265693Y-15116901D01*
X5275217Y-15097853D01*
X5284741Y-15088329D01*
X5303788Y-15078806D01*
X5608550Y-15278806D02*
X5608550Y-15078806D01*
X5694264Y-15278806D02*
X5694264Y-15174044D01*
X5684741Y-15154996D01*
X5665693Y-15145472D01*
X5637122Y-15145472D01*
X5618074Y-15154996D01*
X5608550Y-15164520D01*
X5818074Y-15278806D02*
X5799026Y-15269282D01*
X5789502Y-15259758D01*
X5779979Y-15240710D01*
X5779979Y-15183567D01*
X5789502Y-15164520D01*
X5799026Y-15154996D01*
X5818074Y-15145472D01*
X5846645Y-15145472D01*
X5865693Y-15154996D01*
X5875217Y-15164520D01*
X5884741Y-15183567D01*
X5884741Y-15240710D01*
X5875217Y-15259758D01*
X5865693Y-15269282D01*
X5846645Y-15278806D01*
X5818074Y-15278806D01*
X5999026Y-15278806D02*
X5979979Y-15269282D01*
X5970455Y-15250234D01*
X5970455Y-15078806D01*
X6151407Y-15269282D02*
X6132360Y-15278806D01*
X6094264Y-15278806D01*
X6075217Y-15269282D01*
X6065693Y-15250234D01*
X6065693Y-15174044D01*
X6075217Y-15154996D01*
X6094264Y-15145472D01*
X6132360Y-15145472D01*
X6151407Y-15154996D01*
X6160931Y-15174044D01*
X6160931Y-15193091D01*
X6065693Y-15212139D01*
X6237122Y-15269282D02*
X6256169Y-15278806D01*
X6294264Y-15278806D01*
X6313312Y-15269282D01*
X6322836Y-15250234D01*
X6322836Y-15240710D01*
X6313312Y-15221663D01*
X6294264Y-15212139D01*
X6265693Y-15212139D01*
X6246645Y-15202615D01*
X6237122Y-15183567D01*
X6237122Y-15174044D01*
X6246645Y-15154996D01*
X6265693Y-15145472D01*
X6294264Y-15145472D01*
X6313312Y-15154996D01*
X6560931Y-15202615D02*
X6713312Y-15202615D01*
X6637122Y-15278806D02*
X6637122Y-15126425D01*
X6951407Y-15097853D02*
X6960931Y-15088329D01*
X6979979Y-15078806D01*
X7027598Y-15078806D01*
X7046645Y-15088329D01*
X7056169Y-15097853D01*
X7065693Y-15116901D01*
X7065693Y-15135948D01*
X7056169Y-15164520D01*
X6941883Y-15278806D01*
X7065693Y-15278806D01*
X7294264Y-15269282D02*
X7313312Y-15278806D01*
X7351407Y-15278806D01*
X7370455Y-15269282D01*
X7379979Y-15250234D01*
X7379979Y-15240710D01*
X7370455Y-15221663D01*
X7351407Y-15212139D01*
X7322836Y-15212139D01*
X7303788Y-15202615D01*
X7294264Y-15183567D01*
X7294264Y-15174044D01*
X7303788Y-15154996D01*
X7322836Y-15145472D01*
X7351407Y-15145472D01*
X7370455Y-15154996D01*
X7494264Y-15278806D02*
X7475217Y-15269282D01*
X7465693Y-15250234D01*
X7465693Y-15078806D01*
X7599026Y-15278806D02*
X7579979Y-15269282D01*
X7570455Y-15259758D01*
X7560931Y-15240710D01*
X7560931Y-15183567D01*
X7570455Y-15164520D01*
X7579979Y-15154996D01*
X7599026Y-15145472D01*
X7627598Y-15145472D01*
X7646645Y-15154996D01*
X7656169Y-15164520D01*
X7665693Y-15183567D01*
X7665693Y-15240710D01*
X7656169Y-15259758D01*
X7646645Y-15269282D01*
X7627598Y-15278806D01*
X7599026Y-15278806D01*
X7722836Y-15145472D02*
X7799026Y-15145472D01*
X7751407Y-15078806D02*
X7751407Y-15250234D01*
X7760931Y-15269282D01*
X7779979Y-15278806D01*
X7799026Y-15278806D01*
X7856169Y-15269282D02*
X7875217Y-15278806D01*
X7913312Y-15278806D01*
X7932360Y-15269282D01*
X7941883Y-15250234D01*
X7941883Y-15240710D01*
X7932360Y-15221663D01*
X7913312Y-15212139D01*
X7884741Y-15212139D01*
X7865693Y-15202615D01*
X7856169Y-15183567D01*
X7856169Y-15174044D01*
X7865693Y-15154996D01*
X7884741Y-15145472D01*
X7913312Y-15145472D01*
X7932360Y-15154996D01*
X8008550Y-15354996D02*
X8018074Y-15345472D01*
X8037122Y-15316901D01*
X8046645Y-15297853D01*
X8056169Y-15269282D01*
X8065693Y-15221663D01*
X8065693Y-15183567D01*
X8056169Y-15135948D01*
X8046645Y-15107377D01*
X8037122Y-15088329D01*
X8018074Y-15059758D01*
X8008550Y-15050234D01*
X8370455Y-15354996D02*
X8360931Y-15345472D01*
X8341883Y-15316901D01*
X8332360Y-15297853D01*
X8322836Y-15269282D01*
X8313312Y-15221663D01*
X8313312Y-15183567D01*
X8322836Y-15135948D01*
X8332360Y-15107377D01*
X8341883Y-15088329D01*
X8360931Y-15059758D01*
X8370455Y-15050234D01*
X8446645Y-15145472D02*
X8446645Y-15278806D01*
X8446645Y-15164520D02*
X8456169Y-15154996D01*
X8475217Y-15145472D01*
X8503788Y-15145472D01*
X8522836Y-15154996D01*
X8532360Y-15174044D01*
X8532360Y-15278806D01*
X8656169Y-15278806D02*
X8637122Y-15269282D01*
X8627598Y-15259758D01*
X8618074Y-15240710D01*
X8618074Y-15183567D01*
X8627598Y-15164520D01*
X8637122Y-15154996D01*
X8656169Y-15145472D01*
X8684741Y-15145472D01*
X8703788Y-15154996D01*
X8713312Y-15164520D01*
X8722836Y-15183567D01*
X8722836Y-15240710D01*
X8713312Y-15259758D01*
X8703788Y-15269282D01*
X8684741Y-15278806D01*
X8656169Y-15278806D01*
X8779979Y-15145472D02*
X8856169Y-15145472D01*
X8808550Y-15078806D02*
X8808550Y-15250234D01*
X8818074Y-15269282D01*
X8837122Y-15278806D01*
X8856169Y-15278806D01*
X9075217Y-15145472D02*
X9075217Y-15345472D01*
X9075217Y-15154996D02*
X9094264Y-15145472D01*
X9132360Y-15145472D01*
X9151407Y-15154996D01*
X9160931Y-15164520D01*
X9170455Y-15183567D01*
X9170455Y-15240710D01*
X9160931Y-15259758D01*
X9151407Y-15269282D01*
X9132360Y-15278806D01*
X9094264Y-15278806D01*
X9075217Y-15269282D01*
X9284741Y-15278806D02*
X9265693Y-15269282D01*
X9256169Y-15250234D01*
X9256169Y-15078806D01*
X9446645Y-15278806D02*
X9446645Y-15174044D01*
X9437122Y-15154996D01*
X9418074Y-15145472D01*
X9379979Y-15145472D01*
X9360931Y-15154996D01*
X9446645Y-15269282D02*
X9427598Y-15278806D01*
X9379979Y-15278806D01*
X9360931Y-15269282D01*
X9351407Y-15250234D01*
X9351407Y-15231187D01*
X9360931Y-15212139D01*
X9379979Y-15202615D01*
X9427598Y-15202615D01*
X9446645Y-15193091D01*
X9513312Y-15145472D02*
X9589503Y-15145472D01*
X9541884Y-15078806D02*
X9541884Y-15250234D01*
X9551407Y-15269282D01*
X9570455Y-15278806D01*
X9589503Y-15278806D01*
X9732360Y-15269282D02*
X9713312Y-15278806D01*
X9675217Y-15278806D01*
X9656169Y-15269282D01*
X9646645Y-15250234D01*
X9646645Y-15174044D01*
X9656169Y-15154996D01*
X9675217Y-15145472D01*
X9713312Y-15145472D01*
X9732360Y-15154996D01*
X9741884Y-15174044D01*
X9741884Y-15193091D01*
X9646645Y-15212139D01*
X9913312Y-15278806D02*
X9913312Y-15078806D01*
X9913312Y-15269282D02*
X9894264Y-15278806D01*
X9856169Y-15278806D01*
X9837122Y-15269282D01*
X9827598Y-15259758D01*
X9818074Y-15240710D01*
X9818074Y-15183567D01*
X9827598Y-15164520D01*
X9837122Y-15154996D01*
X9856169Y-15145472D01*
X9894264Y-15145472D01*
X9913312Y-15154996D01*
X9989503Y-15354996D02*
X9999026Y-15345472D01*
X10018074Y-15316901D01*
X10027598Y-15297853D01*
X10037122Y-15269282D01*
X10046645Y-15221663D01*
X10046645Y-15183567D01*
X10037122Y-15135948D01*
X10027598Y-15107377D01*
X10018074Y-15088329D01*
X9999026Y-15059758D01*
X9989503Y-15050234D01*
D13*
X1617598Y-15458329D02*
G75*
G03*
X1617598Y-15458329I-95000J0D01*
G01*
D11*
X1979979Y-15548806D02*
X1865693Y-15548806D01*
X1922836Y-15548806D02*
X1922836Y-15348806D01*
X1903788Y-15377377D01*
X1884741Y-15396425D01*
X1865693Y-15405948D01*
X2065693Y-15529758D02*
X2075217Y-15539282D01*
X2065693Y-15548806D01*
X2056169Y-15539282D01*
X2065693Y-15529758D01*
X2065693Y-15548806D01*
X2170455Y-15548806D02*
X2208550Y-15548806D01*
X2227598Y-15539282D01*
X2237122Y-15529758D01*
X2256169Y-15501187D01*
X2265693Y-15463091D01*
X2265693Y-15386901D01*
X2256169Y-15367853D01*
X2246645Y-15358329D01*
X2227598Y-15348806D01*
X2189503Y-15348806D01*
X2170455Y-15358329D01*
X2160931Y-15367853D01*
X2151407Y-15386901D01*
X2151407Y-15434520D01*
X2160931Y-15453567D01*
X2170455Y-15463091D01*
X2189503Y-15472615D01*
X2227598Y-15472615D01*
X2246645Y-15463091D01*
X2256169Y-15453567D01*
X2265693Y-15434520D01*
X2389503Y-15348806D02*
X2408550Y-15348806D01*
X2427598Y-15358329D01*
X2437122Y-15367853D01*
X2446645Y-15386901D01*
X2456169Y-15424996D01*
X2456169Y-15472615D01*
X2446645Y-15510710D01*
X2437122Y-15529758D01*
X2427598Y-15539282D01*
X2408550Y-15548806D01*
X2389503Y-15548806D01*
X2370455Y-15539282D01*
X2360931Y-15529758D01*
X2351407Y-15510710D01*
X2341884Y-15472615D01*
X2341884Y-15424996D01*
X2351407Y-15386901D01*
X2360931Y-15367853D01*
X2370455Y-15358329D01*
X2389503Y-15348806D01*
X2579979Y-15348806D02*
X2599026Y-15348806D01*
X2618074Y-15358329D01*
X2627598Y-15367853D01*
X2637122Y-15386901D01*
X2646645Y-15424996D01*
X2646645Y-15472615D01*
X2637122Y-15510710D01*
X2627598Y-15529758D01*
X2618074Y-15539282D01*
X2599026Y-15548806D01*
X2579979Y-15548806D01*
X2560931Y-15539282D01*
X2551407Y-15529758D01*
X2541884Y-15510710D01*
X2532360Y-15472615D01*
X2532360Y-15424996D01*
X2541884Y-15386901D01*
X2551407Y-15367853D01*
X2560931Y-15358329D01*
X2579979Y-15348806D01*
X2732360Y-15548806D02*
X2732360Y-15415472D01*
X2732360Y-15434520D02*
X2741884Y-15424996D01*
X2760931Y-15415472D01*
X2789503Y-15415472D01*
X2808550Y-15424996D01*
X2818074Y-15444044D01*
X2818074Y-15548806D01*
X2818074Y-15444044D02*
X2827598Y-15424996D01*
X2846645Y-15415472D01*
X2875217Y-15415472D01*
X2894264Y-15424996D01*
X2903788Y-15444044D01*
X2903788Y-15548806D01*
X2999026Y-15548806D02*
X2999026Y-15415472D01*
X2999026Y-15434520D02*
X3008550Y-15424996D01*
X3027598Y-15415472D01*
X3056169Y-15415472D01*
X3075217Y-15424996D01*
X3084741Y-15444044D01*
X3084741Y-15548806D01*
X3084741Y-15444044D02*
X3094264Y-15424996D01*
X3113312Y-15415472D01*
X3141883Y-15415472D01*
X3160931Y-15424996D01*
X3170455Y-15444044D01*
X3170455Y-15548806D01*
X3560931Y-15339282D02*
X3389502Y-15596425D01*
X3818074Y-15348806D02*
X3837122Y-15348806D01*
X3856169Y-15358329D01*
X3865693Y-15367853D01*
X3875217Y-15386901D01*
X3884741Y-15424996D01*
X3884741Y-15472615D01*
X3875217Y-15510710D01*
X3865693Y-15529758D01*
X3856169Y-15539282D01*
X3837122Y-15548806D01*
X3818074Y-15548806D01*
X3799026Y-15539282D01*
X3789502Y-15529758D01*
X3779979Y-15510710D01*
X3770455Y-15472615D01*
X3770455Y-15424996D01*
X3779979Y-15386901D01*
X3789502Y-15367853D01*
X3799026Y-15358329D01*
X3818074Y-15348806D01*
X3970455Y-15529758D02*
X3979979Y-15539282D01*
X3970455Y-15548806D01*
X3960931Y-15539282D01*
X3970455Y-15529758D01*
X3970455Y-15548806D01*
X4103788Y-15348806D02*
X4122836Y-15348806D01*
X4141883Y-15358329D01*
X4151407Y-15367853D01*
X4160931Y-15386901D01*
X4170455Y-15424996D01*
X4170455Y-15472615D01*
X4160931Y-15510710D01*
X4151407Y-15529758D01*
X4141883Y-15539282D01*
X4122836Y-15548806D01*
X4103788Y-15548806D01*
X4084741Y-15539282D01*
X4075217Y-15529758D01*
X4065693Y-15510710D01*
X4056169Y-15472615D01*
X4056169Y-15424996D01*
X4065693Y-15386901D01*
X4075217Y-15367853D01*
X4084741Y-15358329D01*
X4103788Y-15348806D01*
X4237122Y-15348806D02*
X4370455Y-15348806D01*
X4284741Y-15548806D01*
X4532360Y-15415472D02*
X4532360Y-15548806D01*
X4484741Y-15339282D02*
X4437122Y-15482139D01*
X4560931Y-15482139D01*
X4665693Y-15434520D02*
X4646645Y-15424996D01*
X4637122Y-15415472D01*
X4627598Y-15396425D01*
X4627598Y-15386901D01*
X4637122Y-15367853D01*
X4646645Y-15358329D01*
X4665693Y-15348806D01*
X4703788Y-15348806D01*
X4722836Y-15358329D01*
X4732360Y-15367853D01*
X4741884Y-15386901D01*
X4741884Y-15396425D01*
X4732360Y-15415472D01*
X4722836Y-15424996D01*
X4703788Y-15434520D01*
X4665693Y-15434520D01*
X4646645Y-15444044D01*
X4637122Y-15453567D01*
X4627598Y-15472615D01*
X4627598Y-15510710D01*
X4637122Y-15529758D01*
X4646645Y-15539282D01*
X4665693Y-15548806D01*
X4703788Y-15548806D01*
X4722836Y-15539282D01*
X4732360Y-15529758D01*
X4741884Y-15510710D01*
X4741884Y-15472615D01*
X4732360Y-15453567D01*
X4722836Y-15444044D01*
X4703788Y-15434520D01*
X4818074Y-15348806D02*
X4818074Y-15386901D01*
X4894264Y-15348806D02*
X4894264Y-15386901D01*
X5189503Y-15624996D02*
X5179979Y-15615472D01*
X5160931Y-15586901D01*
X5151407Y-15567853D01*
X5141884Y-15539282D01*
X5132360Y-15491663D01*
X5132360Y-15453567D01*
X5141884Y-15405948D01*
X5151407Y-15377377D01*
X5160931Y-15358329D01*
X5179979Y-15329758D01*
X5189503Y-15320234D01*
X5370455Y-15548806D02*
X5256169Y-15548806D01*
X5313312Y-15548806D02*
X5313312Y-15348806D01*
X5294264Y-15377377D01*
X5275217Y-15396425D01*
X5256169Y-15405948D01*
X5437122Y-15348806D02*
X5560931Y-15348806D01*
X5494264Y-15424996D01*
X5522836Y-15424996D01*
X5541884Y-15434520D01*
X5551407Y-15444044D01*
X5560931Y-15463091D01*
X5560931Y-15510710D01*
X5551407Y-15529758D01*
X5541884Y-15539282D01*
X5522836Y-15548806D01*
X5465693Y-15548806D01*
X5446645Y-15539282D01*
X5437122Y-15529758D01*
X5675217Y-15434520D02*
X5656169Y-15424996D01*
X5646645Y-15415472D01*
X5637122Y-15396425D01*
X5637122Y-15386901D01*
X5646645Y-15367853D01*
X5656169Y-15358329D01*
X5675217Y-15348806D01*
X5713312Y-15348806D01*
X5732360Y-15358329D01*
X5741883Y-15367853D01*
X5751407Y-15386901D01*
X5751407Y-15396425D01*
X5741883Y-15415472D01*
X5732360Y-15424996D01*
X5713312Y-15434520D01*
X5675217Y-15434520D01*
X5656169Y-15444044D01*
X5646645Y-15453567D01*
X5637122Y-15472615D01*
X5637122Y-15510710D01*
X5646645Y-15529758D01*
X5656169Y-15539282D01*
X5675217Y-15548806D01*
X5713312Y-15548806D01*
X5732360Y-15539282D01*
X5741883Y-15529758D01*
X5751407Y-15510710D01*
X5751407Y-15472615D01*
X5741883Y-15453567D01*
X5732360Y-15444044D01*
X5713312Y-15434520D01*
X5989502Y-15548806D02*
X5989502Y-15348806D01*
X6075217Y-15548806D02*
X6075217Y-15444044D01*
X6065693Y-15424996D01*
X6046645Y-15415472D01*
X6018074Y-15415472D01*
X5999026Y-15424996D01*
X5989502Y-15434520D01*
X6199026Y-15548806D02*
X6179979Y-15539282D01*
X6170455Y-15529758D01*
X6160931Y-15510710D01*
X6160931Y-15453567D01*
X6170455Y-15434520D01*
X6179979Y-15424996D01*
X6199026Y-15415472D01*
X6227598Y-15415472D01*
X6246645Y-15424996D01*
X6256169Y-15434520D01*
X6265693Y-15453567D01*
X6265693Y-15510710D01*
X6256169Y-15529758D01*
X6246645Y-15539282D01*
X6227598Y-15548806D01*
X6199026Y-15548806D01*
X6379979Y-15548806D02*
X6360931Y-15539282D01*
X6351407Y-15520234D01*
X6351407Y-15348806D01*
X6532360Y-15539282D02*
X6513312Y-15548806D01*
X6475217Y-15548806D01*
X6456169Y-15539282D01*
X6446645Y-15520234D01*
X6446645Y-15444044D01*
X6456169Y-15424996D01*
X6475217Y-15415472D01*
X6513312Y-15415472D01*
X6532360Y-15424996D01*
X6541883Y-15444044D01*
X6541883Y-15463091D01*
X6446645Y-15482139D01*
X6618074Y-15539282D02*
X6637122Y-15548806D01*
X6675217Y-15548806D01*
X6694264Y-15539282D01*
X6703788Y-15520234D01*
X6703788Y-15510710D01*
X6694264Y-15491663D01*
X6675217Y-15482139D01*
X6646645Y-15482139D01*
X6627598Y-15472615D01*
X6618074Y-15453567D01*
X6618074Y-15444044D01*
X6627598Y-15424996D01*
X6646645Y-15415472D01*
X6675217Y-15415472D01*
X6694264Y-15424996D01*
X6770455Y-15624996D02*
X6779979Y-15615472D01*
X6799026Y-15586901D01*
X6808550Y-15567853D01*
X6818074Y-15539282D01*
X6827598Y-15491663D01*
X6827598Y-15453567D01*
X6818074Y-15405948D01*
X6808550Y-15377377D01*
X6799026Y-15358329D01*
X6779979Y-15329758D01*
X6770455Y-15320234D01*
X7132360Y-15624996D02*
X7122836Y-15615472D01*
X7103788Y-15586901D01*
X7094264Y-15567853D01*
X7084741Y-15539282D01*
X7075217Y-15491663D01*
X7075217Y-15453567D01*
X7084741Y-15405948D01*
X7094264Y-15377377D01*
X7103788Y-15358329D01*
X7122836Y-15329758D01*
X7132360Y-15320234D01*
X7208550Y-15415472D02*
X7208550Y-15548806D01*
X7208550Y-15434520D02*
X7218074Y-15424996D01*
X7237122Y-15415472D01*
X7265693Y-15415472D01*
X7284741Y-15424996D01*
X7294264Y-15444044D01*
X7294264Y-15548806D01*
X7418074Y-15548806D02*
X7399026Y-15539282D01*
X7389502Y-15529758D01*
X7379979Y-15510710D01*
X7379979Y-15453567D01*
X7389502Y-15434520D01*
X7399026Y-15424996D01*
X7418074Y-15415472D01*
X7446645Y-15415472D01*
X7465693Y-15424996D01*
X7475217Y-15434520D01*
X7484741Y-15453567D01*
X7484741Y-15510710D01*
X7475217Y-15529758D01*
X7465693Y-15539282D01*
X7446645Y-15548806D01*
X7418074Y-15548806D01*
X7541883Y-15415472D02*
X7618074Y-15415472D01*
X7570455Y-15348806D02*
X7570455Y-15520234D01*
X7579979Y-15539282D01*
X7599026Y-15548806D01*
X7618074Y-15548806D01*
X7837122Y-15415472D02*
X7837122Y-15615472D01*
X7837122Y-15424996D02*
X7856169Y-15415472D01*
X7894264Y-15415472D01*
X7913312Y-15424996D01*
X7922836Y-15434520D01*
X7932360Y-15453567D01*
X7932360Y-15510710D01*
X7922836Y-15529758D01*
X7913312Y-15539282D01*
X7894264Y-15548806D01*
X7856169Y-15548806D01*
X7837122Y-15539282D01*
X8046645Y-15548806D02*
X8027598Y-15539282D01*
X8018074Y-15520234D01*
X8018074Y-15348806D01*
X8208550Y-15548806D02*
X8208550Y-15444044D01*
X8199026Y-15424996D01*
X8179979Y-15415472D01*
X8141883Y-15415472D01*
X8122836Y-15424996D01*
X8208550Y-15539282D02*
X8189502Y-15548806D01*
X8141883Y-15548806D01*
X8122836Y-15539282D01*
X8113312Y-15520234D01*
X8113312Y-15501187D01*
X8122836Y-15482139D01*
X8141883Y-15472615D01*
X8189502Y-15472615D01*
X8208550Y-15463091D01*
X8275217Y-15415472D02*
X8351407Y-15415472D01*
X8303788Y-15348806D02*
X8303788Y-15520234D01*
X8313312Y-15539282D01*
X8332360Y-15548806D01*
X8351407Y-15548806D01*
X8494264Y-15539282D02*
X8475217Y-15548806D01*
X8437122Y-15548806D01*
X8418074Y-15539282D01*
X8408550Y-15520234D01*
X8408550Y-15444044D01*
X8418074Y-15424996D01*
X8437122Y-15415472D01*
X8475217Y-15415472D01*
X8494264Y-15424996D01*
X8503788Y-15444044D01*
X8503788Y-15463091D01*
X8408550Y-15482139D01*
X8675217Y-15548806D02*
X8675217Y-15348806D01*
X8675217Y-15539282D02*
X8656169Y-15548806D01*
X8618074Y-15548806D01*
X8599026Y-15539282D01*
X8589503Y-15529758D01*
X8579979Y-15510710D01*
X8579979Y-15453567D01*
X8589503Y-15434520D01*
X8599026Y-15424996D01*
X8618074Y-15415472D01*
X8656169Y-15415472D01*
X8675217Y-15424996D01*
X8751407Y-15624996D02*
X8760931Y-15615472D01*
X8779979Y-15586901D01*
X8789503Y-15567853D01*
X8799026Y-15539282D01*
X8808550Y-15491663D01*
X8808550Y-15453567D01*
X8799026Y-15405948D01*
X8789503Y-15377377D01*
X8779979Y-15358329D01*
X8760931Y-15329758D01*
X8751407Y-15320234D01*
X1517598Y-15668329D02*
X1517598Y-15868329D01*
X1417598Y-15768329D02*
X1617598Y-15768329D01*
X1865693Y-15677853D02*
X1875217Y-15668329D01*
X1894264Y-15658806D01*
X1941883Y-15658806D01*
X1960931Y-15668329D01*
X1970455Y-15677853D01*
X1979979Y-15696901D01*
X1979979Y-15715948D01*
X1970455Y-15744520D01*
X1856169Y-15858806D01*
X1979979Y-15858806D01*
X2065693Y-15839758D02*
X2075217Y-15849282D01*
X2065693Y-15858806D01*
X2056169Y-15849282D01*
X2065693Y-15839758D01*
X2065693Y-15858806D01*
X2151407Y-15677853D02*
X2160931Y-15668329D01*
X2179979Y-15658806D01*
X2227598Y-15658806D01*
X2246645Y-15668329D01*
X2256169Y-15677853D01*
X2265693Y-15696901D01*
X2265693Y-15715948D01*
X2256169Y-15744520D01*
X2141884Y-15858806D01*
X2265693Y-15858806D01*
X2389503Y-15658806D02*
X2408550Y-15658806D01*
X2427598Y-15668329D01*
X2437122Y-15677853D01*
X2446645Y-15696901D01*
X2456169Y-15734996D01*
X2456169Y-15782615D01*
X2446645Y-15820710D01*
X2437122Y-15839758D01*
X2427598Y-15849282D01*
X2408550Y-15858806D01*
X2389503Y-15858806D01*
X2370455Y-15849282D01*
X2360931Y-15839758D01*
X2351407Y-15820710D01*
X2341884Y-15782615D01*
X2341884Y-15734996D01*
X2351407Y-15696901D01*
X2360931Y-15677853D01*
X2370455Y-15668329D01*
X2389503Y-15658806D01*
X2579979Y-15658806D02*
X2599026Y-15658806D01*
X2618074Y-15668329D01*
X2627598Y-15677853D01*
X2637122Y-15696901D01*
X2646645Y-15734996D01*
X2646645Y-15782615D01*
X2637122Y-15820710D01*
X2627598Y-15839758D01*
X2618074Y-15849282D01*
X2599026Y-15858806D01*
X2579979Y-15858806D01*
X2560931Y-15849282D01*
X2551407Y-15839758D01*
X2541884Y-15820710D01*
X2532360Y-15782615D01*
X2532360Y-15734996D01*
X2541884Y-15696901D01*
X2551407Y-15677853D01*
X2560931Y-15668329D01*
X2579979Y-15658806D01*
X2732360Y-15858806D02*
X2732360Y-15725472D01*
X2732360Y-15744520D02*
X2741884Y-15734996D01*
X2760931Y-15725472D01*
X2789503Y-15725472D01*
X2808550Y-15734996D01*
X2818074Y-15754044D01*
X2818074Y-15858806D01*
X2818074Y-15754044D02*
X2827598Y-15734996D01*
X2846645Y-15725472D01*
X2875217Y-15725472D01*
X2894264Y-15734996D01*
X2903788Y-15754044D01*
X2903788Y-15858806D01*
X2999026Y-15858806D02*
X2999026Y-15725472D01*
X2999026Y-15744520D02*
X3008550Y-15734996D01*
X3027598Y-15725472D01*
X3056169Y-15725472D01*
X3075217Y-15734996D01*
X3084741Y-15754044D01*
X3084741Y-15858806D01*
X3084741Y-15754044D02*
X3094264Y-15734996D01*
X3113312Y-15725472D01*
X3141883Y-15725472D01*
X3160931Y-15734996D01*
X3170455Y-15754044D01*
X3170455Y-15858806D01*
X3560931Y-15649282D02*
X3389502Y-15906425D01*
X3818074Y-15658806D02*
X3837122Y-15658806D01*
X3856169Y-15668329D01*
X3865693Y-15677853D01*
X3875217Y-15696901D01*
X3884741Y-15734996D01*
X3884741Y-15782615D01*
X3875217Y-15820710D01*
X3865693Y-15839758D01*
X3856169Y-15849282D01*
X3837122Y-15858806D01*
X3818074Y-15858806D01*
X3799026Y-15849282D01*
X3789502Y-15839758D01*
X3779979Y-15820710D01*
X3770455Y-15782615D01*
X3770455Y-15734996D01*
X3779979Y-15696901D01*
X3789502Y-15677853D01*
X3799026Y-15668329D01*
X3818074Y-15658806D01*
X3970455Y-15839758D02*
X3979979Y-15849282D01*
X3970455Y-15858806D01*
X3960931Y-15849282D01*
X3970455Y-15839758D01*
X3970455Y-15858806D01*
X4103788Y-15658806D02*
X4122836Y-15658806D01*
X4141883Y-15668329D01*
X4151407Y-15677853D01*
X4160931Y-15696901D01*
X4170455Y-15734996D01*
X4170455Y-15782615D01*
X4160931Y-15820710D01*
X4151407Y-15839758D01*
X4141883Y-15849282D01*
X4122836Y-15858806D01*
X4103788Y-15858806D01*
X4084741Y-15849282D01*
X4075217Y-15839758D01*
X4065693Y-15820710D01*
X4056169Y-15782615D01*
X4056169Y-15734996D01*
X4065693Y-15696901D01*
X4075217Y-15677853D01*
X4084741Y-15668329D01*
X4103788Y-15658806D01*
X4284741Y-15744520D02*
X4265693Y-15734996D01*
X4256169Y-15725472D01*
X4246645Y-15706425D01*
X4246645Y-15696901D01*
X4256169Y-15677853D01*
X4265693Y-15668329D01*
X4284741Y-15658806D01*
X4322836Y-15658806D01*
X4341884Y-15668329D01*
X4351407Y-15677853D01*
X4360931Y-15696901D01*
X4360931Y-15706425D01*
X4351407Y-15725472D01*
X4341884Y-15734996D01*
X4322836Y-15744520D01*
X4284741Y-15744520D01*
X4265693Y-15754044D01*
X4256169Y-15763567D01*
X4246645Y-15782615D01*
X4246645Y-15820710D01*
X4256169Y-15839758D01*
X4265693Y-15849282D01*
X4284741Y-15858806D01*
X4322836Y-15858806D01*
X4341884Y-15849282D01*
X4351407Y-15839758D01*
X4360931Y-15820710D01*
X4360931Y-15782615D01*
X4351407Y-15763567D01*
X4341884Y-15754044D01*
X4322836Y-15744520D01*
X4532360Y-15658806D02*
X4494264Y-15658806D01*
X4475217Y-15668329D01*
X4465693Y-15677853D01*
X4446645Y-15706425D01*
X4437122Y-15744520D01*
X4437122Y-15820710D01*
X4446645Y-15839758D01*
X4456169Y-15849282D01*
X4475217Y-15858806D01*
X4513312Y-15858806D01*
X4532360Y-15849282D01*
X4541884Y-15839758D01*
X4551407Y-15820710D01*
X4551407Y-15773091D01*
X4541884Y-15754044D01*
X4532360Y-15744520D01*
X4513312Y-15734996D01*
X4475217Y-15734996D01*
X4456169Y-15744520D01*
X4446645Y-15754044D01*
X4437122Y-15773091D01*
X4722836Y-15658806D02*
X4684741Y-15658806D01*
X4665693Y-15668329D01*
X4656169Y-15677853D01*
X4637122Y-15706425D01*
X4627598Y-15744520D01*
X4627598Y-15820710D01*
X4637122Y-15839758D01*
X4646645Y-15849282D01*
X4665693Y-15858806D01*
X4703788Y-15858806D01*
X4722836Y-15849282D01*
X4732360Y-15839758D01*
X4741884Y-15820710D01*
X4741884Y-15773091D01*
X4732360Y-15754044D01*
X4722836Y-15744520D01*
X4703788Y-15734996D01*
X4665693Y-15734996D01*
X4646645Y-15744520D01*
X4637122Y-15754044D01*
X4627598Y-15773091D01*
X4818074Y-15658806D02*
X4818074Y-15696901D01*
X4894264Y-15658806D02*
X4894264Y-15696901D01*
X5189503Y-15934996D02*
X5179979Y-15925472D01*
X5160931Y-15896901D01*
X5151407Y-15877853D01*
X5141884Y-15849282D01*
X5132360Y-15801663D01*
X5132360Y-15763567D01*
X5141884Y-15715948D01*
X5151407Y-15687377D01*
X5160931Y-15668329D01*
X5179979Y-15639758D01*
X5189503Y-15630234D01*
X5275217Y-15858806D02*
X5313312Y-15858806D01*
X5332360Y-15849282D01*
X5341884Y-15839758D01*
X5360931Y-15811187D01*
X5370455Y-15773091D01*
X5370455Y-15696901D01*
X5360931Y-15677853D01*
X5351407Y-15668329D01*
X5332360Y-15658806D01*
X5294264Y-15658806D01*
X5275217Y-15668329D01*
X5265693Y-15677853D01*
X5256169Y-15696901D01*
X5256169Y-15744520D01*
X5265693Y-15763567D01*
X5275217Y-15773091D01*
X5294264Y-15782615D01*
X5332360Y-15782615D01*
X5351407Y-15773091D01*
X5360931Y-15763567D01*
X5370455Y-15744520D01*
X5608550Y-15858806D02*
X5608550Y-15658806D01*
X5694264Y-15858806D02*
X5694264Y-15754044D01*
X5684741Y-15734996D01*
X5665693Y-15725472D01*
X5637122Y-15725472D01*
X5618074Y-15734996D01*
X5608550Y-15744520D01*
X5818074Y-15858806D02*
X5799026Y-15849282D01*
X5789502Y-15839758D01*
X5779979Y-15820710D01*
X5779979Y-15763567D01*
X5789502Y-15744520D01*
X5799026Y-15734996D01*
X5818074Y-15725472D01*
X5846645Y-15725472D01*
X5865693Y-15734996D01*
X5875217Y-15744520D01*
X5884741Y-15763567D01*
X5884741Y-15820710D01*
X5875217Y-15839758D01*
X5865693Y-15849282D01*
X5846645Y-15858806D01*
X5818074Y-15858806D01*
X5999026Y-15858806D02*
X5979979Y-15849282D01*
X5970455Y-15830234D01*
X5970455Y-15658806D01*
X6151407Y-15849282D02*
X6132360Y-15858806D01*
X6094264Y-15858806D01*
X6075217Y-15849282D01*
X6065693Y-15830234D01*
X6065693Y-15754044D01*
X6075217Y-15734996D01*
X6094264Y-15725472D01*
X6132360Y-15725472D01*
X6151407Y-15734996D01*
X6160931Y-15754044D01*
X6160931Y-15773091D01*
X6065693Y-15792139D01*
X6237122Y-15849282D02*
X6256169Y-15858806D01*
X6294264Y-15858806D01*
X6313312Y-15849282D01*
X6322836Y-15830234D01*
X6322836Y-15820710D01*
X6313312Y-15801663D01*
X6294264Y-15792139D01*
X6265693Y-15792139D01*
X6246645Y-15782615D01*
X6237122Y-15763567D01*
X6237122Y-15754044D01*
X6246645Y-15734996D01*
X6265693Y-15725472D01*
X6294264Y-15725472D01*
X6313312Y-15734996D01*
X6389502Y-15934996D02*
X6399026Y-15925472D01*
X6418074Y-15896901D01*
X6427598Y-15877853D01*
X6437122Y-15849282D01*
X6446645Y-15801663D01*
X6446645Y-15763567D01*
X6437122Y-15715948D01*
X6427598Y-15687377D01*
X6418074Y-15668329D01*
X6399026Y-15639758D01*
X6389502Y-15630234D01*
X6751407Y-15934996D02*
X6741883Y-15925472D01*
X6722836Y-15896901D01*
X6713312Y-15877853D01*
X6703788Y-15849282D01*
X6694264Y-15801663D01*
X6694264Y-15763567D01*
X6703788Y-15715948D01*
X6713312Y-15687377D01*
X6722836Y-15668329D01*
X6741883Y-15639758D01*
X6751407Y-15630234D01*
X6827598Y-15725472D02*
X6827598Y-15858806D01*
X6827598Y-15744520D02*
X6837122Y-15734996D01*
X6856169Y-15725472D01*
X6884741Y-15725472D01*
X6903788Y-15734996D01*
X6913312Y-15754044D01*
X6913312Y-15858806D01*
X7037122Y-15858806D02*
X7018074Y-15849282D01*
X7008550Y-15839758D01*
X6999026Y-15820710D01*
X6999026Y-15763567D01*
X7008550Y-15744520D01*
X7018074Y-15734996D01*
X7037122Y-15725472D01*
X7065693Y-15725472D01*
X7084741Y-15734996D01*
X7094264Y-15744520D01*
X7103788Y-15763567D01*
X7103788Y-15820710D01*
X7094264Y-15839758D01*
X7084741Y-15849282D01*
X7065693Y-15858806D01*
X7037122Y-15858806D01*
X7160931Y-15725472D02*
X7237122Y-15725472D01*
X7189502Y-15658806D02*
X7189502Y-15830234D01*
X7199026Y-15849282D01*
X7218074Y-15858806D01*
X7237122Y-15858806D01*
X7456169Y-15725472D02*
X7456169Y-15925472D01*
X7456169Y-15734996D02*
X7475217Y-15725472D01*
X7513312Y-15725472D01*
X7532360Y-15734996D01*
X7541883Y-15744520D01*
X7551407Y-15763567D01*
X7551407Y-15820710D01*
X7541883Y-15839758D01*
X7532360Y-15849282D01*
X7513312Y-15858806D01*
X7475217Y-15858806D01*
X7456169Y-15849282D01*
X7665693Y-15858806D02*
X7646645Y-15849282D01*
X7637122Y-15830234D01*
X7637122Y-15658806D01*
X7827598Y-15858806D02*
X7827598Y-15754044D01*
X7818074Y-15734996D01*
X7799026Y-15725472D01*
X7760931Y-15725472D01*
X7741883Y-15734996D01*
X7827598Y-15849282D02*
X7808550Y-15858806D01*
X7760931Y-15858806D01*
X7741883Y-15849282D01*
X7732360Y-15830234D01*
X7732360Y-15811187D01*
X7741883Y-15792139D01*
X7760931Y-15782615D01*
X7808550Y-15782615D01*
X7827598Y-15773091D01*
X7894264Y-15725472D02*
X7970455Y-15725472D01*
X7922836Y-15658806D02*
X7922836Y-15830234D01*
X7932360Y-15849282D01*
X7951407Y-15858806D01*
X7970455Y-15858806D01*
X8113312Y-15849282D02*
X8094264Y-15858806D01*
X8056169Y-15858806D01*
X8037122Y-15849282D01*
X8027598Y-15830234D01*
X8027598Y-15754044D01*
X8037122Y-15734996D01*
X8056169Y-15725472D01*
X8094264Y-15725472D01*
X8113312Y-15734996D01*
X8122836Y-15754044D01*
X8122836Y-15773091D01*
X8027598Y-15792139D01*
X8294264Y-15858806D02*
X8294264Y-15658806D01*
X8294264Y-15849282D02*
X8275217Y-15858806D01*
X8237122Y-15858806D01*
X8218074Y-15849282D01*
X8208550Y-15839758D01*
X8199026Y-15820710D01*
X8199026Y-15763567D01*
X8208550Y-15744520D01*
X8218074Y-15734996D01*
X8237122Y-15725472D01*
X8275217Y-15725472D01*
X8294264Y-15734996D01*
X8370455Y-15934996D02*
X8379979Y-15925472D01*
X8399026Y-15896901D01*
X8408550Y-15877853D01*
X8418074Y-15849282D01*
X8427598Y-15801663D01*
X8427598Y-15763567D01*
X8418074Y-15715948D01*
X8408550Y-15687377D01*
X8399026Y-15668329D01*
X8379979Y-15639758D01*
X8370455Y-15630234D01*
X1588309Y-16159041D02*
X1588309Y-16017618D01*
X1446886Y-16017618D01*
X1446886Y-16159041D01*
X1588309Y-16159041D01*
X1856169Y-15978806D02*
X1979979Y-15978806D01*
X1913312Y-16054996D01*
X1941883Y-16054996D01*
X1960931Y-16064520D01*
X1970455Y-16074044D01*
X1979979Y-16093091D01*
X1979979Y-16140710D01*
X1970455Y-16159758D01*
X1960931Y-16169282D01*
X1941883Y-16178806D01*
X1884741Y-16178806D01*
X1865693Y-16169282D01*
X1856169Y-16159758D01*
X2065693Y-16159758D02*
X2075217Y-16169282D01*
X2065693Y-16178806D01*
X2056169Y-16169282D01*
X2065693Y-16159758D01*
X2065693Y-16178806D01*
X2199026Y-15978806D02*
X2218074Y-15978806D01*
X2237122Y-15988329D01*
X2246645Y-15997853D01*
X2256169Y-16016901D01*
X2265693Y-16054996D01*
X2265693Y-16102615D01*
X2256169Y-16140710D01*
X2246645Y-16159758D01*
X2237122Y-16169282D01*
X2218074Y-16178806D01*
X2199026Y-16178806D01*
X2179979Y-16169282D01*
X2170455Y-16159758D01*
X2160931Y-16140710D01*
X2151407Y-16102615D01*
X2151407Y-16054996D01*
X2160931Y-16016901D01*
X2170455Y-15997853D01*
X2179979Y-15988329D01*
X2199026Y-15978806D01*
X2389503Y-15978806D02*
X2408550Y-15978806D01*
X2427598Y-15988329D01*
X2437122Y-15997853D01*
X2446645Y-16016901D01*
X2456169Y-16054996D01*
X2456169Y-16102615D01*
X2446645Y-16140710D01*
X2437122Y-16159758D01*
X2427598Y-16169282D01*
X2408550Y-16178806D01*
X2389503Y-16178806D01*
X2370455Y-16169282D01*
X2360931Y-16159758D01*
X2351407Y-16140710D01*
X2341884Y-16102615D01*
X2341884Y-16054996D01*
X2351407Y-16016901D01*
X2360931Y-15997853D01*
X2370455Y-15988329D01*
X2389503Y-15978806D01*
X2579979Y-15978806D02*
X2599026Y-15978806D01*
X2618074Y-15988329D01*
X2627598Y-15997853D01*
X2637122Y-16016901D01*
X2646645Y-16054996D01*
X2646645Y-16102615D01*
X2637122Y-16140710D01*
X2627598Y-16159758D01*
X2618074Y-16169282D01*
X2599026Y-16178806D01*
X2579979Y-16178806D01*
X2560931Y-16169282D01*
X2551407Y-16159758D01*
X2541884Y-16140710D01*
X2532360Y-16102615D01*
X2532360Y-16054996D01*
X2541884Y-16016901D01*
X2551407Y-15997853D01*
X2560931Y-15988329D01*
X2579979Y-15978806D01*
X2732360Y-16178806D02*
X2732360Y-16045472D01*
X2732360Y-16064520D02*
X2741884Y-16054996D01*
X2760931Y-16045472D01*
X2789503Y-16045472D01*
X2808550Y-16054996D01*
X2818074Y-16074044D01*
X2818074Y-16178806D01*
X2818074Y-16074044D02*
X2827598Y-16054996D01*
X2846645Y-16045472D01*
X2875217Y-16045472D01*
X2894264Y-16054996D01*
X2903788Y-16074044D01*
X2903788Y-16178806D01*
X2999026Y-16178806D02*
X2999026Y-16045472D01*
X2999026Y-16064520D02*
X3008550Y-16054996D01*
X3027598Y-16045472D01*
X3056169Y-16045472D01*
X3075217Y-16054996D01*
X3084741Y-16074044D01*
X3084741Y-16178806D01*
X3084741Y-16074044D02*
X3094264Y-16054996D01*
X3113312Y-16045472D01*
X3141883Y-16045472D01*
X3160931Y-16054996D01*
X3170455Y-16074044D01*
X3170455Y-16178806D01*
X3560931Y-15969282D02*
X3389502Y-16226425D01*
X3818074Y-15978806D02*
X3837122Y-15978806D01*
X3856169Y-15988329D01*
X3865693Y-15997853D01*
X3875217Y-16016901D01*
X3884741Y-16054996D01*
X3884741Y-16102615D01*
X3875217Y-16140710D01*
X3865693Y-16159758D01*
X3856169Y-16169282D01*
X3837122Y-16178806D01*
X3818074Y-16178806D01*
X3799026Y-16169282D01*
X3789502Y-16159758D01*
X3779979Y-16140710D01*
X3770455Y-16102615D01*
X3770455Y-16054996D01*
X3779979Y-16016901D01*
X3789502Y-15997853D01*
X3799026Y-15988329D01*
X3818074Y-15978806D01*
X3970455Y-16159758D02*
X3979979Y-16169282D01*
X3970455Y-16178806D01*
X3960931Y-16169282D01*
X3970455Y-16159758D01*
X3970455Y-16178806D01*
X4170455Y-16178806D02*
X4056169Y-16178806D01*
X4113312Y-16178806D02*
X4113312Y-15978806D01*
X4094264Y-16007377D01*
X4075217Y-16026425D01*
X4056169Y-16035948D01*
X4360931Y-16178806D02*
X4246645Y-16178806D01*
X4303788Y-16178806D02*
X4303788Y-15978806D01*
X4284741Y-16007377D01*
X4265693Y-16026425D01*
X4246645Y-16035948D01*
X4475217Y-16064520D02*
X4456169Y-16054996D01*
X4446645Y-16045472D01*
X4437122Y-16026425D01*
X4437122Y-16016901D01*
X4446645Y-15997853D01*
X4456169Y-15988329D01*
X4475217Y-15978806D01*
X4513312Y-15978806D01*
X4532360Y-15988329D01*
X4541884Y-15997853D01*
X4551407Y-16016901D01*
X4551407Y-16026425D01*
X4541884Y-16045472D01*
X4532360Y-16054996D01*
X4513312Y-16064520D01*
X4475217Y-16064520D01*
X4456169Y-16074044D01*
X4446645Y-16083567D01*
X4437122Y-16102615D01*
X4437122Y-16140710D01*
X4446645Y-16159758D01*
X4456169Y-16169282D01*
X4475217Y-16178806D01*
X4513312Y-16178806D01*
X4532360Y-16169282D01*
X4541884Y-16159758D01*
X4551407Y-16140710D01*
X4551407Y-16102615D01*
X4541884Y-16083567D01*
X4532360Y-16074044D01*
X4513312Y-16064520D01*
X4741884Y-16178806D02*
X4627598Y-16178806D01*
X4684741Y-16178806D02*
X4684741Y-15978806D01*
X4665693Y-16007377D01*
X4646645Y-16026425D01*
X4627598Y-16035948D01*
X4818074Y-15978806D02*
X4818074Y-16016901D01*
X4894264Y-15978806D02*
X4894264Y-16016901D01*
X5189503Y-16254996D02*
X5179979Y-16245472D01*
X5160931Y-16216901D01*
X5151407Y-16197853D01*
X5141884Y-16169282D01*
X5132360Y-16121663D01*
X5132360Y-16083567D01*
X5141884Y-16035948D01*
X5151407Y-16007377D01*
X5160931Y-15988329D01*
X5179979Y-15959758D01*
X5189503Y-15950234D01*
X5370455Y-16178806D02*
X5256169Y-16178806D01*
X5313312Y-16178806D02*
X5313312Y-15978806D01*
X5294264Y-16007377D01*
X5275217Y-16026425D01*
X5256169Y-16035948D01*
X5437122Y-15978806D02*
X5560931Y-15978806D01*
X5494264Y-16054996D01*
X5522836Y-16054996D01*
X5541884Y-16064520D01*
X5551407Y-16074044D01*
X5560931Y-16093091D01*
X5560931Y-16140710D01*
X5551407Y-16159758D01*
X5541884Y-16169282D01*
X5522836Y-16178806D01*
X5465693Y-16178806D01*
X5446645Y-16169282D01*
X5437122Y-16159758D01*
X5675217Y-16064520D02*
X5656169Y-16054996D01*
X5646645Y-16045472D01*
X5637122Y-16026425D01*
X5637122Y-16016901D01*
X5646645Y-15997853D01*
X5656169Y-15988329D01*
X5675217Y-15978806D01*
X5713312Y-15978806D01*
X5732360Y-15988329D01*
X5741883Y-15997853D01*
X5751407Y-16016901D01*
X5751407Y-16026425D01*
X5741883Y-16045472D01*
X5732360Y-16054996D01*
X5713312Y-16064520D01*
X5675217Y-16064520D01*
X5656169Y-16074044D01*
X5646645Y-16083567D01*
X5637122Y-16102615D01*
X5637122Y-16140710D01*
X5646645Y-16159758D01*
X5656169Y-16169282D01*
X5675217Y-16178806D01*
X5713312Y-16178806D01*
X5732360Y-16169282D01*
X5741883Y-16159758D01*
X5751407Y-16140710D01*
X5751407Y-16102615D01*
X5741883Y-16083567D01*
X5732360Y-16074044D01*
X5713312Y-16064520D01*
X5989502Y-16178806D02*
X5989502Y-15978806D01*
X6075217Y-16178806D02*
X6075217Y-16074044D01*
X6065693Y-16054996D01*
X6046645Y-16045472D01*
X6018074Y-16045472D01*
X5999026Y-16054996D01*
X5989502Y-16064520D01*
X6199026Y-16178806D02*
X6179979Y-16169282D01*
X6170455Y-16159758D01*
X6160931Y-16140710D01*
X6160931Y-16083567D01*
X6170455Y-16064520D01*
X6179979Y-16054996D01*
X6199026Y-16045472D01*
X6227598Y-16045472D01*
X6246645Y-16054996D01*
X6256169Y-16064520D01*
X6265693Y-16083567D01*
X6265693Y-16140710D01*
X6256169Y-16159758D01*
X6246645Y-16169282D01*
X6227598Y-16178806D01*
X6199026Y-16178806D01*
X6379979Y-16178806D02*
X6360931Y-16169282D01*
X6351407Y-16150234D01*
X6351407Y-15978806D01*
X6532360Y-16169282D02*
X6513312Y-16178806D01*
X6475217Y-16178806D01*
X6456169Y-16169282D01*
X6446645Y-16150234D01*
X6446645Y-16074044D01*
X6456169Y-16054996D01*
X6475217Y-16045472D01*
X6513312Y-16045472D01*
X6532360Y-16054996D01*
X6541883Y-16074044D01*
X6541883Y-16093091D01*
X6446645Y-16112139D01*
X6618074Y-16169282D02*
X6637122Y-16178806D01*
X6675217Y-16178806D01*
X6694264Y-16169282D01*
X6703788Y-16150234D01*
X6703788Y-16140710D01*
X6694264Y-16121663D01*
X6675217Y-16112139D01*
X6646645Y-16112139D01*
X6627598Y-16102615D01*
X6618074Y-16083567D01*
X6618074Y-16074044D01*
X6627598Y-16054996D01*
X6646645Y-16045472D01*
X6675217Y-16045472D01*
X6694264Y-16054996D01*
X6770455Y-16254996D02*
X6779979Y-16245472D01*
X6799026Y-16216901D01*
X6808550Y-16197853D01*
X6818074Y-16169282D01*
X6827598Y-16121663D01*
X6827598Y-16083567D01*
X6818074Y-16035948D01*
X6808550Y-16007377D01*
X6799026Y-15988329D01*
X6779979Y-15959758D01*
X6770455Y-15950234D01*
X7132360Y-16254996D02*
X7122836Y-16245472D01*
X7103788Y-16216901D01*
X7094264Y-16197853D01*
X7084741Y-16169282D01*
X7075217Y-16121663D01*
X7075217Y-16083567D01*
X7084741Y-16035948D01*
X7094264Y-16007377D01*
X7103788Y-15988329D01*
X7122836Y-15959758D01*
X7132360Y-15950234D01*
X7208550Y-16045472D02*
X7208550Y-16178806D01*
X7208550Y-16064520D02*
X7218074Y-16054996D01*
X7237122Y-16045472D01*
X7265693Y-16045472D01*
X7284741Y-16054996D01*
X7294264Y-16074044D01*
X7294264Y-16178806D01*
X7418074Y-16178806D02*
X7399026Y-16169282D01*
X7389502Y-16159758D01*
X7379979Y-16140710D01*
X7379979Y-16083567D01*
X7389502Y-16064520D01*
X7399026Y-16054996D01*
X7418074Y-16045472D01*
X7446645Y-16045472D01*
X7465693Y-16054996D01*
X7475217Y-16064520D01*
X7484741Y-16083567D01*
X7484741Y-16140710D01*
X7475217Y-16159758D01*
X7465693Y-16169282D01*
X7446645Y-16178806D01*
X7418074Y-16178806D01*
X7541883Y-16045472D02*
X7618074Y-16045472D01*
X7570455Y-15978806D02*
X7570455Y-16150234D01*
X7579979Y-16169282D01*
X7599026Y-16178806D01*
X7618074Y-16178806D01*
X7837122Y-16045472D02*
X7837122Y-16245472D01*
X7837122Y-16054996D02*
X7856169Y-16045472D01*
X7894264Y-16045472D01*
X7913312Y-16054996D01*
X7922836Y-16064520D01*
X7932360Y-16083567D01*
X7932360Y-16140710D01*
X7922836Y-16159758D01*
X7913312Y-16169282D01*
X7894264Y-16178806D01*
X7856169Y-16178806D01*
X7837122Y-16169282D01*
X8046645Y-16178806D02*
X8027598Y-16169282D01*
X8018074Y-16150234D01*
X8018074Y-15978806D01*
X8208550Y-16178806D02*
X8208550Y-16074044D01*
X8199026Y-16054996D01*
X8179979Y-16045472D01*
X8141883Y-16045472D01*
X8122836Y-16054996D01*
X8208550Y-16169282D02*
X8189502Y-16178806D01*
X8141883Y-16178806D01*
X8122836Y-16169282D01*
X8113312Y-16150234D01*
X8113312Y-16131187D01*
X8122836Y-16112139D01*
X8141883Y-16102615D01*
X8189502Y-16102615D01*
X8208550Y-16093091D01*
X8275217Y-16045472D02*
X8351407Y-16045472D01*
X8303788Y-15978806D02*
X8303788Y-16150234D01*
X8313312Y-16169282D01*
X8332360Y-16178806D01*
X8351407Y-16178806D01*
X8494264Y-16169282D02*
X8475217Y-16178806D01*
X8437122Y-16178806D01*
X8418074Y-16169282D01*
X8408550Y-16150234D01*
X8408550Y-16074044D01*
X8418074Y-16054996D01*
X8437122Y-16045472D01*
X8475217Y-16045472D01*
X8494264Y-16054996D01*
X8503788Y-16074044D01*
X8503788Y-16093091D01*
X8408550Y-16112139D01*
X8675217Y-16178806D02*
X8675217Y-15978806D01*
X8675217Y-16169282D02*
X8656169Y-16178806D01*
X8618074Y-16178806D01*
X8599026Y-16169282D01*
X8589503Y-16159758D01*
X8579979Y-16140710D01*
X8579979Y-16083567D01*
X8589503Y-16064520D01*
X8599026Y-16054996D01*
X8618074Y-16045472D01*
X8656169Y-16045472D01*
X8675217Y-16054996D01*
X8751407Y-16254996D02*
X8760931Y-16245472D01*
X8779979Y-16216901D01*
X8789503Y-16197853D01*
X8799026Y-16169282D01*
X8808550Y-16121663D01*
X8808550Y-16083567D01*
X8799026Y-16035948D01*
X8789503Y-16007377D01*
X8779979Y-15988329D01*
X8760931Y-15959758D01*
X8751407Y-15950234D01*
X1517598Y-16508329D02*
X1617598Y-16408329D01*
X1517598Y-16308329D01*
X1417598Y-16408329D01*
X1517598Y-16508329D01*
X1856169Y-16298806D02*
X1979979Y-16298806D01*
X1913312Y-16374996D01*
X1941883Y-16374996D01*
X1960931Y-16384520D01*
X1970455Y-16394044D01*
X1979979Y-16413091D01*
X1979979Y-16460710D01*
X1970455Y-16479758D01*
X1960931Y-16489282D01*
X1941883Y-16498806D01*
X1884741Y-16498806D01*
X1865693Y-16489282D01*
X1856169Y-16479758D01*
X2065693Y-16479758D02*
X2075217Y-16489282D01*
X2065693Y-16498806D01*
X2056169Y-16489282D01*
X2065693Y-16479758D01*
X2065693Y-16498806D01*
X2199026Y-16298806D02*
X2218074Y-16298806D01*
X2237122Y-16308329D01*
X2246645Y-16317853D01*
X2256169Y-16336901D01*
X2265693Y-16374996D01*
X2265693Y-16422615D01*
X2256169Y-16460710D01*
X2246645Y-16479758D01*
X2237122Y-16489282D01*
X2218074Y-16498806D01*
X2199026Y-16498806D01*
X2179979Y-16489282D01*
X2170455Y-16479758D01*
X2160931Y-16460710D01*
X2151407Y-16422615D01*
X2151407Y-16374996D01*
X2160931Y-16336901D01*
X2170455Y-16317853D01*
X2179979Y-16308329D01*
X2199026Y-16298806D01*
X2437122Y-16365472D02*
X2437122Y-16498806D01*
X2389503Y-16289282D02*
X2341884Y-16432139D01*
X2465693Y-16432139D01*
X2570455Y-16384520D02*
X2551407Y-16374996D01*
X2541884Y-16365472D01*
X2532360Y-16346425D01*
X2532360Y-16336901D01*
X2541884Y-16317853D01*
X2551407Y-16308329D01*
X2570455Y-16298806D01*
X2608550Y-16298806D01*
X2627598Y-16308329D01*
X2637122Y-16317853D01*
X2646645Y-16336901D01*
X2646645Y-16346425D01*
X2637122Y-16365472D01*
X2627598Y-16374996D01*
X2608550Y-16384520D01*
X2570455Y-16384520D01*
X2551407Y-16394044D01*
X2541884Y-16403567D01*
X2532360Y-16422615D01*
X2532360Y-16460710D01*
X2541884Y-16479758D01*
X2551407Y-16489282D01*
X2570455Y-16498806D01*
X2608550Y-16498806D01*
X2627598Y-16489282D01*
X2637122Y-16479758D01*
X2646645Y-16460710D01*
X2646645Y-16422615D01*
X2637122Y-16403567D01*
X2627598Y-16394044D01*
X2608550Y-16384520D01*
X2732360Y-16498806D02*
X2732360Y-16365472D01*
X2732360Y-16384520D02*
X2741884Y-16374996D01*
X2760931Y-16365472D01*
X2789503Y-16365472D01*
X2808550Y-16374996D01*
X2818074Y-16394044D01*
X2818074Y-16498806D01*
X2818074Y-16394044D02*
X2827598Y-16374996D01*
X2846645Y-16365472D01*
X2875217Y-16365472D01*
X2894264Y-16374996D01*
X2903788Y-16394044D01*
X2903788Y-16498806D01*
X2999026Y-16498806D02*
X2999026Y-16365472D01*
X2999026Y-16384520D02*
X3008550Y-16374996D01*
X3027598Y-16365472D01*
X3056169Y-16365472D01*
X3075217Y-16374996D01*
X3084741Y-16394044D01*
X3084741Y-16498806D01*
X3084741Y-16394044D02*
X3094264Y-16374996D01*
X3113312Y-16365472D01*
X3141883Y-16365472D01*
X3160931Y-16374996D01*
X3170455Y-16394044D01*
X3170455Y-16498806D01*
X3560931Y-16289282D02*
X3389502Y-16546425D01*
X3818074Y-16298806D02*
X3837122Y-16298806D01*
X3856169Y-16308329D01*
X3865693Y-16317853D01*
X3875217Y-16336901D01*
X3884741Y-16374996D01*
X3884741Y-16422615D01*
X3875217Y-16460710D01*
X3865693Y-16479758D01*
X3856169Y-16489282D01*
X3837122Y-16498806D01*
X3818074Y-16498806D01*
X3799026Y-16489282D01*
X3789502Y-16479758D01*
X3779979Y-16460710D01*
X3770455Y-16422615D01*
X3770455Y-16374996D01*
X3779979Y-16336901D01*
X3789502Y-16317853D01*
X3799026Y-16308329D01*
X3818074Y-16298806D01*
X3970455Y-16479758D02*
X3979979Y-16489282D01*
X3970455Y-16498806D01*
X3960931Y-16489282D01*
X3970455Y-16479758D01*
X3970455Y-16498806D01*
X4170455Y-16498806D02*
X4056169Y-16498806D01*
X4113312Y-16498806D02*
X4113312Y-16298806D01*
X4094264Y-16327377D01*
X4075217Y-16346425D01*
X4056169Y-16355948D01*
X4246645Y-16317853D02*
X4256169Y-16308329D01*
X4275217Y-16298806D01*
X4322836Y-16298806D01*
X4341884Y-16308329D01*
X4351407Y-16317853D01*
X4360931Y-16336901D01*
X4360931Y-16355948D01*
X4351407Y-16384520D01*
X4237122Y-16498806D01*
X4360931Y-16498806D01*
X4484741Y-16298806D02*
X4503788Y-16298806D01*
X4522836Y-16308329D01*
X4532360Y-16317853D01*
X4541884Y-16336901D01*
X4551407Y-16374996D01*
X4551407Y-16422615D01*
X4541884Y-16460710D01*
X4532360Y-16479758D01*
X4522836Y-16489282D01*
X4503788Y-16498806D01*
X4484741Y-16498806D01*
X4465693Y-16489282D01*
X4456169Y-16479758D01*
X4446645Y-16460710D01*
X4437122Y-16422615D01*
X4437122Y-16374996D01*
X4446645Y-16336901D01*
X4456169Y-16317853D01*
X4465693Y-16308329D01*
X4484741Y-16298806D01*
X4675217Y-16298806D02*
X4694264Y-16298806D01*
X4713312Y-16308329D01*
X4722836Y-16317853D01*
X4732360Y-16336901D01*
X4741884Y-16374996D01*
X4741884Y-16422615D01*
X4732360Y-16460710D01*
X4722836Y-16479758D01*
X4713312Y-16489282D01*
X4694264Y-16498806D01*
X4675217Y-16498806D01*
X4656169Y-16489282D01*
X4646645Y-16479758D01*
X4637122Y-16460710D01*
X4627598Y-16422615D01*
X4627598Y-16374996D01*
X4637122Y-16336901D01*
X4646645Y-16317853D01*
X4656169Y-16308329D01*
X4675217Y-16298806D01*
X4818074Y-16298806D02*
X4818074Y-16336901D01*
X4894264Y-16298806D02*
X4894264Y-16336901D01*
X5189503Y-16574996D02*
X5179979Y-16565472D01*
X5160931Y-16536901D01*
X5151407Y-16517853D01*
X5141884Y-16489282D01*
X5132360Y-16441663D01*
X5132360Y-16403567D01*
X5141884Y-16355948D01*
X5151407Y-16327377D01*
X5160931Y-16308329D01*
X5179979Y-16279758D01*
X5189503Y-16270234D01*
X5351407Y-16365472D02*
X5351407Y-16498806D01*
X5303788Y-16289282D02*
X5256169Y-16432139D01*
X5379979Y-16432139D01*
X5608550Y-16498806D02*
X5608550Y-16298806D01*
X5694264Y-16498806D02*
X5694264Y-16394044D01*
X5684741Y-16374996D01*
X5665693Y-16365472D01*
X5637122Y-16365472D01*
X5618074Y-16374996D01*
X5608550Y-16384520D01*
X5818074Y-16498806D02*
X5799026Y-16489282D01*
X5789502Y-16479758D01*
X5779979Y-16460710D01*
X5779979Y-16403567D01*
X5789502Y-16384520D01*
X5799026Y-16374996D01*
X5818074Y-16365472D01*
X5846645Y-16365472D01*
X5865693Y-16374996D01*
X5875217Y-16384520D01*
X5884741Y-16403567D01*
X5884741Y-16460710D01*
X5875217Y-16479758D01*
X5865693Y-16489282D01*
X5846645Y-16498806D01*
X5818074Y-16498806D01*
X5999026Y-16498806D02*
X5979979Y-16489282D01*
X5970455Y-16470234D01*
X5970455Y-16298806D01*
X6151407Y-16489282D02*
X6132360Y-16498806D01*
X6094264Y-16498806D01*
X6075217Y-16489282D01*
X6065693Y-16470234D01*
X6065693Y-16394044D01*
X6075217Y-16374996D01*
X6094264Y-16365472D01*
X6132360Y-16365472D01*
X6151407Y-16374996D01*
X6160931Y-16394044D01*
X6160931Y-16413091D01*
X6065693Y-16432139D01*
X6237122Y-16489282D02*
X6256169Y-16498806D01*
X6294264Y-16498806D01*
X6313312Y-16489282D01*
X6322836Y-16470234D01*
X6322836Y-16460710D01*
X6313312Y-16441663D01*
X6294264Y-16432139D01*
X6265693Y-16432139D01*
X6246645Y-16422615D01*
X6237122Y-16403567D01*
X6237122Y-16394044D01*
X6246645Y-16374996D01*
X6265693Y-16365472D01*
X6294264Y-16365472D01*
X6313312Y-16374996D01*
X6389502Y-16574996D02*
X6399026Y-16565472D01*
X6418074Y-16536901D01*
X6427598Y-16517853D01*
X6437122Y-16489282D01*
X6446645Y-16441663D01*
X6446645Y-16403567D01*
X6437122Y-16355948D01*
X6427598Y-16327377D01*
X6418074Y-16308329D01*
X6399026Y-16279758D01*
X6389502Y-16270234D01*
X6751407Y-16574996D02*
X6741883Y-16565472D01*
X6722836Y-16536901D01*
X6713312Y-16517853D01*
X6703788Y-16489282D01*
X6694264Y-16441663D01*
X6694264Y-16403567D01*
X6703788Y-16355948D01*
X6713312Y-16327377D01*
X6722836Y-16308329D01*
X6741883Y-16279758D01*
X6751407Y-16270234D01*
X6827598Y-16365472D02*
X6827598Y-16498806D01*
X6827598Y-16384520D02*
X6837122Y-16374996D01*
X6856169Y-16365472D01*
X6884741Y-16365472D01*
X6903788Y-16374996D01*
X6913312Y-16394044D01*
X6913312Y-16498806D01*
X7037122Y-16498806D02*
X7018074Y-16489282D01*
X7008550Y-16479758D01*
X6999026Y-16460710D01*
X6999026Y-16403567D01*
X7008550Y-16384520D01*
X7018074Y-16374996D01*
X7037122Y-16365472D01*
X7065693Y-16365472D01*
X7084741Y-16374996D01*
X7094264Y-16384520D01*
X7103788Y-16403567D01*
X7103788Y-16460710D01*
X7094264Y-16479758D01*
X7084741Y-16489282D01*
X7065693Y-16498806D01*
X7037122Y-16498806D01*
X7160931Y-16365472D02*
X7237122Y-16365472D01*
X7189502Y-16298806D02*
X7189502Y-16470234D01*
X7199026Y-16489282D01*
X7218074Y-16498806D01*
X7237122Y-16498806D01*
X7456169Y-16365472D02*
X7456169Y-16565472D01*
X7456169Y-16374996D02*
X7475217Y-16365472D01*
X7513312Y-16365472D01*
X7532360Y-16374996D01*
X7541883Y-16384520D01*
X7551407Y-16403567D01*
X7551407Y-16460710D01*
X7541883Y-16479758D01*
X7532360Y-16489282D01*
X7513312Y-16498806D01*
X7475217Y-16498806D01*
X7456169Y-16489282D01*
X7665693Y-16498806D02*
X7646645Y-16489282D01*
X7637122Y-16470234D01*
X7637122Y-16298806D01*
X7827598Y-16498806D02*
X7827598Y-16394044D01*
X7818074Y-16374996D01*
X7799026Y-16365472D01*
X7760931Y-16365472D01*
X7741883Y-16374996D01*
X7827598Y-16489282D02*
X7808550Y-16498806D01*
X7760931Y-16498806D01*
X7741883Y-16489282D01*
X7732360Y-16470234D01*
X7732360Y-16451187D01*
X7741883Y-16432139D01*
X7760931Y-16422615D01*
X7808550Y-16422615D01*
X7827598Y-16413091D01*
X7894264Y-16365472D02*
X7970455Y-16365472D01*
X7922836Y-16298806D02*
X7922836Y-16470234D01*
X7932360Y-16489282D01*
X7951407Y-16498806D01*
X7970455Y-16498806D01*
X8113312Y-16489282D02*
X8094264Y-16498806D01*
X8056169Y-16498806D01*
X8037122Y-16489282D01*
X8027598Y-16470234D01*
X8027598Y-16394044D01*
X8037122Y-16374996D01*
X8056169Y-16365472D01*
X8094264Y-16365472D01*
X8113312Y-16374996D01*
X8122836Y-16394044D01*
X8122836Y-16413091D01*
X8027598Y-16432139D01*
X8294264Y-16498806D02*
X8294264Y-16298806D01*
X8294264Y-16489282D02*
X8275217Y-16498806D01*
X8237122Y-16498806D01*
X8218074Y-16489282D01*
X8208550Y-16479758D01*
X8199026Y-16460710D01*
X8199026Y-16403567D01*
X8208550Y-16384520D01*
X8218074Y-16374996D01*
X8237122Y-16365472D01*
X8275217Y-16365472D01*
X8294264Y-16374996D01*
X8370455Y-16574996D02*
X8379979Y-16565472D01*
X8399026Y-16536901D01*
X8408550Y-16517853D01*
X8418074Y-16489282D01*
X8427598Y-16441663D01*
X8427598Y-16403567D01*
X8418074Y-16355948D01*
X8408550Y-16327377D01*
X8399026Y-16308329D01*
X8379979Y-16279758D01*
X8370455Y-16270234D01*
X1417598Y-16628329D02*
X1617598Y-16828330D01*
X1617598Y-16628329D02*
X1417598Y-16828330D01*
X1617598Y-16728329D02*
G75*
G03*
X1617598Y-16728329I-100000J0D01*
G01*
X1856169Y-16618806D02*
X1979979Y-16618806D01*
X1913312Y-16694996D01*
X1941883Y-16694996D01*
X1960931Y-16704520D01*
X1970455Y-16714044D01*
X1979979Y-16733091D01*
X1979979Y-16780710D01*
X1970455Y-16799758D01*
X1960931Y-16809282D01*
X1941883Y-16818806D01*
X1884741Y-16818806D01*
X1865693Y-16809282D01*
X1856169Y-16799758D01*
X2065693Y-16799758D02*
X2075217Y-16809282D01*
X2065693Y-16818806D01*
X2056169Y-16809282D01*
X2065693Y-16799758D01*
X2065693Y-16818806D01*
X2170455Y-16818806D02*
X2208550Y-16818806D01*
X2227598Y-16809282D01*
X2237122Y-16799758D01*
X2256169Y-16771187D01*
X2265693Y-16733091D01*
X2265693Y-16656901D01*
X2256169Y-16637853D01*
X2246645Y-16628329D01*
X2227598Y-16618806D01*
X2189503Y-16618806D01*
X2170455Y-16628329D01*
X2160931Y-16637853D01*
X2151407Y-16656901D01*
X2151407Y-16704520D01*
X2160931Y-16723567D01*
X2170455Y-16733091D01*
X2189503Y-16742615D01*
X2227598Y-16742615D01*
X2246645Y-16733091D01*
X2256169Y-16723567D01*
X2265693Y-16704520D01*
X2379979Y-16704520D02*
X2360931Y-16694996D01*
X2351407Y-16685472D01*
X2341884Y-16666425D01*
X2341884Y-16656901D01*
X2351407Y-16637853D01*
X2360931Y-16628329D01*
X2379979Y-16618806D01*
X2418074Y-16618806D01*
X2437122Y-16628329D01*
X2446645Y-16637853D01*
X2456169Y-16656901D01*
X2456169Y-16666425D01*
X2446645Y-16685472D01*
X2437122Y-16694996D01*
X2418074Y-16704520D01*
X2379979Y-16704520D01*
X2360931Y-16714044D01*
X2351407Y-16723567D01*
X2341884Y-16742615D01*
X2341884Y-16780710D01*
X2351407Y-16799758D01*
X2360931Y-16809282D01*
X2379979Y-16818806D01*
X2418074Y-16818806D01*
X2437122Y-16809282D01*
X2446645Y-16799758D01*
X2456169Y-16780710D01*
X2456169Y-16742615D01*
X2446645Y-16723567D01*
X2437122Y-16714044D01*
X2418074Y-16704520D01*
X2570455Y-16704520D02*
X2551407Y-16694996D01*
X2541884Y-16685472D01*
X2532360Y-16666425D01*
X2532360Y-16656901D01*
X2541884Y-16637853D01*
X2551407Y-16628329D01*
X2570455Y-16618806D01*
X2608550Y-16618806D01*
X2627598Y-16628329D01*
X2637122Y-16637853D01*
X2646645Y-16656901D01*
X2646645Y-16666425D01*
X2637122Y-16685472D01*
X2627598Y-16694996D01*
X2608550Y-16704520D01*
X2570455Y-16704520D01*
X2551407Y-16714044D01*
X2541884Y-16723567D01*
X2532360Y-16742615D01*
X2532360Y-16780710D01*
X2541884Y-16799758D01*
X2551407Y-16809282D01*
X2570455Y-16818806D01*
X2608550Y-16818806D01*
X2627598Y-16809282D01*
X2637122Y-16799758D01*
X2646645Y-16780710D01*
X2646645Y-16742615D01*
X2637122Y-16723567D01*
X2627598Y-16714044D01*
X2608550Y-16704520D01*
X2732360Y-16818806D02*
X2732360Y-16685472D01*
X2732360Y-16704520D02*
X2741884Y-16694996D01*
X2760931Y-16685472D01*
X2789503Y-16685472D01*
X2808550Y-16694996D01*
X2818074Y-16714044D01*
X2818074Y-16818806D01*
X2818074Y-16714044D02*
X2827598Y-16694996D01*
X2846645Y-16685472D01*
X2875217Y-16685472D01*
X2894264Y-16694996D01*
X2903788Y-16714044D01*
X2903788Y-16818806D01*
X2999026Y-16818806D02*
X2999026Y-16685472D01*
X2999026Y-16704520D02*
X3008550Y-16694996D01*
X3027598Y-16685472D01*
X3056169Y-16685472D01*
X3075217Y-16694996D01*
X3084741Y-16714044D01*
X3084741Y-16818806D01*
X3084741Y-16714044D02*
X3094264Y-16694996D01*
X3113312Y-16685472D01*
X3141883Y-16685472D01*
X3160931Y-16694996D01*
X3170455Y-16714044D01*
X3170455Y-16818806D01*
X3560931Y-16609282D02*
X3389502Y-16866425D01*
X3818074Y-16618806D02*
X3837122Y-16618806D01*
X3856169Y-16628329D01*
X3865693Y-16637853D01*
X3875217Y-16656901D01*
X3884741Y-16694996D01*
X3884741Y-16742615D01*
X3875217Y-16780710D01*
X3865693Y-16799758D01*
X3856169Y-16809282D01*
X3837122Y-16818806D01*
X3818074Y-16818806D01*
X3799026Y-16809282D01*
X3789502Y-16799758D01*
X3779979Y-16780710D01*
X3770455Y-16742615D01*
X3770455Y-16694996D01*
X3779979Y-16656901D01*
X3789502Y-16637853D01*
X3799026Y-16628329D01*
X3818074Y-16618806D01*
X3970455Y-16799758D02*
X3979979Y-16809282D01*
X3970455Y-16818806D01*
X3960931Y-16809282D01*
X3970455Y-16799758D01*
X3970455Y-16818806D01*
X4170455Y-16818806D02*
X4056169Y-16818806D01*
X4113312Y-16818806D02*
X4113312Y-16618806D01*
X4094264Y-16647377D01*
X4075217Y-16666425D01*
X4056169Y-16675948D01*
X4351407Y-16618806D02*
X4256169Y-16618806D01*
X4246645Y-16714044D01*
X4256169Y-16704520D01*
X4275217Y-16694996D01*
X4322836Y-16694996D01*
X4341884Y-16704520D01*
X4351407Y-16714044D01*
X4360931Y-16733091D01*
X4360931Y-16780710D01*
X4351407Y-16799758D01*
X4341884Y-16809282D01*
X4322836Y-16818806D01*
X4275217Y-16818806D01*
X4256169Y-16809282D01*
X4246645Y-16799758D01*
X4427598Y-16618806D02*
X4560931Y-16618806D01*
X4475217Y-16818806D01*
X4675217Y-16618806D02*
X4694264Y-16618806D01*
X4713312Y-16628329D01*
X4722836Y-16637853D01*
X4732360Y-16656901D01*
X4741884Y-16694996D01*
X4741884Y-16742615D01*
X4732360Y-16780710D01*
X4722836Y-16799758D01*
X4713312Y-16809282D01*
X4694264Y-16818806D01*
X4675217Y-16818806D01*
X4656169Y-16809282D01*
X4646645Y-16799758D01*
X4637122Y-16780710D01*
X4627598Y-16742615D01*
X4627598Y-16694996D01*
X4637122Y-16656901D01*
X4646645Y-16637853D01*
X4656169Y-16628329D01*
X4675217Y-16618806D01*
X4818074Y-16618806D02*
X4818074Y-16656901D01*
X4894264Y-16618806D02*
X4894264Y-16656901D01*
X5189503Y-16894996D02*
X5179979Y-16885472D01*
X5160931Y-16856901D01*
X5151407Y-16837853D01*
X5141884Y-16809282D01*
X5132360Y-16761663D01*
X5132360Y-16723567D01*
X5141884Y-16675948D01*
X5151407Y-16647377D01*
X5160931Y-16628329D01*
X5179979Y-16599758D01*
X5189503Y-16590234D01*
X5351407Y-16685472D02*
X5351407Y-16818806D01*
X5303788Y-16609282D02*
X5256169Y-16752139D01*
X5379979Y-16752139D01*
X5608550Y-16818806D02*
X5608550Y-16618806D01*
X5694264Y-16818806D02*
X5694264Y-16714044D01*
X5684741Y-16694996D01*
X5665693Y-16685472D01*
X5637122Y-16685472D01*
X5618074Y-16694996D01*
X5608550Y-16704520D01*
X5818074Y-16818806D02*
X5799026Y-16809282D01*
X5789502Y-16799758D01*
X5779979Y-16780710D01*
X5779979Y-16723567D01*
X5789502Y-16704520D01*
X5799026Y-16694996D01*
X5818074Y-16685472D01*
X5846645Y-16685472D01*
X5865693Y-16694996D01*
X5875217Y-16704520D01*
X5884741Y-16723567D01*
X5884741Y-16780710D01*
X5875217Y-16799758D01*
X5865693Y-16809282D01*
X5846645Y-16818806D01*
X5818074Y-16818806D01*
X5999026Y-16818806D02*
X5979979Y-16809282D01*
X5970455Y-16790234D01*
X5970455Y-16618806D01*
X6151407Y-16809282D02*
X6132360Y-16818806D01*
X6094264Y-16818806D01*
X6075217Y-16809282D01*
X6065693Y-16790234D01*
X6065693Y-16714044D01*
X6075217Y-16694996D01*
X6094264Y-16685472D01*
X6132360Y-16685472D01*
X6151407Y-16694996D01*
X6160931Y-16714044D01*
X6160931Y-16733091D01*
X6065693Y-16752139D01*
X6237122Y-16809282D02*
X6256169Y-16818806D01*
X6294264Y-16818806D01*
X6313312Y-16809282D01*
X6322836Y-16790234D01*
X6322836Y-16780710D01*
X6313312Y-16761663D01*
X6294264Y-16752139D01*
X6265693Y-16752139D01*
X6246645Y-16742615D01*
X6237122Y-16723567D01*
X6237122Y-16714044D01*
X6246645Y-16694996D01*
X6265693Y-16685472D01*
X6294264Y-16685472D01*
X6313312Y-16694996D01*
X6389502Y-16894996D02*
X6399026Y-16885472D01*
X6418074Y-16856901D01*
X6427598Y-16837853D01*
X6437122Y-16809282D01*
X6446645Y-16761663D01*
X6446645Y-16723567D01*
X6437122Y-16675948D01*
X6427598Y-16647377D01*
X6418074Y-16628329D01*
X6399026Y-16599758D01*
X6389502Y-16590234D01*
X6751407Y-16894996D02*
X6741883Y-16885472D01*
X6722836Y-16856901D01*
X6713312Y-16837853D01*
X6703788Y-16809282D01*
X6694264Y-16761663D01*
X6694264Y-16723567D01*
X6703788Y-16675948D01*
X6713312Y-16647377D01*
X6722836Y-16628329D01*
X6741883Y-16599758D01*
X6751407Y-16590234D01*
X6827598Y-16685472D02*
X6827598Y-16818806D01*
X6827598Y-16704520D02*
X6837122Y-16694996D01*
X6856169Y-16685472D01*
X6884741Y-16685472D01*
X6903788Y-16694996D01*
X6913312Y-16714044D01*
X6913312Y-16818806D01*
X7037122Y-16818806D02*
X7018074Y-16809282D01*
X7008550Y-16799758D01*
X6999026Y-16780710D01*
X6999026Y-16723567D01*
X7008550Y-16704520D01*
X7018074Y-16694996D01*
X7037122Y-16685472D01*
X7065693Y-16685472D01*
X7084741Y-16694996D01*
X7094264Y-16704520D01*
X7103788Y-16723567D01*
X7103788Y-16780710D01*
X7094264Y-16799758D01*
X7084741Y-16809282D01*
X7065693Y-16818806D01*
X7037122Y-16818806D01*
X7160931Y-16685472D02*
X7237122Y-16685472D01*
X7189502Y-16618806D02*
X7189502Y-16790234D01*
X7199026Y-16809282D01*
X7218074Y-16818806D01*
X7237122Y-16818806D01*
X7456169Y-16685472D02*
X7456169Y-16885472D01*
X7456169Y-16694996D02*
X7475217Y-16685472D01*
X7513312Y-16685472D01*
X7532360Y-16694996D01*
X7541883Y-16704520D01*
X7551407Y-16723567D01*
X7551407Y-16780710D01*
X7541883Y-16799758D01*
X7532360Y-16809282D01*
X7513312Y-16818806D01*
X7475217Y-16818806D01*
X7456169Y-16809282D01*
X7665693Y-16818806D02*
X7646645Y-16809282D01*
X7637122Y-16790234D01*
X7637122Y-16618806D01*
X7827598Y-16818806D02*
X7827598Y-16714044D01*
X7818074Y-16694996D01*
X7799026Y-16685472D01*
X7760931Y-16685472D01*
X7741883Y-16694996D01*
X7827598Y-16809282D02*
X7808550Y-16818806D01*
X7760931Y-16818806D01*
X7741883Y-16809282D01*
X7732360Y-16790234D01*
X7732360Y-16771187D01*
X7741883Y-16752139D01*
X7760931Y-16742615D01*
X7808550Y-16742615D01*
X7827598Y-16733091D01*
X7894264Y-16685472D02*
X7970455Y-16685472D01*
X7922836Y-16618806D02*
X7922836Y-16790234D01*
X7932360Y-16809282D01*
X7951407Y-16818806D01*
X7970455Y-16818806D01*
X8113312Y-16809282D02*
X8094264Y-16818806D01*
X8056169Y-16818806D01*
X8037122Y-16809282D01*
X8027598Y-16790234D01*
X8027598Y-16714044D01*
X8037122Y-16694996D01*
X8056169Y-16685472D01*
X8094264Y-16685472D01*
X8113312Y-16694996D01*
X8122836Y-16714044D01*
X8122836Y-16733091D01*
X8027598Y-16752139D01*
X8294264Y-16818806D02*
X8294264Y-16618806D01*
X8294264Y-16809282D02*
X8275217Y-16818806D01*
X8237122Y-16818806D01*
X8218074Y-16809282D01*
X8208550Y-16799758D01*
X8199026Y-16780710D01*
X8199026Y-16723567D01*
X8208550Y-16704520D01*
X8218074Y-16694996D01*
X8237122Y-16685472D01*
X8275217Y-16685472D01*
X8294264Y-16694996D01*
X8370455Y-16894996D02*
X8379979Y-16885472D01*
X8399026Y-16856901D01*
X8408550Y-16837853D01*
X8418074Y-16809282D01*
X8427598Y-16761663D01*
X8427598Y-16723567D01*
X8418074Y-16675948D01*
X8408550Y-16647377D01*
X8399026Y-16628329D01*
X8379979Y-16599758D01*
X8370455Y-16590234D01*
X1417598Y-16948330D02*
X1617598Y-17148330D01*
X1617598Y-16948330D02*
X1417598Y-17148330D01*
X1517598Y-16948330D02*
X1517598Y-17148330D01*
X1417598Y-17048330D02*
X1617598Y-17048330D01*
X1960931Y-17005472D02*
X1960931Y-17138806D01*
X1913312Y-16929282D02*
X1865693Y-17072139D01*
X1989502Y-17072139D01*
X2065693Y-17119758D02*
X2075217Y-17129282D01*
X2065693Y-17138806D01*
X2056169Y-17129282D01*
X2065693Y-17119758D01*
X2065693Y-17138806D01*
X2265693Y-17138806D02*
X2151407Y-17138806D01*
X2208550Y-17138806D02*
X2208550Y-16938806D01*
X2189503Y-16967377D01*
X2170455Y-16986425D01*
X2151407Y-16995949D01*
X2389503Y-16938806D02*
X2408550Y-16938806D01*
X2427598Y-16948330D01*
X2437122Y-16957853D01*
X2446645Y-16976901D01*
X2456169Y-17014996D01*
X2456169Y-17062615D01*
X2446645Y-17100710D01*
X2437122Y-17119758D01*
X2427598Y-17129282D01*
X2408550Y-17138806D01*
X2389503Y-17138806D01*
X2370455Y-17129282D01*
X2360931Y-17119758D01*
X2351407Y-17100710D01*
X2341884Y-17062615D01*
X2341884Y-17014996D01*
X2351407Y-16976901D01*
X2360931Y-16957853D01*
X2370455Y-16948330D01*
X2389503Y-16938806D01*
X2579979Y-16938806D02*
X2599026Y-16938806D01*
X2618074Y-16948330D01*
X2627598Y-16957853D01*
X2637122Y-16976901D01*
X2646645Y-17014996D01*
X2646645Y-17062615D01*
X2637122Y-17100710D01*
X2627598Y-17119758D01*
X2618074Y-17129282D01*
X2599026Y-17138806D01*
X2579979Y-17138806D01*
X2560931Y-17129282D01*
X2551407Y-17119758D01*
X2541884Y-17100710D01*
X2532360Y-17062615D01*
X2532360Y-17014996D01*
X2541884Y-16976901D01*
X2551407Y-16957853D01*
X2560931Y-16948330D01*
X2579979Y-16938806D01*
X2732360Y-17138806D02*
X2732360Y-17005472D01*
X2732360Y-17024520D02*
X2741884Y-17014996D01*
X2760931Y-17005472D01*
X2789503Y-17005472D01*
X2808550Y-17014996D01*
X2818074Y-17034044D01*
X2818074Y-17138806D01*
X2818074Y-17034044D02*
X2827598Y-17014996D01*
X2846645Y-17005472D01*
X2875217Y-17005472D01*
X2894264Y-17014996D01*
X2903788Y-17034044D01*
X2903788Y-17138806D01*
X2999026Y-17138806D02*
X2999026Y-17005472D01*
X2999026Y-17024520D02*
X3008550Y-17014996D01*
X3027598Y-17005472D01*
X3056169Y-17005472D01*
X3075217Y-17014996D01*
X3084741Y-17034044D01*
X3084741Y-17138806D01*
X3084741Y-17034044D02*
X3094264Y-17014996D01*
X3113312Y-17005472D01*
X3141883Y-17005472D01*
X3160931Y-17014996D01*
X3170455Y-17034044D01*
X3170455Y-17138806D01*
X3560931Y-16929282D02*
X3389502Y-17186425D01*
X3818074Y-16938806D02*
X3837122Y-16938806D01*
X3856169Y-16948330D01*
X3865693Y-16957853D01*
X3875217Y-16976901D01*
X3884741Y-17014996D01*
X3884741Y-17062615D01*
X3875217Y-17100710D01*
X3865693Y-17119758D01*
X3856169Y-17129282D01*
X3837122Y-17138806D01*
X3818074Y-17138806D01*
X3799026Y-17129282D01*
X3789502Y-17119758D01*
X3779979Y-17100710D01*
X3770455Y-17062615D01*
X3770455Y-17014996D01*
X3779979Y-16976901D01*
X3789502Y-16957853D01*
X3799026Y-16948330D01*
X3818074Y-16938806D01*
X3970455Y-17119758D02*
X3979979Y-17129282D01*
X3970455Y-17138806D01*
X3960931Y-17129282D01*
X3970455Y-17119758D01*
X3970455Y-17138806D01*
X4170455Y-17138806D02*
X4056169Y-17138806D01*
X4113312Y-17138806D02*
X4113312Y-16938806D01*
X4094264Y-16967377D01*
X4075217Y-16986425D01*
X4056169Y-16995949D01*
X4341884Y-16938806D02*
X4303788Y-16938806D01*
X4284741Y-16948330D01*
X4275217Y-16957853D01*
X4256169Y-16986425D01*
X4246645Y-17024520D01*
X4246645Y-17100710D01*
X4256169Y-17119758D01*
X4265693Y-17129282D01*
X4284741Y-17138806D01*
X4322836Y-17138806D01*
X4341884Y-17129282D01*
X4351407Y-17119758D01*
X4360931Y-17100710D01*
X4360931Y-17053091D01*
X4351407Y-17034044D01*
X4341884Y-17024520D01*
X4322836Y-17014996D01*
X4284741Y-17014996D01*
X4265693Y-17024520D01*
X4256169Y-17034044D01*
X4246645Y-17053091D01*
X4551407Y-17138806D02*
X4437122Y-17138806D01*
X4494264Y-17138806D02*
X4494264Y-16938806D01*
X4475217Y-16967377D01*
X4456169Y-16986425D01*
X4437122Y-16995949D01*
X4722836Y-17005472D02*
X4722836Y-17138806D01*
X4675217Y-16929282D02*
X4627598Y-17072139D01*
X4751407Y-17072139D01*
X4818074Y-16938806D02*
X4818074Y-16976901D01*
X4894264Y-16938806D02*
X4894264Y-16976901D01*
X5189503Y-17214996D02*
X5179979Y-17205472D01*
X5160931Y-17176901D01*
X5151407Y-17157853D01*
X5141884Y-17129282D01*
X5132360Y-17081663D01*
X5132360Y-17043568D01*
X5141884Y-16995949D01*
X5151407Y-16967377D01*
X5160931Y-16948330D01*
X5179979Y-16919758D01*
X5189503Y-16910234D01*
X5351407Y-16938806D02*
X5313312Y-16938806D01*
X5294264Y-16948330D01*
X5284741Y-16957853D01*
X5265693Y-16986425D01*
X5256169Y-17024520D01*
X5256169Y-17100710D01*
X5265693Y-17119758D01*
X5275217Y-17129282D01*
X5294264Y-17138806D01*
X5332360Y-17138806D01*
X5351407Y-17129282D01*
X5360931Y-17119758D01*
X5370455Y-17100710D01*
X5370455Y-17053091D01*
X5360931Y-17034044D01*
X5351407Y-17024520D01*
X5332360Y-17014996D01*
X5294264Y-17014996D01*
X5275217Y-17024520D01*
X5265693Y-17034044D01*
X5256169Y-17053091D01*
X5465693Y-17138806D02*
X5503788Y-17138806D01*
X5522836Y-17129282D01*
X5532360Y-17119758D01*
X5551407Y-17091187D01*
X5560931Y-17053091D01*
X5560931Y-16976901D01*
X5551407Y-16957853D01*
X5541884Y-16948330D01*
X5522836Y-16938806D01*
X5484741Y-16938806D01*
X5465693Y-16948330D01*
X5456169Y-16957853D01*
X5446645Y-16976901D01*
X5446645Y-17024520D01*
X5456169Y-17043568D01*
X5465693Y-17053091D01*
X5484741Y-17062615D01*
X5522836Y-17062615D01*
X5541884Y-17053091D01*
X5551407Y-17043568D01*
X5560931Y-17024520D01*
X5799026Y-17138806D02*
X5799026Y-16938806D01*
X5884741Y-17138806D02*
X5884741Y-17034044D01*
X5875217Y-17014996D01*
X5856169Y-17005472D01*
X5827598Y-17005472D01*
X5808550Y-17014996D01*
X5799026Y-17024520D01*
X6008550Y-17138806D02*
X5989502Y-17129282D01*
X5979979Y-17119758D01*
X5970455Y-17100710D01*
X5970455Y-17043568D01*
X5979979Y-17024520D01*
X5989502Y-17014996D01*
X6008550Y-17005472D01*
X6037122Y-17005472D01*
X6056169Y-17014996D01*
X6065693Y-17024520D01*
X6075217Y-17043568D01*
X6075217Y-17100710D01*
X6065693Y-17119758D01*
X6056169Y-17129282D01*
X6037122Y-17138806D01*
X6008550Y-17138806D01*
X6189502Y-17138806D02*
X6170455Y-17129282D01*
X6160931Y-17110234D01*
X6160931Y-16938806D01*
X6341883Y-17129282D02*
X6322836Y-17138806D01*
X6284741Y-17138806D01*
X6265693Y-17129282D01*
X6256169Y-17110234D01*
X6256169Y-17034044D01*
X6265693Y-17014996D01*
X6284741Y-17005472D01*
X6322836Y-17005472D01*
X6341883Y-17014996D01*
X6351407Y-17034044D01*
X6351407Y-17053091D01*
X6256169Y-17072139D01*
X6427598Y-17129282D02*
X6446645Y-17138806D01*
X6484741Y-17138806D01*
X6503788Y-17129282D01*
X6513312Y-17110234D01*
X6513312Y-17100710D01*
X6503788Y-17081663D01*
X6484741Y-17072139D01*
X6456169Y-17072139D01*
X6437122Y-17062615D01*
X6427598Y-17043568D01*
X6427598Y-17034044D01*
X6437122Y-17014996D01*
X6456169Y-17005472D01*
X6484741Y-17005472D01*
X6503788Y-17014996D01*
X6579979Y-17214996D02*
X6589502Y-17205472D01*
X6608550Y-17176901D01*
X6618074Y-17157853D01*
X6627598Y-17129282D01*
X6637122Y-17081663D01*
X6637122Y-17043568D01*
X6627598Y-16995949D01*
X6618074Y-16967377D01*
X6608550Y-16948330D01*
X6589502Y-16919758D01*
X6579979Y-16910234D01*
X6941883Y-17214996D02*
X6932360Y-17205472D01*
X6913312Y-17176901D01*
X6903788Y-17157853D01*
X6894264Y-17129282D01*
X6884741Y-17081663D01*
X6884741Y-17043568D01*
X6894264Y-16995949D01*
X6903788Y-16967377D01*
X6913312Y-16948330D01*
X6932360Y-16919758D01*
X6941883Y-16910234D01*
X7018074Y-17005472D02*
X7018074Y-17138806D01*
X7018074Y-17024520D02*
X7027598Y-17014996D01*
X7046645Y-17005472D01*
X7075217Y-17005472D01*
X7094264Y-17014996D01*
X7103788Y-17034044D01*
X7103788Y-17138806D01*
X7227598Y-17138806D02*
X7208550Y-17129282D01*
X7199026Y-17119758D01*
X7189502Y-17100710D01*
X7189502Y-17043568D01*
X7199026Y-17024520D01*
X7208550Y-17014996D01*
X7227598Y-17005472D01*
X7256169Y-17005472D01*
X7275217Y-17014996D01*
X7284741Y-17024520D01*
X7294264Y-17043568D01*
X7294264Y-17100710D01*
X7284741Y-17119758D01*
X7275217Y-17129282D01*
X7256169Y-17138806D01*
X7227598Y-17138806D01*
X7351407Y-17005472D02*
X7427598Y-17005472D01*
X7379979Y-16938806D02*
X7379979Y-17110234D01*
X7389502Y-17129282D01*
X7408550Y-17138806D01*
X7427598Y-17138806D01*
X7646645Y-17005472D02*
X7646645Y-17205472D01*
X7646645Y-17014996D02*
X7665693Y-17005472D01*
X7703788Y-17005472D01*
X7722836Y-17014996D01*
X7732360Y-17024520D01*
X7741883Y-17043568D01*
X7741883Y-17100710D01*
X7732360Y-17119758D01*
X7722836Y-17129282D01*
X7703788Y-17138806D01*
X7665693Y-17138806D01*
X7646645Y-17129282D01*
X7856169Y-17138806D02*
X7837122Y-17129282D01*
X7827598Y-17110234D01*
X7827598Y-16938806D01*
X8018074Y-17138806D02*
X8018074Y-17034044D01*
X8008550Y-17014996D01*
X7989502Y-17005472D01*
X7951407Y-17005472D01*
X7932360Y-17014996D01*
X8018074Y-17129282D02*
X7999026Y-17138806D01*
X7951407Y-17138806D01*
X7932360Y-17129282D01*
X7922836Y-17110234D01*
X7922836Y-17091187D01*
X7932360Y-17072139D01*
X7951407Y-17062615D01*
X7999026Y-17062615D01*
X8018074Y-17053091D01*
X8084741Y-17005472D02*
X8160931Y-17005472D01*
X8113312Y-16938806D02*
X8113312Y-17110234D01*
X8122836Y-17129282D01*
X8141883Y-17138806D01*
X8160931Y-17138806D01*
X8303788Y-17129282D02*
X8284741Y-17138806D01*
X8246645Y-17138806D01*
X8227598Y-17129282D01*
X8218074Y-17110234D01*
X8218074Y-17034044D01*
X8227598Y-17014996D01*
X8246645Y-17005472D01*
X8284741Y-17005472D01*
X8303788Y-17014996D01*
X8313312Y-17034044D01*
X8313312Y-17053091D01*
X8218074Y-17072139D01*
X8484741Y-17138806D02*
X8484741Y-16938806D01*
X8484741Y-17129282D02*
X8465693Y-17138806D01*
X8427598Y-17138806D01*
X8408550Y-17129282D01*
X8399026Y-17119758D01*
X8389503Y-17100710D01*
X8389503Y-17043568D01*
X8399026Y-17024520D01*
X8408550Y-17014996D01*
X8427598Y-17005472D01*
X8465693Y-17005472D01*
X8484741Y-17014996D01*
X8560931Y-17214996D02*
X8570455Y-17205472D01*
X8589503Y-17176901D01*
X8599026Y-17157853D01*
X8608550Y-17129282D01*
X8618074Y-17081663D01*
X8618074Y-17043568D01*
X8608550Y-16995949D01*
X8599026Y-16967377D01*
X8589503Y-16948330D01*
X8570455Y-16919758D01*
X8560931Y-16910234D01*
M02*
