G04 #@! TF.GenerationSoftware,KiCad,Pcbnew,(6.0.1)*
G04 #@! TF.CreationDate,2022-01-16T22:01:57-06:00*
G04 #@! TF.ProjectId,stain,73746169-6e2e-46b6-9963-61645f706362,rev?*
G04 #@! TF.SameCoordinates,Original*
G04 #@! TF.FileFunction,Profile,NP*
%FSLAX46Y46*%
G04 Gerber Fmt 4.6, Leading zero omitted, Abs format (unit mm)*
G04 Created by KiCad (PCBNEW (6.0.1)) date 2022-01-16 22:01:57*
%MOMM*%
%LPD*%
G01*
G04 APERTURE LIST*
G04 #@! TA.AperFunction,Profile*
%ADD10C,0.100000*%
G04 #@! TD*
G04 #@! TA.AperFunction,Profile*
%ADD11C,0.120000*%
G04 #@! TD*
G04 APERTURE END LIST*
D10*
X24268170Y-15502478D02*
G75*
G03*
X16330670Y-23439978I0J-7937500D01*
G01*
X24163478Y-145433295D02*
X325153478Y-145338000D01*
X333195670Y-23411750D02*
G75*
G03*
X325282830Y-15474250I-7912840J24622D01*
G01*
X16225978Y-137852045D02*
G75*
G03*
X24163478Y-145433295I7937501J364621D01*
G01*
X333090978Y-137400500D02*
X333195670Y-23411750D01*
X325153478Y-145338000D02*
G75*
G03*
X333090978Y-137400500I0J7937500D01*
G01*
X16330670Y-23439978D02*
X16225978Y-137852045D01*
X24268170Y-15502478D02*
X325282830Y-15474250D01*
D11*
G04 #@! TO.C,LED8*
X316125000Y-62700000D02*
X312525000Y-62700000D01*
X316125000Y-59600000D02*
X316125000Y-62700000D01*
X312525000Y-59600000D02*
X316125000Y-59600000D01*
X312525000Y-62700000D02*
X312525000Y-59600000D01*
G04 #@! TO.C,LED23*
X154200000Y-81750000D02*
X150600000Y-81750000D01*
X150600000Y-78650000D02*
X154200000Y-78650000D01*
X154200000Y-78650000D02*
X154200000Y-81750000D01*
X150600000Y-81750000D02*
X150600000Y-78650000D01*
G04 #@! TO.C,LED17*
X35137500Y-81750000D02*
X31537500Y-81750000D01*
X31537500Y-81750000D02*
X31537500Y-78650000D01*
X31537500Y-78650000D02*
X35137500Y-78650000D01*
X35137500Y-78650000D02*
X35137500Y-81750000D01*
G04 #@! TO.C,LED33*
X254212500Y-97700000D02*
X254212500Y-100800000D01*
X250612500Y-100800000D02*
X250612500Y-97700000D01*
X250612500Y-97700000D02*
X254212500Y-97700000D01*
X254212500Y-100800000D02*
X250612500Y-100800000D01*
G04 #@! TO.C,LED45*
X32756250Y-116750000D02*
X32756250Y-119850000D01*
X32756250Y-119850000D02*
X29156250Y-119850000D01*
X29156250Y-116750000D02*
X32756250Y-116750000D01*
X29156250Y-119850000D02*
X29156250Y-116750000D01*
G04 #@! TO.C,LED42*
X82762500Y-100800000D02*
X79162500Y-100800000D01*
X79162500Y-97700000D02*
X82762500Y-97700000D01*
X82762500Y-97700000D02*
X82762500Y-100800000D01*
X79162500Y-100800000D02*
X79162500Y-97700000D01*
G04 #@! TO.C,LED15*
X141075000Y-59771250D02*
X144675000Y-59771250D01*
X141075000Y-62871250D02*
X141075000Y-59771250D01*
X144675000Y-59771250D02*
X144675000Y-62871250D01*
X144675000Y-62871250D02*
X141075000Y-62871250D01*
G04 #@! TO.C,LED30*
X291093750Y-88175000D02*
X294693750Y-88175000D01*
X294693750Y-88175000D02*
X294693750Y-91275000D01*
X294693750Y-91275000D02*
X291093750Y-91275000D01*
X291093750Y-91275000D02*
X291093750Y-88175000D01*
G04 #@! TO.C,LED12*
X83925000Y-62871250D02*
X83925000Y-59771250D01*
X87525000Y-62871250D02*
X83925000Y-62871250D01*
X87525000Y-59771250D02*
X87525000Y-62871250D01*
X83925000Y-59771250D02*
X87525000Y-59771250D01*
G04 #@! TO.C,LED55*
X221612500Y-116843750D02*
X225212500Y-116843750D01*
X225212500Y-119943750D02*
X221612500Y-119943750D01*
X221612500Y-119943750D02*
X221612500Y-116843750D01*
X225212500Y-116843750D02*
X225212500Y-119943750D01*
G04 #@! TO.C,LED37*
X178012500Y-97700000D02*
X178012500Y-100800000D01*
X178012500Y-100800000D02*
X174412500Y-100800000D01*
X174412500Y-100800000D02*
X174412500Y-97700000D01*
X174412500Y-97700000D02*
X178012500Y-97700000D01*
G04 #@! TO.C,LED44*
X33918750Y-100800000D02*
X33918750Y-97700000D01*
X33918750Y-97700000D02*
X37518750Y-97700000D01*
X37518750Y-97700000D02*
X37518750Y-100800000D01*
X37518750Y-100800000D02*
X33918750Y-100800000D01*
G04 #@! TO.C,LED36*
X193462500Y-97700000D02*
X197062500Y-97700000D01*
X197062500Y-100800000D02*
X193462500Y-100800000D01*
X197062500Y-97700000D02*
X197062500Y-100800000D01*
X193462500Y-100800000D02*
X193462500Y-97700000D01*
G04 #@! TO.C,LED50*
X126787500Y-116750000D02*
X130387500Y-116750000D01*
X130387500Y-116750000D02*
X130387500Y-119850000D01*
X130387500Y-119850000D02*
X126787500Y-119850000D01*
X126787500Y-119850000D02*
X126787500Y-116750000D01*
G04 #@! TO.C,LED53*
X187537500Y-116750000D02*
X187537500Y-119850000D01*
X183937500Y-116750000D02*
X187537500Y-116750000D01*
X187537500Y-119850000D02*
X183937500Y-119850000D01*
X183937500Y-119850000D02*
X183937500Y-116750000D01*
G04 #@! TO.C,LED49*
X111337500Y-116750000D02*
X111337500Y-119850000D01*
X107737500Y-119850000D02*
X107737500Y-116750000D01*
X107737500Y-116750000D02*
X111337500Y-116750000D01*
X111337500Y-119850000D02*
X107737500Y-119850000D01*
G04 #@! TO.C,LED32*
X273262500Y-100800000D02*
X269662500Y-100800000D01*
X273262500Y-97700000D02*
X273262500Y-100800000D01*
X269662500Y-100800000D02*
X269662500Y-97700000D01*
X269662500Y-97700000D02*
X273262500Y-97700000D01*
G04 #@! TO.C,LED11*
X64875000Y-59771250D02*
X68475000Y-59771250D01*
X68475000Y-62871250D02*
X64875000Y-62871250D01*
X64875000Y-62871250D02*
X64875000Y-59771250D01*
X68475000Y-59771250D02*
X68475000Y-62871250D01*
G04 #@! TO.C,LED40*
X120862500Y-100800000D02*
X117262500Y-100800000D01*
X117262500Y-100800000D02*
X117262500Y-97700000D01*
X117262500Y-97700000D02*
X120862500Y-97700000D01*
X120862500Y-97700000D02*
X120862500Y-100800000D01*
G04 #@! TO.C,LED31*
X312525000Y-97700000D02*
X316125000Y-97700000D01*
X312525000Y-100800000D02*
X312525000Y-97700000D01*
X316125000Y-97700000D02*
X316125000Y-100800000D01*
X316125000Y-100800000D02*
X312525000Y-100800000D01*
G04 #@! TO.C,LED34*
X231562500Y-97700000D02*
X235162500Y-97700000D01*
X235162500Y-100800000D02*
X231562500Y-100800000D01*
X235162500Y-97700000D02*
X235162500Y-100800000D01*
X231562500Y-100800000D02*
X231562500Y-97700000D01*
G04 #@! TO.C,LED13*
X102975000Y-62871250D02*
X102975000Y-59771250D01*
X106575000Y-62871250D02*
X102975000Y-62871250D01*
X106575000Y-59771250D02*
X106575000Y-62871250D01*
X102975000Y-59771250D02*
X106575000Y-59771250D01*
G04 #@! TO.C,LED58*
X297075000Y-119850000D02*
X293475000Y-119850000D01*
X293475000Y-116750000D02*
X297075000Y-116750000D01*
X293475000Y-119850000D02*
X293475000Y-116750000D01*
X297075000Y-116750000D02*
X297075000Y-119850000D01*
G04 #@! TO.C,LED29*
X264900000Y-81750000D02*
X264900000Y-78650000D01*
X268500000Y-78650000D02*
X268500000Y-81750000D01*
X264900000Y-78650000D02*
X268500000Y-78650000D01*
X268500000Y-81750000D02*
X264900000Y-81750000D01*
G04 #@! TO.C,LED65*
X239925000Y-135800000D02*
X239925000Y-138900000D01*
X236325000Y-135800000D02*
X239925000Y-135800000D01*
X239925000Y-138900000D02*
X236325000Y-138900000D01*
X236325000Y-138900000D02*
X236325000Y-135800000D01*
G04 #@! TO.C,LED48*
X92287500Y-119850000D02*
X88687500Y-119850000D01*
X88687500Y-116750000D02*
X92287500Y-116750000D01*
X92287500Y-116750000D02*
X92287500Y-119850000D01*
X88687500Y-119850000D02*
X88687500Y-116750000D01*
G04 #@! TO.C,LED16*
X312525000Y-81750000D02*
X312525000Y-78650000D01*
X316125000Y-78650000D02*
X316125000Y-81750000D01*
X312525000Y-78650000D02*
X316125000Y-78650000D01*
X316125000Y-81750000D02*
X312525000Y-81750000D01*
G04 #@! TO.C,LED19*
X78000000Y-81750000D02*
X74400000Y-81750000D01*
X74400000Y-78650000D02*
X78000000Y-78650000D01*
X78000000Y-78650000D02*
X78000000Y-81750000D01*
X74400000Y-81750000D02*
X74400000Y-78650000D01*
G04 #@! TO.C,LED2*
X182775000Y-59771250D02*
X182775000Y-62871250D01*
X182775000Y-62871250D02*
X179175000Y-62871250D01*
X179175000Y-62871250D02*
X179175000Y-59771250D01*
X179175000Y-59771250D02*
X182775000Y-59771250D01*
G04 #@! TO.C,LED5*
X239925000Y-59771250D02*
X239925000Y-62871250D01*
X236325000Y-59771250D02*
X239925000Y-59771250D01*
X236325000Y-62871250D02*
X236325000Y-59771250D01*
X239925000Y-62871250D02*
X236325000Y-62871250D01*
G04 #@! TO.C,LED43*
X64506250Y-100800000D02*
X60906250Y-100800000D01*
X64506250Y-97700000D02*
X64506250Y-100800000D01*
X60906250Y-100800000D02*
X60906250Y-97700000D01*
X60906250Y-97700000D02*
X64506250Y-97700000D01*
G04 #@! TO.C,LED6*
X258975000Y-59771250D02*
X258975000Y-62871250D01*
X255375000Y-59771250D02*
X258975000Y-59771250D01*
X258975000Y-62871250D02*
X255375000Y-62871250D01*
X255375000Y-62871250D02*
X255375000Y-59771250D01*
G04 #@! TO.C,LED14*
X125625000Y-59771250D02*
X125625000Y-62871250D01*
X122025000Y-59771250D02*
X125625000Y-59771250D01*
X125625000Y-62871250D02*
X122025000Y-62871250D01*
X122025000Y-62871250D02*
X122025000Y-59771250D01*
G04 #@! TO.C,LED66*
X258975000Y-135800000D02*
X258975000Y-138900000D01*
X258975000Y-138900000D02*
X255375000Y-138900000D01*
X255375000Y-135800000D02*
X258975000Y-135800000D01*
X255375000Y-138900000D02*
X255375000Y-135800000D01*
G04 #@! TO.C,LED28*
X249450000Y-78650000D02*
X249450000Y-81750000D01*
X245850000Y-78650000D02*
X249450000Y-78650000D01*
X245850000Y-81750000D02*
X245850000Y-78650000D01*
X249450000Y-81750000D02*
X245850000Y-81750000D01*
G04 #@! TO.C,LED4*
X217275000Y-59771250D02*
X220875000Y-59771250D01*
X220875000Y-59771250D02*
X220875000Y-62871250D01*
X217275000Y-62871250D02*
X217275000Y-59771250D01*
X220875000Y-62871250D02*
X217275000Y-62871250D01*
G04 #@! TO.C,LED10*
X45825000Y-59771250D02*
X49425000Y-59771250D01*
X49425000Y-62871250D02*
X45825000Y-62871250D01*
X49425000Y-59771250D02*
X49425000Y-62871250D01*
X45825000Y-62871250D02*
X45825000Y-59771250D01*
G04 #@! TO.C,LED22*
X131550000Y-78650000D02*
X135150000Y-78650000D01*
X135150000Y-78650000D02*
X135150000Y-81750000D01*
X135150000Y-81750000D02*
X131550000Y-81750000D01*
X131550000Y-81750000D02*
X131550000Y-78650000D01*
G04 #@! TO.C,LED60*
X29156250Y-138900000D02*
X29156250Y-135800000D01*
X32756250Y-138900000D02*
X29156250Y-138900000D01*
X29156250Y-135800000D02*
X32756250Y-135800000D01*
X32756250Y-135800000D02*
X32756250Y-138900000D01*
G04 #@! TO.C,LED7*
X283950000Y-62700000D02*
X283950000Y-59600000D01*
X283950000Y-59600000D02*
X287550000Y-59600000D01*
X287550000Y-59600000D02*
X287550000Y-62700000D01*
X287550000Y-62700000D02*
X283950000Y-62700000D01*
G04 #@! TO.C,LED21*
X112500000Y-78650000D02*
X116100000Y-78650000D01*
X116100000Y-81750000D02*
X112500000Y-81750000D01*
X112500000Y-81750000D02*
X112500000Y-78650000D01*
X116100000Y-78650000D02*
X116100000Y-81750000D01*
G04 #@! TO.C,LED51*
X145837500Y-119850000D02*
X145837500Y-116750000D01*
X145837500Y-116750000D02*
X149437500Y-116750000D01*
X149437500Y-119850000D02*
X145837500Y-119850000D01*
X149437500Y-116750000D02*
X149437500Y-119850000D01*
G04 #@! TO.C,LED62*
X76781250Y-135800000D02*
X80381250Y-135800000D01*
X80381250Y-135800000D02*
X80381250Y-138900000D01*
X80381250Y-138900000D02*
X76781250Y-138900000D01*
X76781250Y-138900000D02*
X76781250Y-135800000D01*
G04 #@! TO.C,LED61*
X52968750Y-135800000D02*
X56568750Y-135800000D01*
X56568750Y-138900000D02*
X52968750Y-138900000D01*
X56568750Y-135800000D02*
X56568750Y-138900000D01*
X52968750Y-138900000D02*
X52968750Y-135800000D01*
G04 #@! TO.C,LED25*
X192300000Y-78650000D02*
X192300000Y-81750000D01*
X192300000Y-81750000D02*
X188700000Y-81750000D01*
X188700000Y-78650000D02*
X192300000Y-78650000D01*
X188700000Y-81750000D02*
X188700000Y-78650000D01*
G04 #@! TO.C,LED27*
X226800000Y-81843750D02*
X226800000Y-78743750D01*
X230400000Y-81843750D02*
X226800000Y-81843750D01*
X226800000Y-78743750D02*
X230400000Y-78743750D01*
X230400000Y-78743750D02*
X230400000Y-81843750D01*
G04 #@! TO.C,LED63*
X151818750Y-135800000D02*
X151818750Y-138900000D01*
X148218750Y-138900000D02*
X148218750Y-135800000D01*
X151818750Y-138900000D02*
X148218750Y-138900000D01*
X148218750Y-135800000D02*
X151818750Y-135800000D01*
G04 #@! TO.C,LED38*
X155362500Y-100800000D02*
X155362500Y-97700000D01*
X155362500Y-97700000D02*
X158962500Y-97700000D01*
X158962500Y-97700000D02*
X158962500Y-100800000D01*
X158962500Y-100800000D02*
X155362500Y-100800000D01*
G04 #@! TO.C,LED46*
X54187500Y-119850000D02*
X50587500Y-119850000D01*
X54187500Y-116750000D02*
X54187500Y-119850000D01*
X50587500Y-119850000D02*
X50587500Y-116750000D01*
X50587500Y-116750000D02*
X54187500Y-116750000D01*
G04 #@! TO.C,LED35*
X212512500Y-97700000D02*
X216112500Y-97700000D01*
X212512500Y-100800000D02*
X212512500Y-97700000D01*
X216112500Y-100800000D02*
X212512500Y-100800000D01*
X216112500Y-97700000D02*
X216112500Y-100800000D01*
G04 #@! TO.C,LED1*
X163725000Y-62871250D02*
X160125000Y-62871250D01*
X163725000Y-59771250D02*
X163725000Y-62871250D01*
X160125000Y-59771250D02*
X163725000Y-59771250D01*
X160125000Y-62871250D02*
X160125000Y-59771250D01*
G04 #@! TO.C,LED59*
X316125000Y-116750000D02*
X316125000Y-119850000D01*
X312525000Y-119850000D02*
X312525000Y-116750000D01*
X316125000Y-119850000D02*
X312525000Y-119850000D01*
X312525000Y-116750000D02*
X316125000Y-116750000D01*
G04 #@! TO.C,LED41*
X98212500Y-97700000D02*
X101812500Y-97700000D01*
X98212500Y-100800000D02*
X98212500Y-97700000D01*
X101812500Y-97700000D02*
X101812500Y-100800000D01*
X101812500Y-100800000D02*
X98212500Y-100800000D01*
G04 #@! TO.C,LED47*
X73237500Y-116750000D02*
X73237500Y-119850000D01*
X69637500Y-116750000D02*
X73237500Y-116750000D01*
X73237500Y-119850000D02*
X69637500Y-119850000D01*
X69637500Y-119850000D02*
X69637500Y-116750000D01*
G04 #@! TO.C,LED26*
X206956250Y-78743750D02*
X210556250Y-78743750D01*
X206956250Y-81843750D02*
X206956250Y-78743750D01*
X210556250Y-81843750D02*
X206956250Y-81843750D01*
X210556250Y-78743750D02*
X210556250Y-81843750D01*
G04 #@! TO.C,LED69*
X316125000Y-138900000D02*
X312525000Y-138900000D01*
X312525000Y-135800000D02*
X316125000Y-135800000D01*
X312525000Y-138900000D02*
X312525000Y-135800000D01*
X316125000Y-135800000D02*
X316125000Y-138900000D01*
G04 #@! TO.C,LED24*
X173250000Y-78650000D02*
X173250000Y-81750000D01*
X169650000Y-78650000D02*
X173250000Y-78650000D01*
X169650000Y-81750000D02*
X169650000Y-78650000D01*
X173250000Y-81750000D02*
X169650000Y-81750000D01*
G04 #@! TO.C,LED54*
X202987500Y-119850000D02*
X202987500Y-116750000D01*
X202987500Y-116750000D02*
X206587500Y-116750000D01*
X206587500Y-116750000D02*
X206587500Y-119850000D01*
X206587500Y-119850000D02*
X202987500Y-119850000D01*
G04 #@! TO.C,LED9*
X26775000Y-59771250D02*
X30375000Y-59771250D01*
X30375000Y-59771250D02*
X30375000Y-62871250D01*
X30375000Y-62871250D02*
X26775000Y-62871250D01*
X26775000Y-62871250D02*
X26775000Y-59771250D01*
G04 #@! TO.C,LED20*
X93450000Y-78650000D02*
X97050000Y-78650000D01*
X93450000Y-81750000D02*
X93450000Y-78650000D01*
X97050000Y-78650000D02*
X97050000Y-81750000D01*
X97050000Y-81750000D02*
X93450000Y-81750000D01*
G04 #@! TO.C,LED64*
X220875000Y-135800000D02*
X220875000Y-138900000D01*
X220875000Y-138900000D02*
X217275000Y-138900000D01*
X217275000Y-135800000D02*
X220875000Y-135800000D01*
X217275000Y-138900000D02*
X217275000Y-135800000D01*
G04 #@! TO.C,LED18*
X55350000Y-81750000D02*
X55350000Y-78650000D01*
X58950000Y-78650000D02*
X58950000Y-81750000D01*
X55350000Y-78650000D02*
X58950000Y-78650000D01*
X58950000Y-81750000D02*
X55350000Y-81750000D01*
G04 #@! TO.C,LED3*
X201825000Y-62871250D02*
X198225000Y-62871250D01*
X198225000Y-59771250D02*
X201825000Y-59771250D01*
X201825000Y-59771250D02*
X201825000Y-62871250D01*
X198225000Y-62871250D02*
X198225000Y-59771250D01*
G04 #@! TO.C,LED67*
X278025000Y-135800000D02*
X278025000Y-138900000D01*
X278025000Y-138900000D02*
X274425000Y-138900000D01*
X274425000Y-135800000D02*
X278025000Y-135800000D01*
X274425000Y-138900000D02*
X274425000Y-135800000D01*
G04 #@! TO.C,LED39*
X136312500Y-97700000D02*
X139912500Y-97700000D01*
X139912500Y-97700000D02*
X139912500Y-100800000D01*
X139912500Y-100800000D02*
X136312500Y-100800000D01*
X136312500Y-100800000D02*
X136312500Y-97700000D01*
G04 #@! TO.C,LED68*
X293475000Y-138900000D02*
X293475000Y-135800000D01*
X297075000Y-135800000D02*
X297075000Y-138900000D01*
X293475000Y-135800000D02*
X297075000Y-135800000D01*
X297075000Y-138900000D02*
X293475000Y-138900000D01*
G04 #@! TO.C,LED56*
X241087500Y-119850000D02*
X241087500Y-116750000D01*
X244687500Y-119850000D02*
X241087500Y-119850000D01*
X241087500Y-116750000D02*
X244687500Y-116750000D01*
X244687500Y-116750000D02*
X244687500Y-119850000D01*
G04 #@! TO.C,LED52*
X164887500Y-119850000D02*
X164887500Y-116750000D01*
X168487500Y-116750000D02*
X168487500Y-119850000D01*
X164887500Y-116750000D02*
X168487500Y-116750000D01*
X168487500Y-119850000D02*
X164887500Y-119850000D01*
G04 #@! TO.C,LED57*
X270881250Y-116750000D02*
X270881250Y-119850000D01*
X267281250Y-119850000D02*
X267281250Y-116750000D01*
X267281250Y-116750000D02*
X270881250Y-116750000D01*
X270881250Y-119850000D02*
X267281250Y-119850000D01*
G04 #@! TD*
M02*
