G04 #@! TF.GenerationSoftware,KiCad,Pcbnew,(6.0.1)*
G04 #@! TF.CreationDate,2022-01-16T22:01:57-06:00*
G04 #@! TF.ProjectId,stain,73746169-6e2e-46b6-9963-61645f706362,rev?*
G04 #@! TF.SameCoordinates,Original*
G04 #@! TF.FileFunction,Soldermask,Bot*
G04 #@! TF.FilePolarity,Negative*
%FSLAX46Y46*%
G04 Gerber Fmt 4.6, Leading zero omitted, Abs format (unit mm)*
G04 Created by KiCad (PCBNEW (6.0.1)) date 2022-01-16 22:01:57*
%MOMM*%
%LPD*%
G01*
G04 APERTURE LIST*
G04 #@! TA.AperFunction,Profile*
%ADD10C,0.100000*%
G04 #@! TD*
G04 #@! TA.AperFunction,Profile*
%ADD11C,0.120000*%
G04 #@! TD*
%ADD12R,2.000000X2.000000*%
%ADD13C,2.000000*%
%ADD14C,3.000000*%
%ADD15C,1.900000*%
%ADD16C,4.100000*%
%ADD17R,2.550000X2.500000*%
%ADD18C,2.200000*%
%ADD19C,3.987800*%
%ADD20C,3.048000*%
%ADD21R,3.200000X2.000000*%
%ADD22C,1.700000*%
%ADD23R,1.700000X1.700000*%
%ADD24C,1.397000*%
%ADD25R,1.700000X1.000000*%
%ADD26R,1.524000X1.524000*%
G04 APERTURE END LIST*
D10*
X24268170Y-15502478D02*
G75*
G03*
X16330670Y-23439978I0J-7937500D01*
G01*
X24163478Y-145433295D02*
X325153478Y-145338000D01*
X333195670Y-23411750D02*
G75*
G03*
X325282830Y-15474250I-7912840J24622D01*
G01*
X16225978Y-137852045D02*
G75*
G03*
X24163478Y-145433295I7937501J364621D01*
G01*
X333090978Y-137400500D02*
X333195670Y-23411750D01*
X325153478Y-145338000D02*
G75*
G03*
X333090978Y-137400500I0J7937500D01*
G01*
X16330670Y-23439978D02*
X16225978Y-137852045D01*
X24268170Y-15502478D02*
X325282830Y-15474250D01*
D11*
G04 #@! TO.C,LED8*
X316125000Y-62700000D02*
X312525000Y-62700000D01*
X316125000Y-59600000D02*
X316125000Y-62700000D01*
X312525000Y-59600000D02*
X316125000Y-59600000D01*
X312525000Y-62700000D02*
X312525000Y-59600000D01*
G04 #@! TO.C,LED23*
X154200000Y-81750000D02*
X150600000Y-81750000D01*
X150600000Y-78650000D02*
X154200000Y-78650000D01*
X154200000Y-78650000D02*
X154200000Y-81750000D01*
X150600000Y-81750000D02*
X150600000Y-78650000D01*
G04 #@! TO.C,LED17*
X35137500Y-81750000D02*
X31537500Y-81750000D01*
X31537500Y-81750000D02*
X31537500Y-78650000D01*
X31537500Y-78650000D02*
X35137500Y-78650000D01*
X35137500Y-78650000D02*
X35137500Y-81750000D01*
G04 #@! TO.C,LED33*
X254212500Y-97700000D02*
X254212500Y-100800000D01*
X250612500Y-100800000D02*
X250612500Y-97700000D01*
X250612500Y-97700000D02*
X254212500Y-97700000D01*
X254212500Y-100800000D02*
X250612500Y-100800000D01*
G04 #@! TO.C,LED45*
X32756250Y-116750000D02*
X32756250Y-119850000D01*
X32756250Y-119850000D02*
X29156250Y-119850000D01*
X29156250Y-116750000D02*
X32756250Y-116750000D01*
X29156250Y-119850000D02*
X29156250Y-116750000D01*
G04 #@! TO.C,LED42*
X82762500Y-100800000D02*
X79162500Y-100800000D01*
X79162500Y-97700000D02*
X82762500Y-97700000D01*
X82762500Y-97700000D02*
X82762500Y-100800000D01*
X79162500Y-100800000D02*
X79162500Y-97700000D01*
G04 #@! TO.C,LED15*
X141075000Y-59771250D02*
X144675000Y-59771250D01*
X141075000Y-62871250D02*
X141075000Y-59771250D01*
X144675000Y-59771250D02*
X144675000Y-62871250D01*
X144675000Y-62871250D02*
X141075000Y-62871250D01*
G04 #@! TO.C,LED30*
X291093750Y-88175000D02*
X294693750Y-88175000D01*
X294693750Y-88175000D02*
X294693750Y-91275000D01*
X294693750Y-91275000D02*
X291093750Y-91275000D01*
X291093750Y-91275000D02*
X291093750Y-88175000D01*
G04 #@! TO.C,LED12*
X83925000Y-62871250D02*
X83925000Y-59771250D01*
X87525000Y-62871250D02*
X83925000Y-62871250D01*
X87525000Y-59771250D02*
X87525000Y-62871250D01*
X83925000Y-59771250D02*
X87525000Y-59771250D01*
G04 #@! TO.C,LED55*
X221612500Y-116843750D02*
X225212500Y-116843750D01*
X225212500Y-119943750D02*
X221612500Y-119943750D01*
X221612500Y-119943750D02*
X221612500Y-116843750D01*
X225212500Y-116843750D02*
X225212500Y-119943750D01*
G04 #@! TO.C,LED37*
X178012500Y-97700000D02*
X178012500Y-100800000D01*
X178012500Y-100800000D02*
X174412500Y-100800000D01*
X174412500Y-100800000D02*
X174412500Y-97700000D01*
X174412500Y-97700000D02*
X178012500Y-97700000D01*
G04 #@! TO.C,LED44*
X33918750Y-100800000D02*
X33918750Y-97700000D01*
X33918750Y-97700000D02*
X37518750Y-97700000D01*
X37518750Y-97700000D02*
X37518750Y-100800000D01*
X37518750Y-100800000D02*
X33918750Y-100800000D01*
G04 #@! TO.C,LED36*
X193462500Y-97700000D02*
X197062500Y-97700000D01*
X197062500Y-100800000D02*
X193462500Y-100800000D01*
X197062500Y-97700000D02*
X197062500Y-100800000D01*
X193462500Y-100800000D02*
X193462500Y-97700000D01*
G04 #@! TO.C,LED50*
X126787500Y-116750000D02*
X130387500Y-116750000D01*
X130387500Y-116750000D02*
X130387500Y-119850000D01*
X130387500Y-119850000D02*
X126787500Y-119850000D01*
X126787500Y-119850000D02*
X126787500Y-116750000D01*
G04 #@! TO.C,LED53*
X187537500Y-116750000D02*
X187537500Y-119850000D01*
X183937500Y-116750000D02*
X187537500Y-116750000D01*
X187537500Y-119850000D02*
X183937500Y-119850000D01*
X183937500Y-119850000D02*
X183937500Y-116750000D01*
G04 #@! TO.C,LED49*
X111337500Y-116750000D02*
X111337500Y-119850000D01*
X107737500Y-119850000D02*
X107737500Y-116750000D01*
X107737500Y-116750000D02*
X111337500Y-116750000D01*
X111337500Y-119850000D02*
X107737500Y-119850000D01*
G04 #@! TO.C,LED32*
X273262500Y-100800000D02*
X269662500Y-100800000D01*
X273262500Y-97700000D02*
X273262500Y-100800000D01*
X269662500Y-100800000D02*
X269662500Y-97700000D01*
X269662500Y-97700000D02*
X273262500Y-97700000D01*
G04 #@! TO.C,LED11*
X64875000Y-59771250D02*
X68475000Y-59771250D01*
X68475000Y-62871250D02*
X64875000Y-62871250D01*
X64875000Y-62871250D02*
X64875000Y-59771250D01*
X68475000Y-59771250D02*
X68475000Y-62871250D01*
G04 #@! TO.C,LED40*
X120862500Y-100800000D02*
X117262500Y-100800000D01*
X117262500Y-100800000D02*
X117262500Y-97700000D01*
X117262500Y-97700000D02*
X120862500Y-97700000D01*
X120862500Y-97700000D02*
X120862500Y-100800000D01*
G04 #@! TO.C,LED31*
X312525000Y-97700000D02*
X316125000Y-97700000D01*
X312525000Y-100800000D02*
X312525000Y-97700000D01*
X316125000Y-97700000D02*
X316125000Y-100800000D01*
X316125000Y-100800000D02*
X312525000Y-100800000D01*
G04 #@! TO.C,LED34*
X231562500Y-97700000D02*
X235162500Y-97700000D01*
X235162500Y-100800000D02*
X231562500Y-100800000D01*
X235162500Y-97700000D02*
X235162500Y-100800000D01*
X231562500Y-100800000D02*
X231562500Y-97700000D01*
G04 #@! TO.C,LED13*
X102975000Y-62871250D02*
X102975000Y-59771250D01*
X106575000Y-62871250D02*
X102975000Y-62871250D01*
X106575000Y-59771250D02*
X106575000Y-62871250D01*
X102975000Y-59771250D02*
X106575000Y-59771250D01*
G04 #@! TO.C,LED58*
X297075000Y-119850000D02*
X293475000Y-119850000D01*
X293475000Y-116750000D02*
X297075000Y-116750000D01*
X293475000Y-119850000D02*
X293475000Y-116750000D01*
X297075000Y-116750000D02*
X297075000Y-119850000D01*
G04 #@! TO.C,LED29*
X264900000Y-81750000D02*
X264900000Y-78650000D01*
X268500000Y-78650000D02*
X268500000Y-81750000D01*
X264900000Y-78650000D02*
X268500000Y-78650000D01*
X268500000Y-81750000D02*
X264900000Y-81750000D01*
G04 #@! TO.C,LED65*
X239925000Y-135800000D02*
X239925000Y-138900000D01*
X236325000Y-135800000D02*
X239925000Y-135800000D01*
X239925000Y-138900000D02*
X236325000Y-138900000D01*
X236325000Y-138900000D02*
X236325000Y-135800000D01*
G04 #@! TO.C,LED48*
X92287500Y-119850000D02*
X88687500Y-119850000D01*
X88687500Y-116750000D02*
X92287500Y-116750000D01*
X92287500Y-116750000D02*
X92287500Y-119850000D01*
X88687500Y-119850000D02*
X88687500Y-116750000D01*
G04 #@! TO.C,LED16*
X312525000Y-81750000D02*
X312525000Y-78650000D01*
X316125000Y-78650000D02*
X316125000Y-81750000D01*
X312525000Y-78650000D02*
X316125000Y-78650000D01*
X316125000Y-81750000D02*
X312525000Y-81750000D01*
G04 #@! TO.C,LED19*
X78000000Y-81750000D02*
X74400000Y-81750000D01*
X74400000Y-78650000D02*
X78000000Y-78650000D01*
X78000000Y-78650000D02*
X78000000Y-81750000D01*
X74400000Y-81750000D02*
X74400000Y-78650000D01*
G04 #@! TO.C,LED2*
X182775000Y-59771250D02*
X182775000Y-62871250D01*
X182775000Y-62871250D02*
X179175000Y-62871250D01*
X179175000Y-62871250D02*
X179175000Y-59771250D01*
X179175000Y-59771250D02*
X182775000Y-59771250D01*
G04 #@! TO.C,LED5*
X239925000Y-59771250D02*
X239925000Y-62871250D01*
X236325000Y-59771250D02*
X239925000Y-59771250D01*
X236325000Y-62871250D02*
X236325000Y-59771250D01*
X239925000Y-62871250D02*
X236325000Y-62871250D01*
G04 #@! TO.C,LED43*
X64506250Y-100800000D02*
X60906250Y-100800000D01*
X64506250Y-97700000D02*
X64506250Y-100800000D01*
X60906250Y-100800000D02*
X60906250Y-97700000D01*
X60906250Y-97700000D02*
X64506250Y-97700000D01*
G04 #@! TO.C,LED6*
X258975000Y-59771250D02*
X258975000Y-62871250D01*
X255375000Y-59771250D02*
X258975000Y-59771250D01*
X258975000Y-62871250D02*
X255375000Y-62871250D01*
X255375000Y-62871250D02*
X255375000Y-59771250D01*
G04 #@! TO.C,LED14*
X125625000Y-59771250D02*
X125625000Y-62871250D01*
X122025000Y-59771250D02*
X125625000Y-59771250D01*
X125625000Y-62871250D02*
X122025000Y-62871250D01*
X122025000Y-62871250D02*
X122025000Y-59771250D01*
G04 #@! TO.C,LED66*
X258975000Y-135800000D02*
X258975000Y-138900000D01*
X258975000Y-138900000D02*
X255375000Y-138900000D01*
X255375000Y-135800000D02*
X258975000Y-135800000D01*
X255375000Y-138900000D02*
X255375000Y-135800000D01*
G04 #@! TO.C,LED28*
X249450000Y-78650000D02*
X249450000Y-81750000D01*
X245850000Y-78650000D02*
X249450000Y-78650000D01*
X245850000Y-81750000D02*
X245850000Y-78650000D01*
X249450000Y-81750000D02*
X245850000Y-81750000D01*
G04 #@! TO.C,LED4*
X217275000Y-59771250D02*
X220875000Y-59771250D01*
X220875000Y-59771250D02*
X220875000Y-62871250D01*
X217275000Y-62871250D02*
X217275000Y-59771250D01*
X220875000Y-62871250D02*
X217275000Y-62871250D01*
G04 #@! TO.C,LED10*
X45825000Y-59771250D02*
X49425000Y-59771250D01*
X49425000Y-62871250D02*
X45825000Y-62871250D01*
X49425000Y-59771250D02*
X49425000Y-62871250D01*
X45825000Y-62871250D02*
X45825000Y-59771250D01*
G04 #@! TO.C,LED22*
X131550000Y-78650000D02*
X135150000Y-78650000D01*
X135150000Y-78650000D02*
X135150000Y-81750000D01*
X135150000Y-81750000D02*
X131550000Y-81750000D01*
X131550000Y-81750000D02*
X131550000Y-78650000D01*
G04 #@! TO.C,LED60*
X29156250Y-138900000D02*
X29156250Y-135800000D01*
X32756250Y-138900000D02*
X29156250Y-138900000D01*
X29156250Y-135800000D02*
X32756250Y-135800000D01*
X32756250Y-135800000D02*
X32756250Y-138900000D01*
G04 #@! TO.C,LED7*
X283950000Y-62700000D02*
X283950000Y-59600000D01*
X283950000Y-59600000D02*
X287550000Y-59600000D01*
X287550000Y-59600000D02*
X287550000Y-62700000D01*
X287550000Y-62700000D02*
X283950000Y-62700000D01*
G04 #@! TO.C,LED21*
X112500000Y-78650000D02*
X116100000Y-78650000D01*
X116100000Y-81750000D02*
X112500000Y-81750000D01*
X112500000Y-81750000D02*
X112500000Y-78650000D01*
X116100000Y-78650000D02*
X116100000Y-81750000D01*
G04 #@! TO.C,LED51*
X145837500Y-119850000D02*
X145837500Y-116750000D01*
X145837500Y-116750000D02*
X149437500Y-116750000D01*
X149437500Y-119850000D02*
X145837500Y-119850000D01*
X149437500Y-116750000D02*
X149437500Y-119850000D01*
G04 #@! TO.C,LED62*
X76781250Y-135800000D02*
X80381250Y-135800000D01*
X80381250Y-135800000D02*
X80381250Y-138900000D01*
X80381250Y-138900000D02*
X76781250Y-138900000D01*
X76781250Y-138900000D02*
X76781250Y-135800000D01*
G04 #@! TO.C,LED61*
X52968750Y-135800000D02*
X56568750Y-135800000D01*
X56568750Y-138900000D02*
X52968750Y-138900000D01*
X56568750Y-135800000D02*
X56568750Y-138900000D01*
X52968750Y-138900000D02*
X52968750Y-135800000D01*
G04 #@! TO.C,LED25*
X192300000Y-78650000D02*
X192300000Y-81750000D01*
X192300000Y-81750000D02*
X188700000Y-81750000D01*
X188700000Y-78650000D02*
X192300000Y-78650000D01*
X188700000Y-81750000D02*
X188700000Y-78650000D01*
G04 #@! TO.C,LED27*
X226800000Y-81843750D02*
X226800000Y-78743750D01*
X230400000Y-81843750D02*
X226800000Y-81843750D01*
X226800000Y-78743750D02*
X230400000Y-78743750D01*
X230400000Y-78743750D02*
X230400000Y-81843750D01*
G04 #@! TO.C,LED63*
X151818750Y-135800000D02*
X151818750Y-138900000D01*
X148218750Y-138900000D02*
X148218750Y-135800000D01*
X151818750Y-138900000D02*
X148218750Y-138900000D01*
X148218750Y-135800000D02*
X151818750Y-135800000D01*
G04 #@! TO.C,LED38*
X155362500Y-100800000D02*
X155362500Y-97700000D01*
X155362500Y-97700000D02*
X158962500Y-97700000D01*
X158962500Y-97700000D02*
X158962500Y-100800000D01*
X158962500Y-100800000D02*
X155362500Y-100800000D01*
G04 #@! TO.C,LED46*
X54187500Y-119850000D02*
X50587500Y-119850000D01*
X54187500Y-116750000D02*
X54187500Y-119850000D01*
X50587500Y-119850000D02*
X50587500Y-116750000D01*
X50587500Y-116750000D02*
X54187500Y-116750000D01*
G04 #@! TO.C,LED35*
X212512500Y-97700000D02*
X216112500Y-97700000D01*
X212512500Y-100800000D02*
X212512500Y-97700000D01*
X216112500Y-100800000D02*
X212512500Y-100800000D01*
X216112500Y-97700000D02*
X216112500Y-100800000D01*
G04 #@! TO.C,LED1*
X163725000Y-62871250D02*
X160125000Y-62871250D01*
X163725000Y-59771250D02*
X163725000Y-62871250D01*
X160125000Y-59771250D02*
X163725000Y-59771250D01*
X160125000Y-62871250D02*
X160125000Y-59771250D01*
G04 #@! TO.C,LED59*
X316125000Y-116750000D02*
X316125000Y-119850000D01*
X312525000Y-119850000D02*
X312525000Y-116750000D01*
X316125000Y-119850000D02*
X312525000Y-119850000D01*
X312525000Y-116750000D02*
X316125000Y-116750000D01*
G04 #@! TO.C,LED41*
X98212500Y-97700000D02*
X101812500Y-97700000D01*
X98212500Y-100800000D02*
X98212500Y-97700000D01*
X101812500Y-97700000D02*
X101812500Y-100800000D01*
X101812500Y-100800000D02*
X98212500Y-100800000D01*
G04 #@! TO.C,LED47*
X73237500Y-116750000D02*
X73237500Y-119850000D01*
X69637500Y-116750000D02*
X73237500Y-116750000D01*
X73237500Y-119850000D02*
X69637500Y-119850000D01*
X69637500Y-119850000D02*
X69637500Y-116750000D01*
G04 #@! TO.C,LED26*
X206956250Y-78743750D02*
X210556250Y-78743750D01*
X206956250Y-81843750D02*
X206956250Y-78743750D01*
X210556250Y-81843750D02*
X206956250Y-81843750D01*
X210556250Y-78743750D02*
X210556250Y-81843750D01*
G04 #@! TO.C,LED69*
X316125000Y-138900000D02*
X312525000Y-138900000D01*
X312525000Y-135800000D02*
X316125000Y-135800000D01*
X312525000Y-138900000D02*
X312525000Y-135800000D01*
X316125000Y-135800000D02*
X316125000Y-138900000D01*
G04 #@! TO.C,LED24*
X173250000Y-78650000D02*
X173250000Y-81750000D01*
X169650000Y-78650000D02*
X173250000Y-78650000D01*
X169650000Y-81750000D02*
X169650000Y-78650000D01*
X173250000Y-81750000D02*
X169650000Y-81750000D01*
G04 #@! TO.C,LED54*
X202987500Y-119850000D02*
X202987500Y-116750000D01*
X202987500Y-116750000D02*
X206587500Y-116750000D01*
X206587500Y-116750000D02*
X206587500Y-119850000D01*
X206587500Y-119850000D02*
X202987500Y-119850000D01*
G04 #@! TO.C,LED9*
X26775000Y-59771250D02*
X30375000Y-59771250D01*
X30375000Y-59771250D02*
X30375000Y-62871250D01*
X30375000Y-62871250D02*
X26775000Y-62871250D01*
X26775000Y-62871250D02*
X26775000Y-59771250D01*
G04 #@! TO.C,LED20*
X93450000Y-78650000D02*
X97050000Y-78650000D01*
X93450000Y-81750000D02*
X93450000Y-78650000D01*
X97050000Y-78650000D02*
X97050000Y-81750000D01*
X97050000Y-81750000D02*
X93450000Y-81750000D01*
G04 #@! TO.C,LED64*
X220875000Y-135800000D02*
X220875000Y-138900000D01*
X220875000Y-138900000D02*
X217275000Y-138900000D01*
X217275000Y-135800000D02*
X220875000Y-135800000D01*
X217275000Y-138900000D02*
X217275000Y-135800000D01*
G04 #@! TO.C,LED18*
X55350000Y-81750000D02*
X55350000Y-78650000D01*
X58950000Y-78650000D02*
X58950000Y-81750000D01*
X55350000Y-78650000D02*
X58950000Y-78650000D01*
X58950000Y-81750000D02*
X55350000Y-81750000D01*
G04 #@! TO.C,LED3*
X201825000Y-62871250D02*
X198225000Y-62871250D01*
X198225000Y-59771250D02*
X201825000Y-59771250D01*
X201825000Y-59771250D02*
X201825000Y-62871250D01*
X198225000Y-62871250D02*
X198225000Y-59771250D01*
G04 #@! TO.C,LED67*
X278025000Y-135800000D02*
X278025000Y-138900000D01*
X278025000Y-138900000D02*
X274425000Y-138900000D01*
X274425000Y-135800000D02*
X278025000Y-135800000D01*
X274425000Y-138900000D02*
X274425000Y-135800000D01*
G04 #@! TO.C,LED39*
X136312500Y-97700000D02*
X139912500Y-97700000D01*
X139912500Y-97700000D02*
X139912500Y-100800000D01*
X139912500Y-100800000D02*
X136312500Y-100800000D01*
X136312500Y-100800000D02*
X136312500Y-97700000D01*
G04 #@! TO.C,LED68*
X293475000Y-138900000D02*
X293475000Y-135800000D01*
X297075000Y-135800000D02*
X297075000Y-138900000D01*
X293475000Y-135800000D02*
X297075000Y-135800000D01*
X297075000Y-138900000D02*
X293475000Y-138900000D01*
G04 #@! TO.C,LED56*
X241087500Y-119850000D02*
X241087500Y-116750000D01*
X244687500Y-119850000D02*
X241087500Y-119850000D01*
X241087500Y-116750000D02*
X244687500Y-116750000D01*
X244687500Y-116750000D02*
X244687500Y-119850000D01*
G04 #@! TO.C,LED52*
X164887500Y-119850000D02*
X164887500Y-116750000D01*
X168487500Y-116750000D02*
X168487500Y-119850000D01*
X164887500Y-116750000D02*
X168487500Y-116750000D01*
X168487500Y-119850000D02*
X164887500Y-119850000D01*
G04 #@! TO.C,LED57*
X270881250Y-116750000D02*
X270881250Y-119850000D01*
X267281250Y-119850000D02*
X267281250Y-116750000D01*
X267281250Y-116750000D02*
X270881250Y-116750000D01*
X270881250Y-119850000D02*
X267281250Y-119850000D01*
G04 #@! TD*
D12*
G04 #@! TO.C,D14*
X238125000Y-27781250D03*
D13*
X238125000Y-35781250D03*
G04 #@! TD*
D14*
G04 #@! TO.C,SW8*
X164180750Y-51528750D03*
X157830750Y-54068750D03*
D15*
X166720750Y-56608750D03*
D16*
X161640750Y-56608750D03*
D15*
X156560750Y-56608750D03*
D17*
X154555750Y-54068750D03*
X167482750Y-51528750D03*
G04 #@! TD*
D12*
G04 #@! TO.C,D61*
X52387500Y-36512500D03*
D13*
X52387500Y-44512500D03*
G04 #@! TD*
D12*
G04 #@! TO.C,D23*
X143668750Y-23812500D03*
D13*
X143668750Y-31812500D03*
G04 #@! TD*
D16*
G04 #@! TO.C,SW21*
X133292750Y-75658750D03*
D15*
X138372750Y-75658750D03*
D14*
X135832750Y-70578750D03*
X129482750Y-73118750D03*
D15*
X128212750Y-75658750D03*
D17*
X126207750Y-73118750D03*
X139134750Y-70578750D03*
G04 #@! TD*
D14*
G04 #@! TO.C,SW34*
X102658750Y-89628750D03*
D15*
X95038750Y-94708750D03*
D16*
X100118750Y-94708750D03*
D15*
X105198750Y-94708750D03*
D14*
X96308750Y-92168750D03*
D17*
X93033750Y-92168750D03*
X105960750Y-89628750D03*
G04 #@! TD*
D15*
G04 #@! TO.C,SW15*
X309006750Y-56562750D03*
D14*
X316626750Y-51482750D03*
D15*
X319166750Y-56562750D03*
D14*
X310276750Y-54022750D03*
D16*
X314086750Y-56562750D03*
D17*
X307001750Y-54022750D03*
X319928750Y-51482750D03*
G04 #@! TD*
D15*
G04 #@! TO.C,SW60*
X155225750Y-132809750D03*
D14*
X146335750Y-130269750D03*
X152685750Y-127729750D03*
D16*
X150145750Y-132809750D03*
D15*
X145065750Y-132809750D03*
D17*
X143060750Y-130269750D03*
X155987750Y-127729750D03*
G04 #@! TD*
D14*
G04 #@! TO.C,SW49*
X112022750Y-108679750D03*
D15*
X104402750Y-113759750D03*
D16*
X109482750Y-113759750D03*
D14*
X105672750Y-111219750D03*
D15*
X114562750Y-113759750D03*
D17*
X102397750Y-111219750D03*
X115324750Y-108679750D03*
G04 #@! TD*
D14*
G04 #@! TO.C,SW26*
X224482750Y-73118750D03*
D15*
X233372750Y-75658750D03*
D16*
X228292750Y-75658750D03*
D15*
X223212750Y-75658750D03*
D14*
X230832750Y-70578750D03*
D17*
X221207750Y-73118750D03*
X234134750Y-70578750D03*
G04 #@! TD*
D12*
G04 #@! TO.C,D36*
X112712500Y-27781250D03*
D13*
X112712500Y-35781250D03*
G04 #@! TD*
D12*
G04 #@! TO.C,D4*
X73818750Y-20637500D03*
D13*
X73818750Y-28637500D03*
G04 #@! TD*
D18*
G04 #@! TO.C,REF\u002A\u002A*
X167790500Y-85578250D03*
G04 #@! TD*
D12*
G04 #@! TO.C,D10*
X176942750Y-20637500D03*
D13*
X176942750Y-28637500D03*
G04 #@! TD*
D15*
G04 #@! TO.C,SW57*
X273843750Y-113759750D03*
D14*
X264953750Y-111219750D03*
D15*
X263683750Y-113759750D03*
D16*
X268763750Y-113759750D03*
D14*
X271303750Y-108679750D03*
D17*
X261678750Y-111219750D03*
X274605750Y-108679750D03*
G04 #@! TD*
D12*
G04 #@! TO.C,D24*
X163226750Y-23780750D03*
D13*
X163226750Y-31780750D03*
G04 #@! TD*
D12*
G04 #@! TO.C,D63*
X86518750Y-36512500D03*
D13*
X86518750Y-44512500D03*
G04 #@! TD*
D19*
G04 #@! TO.C,REF\u002A\u002A*
X200145750Y-141064750D03*
X100145750Y-141064750D03*
D20*
X100145750Y-125824750D03*
X200145750Y-125824750D03*
G04 #@! TD*
D15*
G04 #@! TO.C,SW27*
X252372750Y-75658750D03*
D14*
X249832750Y-70578750D03*
D16*
X247292750Y-75658750D03*
D15*
X242212750Y-75658750D03*
D14*
X243482750Y-73118750D03*
D17*
X240207750Y-73118750D03*
X253134750Y-70578750D03*
G04 #@! TD*
D15*
G04 #@! TO.C,SW3*
X61560750Y-56608750D03*
D14*
X69180750Y-51528750D03*
X62830750Y-54068750D03*
D16*
X66640750Y-56608750D03*
D15*
X71720750Y-56608750D03*
D17*
X59555750Y-54068750D03*
X72482750Y-51528750D03*
G04 #@! TD*
D12*
G04 #@! TO.C,D2*
X39687500Y-20637500D03*
D13*
X39687500Y-28637500D03*
G04 #@! TD*
D12*
G04 #@! TO.C,D15*
X241300000Y-20637500D03*
D13*
X241300000Y-28637500D03*
G04 #@! TD*
D12*
G04 #@! TO.C,D3*
X57150000Y-20637500D03*
D13*
X57150000Y-28637500D03*
G04 #@! TD*
D14*
G04 #@! TO.C,SW28*
X262482750Y-73118750D03*
X268832750Y-70578750D03*
D16*
X266292750Y-75658750D03*
D15*
X271372750Y-75658750D03*
X261212750Y-75658750D03*
D17*
X259207750Y-73118750D03*
X272134750Y-70578750D03*
G04 #@! TD*
D12*
G04 #@! TO.C,D30*
X244475000Y-23812500D03*
D13*
X244475000Y-31812500D03*
G04 #@! TD*
D16*
G04 #@! TO.C,SW54*
X204482750Y-113759750D03*
D14*
X207022750Y-108679750D03*
D15*
X199402750Y-113759750D03*
X209562750Y-113759750D03*
D14*
X200672750Y-111219750D03*
D17*
X197397750Y-111219750D03*
X210324750Y-108679750D03*
G04 #@! TD*
D18*
G04 #@! TO.C,REF\u002A\u002A*
X50442500Y-92436250D03*
G04 #@! TD*
D12*
G04 #@! TO.C,D49*
X100806250Y-31750000D03*
D13*
X100806250Y-39750000D03*
G04 #@! TD*
D12*
G04 #@! TO.C,D25*
X180181250Y-23812500D03*
D13*
X180181250Y-31812500D03*
G04 #@! TD*
D12*
G04 #@! TO.C,D7*
X120650000Y-20637500D03*
D13*
X120650000Y-28637500D03*
G04 #@! TD*
D14*
G04 #@! TO.C,SW53*
X188022750Y-108679750D03*
D15*
X180402750Y-113759750D03*
D16*
X185482750Y-113759750D03*
D14*
X181672750Y-111219750D03*
D15*
X190562750Y-113759750D03*
D17*
X178397750Y-111219750D03*
X191324750Y-108679750D03*
G04 #@! TD*
D12*
G04 #@! TO.C,D68*
X172370750Y-36512500D03*
D13*
X172370750Y-44512500D03*
G04 #@! TD*
D16*
G04 #@! TO.C,SW23*
X171292750Y-75658750D03*
D15*
X176372750Y-75658750D03*
X166212750Y-75658750D03*
D14*
X167482750Y-73118750D03*
X173832750Y-70578750D03*
D17*
X164207750Y-73118750D03*
X177134750Y-70578750D03*
G04 #@! TD*
D12*
G04 #@! TO.C,D69*
X253904750Y-33051750D03*
D13*
X253904750Y-41051750D03*
G04 #@! TD*
D21*
G04 #@! TO.C,SW70*
X317123847Y-37381250D03*
X317123847Y-26181250D03*
D12*
X309623847Y-29281250D03*
D13*
X309623847Y-34281250D03*
X309623847Y-31781250D03*
X324123847Y-34281250D03*
X324123847Y-29281250D03*
G04 #@! TD*
D15*
G04 #@! TO.C,SW6*
X128720750Y-56608750D03*
X118560750Y-56608750D03*
D14*
X126180750Y-51528750D03*
D16*
X123640750Y-56608750D03*
D14*
X119830750Y-54068750D03*
D17*
X116555750Y-54068750D03*
X129482750Y-51528750D03*
G04 #@! TD*
D14*
G04 #@! TO.C,SW51*
X150022750Y-108679750D03*
D15*
X142402750Y-113759750D03*
X152562750Y-113759750D03*
D14*
X143672750Y-111219750D03*
D16*
X147482750Y-113759750D03*
D17*
X140397750Y-111219750D03*
X153324750Y-108679750D03*
G04 #@! TD*
D16*
G04 #@! TO.C,SW61*
X219153750Y-132808750D03*
D14*
X221693750Y-127728750D03*
D15*
X214073750Y-132808750D03*
X224233750Y-132808750D03*
D14*
X215343750Y-130268750D03*
D17*
X212068750Y-130268750D03*
X224995750Y-127728750D03*
G04 #@! TD*
D12*
G04 #@! TO.C,D18*
X60325000Y-23812500D03*
D13*
X60325000Y-31812500D03*
G04 #@! TD*
D15*
G04 #@! TO.C,SW19*
X90212750Y-75658750D03*
D16*
X95292750Y-75658750D03*
D15*
X100372750Y-75658750D03*
D14*
X91482750Y-73118750D03*
X97832750Y-70578750D03*
D17*
X88207750Y-73118750D03*
X101134750Y-70578750D03*
G04 #@! TD*
D12*
G04 #@! TO.C,D52*
X150812500Y-31750000D03*
D13*
X150812500Y-39750000D03*
G04 #@! TD*
D12*
G04 #@! TO.C,D32*
X46037500Y-27781250D03*
D13*
X46037500Y-35781250D03*
G04 #@! TD*
D15*
G04 #@! TO.C,SW32*
X67198750Y-94708750D03*
D14*
X64658750Y-89628750D03*
D16*
X62118750Y-94708750D03*
D14*
X58308750Y-92168750D03*
D15*
X57038750Y-94708750D03*
D17*
X55033750Y-92168750D03*
X67960750Y-89628750D03*
G04 #@! TD*
D15*
G04 #@! TO.C,SW46*
X47402750Y-113759750D03*
D14*
X55022750Y-108679750D03*
X48672750Y-111219750D03*
D16*
X52482750Y-113759750D03*
D15*
X57562750Y-113759750D03*
D17*
X45397750Y-111219750D03*
X58324750Y-108679750D03*
G04 #@! TD*
D15*
G04 #@! TO.C,SW17*
X52212750Y-75658750D03*
D14*
X53482750Y-73118750D03*
X59832750Y-70578750D03*
D15*
X62372750Y-75658750D03*
D16*
X57292750Y-75658750D03*
D17*
X50207750Y-73118750D03*
X63134750Y-70578750D03*
G04 #@! TD*
D12*
G04 #@! TO.C,D56*
X215106250Y-31750000D03*
D13*
X215106250Y-39750000D03*
G04 #@! TD*
D12*
G04 #@! TO.C,D37*
X127000000Y-27781250D03*
D13*
X127000000Y-35781250D03*
G04 #@! TD*
D18*
G04 #@! TO.C,REF\u002A\u002A*
X91844500Y-130409250D03*
G04 #@! TD*
D12*
G04 #@! TO.C,D5*
X91281250Y-20637500D03*
D13*
X91281250Y-28637500D03*
G04 #@! TD*
D16*
G04 #@! TO.C,SW29*
X314086750Y-94708750D03*
D15*
X319166750Y-94708750D03*
D14*
X316626750Y-89628750D03*
D15*
X309006750Y-94708750D03*
D14*
X310276750Y-92168750D03*
D17*
X307001750Y-92168750D03*
X319928750Y-89628750D03*
G04 #@! TD*
D14*
G04 #@! TO.C,SW64*
X272343750Y-130268750D03*
D15*
X271073750Y-132808750D03*
D16*
X276153750Y-132808750D03*
D15*
X281233750Y-132808750D03*
D14*
X278693750Y-127728750D03*
D17*
X269068750Y-130268750D03*
X281995750Y-127728750D03*
G04 #@! TD*
D16*
G04 #@! TO.C,SW45*
X30956250Y-113759750D03*
D15*
X36036250Y-113759750D03*
D14*
X27146250Y-111219750D03*
X33496250Y-108679750D03*
D15*
X25876250Y-113759750D03*
D17*
X23871250Y-111219750D03*
X36798250Y-108679750D03*
G04 #@! TD*
D20*
G04 #@! TO.C,REF\u002A\u002A*
X297195750Y-49623750D03*
D19*
X273319750Y-64863750D03*
D20*
X273319750Y-49623750D03*
D19*
X297195750Y-64863750D03*
G04 #@! TD*
D14*
G04 #@! TO.C,SW62*
X234343750Y-130268750D03*
D16*
X238153750Y-132808750D03*
D15*
X243233750Y-132808750D03*
X233073750Y-132808750D03*
D14*
X240693750Y-127728750D03*
D17*
X231068750Y-130268750D03*
X243995750Y-127728750D03*
G04 #@! TD*
D12*
G04 #@! TO.C,D39*
X166401750Y-27781250D03*
D13*
X166401750Y-35781250D03*
G04 #@! TD*
D12*
G04 #@! TO.C,D16*
X24606250Y-23812500D03*
D13*
X24606250Y-31812500D03*
G04 #@! TD*
D14*
G04 #@! TO.C,SW16*
X29606750Y-73118750D03*
D15*
X38496750Y-75658750D03*
D16*
X33416750Y-75658750D03*
D15*
X28336750Y-75658750D03*
D14*
X35956750Y-70578750D03*
D17*
X26331750Y-73118750D03*
X39258750Y-70578750D03*
G04 #@! TD*
D18*
G04 #@! TO.C,REF\u002A\u002A*
X292885500Y-125710250D03*
G04 #@! TD*
D15*
G04 #@! TO.C,SW11*
X223720750Y-56608750D03*
D14*
X221180750Y-51528750D03*
D15*
X213560750Y-56608750D03*
D16*
X218640750Y-56608750D03*
D14*
X214830750Y-54068750D03*
D17*
X211555750Y-54068750D03*
X224482750Y-51528750D03*
G04 #@! TD*
D12*
G04 #@! TO.C,D64*
X103187500Y-36512500D03*
D13*
X103187500Y-44512500D03*
G04 #@! TD*
D12*
G04 #@! TO.C,D62*
X69850000Y-36512500D03*
D13*
X69850000Y-44512500D03*
G04 #@! TD*
D12*
G04 #@! TO.C,D34*
X80168750Y-27781250D03*
D13*
X80168750Y-35781250D03*
G04 #@! TD*
D12*
G04 #@! TO.C,D55*
X202406250Y-31750000D03*
D13*
X202406250Y-39750000D03*
G04 #@! TD*
D14*
G04 #@! TO.C,SW40*
X210308750Y-92168750D03*
D15*
X209038750Y-94708750D03*
X219198750Y-94708750D03*
D14*
X216658750Y-89628750D03*
D16*
X214118750Y-94708750D03*
D17*
X207033750Y-92168750D03*
X219960750Y-89628750D03*
G04 #@! TD*
D18*
G04 #@! TO.C,REF\u002A\u002A*
X78128500Y-40112250D03*
G04 #@! TD*
D12*
G04 #@! TO.C,D67*
X153193750Y-36512500D03*
D13*
X153193750Y-44512500D03*
G04 #@! TD*
D12*
G04 #@! TO.C,D29*
X247650000Y-27781250D03*
D13*
X247650000Y-35781250D03*
G04 #@! TD*
D22*
G04 #@! TO.C,U1*
X286208250Y-21011250D03*
X283668250Y-21011250D03*
X263348250Y-36267250D03*
X281128250Y-21011250D03*
X278588250Y-21011250D03*
X288748250Y-36267250D03*
X276048250Y-21011250D03*
X273508250Y-21011250D03*
X270968250Y-21011250D03*
X268428250Y-21011250D03*
X265888250Y-21011250D03*
X263348250Y-21011250D03*
X260808250Y-21011250D03*
X260808250Y-36267250D03*
X268428250Y-36267250D03*
X270968250Y-36267250D03*
X273508250Y-36267250D03*
X276048250Y-36267250D03*
X278588250Y-36267250D03*
X281128250Y-36267250D03*
X265888250Y-36267250D03*
X293828250Y-36267250D03*
X288748250Y-21011250D03*
X298908250Y-36267250D03*
D23*
X301448250Y-21011250D03*
D22*
X286208250Y-36267250D03*
X283668250Y-36267250D03*
X291288250Y-36267250D03*
X291288250Y-21011250D03*
X293828250Y-21011250D03*
X301448250Y-36267250D03*
X298908250Y-21011250D03*
X296368250Y-21011250D03*
X296368250Y-36267250D03*
G04 #@! TD*
D12*
G04 #@! TO.C,D60*
X34131250Y-36512500D03*
D13*
X34131250Y-44512500D03*
G04 #@! TD*
D14*
G04 #@! TO.C,SW33*
X77308750Y-92168750D03*
D16*
X81118750Y-94708750D03*
D14*
X83658750Y-89628750D03*
D15*
X86198750Y-94708750D03*
X76038750Y-94708750D03*
D17*
X74033750Y-92168750D03*
X86960750Y-89628750D03*
G04 #@! TD*
D12*
G04 #@! TO.C,D65*
X118268750Y-36512500D03*
D13*
X118268750Y-44512500D03*
G04 #@! TD*
D15*
G04 #@! TO.C,SW30*
X319166750Y-75658750D03*
D14*
X310276750Y-73118750D03*
D15*
X309006750Y-75658750D03*
D16*
X314086750Y-75658750D03*
D14*
X316626750Y-70578750D03*
D17*
X307001750Y-73118750D03*
X319928750Y-70578750D03*
G04 #@! TD*
D12*
G04 #@! TO.C,D33*
X63500000Y-27781250D03*
D13*
X63500000Y-35781250D03*
G04 #@! TD*
D15*
G04 #@! TO.C,SW24*
X185212750Y-75658750D03*
D14*
X192832750Y-70578750D03*
D16*
X190292750Y-75658750D03*
D15*
X195372750Y-75658750D03*
D14*
X186482750Y-73118750D03*
D17*
X183207750Y-73118750D03*
X196134750Y-70578750D03*
G04 #@! TD*
D16*
G04 #@! TO.C,SW56*
X242482750Y-113759750D03*
D15*
X237402750Y-113759750D03*
X247562750Y-113759750D03*
D14*
X238672750Y-111219750D03*
X245022750Y-108679750D03*
D17*
X235397750Y-111219750D03*
X248324750Y-108679750D03*
G04 #@! TD*
D12*
G04 #@! TO.C,D48*
X83343750Y-31750000D03*
D13*
X83343750Y-39750000D03*
G04 #@! TD*
D14*
G04 #@! TO.C,SW10*
X202180750Y-51528750D03*
X195830750Y-54068750D03*
D16*
X199640750Y-56608750D03*
D15*
X204720750Y-56608750D03*
X194560750Y-56608750D03*
D17*
X192555750Y-54068750D03*
X205482750Y-51528750D03*
G04 #@! TD*
D16*
G04 #@! TO.C,SW13*
X256640750Y-56608750D03*
D14*
X259180750Y-51528750D03*
D15*
X261720750Y-56608750D03*
X251560750Y-56608750D03*
D14*
X252830750Y-54068750D03*
D17*
X249555750Y-54068750D03*
X262482750Y-51528750D03*
G04 #@! TD*
D12*
G04 #@! TO.C,D1*
X21431250Y-20637500D03*
D13*
X21431250Y-28637500D03*
G04 #@! TD*
D12*
G04 #@! TO.C,D47*
X66675000Y-31750000D03*
D13*
X66675000Y-39750000D03*
G04 #@! TD*
D14*
G04 #@! TO.C,SW55*
X226022750Y-108679750D03*
D15*
X228562750Y-113759750D03*
X218402750Y-113759750D03*
D16*
X223482750Y-113759750D03*
D14*
X219672750Y-111219750D03*
D17*
X216397750Y-111219750D03*
X229324750Y-108679750D03*
G04 #@! TD*
D12*
G04 #@! TO.C,D50*
X115887500Y-31750000D03*
D13*
X115887500Y-39750000D03*
G04 #@! TD*
D12*
G04 #@! TO.C,D41*
X199231250Y-27781250D03*
D13*
X199231250Y-35781250D03*
G04 #@! TD*
D12*
G04 #@! TO.C,D35*
X97631250Y-27781250D03*
D13*
X97631250Y-35781250D03*
G04 #@! TD*
D16*
G04 #@! TO.C,SW9*
X180640750Y-56608750D03*
D15*
X185720750Y-56608750D03*
D14*
X176830750Y-54068750D03*
X183180750Y-51528750D03*
D15*
X175560750Y-56608750D03*
D17*
X173555750Y-54068750D03*
X186482750Y-51528750D03*
G04 #@! TD*
D12*
G04 #@! TO.C,D13*
X218281250Y-20637500D03*
D13*
X218281250Y-28637500D03*
G04 #@! TD*
D12*
G04 #@! TO.C,D40*
X183356250Y-27781250D03*
D13*
X183356250Y-35781250D03*
G04 #@! TD*
D12*
G04 #@! TO.C,D22*
X123825000Y-23812500D03*
D13*
X123825000Y-31812500D03*
G04 #@! TD*
D12*
G04 #@! TO.C,D21*
X109537500Y-23812500D03*
D13*
X109537500Y-31812500D03*
G04 #@! TD*
D18*
G04 #@! TO.C,REF\u002A\u002A*
X301521500Y-50018250D03*
G04 #@! TD*
D12*
G04 #@! TO.C,D8*
X139700000Y-20637500D03*
D13*
X139700000Y-28637500D03*
G04 #@! TD*
D14*
G04 #@! TO.C,SW1*
X31158750Y-51538750D03*
X24808750Y-54078750D03*
D15*
X23538750Y-56618750D03*
D16*
X28618750Y-56618750D03*
D15*
X33698750Y-56618750D03*
D17*
X21533750Y-54078750D03*
X34460750Y-51538750D03*
G04 #@! TD*
D12*
G04 #@! TO.C,D28*
X221456250Y-23812500D03*
D13*
X221456250Y-31812500D03*
G04 #@! TD*
D12*
G04 #@! TO.C,D6*
X106362500Y-20637500D03*
D13*
X106362500Y-28637500D03*
G04 #@! TD*
D15*
G04 #@! TO.C,SW48*
X85402750Y-113759750D03*
D14*
X93022750Y-108679750D03*
X86672750Y-111219750D03*
D15*
X95562750Y-113759750D03*
D16*
X90482750Y-113759750D03*
D17*
X83397750Y-111219750D03*
X96324750Y-108679750D03*
G04 #@! TD*
D14*
G04 #@! TO.C,SW31*
X38361550Y-89604350D03*
X32011550Y-92144350D03*
D16*
X35821550Y-94684350D03*
D15*
X40901550Y-94684350D03*
X30741550Y-94684350D03*
D17*
X28736550Y-92144350D03*
X41663550Y-89604350D03*
G04 #@! TD*
D12*
G04 #@! TO.C,D11*
X192087500Y-20637500D03*
D13*
X192087500Y-28637500D03*
G04 #@! TD*
D12*
G04 #@! TO.C,D20*
X94456250Y-23812500D03*
D13*
X94456250Y-31812500D03*
G04 #@! TD*
D16*
G04 #@! TO.C,SW2*
X47640750Y-56608750D03*
D15*
X42560750Y-56608750D03*
X52720750Y-56608750D03*
D14*
X43830750Y-54068750D03*
X50180750Y-51528750D03*
D17*
X40555750Y-54068750D03*
X53482750Y-51528750D03*
G04 #@! TD*
D12*
G04 #@! TO.C,D51*
X130175000Y-31750000D03*
D13*
X130175000Y-39750000D03*
G04 #@! TD*
D12*
G04 #@! TO.C,D53*
X169449750Y-31750000D03*
D13*
X169449750Y-39750000D03*
G04 #@! TD*
D14*
G04 #@! TO.C,SW38*
X178658750Y-89628750D03*
D15*
X181198750Y-94708750D03*
X171038750Y-94708750D03*
D16*
X176118750Y-94708750D03*
D14*
X172308750Y-92168750D03*
D17*
X169033750Y-92168750D03*
X181960750Y-89628750D03*
G04 #@! TD*
D14*
G04 #@! TO.C,SW39*
X197658750Y-89628750D03*
D15*
X190038750Y-94708750D03*
D14*
X191308750Y-92168750D03*
D15*
X200198750Y-94708750D03*
D16*
X195118750Y-94708750D03*
D17*
X188033750Y-92168750D03*
X200960750Y-89628750D03*
G04 #@! TD*
D12*
G04 #@! TO.C,D12*
X205581250Y-20637500D03*
D13*
X205581250Y-28637500D03*
G04 #@! TD*
D24*
G04 #@! TO.C,OL1*
X301352750Y-32479750D03*
X301352750Y-29939750D03*
X301352750Y-27399750D03*
X301352750Y-24859750D03*
G04 #@! TD*
D12*
G04 #@! TO.C,D42*
X211931250Y-27781250D03*
D13*
X211931250Y-35781250D03*
G04 #@! TD*
D14*
G04 #@! TO.C,SW22*
X148482750Y-73118750D03*
D15*
X157372750Y-75658750D03*
D16*
X152292750Y-75658750D03*
D14*
X154832750Y-70578750D03*
D15*
X147212750Y-75658750D03*
D17*
X145207750Y-73118750D03*
X158134750Y-70578750D03*
G04 #@! TD*
D14*
G04 #@! TO.C,SW37*
X153308750Y-92168750D03*
D15*
X152038750Y-94708750D03*
D16*
X157118750Y-94708750D03*
D14*
X159658750Y-89628750D03*
D15*
X162198750Y-94708750D03*
D17*
X150033750Y-92168750D03*
X162960750Y-89628750D03*
G04 #@! TD*
D15*
G04 #@! TO.C,SW50*
X123402750Y-113759750D03*
D14*
X131022750Y-108679750D03*
D16*
X128482750Y-113759750D03*
D14*
X124672750Y-111219750D03*
D15*
X133562750Y-113759750D03*
D17*
X121397750Y-111219750D03*
X134324750Y-108679750D03*
G04 #@! TD*
D12*
G04 #@! TO.C,D54*
X186721750Y-31750000D03*
D13*
X186721750Y-39750000D03*
G04 #@! TD*
D15*
G04 #@! TO.C,SW66*
X319233750Y-132808750D03*
X309073750Y-132808750D03*
D14*
X316693750Y-127728750D03*
X310343750Y-130268750D03*
D16*
X314153750Y-132808750D03*
D17*
X307068750Y-130268750D03*
X319995750Y-127728750D03*
G04 #@! TD*
D18*
G04 #@! TO.C,REF\u002A\u002A*
X283995500Y-98024250D03*
G04 #@! TD*
D14*
G04 #@! TO.C,SW59*
X316592750Y-108679750D03*
D15*
X319132750Y-113759750D03*
X308972750Y-113759750D03*
D14*
X310242750Y-111219750D03*
D16*
X314052750Y-113759750D03*
D17*
X306967750Y-111219750D03*
X319894750Y-108679750D03*
G04 #@! TD*
D14*
G04 #@! TO.C,SW41*
X235658750Y-89628750D03*
D15*
X228038750Y-94708750D03*
D16*
X233118750Y-94708750D03*
D14*
X229308750Y-92168750D03*
D15*
X238198750Y-94708750D03*
D17*
X226033750Y-92168750D03*
X238960750Y-89628750D03*
G04 #@! TD*
D12*
G04 #@! TO.C,D58*
X234950000Y-23812500D03*
D13*
X234950000Y-31812500D03*
G04 #@! TD*
D12*
G04 #@! TO.C,D44*
X231775000Y-20637500D03*
D13*
X231775000Y-28637500D03*
G04 #@! TD*
D12*
G04 #@! TO.C,D57*
X227806250Y-31750000D03*
D13*
X227806250Y-39750000D03*
G04 #@! TD*
D12*
G04 #@! TO.C,D31*
X27781250Y-27781250D03*
D13*
X27781250Y-35781250D03*
G04 #@! TD*
D15*
G04 #@! TO.C,SW35*
X114038750Y-94708750D03*
X124198750Y-94708750D03*
D14*
X121658750Y-89628750D03*
X115308750Y-92168750D03*
D16*
X119118750Y-94708750D03*
D17*
X112033750Y-92168750D03*
X124960750Y-89628750D03*
G04 #@! TD*
D15*
G04 #@! TO.C,SW69*
X73564750Y-132808750D03*
D16*
X78644750Y-132808750D03*
D15*
X83724750Y-132808750D03*
D14*
X74834750Y-130268750D03*
X81184750Y-127728750D03*
D17*
X71559750Y-130268750D03*
X84486750Y-127728750D03*
G04 #@! TD*
D12*
G04 #@! TO.C,D26*
X195262500Y-23812500D03*
D13*
X195262500Y-31812500D03*
G04 #@! TD*
D12*
G04 #@! TO.C,D9*
X160305750Y-20637500D03*
D13*
X160305750Y-28637500D03*
G04 #@! TD*
D12*
G04 #@! TO.C,D17*
X42862500Y-23812500D03*
D13*
X42862500Y-31812500D03*
G04 #@! TD*
D15*
G04 #@! TO.C,SW58*
X300132750Y-113759750D03*
D14*
X297592750Y-108679750D03*
D16*
X295052750Y-113759750D03*
D14*
X291242750Y-111219750D03*
D15*
X289972750Y-113759750D03*
D17*
X287967750Y-111219750D03*
X300894750Y-108679750D03*
G04 #@! TD*
D15*
G04 #@! TO.C,SW44*
X297703750Y-85183750D03*
D14*
X288813750Y-82643750D03*
D16*
X292623750Y-85183750D03*
D15*
X287543750Y-85183750D03*
D14*
X295163750Y-80103750D03*
D17*
X285538750Y-82643750D03*
X298465750Y-80103750D03*
G04 #@! TD*
D12*
G04 #@! TO.C,D43*
X224631250Y-27781250D03*
D13*
X224631250Y-35781250D03*
G04 #@! TD*
D14*
G04 #@! TO.C,SW65*
X291343750Y-130268750D03*
D15*
X300233750Y-132808750D03*
X290073750Y-132808750D03*
D14*
X297693750Y-127728750D03*
D16*
X295153750Y-132808750D03*
D17*
X288068750Y-130268750D03*
X300995750Y-127728750D03*
G04 #@! TD*
D15*
G04 #@! TO.C,SW14*
X280177750Y-56608750D03*
D14*
X281447750Y-54068750D03*
X287797750Y-51528750D03*
D16*
X285257750Y-56608750D03*
D15*
X290337750Y-56608750D03*
D17*
X278172750Y-54068750D03*
X291099750Y-51528750D03*
G04 #@! TD*
D12*
G04 #@! TO.C,D59*
X250825000Y-31750000D03*
D13*
X250825000Y-39750000D03*
G04 #@! TD*
D14*
G04 #@! TO.C,SW18*
X78832750Y-70578750D03*
D15*
X81372750Y-75658750D03*
D16*
X76292750Y-75658750D03*
D14*
X72482750Y-73118750D03*
D15*
X71212750Y-75658750D03*
D17*
X69207750Y-73118750D03*
X82134750Y-70578750D03*
G04 #@! TD*
D12*
G04 #@! TO.C,D27*
X208756250Y-23812500D03*
D13*
X208756250Y-31812500D03*
G04 #@! TD*
D12*
G04 #@! TO.C,D66*
X132556250Y-36512500D03*
D13*
X132556250Y-44512500D03*
G04 #@! TD*
D14*
G04 #@! TO.C,SW43*
X267308750Y-92168750D03*
D15*
X276198750Y-94708750D03*
D16*
X271118750Y-94708750D03*
D15*
X266038750Y-94708750D03*
D14*
X273658750Y-89628750D03*
D17*
X264033750Y-92168750D03*
X276960750Y-89628750D03*
G04 #@! TD*
D14*
G04 #@! TO.C,SW5*
X107180750Y-51528750D03*
D15*
X109720750Y-56608750D03*
X99560750Y-56608750D03*
D16*
X104640750Y-56608750D03*
D14*
X100830750Y-54068750D03*
D17*
X97555750Y-54068750D03*
X110482750Y-51528750D03*
G04 #@! TD*
D14*
G04 #@! TO.C,SW4*
X81830750Y-54068750D03*
X88180750Y-51528750D03*
D15*
X90720750Y-56608750D03*
X80560750Y-56608750D03*
D16*
X85640750Y-56608750D03*
D17*
X78555750Y-54068750D03*
X91482750Y-51528750D03*
G04 #@! TD*
D16*
G04 #@! TO.C,SW12*
X237640750Y-56608750D03*
D15*
X232560750Y-56608750D03*
D14*
X233830750Y-54068750D03*
X240180750Y-51528750D03*
D15*
X242720750Y-56608750D03*
D17*
X230555750Y-54068750D03*
X243482750Y-51528750D03*
G04 #@! TD*
D12*
G04 #@! TO.C,D38*
X146843750Y-27781250D03*
D13*
X146843750Y-35781250D03*
G04 #@! TD*
D12*
G04 #@! TO.C,D46*
X49212500Y-31750000D03*
D13*
X49212500Y-39750000D03*
G04 #@! TD*
D14*
G04 #@! TO.C,SW67*
X27193750Y-130268750D03*
D16*
X31003750Y-132808750D03*
D15*
X36083750Y-132808750D03*
D14*
X33543750Y-127728750D03*
D15*
X25923750Y-132808750D03*
D17*
X23918750Y-130268750D03*
X36845750Y-127728750D03*
G04 #@! TD*
D18*
G04 #@! TO.C,REF\u002A\u002A*
X205763500Y-129520250D03*
G04 #@! TD*
D12*
G04 #@! TO.C,D19*
X76993750Y-23812500D03*
D13*
X76993750Y-31812500D03*
G04 #@! TD*
D15*
G04 #@! TO.C,SW42*
X257198750Y-94708750D03*
D14*
X254658750Y-89628750D03*
D16*
X252118750Y-94708750D03*
D14*
X248308750Y-92168750D03*
D15*
X247038750Y-94708750D03*
D17*
X245033750Y-92168750D03*
X257960750Y-89628750D03*
G04 #@! TD*
D15*
G04 #@! TO.C,SW68*
X49688750Y-132808750D03*
X59848750Y-132808750D03*
D14*
X57308750Y-127728750D03*
X50958750Y-130268750D03*
D16*
X54768750Y-132808750D03*
D17*
X47683750Y-130268750D03*
X60610750Y-127728750D03*
G04 #@! TD*
D14*
G04 #@! TO.C,SW25*
X211832750Y-70578750D03*
X205482750Y-73118750D03*
D16*
X209292750Y-75658750D03*
D15*
X214372750Y-75658750D03*
X204212750Y-75658750D03*
D17*
X202207750Y-73118750D03*
X215134750Y-70578750D03*
G04 #@! TD*
D14*
G04 #@! TO.C,SW7*
X138830750Y-54068750D03*
D15*
X137560750Y-56608750D03*
X147720750Y-56608750D03*
D16*
X142640750Y-56608750D03*
D14*
X145180750Y-51528750D03*
D17*
X135555750Y-54068750D03*
X148482750Y-51528750D03*
G04 #@! TD*
D18*
G04 #@! TO.C,REF\u002A\u002A*
X180839437Y-40865767D03*
G04 #@! TD*
D15*
G04 #@! TO.C,SW52*
X171562750Y-113759750D03*
D16*
X166482750Y-113759750D03*
D15*
X161402750Y-113759750D03*
D14*
X162672750Y-111219750D03*
X169022750Y-108679750D03*
D17*
X159397750Y-111219750D03*
X172324750Y-108679750D03*
G04 #@! TD*
D12*
G04 #@! TO.C,D45*
X30987500Y-31750000D03*
D13*
X30987500Y-39750000D03*
G04 #@! TD*
D15*
G04 #@! TO.C,SW63*
X262233750Y-132808750D03*
D16*
X257153750Y-132808750D03*
D14*
X259693750Y-127728750D03*
X253343750Y-130268750D03*
D15*
X252073750Y-132808750D03*
D17*
X250068750Y-130268750D03*
X262995750Y-127728750D03*
G04 #@! TD*
D14*
G04 #@! TO.C,SW47*
X74022750Y-108679750D03*
D15*
X66402750Y-113759750D03*
D14*
X67672750Y-111219750D03*
D15*
X76562750Y-113759750D03*
D16*
X71482750Y-113759750D03*
D17*
X64397750Y-111219750D03*
X77324750Y-108679750D03*
G04 #@! TD*
D12*
G04 #@! TO.C,D70*
X327123847Y-27781250D03*
D13*
X327123847Y-35781250D03*
G04 #@! TD*
D14*
G04 #@! TO.C,SW36*
X140658750Y-89628750D03*
D15*
X143198750Y-94708750D03*
X133038750Y-94708750D03*
D14*
X134308750Y-92168750D03*
D16*
X138118750Y-94708750D03*
D17*
X131033750Y-92168750D03*
X143960750Y-89628750D03*
G04 #@! TD*
D14*
G04 #@! TO.C,SW20*
X110482750Y-73118750D03*
D16*
X114292750Y-75658750D03*
D15*
X119372750Y-75658750D03*
X109212750Y-75658750D03*
D14*
X116832750Y-70578750D03*
D17*
X107207750Y-73118750D03*
X120134750Y-70578750D03*
G04 #@! TD*
D25*
G04 #@! TO.C,LED8*
X317075000Y-61850000D03*
X317075000Y-60450000D03*
X311575000Y-60450000D03*
X311575000Y-61850000D03*
G04 #@! TD*
G04 #@! TO.C,LED23*
X155150000Y-80900000D03*
X155150000Y-79500000D03*
X149650000Y-79500000D03*
X149650000Y-80900000D03*
G04 #@! TD*
G04 #@! TO.C,LED17*
X36087500Y-80900000D03*
X36087500Y-79500000D03*
X30587500Y-79500000D03*
X30587500Y-80900000D03*
G04 #@! TD*
G04 #@! TO.C,LED33*
X249662500Y-98550000D03*
X249662500Y-99950000D03*
X255162500Y-99950000D03*
X255162500Y-98550000D03*
G04 #@! TD*
G04 #@! TO.C,LED45*
X33706250Y-119000000D03*
X33706250Y-117600000D03*
X28206250Y-117600000D03*
X28206250Y-119000000D03*
G04 #@! TD*
G04 #@! TO.C,LED42*
X78212500Y-98550000D03*
X78212500Y-99950000D03*
X83712500Y-99950000D03*
X83712500Y-98550000D03*
G04 #@! TD*
G04 #@! TO.C,LED15*
X145625000Y-62021250D03*
X145625000Y-60621250D03*
X140125000Y-60621250D03*
X140125000Y-62021250D03*
G04 #@! TD*
G04 #@! TO.C,LED30*
X295643750Y-90425000D03*
X295643750Y-89025000D03*
X290143750Y-89025000D03*
X290143750Y-90425000D03*
G04 #@! TD*
G04 #@! TO.C,LED12*
X88475000Y-62021250D03*
X88475000Y-60621250D03*
X82975000Y-60621250D03*
X82975000Y-62021250D03*
G04 #@! TD*
G04 #@! TO.C,LED55*
X226162500Y-119093750D03*
X226162500Y-117693750D03*
X220662500Y-117693750D03*
X220662500Y-119093750D03*
G04 #@! TD*
G04 #@! TO.C,LED37*
X173462500Y-98550000D03*
X173462500Y-99950000D03*
X178962500Y-99950000D03*
X178962500Y-98550000D03*
G04 #@! TD*
G04 #@! TO.C,LED44*
X32968750Y-98550000D03*
X32968750Y-99950000D03*
X38468750Y-99950000D03*
X38468750Y-98550000D03*
G04 #@! TD*
G04 #@! TO.C,LED36*
X192512500Y-98550000D03*
X192512500Y-99950000D03*
X198012500Y-99950000D03*
X198012500Y-98550000D03*
G04 #@! TD*
G04 #@! TO.C,LED50*
X131337500Y-119000000D03*
X131337500Y-117600000D03*
X125837500Y-117600000D03*
X125837500Y-119000000D03*
G04 #@! TD*
G04 #@! TO.C,LED53*
X188487500Y-119000000D03*
X188487500Y-117600000D03*
X182987500Y-117600000D03*
X182987500Y-119000000D03*
G04 #@! TD*
G04 #@! TO.C,LED49*
X112287500Y-119000000D03*
X112287500Y-117600000D03*
X106787500Y-117600000D03*
X106787500Y-119000000D03*
G04 #@! TD*
G04 #@! TO.C,LED32*
X268712500Y-98550000D03*
X268712500Y-99950000D03*
X274212500Y-99950000D03*
X274212500Y-98550000D03*
G04 #@! TD*
G04 #@! TO.C,LED11*
X69425000Y-62021250D03*
X69425000Y-60621250D03*
X63925000Y-60621250D03*
X63925000Y-62021250D03*
G04 #@! TD*
G04 #@! TO.C,LED40*
X116312500Y-98550000D03*
X116312500Y-99950000D03*
X121812500Y-99950000D03*
X121812500Y-98550000D03*
G04 #@! TD*
G04 #@! TO.C,LED31*
X311575000Y-98550000D03*
X311575000Y-99950000D03*
X317075000Y-99950000D03*
X317075000Y-98550000D03*
G04 #@! TD*
G04 #@! TO.C,LED34*
X230612500Y-98550000D03*
X230612500Y-99950000D03*
X236112500Y-99950000D03*
X236112500Y-98550000D03*
G04 #@! TD*
G04 #@! TO.C,LED13*
X107525000Y-62021250D03*
X107525000Y-60621250D03*
X102025000Y-60621250D03*
X102025000Y-62021250D03*
G04 #@! TD*
G04 #@! TO.C,LED58*
X298025000Y-119000000D03*
X298025000Y-117600000D03*
X292525000Y-117600000D03*
X292525000Y-119000000D03*
G04 #@! TD*
G04 #@! TO.C,LED29*
X269450000Y-80900000D03*
X269450000Y-79500000D03*
X263950000Y-79500000D03*
X263950000Y-80900000D03*
G04 #@! TD*
G04 #@! TO.C,LED65*
X235375000Y-136650000D03*
X235375000Y-138050000D03*
X240875000Y-138050000D03*
X240875000Y-136650000D03*
G04 #@! TD*
G04 #@! TO.C,LED48*
X93237500Y-119000000D03*
X93237500Y-117600000D03*
X87737500Y-117600000D03*
X87737500Y-119000000D03*
G04 #@! TD*
G04 #@! TO.C,LED16*
X317075000Y-80900000D03*
X317075000Y-79500000D03*
X311575000Y-79500000D03*
X311575000Y-80900000D03*
G04 #@! TD*
G04 #@! TO.C,LED19*
X78950000Y-80900000D03*
X78950000Y-79500000D03*
X73450000Y-79500000D03*
X73450000Y-80900000D03*
G04 #@! TD*
G04 #@! TO.C,LED2*
X183725000Y-62021250D03*
X183725000Y-60621250D03*
X178225000Y-60621250D03*
X178225000Y-62021250D03*
G04 #@! TD*
G04 #@! TO.C,LED5*
X240875000Y-62021250D03*
X240875000Y-60621250D03*
X235375000Y-60621250D03*
X235375000Y-62021250D03*
G04 #@! TD*
G04 #@! TO.C,LED43*
X59956250Y-98550000D03*
X59956250Y-99950000D03*
X65456250Y-99950000D03*
X65456250Y-98550000D03*
G04 #@! TD*
G04 #@! TO.C,LED6*
X259925000Y-62021250D03*
X259925000Y-60621250D03*
X254425000Y-60621250D03*
X254425000Y-62021250D03*
G04 #@! TD*
G04 #@! TO.C,LED14*
X126575000Y-62021250D03*
X126575000Y-60621250D03*
X121075000Y-60621250D03*
X121075000Y-62021250D03*
G04 #@! TD*
G04 #@! TO.C,LED66*
X254425000Y-136650000D03*
X254425000Y-138050000D03*
X259925000Y-138050000D03*
X259925000Y-136650000D03*
G04 #@! TD*
G04 #@! TO.C,LED28*
X250400000Y-80900000D03*
X250400000Y-79500000D03*
X244900000Y-79500000D03*
X244900000Y-80900000D03*
G04 #@! TD*
G04 #@! TO.C,LED4*
X221825000Y-62021250D03*
X221825000Y-60621250D03*
X216325000Y-60621250D03*
X216325000Y-62021250D03*
G04 #@! TD*
G04 #@! TO.C,LED10*
X50375000Y-62021250D03*
X50375000Y-60621250D03*
X44875000Y-60621250D03*
X44875000Y-62021250D03*
G04 #@! TD*
G04 #@! TO.C,LED22*
X136100000Y-80900000D03*
X136100000Y-79500000D03*
X130600000Y-79500000D03*
X130600000Y-80900000D03*
G04 #@! TD*
G04 #@! TO.C,LED60*
X28206250Y-136650000D03*
X28206250Y-138050000D03*
X33706250Y-138050000D03*
X33706250Y-136650000D03*
G04 #@! TD*
G04 #@! TO.C,LED7*
X288500000Y-61850000D03*
X288500000Y-60450000D03*
X283000000Y-60450000D03*
X283000000Y-61850000D03*
G04 #@! TD*
G04 #@! TO.C,LED21*
X117050000Y-80900000D03*
X117050000Y-79500000D03*
X111550000Y-79500000D03*
X111550000Y-80900000D03*
G04 #@! TD*
G04 #@! TO.C,LED51*
X150387500Y-119000000D03*
X150387500Y-117600000D03*
X144887500Y-117600000D03*
X144887500Y-119000000D03*
G04 #@! TD*
G04 #@! TO.C,LED62*
X75831250Y-136650000D03*
X75831250Y-138050000D03*
X81331250Y-138050000D03*
X81331250Y-136650000D03*
G04 #@! TD*
G04 #@! TO.C,LED61*
X52018750Y-136650000D03*
X52018750Y-138050000D03*
X57518750Y-138050000D03*
X57518750Y-136650000D03*
G04 #@! TD*
G04 #@! TO.C,LED25*
X193250000Y-80900000D03*
X193250000Y-79500000D03*
X187750000Y-79500000D03*
X187750000Y-80900000D03*
G04 #@! TD*
G04 #@! TO.C,LED27*
X231350000Y-80993750D03*
X231350000Y-79593750D03*
X225850000Y-79593750D03*
X225850000Y-80993750D03*
G04 #@! TD*
G04 #@! TO.C,LED63*
X147268750Y-136650000D03*
X147268750Y-138050000D03*
X152768750Y-138050000D03*
X152768750Y-136650000D03*
G04 #@! TD*
G04 #@! TO.C,LED38*
X154412500Y-98550000D03*
X154412500Y-99950000D03*
X159912500Y-99950000D03*
X159912500Y-98550000D03*
G04 #@! TD*
G04 #@! TO.C,LED46*
X55137500Y-119000000D03*
X55137500Y-117600000D03*
X49637500Y-117600000D03*
X49637500Y-119000000D03*
G04 #@! TD*
G04 #@! TO.C,LED35*
X211562500Y-98550000D03*
X211562500Y-99950000D03*
X217062500Y-99950000D03*
X217062500Y-98550000D03*
G04 #@! TD*
G04 #@! TO.C,LED1*
X164675000Y-62021250D03*
X164675000Y-60621250D03*
X159175000Y-60621250D03*
X159175000Y-62021250D03*
G04 #@! TD*
D26*
G04 #@! TO.C,J1*
X299497750Y-96710000D03*
X299497750Y-99250000D03*
X299497750Y-101790000D03*
G04 #@! TD*
D25*
G04 #@! TO.C,LED59*
X317075000Y-119000000D03*
X317075000Y-117600000D03*
X311575000Y-117600000D03*
X311575000Y-119000000D03*
G04 #@! TD*
G04 #@! TO.C,LED41*
X97262500Y-98550000D03*
X97262500Y-99950000D03*
X102762500Y-99950000D03*
X102762500Y-98550000D03*
G04 #@! TD*
G04 #@! TO.C,LED47*
X74187500Y-119000000D03*
X74187500Y-117600000D03*
X68687500Y-117600000D03*
X68687500Y-119000000D03*
G04 #@! TD*
G04 #@! TO.C,LED26*
X211506250Y-80993750D03*
X211506250Y-79593750D03*
X206006250Y-79593750D03*
X206006250Y-80993750D03*
G04 #@! TD*
G04 #@! TO.C,LED69*
X311575000Y-136650000D03*
X311575000Y-138050000D03*
X317075000Y-138050000D03*
X317075000Y-136650000D03*
G04 #@! TD*
G04 #@! TO.C,LED24*
X174200000Y-80900000D03*
X174200000Y-79500000D03*
X168700000Y-79500000D03*
X168700000Y-80900000D03*
G04 #@! TD*
G04 #@! TO.C,LED54*
X207537500Y-119000000D03*
X207537500Y-117600000D03*
X202037500Y-117600000D03*
X202037500Y-119000000D03*
G04 #@! TD*
G04 #@! TO.C,LED9*
X31325000Y-62021250D03*
X31325000Y-60621250D03*
X25825000Y-60621250D03*
X25825000Y-62021250D03*
G04 #@! TD*
G04 #@! TO.C,LED20*
X98000000Y-80900000D03*
X98000000Y-79500000D03*
X92500000Y-79500000D03*
X92500000Y-80900000D03*
G04 #@! TD*
G04 #@! TO.C,LED64*
X216325000Y-136650000D03*
X216325000Y-138050000D03*
X221825000Y-138050000D03*
X221825000Y-136650000D03*
G04 #@! TD*
G04 #@! TO.C,LED18*
X59900000Y-80900000D03*
X59900000Y-79500000D03*
X54400000Y-79500000D03*
X54400000Y-80900000D03*
G04 #@! TD*
G04 #@! TO.C,LED3*
X202775000Y-62021250D03*
X202775000Y-60621250D03*
X197275000Y-60621250D03*
X197275000Y-62021250D03*
G04 #@! TD*
G04 #@! TO.C,LED67*
X273475000Y-136650000D03*
X273475000Y-138050000D03*
X278975000Y-138050000D03*
X278975000Y-136650000D03*
G04 #@! TD*
G04 #@! TO.C,LED39*
X135362500Y-98550000D03*
X135362500Y-99950000D03*
X140862500Y-99950000D03*
X140862500Y-98550000D03*
G04 #@! TD*
G04 #@! TO.C,LED68*
X292525000Y-136650000D03*
X292525000Y-138050000D03*
X298025000Y-138050000D03*
X298025000Y-136650000D03*
G04 #@! TD*
G04 #@! TO.C,LED56*
X245637500Y-119000000D03*
X245637500Y-117600000D03*
X240137500Y-117600000D03*
X240137500Y-119000000D03*
G04 #@! TD*
G04 #@! TO.C,LED52*
X169437500Y-119000000D03*
X169437500Y-117600000D03*
X163937500Y-117600000D03*
X163937500Y-119000000D03*
G04 #@! TD*
G04 #@! TO.C,LED57*
X271831250Y-119000000D03*
X271831250Y-117600000D03*
X266331250Y-117600000D03*
X266331250Y-119000000D03*
G04 #@! TD*
M02*
