M48
; DRILL file {KiCad (6.0.1)} date Sun Jan 16 22:02:02 2022
; FORMAT={-:-/ absolute / metric / decimal}
; #@! TF.CreationDate,2022-01-16T22:02:02-06:00
; #@! TF.GenerationSoftware,Kicad,Pcbnew,(6.0.1)
; #@! TF.FileFunction,Plated,1,2,PTH
FMAT,2
METRIC
; #@! TA.AperFunction,Plated,PTH,ViaDrill
T1C0.400
; #@! TA.AperFunction,Plated,PTH,ComponentDrill
T2C0.813
; #@! TA.AperFunction,Plated,PTH,ComponentDrill
T3C0.900
; #@! TA.AperFunction,Plated,PTH,ComponentDrill
T4C1.000
%
G90
G05
T1
X21.613Y-59.416
X24.026Y-60.559
X26.439Y-78.72
X27.075Y-135.362
X29.233Y-97.516
X29.741Y-106.025
X31.011Y-99.675
X35.075Y-59.162
X35.084Y-53.943
X35.584Y-60.559
X36.027Y-62.21
X36.599Y-73.64
X36.735Y-125.374
X37.869Y-130.79
X37.996Y-137.267
X38.123Y-139.934
X38.386Y-112.744
X38.886Y-62.21
X39.012Y-60.813
X39.012Y-92.944
X39.139Y-59.162
X40.41Y-117.836
X40.536Y-116.185
X40.663Y-139.934
X40.917Y-137.775
X41.044Y-120.757
X41.561Y-74.263
X42.569Y-78.974
X43.203Y-80.752
X43.203Y-116.312
X43.203Y-120.757
X43.203Y-135.235
X43.212Y-92.932
X43.457Y-118.217
X44.093Y-101.834
X44.6Y-98.532
X44.6Y-99.802
X46.886Y-99.802
X46.886Y-101.834
X47.014Y-80.879
X47.14Y-78.974
X50.569Y-105.898
X52.22Y-101.834
X54.388Y-54.451
X54.761Y-59.162
X54.761Y-60.686
X54.761Y-100.056
X54.838Y-62.21
X57.808Y-60.813
X57.808Y-62.21
X57.935Y-59.162
X58.825Y-116.312
X58.951Y-117.709
X58.951Y-119.106
X59.214Y-112.363
X60.475Y-73.767
X60.484Y-125.19
X60.729Y-65.512
X60.856Y-120.503
X61.364Y-118.344
X61.491Y-116.312
X62.634Y-135.235
X62.889Y-137.648
X63.015Y-139.934
X63.523Y-114.534
X63.913Y-73.882
X64.159Y-79.228
X64.159Y-80.879
X65.428Y-135.362
X65.809Y-137.775
X65.936Y-139.934
X67.334Y-79.355
X67.334Y-80.879
X68.866Y-92.805
X69.365Y-98.659
X69.62Y-97.389
X69.62Y-100.056
X72.287Y-97.389
X72.287Y-98.659
X72.287Y-100.056
X73.311Y-54.197
X73.429Y-59.162
X73.556Y-60.559
X73.81Y-62.083
X74.319Y-105.644
X77.112Y-59.162
X77.112Y-60.686
X77.239Y-62.083
X77.367Y-117.709
X78.01Y-112.363
X78.255Y-65.385
X78.382Y-120.884
X79.017Y-116.312
X79.525Y-73.767
X80.795Y-116.312
X80.795Y-120.884
X80.922Y-118.217
X82.709Y-74.263
X82.954Y-79.355
X83.09Y-125.063
X83.209Y-81.006
X86.257Y-137.394
X86.383Y-79.355
X86.383Y-81.006
X86.764Y-135.362
X86.764Y-139.934
X87.662Y-92.805
X87.78Y-97.389
X87.78Y-98.659
X88.034Y-100.183
X89.304Y-137.394
X89.304Y-139.934
X90.32Y-77.958
X90.32Y-97.389
X90.32Y-98.786
X90.32Y-100.183
X92.361Y-54.324
X92.48Y-60.559
X92.606Y-59.162
X92.733Y-62.083
X95.146Y-120.884
X95.654Y-61.956
X95.781Y-60.559
X95.908Y-117.963
X96.035Y-59.162
X96.162Y-136.378
X96.162Y-137.775
X96.416Y-116.312
X97.187Y-112.617
X98.448Y-65.385
X98.448Y-135.362
X98.575Y-136.632
X98.703Y-137.775
X100.861Y-116.312
X100.861Y-120.884
X100.989Y-118.09
X101.496Y-114.026
X101.751Y-79.482
X101.759Y-73.755
X102.385Y-81.006
X105.052Y-79.609
X105.052Y-81.006
X106.458Y-92.805
X106.831Y-98.532
X106.957Y-97.389
X106.957Y-99.802
X107.212Y-78.212
X107.593Y-105.898
X109.497Y-97.389
X109.497Y-99.802
X111.148Y-59.162
X111.148Y-60.686
X111.148Y-99.294
X111.157Y-53.943
X111.575Y-62.21
X114.704Y-59.162
X114.704Y-60.813
X114.704Y-62.337
X117.244Y-65.639
X117.371Y-118.09
X117.371Y-121.519
X117.634Y-111.601
X117.752Y-116.312
X119.911Y-116.312
X120.165Y-118.09
X120.165Y-121.519
X120.546Y-114.28
X120.682Y-73.882
X121.054Y-79.609
X121.181Y-81.006
X123.975Y-81.006
X124.096Y-99.669
X124.61Y-79.609
X124.864Y-98.532
X125.372Y-105.517
X125.381Y-92.932
X126.007Y-97.389
X127.15Y-99.802
X128.166Y-97.389
X128.421Y-99.04
X130.461Y-54.324
X130.579Y-60.813
X130.707Y-59.162
X130.707Y-62.21
X134.008Y-59.162
X134.008Y-60.813
X134.136Y-62.21
X135.16Y-112.236
X135.532Y-117.709
X135.659Y-120.63
X136.167Y-116.312
X136.421Y-73.767
X137.564Y-65.385
X138.326Y-116.312
X138.326Y-118.217
X138.453Y-120.63
X139.859Y-73.755
X140.105Y-114.153
X140.231Y-79.101
X140.231Y-80.752
X143.153Y-99.929
X143.279Y-79.101
X143.279Y-80.752
X143.787Y-105.39
X144.041Y-98.659
X144.431Y-92.932
X145.103Y-97.389
X146.582Y-100.056
X147.089Y-78.085
X147.216Y-97.389
X147.47Y-98.913
X149.003Y-54.705
X149.249Y-60.686
X149.375Y-59.162
X149.375Y-62.083
X152.931Y-59.162
X153.058Y-60.686
X153.312Y-62.083
X154.083Y-111.601
X155.344Y-117.836
X155.344Y-120.503
X156.106Y-116.312
X156.614Y-65.639
X158.011Y-120.503
X158.138Y-116.312
X158.266Y-118.09
X158.528Y-73.501
X158.528Y-126.333
X158.647Y-105.898
X158.647Y-114.026
X159.028Y-79.228
X159.154Y-80.879
X162.076Y-79.355
X162.076Y-80.879
X162.964Y-98.786
X163.354Y-92.424
X163.726Y-97.389
X163.726Y-100.056
X163.981Y-78.212
X166.012Y-97.389
X166.139Y-100.056
X167.155Y-98.786
X167.799Y-54.324
X168.298Y-59.162
X168.298Y-60.686
X168.425Y-61.956
X171.346Y-138.41
X171.981Y-61.956
X172.108Y-59.162
X172.108Y-60.686
X172.498Y-111.601
X174.267Y-116.312
X174.267Y-117.836
X174.267Y-120.376
X175.665Y-65.512
X176.299Y-116.312
X176.934Y-117.836
X176.934Y-120.376
X177.442Y-114.28
X177.451Y-73.882
X177.696Y-79.482
X177.696Y-80.752
X180.998Y-79.482
X180.998Y-80.752
X182.141Y-98.786
X182.404Y-92.424
X182.649Y-78.212
X182.776Y-100.183
X182.903Y-97.389
X183.284Y-105.644
X185.062Y-97.389
X185.444Y-100.183
X186.078Y-98.786
X186.849Y-54.197
X187.349Y-59.162
X187.475Y-60.686
X187.73Y-61.956
X191.031Y-62.083
X191.159Y-60.686
X191.285Y-59.162
X191.929Y-112.109
X193.19Y-117.963
X193.19Y-120.249
X193.317Y-116.312
X194.206Y-65.385
X195.73Y-120.249
X195.857Y-116.312
X195.857Y-118.09
X196.365Y-114.026
X196.501Y-73.501
X197.0Y-79.609
X197.127Y-81.006
X200.683Y-79.609
X200.81Y-81.006
X201.064Y-98.659
X201.2Y-92.805
X201.826Y-97.389
X201.953Y-99.929
X201.953Y-105.898
X204.239Y-97.389
X204.493Y-99.929
X205.382Y-98.532
X206.153Y-54.324
X206.398Y-59.162
X206.525Y-60.559
X206.779Y-62.083
X209.7Y-60.559
X209.7Y-61.956
X209.827Y-59.162
X212.621Y-73.767
X212.63Y-111.601
X213.891Y-65.385
X215.796Y-79.482
X215.796Y-80.879
X215.805Y-73.628
X219.225Y-79.609
X219.225Y-80.879
X219.48Y-100.183
X220.114Y-98.786
X220.377Y-92.678
X221.004Y-97.389
X222.781Y-100.31
X222.909Y-97.389
X223.035Y-106.025
X223.543Y-98.913
X224.441Y-124.936
X225.019Y-63.021
X225.067Y-59.162
X225.076Y-54.197
X225.448Y-60.686
X228.623Y-62.21
X229.004Y-60.686
X229.131Y-59.162
X229.512Y-138.156
X229.521Y-111.474
X231.544Y-73.767
X232.179Y-65.004
X234.593Y-79.482
X234.593Y-81.133
X234.982Y-73.247
X238.403Y-79.609
X238.403Y-81.133
X239.164Y-97.389
X239.3Y-92.424
X239.418Y-98.659
X239.926Y-99.929
X241.831Y-97.389
X242.847Y-100.056
X243.482Y-98.786
X243.745Y-124.809
X244.117Y-59.162
X244.253Y-53.816
X244.625Y-60.686
X244.625Y-62.083
X245.641Y-138.029
X247.673Y-62.083
X247.8Y-60.686
X247.927Y-59.162
X248.698Y-111.474
X250.594Y-73.64
X253.135Y-66.782
X253.651Y-73.628
X254.023Y-79.228
X254.277Y-80.879
X257.834Y-79.228
X257.834Y-80.879
X258.35Y-92.932
X258.596Y-43.795
X258.596Y-98.786
X258.849Y-67.29
X258.849Y-97.389
X258.849Y-99.929
X260.627Y-97.389
X261.897Y-99.929
X262.151Y-98.659
X262.786Y-59.162
X263.049Y-53.689
X263.303Y-130.778
X263.675Y-60.559
X263.721Y-62.21
X264.691Y-137.775
X264.945Y-133.965
X266.977Y-60.559
X267.104Y-62.21
X267.358Y-59.162
X268.375Y-64.623
X269.772Y-73.894
X272.574Y-74.009
X272.82Y-79.355
X273.2Y-81.006
X275.495Y-111.982
X277.264Y-100.056
X277.273Y-92.805
X277.518Y-98.786
X278.026Y-97.389
X278.154Y-83.419
X280.693Y-79.101
X280.693Y-83.673
X282.607Y-130.651
X282.694Y-27.825
X282.979Y-83.927
X283.488Y-137.775
X284.438Y-38.581
X285.075Y-47.669
X285.392Y-68.687
X291.878Y-54.324
X292.885Y-97.389
X292.885Y-99.929
X292.931Y-61.956
X293.901Y-98.659
X296.06Y-83.419
X297.457Y-92.182
X298.569Y-69.894
X298.99Y-83.407
X300.125Y-83.419
X301.53Y-111.982
X301.53Y-131.032
X301.775Y-82.784
X301.902Y-89.134
X301.902Y-137.775
X302.918Y-99.294
X303.397Y-31.349
X304.823Y-116.185
X304.823Y-117.963
X304.95Y-38.588
X304.95Y-85.832
X304.95Y-90.023
X307.744Y-118.979
X308.094Y-21.475
X308.887Y-43.668
X308.887Y-65.925
X309.522Y-98.532
X309.522Y-117.328
X312.238Y-32.481
X313.787Y-38.431
X318.921Y-135.362
X319.301Y-61.575
X319.555Y-117.709
X319.936Y-135.743
X320.199Y-131.159
X320.326Y-112.236
X320.445Y-59.543
X320.698Y-64.877
X320.698Y-77.831
X320.707Y-54.324
X320.707Y-73.882
X320.707Y-86.709
X320.952Y-124.694
X320.952Y-136.251
X321.333Y-92.436
X321.46Y-110.978
X321.46Y-115.042
X321.969Y-102.977
X322.222Y-136.251
X322.828Y-40.608
X323.493Y-136.505
X323.746Y-41.255
X323.746Y-42.398
X324.0Y-40.239
X324.074Y-17.948
X324.177Y-43.541
X325.211Y-135.811
X325.783Y-137.78
X325.784Y-139.229
X325.905Y-136.632
X326.075Y-40.16
X326.525Y-41.155
X326.787Y-46.843
X326.863Y-137.724
X326.983Y-140.136
X327.447Y-139.189
X327.519Y-39.552
X327.974Y-40.62
X328.121Y-38.272
X328.423Y-41.636
X328.755Y-34.231
X330.224Y-33.0
X330.654Y-28.301
X331.113Y-19.887
X331.113Y-26.523
T2
X301.353Y-24.86
X301.353Y-27.4
X301.353Y-29.94
X301.353Y-32.48
T3
X21.431Y-20.637
X21.431Y-28.637
X24.606Y-23.812
X24.606Y-31.812
X27.781Y-27.781
X27.781Y-35.781
X30.987Y-31.75
X30.987Y-39.75
X34.131Y-36.512
X34.131Y-44.512
X39.688Y-20.637
X39.688Y-28.637
X42.862Y-23.812
X42.862Y-31.812
X46.038Y-27.781
X46.038Y-35.781
X49.212Y-31.75
X49.212Y-39.75
X52.387Y-36.512
X52.387Y-44.512
X57.15Y-20.637
X57.15Y-28.637
X60.325Y-23.812
X60.325Y-31.812
X63.5Y-27.781
X63.5Y-35.781
X66.675Y-31.75
X66.675Y-39.75
X69.85Y-36.512
X69.85Y-44.512
X73.819Y-20.637
X73.819Y-28.637
X76.994Y-23.812
X76.994Y-31.812
X80.169Y-27.781
X80.169Y-35.781
X83.344Y-31.75
X83.344Y-39.75
X86.519Y-36.512
X86.519Y-44.512
X91.281Y-20.637
X91.281Y-28.637
X94.456Y-23.812
X94.456Y-31.812
X97.631Y-27.781
X97.631Y-35.781
X100.806Y-31.75
X100.806Y-39.75
X103.188Y-36.512
X103.188Y-44.512
X106.362Y-20.637
X106.362Y-28.637
X109.537Y-23.812
X109.537Y-31.812
X112.712Y-27.781
X112.712Y-35.781
X115.887Y-31.75
X115.887Y-39.75
X118.269Y-36.512
X118.269Y-44.512
X120.65Y-20.637
X120.65Y-28.637
X123.825Y-23.812
X123.825Y-31.812
X127.0Y-27.781
X127.0Y-35.781
X130.175Y-31.75
X130.175Y-39.75
X132.556Y-36.512
X132.556Y-44.512
X139.7Y-20.637
X139.7Y-28.637
X143.669Y-23.812
X143.669Y-31.812
X146.844Y-27.781
X146.844Y-35.781
X150.812Y-31.75
X150.812Y-39.75
X153.194Y-36.512
X153.194Y-44.512
X160.306Y-20.637
X160.306Y-28.637
X163.227Y-23.781
X163.227Y-31.781
X166.402Y-27.781
X166.402Y-35.781
X169.45Y-31.75
X169.45Y-39.75
X172.371Y-36.512
X172.371Y-44.512
X176.943Y-20.637
X176.943Y-28.637
X180.181Y-23.812
X180.181Y-31.812
X183.356Y-27.781
X183.356Y-35.781
X186.722Y-31.75
X186.722Y-39.75
X192.087Y-20.637
X192.087Y-28.637
X195.262Y-23.812
X195.262Y-31.812
X199.231Y-27.781
X199.231Y-35.781
X202.406Y-31.75
X202.406Y-39.75
X205.581Y-20.637
X205.581Y-28.637
X208.756Y-23.812
X208.756Y-31.812
X211.931Y-27.781
X211.931Y-35.781
X215.106Y-31.75
X215.106Y-39.75
X218.281Y-20.637
X218.281Y-28.637
X221.456Y-23.812
X221.456Y-31.812
X224.631Y-27.781
X224.631Y-35.781
X227.806Y-31.75
X227.806Y-39.75
X231.775Y-20.637
X231.775Y-28.637
X234.95Y-23.812
X234.95Y-31.812
X238.125Y-27.781
X238.125Y-35.781
X241.3Y-20.637
X241.3Y-28.637
X244.475Y-23.812
X244.475Y-31.812
X247.65Y-27.781
X247.65Y-35.781
X250.825Y-31.75
X250.825Y-39.75
X253.905Y-33.052
X253.905Y-41.052
X327.124Y-27.781
X327.124Y-35.781
T4
X260.808Y-21.011
X260.808Y-36.267
X263.348Y-21.011
X263.348Y-36.267
X265.888Y-21.011
X265.888Y-36.267
X268.428Y-21.011
X268.428Y-36.267
X270.968Y-21.011
X270.968Y-36.267
X273.508Y-21.011
X273.508Y-36.267
X276.048Y-21.011
X276.048Y-36.267
X278.588Y-21.011
X278.588Y-36.267
X281.128Y-21.011
X281.128Y-36.267
X283.668Y-21.011
X283.668Y-36.267
X286.208Y-21.011
X286.208Y-36.267
X288.748Y-21.011
X288.748Y-36.267
X291.288Y-21.011
X291.288Y-36.267
X293.828Y-21.011
X293.828Y-36.267
X296.368Y-21.011
X296.368Y-36.267
X298.908Y-21.011
X298.908Y-36.267
X301.448Y-21.011
X301.448Y-36.267
X309.624Y-29.281
X309.624Y-31.781
X309.624Y-34.281
X324.124Y-29.281
X324.124Y-34.281
T0
M30
