M48
; DRILL file {KiCad (6.0.1)} date Sun Jan 16 22:02:02 2022
; FORMAT={-:-/ absolute / metric / decimal}
; #@! TF.CreationDate,2022-01-16T22:02:02-06:00
; #@! TF.GenerationSoftware,Kicad,Pcbnew,(6.0.1)
; #@! TF.FileFunction,NonPlated,1,2,NPTH
FMAT,2
METRIC
; #@! TA.AperFunction,NonPlated,NPTH,ComponentDrill
T1C1.500
; #@! TA.AperFunction,NonPlated,NPTH,ComponentDrill
T2C1.900
; #@! TA.AperFunction,NonPlated,NPTH,ComponentDrill
T3C2.200
; #@! TA.AperFunction,NonPlated,NPTH,ComponentDrill
T4C3.000
; #@! TA.AperFunction,NonPlated,NPTH,ComponentDrill
T5C3.048
; #@! TA.AperFunction,NonPlated,NPTH,ComponentDrill
T6C3.988
; #@! TA.AperFunction,NonPlated,NPTH,ComponentDrill
T7C4.100
%
G90
G05
T2
X23.539Y-56.619
X25.876Y-113.76
X25.924Y-132.809
X28.337Y-75.659
X30.742Y-94.684
X33.699Y-56.619
X36.036Y-113.76
X36.084Y-132.809
X38.497Y-75.659
X40.902Y-94.684
X42.561Y-56.609
X47.403Y-113.76
X49.689Y-132.809
X52.213Y-75.659
X52.721Y-56.609
X57.039Y-94.709
X57.563Y-113.76
X59.849Y-132.809
X61.561Y-56.609
X62.373Y-75.659
X66.403Y-113.76
X67.199Y-94.709
X71.213Y-75.659
X71.721Y-56.609
X73.565Y-132.809
X76.039Y-94.709
X76.563Y-113.76
X80.561Y-56.609
X81.373Y-75.659
X83.725Y-132.809
X85.403Y-113.76
X86.199Y-94.709
X90.213Y-75.659
X90.721Y-56.609
X95.039Y-94.709
X95.563Y-113.76
X99.561Y-56.609
X100.373Y-75.659
X104.403Y-113.76
X105.199Y-94.709
X109.213Y-75.659
X109.721Y-56.609
X114.039Y-94.709
X114.563Y-113.76
X118.561Y-56.609
X119.373Y-75.659
X123.403Y-113.76
X124.199Y-94.709
X128.213Y-75.659
X128.721Y-56.609
X133.039Y-94.709
X133.563Y-113.76
X137.561Y-56.609
X138.373Y-75.659
X142.403Y-113.76
X143.199Y-94.709
X145.066Y-132.81
X147.213Y-75.659
X147.721Y-56.609
X152.039Y-94.709
X152.563Y-113.76
X155.226Y-132.81
X156.561Y-56.609
X157.373Y-75.659
X161.403Y-113.76
X162.199Y-94.709
X166.213Y-75.659
X166.721Y-56.609
X171.039Y-94.709
X171.563Y-113.76
X175.561Y-56.609
X176.373Y-75.659
X180.403Y-113.76
X181.199Y-94.709
X185.213Y-75.659
X185.721Y-56.609
X190.039Y-94.709
X190.563Y-113.76
X194.561Y-56.609
X195.373Y-75.659
X199.403Y-113.76
X200.199Y-94.709
X204.213Y-75.659
X204.721Y-56.609
X209.039Y-94.709
X209.563Y-113.76
X213.561Y-56.609
X214.074Y-132.809
X214.373Y-75.659
X218.403Y-113.76
X219.199Y-94.709
X223.213Y-75.659
X223.721Y-56.609
X224.234Y-132.809
X228.039Y-94.709
X228.563Y-113.76
X232.561Y-56.609
X233.074Y-132.809
X233.373Y-75.659
X237.403Y-113.76
X238.199Y-94.709
X242.213Y-75.659
X242.721Y-56.609
X243.234Y-132.809
X247.039Y-94.709
X247.563Y-113.76
X251.561Y-56.609
X252.074Y-132.809
X252.373Y-75.659
X257.199Y-94.709
X261.213Y-75.659
X261.721Y-56.609
X262.234Y-132.809
X263.684Y-113.76
X266.039Y-94.709
X271.074Y-132.809
X271.373Y-75.659
X273.844Y-113.76
X276.199Y-94.709
X280.178Y-56.609
X281.234Y-132.809
X287.544Y-85.184
X289.973Y-113.76
X290.074Y-132.809
X290.338Y-56.609
X297.704Y-85.184
X300.133Y-113.76
X300.234Y-132.809
X308.973Y-113.76
X309.007Y-56.563
X309.007Y-75.659
X309.007Y-94.709
X309.074Y-132.809
X319.133Y-113.76
X319.167Y-56.563
X319.167Y-75.659
X319.167Y-94.709
X319.234Y-132.809
T3
X50.442Y-92.436
X78.129Y-40.112
X91.844Y-130.409
X167.79Y-85.578
X180.839Y-40.866
X205.763Y-129.52
X283.995Y-98.024
X292.885Y-125.71
X301.522Y-50.018
T4
X24.809Y-54.079
X27.146Y-111.22
X27.194Y-130.269
X29.607Y-73.119
X31.159Y-51.539
X32.012Y-92.144
X33.496Y-108.68
X33.544Y-127.729
X35.957Y-70.579
X38.362Y-89.604
X43.831Y-54.069
X48.673Y-111.22
X50.181Y-51.529
X50.959Y-130.269
X53.483Y-73.119
X55.023Y-108.68
X57.309Y-127.729
X58.309Y-92.169
X59.833Y-70.579
X62.831Y-54.069
X64.659Y-89.629
X67.673Y-111.22
X69.181Y-51.529
X72.483Y-73.119
X74.023Y-108.68
X74.835Y-130.269
X77.309Y-92.169
X78.833Y-70.579
X81.185Y-127.729
X81.831Y-54.069
X83.659Y-89.629
X86.673Y-111.22
X88.181Y-51.529
X91.483Y-73.119
X93.023Y-108.68
X96.309Y-92.169
X97.833Y-70.579
X100.831Y-54.069
X102.659Y-89.629
X105.673Y-111.22
X107.181Y-51.529
X110.483Y-73.119
X112.023Y-108.68
X115.309Y-92.169
X116.833Y-70.579
X119.831Y-54.069
X121.659Y-89.629
X124.673Y-111.22
X126.181Y-51.529
X129.483Y-73.119
X131.023Y-108.68
X134.309Y-92.169
X135.833Y-70.579
X138.831Y-54.069
X140.659Y-89.629
X143.673Y-111.22
X145.181Y-51.529
X146.336Y-130.27
X148.483Y-73.119
X150.023Y-108.68
X152.686Y-127.73
X153.309Y-92.169
X154.833Y-70.579
X157.831Y-54.069
X159.659Y-89.629
X162.673Y-111.22
X164.181Y-51.529
X167.483Y-73.119
X169.023Y-108.68
X172.309Y-92.169
X173.833Y-70.579
X176.831Y-54.069
X178.659Y-89.629
X181.673Y-111.22
X183.181Y-51.529
X186.483Y-73.119
X188.023Y-108.68
X191.309Y-92.169
X192.833Y-70.579
X195.831Y-54.069
X197.659Y-89.629
X200.673Y-111.22
X202.181Y-51.529
X205.483Y-73.119
X207.023Y-108.68
X210.309Y-92.169
X211.833Y-70.579
X214.831Y-54.069
X215.344Y-130.269
X216.659Y-89.629
X219.673Y-111.22
X221.181Y-51.529
X221.694Y-127.729
X224.483Y-73.119
X226.023Y-108.68
X229.309Y-92.169
X230.833Y-70.579
X233.831Y-54.069
X234.344Y-130.269
X235.659Y-89.629
X238.673Y-111.22
X240.181Y-51.529
X240.694Y-127.729
X243.483Y-73.119
X245.023Y-108.68
X248.309Y-92.169
X249.833Y-70.579
X252.831Y-54.069
X253.344Y-130.269
X254.659Y-89.629
X259.181Y-51.529
X259.694Y-127.729
X262.483Y-73.119
X264.954Y-111.22
X267.309Y-92.169
X268.833Y-70.579
X271.304Y-108.68
X272.344Y-130.269
X273.659Y-89.629
X278.694Y-127.729
X281.448Y-54.069
X287.798Y-51.529
X288.814Y-82.644
X291.243Y-111.22
X291.344Y-130.269
X295.164Y-80.104
X297.593Y-108.68
X297.694Y-127.729
X310.243Y-111.22
X310.277Y-54.023
X310.277Y-73.119
X310.277Y-92.169
X310.344Y-130.269
X316.593Y-108.68
X316.627Y-51.483
X316.627Y-70.579
X316.627Y-89.629
X316.694Y-127.729
T5
X100.146Y-125.825
X200.146Y-125.825
X273.32Y-49.624
X297.196Y-49.624
T6
X100.146Y-141.065
X200.146Y-141.065
X273.32Y-64.864
X297.196Y-64.864
T7
X28.619Y-56.619
X30.956Y-113.76
X31.004Y-132.809
X33.417Y-75.659
X35.822Y-94.684
X47.641Y-56.609
X52.483Y-113.76
X54.769Y-132.809
X57.293Y-75.659
X62.119Y-94.709
X66.641Y-56.609
X71.483Y-113.76
X76.293Y-75.659
X78.645Y-132.809
X81.119Y-94.709
X85.641Y-56.609
X90.483Y-113.76
X95.293Y-75.659
X100.119Y-94.709
X104.641Y-56.609
X109.483Y-113.76
X114.293Y-75.659
X119.119Y-94.709
X123.641Y-56.609
X128.483Y-113.76
X133.293Y-75.659
X138.119Y-94.709
X142.641Y-56.609
X147.483Y-113.76
X150.146Y-132.81
X152.293Y-75.659
X157.119Y-94.709
X161.641Y-56.609
X166.483Y-113.76
X171.293Y-75.659
X176.119Y-94.709
X180.641Y-56.609
X185.483Y-113.76
X190.293Y-75.659
X195.119Y-94.709
X199.641Y-56.609
X204.483Y-113.76
X209.293Y-75.659
X214.119Y-94.709
X218.641Y-56.609
X219.154Y-132.809
X223.483Y-113.76
X228.293Y-75.659
X233.119Y-94.709
X237.641Y-56.609
X238.154Y-132.809
X242.483Y-113.76
X247.293Y-75.659
X252.119Y-94.709
X256.641Y-56.609
X257.154Y-132.809
X266.293Y-75.659
X268.764Y-113.76
X271.119Y-94.709
X276.154Y-132.809
X285.258Y-56.609
X292.624Y-85.184
X295.053Y-113.76
X295.154Y-132.809
X314.053Y-113.76
X314.087Y-56.563
X314.087Y-75.659
X314.087Y-94.709
X314.154Y-132.809
T1
X316.474Y-26.181G85X317.774Y-26.181
G05
X316.474Y-37.381G85X317.774Y-37.381
G05
T0
M30
