G04 #@! TF.GenerationSoftware,KiCad,Pcbnew,(5.1.5)-3*
G04 #@! TF.CreationDate,2021-05-08T00:02:10-05:00*
G04 #@! TF.ProjectId,MacroPad,4d616372-6f50-4616-942e-6b696361645f,rev?*
G04 #@! TF.SameCoordinates,Original*
G04 #@! TF.FileFunction,Legend,Bot*
G04 #@! TF.FilePolarity,Positive*
%FSLAX46Y46*%
G04 Gerber Fmt 4.6, Leading zero omitted, Abs format (unit mm)*
G04 Created by KiCad (PCBNEW (5.1.5)-3) date 2021-05-08 00:02:10*
%MOMM*%
%LPD*%
G04 APERTURE LIST*
%ADD10C,0.120000*%
%ADD11C,0.150000*%
%ADD12C,0.040000*%
%ADD13C,0.100000*%
G04 APERTURE END LIST*
D10*
X116511000Y-52331252D02*
X116511000Y-51808748D01*
X117931000Y-52331252D02*
X117931000Y-51808748D01*
D11*
X112856250Y-136668750D02*
X112856250Y-137668750D01*
X113856250Y-150668750D02*
X112856250Y-150668750D01*
X112856250Y-136668750D02*
X113856250Y-136668750D01*
X112856250Y-149668750D02*
X112856250Y-150668750D01*
X126856250Y-150668750D02*
X126856250Y-149668750D01*
X125856250Y-136668750D02*
X126856250Y-136668750D01*
X126856250Y-150668750D02*
X125856250Y-150668750D01*
X126856250Y-137668750D02*
X126856250Y-136668750D01*
X112856250Y-98568750D02*
X112856250Y-99568750D01*
X113856250Y-112568750D02*
X112856250Y-112568750D01*
X112856250Y-98568750D02*
X113856250Y-98568750D01*
X112856250Y-111568750D02*
X112856250Y-112568750D01*
X126856250Y-112568750D02*
X126856250Y-111568750D01*
X125856250Y-98568750D02*
X126856250Y-98568750D01*
X126856250Y-112568750D02*
X125856250Y-112568750D01*
X126856250Y-99568750D02*
X126856250Y-98568750D01*
X112856250Y-69993750D02*
X112856250Y-70993750D01*
X113856250Y-83993750D02*
X112856250Y-83993750D01*
X112856250Y-69993750D02*
X113856250Y-69993750D01*
X112856250Y-82993750D02*
X112856250Y-83993750D01*
X126856250Y-83993750D02*
X126856250Y-82993750D01*
X125856250Y-69993750D02*
X126856250Y-69993750D01*
X126856250Y-83993750D02*
X125856250Y-83993750D01*
X126856250Y-70993750D02*
X126856250Y-69993750D01*
X93806250Y-146193750D02*
X93806250Y-147193750D01*
X94806250Y-160193750D02*
X93806250Y-160193750D01*
X93806250Y-146193750D02*
X94806250Y-146193750D01*
X93806250Y-159193750D02*
X93806250Y-160193750D01*
X107806250Y-160193750D02*
X107806250Y-159193750D01*
X106806250Y-146193750D02*
X107806250Y-146193750D01*
X107806250Y-160193750D02*
X106806250Y-160193750D01*
X107806250Y-147193750D02*
X107806250Y-146193750D01*
X93806250Y-127143750D02*
X93806250Y-128143750D01*
X94806250Y-141143750D02*
X93806250Y-141143750D01*
X93806250Y-127143750D02*
X94806250Y-127143750D01*
X93806250Y-140143750D02*
X93806250Y-141143750D01*
X107806250Y-141143750D02*
X107806250Y-140143750D01*
X106806250Y-127143750D02*
X107806250Y-127143750D01*
X107806250Y-141143750D02*
X106806250Y-141143750D01*
X107806250Y-128143750D02*
X107806250Y-127143750D01*
X93806250Y-108093750D02*
X93806250Y-109093750D01*
X94806250Y-122093750D02*
X93806250Y-122093750D01*
X93806250Y-108093750D02*
X94806250Y-108093750D01*
X93806250Y-121093750D02*
X93806250Y-122093750D01*
X107806250Y-122093750D02*
X107806250Y-121093750D01*
X106806250Y-108093750D02*
X107806250Y-108093750D01*
X107806250Y-122093750D02*
X106806250Y-122093750D01*
X107806250Y-109093750D02*
X107806250Y-108093750D01*
X93806250Y-89043750D02*
X93806250Y-90043750D01*
X94806250Y-103043750D02*
X93806250Y-103043750D01*
X93806250Y-89043750D02*
X94806250Y-89043750D01*
X93806250Y-102043750D02*
X93806250Y-103043750D01*
X107806250Y-103043750D02*
X107806250Y-102043750D01*
X106806250Y-89043750D02*
X107806250Y-89043750D01*
X107806250Y-103043750D02*
X106806250Y-103043750D01*
X107806250Y-90043750D02*
X107806250Y-89043750D01*
X93806250Y-69993750D02*
X93806250Y-70993750D01*
X94806250Y-83993750D02*
X93806250Y-83993750D01*
X93806250Y-69993750D02*
X94806250Y-69993750D01*
X93806250Y-82993750D02*
X93806250Y-83993750D01*
X107806250Y-83993750D02*
X107806250Y-82993750D01*
X106806250Y-69993750D02*
X107806250Y-69993750D01*
X107806250Y-83993750D02*
X106806250Y-83993750D01*
X107806250Y-70993750D02*
X107806250Y-69993750D01*
X74756250Y-127143750D02*
X74756250Y-128143750D01*
X75756250Y-141143750D02*
X74756250Y-141143750D01*
X74756250Y-127143750D02*
X75756250Y-127143750D01*
X74756250Y-140143750D02*
X74756250Y-141143750D01*
X88756250Y-141143750D02*
X88756250Y-140143750D01*
X87756250Y-127143750D02*
X88756250Y-127143750D01*
X88756250Y-141143750D02*
X87756250Y-141143750D01*
X88756250Y-128143750D02*
X88756250Y-127143750D01*
X74756250Y-108093750D02*
X74756250Y-109093750D01*
X75756250Y-122093750D02*
X74756250Y-122093750D01*
X74756250Y-108093750D02*
X75756250Y-108093750D01*
X74756250Y-121093750D02*
X74756250Y-122093750D01*
X88756250Y-122093750D02*
X88756250Y-121093750D01*
X87756250Y-108093750D02*
X88756250Y-108093750D01*
X88756250Y-122093750D02*
X87756250Y-122093750D01*
X88756250Y-109093750D02*
X88756250Y-108093750D01*
X74756250Y-89043750D02*
X74756250Y-90043750D01*
X75756250Y-103043750D02*
X74756250Y-103043750D01*
X74756250Y-89043750D02*
X75756250Y-89043750D01*
X74756250Y-102043750D02*
X74756250Y-103043750D01*
X88756250Y-103043750D02*
X88756250Y-102043750D01*
X87756250Y-89043750D02*
X88756250Y-89043750D01*
X88756250Y-103043750D02*
X87756250Y-103043750D01*
X88756250Y-90043750D02*
X88756250Y-89043750D01*
X74756250Y-69993750D02*
X74756250Y-70993750D01*
X75756250Y-83993750D02*
X74756250Y-83993750D01*
X74756250Y-69993750D02*
X75756250Y-69993750D01*
X74756250Y-82993750D02*
X74756250Y-83993750D01*
X88756250Y-83993750D02*
X88756250Y-82993750D01*
X87756250Y-69993750D02*
X88756250Y-69993750D01*
X88756250Y-83993750D02*
X87756250Y-83993750D01*
X88756250Y-70993750D02*
X88756250Y-69993750D01*
X65231250Y-146193750D02*
X65231250Y-147193750D01*
X66231250Y-160193750D02*
X65231250Y-160193750D01*
X65231250Y-146193750D02*
X66231250Y-146193750D01*
X65231250Y-159193750D02*
X65231250Y-160193750D01*
X79231250Y-160193750D02*
X79231250Y-159193750D01*
X78231250Y-146193750D02*
X79231250Y-146193750D01*
X79231250Y-160193750D02*
X78231250Y-160193750D01*
X79231250Y-147193750D02*
X79231250Y-146193750D01*
X55706250Y-127143750D02*
X55706250Y-128143750D01*
X56706250Y-141143750D02*
X55706250Y-141143750D01*
X55706250Y-127143750D02*
X56706250Y-127143750D01*
X55706250Y-140143750D02*
X55706250Y-141143750D01*
X69706250Y-141143750D02*
X69706250Y-140143750D01*
X68706250Y-127143750D02*
X69706250Y-127143750D01*
X69706250Y-141143750D02*
X68706250Y-141143750D01*
X69706250Y-128143750D02*
X69706250Y-127143750D01*
X55706250Y-108093750D02*
X55706250Y-109093750D01*
X56706250Y-122093750D02*
X55706250Y-122093750D01*
X55706250Y-108093750D02*
X56706250Y-108093750D01*
X55706250Y-121093750D02*
X55706250Y-122093750D01*
X69706250Y-122093750D02*
X69706250Y-121093750D01*
X68706250Y-108093750D02*
X69706250Y-108093750D01*
X69706250Y-122093750D02*
X68706250Y-122093750D01*
X69706250Y-109093750D02*
X69706250Y-108093750D01*
X55706250Y-89043750D02*
X55706250Y-90043750D01*
X56706250Y-103043750D02*
X55706250Y-103043750D01*
X55706250Y-89043750D02*
X56706250Y-89043750D01*
X55706250Y-102043750D02*
X55706250Y-103043750D01*
X69706250Y-103043750D02*
X69706250Y-102043750D01*
X68706250Y-89043750D02*
X69706250Y-89043750D01*
X69706250Y-103043750D02*
X68706250Y-103043750D01*
X69706250Y-90043750D02*
X69706250Y-89043750D01*
D10*
X153463981Y-70055663D02*
X149645604Y-66237286D01*
X156645962Y-66873682D02*
X153463981Y-70055663D01*
D11*
X126111000Y-59785250D02*
X126111000Y-62785250D01*
X127127000Y-59785250D02*
X127127000Y-62785250D01*
X126111000Y-62833250D02*
X127127000Y-62833250D01*
X126111000Y-59785250D02*
X127127000Y-59785250D01*
X136169928Y-74669250D02*
X136576514Y-74262664D01*
X143488483Y-81987805D02*
X143965780Y-81510508D01*
X150807038Y-74669250D02*
X150329741Y-75146547D01*
X143488483Y-67350695D02*
X143011186Y-67827992D01*
X136169928Y-74669250D02*
X136647225Y-75146547D01*
X143488483Y-67350695D02*
X143965780Y-67827992D01*
X150807038Y-74669250D02*
X150329741Y-74191953D01*
X143488483Y-81987805D02*
X143011186Y-81510508D01*
X136576514Y-74262664D02*
X135674953Y-73361102D01*
D10*
X147119000Y-53932750D02*
X146629000Y-54422750D01*
X147119000Y-51032750D02*
X147119000Y-53932750D01*
X147119000Y-51032750D02*
X146629000Y-50542750D01*
X141679000Y-51032750D02*
X141679000Y-53932750D01*
X141679000Y-51032750D02*
X142169000Y-50542750D01*
X145439000Y-55202750D02*
X143359000Y-55202750D01*
X141679000Y-53932750D02*
X142169000Y-54422750D01*
X145439000Y-49762750D02*
X143359000Y-49762750D01*
X57824000Y-68364750D02*
G75*
G03X57824000Y-68364750I-3000000J0D01*
G01*
X48924000Y-70364750D02*
X48924000Y-74464750D01*
X60724000Y-74464750D02*
X60724000Y-70364750D01*
X60724000Y-66364750D02*
X60724000Y-62264750D01*
X48924000Y-66364750D02*
X48924000Y-62264750D01*
X48924000Y-62264750D02*
X60724000Y-62264750D01*
X51024000Y-60864750D02*
X50724000Y-60564750D01*
X50724000Y-60564750D02*
X50724000Y-61164750D01*
X50724000Y-61164750D02*
X51024000Y-60864750D01*
X48924000Y-74464750D02*
X51324000Y-74464750D01*
X53524000Y-74464750D02*
X56124000Y-74464750D01*
X58324000Y-74464750D02*
X60724000Y-74464750D01*
X54324000Y-68364750D02*
X55324000Y-68364750D01*
X54824000Y-67864750D02*
X54824000Y-68864750D01*
X144564005Y-85349653D02*
X144933471Y-84980187D01*
X145568097Y-86353745D02*
X145937563Y-85984279D01*
X144391748Y-61170750D02*
X144914252Y-61170750D01*
X144391748Y-62590750D02*
X144914252Y-62590750D01*
X131672903Y-67684745D02*
X131303437Y-67315279D01*
X132676995Y-66680653D02*
X132307529Y-66311187D01*
X129730687Y-69552529D02*
X129361221Y-69183063D01*
X130734779Y-68548437D02*
X130365313Y-68178971D01*
X121165252Y-58050500D02*
X120642748Y-58050500D01*
X121165252Y-56630500D02*
X120642748Y-56630500D01*
X131755248Y-56630500D02*
X132277752Y-56630500D01*
X131755248Y-58050500D02*
X132277752Y-58050500D01*
D12*
X114200000Y-50642750D02*
X114200000Y-62642750D01*
X76200000Y-50642750D02*
X114200000Y-50642750D01*
X76200000Y-62642750D02*
X76200000Y-50642750D01*
X114200000Y-62642750D02*
X76200000Y-62642750D01*
X109200000Y-62642750D02*
X109200000Y-50642750D01*
X79700000Y-62642750D02*
X79700000Y-50642750D01*
D10*
X120121000Y-64387814D02*
X120121000Y-63183686D01*
X121941000Y-64387814D02*
X121941000Y-63183686D01*
X135482903Y-68141755D02*
X135113437Y-68511221D01*
X136486995Y-69145847D02*
X136117529Y-69515313D01*
X154540903Y-61806556D02*
X154910369Y-61437090D01*
X155544995Y-62810648D02*
X155914461Y-62441182D01*
X156869406Y-64147787D02*
X157238872Y-63778321D01*
X157873498Y-65151879D02*
X158242964Y-64782413D01*
X133794313Y-76814971D02*
X134163779Y-77184437D01*
X132790221Y-77819063D02*
X133159687Y-78188529D01*
X152094221Y-77819437D02*
X152463687Y-77449971D01*
X153098313Y-78823529D02*
X153467779Y-78454063D01*
X138530903Y-67176745D02*
X138161437Y-66807279D01*
X139534995Y-66172653D02*
X139165529Y-65803187D01*
X139763687Y-85046529D02*
X139394221Y-84677063D01*
X140767779Y-84042437D02*
X140398313Y-83672971D01*
X150685313Y-61320971D02*
X151054779Y-61690437D01*
X149681221Y-62325063D02*
X150050687Y-62694529D01*
D11*
X118799571Y-51236666D02*
X118799571Y-50903333D01*
X119323380Y-50903333D02*
X118323380Y-50903333D01*
X118323380Y-51379523D01*
X118799571Y-52093809D02*
X118847190Y-52236666D01*
X118894809Y-52284285D01*
X118990047Y-52331904D01*
X119132904Y-52331904D01*
X119228142Y-52284285D01*
X119275761Y-52236666D01*
X119323380Y-52141428D01*
X119323380Y-51760476D01*
X118323380Y-51760476D01*
X118323380Y-52093809D01*
X118371000Y-52189047D01*
X118418619Y-52236666D01*
X118513857Y-52284285D01*
X118609095Y-52284285D01*
X118704333Y-52236666D01*
X118751952Y-52189047D01*
X118799571Y-52093809D01*
X118799571Y-51760476D01*
X119323380Y-53284285D02*
X119323380Y-52712857D01*
X119323380Y-52998571D02*
X118323380Y-52998571D01*
X118466238Y-52903333D01*
X118561476Y-52808095D01*
X118609095Y-52712857D01*
X128198345Y-55086630D02*
X128198345Y-55896154D01*
X128150726Y-55991392D01*
X128103107Y-56039011D01*
X128007869Y-56086630D01*
X127817392Y-56086630D01*
X127722154Y-56039011D01*
X127674535Y-55991392D01*
X127626916Y-55896154D01*
X127626916Y-55086630D01*
X127198345Y-56039011D02*
X127055488Y-56086630D01*
X126817392Y-56086630D01*
X126722154Y-56039011D01*
X126674535Y-55991392D01*
X126626916Y-55896154D01*
X126626916Y-55800916D01*
X126674535Y-55705678D01*
X126722154Y-55658059D01*
X126817392Y-55610440D01*
X127007869Y-55562821D01*
X127103107Y-55515202D01*
X127150726Y-55467583D01*
X127198345Y-55372345D01*
X127198345Y-55277107D01*
X127150726Y-55181869D01*
X127103107Y-55134250D01*
X127007869Y-55086630D01*
X126769773Y-55086630D01*
X126626916Y-55134250D01*
X125865011Y-55562821D02*
X125722154Y-55610440D01*
X125674535Y-55658059D01*
X125626916Y-55753297D01*
X125626916Y-55896154D01*
X125674535Y-55991392D01*
X125722154Y-56039011D01*
X125817392Y-56086630D01*
X126198345Y-56086630D01*
X126198345Y-55086630D01*
X125865011Y-55086630D01*
X125769773Y-55134250D01*
X125722154Y-55181869D01*
X125674535Y-55277107D01*
X125674535Y-55372345D01*
X125722154Y-55467583D01*
X125769773Y-55515202D01*
X125865011Y-55562821D01*
X126198345Y-55562821D01*
X124674535Y-56086630D02*
X125245964Y-56086630D01*
X124960250Y-56086630D02*
X124960250Y-55086630D01*
X125055488Y-55229488D01*
X125150726Y-55324726D01*
X125245964Y-55372345D01*
X155656012Y-64718689D02*
X155319294Y-65055407D01*
X156262103Y-64584002D02*
X155656012Y-64718689D01*
X155790699Y-64112598D01*
X154477501Y-64213613D02*
X154881562Y-64617674D01*
X154679531Y-64415643D02*
X155386638Y-63708537D01*
X155352966Y-63876895D01*
X155352966Y-64011582D01*
X155386638Y-64112598D01*
D13*
X124203666Y-61029916D02*
X124770333Y-61029916D01*
X124837000Y-61063250D01*
X124870333Y-61096583D01*
X124903666Y-61163250D01*
X124903666Y-61296583D01*
X124870333Y-61363250D01*
X124837000Y-61396583D01*
X124770333Y-61429916D01*
X124203666Y-61429916D01*
X124270333Y-61729916D02*
X124237000Y-61763250D01*
X124203666Y-61829916D01*
X124203666Y-61996583D01*
X124237000Y-62063250D01*
X124270333Y-62096583D01*
X124337000Y-62129916D01*
X124403666Y-62129916D01*
X124503666Y-62096583D01*
X124903666Y-61696583D01*
X124903666Y-62129916D01*
D11*
X139146510Y-80088718D02*
X138574090Y-80661138D01*
X138473075Y-80694810D01*
X138405731Y-80694810D01*
X138304716Y-80661138D01*
X138170029Y-80526451D01*
X138136357Y-80425436D01*
X138136357Y-80358092D01*
X138170029Y-80257077D01*
X138742449Y-79684657D01*
X137328235Y-79684657D02*
X137732296Y-80088718D01*
X137530266Y-79886688D02*
X138237372Y-79179581D01*
X138203701Y-79347940D01*
X138203701Y-79482627D01*
X138237372Y-79583642D01*
X141203761Y-50673226D02*
X141251380Y-50816083D01*
X141251380Y-51054178D01*
X141203761Y-51149416D01*
X141156142Y-51197035D01*
X141060904Y-51244654D01*
X140965666Y-51244654D01*
X140870428Y-51197035D01*
X140822809Y-51149416D01*
X140775190Y-51054178D01*
X140727571Y-50863702D01*
X140679952Y-50768464D01*
X140632333Y-50720845D01*
X140537095Y-50673226D01*
X140441857Y-50673226D01*
X140346619Y-50720845D01*
X140299000Y-50768464D01*
X140251380Y-50863702D01*
X140251380Y-51101797D01*
X140299000Y-51244654D01*
X140251380Y-51577988D02*
X141251380Y-51816083D01*
X140537095Y-52006559D01*
X141251380Y-52197035D01*
X140251380Y-52435130D01*
X141251380Y-53339892D02*
X141251380Y-52768464D01*
X141251380Y-53054178D02*
X140251380Y-53054178D01*
X140394238Y-52958940D01*
X140489476Y-52863702D01*
X140537095Y-52768464D01*
X140679952Y-53911321D02*
X140632333Y-53816083D01*
X140584714Y-53768464D01*
X140489476Y-53720845D01*
X140441857Y-53720845D01*
X140346619Y-53768464D01*
X140299000Y-53816083D01*
X140251380Y-53911321D01*
X140251380Y-54101797D01*
X140299000Y-54197035D01*
X140346619Y-54244654D01*
X140441857Y-54292273D01*
X140489476Y-54292273D01*
X140584714Y-54244654D01*
X140632333Y-54197035D01*
X140679952Y-54101797D01*
X140679952Y-53911321D01*
X140727571Y-53816083D01*
X140775190Y-53768464D01*
X140870428Y-53720845D01*
X141060904Y-53720845D01*
X141156142Y-53768464D01*
X141203761Y-53816083D01*
X141251380Y-53911321D01*
X141251380Y-54101797D01*
X141203761Y-54197035D01*
X141156142Y-54244654D01*
X141060904Y-54292273D01*
X140870428Y-54292273D01*
X140775190Y-54244654D01*
X140727571Y-54197035D01*
X140679952Y-54101797D01*
X48028761Y-62331416D02*
X48076380Y-62474273D01*
X48076380Y-62712369D01*
X48028761Y-62807607D01*
X47981142Y-62855226D01*
X47885904Y-62902845D01*
X47790666Y-62902845D01*
X47695428Y-62855226D01*
X47647809Y-62807607D01*
X47600190Y-62712369D01*
X47552571Y-62521892D01*
X47504952Y-62426654D01*
X47457333Y-62379035D01*
X47362095Y-62331416D01*
X47266857Y-62331416D01*
X47171619Y-62379035D01*
X47124000Y-62426654D01*
X47076380Y-62521892D01*
X47076380Y-62759988D01*
X47124000Y-62902845D01*
X47076380Y-63236178D02*
X48076380Y-63474273D01*
X47362095Y-63664750D01*
X48076380Y-63855226D01*
X47076380Y-64093321D01*
X48076380Y-64998083D02*
X48076380Y-64426654D01*
X48076380Y-64712369D02*
X47076380Y-64712369D01*
X47219238Y-64617130D01*
X47314476Y-64521892D01*
X47362095Y-64426654D01*
X146855242Y-87035722D02*
X146754227Y-86463302D01*
X147259303Y-86631661D02*
X146552197Y-85924554D01*
X146282822Y-86193928D01*
X146249151Y-86294943D01*
X146249151Y-86362287D01*
X146282822Y-86463302D01*
X146383838Y-86564317D01*
X146484853Y-86597989D01*
X146552197Y-86597989D01*
X146653212Y-86564317D01*
X146922586Y-86294943D01*
X145542044Y-86934707D02*
X145676731Y-86800020D01*
X145777746Y-86766348D01*
X145845090Y-86766348D01*
X146013448Y-86800020D01*
X146181807Y-86901035D01*
X146451181Y-87170409D01*
X146484853Y-87271424D01*
X146484853Y-87338768D01*
X146451181Y-87439783D01*
X146316494Y-87574470D01*
X146215479Y-87608142D01*
X146148135Y-87608142D01*
X146047120Y-87574470D01*
X145878761Y-87406111D01*
X145845090Y-87305096D01*
X145845090Y-87237753D01*
X145878761Y-87136737D01*
X146013448Y-87002050D01*
X146114464Y-86968379D01*
X146181807Y-86968379D01*
X146282822Y-87002050D01*
X144819666Y-63983130D02*
X145153000Y-63506940D01*
X145391095Y-63983130D02*
X145391095Y-62983130D01*
X145010142Y-62983130D01*
X144914904Y-63030750D01*
X144867285Y-63078369D01*
X144819666Y-63173607D01*
X144819666Y-63316464D01*
X144867285Y-63411702D01*
X144914904Y-63459321D01*
X145010142Y-63506940D01*
X145391095Y-63506940D01*
X143914904Y-62983130D02*
X144391095Y-62983130D01*
X144438714Y-63459321D01*
X144391095Y-63411702D01*
X144295857Y-63364083D01*
X144057761Y-63364083D01*
X143962523Y-63411702D01*
X143914904Y-63459321D01*
X143867285Y-63554559D01*
X143867285Y-63792654D01*
X143914904Y-63887892D01*
X143962523Y-63935511D01*
X144057761Y-63983130D01*
X144295857Y-63983130D01*
X144391095Y-63935511D01*
X144438714Y-63887892D01*
X132954911Y-66268972D02*
X133527331Y-66167957D01*
X133358972Y-66673033D02*
X134066079Y-65965927D01*
X133796705Y-65696552D01*
X133695690Y-65662881D01*
X133628346Y-65662881D01*
X133527331Y-65696552D01*
X133426316Y-65797568D01*
X133392644Y-65898583D01*
X133392644Y-65965927D01*
X133426316Y-66066942D01*
X133695690Y-66336316D01*
X132820224Y-65191476D02*
X132348819Y-65662881D01*
X133257957Y-65090461D02*
X132921239Y-65763896D01*
X132483506Y-65326163D01*
X131012695Y-68136756D02*
X131585115Y-68035741D01*
X131416756Y-68540817D02*
X132123863Y-67833711D01*
X131854489Y-67564336D01*
X131753474Y-67530665D01*
X131686130Y-67530665D01*
X131585115Y-67564336D01*
X131484100Y-67665352D01*
X131450428Y-67766367D01*
X131450428Y-67833711D01*
X131484100Y-67934726D01*
X131753474Y-68204100D01*
X131484100Y-67193947D02*
X131046367Y-66756214D01*
X131012695Y-67261291D01*
X130911680Y-67160275D01*
X130810664Y-67126604D01*
X130743321Y-67126604D01*
X130642306Y-67160275D01*
X130473947Y-67328634D01*
X130440275Y-67429649D01*
X130440275Y-67496993D01*
X130473947Y-67598008D01*
X130675977Y-67800039D01*
X130776993Y-67833711D01*
X130844336Y-67833711D01*
X121070666Y-56142880D02*
X121404000Y-55666690D01*
X121642095Y-56142880D02*
X121642095Y-55142880D01*
X121261142Y-55142880D01*
X121165904Y-55190500D01*
X121118285Y-55238119D01*
X121070666Y-55333357D01*
X121070666Y-55476214D01*
X121118285Y-55571452D01*
X121165904Y-55619071D01*
X121261142Y-55666690D01*
X121642095Y-55666690D01*
X120689714Y-55238119D02*
X120642095Y-55190500D01*
X120546857Y-55142880D01*
X120308761Y-55142880D01*
X120213523Y-55190500D01*
X120165904Y-55238119D01*
X120118285Y-55333357D01*
X120118285Y-55428595D01*
X120165904Y-55571452D01*
X120737333Y-56142880D01*
X120118285Y-56142880D01*
X132183166Y-59442880D02*
X132516500Y-58966690D01*
X132754595Y-59442880D02*
X132754595Y-58442880D01*
X132373642Y-58442880D01*
X132278404Y-58490500D01*
X132230785Y-58538119D01*
X132183166Y-58633357D01*
X132183166Y-58776214D01*
X132230785Y-58871452D01*
X132278404Y-58919071D01*
X132373642Y-58966690D01*
X132754595Y-58966690D01*
X131230785Y-59442880D02*
X131802214Y-59442880D01*
X131516500Y-59442880D02*
X131516500Y-58442880D01*
X131611738Y-58585738D01*
X131706976Y-58680976D01*
X131802214Y-58728595D01*
X77552380Y-55756559D02*
X77552380Y-55947035D01*
X77600000Y-56042273D01*
X77695238Y-56137511D01*
X77885714Y-56185130D01*
X78219047Y-56185130D01*
X78409523Y-56137511D01*
X78504761Y-56042273D01*
X78552380Y-55947035D01*
X78552380Y-55756559D01*
X78504761Y-55661321D01*
X78409523Y-55566083D01*
X78219047Y-55518464D01*
X77885714Y-55518464D01*
X77695238Y-55566083D01*
X77600000Y-55661321D01*
X77552380Y-55756559D01*
X78552380Y-57089892D02*
X78552380Y-56613702D01*
X77552380Y-56613702D01*
X78552380Y-57947035D02*
X78552380Y-57375607D01*
X78552380Y-57661321D02*
X77552380Y-57661321D01*
X77695238Y-57566083D01*
X77790476Y-57470845D01*
X77838095Y-57375607D01*
X111003571Y-51922035D02*
X111039285Y-52029178D01*
X111039285Y-52207750D01*
X111003571Y-52279178D01*
X110967857Y-52314892D01*
X110896428Y-52350607D01*
X110825000Y-52350607D01*
X110753571Y-52314892D01*
X110717857Y-52279178D01*
X110682142Y-52207750D01*
X110646428Y-52064892D01*
X110610714Y-51993464D01*
X110575000Y-51957750D01*
X110503571Y-51922035D01*
X110432142Y-51922035D01*
X110360714Y-51957750D01*
X110325000Y-51993464D01*
X110289285Y-52064892D01*
X110289285Y-52243464D01*
X110325000Y-52350607D01*
X111039285Y-52672035D02*
X110289285Y-52672035D01*
X110289285Y-52850607D01*
X110325000Y-52957750D01*
X110396428Y-53029178D01*
X110467857Y-53064892D01*
X110610714Y-53100607D01*
X110717857Y-53100607D01*
X110860714Y-53064892D01*
X110932142Y-53029178D01*
X111003571Y-52957750D01*
X111039285Y-52850607D01*
X111039285Y-52672035D01*
X110825000Y-53386321D02*
X110825000Y-53743464D01*
X111039285Y-53314892D02*
X110289285Y-53564892D01*
X111039285Y-53814892D01*
X111003571Y-54479892D02*
X111039285Y-54587035D01*
X111039285Y-54765607D01*
X111003571Y-54837035D01*
X110967857Y-54872750D01*
X110896428Y-54908464D01*
X110825000Y-54908464D01*
X110753571Y-54872750D01*
X110717857Y-54837035D01*
X110682142Y-54765607D01*
X110646428Y-54622750D01*
X110610714Y-54551321D01*
X110575000Y-54515607D01*
X110503571Y-54479892D01*
X110432142Y-54479892D01*
X110360714Y-54515607D01*
X110325000Y-54551321D01*
X110289285Y-54622750D01*
X110289285Y-54801321D01*
X110325000Y-54908464D01*
X110967857Y-55658464D02*
X111003571Y-55622750D01*
X111039285Y-55515607D01*
X111039285Y-55444178D01*
X111003571Y-55337035D01*
X110932142Y-55265607D01*
X110860714Y-55229892D01*
X110717857Y-55194178D01*
X110610714Y-55194178D01*
X110467857Y-55229892D01*
X110396428Y-55265607D01*
X110325000Y-55337035D01*
X110289285Y-55444178D01*
X110289285Y-55515607D01*
X110325000Y-55622750D01*
X110360714Y-55658464D01*
X111039285Y-56337035D02*
X111039285Y-55979892D01*
X110289285Y-55979892D01*
X110289285Y-56912750D02*
X111039285Y-57162750D01*
X110289285Y-57412750D01*
X110967857Y-58091321D02*
X111003571Y-58055607D01*
X111039285Y-57948464D01*
X111039285Y-57877035D01*
X111003571Y-57769892D01*
X110932142Y-57698464D01*
X110860714Y-57662750D01*
X110717857Y-57627035D01*
X110610714Y-57627035D01*
X110467857Y-57662750D01*
X110396428Y-57698464D01*
X110325000Y-57769892D01*
X110289285Y-57877035D01*
X110289285Y-57948464D01*
X110325000Y-58055607D01*
X110360714Y-58091321D01*
X110967857Y-58841321D02*
X111003571Y-58805607D01*
X111039285Y-58698464D01*
X111039285Y-58627035D01*
X111003571Y-58519892D01*
X110932142Y-58448464D01*
X110860714Y-58412750D01*
X110717857Y-58377035D01*
X110610714Y-58377035D01*
X110467857Y-58412750D01*
X110396428Y-58448464D01*
X110325000Y-58519892D01*
X110289285Y-58627035D01*
X110289285Y-58698464D01*
X110325000Y-58805607D01*
X110360714Y-58841321D01*
X110325000Y-59881321D02*
X110289285Y-59809892D01*
X110289285Y-59702750D01*
X110325000Y-59595607D01*
X110396428Y-59524178D01*
X110467857Y-59488464D01*
X110610714Y-59452750D01*
X110717857Y-59452750D01*
X110860714Y-59488464D01*
X110932142Y-59524178D01*
X111003571Y-59595607D01*
X111039285Y-59702750D01*
X111039285Y-59774178D01*
X111003571Y-59881321D01*
X110967857Y-59917035D01*
X110717857Y-59917035D01*
X110717857Y-59774178D01*
X111039285Y-60238464D02*
X110289285Y-60238464D01*
X111039285Y-60667035D01*
X110289285Y-60667035D01*
X111039285Y-61024178D02*
X110289285Y-61024178D01*
X110289285Y-61202750D01*
X110325000Y-61309892D01*
X110396428Y-61381321D01*
X110467857Y-61417035D01*
X110610714Y-61452750D01*
X110717857Y-61452750D01*
X110860714Y-61417035D01*
X110932142Y-61381321D01*
X111003571Y-61309892D01*
X111039285Y-61202750D01*
X111039285Y-61024178D01*
X99128571Y-56095130D02*
X98938095Y-56095130D01*
X98842857Y-56142750D01*
X98747619Y-56237988D01*
X98700000Y-56428464D01*
X98700000Y-56761797D01*
X98747619Y-56952273D01*
X98842857Y-57047511D01*
X98938095Y-57095130D01*
X99128571Y-57095130D01*
X99223809Y-57047511D01*
X99319047Y-56952273D01*
X99366666Y-56761797D01*
X99366666Y-56428464D01*
X99319047Y-56237988D01*
X99223809Y-56142750D01*
X99128571Y-56095130D01*
X97795238Y-57095130D02*
X98271428Y-57095130D01*
X98271428Y-56095130D01*
X97461904Y-56571321D02*
X97128571Y-56571321D01*
X96985714Y-57095130D02*
X97461904Y-57095130D01*
X97461904Y-56095130D01*
X96985714Y-56095130D01*
X96557142Y-57095130D02*
X96557142Y-56095130D01*
X96319047Y-56095130D01*
X96176190Y-56142750D01*
X96080952Y-56237988D01*
X96033333Y-56333226D01*
X95985714Y-56523702D01*
X95985714Y-56666559D01*
X96033333Y-56857035D01*
X96080952Y-56952273D01*
X96176190Y-57047511D01*
X96319047Y-57095130D01*
X96557142Y-57095130D01*
X94795238Y-57095130D02*
X94795238Y-56095130D01*
X94414285Y-56095130D01*
X94319047Y-56142750D01*
X94271428Y-56190369D01*
X94223809Y-56285607D01*
X94223809Y-56428464D01*
X94271428Y-56523702D01*
X94319047Y-56571321D01*
X94414285Y-56618940D01*
X94795238Y-56618940D01*
X93366666Y-57095130D02*
X93366666Y-56571321D01*
X93414285Y-56476083D01*
X93509523Y-56428464D01*
X93700000Y-56428464D01*
X93795238Y-56476083D01*
X93366666Y-57047511D02*
X93461904Y-57095130D01*
X93700000Y-57095130D01*
X93795238Y-57047511D01*
X93842857Y-56952273D01*
X93842857Y-56857035D01*
X93795238Y-56761797D01*
X93700000Y-56714178D01*
X93461904Y-56714178D01*
X93366666Y-56666559D01*
X92890476Y-56428464D02*
X92890476Y-57095130D01*
X92890476Y-56523702D02*
X92842857Y-56476083D01*
X92747619Y-56428464D01*
X92604761Y-56428464D01*
X92509523Y-56476083D01*
X92461904Y-56571321D01*
X92461904Y-57095130D01*
X91604761Y-57047511D02*
X91700000Y-57095130D01*
X91890476Y-57095130D01*
X91985714Y-57047511D01*
X92033333Y-56952273D01*
X92033333Y-56571321D01*
X91985714Y-56476083D01*
X91890476Y-56428464D01*
X91700000Y-56428464D01*
X91604761Y-56476083D01*
X91557142Y-56571321D01*
X91557142Y-56666559D01*
X92033333Y-56761797D01*
X90985714Y-57095130D02*
X91080952Y-57047511D01*
X91128571Y-56952273D01*
X91128571Y-56095130D01*
X122779571Y-63452416D02*
X122779571Y-63119083D01*
X123303380Y-63119083D02*
X122303380Y-63119083D01*
X122303380Y-63595273D01*
X123303380Y-64500035D02*
X123303380Y-63928607D01*
X123303380Y-64214321D02*
X122303380Y-64214321D01*
X122446238Y-64119083D01*
X122541476Y-64023845D01*
X122589095Y-63928607D01*
X135003879Y-67796495D02*
X135071222Y-67796495D01*
X135205909Y-67729151D01*
X135273253Y-67661808D01*
X135340596Y-67527120D01*
X135340596Y-67392433D01*
X135306925Y-67291418D01*
X135205909Y-67123059D01*
X135104894Y-67022044D01*
X134936535Y-66921029D01*
X134835520Y-66887357D01*
X134700833Y-66887357D01*
X134566146Y-66954701D01*
X134498802Y-67022044D01*
X134431459Y-67156731D01*
X134431459Y-67224075D01*
X134263100Y-67863838D02*
X134296772Y-67762823D01*
X134296772Y-67695479D01*
X134263100Y-67594464D01*
X134229428Y-67560792D01*
X134128413Y-67527120D01*
X134061070Y-67527120D01*
X133960054Y-67560792D01*
X133825367Y-67695479D01*
X133791696Y-67796495D01*
X133791696Y-67863838D01*
X133825367Y-67964853D01*
X133859039Y-67998525D01*
X133960054Y-68032197D01*
X134027398Y-68032197D01*
X134128413Y-67998525D01*
X134263100Y-67863838D01*
X134364115Y-67830166D01*
X134431459Y-67830166D01*
X134532474Y-67863838D01*
X134667161Y-67998525D01*
X134700833Y-68099540D01*
X134700833Y-68166884D01*
X134667161Y-68267899D01*
X134532474Y-68402586D01*
X134431459Y-68436258D01*
X134364115Y-68436258D01*
X134263100Y-68402586D01*
X134128413Y-68267899D01*
X134094741Y-68166884D01*
X134094741Y-68099540D01*
X134128413Y-67998525D01*
X156764797Y-63425282D02*
X156832140Y-63425282D01*
X156966827Y-63357938D01*
X157034171Y-63290595D01*
X157101514Y-63155907D01*
X157101514Y-63021220D01*
X157067843Y-62920205D01*
X156966827Y-62751846D01*
X156865812Y-62650831D01*
X156697453Y-62549816D01*
X156596438Y-62516144D01*
X156461751Y-62516144D01*
X156327064Y-62583488D01*
X156259720Y-62650831D01*
X156192377Y-62785518D01*
X156192377Y-62852862D01*
X155889331Y-63021220D02*
X155417927Y-63492625D01*
X156428079Y-63896686D01*
X159093300Y-65766513D02*
X159160643Y-65766513D01*
X159295330Y-65699169D01*
X159362674Y-65631826D01*
X159430017Y-65497138D01*
X159430017Y-65362451D01*
X159396346Y-65261436D01*
X159295330Y-65093077D01*
X159194315Y-64992062D01*
X159025956Y-64891047D01*
X158924941Y-64857375D01*
X158790254Y-64857375D01*
X158655567Y-64924719D01*
X158588223Y-64992062D01*
X158520880Y-65126749D01*
X158520880Y-65194093D01*
X157847445Y-65732841D02*
X157982132Y-65598154D01*
X158083147Y-65564482D01*
X158150491Y-65564482D01*
X158318849Y-65598154D01*
X158487208Y-65699169D01*
X158756582Y-65968543D01*
X158790254Y-66069558D01*
X158790254Y-66136902D01*
X158756582Y-66237917D01*
X158621895Y-66372604D01*
X158520880Y-66406276D01*
X158453536Y-66406276D01*
X158352521Y-66372604D01*
X158184162Y-66204245D01*
X158150491Y-66103230D01*
X158150491Y-66035887D01*
X158184162Y-65934871D01*
X158318849Y-65800184D01*
X158419865Y-65766513D01*
X158487208Y-65766513D01*
X158588223Y-65800184D01*
X132175586Y-79038865D02*
X132175586Y-79106208D01*
X132242930Y-79240895D01*
X132310274Y-79308239D01*
X132444961Y-79375582D01*
X132579648Y-79375582D01*
X132680663Y-79341911D01*
X132849022Y-79240895D01*
X132950037Y-79139880D01*
X133051052Y-78971521D01*
X133084724Y-78870506D01*
X133084724Y-78735819D01*
X133017380Y-78601132D01*
X132950037Y-78533788D01*
X132815350Y-78466445D01*
X132748006Y-78466445D01*
X132175586Y-77759338D02*
X132512304Y-78096056D01*
X132209258Y-78466445D01*
X132209258Y-78399101D01*
X132175586Y-78298086D01*
X132007228Y-78129727D01*
X131906212Y-78096056D01*
X131838869Y-78096056D01*
X131737854Y-78129727D01*
X131569495Y-78298086D01*
X131535823Y-78399101D01*
X131535823Y-78466445D01*
X131569495Y-78567460D01*
X131737854Y-78735819D01*
X131838869Y-78769491D01*
X131906212Y-78769491D01*
X154318115Y-79438163D02*
X154385458Y-79438163D01*
X154520145Y-79370819D01*
X154587489Y-79303476D01*
X154654832Y-79168788D01*
X154654832Y-79034101D01*
X154621161Y-78933086D01*
X154520145Y-78764727D01*
X154419130Y-78663712D01*
X154250771Y-78562697D01*
X154149756Y-78529025D01*
X154015069Y-78529025D01*
X153880382Y-78596369D01*
X153813038Y-78663712D01*
X153745695Y-78798399D01*
X153745695Y-78865743D01*
X153307962Y-79640193D02*
X153779367Y-80111598D01*
X153206947Y-79202460D02*
X153880382Y-79539178D01*
X153442649Y-79976911D01*
X139880254Y-65693629D02*
X139880254Y-65760972D01*
X139947598Y-65895659D01*
X140014942Y-65963003D01*
X140149629Y-66030346D01*
X140284316Y-66030346D01*
X140385331Y-65996675D01*
X140553690Y-65895659D01*
X140654705Y-65794644D01*
X140755720Y-65626285D01*
X140789392Y-65525270D01*
X140789392Y-65390583D01*
X140722048Y-65255896D01*
X140654705Y-65188552D01*
X140520018Y-65121209D01*
X140452674Y-65121209D01*
X140284316Y-64818163D02*
X139846583Y-64380430D01*
X139812911Y-64885507D01*
X139711896Y-64784491D01*
X139610880Y-64750820D01*
X139543537Y-64750820D01*
X139442522Y-64784491D01*
X139274163Y-64952850D01*
X139240491Y-65053865D01*
X139240491Y-65121209D01*
X139274163Y-65222224D01*
X139476193Y-65424255D01*
X139577209Y-65457927D01*
X139644552Y-65457927D01*
X141113038Y-83563413D02*
X141113038Y-83630756D01*
X141180382Y-83765443D01*
X141247726Y-83832787D01*
X141382413Y-83900130D01*
X141517100Y-83900130D01*
X141618115Y-83866459D01*
X141786474Y-83765443D01*
X141887489Y-83664428D01*
X141988504Y-83496069D01*
X142022176Y-83395054D01*
X142022176Y-83260367D01*
X141954832Y-83125680D01*
X141887489Y-83058336D01*
X141752802Y-82990993D01*
X141685458Y-82990993D01*
X141416084Y-82721619D02*
X141416084Y-82654275D01*
X141382413Y-82553260D01*
X141214054Y-82384901D01*
X141113038Y-82351230D01*
X141045695Y-82351230D01*
X140944680Y-82384901D01*
X140877336Y-82452245D01*
X140809993Y-82586932D01*
X140809993Y-83395054D01*
X140372260Y-82957321D01*
X149066586Y-63544865D02*
X149066586Y-63612208D01*
X149133930Y-63746895D01*
X149201274Y-63814239D01*
X149335961Y-63881582D01*
X149470648Y-63881582D01*
X149571663Y-63847911D01*
X149740022Y-63746895D01*
X149841037Y-63645880D01*
X149942052Y-63477521D01*
X149975724Y-63376506D01*
X149975724Y-63241819D01*
X149908380Y-63107132D01*
X149841037Y-63039788D01*
X149706350Y-62972445D01*
X149639006Y-62972445D01*
X148325808Y-62938773D02*
X148729869Y-63342834D01*
X148527838Y-63140804D02*
X149234945Y-62433697D01*
X149201274Y-62602056D01*
X149201274Y-62736743D01*
X149234945Y-62837758D01*
M02*
