G04 #@! TF.GenerationSoftware,KiCad,Pcbnew,(5.1.5)-3*
G04 #@! TF.CreationDate,2021-12-21T21:48:17-06:00*
G04 #@! TF.ProjectId,cuarenta,63756172-656e-4746-912e-6b696361645f,rev?*
G04 #@! TF.SameCoordinates,Original*
G04 #@! TF.FileFunction,Soldermask,Top*
G04 #@! TF.FilePolarity,Negative*
%FSLAX46Y46*%
G04 Gerber Fmt 4.6, Leading zero omitted, Abs format (unit mm)*
G04 Created by KiCad (PCBNEW (5.1.5)-3) date 2021-12-21 21:48:17*
%MOMM*%
%LPD*%
G04 APERTURE LIST*
%ADD10C,0.150000*%
G04 APERTURE END LIST*
D10*
G36*
X275440228Y-102726453D02*
G01*
X275595100Y-102790603D01*
X275734481Y-102883735D01*
X275853015Y-103002269D01*
X275946147Y-103141650D01*
X276010297Y-103296522D01*
X276043000Y-103460934D01*
X276043000Y-103628566D01*
X276010297Y-103792978D01*
X275946147Y-103947850D01*
X275853015Y-104087231D01*
X275734481Y-104205765D01*
X275595100Y-104298897D01*
X275440228Y-104363047D01*
X275275816Y-104395750D01*
X275108184Y-104395750D01*
X274943772Y-104363047D01*
X274788900Y-104298897D01*
X274649519Y-104205765D01*
X274530985Y-104087231D01*
X274437853Y-103947850D01*
X274373703Y-103792978D01*
X274341000Y-103628566D01*
X274341000Y-103460934D01*
X274373703Y-103296522D01*
X274437853Y-103141650D01*
X274530985Y-103002269D01*
X274649519Y-102883735D01*
X274788900Y-102790603D01*
X274943772Y-102726453D01*
X275108184Y-102693750D01*
X275275816Y-102693750D01*
X275440228Y-102726453D01*
G37*
G36*
X268423000Y-104395750D02*
G01*
X266721000Y-104395750D01*
X266721000Y-102693750D01*
X268423000Y-102693750D01*
X268423000Y-104395750D01*
G37*
G36*
X273191750Y-100670750D02*
G01*
X269889750Y-100670750D01*
X269889750Y-98568750D01*
X273191750Y-98568750D01*
X273191750Y-100670750D01*
G37*
G36*
X264347314Y-95509139D02*
G01*
X264538583Y-95588365D01*
X264538585Y-95588366D01*
X264710723Y-95703385D01*
X264857115Y-95849777D01*
X264972135Y-96021917D01*
X265051361Y-96213186D01*
X265091750Y-96416234D01*
X265091750Y-96623266D01*
X265051361Y-96826314D01*
X264972135Y-97017583D01*
X264972134Y-97017585D01*
X264857115Y-97189723D01*
X264710723Y-97336115D01*
X264538585Y-97451134D01*
X264538584Y-97451135D01*
X264538583Y-97451135D01*
X264347314Y-97530361D01*
X264144266Y-97570750D01*
X263937234Y-97570750D01*
X263734186Y-97530361D01*
X263542917Y-97451135D01*
X263542916Y-97451135D01*
X263542915Y-97451134D01*
X263370777Y-97336115D01*
X263224385Y-97189723D01*
X263109366Y-97017585D01*
X263109365Y-97017583D01*
X263030139Y-96826314D01*
X262989750Y-96623266D01*
X262989750Y-96416234D01*
X263030139Y-96213186D01*
X263109365Y-96021917D01*
X263224385Y-95849777D01*
X263370777Y-95703385D01*
X263542915Y-95588366D01*
X263542917Y-95588365D01*
X263734186Y-95509139D01*
X263937234Y-95468750D01*
X264144266Y-95468750D01*
X264347314Y-95509139D01*
G37*
G36*
X278847314Y-95509139D02*
G01*
X279038583Y-95588365D01*
X279038585Y-95588366D01*
X279210723Y-95703385D01*
X279357115Y-95849777D01*
X279472135Y-96021917D01*
X279551361Y-96213186D01*
X279591750Y-96416234D01*
X279591750Y-96623266D01*
X279551361Y-96826314D01*
X279472135Y-97017583D01*
X279472134Y-97017585D01*
X279357115Y-97189723D01*
X279210723Y-97336115D01*
X279038585Y-97451134D01*
X279038584Y-97451135D01*
X279038583Y-97451135D01*
X278847314Y-97530361D01*
X278644266Y-97570750D01*
X278437234Y-97570750D01*
X278234186Y-97530361D01*
X278042917Y-97451135D01*
X278042916Y-97451135D01*
X278042915Y-97451134D01*
X277870777Y-97336115D01*
X277724385Y-97189723D01*
X277609366Y-97017585D01*
X277609365Y-97017583D01*
X277530139Y-96826314D01*
X277489750Y-96623266D01*
X277489750Y-96416234D01*
X277530139Y-96213186D01*
X277609365Y-96021917D01*
X277724385Y-95849777D01*
X277870777Y-95703385D01*
X278042915Y-95588366D01*
X278042917Y-95588365D01*
X278234186Y-95509139D01*
X278437234Y-95468750D01*
X278644266Y-95468750D01*
X278847314Y-95509139D01*
G37*
G36*
X112026461Y-96303881D02*
G01*
X112044844Y-96311496D01*
X112061379Y-96322544D01*
X112061381Y-96322546D01*
X112061384Y-96322548D01*
X112075452Y-96336616D01*
X112075454Y-96336619D01*
X112075456Y-96336621D01*
X112086504Y-96353156D01*
X112094119Y-96371539D01*
X112098000Y-96391051D01*
X112098000Y-96410949D01*
X112094119Y-96430461D01*
X112086504Y-96448844D01*
X112075456Y-96465379D01*
X112075454Y-96465381D01*
X112075452Y-96465384D01*
X112061384Y-96479452D01*
X112061381Y-96479454D01*
X112061379Y-96479456D01*
X112044844Y-96490504D01*
X112026461Y-96498119D01*
X112006949Y-96502000D01*
X111987051Y-96502000D01*
X111967539Y-96498119D01*
X111949156Y-96490504D01*
X111932621Y-96479456D01*
X111932619Y-96479454D01*
X111932616Y-96479452D01*
X111918548Y-96465384D01*
X111918546Y-96465381D01*
X111918544Y-96465379D01*
X111907496Y-96448844D01*
X111899881Y-96430461D01*
X111896000Y-96410949D01*
X111896000Y-96391051D01*
X111899881Y-96371539D01*
X111907496Y-96353156D01*
X111918544Y-96336621D01*
X111918546Y-96336619D01*
X111918548Y-96336616D01*
X111932616Y-96322548D01*
X111932619Y-96322546D01*
X111932621Y-96322544D01*
X111949156Y-96311496D01*
X111967539Y-96303881D01*
X111987051Y-96300000D01*
X112006949Y-96300000D01*
X112026461Y-96303881D01*
G37*
G36*
X247757711Y-96303881D02*
G01*
X247776094Y-96311496D01*
X247792629Y-96322544D01*
X247792631Y-96322546D01*
X247792634Y-96322548D01*
X247806702Y-96336616D01*
X247806704Y-96336619D01*
X247806706Y-96336621D01*
X247817754Y-96353156D01*
X247825369Y-96371539D01*
X247829250Y-96391051D01*
X247829250Y-96410949D01*
X247825369Y-96430461D01*
X247817754Y-96448844D01*
X247806706Y-96465379D01*
X247806704Y-96465381D01*
X247806702Y-96465384D01*
X247792634Y-96479452D01*
X247792631Y-96479454D01*
X247792629Y-96479456D01*
X247776094Y-96490504D01*
X247757711Y-96498119D01*
X247738199Y-96502000D01*
X247718301Y-96502000D01*
X247698789Y-96498119D01*
X247680406Y-96490504D01*
X247663871Y-96479456D01*
X247663869Y-96479454D01*
X247663866Y-96479452D01*
X247649798Y-96465384D01*
X247649796Y-96465381D01*
X247649794Y-96465379D01*
X247638746Y-96448844D01*
X247631131Y-96430461D01*
X247627250Y-96410949D01*
X247627250Y-96391051D01*
X247631131Y-96371539D01*
X247638746Y-96353156D01*
X247649794Y-96336621D01*
X247649796Y-96336619D01*
X247649798Y-96336616D01*
X247663866Y-96322548D01*
X247663869Y-96322546D01*
X247663871Y-96322544D01*
X247680406Y-96311496D01*
X247698789Y-96303881D01*
X247718301Y-96300000D01*
X247738199Y-96300000D01*
X247757711Y-96303881D01*
G37*
G36*
X228707711Y-96303881D02*
G01*
X228726094Y-96311496D01*
X228742629Y-96322544D01*
X228742631Y-96322546D01*
X228742634Y-96322548D01*
X228756702Y-96336616D01*
X228756704Y-96336619D01*
X228756706Y-96336621D01*
X228767754Y-96353156D01*
X228775369Y-96371539D01*
X228779250Y-96391051D01*
X228779250Y-96410949D01*
X228775369Y-96430461D01*
X228767754Y-96448844D01*
X228756706Y-96465379D01*
X228756704Y-96465381D01*
X228756702Y-96465384D01*
X228742634Y-96479452D01*
X228742631Y-96479454D01*
X228742629Y-96479456D01*
X228726094Y-96490504D01*
X228707711Y-96498119D01*
X228688199Y-96502000D01*
X228668301Y-96502000D01*
X228648789Y-96498119D01*
X228630406Y-96490504D01*
X228613871Y-96479456D01*
X228613869Y-96479454D01*
X228613866Y-96479452D01*
X228599798Y-96465384D01*
X228599796Y-96465381D01*
X228599794Y-96465379D01*
X228588746Y-96448844D01*
X228581131Y-96430461D01*
X228577250Y-96410949D01*
X228577250Y-96391051D01*
X228581131Y-96371539D01*
X228588746Y-96353156D01*
X228599794Y-96336621D01*
X228599796Y-96336619D01*
X228599798Y-96336616D01*
X228613866Y-96322548D01*
X228613869Y-96322546D01*
X228613871Y-96322544D01*
X228630406Y-96311496D01*
X228648789Y-96303881D01*
X228668301Y-96300000D01*
X228688199Y-96300000D01*
X228707711Y-96303881D01*
G37*
G36*
X209657711Y-96303881D02*
G01*
X209676094Y-96311496D01*
X209692629Y-96322544D01*
X209692631Y-96322546D01*
X209692634Y-96322548D01*
X209706702Y-96336616D01*
X209706704Y-96336619D01*
X209706706Y-96336621D01*
X209717754Y-96353156D01*
X209725369Y-96371539D01*
X209729250Y-96391051D01*
X209729250Y-96410949D01*
X209725369Y-96430461D01*
X209717754Y-96448844D01*
X209706706Y-96465379D01*
X209706704Y-96465381D01*
X209706702Y-96465384D01*
X209692634Y-96479452D01*
X209692631Y-96479454D01*
X209692629Y-96479456D01*
X209676094Y-96490504D01*
X209657711Y-96498119D01*
X209638199Y-96502000D01*
X209618301Y-96502000D01*
X209598789Y-96498119D01*
X209580406Y-96490504D01*
X209563871Y-96479456D01*
X209563869Y-96479454D01*
X209563866Y-96479452D01*
X209549798Y-96465384D01*
X209549796Y-96465381D01*
X209549794Y-96465379D01*
X209538746Y-96448844D01*
X209531131Y-96430461D01*
X209527250Y-96410949D01*
X209527250Y-96391051D01*
X209531131Y-96371539D01*
X209538746Y-96353156D01*
X209549794Y-96336621D01*
X209549796Y-96336619D01*
X209549798Y-96336616D01*
X209563866Y-96322548D01*
X209563869Y-96322546D01*
X209563871Y-96322544D01*
X209580406Y-96311496D01*
X209598789Y-96303881D01*
X209618301Y-96300000D01*
X209638199Y-96300000D01*
X209657711Y-96303881D01*
G37*
G36*
X185845211Y-96303881D02*
G01*
X185863594Y-96311496D01*
X185880129Y-96322544D01*
X185880131Y-96322546D01*
X185880134Y-96322548D01*
X185894202Y-96336616D01*
X185894204Y-96336619D01*
X185894206Y-96336621D01*
X185905254Y-96353156D01*
X185912869Y-96371539D01*
X185916750Y-96391051D01*
X185916750Y-96410949D01*
X185912869Y-96430461D01*
X185905254Y-96448844D01*
X185894206Y-96465379D01*
X185894204Y-96465381D01*
X185894202Y-96465384D01*
X185880134Y-96479452D01*
X185880131Y-96479454D01*
X185880129Y-96479456D01*
X185863594Y-96490504D01*
X185845211Y-96498119D01*
X185825699Y-96502000D01*
X185805801Y-96502000D01*
X185786289Y-96498119D01*
X185767906Y-96490504D01*
X185751371Y-96479456D01*
X185751369Y-96479454D01*
X185751366Y-96479452D01*
X185737298Y-96465384D01*
X185737296Y-96465381D01*
X185737294Y-96465379D01*
X185726246Y-96448844D01*
X185718631Y-96430461D01*
X185714750Y-96410949D01*
X185714750Y-96391051D01*
X185718631Y-96371539D01*
X185726246Y-96353156D01*
X185737294Y-96336621D01*
X185737296Y-96336619D01*
X185737298Y-96336616D01*
X185751366Y-96322548D01*
X185751369Y-96322546D01*
X185751371Y-96322544D01*
X185767906Y-96311496D01*
X185786289Y-96303881D01*
X185805801Y-96300000D01*
X185825699Y-96300000D01*
X185845211Y-96303881D01*
G37*
G36*
X26301461Y-96303881D02*
G01*
X26319844Y-96311496D01*
X26336379Y-96322544D01*
X26336381Y-96322546D01*
X26336384Y-96322548D01*
X26350452Y-96336616D01*
X26350454Y-96336619D01*
X26350456Y-96336621D01*
X26361504Y-96353156D01*
X26369119Y-96371539D01*
X26373000Y-96391051D01*
X26373000Y-96410949D01*
X26369119Y-96430461D01*
X26361504Y-96448844D01*
X26350456Y-96465379D01*
X26350454Y-96465381D01*
X26350452Y-96465384D01*
X26336384Y-96479452D01*
X26336381Y-96479454D01*
X26336379Y-96479456D01*
X26319844Y-96490504D01*
X26301461Y-96498119D01*
X26281949Y-96502000D01*
X26262051Y-96502000D01*
X26242539Y-96498119D01*
X26224156Y-96490504D01*
X26207621Y-96479456D01*
X26207619Y-96479454D01*
X26207616Y-96479452D01*
X26193548Y-96465384D01*
X26193546Y-96465381D01*
X26193544Y-96465379D01*
X26182496Y-96448844D01*
X26174881Y-96430461D01*
X26171000Y-96410949D01*
X26171000Y-96391051D01*
X26174881Y-96371539D01*
X26182496Y-96353156D01*
X26193544Y-96336621D01*
X26193546Y-96336619D01*
X26193548Y-96336616D01*
X26207616Y-96322548D01*
X26207619Y-96322546D01*
X26207621Y-96322544D01*
X26224156Y-96311496D01*
X26242539Y-96303881D01*
X26262051Y-96300000D01*
X26281949Y-96300000D01*
X26301461Y-96303881D01*
G37*
G36*
X52495211Y-96303881D02*
G01*
X52513594Y-96311496D01*
X52530129Y-96322544D01*
X52530131Y-96322546D01*
X52530134Y-96322548D01*
X52544202Y-96336616D01*
X52544204Y-96336619D01*
X52544206Y-96336621D01*
X52555254Y-96353156D01*
X52562869Y-96371539D01*
X52566750Y-96391051D01*
X52566750Y-96410949D01*
X52562869Y-96430461D01*
X52555254Y-96448844D01*
X52544206Y-96465379D01*
X52544204Y-96465381D01*
X52544202Y-96465384D01*
X52530134Y-96479452D01*
X52530131Y-96479454D01*
X52530129Y-96479456D01*
X52513594Y-96490504D01*
X52495211Y-96498119D01*
X52475699Y-96502000D01*
X52455801Y-96502000D01*
X52436289Y-96498119D01*
X52417906Y-96490504D01*
X52401371Y-96479456D01*
X52401369Y-96479454D01*
X52401366Y-96479452D01*
X52387298Y-96465384D01*
X52387296Y-96465381D01*
X52387294Y-96465379D01*
X52376246Y-96448844D01*
X52368631Y-96430461D01*
X52364750Y-96410949D01*
X52364750Y-96391051D01*
X52368631Y-96371539D01*
X52376246Y-96353156D01*
X52387294Y-96336621D01*
X52387296Y-96336619D01*
X52387298Y-96336616D01*
X52401366Y-96322548D01*
X52401369Y-96322546D01*
X52401371Y-96322544D01*
X52417906Y-96311496D01*
X52436289Y-96303881D01*
X52455801Y-96300000D01*
X52475699Y-96300000D01*
X52495211Y-96303881D01*
G37*
G36*
X78688961Y-96303881D02*
G01*
X78707344Y-96311496D01*
X78723879Y-96322544D01*
X78723881Y-96322546D01*
X78723884Y-96322548D01*
X78737952Y-96336616D01*
X78737954Y-96336619D01*
X78737956Y-96336621D01*
X78749004Y-96353156D01*
X78756619Y-96371539D01*
X78760500Y-96391051D01*
X78760500Y-96410949D01*
X78756619Y-96430461D01*
X78749004Y-96448844D01*
X78737956Y-96465379D01*
X78737954Y-96465381D01*
X78737952Y-96465384D01*
X78723884Y-96479452D01*
X78723881Y-96479454D01*
X78723879Y-96479456D01*
X78707344Y-96490504D01*
X78688961Y-96498119D01*
X78669449Y-96502000D01*
X78649551Y-96502000D01*
X78630039Y-96498119D01*
X78611656Y-96490504D01*
X78595121Y-96479456D01*
X78595119Y-96479454D01*
X78595116Y-96479452D01*
X78581048Y-96465384D01*
X78581046Y-96465381D01*
X78581044Y-96465379D01*
X78569996Y-96448844D01*
X78562381Y-96430461D01*
X78558500Y-96410949D01*
X78558500Y-96391051D01*
X78562381Y-96371539D01*
X78569996Y-96353156D01*
X78581044Y-96336621D01*
X78581046Y-96336619D01*
X78581048Y-96336616D01*
X78595116Y-96322548D01*
X78595119Y-96322546D01*
X78595121Y-96322544D01*
X78611656Y-96311496D01*
X78630039Y-96303881D01*
X78649551Y-96300000D01*
X78669449Y-96300000D01*
X78688961Y-96303881D01*
G37*
G36*
X152507711Y-96303881D02*
G01*
X152526094Y-96311496D01*
X152542629Y-96322544D01*
X152542631Y-96322546D01*
X152542634Y-96322548D01*
X152556702Y-96336616D01*
X152556704Y-96336619D01*
X152556706Y-96336621D01*
X152567754Y-96353156D01*
X152575369Y-96371539D01*
X152579250Y-96391051D01*
X152579250Y-96410949D01*
X152575369Y-96430461D01*
X152567754Y-96448844D01*
X152556706Y-96465379D01*
X152556704Y-96465381D01*
X152556702Y-96465384D01*
X152542634Y-96479452D01*
X152542631Y-96479454D01*
X152542629Y-96479456D01*
X152526094Y-96490504D01*
X152507711Y-96498119D01*
X152488199Y-96502000D01*
X152468301Y-96502000D01*
X152448789Y-96498119D01*
X152430406Y-96490504D01*
X152413871Y-96479456D01*
X152413869Y-96479454D01*
X152413866Y-96479452D01*
X152399798Y-96465384D01*
X152399796Y-96465381D01*
X152399794Y-96465379D01*
X152388746Y-96448844D01*
X152381131Y-96430461D01*
X152377250Y-96410949D01*
X152377250Y-96391051D01*
X152381131Y-96371539D01*
X152388746Y-96353156D01*
X152399794Y-96336621D01*
X152399796Y-96336619D01*
X152399798Y-96336616D01*
X152413866Y-96322548D01*
X152413869Y-96322546D01*
X152413871Y-96322544D01*
X152430406Y-96311496D01*
X152448789Y-96303881D01*
X152468301Y-96300000D01*
X152488199Y-96300000D01*
X152507711Y-96303881D01*
G37*
G36*
X264347314Y-93009139D02*
G01*
X264538583Y-93088365D01*
X264538585Y-93088366D01*
X264710723Y-93203385D01*
X264857115Y-93349777D01*
X264972135Y-93521917D01*
X265051361Y-93713186D01*
X265091750Y-93916234D01*
X265091750Y-94123266D01*
X265051361Y-94326314D01*
X264972135Y-94517583D01*
X264972134Y-94517585D01*
X264857115Y-94689723D01*
X264710723Y-94836115D01*
X264538585Y-94951134D01*
X264538584Y-94951135D01*
X264538583Y-94951135D01*
X264347314Y-95030361D01*
X264144266Y-95070750D01*
X263937234Y-95070750D01*
X263734186Y-95030361D01*
X263542917Y-94951135D01*
X263542916Y-94951135D01*
X263542915Y-94951134D01*
X263370777Y-94836115D01*
X263224385Y-94689723D01*
X263109366Y-94517585D01*
X263109365Y-94517583D01*
X263030139Y-94326314D01*
X262989750Y-94123266D01*
X262989750Y-93916234D01*
X263030139Y-93713186D01*
X263109365Y-93521917D01*
X263224385Y-93349777D01*
X263370777Y-93203385D01*
X263542915Y-93088366D01*
X263542917Y-93088365D01*
X263734186Y-93009139D01*
X263937234Y-92968750D01*
X264144266Y-92968750D01*
X264347314Y-93009139D01*
G37*
G36*
X265091750Y-92570750D02*
G01*
X262989750Y-92570750D01*
X262989750Y-90468750D01*
X265091750Y-90468750D01*
X265091750Y-92570750D01*
G37*
G36*
X278847314Y-90509139D02*
G01*
X279038583Y-90588365D01*
X279038585Y-90588366D01*
X279210723Y-90703385D01*
X279357115Y-90849777D01*
X279472135Y-91021917D01*
X279551361Y-91213186D01*
X279591750Y-91416234D01*
X279591750Y-91623266D01*
X279551361Y-91826314D01*
X279472135Y-92017583D01*
X279472134Y-92017585D01*
X279357115Y-92189723D01*
X279210723Y-92336115D01*
X279038585Y-92451134D01*
X279038584Y-92451135D01*
X279038583Y-92451135D01*
X278847314Y-92530361D01*
X278644266Y-92570750D01*
X278437234Y-92570750D01*
X278234186Y-92530361D01*
X278042917Y-92451135D01*
X278042916Y-92451135D01*
X278042915Y-92451134D01*
X277870777Y-92336115D01*
X277724385Y-92189723D01*
X277609366Y-92017585D01*
X277609365Y-92017583D01*
X277530139Y-91826314D01*
X277489750Y-91623266D01*
X277489750Y-91416234D01*
X277530139Y-91213186D01*
X277609365Y-91021917D01*
X277724385Y-90849777D01*
X277870777Y-90703385D01*
X278042915Y-90588366D01*
X278042917Y-90588365D01*
X278234186Y-90509139D01*
X278437234Y-90468750D01*
X278644266Y-90468750D01*
X278847314Y-90509139D01*
G37*
G36*
X273191750Y-89470750D02*
G01*
X269889750Y-89470750D01*
X269889750Y-87368750D01*
X273191750Y-87368750D01*
X273191750Y-89470750D01*
G37*
G36*
X271952675Y-78986849D02*
G01*
X272076871Y-79011552D01*
X272213272Y-79068051D01*
X272336029Y-79150075D01*
X272440425Y-79254471D01*
X272522449Y-79377228D01*
X272578948Y-79513629D01*
X272607750Y-79658431D01*
X272607750Y-79806069D01*
X272578948Y-79950871D01*
X272522449Y-80087272D01*
X272440425Y-80210029D01*
X272336029Y-80314425D01*
X272213272Y-80396449D01*
X272076871Y-80452948D01*
X271952675Y-80477651D01*
X271932070Y-80481750D01*
X271784430Y-80481750D01*
X271763825Y-80477651D01*
X271639629Y-80452948D01*
X271503228Y-80396449D01*
X271380471Y-80314425D01*
X271276075Y-80210029D01*
X271194051Y-80087272D01*
X271137552Y-79950871D01*
X271108750Y-79806069D01*
X271108750Y-79658431D01*
X271137552Y-79513629D01*
X271194051Y-79377228D01*
X271276075Y-79254471D01*
X271380471Y-79150075D01*
X271503228Y-79068051D01*
X271639629Y-79011552D01*
X271763825Y-78986849D01*
X271784430Y-78982750D01*
X271932070Y-78982750D01*
X271952675Y-78986849D01*
G37*
G36*
X266872675Y-78986849D02*
G01*
X266996871Y-79011552D01*
X267133272Y-79068051D01*
X267256029Y-79150075D01*
X267360425Y-79254471D01*
X267442449Y-79377228D01*
X267498948Y-79513629D01*
X267527750Y-79658431D01*
X267527750Y-79806069D01*
X267498948Y-79950871D01*
X267442449Y-80087272D01*
X267360425Y-80210029D01*
X267256029Y-80314425D01*
X267133272Y-80396449D01*
X266996871Y-80452948D01*
X266872675Y-80477651D01*
X266852070Y-80481750D01*
X266704430Y-80481750D01*
X266683825Y-80477651D01*
X266559629Y-80452948D01*
X266423228Y-80396449D01*
X266300471Y-80314425D01*
X266196075Y-80210029D01*
X266114051Y-80087272D01*
X266057552Y-79950871D01*
X266028750Y-79806069D01*
X266028750Y-79658431D01*
X266057552Y-79513629D01*
X266114051Y-79377228D01*
X266196075Y-79254471D01*
X266300471Y-79150075D01*
X266423228Y-79068051D01*
X266559629Y-79011552D01*
X266683825Y-78986849D01*
X266704430Y-78982750D01*
X266852070Y-78982750D01*
X266872675Y-78986849D01*
G37*
G36*
X269412675Y-78986849D02*
G01*
X269536871Y-79011552D01*
X269673272Y-79068051D01*
X269796029Y-79150075D01*
X269900425Y-79254471D01*
X269982449Y-79377228D01*
X270038948Y-79513629D01*
X270067750Y-79658431D01*
X270067750Y-79806069D01*
X270038948Y-79950871D01*
X269982449Y-80087272D01*
X269900425Y-80210029D01*
X269796029Y-80314425D01*
X269673272Y-80396449D01*
X269536871Y-80452948D01*
X269412675Y-80477651D01*
X269392070Y-80481750D01*
X269244430Y-80481750D01*
X269223825Y-80477651D01*
X269099629Y-80452948D01*
X268963228Y-80396449D01*
X268840471Y-80314425D01*
X268736075Y-80210029D01*
X268654051Y-80087272D01*
X268597552Y-79950871D01*
X268568750Y-79806069D01*
X268568750Y-79658431D01*
X268597552Y-79513629D01*
X268654051Y-79377228D01*
X268736075Y-79254471D01*
X268840471Y-79150075D01*
X268963228Y-79068051D01*
X269099629Y-79011552D01*
X269223825Y-78986849D01*
X269244430Y-78982750D01*
X269392070Y-78982750D01*
X269412675Y-78986849D01*
G37*
G36*
X274492675Y-78986849D02*
G01*
X274616871Y-79011552D01*
X274753272Y-79068051D01*
X274876029Y-79150075D01*
X274980425Y-79254471D01*
X275062449Y-79377228D01*
X275118948Y-79513629D01*
X275147750Y-79658431D01*
X275147750Y-79806069D01*
X275118948Y-79950871D01*
X275062449Y-80087272D01*
X274980425Y-80210029D01*
X274876029Y-80314425D01*
X274753272Y-80396449D01*
X274616871Y-80452948D01*
X274492675Y-80477651D01*
X274472070Y-80481750D01*
X274324430Y-80481750D01*
X274303825Y-80477651D01*
X274179629Y-80452948D01*
X274043228Y-80396449D01*
X273920471Y-80314425D01*
X273816075Y-80210029D01*
X273734051Y-80087272D01*
X273677552Y-79950871D01*
X273648750Y-79806069D01*
X273648750Y-79658431D01*
X273677552Y-79513629D01*
X273734051Y-79377228D01*
X273816075Y-79254471D01*
X273920471Y-79150075D01*
X274043228Y-79068051D01*
X274179629Y-79011552D01*
X274303825Y-78986849D01*
X274324430Y-78982750D01*
X274472070Y-78982750D01*
X274492675Y-78986849D01*
G37*
G36*
X133457711Y-77253881D02*
G01*
X133476094Y-77261496D01*
X133492629Y-77272544D01*
X133492631Y-77272546D01*
X133492634Y-77272548D01*
X133506702Y-77286616D01*
X133506704Y-77286619D01*
X133506706Y-77286621D01*
X133517754Y-77303156D01*
X133525369Y-77321539D01*
X133529250Y-77341051D01*
X133529250Y-77360949D01*
X133525369Y-77380461D01*
X133517754Y-77398844D01*
X133506706Y-77415379D01*
X133506704Y-77415381D01*
X133506702Y-77415384D01*
X133492634Y-77429452D01*
X133492631Y-77429454D01*
X133492629Y-77429456D01*
X133476094Y-77440504D01*
X133457711Y-77448119D01*
X133438199Y-77452000D01*
X133418301Y-77452000D01*
X133398789Y-77448119D01*
X133380406Y-77440504D01*
X133363871Y-77429456D01*
X133363869Y-77429454D01*
X133363866Y-77429452D01*
X133349798Y-77415384D01*
X133349796Y-77415381D01*
X133349794Y-77415379D01*
X133338746Y-77398844D01*
X133331131Y-77380461D01*
X133327250Y-77360949D01*
X133327250Y-77341051D01*
X133331131Y-77321539D01*
X133338746Y-77303156D01*
X133349794Y-77286621D01*
X133349796Y-77286619D01*
X133349798Y-77286616D01*
X133363866Y-77272548D01*
X133363869Y-77272546D01*
X133363871Y-77272544D01*
X133380406Y-77261496D01*
X133398789Y-77253881D01*
X133418301Y-77250000D01*
X133438199Y-77250000D01*
X133457711Y-77253881D01*
G37*
G36*
X228707711Y-77253881D02*
G01*
X228726094Y-77261496D01*
X228742629Y-77272544D01*
X228742631Y-77272546D01*
X228742634Y-77272548D01*
X228756702Y-77286616D01*
X228756704Y-77286619D01*
X228756706Y-77286621D01*
X228767754Y-77303156D01*
X228775369Y-77321539D01*
X228779250Y-77341051D01*
X228779250Y-77360949D01*
X228775369Y-77380461D01*
X228767754Y-77398844D01*
X228756706Y-77415379D01*
X228756704Y-77415381D01*
X228756702Y-77415384D01*
X228742634Y-77429452D01*
X228742631Y-77429454D01*
X228742629Y-77429456D01*
X228726094Y-77440504D01*
X228707711Y-77448119D01*
X228688199Y-77452000D01*
X228668301Y-77452000D01*
X228648789Y-77448119D01*
X228630406Y-77440504D01*
X228613871Y-77429456D01*
X228613869Y-77429454D01*
X228613866Y-77429452D01*
X228599798Y-77415384D01*
X228599796Y-77415381D01*
X228599794Y-77415379D01*
X228588746Y-77398844D01*
X228581131Y-77380461D01*
X228577250Y-77360949D01*
X228577250Y-77341051D01*
X228581131Y-77321539D01*
X228588746Y-77303156D01*
X228599794Y-77286621D01*
X228599796Y-77286619D01*
X228599798Y-77286616D01*
X228613866Y-77272548D01*
X228613869Y-77272546D01*
X228613871Y-77272544D01*
X228630406Y-77261496D01*
X228648789Y-77253881D01*
X228668301Y-77250000D01*
X228688199Y-77250000D01*
X228707711Y-77253881D01*
G37*
G36*
X190607711Y-77253881D02*
G01*
X190626094Y-77261496D01*
X190642629Y-77272544D01*
X190642631Y-77272546D01*
X190642634Y-77272548D01*
X190656702Y-77286616D01*
X190656704Y-77286619D01*
X190656706Y-77286621D01*
X190667754Y-77303156D01*
X190675369Y-77321539D01*
X190679250Y-77341051D01*
X190679250Y-77360949D01*
X190675369Y-77380461D01*
X190667754Y-77398844D01*
X190656706Y-77415379D01*
X190656704Y-77415381D01*
X190656702Y-77415384D01*
X190642634Y-77429452D01*
X190642631Y-77429454D01*
X190642629Y-77429456D01*
X190626094Y-77440504D01*
X190607711Y-77448119D01*
X190588199Y-77452000D01*
X190568301Y-77452000D01*
X190548789Y-77448119D01*
X190530406Y-77440504D01*
X190513871Y-77429456D01*
X190513869Y-77429454D01*
X190513866Y-77429452D01*
X190499798Y-77415384D01*
X190499796Y-77415381D01*
X190499794Y-77415379D01*
X190488746Y-77398844D01*
X190481131Y-77380461D01*
X190477250Y-77360949D01*
X190477250Y-77341051D01*
X190481131Y-77321539D01*
X190488746Y-77303156D01*
X190499794Y-77286621D01*
X190499796Y-77286619D01*
X190499798Y-77286616D01*
X190513866Y-77272548D01*
X190513869Y-77272546D01*
X190513871Y-77272544D01*
X190530406Y-77261496D01*
X190548789Y-77253881D01*
X190568301Y-77250000D01*
X190588199Y-77250000D01*
X190607711Y-77253881D01*
G37*
G36*
X171557711Y-77253881D02*
G01*
X171576094Y-77261496D01*
X171592629Y-77272544D01*
X171592631Y-77272546D01*
X171592634Y-77272548D01*
X171606702Y-77286616D01*
X171606704Y-77286619D01*
X171606706Y-77286621D01*
X171617754Y-77303156D01*
X171625369Y-77321539D01*
X171629250Y-77341051D01*
X171629250Y-77360949D01*
X171625369Y-77380461D01*
X171617754Y-77398844D01*
X171606706Y-77415379D01*
X171606704Y-77415381D01*
X171606702Y-77415384D01*
X171592634Y-77429452D01*
X171592631Y-77429454D01*
X171592629Y-77429456D01*
X171576094Y-77440504D01*
X171557711Y-77448119D01*
X171538199Y-77452000D01*
X171518301Y-77452000D01*
X171498789Y-77448119D01*
X171480406Y-77440504D01*
X171463871Y-77429456D01*
X171463869Y-77429454D01*
X171463866Y-77429452D01*
X171449798Y-77415384D01*
X171449796Y-77415381D01*
X171449794Y-77415379D01*
X171438746Y-77398844D01*
X171431131Y-77380461D01*
X171427250Y-77360949D01*
X171427250Y-77341051D01*
X171431131Y-77321539D01*
X171438746Y-77303156D01*
X171449794Y-77286621D01*
X171449796Y-77286619D01*
X171449798Y-77286616D01*
X171463866Y-77272548D01*
X171463869Y-77272546D01*
X171463871Y-77272544D01*
X171480406Y-77261496D01*
X171498789Y-77253881D01*
X171518301Y-77250000D01*
X171538199Y-77250000D01*
X171557711Y-77253881D01*
G37*
G36*
X152507711Y-77253881D02*
G01*
X152526094Y-77261496D01*
X152542629Y-77272544D01*
X152542631Y-77272546D01*
X152542634Y-77272548D01*
X152556702Y-77286616D01*
X152556704Y-77286619D01*
X152556706Y-77286621D01*
X152567754Y-77303156D01*
X152575369Y-77321539D01*
X152579250Y-77341051D01*
X152579250Y-77360949D01*
X152575369Y-77380461D01*
X152567754Y-77398844D01*
X152556706Y-77415379D01*
X152556704Y-77415381D01*
X152556702Y-77415384D01*
X152542634Y-77429452D01*
X152542631Y-77429454D01*
X152542629Y-77429456D01*
X152526094Y-77440504D01*
X152507711Y-77448119D01*
X152488199Y-77452000D01*
X152468301Y-77452000D01*
X152448789Y-77448119D01*
X152430406Y-77440504D01*
X152413871Y-77429456D01*
X152413869Y-77429454D01*
X152413866Y-77429452D01*
X152399798Y-77415384D01*
X152399796Y-77415381D01*
X152399794Y-77415379D01*
X152388746Y-77398844D01*
X152381131Y-77380461D01*
X152377250Y-77360949D01*
X152377250Y-77341051D01*
X152381131Y-77321539D01*
X152388746Y-77303156D01*
X152399794Y-77286621D01*
X152399796Y-77286619D01*
X152399798Y-77286616D01*
X152413866Y-77272548D01*
X152413869Y-77272546D01*
X152413871Y-77272544D01*
X152430406Y-77261496D01*
X152448789Y-77253881D01*
X152468301Y-77250000D01*
X152488199Y-77250000D01*
X152507711Y-77253881D01*
G37*
G36*
X114407711Y-77253881D02*
G01*
X114426094Y-77261496D01*
X114442629Y-77272544D01*
X114442631Y-77272546D01*
X114442634Y-77272548D01*
X114456702Y-77286616D01*
X114456704Y-77286619D01*
X114456706Y-77286621D01*
X114467754Y-77303156D01*
X114475369Y-77321539D01*
X114479250Y-77341051D01*
X114479250Y-77360949D01*
X114475369Y-77380461D01*
X114467754Y-77398844D01*
X114456706Y-77415379D01*
X114456704Y-77415381D01*
X114456702Y-77415384D01*
X114442634Y-77429452D01*
X114442631Y-77429454D01*
X114442629Y-77429456D01*
X114426094Y-77440504D01*
X114407711Y-77448119D01*
X114388199Y-77452000D01*
X114368301Y-77452000D01*
X114348789Y-77448119D01*
X114330406Y-77440504D01*
X114313871Y-77429456D01*
X114313869Y-77429454D01*
X114313866Y-77429452D01*
X114299798Y-77415384D01*
X114299796Y-77415381D01*
X114299794Y-77415379D01*
X114288746Y-77398844D01*
X114281131Y-77380461D01*
X114277250Y-77360949D01*
X114277250Y-77341051D01*
X114281131Y-77321539D01*
X114288746Y-77303156D01*
X114299794Y-77286621D01*
X114299796Y-77286619D01*
X114299798Y-77286616D01*
X114313866Y-77272548D01*
X114313869Y-77272546D01*
X114313871Y-77272544D01*
X114330406Y-77261496D01*
X114348789Y-77253881D01*
X114368301Y-77250000D01*
X114388199Y-77250000D01*
X114407711Y-77253881D01*
G37*
G36*
X76307711Y-77253881D02*
G01*
X76326094Y-77261496D01*
X76342629Y-77272544D01*
X76342631Y-77272546D01*
X76342634Y-77272548D01*
X76356702Y-77286616D01*
X76356704Y-77286619D01*
X76356706Y-77286621D01*
X76367754Y-77303156D01*
X76375369Y-77321539D01*
X76379250Y-77341051D01*
X76379250Y-77360949D01*
X76375369Y-77380461D01*
X76367754Y-77398844D01*
X76356706Y-77415379D01*
X76356704Y-77415381D01*
X76356702Y-77415384D01*
X76342634Y-77429452D01*
X76342631Y-77429454D01*
X76342629Y-77429456D01*
X76326094Y-77440504D01*
X76307711Y-77448119D01*
X76288199Y-77452000D01*
X76268301Y-77452000D01*
X76248789Y-77448119D01*
X76230406Y-77440504D01*
X76213871Y-77429456D01*
X76213869Y-77429454D01*
X76213866Y-77429452D01*
X76199798Y-77415384D01*
X76199796Y-77415381D01*
X76199794Y-77415379D01*
X76188746Y-77398844D01*
X76181131Y-77380461D01*
X76177250Y-77360949D01*
X76177250Y-77341051D01*
X76181131Y-77321539D01*
X76188746Y-77303156D01*
X76199794Y-77286621D01*
X76199796Y-77286619D01*
X76199798Y-77286616D01*
X76213866Y-77272548D01*
X76213869Y-77272546D01*
X76213871Y-77272544D01*
X76230406Y-77261496D01*
X76248789Y-77253881D01*
X76268301Y-77250000D01*
X76288199Y-77250000D01*
X76307711Y-77253881D01*
G37*
G36*
X57257711Y-77253881D02*
G01*
X57276094Y-77261496D01*
X57292629Y-77272544D01*
X57292631Y-77272546D01*
X57292634Y-77272548D01*
X57306702Y-77286616D01*
X57306704Y-77286619D01*
X57306706Y-77286621D01*
X57317754Y-77303156D01*
X57325369Y-77321539D01*
X57329250Y-77341051D01*
X57329250Y-77360949D01*
X57325369Y-77380461D01*
X57317754Y-77398844D01*
X57306706Y-77415379D01*
X57306704Y-77415381D01*
X57306702Y-77415384D01*
X57292634Y-77429452D01*
X57292631Y-77429454D01*
X57292629Y-77429456D01*
X57276094Y-77440504D01*
X57257711Y-77448119D01*
X57238199Y-77452000D01*
X57218301Y-77452000D01*
X57198789Y-77448119D01*
X57180406Y-77440504D01*
X57163871Y-77429456D01*
X57163869Y-77429454D01*
X57163866Y-77429452D01*
X57149798Y-77415384D01*
X57149796Y-77415381D01*
X57149794Y-77415379D01*
X57138746Y-77398844D01*
X57131131Y-77380461D01*
X57127250Y-77360949D01*
X57127250Y-77341051D01*
X57131131Y-77321539D01*
X57138746Y-77303156D01*
X57149794Y-77286621D01*
X57149796Y-77286619D01*
X57149798Y-77286616D01*
X57163866Y-77272548D01*
X57163869Y-77272546D01*
X57163871Y-77272544D01*
X57180406Y-77261496D01*
X57198789Y-77253881D01*
X57218301Y-77250000D01*
X57238199Y-77250000D01*
X57257711Y-77253881D01*
G37*
G36*
X31063961Y-77253881D02*
G01*
X31082344Y-77261496D01*
X31098879Y-77272544D01*
X31098881Y-77272546D01*
X31098884Y-77272548D01*
X31112952Y-77286616D01*
X31112954Y-77286619D01*
X31112956Y-77286621D01*
X31124004Y-77303156D01*
X31131619Y-77321539D01*
X31135500Y-77341051D01*
X31135500Y-77360949D01*
X31131619Y-77380461D01*
X31124004Y-77398844D01*
X31112956Y-77415379D01*
X31112954Y-77415381D01*
X31112952Y-77415384D01*
X31098884Y-77429452D01*
X31098881Y-77429454D01*
X31098879Y-77429456D01*
X31082344Y-77440504D01*
X31063961Y-77448119D01*
X31044449Y-77452000D01*
X31024551Y-77452000D01*
X31005039Y-77448119D01*
X30986656Y-77440504D01*
X30970121Y-77429456D01*
X30970119Y-77429454D01*
X30970116Y-77429452D01*
X30956048Y-77415384D01*
X30956046Y-77415381D01*
X30956044Y-77415379D01*
X30944996Y-77398844D01*
X30937381Y-77380461D01*
X30933500Y-77360949D01*
X30933500Y-77341051D01*
X30937381Y-77321539D01*
X30944996Y-77303156D01*
X30956044Y-77286621D01*
X30956046Y-77286619D01*
X30956048Y-77286616D01*
X30970116Y-77272548D01*
X30970119Y-77272546D01*
X30970121Y-77272544D01*
X30986656Y-77261496D01*
X31005039Y-77253881D01*
X31024551Y-77250000D01*
X31044449Y-77250000D01*
X31063961Y-77253881D01*
G37*
G36*
X247757711Y-77253881D02*
G01*
X247776094Y-77261496D01*
X247792629Y-77272544D01*
X247792631Y-77272546D01*
X247792634Y-77272548D01*
X247806702Y-77286616D01*
X247806704Y-77286619D01*
X247806706Y-77286621D01*
X247817754Y-77303156D01*
X247825369Y-77321539D01*
X247829250Y-77341051D01*
X247829250Y-77360949D01*
X247825369Y-77380461D01*
X247817754Y-77398844D01*
X247806706Y-77415379D01*
X247806704Y-77415381D01*
X247806702Y-77415384D01*
X247792634Y-77429452D01*
X247792631Y-77429454D01*
X247792629Y-77429456D01*
X247776094Y-77440504D01*
X247757711Y-77448119D01*
X247738199Y-77452000D01*
X247718301Y-77452000D01*
X247698789Y-77448119D01*
X247680406Y-77440504D01*
X247663871Y-77429456D01*
X247663869Y-77429454D01*
X247663866Y-77429452D01*
X247649798Y-77415384D01*
X247649796Y-77415381D01*
X247649794Y-77415379D01*
X247638746Y-77398844D01*
X247631131Y-77380461D01*
X247627250Y-77360949D01*
X247627250Y-77341051D01*
X247631131Y-77321539D01*
X247638746Y-77303156D01*
X247649794Y-77286621D01*
X247649796Y-77286619D01*
X247649798Y-77286616D01*
X247663866Y-77272548D01*
X247663869Y-77272546D01*
X247663871Y-77272544D01*
X247680406Y-77261496D01*
X247698789Y-77253881D01*
X247718301Y-77250000D01*
X247738199Y-77250000D01*
X247757711Y-77253881D01*
G37*
G36*
X209657711Y-77253881D02*
G01*
X209676094Y-77261496D01*
X209692629Y-77272544D01*
X209692631Y-77272546D01*
X209692634Y-77272548D01*
X209706702Y-77286616D01*
X209706704Y-77286619D01*
X209706706Y-77286621D01*
X209717754Y-77303156D01*
X209725369Y-77321539D01*
X209729250Y-77341051D01*
X209729250Y-77360949D01*
X209725369Y-77380461D01*
X209717754Y-77398844D01*
X209706706Y-77415379D01*
X209706704Y-77415381D01*
X209706702Y-77415384D01*
X209692634Y-77429452D01*
X209692631Y-77429454D01*
X209692629Y-77429456D01*
X209676094Y-77440504D01*
X209657711Y-77448119D01*
X209638199Y-77452000D01*
X209618301Y-77452000D01*
X209598789Y-77448119D01*
X209580406Y-77440504D01*
X209563871Y-77429456D01*
X209563869Y-77429454D01*
X209563866Y-77429452D01*
X209549798Y-77415384D01*
X209549796Y-77415381D01*
X209549794Y-77415379D01*
X209538746Y-77398844D01*
X209531131Y-77380461D01*
X209527250Y-77360949D01*
X209527250Y-77341051D01*
X209531131Y-77321539D01*
X209538746Y-77303156D01*
X209549794Y-77286621D01*
X209549796Y-77286619D01*
X209549798Y-77286616D01*
X209563866Y-77272548D01*
X209563869Y-77272546D01*
X209563871Y-77272544D01*
X209580406Y-77261496D01*
X209598789Y-77253881D01*
X209618301Y-77250000D01*
X209638199Y-77250000D01*
X209657711Y-77253881D01*
G37*
G36*
X95357711Y-77253881D02*
G01*
X95376094Y-77261496D01*
X95392629Y-77272544D01*
X95392631Y-77272546D01*
X95392634Y-77272548D01*
X95406702Y-77286616D01*
X95406704Y-77286619D01*
X95406706Y-77286621D01*
X95417754Y-77303156D01*
X95425369Y-77321539D01*
X95429250Y-77341051D01*
X95429250Y-77360949D01*
X95425369Y-77380461D01*
X95417754Y-77398844D01*
X95406706Y-77415379D01*
X95406704Y-77415381D01*
X95406702Y-77415384D01*
X95392634Y-77429452D01*
X95392631Y-77429454D01*
X95392629Y-77429456D01*
X95376094Y-77440504D01*
X95357711Y-77448119D01*
X95338199Y-77452000D01*
X95318301Y-77452000D01*
X95298789Y-77448119D01*
X95280406Y-77440504D01*
X95263871Y-77429456D01*
X95263869Y-77429454D01*
X95263866Y-77429452D01*
X95249798Y-77415384D01*
X95249796Y-77415381D01*
X95249794Y-77415379D01*
X95238746Y-77398844D01*
X95231131Y-77380461D01*
X95227250Y-77360949D01*
X95227250Y-77341051D01*
X95231131Y-77321539D01*
X95238746Y-77303156D01*
X95249794Y-77286621D01*
X95249796Y-77286619D01*
X95249798Y-77286616D01*
X95263866Y-77272548D01*
X95263869Y-77272546D01*
X95263871Y-77272544D01*
X95280406Y-77261496D01*
X95298789Y-77253881D01*
X95318301Y-77250000D01*
X95338199Y-77250000D01*
X95357711Y-77253881D01*
G37*
G36*
X278798012Y-72923177D02*
G01*
X278947312Y-72952874D01*
X279111284Y-73020794D01*
X279258854Y-73119397D01*
X279384353Y-73244896D01*
X279482956Y-73392466D01*
X279550876Y-73556438D01*
X279585500Y-73730509D01*
X279585500Y-73907991D01*
X279550876Y-74082062D01*
X279482956Y-74246034D01*
X279384353Y-74393604D01*
X279258854Y-74519103D01*
X279111284Y-74617706D01*
X278947312Y-74685626D01*
X278798012Y-74715323D01*
X278773242Y-74720250D01*
X278595758Y-74720250D01*
X278570988Y-74715323D01*
X278421688Y-74685626D01*
X278257716Y-74617706D01*
X278110146Y-74519103D01*
X277984647Y-74393604D01*
X277886044Y-74246034D01*
X277818124Y-74082062D01*
X277783500Y-73907991D01*
X277783500Y-73730509D01*
X277818124Y-73556438D01*
X277886044Y-73392466D01*
X277984647Y-73244896D01*
X278110146Y-73119397D01*
X278257716Y-73020794D01*
X278421688Y-72952874D01*
X278570988Y-72923177D01*
X278595758Y-72918250D01*
X278773242Y-72918250D01*
X278798012Y-72923177D01*
G37*
G36*
X264329500Y-74720250D02*
G01*
X262527500Y-74720250D01*
X262527500Y-72918250D01*
X264329500Y-72918250D01*
X264329500Y-74720250D01*
G37*
G36*
X278798012Y-70383177D02*
G01*
X278947312Y-70412874D01*
X279111284Y-70480794D01*
X279258854Y-70579397D01*
X279384353Y-70704896D01*
X279482956Y-70852466D01*
X279550876Y-71016438D01*
X279585500Y-71190509D01*
X279585500Y-71367991D01*
X279550876Y-71542062D01*
X279482956Y-71706034D01*
X279384353Y-71853604D01*
X279258854Y-71979103D01*
X279111284Y-72077706D01*
X278947312Y-72145626D01*
X278798012Y-72175323D01*
X278773242Y-72180250D01*
X278595758Y-72180250D01*
X278570988Y-72175323D01*
X278421688Y-72145626D01*
X278257716Y-72077706D01*
X278110146Y-71979103D01*
X277984647Y-71853604D01*
X277886044Y-71706034D01*
X277818124Y-71542062D01*
X277783500Y-71367991D01*
X277783500Y-71190509D01*
X277818124Y-71016438D01*
X277886044Y-70852466D01*
X277984647Y-70704896D01*
X278110146Y-70579397D01*
X278257716Y-70480794D01*
X278421688Y-70412874D01*
X278570988Y-70383177D01*
X278595758Y-70378250D01*
X278773242Y-70378250D01*
X278798012Y-70383177D01*
G37*
G36*
X263542012Y-70383177D02*
G01*
X263691312Y-70412874D01*
X263855284Y-70480794D01*
X264002854Y-70579397D01*
X264128353Y-70704896D01*
X264226956Y-70852466D01*
X264294876Y-71016438D01*
X264329500Y-71190509D01*
X264329500Y-71367991D01*
X264294876Y-71542062D01*
X264226956Y-71706034D01*
X264128353Y-71853604D01*
X264002854Y-71979103D01*
X263855284Y-72077706D01*
X263691312Y-72145626D01*
X263542012Y-72175323D01*
X263517242Y-72180250D01*
X263339758Y-72180250D01*
X263314988Y-72175323D01*
X263165688Y-72145626D01*
X263001716Y-72077706D01*
X262854146Y-71979103D01*
X262728647Y-71853604D01*
X262630044Y-71706034D01*
X262562124Y-71542062D01*
X262527500Y-71367991D01*
X262527500Y-71190509D01*
X262562124Y-71016438D01*
X262630044Y-70852466D01*
X262728647Y-70704896D01*
X262854146Y-70579397D01*
X263001716Y-70480794D01*
X263165688Y-70412874D01*
X263314988Y-70383177D01*
X263339758Y-70378250D01*
X263517242Y-70378250D01*
X263542012Y-70383177D01*
G37*
G36*
X263542012Y-67843177D02*
G01*
X263691312Y-67872874D01*
X263855284Y-67940794D01*
X264002854Y-68039397D01*
X264128353Y-68164896D01*
X264226956Y-68312466D01*
X264294876Y-68476438D01*
X264329500Y-68650509D01*
X264329500Y-68827991D01*
X264294876Y-69002062D01*
X264226956Y-69166034D01*
X264128353Y-69313604D01*
X264002854Y-69439103D01*
X263855284Y-69537706D01*
X263691312Y-69605626D01*
X263542012Y-69635323D01*
X263517242Y-69640250D01*
X263339758Y-69640250D01*
X263314988Y-69635323D01*
X263165688Y-69605626D01*
X263001716Y-69537706D01*
X262854146Y-69439103D01*
X262728647Y-69313604D01*
X262630044Y-69166034D01*
X262562124Y-69002062D01*
X262527500Y-68827991D01*
X262527500Y-68650509D01*
X262562124Y-68476438D01*
X262630044Y-68312466D01*
X262728647Y-68164896D01*
X262854146Y-68039397D01*
X263001716Y-67940794D01*
X263165688Y-67872874D01*
X263314988Y-67843177D01*
X263339758Y-67838250D01*
X263517242Y-67838250D01*
X263542012Y-67843177D01*
G37*
G36*
X278798012Y-67843177D02*
G01*
X278947312Y-67872874D01*
X279111284Y-67940794D01*
X279258854Y-68039397D01*
X279384353Y-68164896D01*
X279482956Y-68312466D01*
X279550876Y-68476438D01*
X279585500Y-68650509D01*
X279585500Y-68827991D01*
X279550876Y-69002062D01*
X279482956Y-69166034D01*
X279384353Y-69313604D01*
X279258854Y-69439103D01*
X279111284Y-69537706D01*
X278947312Y-69605626D01*
X278798012Y-69635323D01*
X278773242Y-69640250D01*
X278595758Y-69640250D01*
X278570988Y-69635323D01*
X278421688Y-69605626D01*
X278257716Y-69537706D01*
X278110146Y-69439103D01*
X277984647Y-69313604D01*
X277886044Y-69166034D01*
X277818124Y-69002062D01*
X277783500Y-68827991D01*
X277783500Y-68650509D01*
X277818124Y-68476438D01*
X277886044Y-68312466D01*
X277984647Y-68164896D01*
X278110146Y-68039397D01*
X278257716Y-67940794D01*
X278421688Y-67872874D01*
X278570988Y-67843177D01*
X278595758Y-67838250D01*
X278773242Y-67838250D01*
X278798012Y-67843177D01*
G37*
G36*
X263542012Y-65303177D02*
G01*
X263691312Y-65332874D01*
X263855284Y-65400794D01*
X264002854Y-65499397D01*
X264128353Y-65624896D01*
X264226956Y-65772466D01*
X264294876Y-65936438D01*
X264329500Y-66110509D01*
X264329500Y-66287991D01*
X264294876Y-66462062D01*
X264226956Y-66626034D01*
X264128353Y-66773604D01*
X264002854Y-66899103D01*
X263855284Y-66997706D01*
X263691312Y-67065626D01*
X263542012Y-67095323D01*
X263517242Y-67100250D01*
X263339758Y-67100250D01*
X263314988Y-67095323D01*
X263165688Y-67065626D01*
X263001716Y-66997706D01*
X262854146Y-66899103D01*
X262728647Y-66773604D01*
X262630044Y-66626034D01*
X262562124Y-66462062D01*
X262527500Y-66287991D01*
X262527500Y-66110509D01*
X262562124Y-65936438D01*
X262630044Y-65772466D01*
X262728647Y-65624896D01*
X262854146Y-65499397D01*
X263001716Y-65400794D01*
X263165688Y-65332874D01*
X263314988Y-65303177D01*
X263339758Y-65298250D01*
X263517242Y-65298250D01*
X263542012Y-65303177D01*
G37*
G36*
X278798012Y-65303177D02*
G01*
X278947312Y-65332874D01*
X279111284Y-65400794D01*
X279258854Y-65499397D01*
X279384353Y-65624896D01*
X279482956Y-65772466D01*
X279550876Y-65936438D01*
X279585500Y-66110509D01*
X279585500Y-66287991D01*
X279550876Y-66462062D01*
X279482956Y-66626034D01*
X279384353Y-66773604D01*
X279258854Y-66899103D01*
X279111284Y-66997706D01*
X278947312Y-67065626D01*
X278798012Y-67095323D01*
X278773242Y-67100250D01*
X278595758Y-67100250D01*
X278570988Y-67095323D01*
X278421688Y-67065626D01*
X278257716Y-66997706D01*
X278110146Y-66899103D01*
X277984647Y-66773604D01*
X277886044Y-66626034D01*
X277818124Y-66462062D01*
X277783500Y-66287991D01*
X277783500Y-66110509D01*
X277818124Y-65936438D01*
X277886044Y-65772466D01*
X277984647Y-65624896D01*
X278110146Y-65499397D01*
X278257716Y-65400794D01*
X278421688Y-65332874D01*
X278570988Y-65303177D01*
X278595758Y-65298250D01*
X278773242Y-65298250D01*
X278798012Y-65303177D01*
G37*
G36*
X263542012Y-62763177D02*
G01*
X263691312Y-62792874D01*
X263855284Y-62860794D01*
X264002854Y-62959397D01*
X264128353Y-63084896D01*
X264226956Y-63232466D01*
X264294876Y-63396438D01*
X264329500Y-63570509D01*
X264329500Y-63747991D01*
X264294876Y-63922062D01*
X264226956Y-64086034D01*
X264128353Y-64233604D01*
X264002854Y-64359103D01*
X263855284Y-64457706D01*
X263691312Y-64525626D01*
X263542012Y-64555323D01*
X263517242Y-64560250D01*
X263339758Y-64560250D01*
X263314988Y-64555323D01*
X263165688Y-64525626D01*
X263001716Y-64457706D01*
X262854146Y-64359103D01*
X262728647Y-64233604D01*
X262630044Y-64086034D01*
X262562124Y-63922062D01*
X262527500Y-63747991D01*
X262527500Y-63570509D01*
X262562124Y-63396438D01*
X262630044Y-63232466D01*
X262728647Y-63084896D01*
X262854146Y-62959397D01*
X263001716Y-62860794D01*
X263165688Y-62792874D01*
X263314988Y-62763177D01*
X263339758Y-62758250D01*
X263517242Y-62758250D01*
X263542012Y-62763177D01*
G37*
G36*
X278798012Y-62763177D02*
G01*
X278947312Y-62792874D01*
X279111284Y-62860794D01*
X279258854Y-62959397D01*
X279384353Y-63084896D01*
X279482956Y-63232466D01*
X279550876Y-63396438D01*
X279585500Y-63570509D01*
X279585500Y-63747991D01*
X279550876Y-63922062D01*
X279482956Y-64086034D01*
X279384353Y-64233604D01*
X279258854Y-64359103D01*
X279111284Y-64457706D01*
X278947312Y-64525626D01*
X278798012Y-64555323D01*
X278773242Y-64560250D01*
X278595758Y-64560250D01*
X278570988Y-64555323D01*
X278421688Y-64525626D01*
X278257716Y-64457706D01*
X278110146Y-64359103D01*
X277984647Y-64233604D01*
X277886044Y-64086034D01*
X277818124Y-63922062D01*
X277783500Y-63747991D01*
X277783500Y-63570509D01*
X277818124Y-63396438D01*
X277886044Y-63232466D01*
X277984647Y-63084896D01*
X278110146Y-62959397D01*
X278257716Y-62860794D01*
X278421688Y-62792874D01*
X278570988Y-62763177D01*
X278595758Y-62758250D01*
X278773242Y-62758250D01*
X278798012Y-62763177D01*
G37*
G36*
X263542012Y-60223177D02*
G01*
X263691312Y-60252874D01*
X263855284Y-60320794D01*
X264002854Y-60419397D01*
X264128353Y-60544896D01*
X264226956Y-60692466D01*
X264294876Y-60856438D01*
X264329500Y-61030509D01*
X264329500Y-61207991D01*
X264294876Y-61382062D01*
X264226956Y-61546034D01*
X264128353Y-61693604D01*
X264002854Y-61819103D01*
X263855284Y-61917706D01*
X263691312Y-61985626D01*
X263542012Y-62015323D01*
X263517242Y-62020250D01*
X263339758Y-62020250D01*
X263314988Y-62015323D01*
X263165688Y-61985626D01*
X263001716Y-61917706D01*
X262854146Y-61819103D01*
X262728647Y-61693604D01*
X262630044Y-61546034D01*
X262562124Y-61382062D01*
X262527500Y-61207991D01*
X262527500Y-61030509D01*
X262562124Y-60856438D01*
X262630044Y-60692466D01*
X262728647Y-60544896D01*
X262854146Y-60419397D01*
X263001716Y-60320794D01*
X263165688Y-60252874D01*
X263314988Y-60223177D01*
X263339758Y-60218250D01*
X263517242Y-60218250D01*
X263542012Y-60223177D01*
G37*
G36*
X278798012Y-60223177D02*
G01*
X278947312Y-60252874D01*
X279111284Y-60320794D01*
X279258854Y-60419397D01*
X279384353Y-60544896D01*
X279482956Y-60692466D01*
X279550876Y-60856438D01*
X279585500Y-61030509D01*
X279585500Y-61207991D01*
X279550876Y-61382062D01*
X279482956Y-61546034D01*
X279384353Y-61693604D01*
X279258854Y-61819103D01*
X279111284Y-61917706D01*
X278947312Y-61985626D01*
X278798012Y-62015323D01*
X278773242Y-62020250D01*
X278595758Y-62020250D01*
X278570988Y-62015323D01*
X278421688Y-61985626D01*
X278257716Y-61917706D01*
X278110146Y-61819103D01*
X277984647Y-61693604D01*
X277886044Y-61546034D01*
X277818124Y-61382062D01*
X277783500Y-61207991D01*
X277783500Y-61030509D01*
X277818124Y-60856438D01*
X277886044Y-60692466D01*
X277984647Y-60544896D01*
X278110146Y-60419397D01*
X278257716Y-60320794D01*
X278421688Y-60252874D01*
X278570988Y-60223177D01*
X278595758Y-60218250D01*
X278773242Y-60218250D01*
X278798012Y-60223177D01*
G37*
G36*
X278798012Y-57683177D02*
G01*
X278947312Y-57712874D01*
X279111284Y-57780794D01*
X279258854Y-57879397D01*
X279384353Y-58004896D01*
X279482956Y-58152466D01*
X279550876Y-58316438D01*
X279585500Y-58490509D01*
X279585500Y-58667991D01*
X279550876Y-58842062D01*
X279482956Y-59006034D01*
X279384353Y-59153604D01*
X279258854Y-59279103D01*
X279111284Y-59377706D01*
X278947312Y-59445626D01*
X278798012Y-59475323D01*
X278773242Y-59480250D01*
X278595758Y-59480250D01*
X278570988Y-59475323D01*
X278421688Y-59445626D01*
X278257716Y-59377706D01*
X278110146Y-59279103D01*
X277984647Y-59153604D01*
X277886044Y-59006034D01*
X277818124Y-58842062D01*
X277783500Y-58667991D01*
X277783500Y-58490509D01*
X277818124Y-58316438D01*
X277886044Y-58152466D01*
X277984647Y-58004896D01*
X278110146Y-57879397D01*
X278257716Y-57780794D01*
X278421688Y-57712874D01*
X278570988Y-57683177D01*
X278595758Y-57678250D01*
X278773242Y-57678250D01*
X278798012Y-57683177D01*
G37*
G36*
X263542012Y-57683177D02*
G01*
X263691312Y-57712874D01*
X263855284Y-57780794D01*
X264002854Y-57879397D01*
X264128353Y-58004896D01*
X264226956Y-58152466D01*
X264294876Y-58316438D01*
X264329500Y-58490509D01*
X264329500Y-58667991D01*
X264294876Y-58842062D01*
X264226956Y-59006034D01*
X264128353Y-59153604D01*
X264002854Y-59279103D01*
X263855284Y-59377706D01*
X263691312Y-59445626D01*
X263542012Y-59475323D01*
X263517242Y-59480250D01*
X263339758Y-59480250D01*
X263314988Y-59475323D01*
X263165688Y-59445626D01*
X263001716Y-59377706D01*
X262854146Y-59279103D01*
X262728647Y-59153604D01*
X262630044Y-59006034D01*
X262562124Y-58842062D01*
X262527500Y-58667991D01*
X262527500Y-58490509D01*
X262562124Y-58316438D01*
X262630044Y-58152466D01*
X262728647Y-58004896D01*
X262854146Y-57879397D01*
X263001716Y-57780794D01*
X263165688Y-57712874D01*
X263314988Y-57683177D01*
X263339758Y-57678250D01*
X263517242Y-57678250D01*
X263542012Y-57683177D01*
G37*
G36*
X242995211Y-58203881D02*
G01*
X243013594Y-58211496D01*
X243030129Y-58222544D01*
X243030131Y-58222546D01*
X243030134Y-58222548D01*
X243044202Y-58236616D01*
X243044204Y-58236619D01*
X243044206Y-58236621D01*
X243055254Y-58253156D01*
X243062869Y-58271539D01*
X243066750Y-58291051D01*
X243066750Y-58310949D01*
X243062869Y-58330461D01*
X243055254Y-58348844D01*
X243044206Y-58365379D01*
X243044204Y-58365381D01*
X243044202Y-58365384D01*
X243030134Y-58379452D01*
X243030131Y-58379454D01*
X243030129Y-58379456D01*
X243013594Y-58390504D01*
X242995211Y-58398119D01*
X242975699Y-58402000D01*
X242955801Y-58402000D01*
X242936289Y-58398119D01*
X242917906Y-58390504D01*
X242901371Y-58379456D01*
X242901369Y-58379454D01*
X242901366Y-58379452D01*
X242887298Y-58365384D01*
X242887296Y-58365381D01*
X242887294Y-58365379D01*
X242876246Y-58348844D01*
X242868631Y-58330461D01*
X242864750Y-58310949D01*
X242864750Y-58291051D01*
X242868631Y-58271539D01*
X242876246Y-58253156D01*
X242887294Y-58236621D01*
X242887296Y-58236619D01*
X242887298Y-58236616D01*
X242901366Y-58222548D01*
X242901369Y-58222546D01*
X242901371Y-58222544D01*
X242917906Y-58211496D01*
X242936289Y-58203881D01*
X242955801Y-58200000D01*
X242975699Y-58200000D01*
X242995211Y-58203881D01*
G37*
G36*
X26301461Y-58203881D02*
G01*
X26319844Y-58211496D01*
X26336379Y-58222544D01*
X26336381Y-58222546D01*
X26336384Y-58222548D01*
X26350452Y-58236616D01*
X26350454Y-58236619D01*
X26350456Y-58236621D01*
X26361504Y-58253156D01*
X26369119Y-58271539D01*
X26373000Y-58291051D01*
X26373000Y-58310949D01*
X26369119Y-58330461D01*
X26361504Y-58348844D01*
X26350456Y-58365379D01*
X26350454Y-58365381D01*
X26350452Y-58365384D01*
X26336384Y-58379452D01*
X26336381Y-58379454D01*
X26336379Y-58379456D01*
X26319844Y-58390504D01*
X26301461Y-58398119D01*
X26281949Y-58402000D01*
X26262051Y-58402000D01*
X26242539Y-58398119D01*
X26224156Y-58390504D01*
X26207621Y-58379456D01*
X26207619Y-58379454D01*
X26207616Y-58379452D01*
X26193548Y-58365384D01*
X26193546Y-58365381D01*
X26193544Y-58365379D01*
X26182496Y-58348844D01*
X26174881Y-58330461D01*
X26171000Y-58310949D01*
X26171000Y-58291051D01*
X26174881Y-58271539D01*
X26182496Y-58253156D01*
X26193544Y-58236621D01*
X26193546Y-58236619D01*
X26193548Y-58236616D01*
X26207616Y-58222548D01*
X26207619Y-58222546D01*
X26207621Y-58222544D01*
X26224156Y-58211496D01*
X26242539Y-58203881D01*
X26262051Y-58200000D01*
X26281949Y-58200000D01*
X26301461Y-58203881D01*
G37*
G36*
X47732711Y-58203881D02*
G01*
X47751094Y-58211496D01*
X47767629Y-58222544D01*
X47767631Y-58222546D01*
X47767634Y-58222548D01*
X47781702Y-58236616D01*
X47781704Y-58236619D01*
X47781706Y-58236621D01*
X47792754Y-58253156D01*
X47800369Y-58271539D01*
X47804250Y-58291051D01*
X47804250Y-58310949D01*
X47800369Y-58330461D01*
X47792754Y-58348844D01*
X47781706Y-58365379D01*
X47781704Y-58365381D01*
X47781702Y-58365384D01*
X47767634Y-58379452D01*
X47767631Y-58379454D01*
X47767629Y-58379456D01*
X47751094Y-58390504D01*
X47732711Y-58398119D01*
X47713199Y-58402000D01*
X47693301Y-58402000D01*
X47673789Y-58398119D01*
X47655406Y-58390504D01*
X47638871Y-58379456D01*
X47638869Y-58379454D01*
X47638866Y-58379452D01*
X47624798Y-58365384D01*
X47624796Y-58365381D01*
X47624794Y-58365379D01*
X47613746Y-58348844D01*
X47606131Y-58330461D01*
X47602250Y-58310949D01*
X47602250Y-58291051D01*
X47606131Y-58271539D01*
X47613746Y-58253156D01*
X47624794Y-58236621D01*
X47624796Y-58236619D01*
X47624798Y-58236616D01*
X47638866Y-58222548D01*
X47638869Y-58222546D01*
X47638871Y-58222544D01*
X47655406Y-58211496D01*
X47673789Y-58203881D01*
X47693301Y-58200000D01*
X47713199Y-58200000D01*
X47732711Y-58203881D01*
G37*
G36*
X66782711Y-58203881D02*
G01*
X66801094Y-58211496D01*
X66817629Y-58222544D01*
X66817631Y-58222546D01*
X66817634Y-58222548D01*
X66831702Y-58236616D01*
X66831704Y-58236619D01*
X66831706Y-58236621D01*
X66842754Y-58253156D01*
X66850369Y-58271539D01*
X66854250Y-58291051D01*
X66854250Y-58310949D01*
X66850369Y-58330461D01*
X66842754Y-58348844D01*
X66831706Y-58365379D01*
X66831704Y-58365381D01*
X66831702Y-58365384D01*
X66817634Y-58379452D01*
X66817631Y-58379454D01*
X66817629Y-58379456D01*
X66801094Y-58390504D01*
X66782711Y-58398119D01*
X66763199Y-58402000D01*
X66743301Y-58402000D01*
X66723789Y-58398119D01*
X66705406Y-58390504D01*
X66688871Y-58379456D01*
X66688869Y-58379454D01*
X66688866Y-58379452D01*
X66674798Y-58365384D01*
X66674796Y-58365381D01*
X66674794Y-58365379D01*
X66663746Y-58348844D01*
X66656131Y-58330461D01*
X66652250Y-58310949D01*
X66652250Y-58291051D01*
X66656131Y-58271539D01*
X66663746Y-58253156D01*
X66674794Y-58236621D01*
X66674796Y-58236619D01*
X66674798Y-58236616D01*
X66688866Y-58222548D01*
X66688869Y-58222546D01*
X66688871Y-58222544D01*
X66705406Y-58211496D01*
X66723789Y-58203881D01*
X66743301Y-58200000D01*
X66763199Y-58200000D01*
X66782711Y-58203881D01*
G37*
G36*
X85832711Y-58203881D02*
G01*
X85851094Y-58211496D01*
X85867629Y-58222544D01*
X85867631Y-58222546D01*
X85867634Y-58222548D01*
X85881702Y-58236616D01*
X85881704Y-58236619D01*
X85881706Y-58236621D01*
X85892754Y-58253156D01*
X85900369Y-58271539D01*
X85904250Y-58291051D01*
X85904250Y-58310949D01*
X85900369Y-58330461D01*
X85892754Y-58348844D01*
X85881706Y-58365379D01*
X85881704Y-58365381D01*
X85881702Y-58365384D01*
X85867634Y-58379452D01*
X85867631Y-58379454D01*
X85867629Y-58379456D01*
X85851094Y-58390504D01*
X85832711Y-58398119D01*
X85813199Y-58402000D01*
X85793301Y-58402000D01*
X85773789Y-58398119D01*
X85755406Y-58390504D01*
X85738871Y-58379456D01*
X85738869Y-58379454D01*
X85738866Y-58379452D01*
X85724798Y-58365384D01*
X85724796Y-58365381D01*
X85724794Y-58365379D01*
X85713746Y-58348844D01*
X85706131Y-58330461D01*
X85702250Y-58310949D01*
X85702250Y-58291051D01*
X85706131Y-58271539D01*
X85713746Y-58253156D01*
X85724794Y-58236621D01*
X85724796Y-58236619D01*
X85724798Y-58236616D01*
X85738866Y-58222548D01*
X85738869Y-58222546D01*
X85738871Y-58222544D01*
X85755406Y-58211496D01*
X85773789Y-58203881D01*
X85793301Y-58200000D01*
X85813199Y-58200000D01*
X85832711Y-58203881D01*
G37*
G36*
X162032711Y-58203881D02*
G01*
X162051094Y-58211496D01*
X162067629Y-58222544D01*
X162067631Y-58222546D01*
X162067634Y-58222548D01*
X162081702Y-58236616D01*
X162081704Y-58236619D01*
X162081706Y-58236621D01*
X162092754Y-58253156D01*
X162100369Y-58271539D01*
X162104250Y-58291051D01*
X162104250Y-58310949D01*
X162100369Y-58330461D01*
X162092754Y-58348844D01*
X162081706Y-58365379D01*
X162081704Y-58365381D01*
X162081702Y-58365384D01*
X162067634Y-58379452D01*
X162067631Y-58379454D01*
X162067629Y-58379456D01*
X162051094Y-58390504D01*
X162032711Y-58398119D01*
X162013199Y-58402000D01*
X161993301Y-58402000D01*
X161973789Y-58398119D01*
X161955406Y-58390504D01*
X161938871Y-58379456D01*
X161938869Y-58379454D01*
X161938866Y-58379452D01*
X161924798Y-58365384D01*
X161924796Y-58365381D01*
X161924794Y-58365379D01*
X161913746Y-58348844D01*
X161906131Y-58330461D01*
X161902250Y-58310949D01*
X161902250Y-58291051D01*
X161906131Y-58271539D01*
X161913746Y-58253156D01*
X161924794Y-58236621D01*
X161924796Y-58236619D01*
X161924798Y-58236616D01*
X161938866Y-58222548D01*
X161938869Y-58222546D01*
X161938871Y-58222544D01*
X161955406Y-58211496D01*
X161973789Y-58203881D01*
X161993301Y-58200000D01*
X162013199Y-58200000D01*
X162032711Y-58203881D01*
G37*
G36*
X181082711Y-58203881D02*
G01*
X181101094Y-58211496D01*
X181117629Y-58222544D01*
X181117631Y-58222546D01*
X181117634Y-58222548D01*
X181131702Y-58236616D01*
X181131704Y-58236619D01*
X181131706Y-58236621D01*
X181142754Y-58253156D01*
X181150369Y-58271539D01*
X181154250Y-58291051D01*
X181154250Y-58310949D01*
X181150369Y-58330461D01*
X181142754Y-58348844D01*
X181131706Y-58365379D01*
X181131704Y-58365381D01*
X181131702Y-58365384D01*
X181117634Y-58379452D01*
X181117631Y-58379454D01*
X181117629Y-58379456D01*
X181101094Y-58390504D01*
X181082711Y-58398119D01*
X181063199Y-58402000D01*
X181043301Y-58402000D01*
X181023789Y-58398119D01*
X181005406Y-58390504D01*
X180988871Y-58379456D01*
X180988869Y-58379454D01*
X180988866Y-58379452D01*
X180974798Y-58365384D01*
X180974796Y-58365381D01*
X180974794Y-58365379D01*
X180963746Y-58348844D01*
X180956131Y-58330461D01*
X180952250Y-58310949D01*
X180952250Y-58291051D01*
X180956131Y-58271539D01*
X180963746Y-58253156D01*
X180974794Y-58236621D01*
X180974796Y-58236619D01*
X180974798Y-58236616D01*
X180988866Y-58222548D01*
X180988869Y-58222546D01*
X180988871Y-58222544D01*
X181005406Y-58211496D01*
X181023789Y-58203881D01*
X181043301Y-58200000D01*
X181063199Y-58200000D01*
X181082711Y-58203881D01*
G37*
G36*
X200132711Y-58203881D02*
G01*
X200151094Y-58211496D01*
X200167629Y-58222544D01*
X200167631Y-58222546D01*
X200167634Y-58222548D01*
X200181702Y-58236616D01*
X200181704Y-58236619D01*
X200181706Y-58236621D01*
X200192754Y-58253156D01*
X200200369Y-58271539D01*
X200204250Y-58291051D01*
X200204250Y-58310949D01*
X200200369Y-58330461D01*
X200192754Y-58348844D01*
X200181706Y-58365379D01*
X200181704Y-58365381D01*
X200181702Y-58365384D01*
X200167634Y-58379452D01*
X200167631Y-58379454D01*
X200167629Y-58379456D01*
X200151094Y-58390504D01*
X200132711Y-58398119D01*
X200113199Y-58402000D01*
X200093301Y-58402000D01*
X200073789Y-58398119D01*
X200055406Y-58390504D01*
X200038871Y-58379456D01*
X200038869Y-58379454D01*
X200038866Y-58379452D01*
X200024798Y-58365384D01*
X200024796Y-58365381D01*
X200024794Y-58365379D01*
X200013746Y-58348844D01*
X200006131Y-58330461D01*
X200002250Y-58310949D01*
X200002250Y-58291051D01*
X200006131Y-58271539D01*
X200013746Y-58253156D01*
X200024794Y-58236621D01*
X200024796Y-58236619D01*
X200024798Y-58236616D01*
X200038866Y-58222548D01*
X200038869Y-58222546D01*
X200038871Y-58222544D01*
X200055406Y-58211496D01*
X200073789Y-58203881D01*
X200093301Y-58200000D01*
X200113199Y-58200000D01*
X200132711Y-58203881D01*
G37*
G36*
X142982711Y-58203881D02*
G01*
X143001094Y-58211496D01*
X143017629Y-58222544D01*
X143017631Y-58222546D01*
X143017634Y-58222548D01*
X143031702Y-58236616D01*
X143031704Y-58236619D01*
X143031706Y-58236621D01*
X143042754Y-58253156D01*
X143050369Y-58271539D01*
X143054250Y-58291051D01*
X143054250Y-58310949D01*
X143050369Y-58330461D01*
X143042754Y-58348844D01*
X143031706Y-58365379D01*
X143031704Y-58365381D01*
X143031702Y-58365384D01*
X143017634Y-58379452D01*
X143017631Y-58379454D01*
X143017629Y-58379456D01*
X143001094Y-58390504D01*
X142982711Y-58398119D01*
X142963199Y-58402000D01*
X142943301Y-58402000D01*
X142923789Y-58398119D01*
X142905406Y-58390504D01*
X142888871Y-58379456D01*
X142888869Y-58379454D01*
X142888866Y-58379452D01*
X142874798Y-58365384D01*
X142874796Y-58365381D01*
X142874794Y-58365379D01*
X142863746Y-58348844D01*
X142856131Y-58330461D01*
X142852250Y-58310949D01*
X142852250Y-58291051D01*
X142856131Y-58271539D01*
X142863746Y-58253156D01*
X142874794Y-58236621D01*
X142874796Y-58236619D01*
X142874798Y-58236616D01*
X142888866Y-58222548D01*
X142888869Y-58222546D01*
X142888871Y-58222544D01*
X142905406Y-58211496D01*
X142923789Y-58203881D01*
X142943301Y-58200000D01*
X142963199Y-58200000D01*
X142982711Y-58203881D01*
G37*
G36*
X219182711Y-58203881D02*
G01*
X219201094Y-58211496D01*
X219217629Y-58222544D01*
X219217631Y-58222546D01*
X219217634Y-58222548D01*
X219231702Y-58236616D01*
X219231704Y-58236619D01*
X219231706Y-58236621D01*
X219242754Y-58253156D01*
X219250369Y-58271539D01*
X219254250Y-58291051D01*
X219254250Y-58310949D01*
X219250369Y-58330461D01*
X219242754Y-58348844D01*
X219231706Y-58365379D01*
X219231704Y-58365381D01*
X219231702Y-58365384D01*
X219217634Y-58379452D01*
X219217631Y-58379454D01*
X219217629Y-58379456D01*
X219201094Y-58390504D01*
X219182711Y-58398119D01*
X219163199Y-58402000D01*
X219143301Y-58402000D01*
X219123789Y-58398119D01*
X219105406Y-58390504D01*
X219088871Y-58379456D01*
X219088869Y-58379454D01*
X219088866Y-58379452D01*
X219074798Y-58365384D01*
X219074796Y-58365381D01*
X219074794Y-58365379D01*
X219063746Y-58348844D01*
X219056131Y-58330461D01*
X219052250Y-58310949D01*
X219052250Y-58291051D01*
X219056131Y-58271539D01*
X219063746Y-58253156D01*
X219074794Y-58236621D01*
X219074796Y-58236619D01*
X219074798Y-58236616D01*
X219088866Y-58222548D01*
X219088869Y-58222546D01*
X219088871Y-58222544D01*
X219105406Y-58211496D01*
X219123789Y-58203881D01*
X219143301Y-58200000D01*
X219163199Y-58200000D01*
X219182711Y-58203881D01*
G37*
G36*
X123932711Y-58203881D02*
G01*
X123951094Y-58211496D01*
X123967629Y-58222544D01*
X123967631Y-58222546D01*
X123967634Y-58222548D01*
X123981702Y-58236616D01*
X123981704Y-58236619D01*
X123981706Y-58236621D01*
X123992754Y-58253156D01*
X124000369Y-58271539D01*
X124004250Y-58291051D01*
X124004250Y-58310949D01*
X124000369Y-58330461D01*
X123992754Y-58348844D01*
X123981706Y-58365379D01*
X123981704Y-58365381D01*
X123981702Y-58365384D01*
X123967634Y-58379452D01*
X123967631Y-58379454D01*
X123967629Y-58379456D01*
X123951094Y-58390504D01*
X123932711Y-58398119D01*
X123913199Y-58402000D01*
X123893301Y-58402000D01*
X123873789Y-58398119D01*
X123855406Y-58390504D01*
X123838871Y-58379456D01*
X123838869Y-58379454D01*
X123838866Y-58379452D01*
X123824798Y-58365384D01*
X123824796Y-58365381D01*
X123824794Y-58365379D01*
X123813746Y-58348844D01*
X123806131Y-58330461D01*
X123802250Y-58310949D01*
X123802250Y-58291051D01*
X123806131Y-58271539D01*
X123813746Y-58253156D01*
X123824794Y-58236621D01*
X123824796Y-58236619D01*
X123824798Y-58236616D01*
X123838866Y-58222548D01*
X123838869Y-58222546D01*
X123838871Y-58222544D01*
X123855406Y-58211496D01*
X123873789Y-58203881D01*
X123893301Y-58200000D01*
X123913199Y-58200000D01*
X123932711Y-58203881D01*
G37*
G36*
X104882711Y-58203881D02*
G01*
X104901094Y-58211496D01*
X104917629Y-58222544D01*
X104917631Y-58222546D01*
X104917634Y-58222548D01*
X104931702Y-58236616D01*
X104931704Y-58236619D01*
X104931706Y-58236621D01*
X104942754Y-58253156D01*
X104950369Y-58271539D01*
X104954250Y-58291051D01*
X104954250Y-58310949D01*
X104950369Y-58330461D01*
X104942754Y-58348844D01*
X104931706Y-58365379D01*
X104931704Y-58365381D01*
X104931702Y-58365384D01*
X104917634Y-58379452D01*
X104917631Y-58379454D01*
X104917629Y-58379456D01*
X104901094Y-58390504D01*
X104882711Y-58398119D01*
X104863199Y-58402000D01*
X104843301Y-58402000D01*
X104823789Y-58398119D01*
X104805406Y-58390504D01*
X104788871Y-58379456D01*
X104788869Y-58379454D01*
X104788866Y-58379452D01*
X104774798Y-58365384D01*
X104774796Y-58365381D01*
X104774794Y-58365379D01*
X104763746Y-58348844D01*
X104756131Y-58330461D01*
X104752250Y-58310949D01*
X104752250Y-58291051D01*
X104756131Y-58271539D01*
X104763746Y-58253156D01*
X104774794Y-58236621D01*
X104774796Y-58236619D01*
X104774798Y-58236616D01*
X104788866Y-58222548D01*
X104788869Y-58222546D01*
X104788871Y-58222544D01*
X104805406Y-58211496D01*
X104823789Y-58203881D01*
X104843301Y-58200000D01*
X104863199Y-58200000D01*
X104882711Y-58203881D01*
G37*
G36*
X278798012Y-55143177D02*
G01*
X278947312Y-55172874D01*
X279111284Y-55240794D01*
X279258854Y-55339397D01*
X279384353Y-55464896D01*
X279482956Y-55612466D01*
X279550876Y-55776438D01*
X279585500Y-55950509D01*
X279585500Y-56127991D01*
X279550876Y-56302062D01*
X279482956Y-56466034D01*
X279384353Y-56613604D01*
X279258854Y-56739103D01*
X279111284Y-56837706D01*
X278947312Y-56905626D01*
X278798012Y-56935323D01*
X278773242Y-56940250D01*
X278595758Y-56940250D01*
X278570988Y-56935323D01*
X278421688Y-56905626D01*
X278257716Y-56837706D01*
X278110146Y-56739103D01*
X277984647Y-56613604D01*
X277886044Y-56466034D01*
X277818124Y-56302062D01*
X277783500Y-56127991D01*
X277783500Y-55950509D01*
X277818124Y-55776438D01*
X277886044Y-55612466D01*
X277984647Y-55464896D01*
X278110146Y-55339397D01*
X278257716Y-55240794D01*
X278421688Y-55172874D01*
X278570988Y-55143177D01*
X278595758Y-55138250D01*
X278773242Y-55138250D01*
X278798012Y-55143177D01*
G37*
G36*
X263542012Y-55143177D02*
G01*
X263691312Y-55172874D01*
X263855284Y-55240794D01*
X264002854Y-55339397D01*
X264128353Y-55464896D01*
X264226956Y-55612466D01*
X264294876Y-55776438D01*
X264329500Y-55950509D01*
X264329500Y-56127991D01*
X264294876Y-56302062D01*
X264226956Y-56466034D01*
X264128353Y-56613604D01*
X264002854Y-56739103D01*
X263855284Y-56837706D01*
X263691312Y-56905626D01*
X263542012Y-56935323D01*
X263517242Y-56940250D01*
X263339758Y-56940250D01*
X263314988Y-56935323D01*
X263165688Y-56905626D01*
X263001716Y-56837706D01*
X262854146Y-56739103D01*
X262728647Y-56613604D01*
X262630044Y-56466034D01*
X262562124Y-56302062D01*
X262527500Y-56127991D01*
X262527500Y-55950509D01*
X262562124Y-55776438D01*
X262630044Y-55612466D01*
X262728647Y-55464896D01*
X262854146Y-55339397D01*
X263001716Y-55240794D01*
X263165688Y-55172874D01*
X263314988Y-55143177D01*
X263339758Y-55138250D01*
X263517242Y-55138250D01*
X263542012Y-55143177D01*
G37*
G36*
X278798012Y-52603177D02*
G01*
X278947312Y-52632874D01*
X279111284Y-52700794D01*
X279258854Y-52799397D01*
X279384353Y-52924896D01*
X279482956Y-53072466D01*
X279550876Y-53236438D01*
X279585500Y-53410509D01*
X279585500Y-53587991D01*
X279550876Y-53762062D01*
X279482956Y-53926034D01*
X279384353Y-54073604D01*
X279258854Y-54199103D01*
X279111284Y-54297706D01*
X278947312Y-54365626D01*
X278798012Y-54395323D01*
X278773242Y-54400250D01*
X278595758Y-54400250D01*
X278570988Y-54395323D01*
X278421688Y-54365626D01*
X278257716Y-54297706D01*
X278110146Y-54199103D01*
X277984647Y-54073604D01*
X277886044Y-53926034D01*
X277818124Y-53762062D01*
X277783500Y-53587991D01*
X277783500Y-53410509D01*
X277818124Y-53236438D01*
X277886044Y-53072466D01*
X277984647Y-52924896D01*
X278110146Y-52799397D01*
X278257716Y-52700794D01*
X278421688Y-52632874D01*
X278570988Y-52603177D01*
X278595758Y-52598250D01*
X278773242Y-52598250D01*
X278798012Y-52603177D01*
G37*
G36*
X263542012Y-52603177D02*
G01*
X263691312Y-52632874D01*
X263855284Y-52700794D01*
X264002854Y-52799397D01*
X264128353Y-52924896D01*
X264226956Y-53072466D01*
X264294876Y-53236438D01*
X264329500Y-53410509D01*
X264329500Y-53587991D01*
X264294876Y-53762062D01*
X264226956Y-53926034D01*
X264128353Y-54073604D01*
X264002854Y-54199103D01*
X263855284Y-54297706D01*
X263691312Y-54365626D01*
X263542012Y-54395323D01*
X263517242Y-54400250D01*
X263339758Y-54400250D01*
X263314988Y-54395323D01*
X263165688Y-54365626D01*
X263001716Y-54297706D01*
X262854146Y-54199103D01*
X262728647Y-54073604D01*
X262630044Y-53926034D01*
X262562124Y-53762062D01*
X262527500Y-53587991D01*
X262527500Y-53410509D01*
X262562124Y-53236438D01*
X262630044Y-53072466D01*
X262728647Y-52924896D01*
X262854146Y-52799397D01*
X263001716Y-52700794D01*
X263165688Y-52632874D01*
X263314988Y-52603177D01*
X263339758Y-52598250D01*
X263517242Y-52598250D01*
X263542012Y-52603177D01*
G37*
G36*
X278798012Y-50063177D02*
G01*
X278947312Y-50092874D01*
X279111284Y-50160794D01*
X279258854Y-50259397D01*
X279384353Y-50384896D01*
X279482956Y-50532466D01*
X279550876Y-50696438D01*
X279585500Y-50870509D01*
X279585500Y-51047991D01*
X279550876Y-51222062D01*
X279482956Y-51386034D01*
X279384353Y-51533604D01*
X279258854Y-51659103D01*
X279111284Y-51757706D01*
X278947312Y-51825626D01*
X278798012Y-51855323D01*
X278773242Y-51860250D01*
X278595758Y-51860250D01*
X278570988Y-51855323D01*
X278421688Y-51825626D01*
X278257716Y-51757706D01*
X278110146Y-51659103D01*
X277984647Y-51533604D01*
X277886044Y-51386034D01*
X277818124Y-51222062D01*
X277783500Y-51047991D01*
X277783500Y-50870509D01*
X277818124Y-50696438D01*
X277886044Y-50532466D01*
X277984647Y-50384896D01*
X278110146Y-50259397D01*
X278257716Y-50160794D01*
X278421688Y-50092874D01*
X278570988Y-50063177D01*
X278595758Y-50058250D01*
X278773242Y-50058250D01*
X278798012Y-50063177D01*
G37*
G36*
X263542012Y-50063177D02*
G01*
X263691312Y-50092874D01*
X263855284Y-50160794D01*
X264002854Y-50259397D01*
X264128353Y-50384896D01*
X264226956Y-50532466D01*
X264294876Y-50696438D01*
X264329500Y-50870509D01*
X264329500Y-51047991D01*
X264294876Y-51222062D01*
X264226956Y-51386034D01*
X264128353Y-51533604D01*
X264002854Y-51659103D01*
X263855284Y-51757706D01*
X263691312Y-51825626D01*
X263542012Y-51855323D01*
X263517242Y-51860250D01*
X263339758Y-51860250D01*
X263314988Y-51855323D01*
X263165688Y-51825626D01*
X263001716Y-51757706D01*
X262854146Y-51659103D01*
X262728647Y-51533604D01*
X262630044Y-51386034D01*
X262562124Y-51222062D01*
X262527500Y-51047991D01*
X262527500Y-50870509D01*
X262562124Y-50696438D01*
X262630044Y-50532466D01*
X262728647Y-50384896D01*
X262854146Y-50259397D01*
X263001716Y-50160794D01*
X263165688Y-50092874D01*
X263314988Y-50063177D01*
X263339758Y-50058250D01*
X263517242Y-50058250D01*
X263542012Y-50063177D01*
G37*
G36*
X263542012Y-47523177D02*
G01*
X263691312Y-47552874D01*
X263855284Y-47620794D01*
X264002854Y-47719397D01*
X264128353Y-47844896D01*
X264226956Y-47992466D01*
X264294876Y-48156438D01*
X264329500Y-48330509D01*
X264329500Y-48507991D01*
X264294876Y-48682062D01*
X264226956Y-48846034D01*
X264128353Y-48993604D01*
X264002854Y-49119103D01*
X263855284Y-49217706D01*
X263691312Y-49285626D01*
X263542012Y-49315323D01*
X263517242Y-49320250D01*
X263339758Y-49320250D01*
X263314988Y-49315323D01*
X263165688Y-49285626D01*
X263001716Y-49217706D01*
X262854146Y-49119103D01*
X262728647Y-48993604D01*
X262630044Y-48846034D01*
X262562124Y-48682062D01*
X262527500Y-48507991D01*
X262527500Y-48330509D01*
X262562124Y-48156438D01*
X262630044Y-47992466D01*
X262728647Y-47844896D01*
X262854146Y-47719397D01*
X263001716Y-47620794D01*
X263165688Y-47552874D01*
X263314988Y-47523177D01*
X263339758Y-47518250D01*
X263517242Y-47518250D01*
X263542012Y-47523177D01*
G37*
G36*
X278798012Y-47523177D02*
G01*
X278947312Y-47552874D01*
X279111284Y-47620794D01*
X279258854Y-47719397D01*
X279384353Y-47844896D01*
X279482956Y-47992466D01*
X279550876Y-48156438D01*
X279585500Y-48330509D01*
X279585500Y-48507991D01*
X279550876Y-48682062D01*
X279482956Y-48846034D01*
X279384353Y-48993604D01*
X279258854Y-49119103D01*
X279111284Y-49217706D01*
X278947312Y-49285626D01*
X278798012Y-49315323D01*
X278773242Y-49320250D01*
X278595758Y-49320250D01*
X278570988Y-49315323D01*
X278421688Y-49285626D01*
X278257716Y-49217706D01*
X278110146Y-49119103D01*
X277984647Y-48993604D01*
X277886044Y-48846034D01*
X277818124Y-48682062D01*
X277783500Y-48507991D01*
X277783500Y-48330509D01*
X277818124Y-48156438D01*
X277886044Y-47992466D01*
X277984647Y-47844896D01*
X278110146Y-47719397D01*
X278257716Y-47620794D01*
X278421688Y-47552874D01*
X278570988Y-47523177D01*
X278595758Y-47518250D01*
X278773242Y-47518250D01*
X278798012Y-47523177D01*
G37*
G36*
X263542012Y-44983177D02*
G01*
X263691312Y-45012874D01*
X263855284Y-45080794D01*
X264002854Y-45179397D01*
X264128353Y-45304896D01*
X264226956Y-45452466D01*
X264294876Y-45616438D01*
X264329500Y-45790509D01*
X264329500Y-45967991D01*
X264294876Y-46142062D01*
X264226956Y-46306034D01*
X264128353Y-46453604D01*
X264002854Y-46579103D01*
X263855284Y-46677706D01*
X263691312Y-46745626D01*
X263542012Y-46775323D01*
X263517242Y-46780250D01*
X263339758Y-46780250D01*
X263314988Y-46775323D01*
X263165688Y-46745626D01*
X263001716Y-46677706D01*
X262854146Y-46579103D01*
X262728647Y-46453604D01*
X262630044Y-46306034D01*
X262562124Y-46142062D01*
X262527500Y-45967991D01*
X262527500Y-45790509D01*
X262562124Y-45616438D01*
X262630044Y-45452466D01*
X262728647Y-45304896D01*
X262854146Y-45179397D01*
X263001716Y-45080794D01*
X263165688Y-45012874D01*
X263314988Y-44983177D01*
X263339758Y-44978250D01*
X263517242Y-44978250D01*
X263542012Y-44983177D01*
G37*
G36*
X278798012Y-44983177D02*
G01*
X278947312Y-45012874D01*
X279111284Y-45080794D01*
X279258854Y-45179397D01*
X279384353Y-45304896D01*
X279482956Y-45452466D01*
X279550876Y-45616438D01*
X279585500Y-45790509D01*
X279585500Y-45967991D01*
X279550876Y-46142062D01*
X279482956Y-46306034D01*
X279384353Y-46453604D01*
X279258854Y-46579103D01*
X279111284Y-46677706D01*
X278947312Y-46745626D01*
X278798012Y-46775323D01*
X278773242Y-46780250D01*
X278595758Y-46780250D01*
X278570988Y-46775323D01*
X278421688Y-46745626D01*
X278257716Y-46677706D01*
X278110146Y-46579103D01*
X277984647Y-46453604D01*
X277886044Y-46306034D01*
X277818124Y-46142062D01*
X277783500Y-45967991D01*
X277783500Y-45790509D01*
X277818124Y-45616438D01*
X277886044Y-45452466D01*
X277984647Y-45304896D01*
X278110146Y-45179397D01*
X278257716Y-45080794D01*
X278421688Y-45012874D01*
X278570988Y-44983177D01*
X278595758Y-44978250D01*
X278773242Y-44978250D01*
X278798012Y-44983177D01*
G37*
G36*
X263542012Y-42443177D02*
G01*
X263691312Y-42472874D01*
X263855284Y-42540794D01*
X264002854Y-42639397D01*
X264128353Y-42764896D01*
X264226956Y-42912466D01*
X264294876Y-43076438D01*
X264329500Y-43250509D01*
X264329500Y-43427991D01*
X264294876Y-43602062D01*
X264226956Y-43766034D01*
X264128353Y-43913604D01*
X264002854Y-44039103D01*
X263855284Y-44137706D01*
X263691312Y-44205626D01*
X263542012Y-44235323D01*
X263517242Y-44240250D01*
X263339758Y-44240250D01*
X263314988Y-44235323D01*
X263165688Y-44205626D01*
X263001716Y-44137706D01*
X262854146Y-44039103D01*
X262728647Y-43913604D01*
X262630044Y-43766034D01*
X262562124Y-43602062D01*
X262527500Y-43427991D01*
X262527500Y-43250509D01*
X262562124Y-43076438D01*
X262630044Y-42912466D01*
X262728647Y-42764896D01*
X262854146Y-42639397D01*
X263001716Y-42540794D01*
X263165688Y-42472874D01*
X263314988Y-42443177D01*
X263339758Y-42438250D01*
X263517242Y-42438250D01*
X263542012Y-42443177D01*
G37*
G36*
X278798012Y-42443177D02*
G01*
X278947312Y-42472874D01*
X279111284Y-42540794D01*
X279258854Y-42639397D01*
X279384353Y-42764896D01*
X279482956Y-42912466D01*
X279550876Y-43076438D01*
X279585500Y-43250509D01*
X279585500Y-43427991D01*
X279550876Y-43602062D01*
X279482956Y-43766034D01*
X279384353Y-43913604D01*
X279258854Y-44039103D01*
X279111284Y-44137706D01*
X278947312Y-44205626D01*
X278798012Y-44235323D01*
X278773242Y-44240250D01*
X278595758Y-44240250D01*
X278570988Y-44235323D01*
X278421688Y-44205626D01*
X278257716Y-44137706D01*
X278110146Y-44039103D01*
X277984647Y-43913604D01*
X277886044Y-43766034D01*
X277818124Y-43602062D01*
X277783500Y-43427991D01*
X277783500Y-43250509D01*
X277818124Y-43076438D01*
X277886044Y-42912466D01*
X277984647Y-42764896D01*
X278110146Y-42639397D01*
X278257716Y-42540794D01*
X278421688Y-42472874D01*
X278570988Y-42443177D01*
X278595758Y-42438250D01*
X278773242Y-42438250D01*
X278798012Y-42443177D01*
G37*
G36*
X278798012Y-39903177D02*
G01*
X278947312Y-39932874D01*
X279111284Y-40000794D01*
X279258854Y-40099397D01*
X279384353Y-40224896D01*
X279482956Y-40372466D01*
X279550876Y-40536438D01*
X279585500Y-40710509D01*
X279585500Y-40887991D01*
X279550876Y-41062062D01*
X279482956Y-41226034D01*
X279384353Y-41373604D01*
X279258854Y-41499103D01*
X279111284Y-41597706D01*
X278947312Y-41665626D01*
X278798012Y-41695323D01*
X278773242Y-41700250D01*
X278595758Y-41700250D01*
X278570988Y-41695323D01*
X278421688Y-41665626D01*
X278257716Y-41597706D01*
X278110146Y-41499103D01*
X277984647Y-41373604D01*
X277886044Y-41226034D01*
X277818124Y-41062062D01*
X277783500Y-40887991D01*
X277783500Y-40710509D01*
X277818124Y-40536438D01*
X277886044Y-40372466D01*
X277984647Y-40224896D01*
X278110146Y-40099397D01*
X278257716Y-40000794D01*
X278421688Y-39932874D01*
X278570988Y-39903177D01*
X278595758Y-39898250D01*
X278773242Y-39898250D01*
X278798012Y-39903177D01*
G37*
G36*
X263542012Y-39903177D02*
G01*
X263691312Y-39932874D01*
X263855284Y-40000794D01*
X264002854Y-40099397D01*
X264128353Y-40224896D01*
X264226956Y-40372466D01*
X264294876Y-40536438D01*
X264329500Y-40710509D01*
X264329500Y-40887991D01*
X264294876Y-41062062D01*
X264226956Y-41226034D01*
X264128353Y-41373604D01*
X264002854Y-41499103D01*
X263855284Y-41597706D01*
X263691312Y-41665626D01*
X263542012Y-41695323D01*
X263517242Y-41700250D01*
X263339758Y-41700250D01*
X263314988Y-41695323D01*
X263165688Y-41665626D01*
X263001716Y-41597706D01*
X262854146Y-41499103D01*
X262728647Y-41373604D01*
X262630044Y-41226034D01*
X262562124Y-41062062D01*
X262527500Y-40887991D01*
X262527500Y-40710509D01*
X262562124Y-40536438D01*
X262630044Y-40372466D01*
X262728647Y-40224896D01*
X262854146Y-40099397D01*
X263001716Y-40000794D01*
X263165688Y-39932874D01*
X263314988Y-39903177D01*
X263339758Y-39898250D01*
X263517242Y-39898250D01*
X263542012Y-39903177D01*
G37*
G36*
X176320211Y-39153881D02*
G01*
X176338594Y-39161496D01*
X176355129Y-39172544D01*
X176355131Y-39172546D01*
X176355134Y-39172548D01*
X176369202Y-39186616D01*
X176369204Y-39186619D01*
X176369206Y-39186621D01*
X176380254Y-39203156D01*
X176387869Y-39221539D01*
X176391750Y-39241051D01*
X176391750Y-39260949D01*
X176387869Y-39280461D01*
X176380254Y-39298844D01*
X176369206Y-39315379D01*
X176369204Y-39315381D01*
X176369202Y-39315384D01*
X176355134Y-39329452D01*
X176355131Y-39329454D01*
X176355129Y-39329456D01*
X176338594Y-39340504D01*
X176320211Y-39348119D01*
X176300699Y-39352000D01*
X176280801Y-39352000D01*
X176261289Y-39348119D01*
X176242906Y-39340504D01*
X176226371Y-39329456D01*
X176226369Y-39329454D01*
X176226366Y-39329452D01*
X176212298Y-39315384D01*
X176212296Y-39315381D01*
X176212294Y-39315379D01*
X176201246Y-39298844D01*
X176193631Y-39280461D01*
X176189750Y-39260949D01*
X176189750Y-39241051D01*
X176193631Y-39221539D01*
X176201246Y-39203156D01*
X176212294Y-39186621D01*
X176212296Y-39186619D01*
X176212298Y-39186616D01*
X176226366Y-39172548D01*
X176226369Y-39172546D01*
X176226371Y-39172544D01*
X176242906Y-39161496D01*
X176261289Y-39153881D01*
X176280801Y-39150000D01*
X176300699Y-39150000D01*
X176320211Y-39153881D01*
G37*
G36*
X100120211Y-39153881D02*
G01*
X100138594Y-39161496D01*
X100155129Y-39172544D01*
X100155131Y-39172546D01*
X100155134Y-39172548D01*
X100169202Y-39186616D01*
X100169204Y-39186619D01*
X100169206Y-39186621D01*
X100180254Y-39203156D01*
X100187869Y-39221539D01*
X100191750Y-39241051D01*
X100191750Y-39260949D01*
X100187869Y-39280461D01*
X100180254Y-39298844D01*
X100169206Y-39315379D01*
X100169204Y-39315381D01*
X100169202Y-39315384D01*
X100155134Y-39329452D01*
X100155131Y-39329454D01*
X100155129Y-39329456D01*
X100138594Y-39340504D01*
X100120211Y-39348119D01*
X100100699Y-39352000D01*
X100080801Y-39352000D01*
X100061289Y-39348119D01*
X100042906Y-39340504D01*
X100026371Y-39329456D01*
X100026369Y-39329454D01*
X100026366Y-39329452D01*
X100012298Y-39315384D01*
X100012296Y-39315381D01*
X100012294Y-39315379D01*
X100001246Y-39298844D01*
X99993631Y-39280461D01*
X99989750Y-39260949D01*
X99989750Y-39241051D01*
X99993631Y-39221539D01*
X100001246Y-39203156D01*
X100012294Y-39186621D01*
X100012296Y-39186619D01*
X100012298Y-39186616D01*
X100026366Y-39172548D01*
X100026369Y-39172546D01*
X100026371Y-39172544D01*
X100042906Y-39161496D01*
X100061289Y-39153881D01*
X100080801Y-39150000D01*
X100100699Y-39150000D01*
X100120211Y-39153881D01*
G37*
G36*
X81070211Y-39153881D02*
G01*
X81088594Y-39161496D01*
X81105129Y-39172544D01*
X81105131Y-39172546D01*
X81105134Y-39172548D01*
X81119202Y-39186616D01*
X81119204Y-39186619D01*
X81119206Y-39186621D01*
X81130254Y-39203156D01*
X81137869Y-39221539D01*
X81141750Y-39241051D01*
X81141750Y-39260949D01*
X81137869Y-39280461D01*
X81130254Y-39298844D01*
X81119206Y-39315379D01*
X81119204Y-39315381D01*
X81119202Y-39315384D01*
X81105134Y-39329452D01*
X81105131Y-39329454D01*
X81105129Y-39329456D01*
X81088594Y-39340504D01*
X81070211Y-39348119D01*
X81050699Y-39352000D01*
X81030801Y-39352000D01*
X81011289Y-39348119D01*
X80992906Y-39340504D01*
X80976371Y-39329456D01*
X80976369Y-39329454D01*
X80976366Y-39329452D01*
X80962298Y-39315384D01*
X80962296Y-39315381D01*
X80962294Y-39315379D01*
X80951246Y-39298844D01*
X80943631Y-39280461D01*
X80939750Y-39260949D01*
X80939750Y-39241051D01*
X80943631Y-39221539D01*
X80951246Y-39203156D01*
X80962294Y-39186621D01*
X80962296Y-39186619D01*
X80962298Y-39186616D01*
X80976366Y-39172548D01*
X80976369Y-39172546D01*
X80976371Y-39172544D01*
X80992906Y-39161496D01*
X81011289Y-39153881D01*
X81030801Y-39150000D01*
X81050699Y-39150000D01*
X81070211Y-39153881D01*
G37*
G36*
X138220211Y-39153881D02*
G01*
X138238594Y-39161496D01*
X138255129Y-39172544D01*
X138255131Y-39172546D01*
X138255134Y-39172548D01*
X138269202Y-39186616D01*
X138269204Y-39186619D01*
X138269206Y-39186621D01*
X138280254Y-39203156D01*
X138287869Y-39221539D01*
X138291750Y-39241051D01*
X138291750Y-39260949D01*
X138287869Y-39280461D01*
X138280254Y-39298844D01*
X138269206Y-39315379D01*
X138269204Y-39315381D01*
X138269202Y-39315384D01*
X138255134Y-39329452D01*
X138255131Y-39329454D01*
X138255129Y-39329456D01*
X138238594Y-39340504D01*
X138220211Y-39348119D01*
X138200699Y-39352000D01*
X138180801Y-39352000D01*
X138161289Y-39348119D01*
X138142906Y-39340504D01*
X138126371Y-39329456D01*
X138126369Y-39329454D01*
X138126366Y-39329452D01*
X138112298Y-39315384D01*
X138112296Y-39315381D01*
X138112294Y-39315379D01*
X138101246Y-39298844D01*
X138093631Y-39280461D01*
X138089750Y-39260949D01*
X138089750Y-39241051D01*
X138093631Y-39221539D01*
X138101246Y-39203156D01*
X138112294Y-39186621D01*
X138112296Y-39186619D01*
X138112298Y-39186616D01*
X138126366Y-39172548D01*
X138126369Y-39172546D01*
X138126371Y-39172544D01*
X138142906Y-39161496D01*
X138161289Y-39153881D01*
X138180801Y-39150000D01*
X138200699Y-39150000D01*
X138220211Y-39153881D01*
G37*
G36*
X157270211Y-39153881D02*
G01*
X157288594Y-39161496D01*
X157305129Y-39172544D01*
X157305131Y-39172546D01*
X157305134Y-39172548D01*
X157319202Y-39186616D01*
X157319204Y-39186619D01*
X157319206Y-39186621D01*
X157330254Y-39203156D01*
X157337869Y-39221539D01*
X157341750Y-39241051D01*
X157341750Y-39260949D01*
X157337869Y-39280461D01*
X157330254Y-39298844D01*
X157319206Y-39315379D01*
X157319204Y-39315381D01*
X157319202Y-39315384D01*
X157305134Y-39329452D01*
X157305131Y-39329454D01*
X157305129Y-39329456D01*
X157288594Y-39340504D01*
X157270211Y-39348119D01*
X157250699Y-39352000D01*
X157230801Y-39352000D01*
X157211289Y-39348119D01*
X157192906Y-39340504D01*
X157176371Y-39329456D01*
X157176369Y-39329454D01*
X157176366Y-39329452D01*
X157162298Y-39315384D01*
X157162296Y-39315381D01*
X157162294Y-39315379D01*
X157151246Y-39298844D01*
X157143631Y-39280461D01*
X157139750Y-39260949D01*
X157139750Y-39241051D01*
X157143631Y-39221539D01*
X157151246Y-39203156D01*
X157162294Y-39186621D01*
X157162296Y-39186619D01*
X157162298Y-39186616D01*
X157176366Y-39172548D01*
X157176369Y-39172546D01*
X157176371Y-39172544D01*
X157192906Y-39161496D01*
X157211289Y-39153881D01*
X157230801Y-39150000D01*
X157250699Y-39150000D01*
X157270211Y-39153881D01*
G37*
G36*
X119170211Y-39153881D02*
G01*
X119188594Y-39161496D01*
X119205129Y-39172544D01*
X119205131Y-39172546D01*
X119205134Y-39172548D01*
X119219202Y-39186616D01*
X119219204Y-39186619D01*
X119219206Y-39186621D01*
X119230254Y-39203156D01*
X119237869Y-39221539D01*
X119241750Y-39241051D01*
X119241750Y-39260949D01*
X119237869Y-39280461D01*
X119230254Y-39298844D01*
X119219206Y-39315379D01*
X119219204Y-39315381D01*
X119219202Y-39315384D01*
X119205134Y-39329452D01*
X119205131Y-39329454D01*
X119205129Y-39329456D01*
X119188594Y-39340504D01*
X119170211Y-39348119D01*
X119150699Y-39352000D01*
X119130801Y-39352000D01*
X119111289Y-39348119D01*
X119092906Y-39340504D01*
X119076371Y-39329456D01*
X119076369Y-39329454D01*
X119076366Y-39329452D01*
X119062298Y-39315384D01*
X119062296Y-39315381D01*
X119062294Y-39315379D01*
X119051246Y-39298844D01*
X119043631Y-39280461D01*
X119039750Y-39260949D01*
X119039750Y-39241051D01*
X119043631Y-39221539D01*
X119051246Y-39203156D01*
X119062294Y-39186621D01*
X119062296Y-39186619D01*
X119062298Y-39186616D01*
X119076366Y-39172548D01*
X119076369Y-39172546D01*
X119076371Y-39172544D01*
X119092906Y-39161496D01*
X119111289Y-39153881D01*
X119130801Y-39150000D01*
X119150699Y-39150000D01*
X119170211Y-39153881D01*
G37*
G36*
X240613961Y-39153881D02*
G01*
X240632344Y-39161496D01*
X240648879Y-39172544D01*
X240648881Y-39172546D01*
X240648884Y-39172548D01*
X240662952Y-39186616D01*
X240662954Y-39186619D01*
X240662956Y-39186621D01*
X240674004Y-39203156D01*
X240681619Y-39221539D01*
X240685500Y-39241051D01*
X240685500Y-39260949D01*
X240681619Y-39280461D01*
X240674004Y-39298844D01*
X240662956Y-39315379D01*
X240662954Y-39315381D01*
X240662952Y-39315384D01*
X240648884Y-39329452D01*
X240648881Y-39329454D01*
X240648879Y-39329456D01*
X240632344Y-39340504D01*
X240613961Y-39348119D01*
X240594449Y-39352000D01*
X240574551Y-39352000D01*
X240555039Y-39348119D01*
X240536656Y-39340504D01*
X240520121Y-39329456D01*
X240520119Y-39329454D01*
X240520116Y-39329452D01*
X240506048Y-39315384D01*
X240506046Y-39315381D01*
X240506044Y-39315379D01*
X240494996Y-39298844D01*
X240487381Y-39280461D01*
X240483500Y-39260949D01*
X240483500Y-39241051D01*
X240487381Y-39221539D01*
X240494996Y-39203156D01*
X240506044Y-39186621D01*
X240506046Y-39186619D01*
X240506048Y-39186616D01*
X240520116Y-39172548D01*
X240520119Y-39172546D01*
X240520121Y-39172544D01*
X240536656Y-39161496D01*
X240555039Y-39153881D01*
X240574551Y-39150000D01*
X240594449Y-39150000D01*
X240613961Y-39153881D01*
G37*
G36*
X195370211Y-39153881D02*
G01*
X195388594Y-39161496D01*
X195405129Y-39172544D01*
X195405131Y-39172546D01*
X195405134Y-39172548D01*
X195419202Y-39186616D01*
X195419204Y-39186619D01*
X195419206Y-39186621D01*
X195430254Y-39203156D01*
X195437869Y-39221539D01*
X195441750Y-39241051D01*
X195441750Y-39260949D01*
X195437869Y-39280461D01*
X195430254Y-39298844D01*
X195419206Y-39315379D01*
X195419204Y-39315381D01*
X195419202Y-39315384D01*
X195405134Y-39329452D01*
X195405131Y-39329454D01*
X195405129Y-39329456D01*
X195388594Y-39340504D01*
X195370211Y-39348119D01*
X195350699Y-39352000D01*
X195330801Y-39352000D01*
X195311289Y-39348119D01*
X195292906Y-39340504D01*
X195276371Y-39329456D01*
X195276369Y-39329454D01*
X195276366Y-39329452D01*
X195262298Y-39315384D01*
X195262296Y-39315381D01*
X195262294Y-39315379D01*
X195251246Y-39298844D01*
X195243631Y-39280461D01*
X195239750Y-39260949D01*
X195239750Y-39241051D01*
X195243631Y-39221539D01*
X195251246Y-39203156D01*
X195262294Y-39186621D01*
X195262296Y-39186619D01*
X195262298Y-39186616D01*
X195276366Y-39172548D01*
X195276369Y-39172546D01*
X195276371Y-39172544D01*
X195292906Y-39161496D01*
X195311289Y-39153881D01*
X195330801Y-39150000D01*
X195350699Y-39150000D01*
X195370211Y-39153881D01*
G37*
G36*
X214420211Y-39153881D02*
G01*
X214438594Y-39161496D01*
X214455129Y-39172544D01*
X214455131Y-39172546D01*
X214455134Y-39172548D01*
X214469202Y-39186616D01*
X214469204Y-39186619D01*
X214469206Y-39186621D01*
X214480254Y-39203156D01*
X214487869Y-39221539D01*
X214491750Y-39241051D01*
X214491750Y-39260949D01*
X214487869Y-39280461D01*
X214480254Y-39298844D01*
X214469206Y-39315379D01*
X214469204Y-39315381D01*
X214469202Y-39315384D01*
X214455134Y-39329452D01*
X214455131Y-39329454D01*
X214455129Y-39329456D01*
X214438594Y-39340504D01*
X214420211Y-39348119D01*
X214400699Y-39352000D01*
X214380801Y-39352000D01*
X214361289Y-39348119D01*
X214342906Y-39340504D01*
X214326371Y-39329456D01*
X214326369Y-39329454D01*
X214326366Y-39329452D01*
X214312298Y-39315384D01*
X214312296Y-39315381D01*
X214312294Y-39315379D01*
X214301246Y-39298844D01*
X214293631Y-39280461D01*
X214289750Y-39260949D01*
X214289750Y-39241051D01*
X214293631Y-39221539D01*
X214301246Y-39203156D01*
X214312294Y-39186621D01*
X214312296Y-39186619D01*
X214312298Y-39186616D01*
X214326366Y-39172548D01*
X214326369Y-39172546D01*
X214326371Y-39172544D01*
X214342906Y-39161496D01*
X214361289Y-39153881D01*
X214380801Y-39150000D01*
X214400699Y-39150000D01*
X214420211Y-39153881D01*
G37*
G36*
X263542012Y-37363177D02*
G01*
X263691312Y-37392874D01*
X263855284Y-37460794D01*
X264002854Y-37559397D01*
X264128353Y-37684896D01*
X264226956Y-37832466D01*
X264294876Y-37996438D01*
X264329500Y-38170509D01*
X264329500Y-38347991D01*
X264294876Y-38522062D01*
X264226956Y-38686034D01*
X264128353Y-38833604D01*
X264002854Y-38959103D01*
X263855284Y-39057706D01*
X263691312Y-39125626D01*
X263549261Y-39153881D01*
X263517242Y-39160250D01*
X263339758Y-39160250D01*
X263307739Y-39153881D01*
X263165688Y-39125626D01*
X263001716Y-39057706D01*
X262854146Y-38959103D01*
X262728647Y-38833604D01*
X262630044Y-38686034D01*
X262562124Y-38522062D01*
X262527500Y-38347991D01*
X262527500Y-38170509D01*
X262562124Y-37996438D01*
X262630044Y-37832466D01*
X262728647Y-37684896D01*
X262854146Y-37559397D01*
X263001716Y-37460794D01*
X263165688Y-37392874D01*
X263314988Y-37363177D01*
X263339758Y-37358250D01*
X263517242Y-37358250D01*
X263542012Y-37363177D01*
G37*
G36*
X278798012Y-37363177D02*
G01*
X278947312Y-37392874D01*
X279111284Y-37460794D01*
X279258854Y-37559397D01*
X279384353Y-37684896D01*
X279482956Y-37832466D01*
X279550876Y-37996438D01*
X279585500Y-38170509D01*
X279585500Y-38347991D01*
X279550876Y-38522062D01*
X279482956Y-38686034D01*
X279384353Y-38833604D01*
X279258854Y-38959103D01*
X279111284Y-39057706D01*
X278947312Y-39125626D01*
X278805261Y-39153881D01*
X278773242Y-39160250D01*
X278595758Y-39160250D01*
X278563739Y-39153881D01*
X278421688Y-39125626D01*
X278257716Y-39057706D01*
X278110146Y-38959103D01*
X277984647Y-38833604D01*
X277886044Y-38686034D01*
X277818124Y-38522062D01*
X277783500Y-38347991D01*
X277783500Y-38170509D01*
X277818124Y-37996438D01*
X277886044Y-37832466D01*
X277984647Y-37684896D01*
X278110146Y-37559397D01*
X278257716Y-37460794D01*
X278421688Y-37392874D01*
X278570988Y-37363177D01*
X278595758Y-37358250D01*
X278773242Y-37358250D01*
X278798012Y-37363177D01*
G37*
G36*
X278798012Y-34823177D02*
G01*
X278947312Y-34852874D01*
X279111284Y-34920794D01*
X279258854Y-35019397D01*
X279384353Y-35144896D01*
X279482956Y-35292466D01*
X279550876Y-35456438D01*
X279585500Y-35630509D01*
X279585500Y-35807991D01*
X279550876Y-35982062D01*
X279482956Y-36146034D01*
X279384353Y-36293604D01*
X279258854Y-36419103D01*
X279111284Y-36517706D01*
X278947312Y-36585626D01*
X278798012Y-36615323D01*
X278773242Y-36620250D01*
X278595758Y-36620250D01*
X278570988Y-36615323D01*
X278421688Y-36585626D01*
X278257716Y-36517706D01*
X278110146Y-36419103D01*
X277984647Y-36293604D01*
X277886044Y-36146034D01*
X277818124Y-35982062D01*
X277783500Y-35807991D01*
X277783500Y-35630509D01*
X277818124Y-35456438D01*
X277886044Y-35292466D01*
X277984647Y-35144896D01*
X278110146Y-35019397D01*
X278257716Y-34920794D01*
X278421688Y-34852874D01*
X278570988Y-34823177D01*
X278595758Y-34818250D01*
X278773242Y-34818250D01*
X278798012Y-34823177D01*
G37*
G36*
X263542012Y-34823177D02*
G01*
X263691312Y-34852874D01*
X263855284Y-34920794D01*
X264002854Y-35019397D01*
X264128353Y-35144896D01*
X264226956Y-35292466D01*
X264294876Y-35456438D01*
X264329500Y-35630509D01*
X264329500Y-35807991D01*
X264294876Y-35982062D01*
X264226956Y-36146034D01*
X264128353Y-36293604D01*
X264002854Y-36419103D01*
X263855284Y-36517706D01*
X263691312Y-36585626D01*
X263542012Y-36615323D01*
X263517242Y-36620250D01*
X263339758Y-36620250D01*
X263314988Y-36615323D01*
X263165688Y-36585626D01*
X263001716Y-36517706D01*
X262854146Y-36419103D01*
X262728647Y-36293604D01*
X262630044Y-36146034D01*
X262562124Y-35982062D01*
X262527500Y-35807991D01*
X262527500Y-35630509D01*
X262562124Y-35456438D01*
X262630044Y-35292466D01*
X262728647Y-35144896D01*
X262854146Y-35019397D01*
X263001716Y-34920794D01*
X263165688Y-34852874D01*
X263314988Y-34823177D01*
X263339758Y-34818250D01*
X263517242Y-34818250D01*
X263542012Y-34823177D01*
G37*
G36*
X263542012Y-32283177D02*
G01*
X263691312Y-32312874D01*
X263855284Y-32380794D01*
X264002854Y-32479397D01*
X264128353Y-32604896D01*
X264226956Y-32752466D01*
X264294876Y-32916438D01*
X264329500Y-33090509D01*
X264329500Y-33267991D01*
X264294876Y-33442062D01*
X264226956Y-33606034D01*
X264128353Y-33753604D01*
X264002854Y-33879103D01*
X263855284Y-33977706D01*
X263691312Y-34045626D01*
X263542012Y-34075323D01*
X263517242Y-34080250D01*
X263339758Y-34080250D01*
X263314988Y-34075323D01*
X263165688Y-34045626D01*
X263001716Y-33977706D01*
X262854146Y-33879103D01*
X262728647Y-33753604D01*
X262630044Y-33606034D01*
X262562124Y-33442062D01*
X262527500Y-33267991D01*
X262527500Y-33090509D01*
X262562124Y-32916438D01*
X262630044Y-32752466D01*
X262728647Y-32604896D01*
X262854146Y-32479397D01*
X263001716Y-32380794D01*
X263165688Y-32312874D01*
X263314988Y-32283177D01*
X263339758Y-32278250D01*
X263517242Y-32278250D01*
X263542012Y-32283177D01*
G37*
G36*
X278798012Y-32283177D02*
G01*
X278947312Y-32312874D01*
X279111284Y-32380794D01*
X279258854Y-32479397D01*
X279384353Y-32604896D01*
X279482956Y-32752466D01*
X279550876Y-32916438D01*
X279585500Y-33090509D01*
X279585500Y-33267991D01*
X279550876Y-33442062D01*
X279482956Y-33606034D01*
X279384353Y-33753604D01*
X279258854Y-33879103D01*
X279111284Y-33977706D01*
X278947312Y-34045626D01*
X278798012Y-34075323D01*
X278773242Y-34080250D01*
X278595758Y-34080250D01*
X278570988Y-34075323D01*
X278421688Y-34045626D01*
X278257716Y-33977706D01*
X278110146Y-33879103D01*
X277984647Y-33753604D01*
X277886044Y-33606034D01*
X277818124Y-33442062D01*
X277783500Y-33267991D01*
X277783500Y-33090509D01*
X277818124Y-32916438D01*
X277886044Y-32752466D01*
X277984647Y-32604896D01*
X278110146Y-32479397D01*
X278257716Y-32380794D01*
X278421688Y-32312874D01*
X278570988Y-32283177D01*
X278595758Y-32278250D01*
X278773242Y-32278250D01*
X278798012Y-32283177D01*
G37*
M02*
