G04 #@! TF.GenerationSoftware,KiCad,Pcbnew,(5.1.5)-3*
G04 #@! TF.CreationDate,2021-12-21T21:48:17-06:00*
G04 #@! TF.ProjectId,cuarenta,63756172-656e-4746-912e-6b696361645f,rev?*
G04 #@! TF.SameCoordinates,Original*
G04 #@! TF.FileFunction,Profile,NP*
%FSLAX46Y46*%
G04 Gerber Fmt 4.6, Leading zero omitted, Abs format (unit mm)*
G04 Created by KiCad (PCBNEW (5.1.5)-3) date 2021-12-21 21:48:17*
%MOMM*%
%LPD*%
G04 APERTURE LIST*
%ADD10C,0.050000*%
%ADD11C,0.120000*%
G04 APERTURE END LIST*
D10*
X54990990Y-46247310D02*
X68990990Y-46247310D01*
X68990990Y-32247310D02*
X54990990Y-46247310D01*
X54990990Y-32247310D02*
X54990990Y-46247310D01*
X68990990Y-32247310D02*
X54990990Y-32247310D01*
X68990990Y-46247310D02*
X68990990Y-32247310D01*
X54990990Y-32247310D02*
X68990990Y-46247310D01*
X35940990Y-46247310D02*
X49940990Y-46247310D01*
X49940990Y-32247310D02*
X35940990Y-46247310D01*
X35940990Y-32247310D02*
X35940990Y-46247310D01*
X49940990Y-32247310D02*
X35940990Y-32247310D01*
X49940990Y-46247310D02*
X49940990Y-32247310D01*
X35940990Y-32247310D02*
X49940990Y-46247310D01*
X16890990Y-32247310D02*
X30890990Y-46247310D01*
X30890990Y-32247310D02*
X16890990Y-46247310D01*
X16890990Y-46247310D02*
X30890990Y-46247310D01*
X16890990Y-32247310D02*
X16890990Y-46247310D01*
X30890990Y-32247310D02*
X16890990Y-32247310D01*
X30890990Y-46247310D02*
X30890990Y-32247310D01*
X141778500Y-23280750D02*
X49703500Y-23280750D01*
X274334750Y-23280750D02*
X241791000Y-23280750D01*
X13191000Y-32012000D02*
G75*
G02X21922250Y-23280750I8731250J0D01*
G01*
X241791000Y-23280750D02*
X197341000Y-23280750D01*
X197341000Y-23280750D02*
X141778500Y-23280750D01*
X13191000Y-99480750D02*
X13191000Y-32012000D01*
X283066000Y-99480750D02*
X283066000Y-32012000D01*
X274334750Y-23280750D02*
G75*
G02X283066000Y-32012000I0J-8731250D01*
G01*
X283066000Y-99480750D02*
G75*
G02X274334750Y-108212000I-8731250J0D01*
G01*
X21922250Y-108212000D02*
G75*
G02X13191000Y-99480750I0J8731250D01*
G01*
X21922250Y-108212000D02*
X274334750Y-108212000D01*
X49703500Y-23280750D02*
X21922250Y-23280750D01*
D11*
X19272000Y-103401000D02*
X19272000Y-89401000D01*
X19272000Y-89401000D02*
X33272000Y-89401000D01*
X33272000Y-89401000D02*
X33272000Y-103401000D01*
X33272000Y-103401000D02*
X19272000Y-103401000D01*
X45465750Y-103401000D02*
X45465750Y-89401000D01*
X45465750Y-89401000D02*
X59465750Y-89401000D01*
X59465750Y-89401000D02*
X59465750Y-103401000D01*
X59465750Y-103401000D02*
X45465750Y-103401000D01*
X71659500Y-103401000D02*
X71659500Y-89401000D01*
X71659500Y-89401000D02*
X85659500Y-89401000D01*
X85659500Y-89401000D02*
X85659500Y-103401000D01*
X85659500Y-103401000D02*
X71659500Y-103401000D01*
X104997000Y-103401000D02*
X104997000Y-89401000D01*
X104997000Y-89401000D02*
X118997000Y-89401000D01*
X118997000Y-89401000D02*
X118997000Y-103401000D01*
X118997000Y-103401000D02*
X104997000Y-103401000D01*
X145478250Y-103401000D02*
X145478250Y-89401000D01*
X145478250Y-89401000D02*
X159478250Y-89401000D01*
X159478250Y-89401000D02*
X159478250Y-103401000D01*
X159478250Y-103401000D02*
X145478250Y-103401000D01*
X178815750Y-103401000D02*
X178815750Y-89401000D01*
X178815750Y-89401000D02*
X192815750Y-89401000D01*
X192815750Y-89401000D02*
X192815750Y-103401000D01*
X192815750Y-103401000D02*
X178815750Y-103401000D01*
X202628250Y-103401000D02*
X202628250Y-89401000D01*
X202628250Y-89401000D02*
X216628250Y-89401000D01*
X216628250Y-89401000D02*
X216628250Y-103401000D01*
X216628250Y-103401000D02*
X202628250Y-103401000D01*
X221678250Y-103401000D02*
X221678250Y-89401000D01*
X221678250Y-89401000D02*
X235678250Y-89401000D01*
X235678250Y-89401000D02*
X235678250Y-103401000D01*
X235678250Y-103401000D02*
X221678250Y-103401000D01*
X240728250Y-103401000D02*
X240728250Y-89401000D01*
X240728250Y-89401000D02*
X254728250Y-89401000D01*
X254728250Y-89401000D02*
X254728250Y-103401000D01*
X254728250Y-103401000D02*
X240728250Y-103401000D01*
X240728250Y-84351000D02*
X240728250Y-70351000D01*
X240728250Y-70351000D02*
X254728250Y-70351000D01*
X254728250Y-70351000D02*
X254728250Y-84351000D01*
X254728250Y-84351000D02*
X240728250Y-84351000D01*
X221678250Y-84351000D02*
X221678250Y-70351000D01*
X221678250Y-70351000D02*
X235678250Y-70351000D01*
X235678250Y-70351000D02*
X235678250Y-84351000D01*
X235678250Y-84351000D02*
X221678250Y-84351000D01*
X202628250Y-84351000D02*
X202628250Y-70351000D01*
X202628250Y-70351000D02*
X216628250Y-70351000D01*
X216628250Y-70351000D02*
X216628250Y-84351000D01*
X216628250Y-84351000D02*
X202628250Y-84351000D01*
X183578250Y-84351000D02*
X183578250Y-70351000D01*
X183578250Y-70351000D02*
X197578250Y-70351000D01*
X197578250Y-70351000D02*
X197578250Y-84351000D01*
X197578250Y-84351000D02*
X183578250Y-84351000D01*
X164528250Y-84351000D02*
X164528250Y-70351000D01*
X164528250Y-70351000D02*
X178528250Y-70351000D01*
X178528250Y-70351000D02*
X178528250Y-84351000D01*
X178528250Y-84351000D02*
X164528250Y-84351000D01*
X145478250Y-84351000D02*
X145478250Y-70351000D01*
X145478250Y-70351000D02*
X159478250Y-70351000D01*
X159478250Y-70351000D02*
X159478250Y-84351000D01*
X159478250Y-84351000D02*
X145478250Y-84351000D01*
X126428250Y-84351000D02*
X126428250Y-70351000D01*
X126428250Y-70351000D02*
X140428250Y-70351000D01*
X140428250Y-70351000D02*
X140428250Y-84351000D01*
X140428250Y-84351000D02*
X126428250Y-84351000D01*
X107378250Y-84351000D02*
X107378250Y-70351000D01*
X107378250Y-70351000D02*
X121378250Y-70351000D01*
X121378250Y-70351000D02*
X121378250Y-84351000D01*
X121378250Y-84351000D02*
X107378250Y-84351000D01*
X88328250Y-84351000D02*
X88328250Y-70351000D01*
X88328250Y-70351000D02*
X102328250Y-70351000D01*
X102328250Y-70351000D02*
X102328250Y-84351000D01*
X102328250Y-84351000D02*
X88328250Y-84351000D01*
X69278250Y-84351000D02*
X69278250Y-70351000D01*
X69278250Y-70351000D02*
X83278250Y-70351000D01*
X83278250Y-70351000D02*
X83278250Y-84351000D01*
X83278250Y-84351000D02*
X69278250Y-84351000D01*
X50228250Y-84351000D02*
X50228250Y-70351000D01*
X50228250Y-70351000D02*
X64228250Y-70351000D01*
X64228250Y-70351000D02*
X64228250Y-84351000D01*
X64228250Y-84351000D02*
X50228250Y-84351000D01*
X24034500Y-84351000D02*
X24034500Y-70351000D01*
X24034500Y-70351000D02*
X38034500Y-70351000D01*
X38034500Y-70351000D02*
X38034500Y-84351000D01*
X38034500Y-84351000D02*
X24034500Y-84351000D01*
X19272000Y-65301000D02*
X19272000Y-51301000D01*
X19272000Y-51301000D02*
X33272000Y-51301000D01*
X33272000Y-51301000D02*
X33272000Y-65301000D01*
X33272000Y-65301000D02*
X19272000Y-65301000D01*
X40703250Y-65301000D02*
X40703250Y-51301000D01*
X40703250Y-51301000D02*
X54703250Y-51301000D01*
X54703250Y-51301000D02*
X54703250Y-65301000D01*
X54703250Y-65301000D02*
X40703250Y-65301000D01*
X59753250Y-65301000D02*
X59753250Y-51301000D01*
X59753250Y-51301000D02*
X73753250Y-51301000D01*
X73753250Y-51301000D02*
X73753250Y-65301000D01*
X73753250Y-65301000D02*
X59753250Y-65301000D01*
X78803250Y-65301000D02*
X78803250Y-51301000D01*
X78803250Y-51301000D02*
X92803250Y-51301000D01*
X92803250Y-51301000D02*
X92803250Y-65301000D01*
X92803250Y-65301000D02*
X78803250Y-65301000D01*
X97853250Y-65301000D02*
X97853250Y-51301000D01*
X97853250Y-51301000D02*
X111853250Y-51301000D01*
X111853250Y-51301000D02*
X111853250Y-65301000D01*
X111853250Y-65301000D02*
X97853250Y-65301000D01*
X116903250Y-65301000D02*
X116903250Y-51301000D01*
X116903250Y-51301000D02*
X130903250Y-51301000D01*
X130903250Y-51301000D02*
X130903250Y-65301000D01*
X130903250Y-65301000D02*
X116903250Y-65301000D01*
X135953250Y-65301000D02*
X135953250Y-51301000D01*
X135953250Y-51301000D02*
X149953250Y-51301000D01*
X149953250Y-51301000D02*
X149953250Y-65301000D01*
X149953250Y-65301000D02*
X135953250Y-65301000D01*
X155003250Y-65301000D02*
X155003250Y-51301000D01*
X155003250Y-51301000D02*
X169003250Y-51301000D01*
X169003250Y-51301000D02*
X169003250Y-65301000D01*
X169003250Y-65301000D02*
X155003250Y-65301000D01*
X174053250Y-65301000D02*
X174053250Y-51301000D01*
X174053250Y-51301000D02*
X188053250Y-51301000D01*
X188053250Y-51301000D02*
X188053250Y-65301000D01*
X188053250Y-65301000D02*
X174053250Y-65301000D01*
X193103250Y-65301000D02*
X193103250Y-51301000D01*
X193103250Y-51301000D02*
X207103250Y-51301000D01*
X207103250Y-51301000D02*
X207103250Y-65301000D01*
X207103250Y-65301000D02*
X193103250Y-65301000D01*
X212153250Y-65301000D02*
X212153250Y-51301000D01*
X212153250Y-51301000D02*
X226153250Y-51301000D01*
X226153250Y-51301000D02*
X226153250Y-65301000D01*
X226153250Y-65301000D02*
X212153250Y-65301000D01*
X235965750Y-65301000D02*
X235965750Y-51301000D01*
X235965750Y-51301000D02*
X249965750Y-51301000D01*
X249965750Y-51301000D02*
X249965750Y-65301000D01*
X249965750Y-65301000D02*
X235965750Y-65301000D01*
X233584500Y-46251000D02*
X233584500Y-32251000D01*
X233584500Y-32251000D02*
X247584500Y-32251000D01*
X247584500Y-32251000D02*
X247584500Y-46251000D01*
X247584500Y-46251000D02*
X233584500Y-46251000D01*
X207390750Y-46251000D02*
X207390750Y-32251000D01*
X207390750Y-32251000D02*
X221390750Y-32251000D01*
X221390750Y-32251000D02*
X221390750Y-46251000D01*
X221390750Y-46251000D02*
X207390750Y-46251000D01*
X188340750Y-46251000D02*
X188340750Y-32251000D01*
X188340750Y-32251000D02*
X202340750Y-32251000D01*
X202340750Y-32251000D02*
X202340750Y-46251000D01*
X202340750Y-46251000D02*
X188340750Y-46251000D01*
X169290750Y-46251000D02*
X169290750Y-32251000D01*
X169290750Y-32251000D02*
X183290750Y-32251000D01*
X183290750Y-32251000D02*
X183290750Y-46251000D01*
X183290750Y-46251000D02*
X169290750Y-46251000D01*
X74040750Y-46251000D02*
X74040750Y-32251000D01*
X74040750Y-32251000D02*
X88040750Y-32251000D01*
X88040750Y-32251000D02*
X88040750Y-46251000D01*
X88040750Y-46251000D02*
X74040750Y-46251000D01*
X93090750Y-46251000D02*
X93090750Y-32251000D01*
X93090750Y-32251000D02*
X107090750Y-32251000D01*
X107090750Y-32251000D02*
X107090750Y-46251000D01*
X107090750Y-46251000D02*
X93090750Y-46251000D01*
X112140750Y-46251000D02*
X112140750Y-32251000D01*
X112140750Y-32251000D02*
X126140750Y-32251000D01*
X126140750Y-32251000D02*
X126140750Y-46251000D01*
X126140750Y-46251000D02*
X112140750Y-46251000D01*
X131190750Y-46251000D02*
X131190750Y-32251000D01*
X131190750Y-32251000D02*
X145190750Y-32251000D01*
X145190750Y-32251000D02*
X145190750Y-46251000D01*
X145190750Y-46251000D02*
X131190750Y-46251000D01*
X150240750Y-46251000D02*
X150240750Y-32251000D01*
X150240750Y-32251000D02*
X164240750Y-32251000D01*
X164240750Y-32251000D02*
X164240750Y-46251000D01*
X164240750Y-46251000D02*
X150240750Y-46251000D01*
X131190750Y-46251000D02*
X131190750Y-32251000D01*
X131190750Y-32251000D02*
X145190750Y-32251000D01*
X145190750Y-32251000D02*
X145190750Y-46251000D01*
X145190750Y-46251000D02*
X131190750Y-46251000D01*
X112140750Y-46251000D02*
X112140750Y-32251000D01*
X112140750Y-32251000D02*
X126140750Y-32251000D01*
X126140750Y-32251000D02*
X126140750Y-46251000D01*
X126140750Y-46251000D02*
X112140750Y-46251000D01*
X93090750Y-46251000D02*
X93090750Y-32251000D01*
X93090750Y-32251000D02*
X107090750Y-32251000D01*
X107090750Y-32251000D02*
X107090750Y-46251000D01*
X107090750Y-46251000D02*
X93090750Y-46251000D01*
X74040750Y-46251000D02*
X74040750Y-32251000D01*
X74040750Y-32251000D02*
X88040750Y-32251000D01*
X88040750Y-32251000D02*
X88040750Y-46251000D01*
X88040750Y-46251000D02*
X74040750Y-46251000D01*
X54976000Y-46243000D02*
X54976000Y-32243000D01*
X54976000Y-32243000D02*
X68976000Y-32243000D01*
X68976000Y-32243000D02*
X68976000Y-46243000D01*
X68976000Y-46243000D02*
X54976000Y-46243000D01*
X35926000Y-46243000D02*
X35926000Y-32243000D01*
X35926000Y-32243000D02*
X49926000Y-32243000D01*
X49926000Y-32243000D02*
X49926000Y-46243000D01*
X49926000Y-46243000D02*
X35926000Y-46243000D01*
X16876000Y-46243000D02*
X16876000Y-32243000D01*
X16876000Y-32243000D02*
X30876000Y-32243000D01*
X30876000Y-32243000D02*
X30876000Y-46243000D01*
X30876000Y-46243000D02*
X16876000Y-46243000D01*
X42687000Y-145938000D02*
X28687000Y-145938000D01*
X42687000Y-131938000D02*
X42687000Y-145938000D01*
X28687000Y-131938000D02*
X42687000Y-131938000D01*
X28687000Y-145938000D02*
X28687000Y-131938000D01*
M02*
