M48
; DRILL file {KiCad (5.1.5)-3} date 21/12/2021 09:47:53 p. m.
; FORMAT={-:-/ absolute / metric / decimal}
; #@! TF.CreationDate,2021-12-21T21:47:53-06:00
; #@! TF.GenerationSoftware,Kicad,Pcbnew,(5.1.5)-3
; #@! TF.FileFunction,Plated,1,2,PTH
FMAT,2
METRIC
T1C0.800
T2C0.813
T3C1.000
%
G90
G05
T1
X267.572Y-103.545
X275.192Y-103.545
T2
X266.778Y-79.732
X269.318Y-79.732
X271.858Y-79.732
X274.398Y-79.732
T3
X264.041Y-91.52
X264.041Y-94.02
X264.041Y-96.52
X278.541Y-91.52
X278.541Y-96.52
X263.428Y-33.179
X263.428Y-35.719
X263.428Y-38.259
X263.428Y-40.799
X263.428Y-43.339
X263.428Y-45.879
X263.428Y-48.419
X263.428Y-50.959
X263.428Y-53.499
X263.428Y-56.039
X263.428Y-58.579
X263.428Y-61.119
X263.428Y-63.659
X263.428Y-66.199
X263.428Y-68.739
X263.428Y-71.279
X263.428Y-73.819
X278.685Y-33.179
X278.685Y-35.719
X278.685Y-38.259
X278.685Y-40.799
X278.685Y-43.339
X278.685Y-45.879
X278.685Y-48.419
X278.685Y-50.959
X278.685Y-53.499
X278.685Y-56.039
X278.685Y-58.579
X278.685Y-61.119
X278.685Y-63.659
X278.685Y-66.199
X278.685Y-68.739
X278.685Y-71.279
X278.685Y-73.819
T0
M30
