G04 #@! TF.GenerationSoftware,KiCad,Pcbnew,(5.1.5)-3*
G04 #@! TF.CreationDate,2021-12-21T21:48:17-06:00*
G04 #@! TF.ProjectId,cuarenta,63756172-656e-4746-912e-6b696361645f,rev?*
G04 #@! TF.SameCoordinates,Original*
G04 #@! TF.FileFunction,Copper,L2,Bot*
G04 #@! TF.FilePolarity,Positive*
%FSLAX46Y46*%
G04 Gerber Fmt 4.6, Leading zero omitted, Abs format (unit mm)*
G04 Created by KiCad (PCBNEW (5.1.5)-3) date 2021-12-21 21:48:17*
%MOMM*%
%LPD*%
G04 APERTURE LIST*
%ADD10C,2.000000*%
%ADD11R,3.200000X2.000000*%
%ADD12R,2.000000X2.000000*%
%ADD13C,1.700000*%
%ADD14R,1.700000X1.700000*%
%ADD15C,1.397000*%
%ADD16R,1.600000X1.600000*%
%ADD17O,1.600000X1.600000*%
G04 APERTURE END LIST*
D10*
X278540750Y-96519750D03*
X278540750Y-91519750D03*
D11*
X271540750Y-99619750D03*
X271540750Y-88419750D03*
D10*
X264040750Y-96519750D03*
X264040750Y-94019750D03*
D12*
X264040750Y-91519750D03*
D13*
X278684500Y-73819250D03*
X278684500Y-71279250D03*
X278684500Y-68739250D03*
X278684500Y-66199250D03*
X278684500Y-63659250D03*
X278684500Y-61119250D03*
X278684500Y-58579250D03*
X278684500Y-56039250D03*
X278684500Y-53499250D03*
X278684500Y-50959250D03*
X278684500Y-48419250D03*
X278684500Y-45879250D03*
X278684500Y-43339250D03*
X278684500Y-40799250D03*
X278684500Y-38259250D03*
X278684500Y-35719250D03*
X278684500Y-33179250D03*
D14*
X263428500Y-73819250D03*
D13*
X263428500Y-71279250D03*
X263428500Y-68739250D03*
X263428500Y-66199250D03*
X263428500Y-63659250D03*
X263428500Y-61119250D03*
X263428500Y-58579250D03*
X263428500Y-56039250D03*
X263428500Y-53499250D03*
X263428500Y-50959250D03*
X263428500Y-48419250D03*
X263428500Y-45879250D03*
X263428500Y-43339250D03*
X263428500Y-40799250D03*
X263428500Y-38259250D03*
X263428500Y-35719250D03*
X263428500Y-33179250D03*
D15*
X266778250Y-79732250D03*
X269318250Y-79732250D03*
X271858250Y-79732250D03*
X274398250Y-79732250D03*
D16*
X267572000Y-103544750D03*
D17*
X275192000Y-103544750D03*
M02*
