G04 #@! TF.GenerationSoftware,KiCad,Pcbnew,(5.1.5)-3*
G04 #@! TF.CreationDate,2021-12-21T21:48:17-06:00*
G04 #@! TF.ProjectId,cuarenta,63756172-656e-4746-912e-6b696361645f,rev?*
G04 #@! TF.SameCoordinates,Original*
G04 #@! TF.FileFunction,Copper,L1,Top*
G04 #@! TF.FilePolarity,Positive*
%FSLAX46Y46*%
G04 Gerber Fmt 4.6, Leading zero omitted, Abs format (unit mm)*
G04 Created by KiCad (PCBNEW (5.1.5)-3) date 2021-12-21 21:48:17*
%MOMM*%
%LPD*%
G04 APERTURE LIST*
%ADD10C,0.100000*%
%ADD11C,2.000000*%
%ADD12R,3.200000X2.000000*%
%ADD13R,2.000000X2.000000*%
%ADD14C,1.700000*%
%ADD15R,1.700000X1.700000*%
%ADD16C,1.397000*%
%ADD17R,1.600000X1.600000*%
%ADD18O,1.600000X1.600000*%
G04 APERTURE END LIST*
D10*
X240584500Y-39251000D03*
X214390750Y-39251000D03*
X157240750Y-39251000D03*
X176290750Y-39251000D03*
X195340750Y-39251000D03*
X100090750Y-39251000D03*
X119140750Y-39251000D03*
X138190750Y-39251000D03*
X247728250Y-96401000D03*
X228678250Y-96401000D03*
X209628250Y-96401000D03*
X185815750Y-96401000D03*
X152478250Y-96401000D03*
X111997000Y-96401000D03*
X78659500Y-96401000D03*
X52465750Y-96401000D03*
X26272000Y-96401000D03*
X31034500Y-77351000D03*
X57228250Y-77351000D03*
X76278250Y-77351000D03*
X95328250Y-77351000D03*
X114378250Y-77351000D03*
X133428250Y-77351000D03*
X152478250Y-77351000D03*
X171528250Y-77351000D03*
X190578250Y-77351000D03*
X209628250Y-77351000D03*
X228678250Y-77351000D03*
X247728250Y-77351000D03*
X242965750Y-58301000D03*
X219153250Y-58301000D03*
X200103250Y-58301000D03*
X181053250Y-58301000D03*
X162003250Y-58301000D03*
X142953250Y-58301000D03*
X123903250Y-58301000D03*
X104853250Y-58301000D03*
X85803250Y-58301000D03*
X66753250Y-58301000D03*
X47703250Y-58301000D03*
X26272000Y-58301000D03*
X81040750Y-39251000D03*
D11*
X278540750Y-96519750D03*
X278540750Y-91519750D03*
D12*
X271540750Y-99619750D03*
X271540750Y-88419750D03*
D11*
X264040750Y-96519750D03*
X264040750Y-94019750D03*
D13*
X264040750Y-91519750D03*
D14*
X278684500Y-73819250D03*
X278684500Y-71279250D03*
X278684500Y-68739250D03*
X278684500Y-66199250D03*
X278684500Y-63659250D03*
X278684500Y-61119250D03*
X278684500Y-58579250D03*
X278684500Y-56039250D03*
X278684500Y-53499250D03*
X278684500Y-50959250D03*
X278684500Y-48419250D03*
X278684500Y-45879250D03*
X278684500Y-43339250D03*
X278684500Y-40799250D03*
X278684500Y-38259250D03*
X278684500Y-35719250D03*
X278684500Y-33179250D03*
D15*
X263428500Y-73819250D03*
D14*
X263428500Y-71279250D03*
X263428500Y-68739250D03*
X263428500Y-66199250D03*
X263428500Y-63659250D03*
X263428500Y-61119250D03*
X263428500Y-58579250D03*
X263428500Y-56039250D03*
X263428500Y-53499250D03*
X263428500Y-50959250D03*
X263428500Y-48419250D03*
X263428500Y-45879250D03*
X263428500Y-43339250D03*
X263428500Y-40799250D03*
X263428500Y-38259250D03*
X263428500Y-35719250D03*
X263428500Y-33179250D03*
D16*
X266778250Y-79732250D03*
X269318250Y-79732250D03*
X271858250Y-79732250D03*
X274398250Y-79732250D03*
D17*
X267572000Y-103544750D03*
D18*
X275192000Y-103544750D03*
M02*
