M48
; DRILL file {KiCad (5.1.5)-3} date 08/08/2021 04:52:43 p. m.
; FORMAT={-:-/ absolute / metric / decimal}
; #@! TF.CreationDate,2021-08-08T16:52:43-05:00
; #@! TF.GenerationSoftware,Kicad,Pcbnew,(5.1.5)-3
; #@! TF.FileFunction,Plated,1,2,PTH
FMAT,2
METRIC
T1C0.400
T2C0.800
T3C0.813
T4C1.000
%
G90
G05
T1
X30.524Y-32.722
X32.417Y-44.037
X33.048Y-51.915
X37.179Y-62.77
X37.715Y-70.87
X38.64Y-81.756
X49.701Y-32.849
X53.848Y-44.196
X54.495Y-51.931
X59.106Y-63.067
X64.147Y-71.108
X65.627Y-81.693
X68.814Y-32.913
X72.898Y-43.942
X73.355Y-51.74
X80.073Y-62.928
X82.943Y-70.854
X84.804Y-81.947
X87.991Y-33.04
X91.948Y-44.069
X92.468Y-51.804
X99.123Y-62.928
X101.929Y-70.79
X106.787Y-32.786
X106.966Y-81.883
X109.728Y-23.876
X110.998Y-44.323
X111.454Y-51.74
X119.015Y-62.976
X125.774Y-32.722
X127.381Y-24.13
X130.048Y-44.069
X130.631Y-51.867
X138.192Y-63.103
X144.951Y-32.849
X145.923Y-24.384
X149.098Y-44.196
X149.554Y-51.74
X156.273Y-62.928
X159.143Y-70.854
X161.671Y-82.042
X162.306Y-27.432
X164.064Y-32.913
X168.148Y-44.196
X168.731Y-51.867
X174.736Y-63.135
X181.102Y-27.305
X182.987Y-32.786
X187.198Y-44.323
X187.654Y-51.74
X194.5Y-63.055
X197.37Y-70.981
X199.486Y-81.884
X200.533Y-27.432
X202.228Y-32.976
X206.248Y-44.196
X206.768Y-51.804
X213.55Y-63.055
X216.611Y-71.171
X218.027Y-82.074
X219.71Y-27.559
X222.981Y-31.654
X225.298Y-44.069
X227.838Y-50.799
X234.823Y-62.992
X235.851Y-71.362
X237.077Y-81.947
X247.329Y-32.833
X247.396Y-38.608
X249.111Y-47.18
X251.206Y-72.136
X253.873Y-66.167
X254.381Y-90.678
X254.71Y-71.171
X256.127Y-82.328
X262.137Y-77.079
X265.557Y-101.854
X267.081Y-82.042
X268.835Y-62.762
T2
X188.573Y-27.414
X196.194Y-27.414
X164.711Y-65.414
X172.331Y-65.414
X55.173Y-27.414
X62.793Y-27.414
X183.711Y-65.414
X191.331Y-65.414
X59.936Y-46.414
X67.556Y-46.414
X131.423Y-27.414
X139.043Y-27.414
X24.13Y-65.532
X31.75Y-65.532
X207.573Y-27.414
X215.194Y-27.414
X212.336Y-46.414
X219.956Y-46.414
X69.461Y-65.414
X77.081Y-65.414
X193.336Y-46.414
X200.956Y-46.414
X74.173Y-27.414
X81.793Y-27.414
X98.136Y-46.414
X105.756Y-46.414
X17.174Y-27.414
X24.793Y-27.414
X202.819Y-84.582
X210.439Y-84.582
X178.943Y-84.582
X186.563Y-84.582
X71.755Y-84.582
X79.375Y-84.582
X202.961Y-65.414
X210.581Y-65.414
X105.156Y-84.582
X112.776Y-84.582
X45.593Y-84.582
X53.213Y-84.582
X240.961Y-65.414
X248.581Y-65.414
X233.807Y-27.432
X241.427Y-27.432
X136.136Y-46.414
X143.756Y-46.414
X107.461Y-65.414
X115.081Y-65.414
X93.173Y-27.414
X100.793Y-27.414
X19.431Y-46.482
X27.051Y-46.482
X240.961Y-84.414
X248.581Y-84.414
X174.336Y-46.414
X181.956Y-46.414
X145.711Y-65.414
X153.331Y-65.414
X126.711Y-65.414
X134.331Y-65.414
X112.423Y-27.414
X120.043Y-27.414
X36.173Y-27.432
X43.793Y-27.432
X221.961Y-84.414
X229.581Y-84.414
X150.423Y-27.414
X158.043Y-27.414
X78.936Y-46.414
X86.556Y-46.414
X117.136Y-46.414
X124.756Y-46.414
X236.22Y-46.482
X243.84Y-46.482
X169.573Y-27.414
X177.194Y-27.414
X221.961Y-65.414
X229.581Y-65.414
X88.461Y-65.414
X96.081Y-65.414
X155.136Y-46.414
X162.756Y-46.414
X145.669Y-84.582
X153.289Y-84.582
X50.461Y-65.414
X58.081Y-65.414
X19.431Y-84.582
X27.051Y-84.582
X267.875Y-100.108
X275.495Y-100.108
X40.936Y-46.414
X48.556Y-46.414
T3
X267.081Y-76.295
X269.621Y-76.295
X272.161Y-76.295
X274.701Y-76.295
T4
X264.344Y-88.083
X264.344Y-90.583
X264.344Y-93.083
X278.844Y-88.083
X278.844Y-93.083
X263.731Y-29.742
X263.731Y-32.282
X263.731Y-34.822
X263.731Y-37.362
X263.731Y-39.902
X263.731Y-42.442
X263.731Y-44.982
X263.731Y-47.522
X263.731Y-50.062
X263.731Y-52.602
X263.731Y-55.142
X263.731Y-57.682
X263.731Y-60.222
X263.731Y-62.762
X263.731Y-65.302
X263.731Y-67.842
X263.731Y-70.382
X278.987Y-29.742
X278.987Y-32.282
X278.987Y-34.822
X278.987Y-37.362
X278.987Y-39.902
X278.987Y-42.442
X278.987Y-44.982
X278.987Y-47.522
X278.987Y-50.062
X278.987Y-52.602
X278.987Y-55.142
X278.987Y-57.682
X278.987Y-60.222
X278.987Y-62.762
X278.987Y-65.302
X278.987Y-67.842
X278.987Y-70.382
T0
M30
