G04 #@! TF.GenerationSoftware,KiCad,Pcbnew,(5.1.5)-3*
G04 #@! TF.CreationDate,2021-08-08T16:52:41-05:00*
G04 #@! TF.ProjectId,cuarenta,63756172-656e-4746-912e-6b696361645f,rev?*
G04 #@! TF.SameCoordinates,Original*
G04 #@! TF.FileFunction,Paste,Bot*
G04 #@! TF.FilePolarity,Positive*
%FSLAX46Y46*%
G04 Gerber Fmt 4.6, Leading zero omitted, Abs format (unit mm)*
G04 Created by KiCad (PCBNEW (5.1.5)-3) date 2021-08-08 16:52:41*
%MOMM*%
%LPD*%
G04 APERTURE LIST*
%ADD10R,2.550000X2.500000*%
%ADD11R,1.700000X1.000000*%
G04 APERTURE END LIST*
D10*
X249110500Y-49784000D03*
X236183500Y-52324000D03*
X246729250Y-30734000D03*
X233802250Y-33274000D03*
X191960500Y-87884000D03*
X179033500Y-90424000D03*
X158623000Y-87884000D03*
X145696000Y-90424000D03*
X118141750Y-87884000D03*
X105214750Y-90424000D03*
X84804250Y-87884000D03*
X71877250Y-90424000D03*
X58610500Y-87884000D03*
X45683500Y-90424000D03*
X32416750Y-87884000D03*
X19489750Y-90424000D03*
X37179250Y-68834000D03*
X24252250Y-71374000D03*
X32416750Y-49784000D03*
X19489750Y-52324000D03*
D11*
X250781000Y-96994750D03*
X250781000Y-98394750D03*
X245281000Y-96994750D03*
X245281000Y-98394750D03*
X245281000Y-79344750D03*
X245281000Y-77944750D03*
X250781000Y-79344750D03*
X250781000Y-77944750D03*
X246018500Y-58894750D03*
X246018500Y-60294750D03*
X240518500Y-58894750D03*
X240518500Y-60294750D03*
X243637250Y-39844750D03*
X243637250Y-41244750D03*
X238137250Y-39844750D03*
X238137250Y-41244750D03*
X231731000Y-96994750D03*
X231731000Y-98394750D03*
X226231000Y-96994750D03*
X226231000Y-98394750D03*
X226231000Y-79344750D03*
X226231000Y-77944750D03*
X231731000Y-79344750D03*
X231731000Y-77944750D03*
X222206000Y-58894750D03*
X222206000Y-60294750D03*
X216706000Y-58894750D03*
X216706000Y-60294750D03*
X217443500Y-39844750D03*
X217443500Y-41244750D03*
X211943500Y-39844750D03*
X211943500Y-41244750D03*
X212681000Y-96994750D03*
X212681000Y-98394750D03*
X207181000Y-96994750D03*
X207181000Y-98394750D03*
X207181000Y-79344750D03*
X207181000Y-77944750D03*
X212681000Y-79344750D03*
X212681000Y-77944750D03*
X203156000Y-58894750D03*
X203156000Y-60294750D03*
X197656000Y-58894750D03*
X197656000Y-60294750D03*
X198393500Y-39844750D03*
X198393500Y-41244750D03*
X192893500Y-39844750D03*
X192893500Y-41244750D03*
X188868500Y-96994750D03*
X188868500Y-98394750D03*
X183368500Y-96994750D03*
X183368500Y-98394750D03*
X188131000Y-79344750D03*
X188131000Y-77944750D03*
X193631000Y-79344750D03*
X193631000Y-77944750D03*
X184106000Y-58894750D03*
X184106000Y-60294750D03*
X178606000Y-58894750D03*
X178606000Y-60294750D03*
X179343500Y-39844750D03*
X179343500Y-41244750D03*
X173843500Y-39844750D03*
X173843500Y-41244750D03*
X155531000Y-96994750D03*
X155531000Y-98394750D03*
X150031000Y-96994750D03*
X150031000Y-98394750D03*
X169081000Y-79344750D03*
X169081000Y-77944750D03*
X174581000Y-79344750D03*
X174581000Y-77944750D03*
X165056000Y-58894750D03*
X165056000Y-60294750D03*
X159556000Y-58894750D03*
X159556000Y-60294750D03*
X160293500Y-39844750D03*
X160293500Y-41244750D03*
X154793500Y-39844750D03*
X154793500Y-41244750D03*
X115049750Y-96994750D03*
X115049750Y-98394750D03*
X109549750Y-96994750D03*
X109549750Y-98394750D03*
X150031000Y-79344750D03*
X150031000Y-77944750D03*
X155531000Y-79344750D03*
X155531000Y-77944750D03*
X146006000Y-58894750D03*
X146006000Y-60294750D03*
X140506000Y-58894750D03*
X140506000Y-60294750D03*
X141243500Y-39844750D03*
X141243500Y-41244750D03*
X135743500Y-39844750D03*
X135743500Y-41244750D03*
X81712250Y-96994750D03*
X81712250Y-98394750D03*
X76212250Y-96994750D03*
X76212250Y-98394750D03*
X130981000Y-79344750D03*
X130981000Y-77944750D03*
X136481000Y-79344750D03*
X136481000Y-77944750D03*
X126956000Y-58894750D03*
X126956000Y-60294750D03*
X121456000Y-58894750D03*
X121456000Y-60294750D03*
X122193500Y-39844750D03*
X122193500Y-41244750D03*
X116693500Y-39844750D03*
X116693500Y-41244750D03*
X55518500Y-96994750D03*
X55518500Y-98394750D03*
X50018500Y-96994750D03*
X50018500Y-98394750D03*
X111931000Y-79344750D03*
X111931000Y-77944750D03*
X117431000Y-79344750D03*
X117431000Y-77944750D03*
X107906000Y-58894750D03*
X107906000Y-60294750D03*
X102406000Y-58894750D03*
X102406000Y-60294750D03*
X103143500Y-39844750D03*
X103143500Y-41244750D03*
X97643500Y-39844750D03*
X97643500Y-41244750D03*
X29324750Y-96994750D03*
X29324750Y-98394750D03*
X23824750Y-96994750D03*
X23824750Y-98394750D03*
X92881000Y-79344750D03*
X92881000Y-77944750D03*
X98381000Y-79344750D03*
X98381000Y-77944750D03*
X88856000Y-58894750D03*
X88856000Y-60294750D03*
X83356000Y-58894750D03*
X83356000Y-60294750D03*
X84093500Y-39844750D03*
X84093500Y-41244750D03*
X78593500Y-39844750D03*
X78593500Y-41244750D03*
X73831000Y-79344750D03*
X73831000Y-77944750D03*
X79331000Y-79344750D03*
X79331000Y-77944750D03*
X69806000Y-58894750D03*
X69806000Y-60294750D03*
X64306000Y-58894750D03*
X64306000Y-60294750D03*
X65043500Y-39844750D03*
X65043500Y-41244750D03*
X59543500Y-39844750D03*
X59543500Y-41244750D03*
X54781000Y-79344750D03*
X54781000Y-77944750D03*
X60281000Y-79344750D03*
X60281000Y-77944750D03*
X50756000Y-58894750D03*
X50756000Y-60294750D03*
X45256000Y-58894750D03*
X45256000Y-60294750D03*
X45993500Y-39844750D03*
X45993500Y-41244750D03*
X40493500Y-39844750D03*
X40493500Y-41244750D03*
X28587250Y-79344750D03*
X28587250Y-77944750D03*
X34087250Y-79344750D03*
X34087250Y-77944750D03*
X29324750Y-58894750D03*
X29324750Y-60294750D03*
X23824750Y-58894750D03*
X23824750Y-60294750D03*
X26943500Y-39844750D03*
X26943500Y-41244750D03*
X21443500Y-39844750D03*
X21443500Y-41244750D03*
D10*
X253873000Y-87884000D03*
X240946000Y-90424000D03*
X253873000Y-68834000D03*
X240946000Y-71374000D03*
X234823000Y-87884000D03*
X221896000Y-90424000D03*
X234823000Y-68834000D03*
X221896000Y-71374000D03*
X225298000Y-49784000D03*
X212371000Y-52324000D03*
X220535500Y-30734000D03*
X207608500Y-33274000D03*
X215773000Y-87884000D03*
X202846000Y-90424000D03*
X215773000Y-68834000D03*
X202846000Y-71374000D03*
X206248000Y-49784000D03*
X193321000Y-52324000D03*
X201485500Y-30734000D03*
X188558500Y-33274000D03*
X196723000Y-68834000D03*
X183796000Y-71374000D03*
X187198000Y-49784000D03*
X174271000Y-52324000D03*
X182435500Y-30734000D03*
X169508500Y-33274000D03*
X177673000Y-68834000D03*
X164746000Y-71374000D03*
X168148000Y-49784000D03*
X155221000Y-52324000D03*
X163385500Y-30734000D03*
X150458500Y-33274000D03*
X158623000Y-68834000D03*
X145696000Y-71374000D03*
X149098000Y-49784000D03*
X136171000Y-52324000D03*
X144335500Y-30734000D03*
X131408500Y-33274000D03*
X139573000Y-68834000D03*
X126646000Y-71374000D03*
X130048000Y-49784000D03*
X117121000Y-52324000D03*
X125285500Y-30734000D03*
X112358500Y-33274000D03*
X120523000Y-68834000D03*
X107596000Y-71374000D03*
X110998000Y-49784000D03*
X98071000Y-52324000D03*
X106235500Y-30734000D03*
X93308500Y-33274000D03*
X101473000Y-68834000D03*
X88546000Y-71374000D03*
X91948000Y-49784000D03*
X79021000Y-52324000D03*
X87185500Y-30734000D03*
X74258500Y-33274000D03*
X82423000Y-68834000D03*
X69496000Y-71374000D03*
X72898000Y-49784000D03*
X59971000Y-52324000D03*
X68135500Y-30734000D03*
X55208500Y-33274000D03*
X63373000Y-68834000D03*
X50446000Y-71374000D03*
X53848000Y-49784000D03*
X40921000Y-52324000D03*
X49085500Y-30734000D03*
X36158500Y-33274000D03*
X30035500Y-30734000D03*
X17108500Y-33274000D03*
M02*
