%FSLAX45Y45*%
G04 Gerber Fmt 4.5, Leading zero omitted, Abs format (unit mm)*
G04 Created by KiCad (PCBNEW (5.1.5)-3) date 2021-12-21 21:47:54*
%MOMM*%
%LPD*%
G04 APERTURE LIST*
%TA.AperFunction,Profile*%
%ADD10C,0.050000*%
%TD*%
%ADD11C,0.200000*%
%ADD12C,0.300000*%
G04 APERTURE END LIST*
D10*
X5499099Y-4624731D02*
X6899099Y-4624731D01*
X6899099Y-3224731D02*
X5499099Y-4624731D01*
X5499099Y-3224731D02*
X5499099Y-4624731D01*
X6899099Y-3224731D02*
X5499099Y-3224731D01*
X6899099Y-4624731D02*
X6899099Y-3224731D01*
X5499099Y-3224731D02*
X6899099Y-4624731D01*
X3594099Y-4624731D02*
X4994099Y-4624731D01*
X4994099Y-3224731D02*
X3594099Y-4624731D01*
X3594099Y-3224731D02*
X3594099Y-4624731D01*
X4994099Y-3224731D02*
X3594099Y-3224731D01*
X4994099Y-4624731D02*
X4994099Y-3224731D01*
X3594099Y-3224731D02*
X4994099Y-4624731D01*
X1689099Y-3224731D02*
X3089099Y-4624731D01*
X3089099Y-3224731D02*
X1689099Y-4624731D01*
X1689099Y-4624731D02*
X3089099Y-4624731D01*
X1689099Y-3224731D02*
X1689099Y-4624731D01*
X3089099Y-3224731D02*
X1689099Y-3224731D01*
X3089099Y-4624731D02*
X3089099Y-3224731D01*
X14177850Y-2328075D02*
X4970350Y-2328075D01*
X27433475Y-2328075D02*
X24179100Y-2328075D01*
X1319100Y-3201200D02*
G75*
G02X2192225Y-2328075I873125J0D01*
G01*
X24179100Y-2328075D02*
X19734100Y-2328075D01*
X19734100Y-2328075D02*
X14177850Y-2328075D01*
X1319100Y-9948075D02*
X1319100Y-3201200D01*
X28306600Y-9948075D02*
X28306600Y-3201200D01*
X27433475Y-2328075D02*
G75*
G02X28306600Y-3201200I0J-873125D01*
G01*
X28306600Y-9948075D02*
G75*
G02X27433475Y-10821200I-873125J0D01*
G01*
X2192225Y-10821200D02*
G75*
G02X1319100Y-9948075I0J873125D01*
G01*
X2192225Y-10821200D02*
X27433475Y-10821200D01*
X4970350Y-2328075D02*
X2192225Y-2328075D01*
D11*
X27079075Y-8766975D02*
X27229075Y-8916975D01*
X27229075Y-8766975D02*
X27079075Y-8916975D01*
X27089075Y-8906975D02*
X27219075Y-8906975D01*
X27089075Y-8776975D02*
X27219075Y-8776975D01*
X27219075Y-8906975D02*
G75*
G03X27219075Y-8776975I0J65000D01*
G01*
X27089075Y-8776975D02*
G75*
G03X27089075Y-8906975I0J-65000D01*
G01*
X27079075Y-9886975D02*
X27229075Y-10036975D01*
X27229075Y-9886975D02*
X27079075Y-10036975D01*
X27089075Y-10026975D02*
X27219075Y-10026975D01*
X27089075Y-9896975D02*
X27219075Y-9896975D01*
X27219075Y-10026975D02*
G75*
G03X27219075Y-9896975I0J65000D01*
G01*
X27089075Y-9896975D02*
G75*
G03X27089075Y-10026975I0J-65000D01*
G01*
D12*
X1603028Y-15065514D02*
X1603028Y-14765514D01*
X1674457Y-14765514D01*
X1717314Y-14779800D01*
X1745886Y-14808371D01*
X1760171Y-14836943D01*
X1774457Y-14894086D01*
X1774457Y-14936943D01*
X1760171Y-14994086D01*
X1745886Y-15022657D01*
X1717314Y-15051229D01*
X1674457Y-15065514D01*
X1603028Y-15065514D01*
X1903028Y-15065514D02*
X1903028Y-14865514D01*
X1903028Y-14922657D02*
X1917314Y-14894086D01*
X1931600Y-14879800D01*
X1960171Y-14865514D01*
X1988743Y-14865514D01*
X2088743Y-15065514D02*
X2088743Y-14865514D01*
X2088743Y-14765514D02*
X2074457Y-14779800D01*
X2088743Y-14794086D01*
X2103028Y-14779800D01*
X2088743Y-14765514D01*
X2088743Y-14794086D01*
X2274457Y-15065514D02*
X2245886Y-15051229D01*
X2231600Y-15022657D01*
X2231600Y-14765514D01*
X2431600Y-15065514D02*
X2403028Y-15051229D01*
X2388743Y-15022657D01*
X2388743Y-14765514D01*
X2774457Y-15065514D02*
X2774457Y-14765514D01*
X2874457Y-14979800D01*
X2974457Y-14765514D01*
X2974457Y-15065514D01*
X3245886Y-15065514D02*
X3245886Y-14908371D01*
X3231600Y-14879800D01*
X3203028Y-14865514D01*
X3145886Y-14865514D01*
X3117314Y-14879800D01*
X3245886Y-15051229D02*
X3217314Y-15065514D01*
X3145886Y-15065514D01*
X3117314Y-15051229D01*
X3103028Y-15022657D01*
X3103028Y-14994086D01*
X3117314Y-14965514D01*
X3145886Y-14951229D01*
X3217314Y-14951229D01*
X3245886Y-14936943D01*
X3388743Y-14865514D02*
X3388743Y-15165514D01*
X3388743Y-14879800D02*
X3417314Y-14865514D01*
X3474457Y-14865514D01*
X3503028Y-14879800D01*
X3517314Y-14894086D01*
X3531600Y-14922657D01*
X3531600Y-15008371D01*
X3517314Y-15036943D01*
X3503028Y-15051229D01*
X3474457Y-15065514D01*
X3417314Y-15065514D01*
X3388743Y-15051229D01*
X3660171Y-15036943D02*
X3674457Y-15051229D01*
X3660171Y-15065514D01*
X3645886Y-15051229D01*
X3660171Y-15036943D01*
X3660171Y-15065514D01*
X3660171Y-14879800D02*
X3674457Y-14894086D01*
X3660171Y-14908371D01*
X3645886Y-14894086D01*
X3660171Y-14879800D01*
X3660171Y-14908371D01*
X1166600Y-15484800D02*
X1316600Y-15634800D01*
X1316600Y-15484800D02*
X1166600Y-15634800D01*
X1760171Y-15695514D02*
X1588743Y-15695514D01*
X1674457Y-15695514D02*
X1674457Y-15395514D01*
X1645886Y-15438371D01*
X1617314Y-15466943D01*
X1588743Y-15481229D01*
X1888743Y-15666943D02*
X1903028Y-15681229D01*
X1888743Y-15695514D01*
X1874457Y-15681229D01*
X1888743Y-15666943D01*
X1888743Y-15695514D01*
X2174457Y-15395514D02*
X2031600Y-15395514D01*
X2017314Y-15538371D01*
X2031600Y-15524086D01*
X2060171Y-15509800D01*
X2131600Y-15509800D01*
X2160171Y-15524086D01*
X2174457Y-15538371D01*
X2188743Y-15566943D01*
X2188743Y-15638371D01*
X2174457Y-15666943D01*
X2160171Y-15681229D01*
X2131600Y-15695514D01*
X2060171Y-15695514D01*
X2031600Y-15681229D01*
X2017314Y-15666943D01*
X2374457Y-15395514D02*
X2403028Y-15395514D01*
X2431600Y-15409800D01*
X2445886Y-15424086D01*
X2460171Y-15452657D01*
X2474457Y-15509800D01*
X2474457Y-15581229D01*
X2460171Y-15638371D01*
X2445886Y-15666943D01*
X2431600Y-15681229D01*
X2403028Y-15695514D01*
X2374457Y-15695514D01*
X2345886Y-15681229D01*
X2331600Y-15666943D01*
X2317314Y-15638371D01*
X2303028Y-15581229D01*
X2303028Y-15509800D01*
X2317314Y-15452657D01*
X2331600Y-15424086D01*
X2345886Y-15409800D01*
X2374457Y-15395514D01*
X2603028Y-15695514D02*
X2603028Y-15495514D01*
X2603028Y-15524086D02*
X2617314Y-15509800D01*
X2645886Y-15495514D01*
X2688743Y-15495514D01*
X2717314Y-15509800D01*
X2731600Y-15538371D01*
X2731600Y-15695514D01*
X2731600Y-15538371D02*
X2745886Y-15509800D01*
X2774457Y-15495514D01*
X2817314Y-15495514D01*
X2845886Y-15509800D01*
X2860171Y-15538371D01*
X2860171Y-15695514D01*
X3003028Y-15695514D02*
X3003028Y-15495514D01*
X3003028Y-15524086D02*
X3017314Y-15509800D01*
X3045886Y-15495514D01*
X3088743Y-15495514D01*
X3117314Y-15509800D01*
X3131600Y-15538371D01*
X3131600Y-15695514D01*
X3131600Y-15538371D02*
X3145886Y-15509800D01*
X3174457Y-15495514D01*
X3217314Y-15495514D01*
X3245886Y-15509800D01*
X3260171Y-15538371D01*
X3260171Y-15695514D01*
X3845886Y-15381229D02*
X3588743Y-15766943D01*
X4231600Y-15395514D02*
X4260171Y-15395514D01*
X4288743Y-15409800D01*
X4303028Y-15424086D01*
X4317314Y-15452657D01*
X4331600Y-15509800D01*
X4331600Y-15581229D01*
X4317314Y-15638371D01*
X4303028Y-15666943D01*
X4288743Y-15681229D01*
X4260171Y-15695514D01*
X4231600Y-15695514D01*
X4203028Y-15681229D01*
X4188743Y-15666943D01*
X4174457Y-15638371D01*
X4160171Y-15581229D01*
X4160171Y-15509800D01*
X4174457Y-15452657D01*
X4188743Y-15424086D01*
X4203028Y-15409800D01*
X4231600Y-15395514D01*
X4460171Y-15666943D02*
X4474457Y-15681229D01*
X4460171Y-15695514D01*
X4445886Y-15681229D01*
X4460171Y-15666943D01*
X4460171Y-15695514D01*
X4660171Y-15395514D02*
X4688743Y-15395514D01*
X4717314Y-15409800D01*
X4731600Y-15424086D01*
X4745886Y-15452657D01*
X4760171Y-15509800D01*
X4760171Y-15581229D01*
X4745886Y-15638371D01*
X4731600Y-15666943D01*
X4717314Y-15681229D01*
X4688743Y-15695514D01*
X4660171Y-15695514D01*
X4631600Y-15681229D01*
X4617314Y-15666943D01*
X4603028Y-15638371D01*
X4588743Y-15581229D01*
X4588743Y-15509800D01*
X4603028Y-15452657D01*
X4617314Y-15424086D01*
X4631600Y-15409800D01*
X4660171Y-15395514D01*
X5031600Y-15395514D02*
X4888743Y-15395514D01*
X4874457Y-15538371D01*
X4888743Y-15524086D01*
X4917314Y-15509800D01*
X4988743Y-15509800D01*
X5017314Y-15524086D01*
X5031600Y-15538371D01*
X5045886Y-15566943D01*
X5045886Y-15638371D01*
X5031600Y-15666943D01*
X5017314Y-15681229D01*
X4988743Y-15695514D01*
X4917314Y-15695514D01*
X4888743Y-15681229D01*
X4874457Y-15666943D01*
X5188743Y-15695514D02*
X5245886Y-15695514D01*
X5274457Y-15681229D01*
X5288743Y-15666943D01*
X5317314Y-15624086D01*
X5331600Y-15566943D01*
X5331600Y-15452657D01*
X5317314Y-15424086D01*
X5303028Y-15409800D01*
X5274457Y-15395514D01*
X5217314Y-15395514D01*
X5188743Y-15409800D01*
X5174457Y-15424086D01*
X5160171Y-15452657D01*
X5160171Y-15524086D01*
X5174457Y-15552657D01*
X5188743Y-15566943D01*
X5217314Y-15581229D01*
X5274457Y-15581229D01*
X5303028Y-15566943D01*
X5317314Y-15552657D01*
X5331600Y-15524086D01*
X5445886Y-15395514D02*
X5445886Y-15452657D01*
X5560171Y-15395514D02*
X5560171Y-15452657D01*
X6003028Y-15809800D02*
X5988743Y-15795514D01*
X5960171Y-15752657D01*
X5945886Y-15724086D01*
X5931600Y-15681229D01*
X5917314Y-15609800D01*
X5917314Y-15552657D01*
X5931600Y-15481229D01*
X5945886Y-15438371D01*
X5960171Y-15409800D01*
X5988743Y-15366943D01*
X6003028Y-15352657D01*
X6174457Y-15395514D02*
X6203028Y-15395514D01*
X6231600Y-15409800D01*
X6245886Y-15424086D01*
X6260171Y-15452657D01*
X6274457Y-15509800D01*
X6274457Y-15581229D01*
X6260171Y-15638371D01*
X6245886Y-15666943D01*
X6231600Y-15681229D01*
X6203028Y-15695514D01*
X6174457Y-15695514D01*
X6145886Y-15681229D01*
X6131600Y-15666943D01*
X6117314Y-15638371D01*
X6103028Y-15581229D01*
X6103028Y-15509800D01*
X6117314Y-15452657D01*
X6131600Y-15424086D01*
X6145886Y-15409800D01*
X6174457Y-15395514D01*
X6631600Y-15695514D02*
X6631600Y-15395514D01*
X6760171Y-15695514D02*
X6760171Y-15538371D01*
X6745886Y-15509800D01*
X6717314Y-15495514D01*
X6674457Y-15495514D01*
X6645886Y-15509800D01*
X6631600Y-15524086D01*
X6945886Y-15695514D02*
X6917314Y-15681229D01*
X6903028Y-15666943D01*
X6888743Y-15638371D01*
X6888743Y-15552657D01*
X6903028Y-15524086D01*
X6917314Y-15509800D01*
X6945886Y-15495514D01*
X6988743Y-15495514D01*
X7017314Y-15509800D01*
X7031600Y-15524086D01*
X7045886Y-15552657D01*
X7045886Y-15638371D01*
X7031600Y-15666943D01*
X7017314Y-15681229D01*
X6988743Y-15695514D01*
X6945886Y-15695514D01*
X7217314Y-15695514D02*
X7188743Y-15681229D01*
X7174457Y-15652657D01*
X7174457Y-15395514D01*
X7445886Y-15681229D02*
X7417314Y-15695514D01*
X7360171Y-15695514D01*
X7331600Y-15681229D01*
X7317314Y-15652657D01*
X7317314Y-15538371D01*
X7331600Y-15509800D01*
X7360171Y-15495514D01*
X7417314Y-15495514D01*
X7445886Y-15509800D01*
X7460171Y-15538371D01*
X7460171Y-15566943D01*
X7317314Y-15595514D01*
X7574457Y-15681229D02*
X7603028Y-15695514D01*
X7660171Y-15695514D01*
X7688743Y-15681229D01*
X7703028Y-15652657D01*
X7703028Y-15638371D01*
X7688743Y-15609800D01*
X7660171Y-15595514D01*
X7617314Y-15595514D01*
X7588743Y-15581229D01*
X7574457Y-15552657D01*
X7574457Y-15538371D01*
X7588743Y-15509800D01*
X7617314Y-15495514D01*
X7660171Y-15495514D01*
X7688743Y-15509800D01*
X8060171Y-15581229D02*
X8288743Y-15581229D01*
X8174457Y-15695514D02*
X8174457Y-15466943D01*
X8645886Y-15424086D02*
X8660171Y-15409800D01*
X8688743Y-15395514D01*
X8760171Y-15395514D01*
X8788743Y-15409800D01*
X8803028Y-15424086D01*
X8817314Y-15452657D01*
X8817314Y-15481229D01*
X8803028Y-15524086D01*
X8631600Y-15695514D01*
X8817314Y-15695514D01*
X9160171Y-15681229D02*
X9188743Y-15695514D01*
X9245886Y-15695514D01*
X9274457Y-15681229D01*
X9288743Y-15652657D01*
X9288743Y-15638371D01*
X9274457Y-15609800D01*
X9245886Y-15595514D01*
X9203028Y-15595514D01*
X9174457Y-15581229D01*
X9160171Y-15552657D01*
X9160171Y-15538371D01*
X9174457Y-15509800D01*
X9203028Y-15495514D01*
X9245886Y-15495514D01*
X9274457Y-15509800D01*
X9460171Y-15695514D02*
X9431600Y-15681229D01*
X9417314Y-15652657D01*
X9417314Y-15395514D01*
X9617314Y-15695514D02*
X9588743Y-15681229D01*
X9574457Y-15666943D01*
X9560171Y-15638371D01*
X9560171Y-15552657D01*
X9574457Y-15524086D01*
X9588743Y-15509800D01*
X9617314Y-15495514D01*
X9660171Y-15495514D01*
X9688743Y-15509800D01*
X9703028Y-15524086D01*
X9717314Y-15552657D01*
X9717314Y-15638371D01*
X9703028Y-15666943D01*
X9688743Y-15681229D01*
X9660171Y-15695514D01*
X9617314Y-15695514D01*
X9803028Y-15495514D02*
X9917314Y-15495514D01*
X9845886Y-15395514D02*
X9845886Y-15652657D01*
X9860171Y-15681229D01*
X9888743Y-15695514D01*
X9917314Y-15695514D01*
X10003028Y-15681229D02*
X10031600Y-15695514D01*
X10088743Y-15695514D01*
X10117314Y-15681229D01*
X10131600Y-15652657D01*
X10131600Y-15638371D01*
X10117314Y-15609800D01*
X10088743Y-15595514D01*
X10045886Y-15595514D01*
X10017314Y-15581229D01*
X10003028Y-15552657D01*
X10003028Y-15538371D01*
X10017314Y-15509800D01*
X10045886Y-15495514D01*
X10088743Y-15495514D01*
X10117314Y-15509800D01*
X10231600Y-15809800D02*
X10245886Y-15795514D01*
X10274457Y-15752657D01*
X10288743Y-15724086D01*
X10303028Y-15681229D01*
X10317314Y-15609800D01*
X10317314Y-15552657D01*
X10303028Y-15481229D01*
X10288743Y-15438371D01*
X10274457Y-15409800D01*
X10245886Y-15366943D01*
X10231600Y-15352657D01*
X10774457Y-15809800D02*
X10760171Y-15795514D01*
X10731600Y-15752657D01*
X10717314Y-15724086D01*
X10703028Y-15681229D01*
X10688743Y-15609800D01*
X10688743Y-15552657D01*
X10703028Y-15481229D01*
X10717314Y-15438371D01*
X10731600Y-15409800D01*
X10760171Y-15366943D01*
X10774457Y-15352657D01*
X10888743Y-15495514D02*
X10888743Y-15695514D01*
X10888743Y-15524086D02*
X10903028Y-15509800D01*
X10931600Y-15495514D01*
X10974457Y-15495514D01*
X11003028Y-15509800D01*
X11017314Y-15538371D01*
X11017314Y-15695514D01*
X11203028Y-15695514D02*
X11174457Y-15681229D01*
X11160171Y-15666943D01*
X11145886Y-15638371D01*
X11145886Y-15552657D01*
X11160171Y-15524086D01*
X11174457Y-15509800D01*
X11203028Y-15495514D01*
X11245886Y-15495514D01*
X11274457Y-15509800D01*
X11288743Y-15524086D01*
X11303028Y-15552657D01*
X11303028Y-15638371D01*
X11288743Y-15666943D01*
X11274457Y-15681229D01*
X11245886Y-15695514D01*
X11203028Y-15695514D01*
X11388743Y-15495514D02*
X11503028Y-15495514D01*
X11431600Y-15395514D02*
X11431600Y-15652657D01*
X11445886Y-15681229D01*
X11474457Y-15695514D01*
X11503028Y-15695514D01*
X11831600Y-15495514D02*
X11831600Y-15795514D01*
X11831600Y-15509800D02*
X11860171Y-15495514D01*
X11917314Y-15495514D01*
X11945886Y-15509800D01*
X11960171Y-15524086D01*
X11974457Y-15552657D01*
X11974457Y-15638371D01*
X11960171Y-15666943D01*
X11945886Y-15681229D01*
X11917314Y-15695514D01*
X11860171Y-15695514D01*
X11831600Y-15681229D01*
X12145886Y-15695514D02*
X12117314Y-15681229D01*
X12103028Y-15652657D01*
X12103028Y-15395514D01*
X12388743Y-15695514D02*
X12388743Y-15538371D01*
X12374457Y-15509800D01*
X12345886Y-15495514D01*
X12288743Y-15495514D01*
X12260171Y-15509800D01*
X12388743Y-15681229D02*
X12360171Y-15695514D01*
X12288743Y-15695514D01*
X12260171Y-15681229D01*
X12245886Y-15652657D01*
X12245886Y-15624086D01*
X12260171Y-15595514D01*
X12288743Y-15581229D01*
X12360171Y-15581229D01*
X12388743Y-15566943D01*
X12488743Y-15495514D02*
X12603028Y-15495514D01*
X12531600Y-15395514D02*
X12531600Y-15652657D01*
X12545886Y-15681229D01*
X12574457Y-15695514D01*
X12603028Y-15695514D01*
X12817314Y-15681229D02*
X12788743Y-15695514D01*
X12731600Y-15695514D01*
X12703028Y-15681229D01*
X12688743Y-15652657D01*
X12688743Y-15538371D01*
X12703028Y-15509800D01*
X12731600Y-15495514D01*
X12788743Y-15495514D01*
X12817314Y-15509800D01*
X12831600Y-15538371D01*
X12831600Y-15566943D01*
X12688743Y-15595514D01*
X13088743Y-15695514D02*
X13088743Y-15395514D01*
X13088743Y-15681229D02*
X13060171Y-15695514D01*
X13003028Y-15695514D01*
X12974457Y-15681229D01*
X12960171Y-15666943D01*
X12945886Y-15638371D01*
X12945886Y-15552657D01*
X12960171Y-15524086D01*
X12974457Y-15509800D01*
X13003028Y-15495514D01*
X13060171Y-15495514D01*
X13088743Y-15509800D01*
X13203028Y-15809800D02*
X13217314Y-15795514D01*
X13245886Y-15752657D01*
X13260171Y-15724086D01*
X13274457Y-15681229D01*
X13288743Y-15609800D01*
X13288743Y-15552657D01*
X13274457Y-15481229D01*
X13260171Y-15438371D01*
X13245886Y-15409800D01*
X13217314Y-15366943D01*
X13203028Y-15352657D01*
M02*
