G04 #@! TF.GenerationSoftware,KiCad,Pcbnew,(5.1.5)-3*
G04 #@! TF.CreationDate,2021-12-21T21:48:17-06:00*
G04 #@! TF.ProjectId,cuarenta,63756172-656e-4746-912e-6b696361645f,rev?*
G04 #@! TF.SameCoordinates,Original*
G04 #@! TF.FileFunction,Legend,Bot*
G04 #@! TF.FilePolarity,Positive*
%FSLAX46Y46*%
G04 Gerber Fmt 4.6, Leading zero omitted, Abs format (unit mm)*
G04 Created by KiCad (PCBNEW (5.1.5)-3) date 2021-12-21 21:48:17*
%MOMM*%
%LPD*%
G04 APERTURE LIST*
%ADD10C,0.150000*%
%ADD11C,0.120000*%
G04 APERTURE END LIST*
D10*
X263928500Y-76319250D02*
G75*
G03X263928500Y-76319250I-500000J0D01*
G01*
X279184500Y-76319250D02*
G75*
G03X279184500Y-76319250I-500000J0D01*
G01*
X263928500Y-30319250D02*
G75*
G03X263928500Y-30319250I-500000J0D01*
G01*
X279184500Y-30319250D02*
G75*
G03X279184500Y-30319250I-500000J0D01*
G01*
X280174500Y-77319250D02*
X280174500Y-29319250D01*
X280174500Y-29319250D02*
X262174500Y-29319250D01*
X262174500Y-29319250D02*
X262174500Y-77319250D01*
X262174500Y-77319250D02*
X280174500Y-77319250D01*
X268524500Y-29313250D02*
X268524500Y-32107250D01*
X268524500Y-32107250D02*
X273604500Y-32107250D01*
X273604500Y-32107250D02*
X273604500Y-29313250D01*
X265508250Y-78462250D02*
X275668250Y-78462250D01*
X275668250Y-78462250D02*
X275668250Y-81002250D01*
X275668250Y-81002250D02*
X265508250Y-81002250D01*
X265508250Y-81002250D02*
X265508250Y-78462250D01*
D11*
X269262000Y-104664750D02*
X269262000Y-102424750D01*
X269262000Y-102424750D02*
X273502000Y-102424750D01*
X273502000Y-102424750D02*
X273502000Y-104664750D01*
X273502000Y-104664750D02*
X269262000Y-104664750D01*
X268612000Y-103544750D02*
X269262000Y-103544750D01*
X274152000Y-103544750D02*
X273502000Y-103544750D01*
X269982000Y-104664750D02*
X269982000Y-102424750D01*
X270102000Y-104664750D02*
X270102000Y-102424750D01*
X269862000Y-104664750D02*
X269862000Y-102424750D01*
D10*
X271403547Y-49354011D02*
X272779738Y-49354011D01*
X272941642Y-49434964D01*
X273022595Y-49515916D01*
X273103547Y-49677821D01*
X273103547Y-50001630D01*
X273022595Y-50163535D01*
X272941642Y-50244488D01*
X272779738Y-50325440D01*
X271403547Y-50325440D01*
X273103547Y-52025440D02*
X273103547Y-51054011D01*
X273103547Y-51539726D02*
X271403547Y-51539726D01*
X271646404Y-51377821D01*
X271808309Y-51215916D01*
X271889261Y-51054011D01*
X270077833Y-35794488D02*
X270077833Y-36604011D01*
X270563547Y-35632583D02*
X268863547Y-36199250D01*
X270563547Y-36765916D01*
X270563547Y-38304011D02*
X269754023Y-37737345D01*
X270563547Y-37332583D02*
X268863547Y-37332583D01*
X268863547Y-37980202D01*
X268944500Y-38142107D01*
X269025452Y-38223059D01*
X269187357Y-38304011D01*
X269430214Y-38304011D01*
X269592119Y-38223059D01*
X269673071Y-38142107D01*
X269754023Y-37980202D01*
X269754023Y-37332583D01*
X270563547Y-39032583D02*
X268863547Y-39032583D01*
X268863547Y-39437345D01*
X268944500Y-39680202D01*
X269106404Y-39842107D01*
X269268309Y-39923059D01*
X269592119Y-40004011D01*
X269834976Y-40004011D01*
X270158785Y-39923059D01*
X270320690Y-39842107D01*
X270482595Y-39680202D01*
X270563547Y-39437345D01*
X270563547Y-39032583D01*
X268863547Y-40732583D02*
X270239738Y-40732583D01*
X270401642Y-40813535D01*
X270482595Y-40894488D01*
X270563547Y-41056392D01*
X270563547Y-41380202D01*
X270482595Y-41542107D01*
X270401642Y-41623059D01*
X270239738Y-41704011D01*
X268863547Y-41704011D01*
X270563547Y-42513535D02*
X268863547Y-42513535D01*
X270563547Y-43323059D02*
X268863547Y-43323059D01*
X270563547Y-44294488D01*
X268863547Y-44294488D01*
X268863547Y-45427821D02*
X268863547Y-45751630D01*
X268944500Y-45913535D01*
X269106404Y-46075440D01*
X269430214Y-46156392D01*
X269996880Y-46156392D01*
X270320690Y-46075440D01*
X270482595Y-45913535D01*
X270563547Y-45751630D01*
X270563547Y-45427821D01*
X270482595Y-45265916D01*
X270320690Y-45104011D01*
X269996880Y-45023059D01*
X269430214Y-45023059D01*
X269106404Y-45104011D01*
X268944500Y-45265916D01*
X268863547Y-45427821D01*
X270725452Y-46480202D02*
X270725452Y-47775440D01*
X270563547Y-48180202D02*
X268863547Y-48180202D01*
X270077833Y-48746869D01*
X268863547Y-49313535D01*
X270563547Y-49313535D01*
X270563547Y-50123059D02*
X268863547Y-50123059D01*
X270401642Y-51904011D02*
X270482595Y-51823059D01*
X270563547Y-51580202D01*
X270563547Y-51418297D01*
X270482595Y-51175440D01*
X270320690Y-51013535D01*
X270158785Y-50932583D01*
X269834976Y-50851630D01*
X269592119Y-50851630D01*
X269268309Y-50932583D01*
X269106404Y-51013535D01*
X268944500Y-51175440D01*
X268863547Y-51418297D01*
X268863547Y-51580202D01*
X268944500Y-51823059D01*
X269025452Y-51904011D01*
X270563547Y-53604011D02*
X269754023Y-53037345D01*
X270563547Y-52632583D02*
X268863547Y-52632583D01*
X268863547Y-53280202D01*
X268944500Y-53442107D01*
X269025452Y-53523059D01*
X269187357Y-53604011D01*
X269430214Y-53604011D01*
X269592119Y-53523059D01*
X269673071Y-53442107D01*
X269754023Y-53280202D01*
X269754023Y-52632583D01*
X268863547Y-54656392D02*
X268863547Y-54980202D01*
X268944500Y-55142107D01*
X269106404Y-55304011D01*
X269430214Y-55384964D01*
X269996880Y-55384964D01*
X270320690Y-55304011D01*
X270482595Y-55142107D01*
X270563547Y-54980202D01*
X270563547Y-54656392D01*
X270482595Y-54494488D01*
X270320690Y-54332583D01*
X269996880Y-54251630D01*
X269430214Y-54251630D01*
X269106404Y-54332583D01*
X268944500Y-54494488D01*
X268863547Y-54656392D01*
X270725452Y-55708773D02*
X270725452Y-57004011D01*
X270482595Y-57327821D02*
X270563547Y-57570678D01*
X270563547Y-57975440D01*
X270482595Y-58137345D01*
X270401642Y-58218297D01*
X270239738Y-58299250D01*
X270077833Y-58299250D01*
X269915928Y-58218297D01*
X269834976Y-58137345D01*
X269754023Y-57975440D01*
X269673071Y-57651630D01*
X269592119Y-57489726D01*
X269511166Y-57408773D01*
X269349261Y-57327821D01*
X269187357Y-57327821D01*
X269025452Y-57408773D01*
X268944500Y-57489726D01*
X268863547Y-57651630D01*
X268863547Y-58056392D01*
X268944500Y-58299250D01*
X270563547Y-59027821D02*
X268863547Y-59027821D01*
X269673071Y-59027821D02*
X269673071Y-59999250D01*
X270563547Y-59999250D02*
X268863547Y-59999250D01*
X270563547Y-60808773D02*
X268863547Y-60808773D01*
X269673071Y-61618297D02*
X269673071Y-62184964D01*
X270563547Y-62427821D02*
X270563547Y-61618297D01*
X268863547Y-61618297D01*
X268863547Y-62427821D01*
X270563547Y-63965916D02*
X270563547Y-63156392D01*
X268863547Y-63156392D01*
X270563547Y-64532583D02*
X268863547Y-64532583D01*
X268863547Y-64937345D01*
X268944500Y-65180202D01*
X269106404Y-65342107D01*
X269268309Y-65423059D01*
X269592119Y-65504011D01*
X269834976Y-65504011D01*
X270158785Y-65423059D01*
X270320690Y-65342107D01*
X270482595Y-65180202D01*
X270563547Y-64937345D01*
X270563547Y-64532583D01*
X272326404Y-29781630D02*
X272326404Y-30591154D01*
X272278785Y-30686392D01*
X272231166Y-30734011D01*
X272135928Y-30781630D01*
X271945452Y-30781630D01*
X271850214Y-30734011D01*
X271802595Y-30686392D01*
X271754976Y-30591154D01*
X271754976Y-29781630D01*
X271326404Y-30734011D02*
X271183547Y-30781630D01*
X270945452Y-30781630D01*
X270850214Y-30734011D01*
X270802595Y-30686392D01*
X270754976Y-30591154D01*
X270754976Y-30495916D01*
X270802595Y-30400678D01*
X270850214Y-30353059D01*
X270945452Y-30305440D01*
X271135928Y-30257821D01*
X271231166Y-30210202D01*
X271278785Y-30162583D01*
X271326404Y-30067345D01*
X271326404Y-29972107D01*
X271278785Y-29876869D01*
X271231166Y-29829250D01*
X271135928Y-29781630D01*
X270897833Y-29781630D01*
X270754976Y-29829250D01*
X269993071Y-30257821D02*
X269850214Y-30305440D01*
X269802595Y-30353059D01*
X269754976Y-30448297D01*
X269754976Y-30591154D01*
X269802595Y-30686392D01*
X269850214Y-30734011D01*
X269945452Y-30781630D01*
X270326404Y-30781630D01*
X270326404Y-29781630D01*
X269993071Y-29781630D01*
X269897833Y-29829250D01*
X269850214Y-29876869D01*
X269802595Y-29972107D01*
X269802595Y-30067345D01*
X269850214Y-30162583D01*
X269897833Y-30210202D01*
X269993071Y-30257821D01*
X270326404Y-30257821D01*
X271980630Y-77084630D02*
X271790154Y-77084630D01*
X271694916Y-77132250D01*
X271599678Y-77227488D01*
X271552059Y-77417964D01*
X271552059Y-77751297D01*
X271599678Y-77941773D01*
X271694916Y-78037011D01*
X271790154Y-78084630D01*
X271980630Y-78084630D01*
X272075869Y-78037011D01*
X272171107Y-77941773D01*
X272218726Y-77751297D01*
X272218726Y-77417964D01*
X272171107Y-77227488D01*
X272075869Y-77132250D01*
X271980630Y-77084630D01*
X270647297Y-78084630D02*
X271123488Y-78084630D01*
X271123488Y-77084630D01*
X270313964Y-77560821D02*
X269980630Y-77560821D01*
X269837773Y-78084630D02*
X270313964Y-78084630D01*
X270313964Y-77084630D01*
X269837773Y-77084630D01*
X269409202Y-78084630D02*
X269409202Y-77084630D01*
X269171107Y-77084630D01*
X269028250Y-77132250D01*
X268933011Y-77227488D01*
X268885392Y-77322726D01*
X268837773Y-77513202D01*
X268837773Y-77656059D01*
X268885392Y-77846535D01*
X268933011Y-77941773D01*
X269028250Y-78037011D01*
X269171107Y-78084630D01*
X269409202Y-78084630D01*
X272596285Y-106117130D02*
X272596285Y-105117130D01*
X272358190Y-105117130D01*
X272215333Y-105164750D01*
X272120095Y-105259988D01*
X272072476Y-105355226D01*
X272024857Y-105545702D01*
X272024857Y-105688559D01*
X272072476Y-105879035D01*
X272120095Y-105974273D01*
X272215333Y-106069511D01*
X272358190Y-106117130D01*
X272596285Y-106117130D01*
X271167714Y-105450464D02*
X271167714Y-106117130D01*
X271405809Y-105069511D02*
X271643904Y-105783797D01*
X271024857Y-105783797D01*
X270596285Y-106117130D02*
X270405809Y-106117130D01*
X270310571Y-106069511D01*
X270262952Y-106021892D01*
X270167714Y-105879035D01*
X270120095Y-105688559D01*
X270120095Y-105307607D01*
X270167714Y-105212369D01*
X270215333Y-105164750D01*
X270310571Y-105117130D01*
X270501047Y-105117130D01*
X270596285Y-105164750D01*
X270643904Y-105212369D01*
X270691523Y-105307607D01*
X270691523Y-105545702D01*
X270643904Y-105640940D01*
X270596285Y-105688559D01*
X270501047Y-105736178D01*
X270310571Y-105736178D01*
X270215333Y-105688559D01*
X270167714Y-105640940D01*
X270120095Y-105545702D01*
X267833904Y-105797130D02*
X267833904Y-104797130D01*
X267262476Y-105797130D02*
X267691047Y-105225702D01*
X267262476Y-104797130D02*
X267833904Y-105368559D01*
M02*
