M48
; DRILL file {KiCad (5.1.5)-3} date 08/08/2021 04:52:43 p. m.
; FORMAT={-:-/ absolute / metric / decimal}
; #@! TF.CreationDate,2021-08-08T16:52:43-05:00
; #@! TF.GenerationSoftware,Kicad,Pcbnew,(5.1.5)-3
; #@! TF.FileFunction,NonPlated,1,2,NPTH
FMAT,2
METRIC
T1C1.500
T2C1.900
T3C3.000
T4C4.100
%
G90
G05
T2
X81.026Y-54.864
X91.186Y-54.864
X100.076Y-54.864
X110.236Y-54.864
X47.688Y-92.964
X57.848Y-92.964
X185.801Y-73.914
X195.961Y-73.914
X138.176Y-54.864
X148.336Y-54.864
X133.413Y-35.814
X143.573Y-35.814
X90.551Y-73.914
X100.711Y-73.914
X181.038Y-92.964
X191.198Y-92.964
X214.376Y-54.864
X224.536Y-54.864
X147.701Y-73.914
X157.861Y-73.914
X119.126Y-54.864
X129.286Y-54.864
X152.463Y-35.814
X162.623Y-35.814
X21.495Y-54.864
X31.655Y-54.864
X38.163Y-35.814
X48.323Y-35.814
X242.951Y-73.914
X253.111Y-73.914
X166.751Y-73.914
X176.911Y-73.914
X190.564Y-35.814
X200.724Y-35.814
X195.326Y-54.864
X205.486Y-54.864
X52.451Y-73.914
X62.611Y-73.914
X238.188Y-54.864
X248.349Y-54.864
X223.901Y-73.914
X234.061Y-73.914
X176.276Y-54.864
X186.436Y-54.864
X204.851Y-92.964
X215.011Y-92.964
X204.851Y-73.914
X215.011Y-73.914
X61.976Y-54.864
X72.136Y-54.864
X71.501Y-73.914
X81.661Y-73.914
X235.807Y-35.814
X245.967Y-35.814
X147.701Y-92.964
X157.861Y-92.964
X223.901Y-92.964
X234.061Y-92.964
X242.951Y-92.964
X253.111Y-92.964
X171.513Y-35.814
X181.673Y-35.814
X209.613Y-35.814
X219.773Y-35.814
X95.313Y-35.814
X105.474Y-35.814
X19.113Y-35.814
X29.273Y-35.814
X57.213Y-35.814
X67.373Y-35.814
X107.22Y-92.964
X117.38Y-92.964
X73.882Y-92.964
X84.042Y-92.964
X109.601Y-73.914
X119.761Y-73.914
X128.651Y-73.914
X138.811Y-73.914
X42.926Y-54.864
X53.086Y-54.864
X76.263Y-35.814
X86.423Y-35.814
X21.495Y-92.964
X31.655Y-92.964
X114.363Y-35.814
X124.523Y-35.814
X157.226Y-54.864
X167.386Y-54.864
X26.257Y-73.914
X36.417Y-73.914
T3
X182.308Y-90.424
X188.659Y-87.884
X215.646Y-52.324
X221.996Y-49.784
X148.971Y-71.374
X155.321Y-68.834
X120.396Y-52.324
X126.746Y-49.784
X153.733Y-33.274
X160.083Y-30.734
X22.765Y-52.324
X29.115Y-49.784
X39.433Y-33.274
X45.783Y-30.734
X244.221Y-71.374
X250.571Y-68.834
X168.021Y-71.374
X174.371Y-68.834
X191.833Y-33.274
X198.183Y-30.734
X196.596Y-52.324
X202.946Y-49.784
X53.721Y-71.374
X60.071Y-68.834
X239.458Y-52.324
X245.808Y-49.784
X225.171Y-71.374
X231.521Y-68.834
X177.546Y-52.324
X183.896Y-49.784
X206.121Y-90.424
X212.471Y-87.884
X206.121Y-71.374
X212.471Y-68.834
X63.246Y-52.324
X69.596Y-49.784
X72.771Y-71.374
X79.121Y-68.834
X237.077Y-33.274
X243.427Y-30.734
X148.971Y-90.424
X155.321Y-87.884
X225.171Y-90.424
X231.521Y-87.884
X244.221Y-90.424
X250.571Y-87.884
X172.784Y-33.274
X179.133Y-30.734
X210.883Y-33.274
X217.233Y-30.734
X96.584Y-33.274
X102.933Y-30.734
X20.383Y-33.274
X26.733Y-30.734
X58.483Y-33.274
X64.834Y-30.734
X108.49Y-90.424
X114.84Y-87.884
X75.152Y-90.424
X81.502Y-87.884
X110.871Y-71.374
X117.221Y-68.834
X129.921Y-71.374
X136.271Y-68.834
X44.196Y-52.324
X50.546Y-49.784
X77.533Y-33.274
X83.883Y-30.734
X22.765Y-90.424
X29.115Y-87.884
X115.633Y-33.274
X121.983Y-30.734
X158.496Y-52.324
X164.846Y-49.784
X27.527Y-71.374
X33.877Y-68.834
X82.296Y-52.324
X88.646Y-49.784
X101.346Y-52.324
X107.696Y-49.784
X48.959Y-90.424
X55.308Y-87.884
X187.071Y-71.374
X193.421Y-68.834
X139.446Y-52.324
X145.796Y-49.784
X134.683Y-33.274
X141.034Y-30.734
X91.821Y-71.374
X98.171Y-68.834
T4
X152.781Y-73.914
X124.206Y-54.864
X157.543Y-35.814
X26.575Y-54.864
X43.243Y-35.814
X248.031Y-73.914
X171.831Y-73.914
X195.643Y-35.814
X200.406Y-54.864
X57.531Y-73.914
X243.268Y-54.864
X228.981Y-73.914
X181.356Y-54.864
X209.931Y-92.964
X209.931Y-73.914
X67.056Y-54.864
X76.581Y-73.914
X240.887Y-35.814
X152.781Y-92.964
X228.981Y-92.964
X248.031Y-92.964
X176.594Y-35.814
X214.694Y-35.814
X100.393Y-35.814
X24.194Y-35.814
X62.293Y-35.814
X112.3Y-92.964
X78.962Y-92.964
X114.681Y-73.914
X133.731Y-73.914
X48.006Y-54.864
X81.343Y-35.814
X26.575Y-92.964
X119.444Y-35.814
X162.306Y-54.864
X31.337Y-73.914
X86.106Y-54.864
X105.156Y-54.864
X52.768Y-92.964
X190.881Y-73.914
X143.256Y-54.864
X138.493Y-35.814
X95.631Y-73.914
X186.118Y-92.964
X219.456Y-54.864
T1
X271.193Y-84.983G85X272.493Y-84.983
G05
X271.193Y-96.183G85X272.493Y-96.183
G05
T0
M30
