G04 #@! TF.GenerationSoftware,KiCad,Pcbnew,(5.1.5)-3*
G04 #@! TF.CreationDate,2021-08-08T16:52:41-05:00*
G04 #@! TF.ProjectId,cuarenta,63756172-656e-4746-912e-6b696361645f,rev?*
G04 #@! TF.SameCoordinates,Original*
G04 #@! TF.FileFunction,Profile,NP*
%FSLAX46Y46*%
G04 Gerber Fmt 4.6, Leading zero omitted, Abs format (unit mm)*
G04 Created by KiCad (PCBNEW (5.1.5)-3) date 2021-08-08 16:52:41*
%MOMM*%
%LPD*%
G04 APERTURE LIST*
%ADD10C,0.050000*%
%ADD11C,0.120000*%
G04 APERTURE END LIST*
D10*
X50006250Y-19843750D02*
X22225000Y-19843750D01*
X142081250Y-19843750D02*
X50006250Y-19843750D01*
X197643750Y-19843750D02*
X142081250Y-19843750D01*
X242093750Y-19843750D02*
X197643750Y-19843750D01*
X274637500Y-19843750D02*
X242093750Y-19843750D01*
X13493750Y-28575000D02*
G75*
G02X22225000Y-19843750I8731250J0D01*
G01*
X274637500Y-19843750D02*
G75*
G02X283368750Y-28575000I0J-8731250D01*
G01*
X283368750Y-96043750D02*
X283368750Y-28575000D01*
X13493750Y-96043750D02*
X13493750Y-28575000D01*
X22225000Y-104775000D02*
X274637500Y-104775000D01*
X22225000Y-104775000D02*
G75*
G02X13493750Y-96043750I0J8731250D01*
G01*
X283368750Y-96043750D02*
G75*
G02X274637500Y-104775000I-8731250J0D01*
G01*
D11*
X249831000Y-96144750D02*
X249831000Y-99244750D01*
X249831000Y-99244750D02*
X246231000Y-99244750D01*
X246231000Y-99244750D02*
X246231000Y-96144750D01*
X246231000Y-96144750D02*
X249831000Y-96144750D01*
X246231000Y-80194750D02*
X246231000Y-77094750D01*
X246231000Y-77094750D02*
X249831000Y-77094750D01*
X249831000Y-77094750D02*
X249831000Y-80194750D01*
X249831000Y-80194750D02*
X246231000Y-80194750D01*
X245068500Y-58044750D02*
X245068500Y-61144750D01*
X245068500Y-61144750D02*
X241468500Y-61144750D01*
X241468500Y-61144750D02*
X241468500Y-58044750D01*
X241468500Y-58044750D02*
X245068500Y-58044750D01*
X242687250Y-38994750D02*
X242687250Y-42094750D01*
X242687250Y-42094750D02*
X239087250Y-42094750D01*
X239087250Y-42094750D02*
X239087250Y-38994750D01*
X239087250Y-38994750D02*
X242687250Y-38994750D01*
X230781000Y-96144750D02*
X230781000Y-99244750D01*
X230781000Y-99244750D02*
X227181000Y-99244750D01*
X227181000Y-99244750D02*
X227181000Y-96144750D01*
X227181000Y-96144750D02*
X230781000Y-96144750D01*
X227181000Y-80194750D02*
X227181000Y-77094750D01*
X227181000Y-77094750D02*
X230781000Y-77094750D01*
X230781000Y-77094750D02*
X230781000Y-80194750D01*
X230781000Y-80194750D02*
X227181000Y-80194750D01*
X221256000Y-58044750D02*
X221256000Y-61144750D01*
X221256000Y-61144750D02*
X217656000Y-61144750D01*
X217656000Y-61144750D02*
X217656000Y-58044750D01*
X217656000Y-58044750D02*
X221256000Y-58044750D01*
X216493500Y-38994750D02*
X216493500Y-42094750D01*
X216493500Y-42094750D02*
X212893500Y-42094750D01*
X212893500Y-42094750D02*
X212893500Y-38994750D01*
X212893500Y-38994750D02*
X216493500Y-38994750D01*
X211731000Y-96144750D02*
X211731000Y-99244750D01*
X211731000Y-99244750D02*
X208131000Y-99244750D01*
X208131000Y-99244750D02*
X208131000Y-96144750D01*
X208131000Y-96144750D02*
X211731000Y-96144750D01*
X208131000Y-80194750D02*
X208131000Y-77094750D01*
X208131000Y-77094750D02*
X211731000Y-77094750D01*
X211731000Y-77094750D02*
X211731000Y-80194750D01*
X211731000Y-80194750D02*
X208131000Y-80194750D01*
X202206000Y-58044750D02*
X202206000Y-61144750D01*
X202206000Y-61144750D02*
X198606000Y-61144750D01*
X198606000Y-61144750D02*
X198606000Y-58044750D01*
X198606000Y-58044750D02*
X202206000Y-58044750D01*
X197443500Y-38994750D02*
X197443500Y-42094750D01*
X197443500Y-42094750D02*
X193843500Y-42094750D01*
X193843500Y-42094750D02*
X193843500Y-38994750D01*
X193843500Y-38994750D02*
X197443500Y-38994750D01*
X187918500Y-96144750D02*
X187918500Y-99244750D01*
X187918500Y-99244750D02*
X184318500Y-99244750D01*
X184318500Y-99244750D02*
X184318500Y-96144750D01*
X184318500Y-96144750D02*
X187918500Y-96144750D01*
X189081000Y-80194750D02*
X189081000Y-77094750D01*
X189081000Y-77094750D02*
X192681000Y-77094750D01*
X192681000Y-77094750D02*
X192681000Y-80194750D01*
X192681000Y-80194750D02*
X189081000Y-80194750D01*
X183156000Y-58044750D02*
X183156000Y-61144750D01*
X183156000Y-61144750D02*
X179556000Y-61144750D01*
X179556000Y-61144750D02*
X179556000Y-58044750D01*
X179556000Y-58044750D02*
X183156000Y-58044750D01*
X178393500Y-38994750D02*
X178393500Y-42094750D01*
X178393500Y-42094750D02*
X174793500Y-42094750D01*
X174793500Y-42094750D02*
X174793500Y-38994750D01*
X174793500Y-38994750D02*
X178393500Y-38994750D01*
X154581000Y-96144750D02*
X154581000Y-99244750D01*
X154581000Y-99244750D02*
X150981000Y-99244750D01*
X150981000Y-99244750D02*
X150981000Y-96144750D01*
X150981000Y-96144750D02*
X154581000Y-96144750D01*
X170031000Y-80194750D02*
X170031000Y-77094750D01*
X170031000Y-77094750D02*
X173631000Y-77094750D01*
X173631000Y-77094750D02*
X173631000Y-80194750D01*
X173631000Y-80194750D02*
X170031000Y-80194750D01*
X164106000Y-58044750D02*
X164106000Y-61144750D01*
X164106000Y-61144750D02*
X160506000Y-61144750D01*
X160506000Y-61144750D02*
X160506000Y-58044750D01*
X160506000Y-58044750D02*
X164106000Y-58044750D01*
X159343500Y-38994750D02*
X159343500Y-42094750D01*
X159343500Y-42094750D02*
X155743500Y-42094750D01*
X155743500Y-42094750D02*
X155743500Y-38994750D01*
X155743500Y-38994750D02*
X159343500Y-38994750D01*
X114099750Y-96144750D02*
X114099750Y-99244750D01*
X114099750Y-99244750D02*
X110499750Y-99244750D01*
X110499750Y-99244750D02*
X110499750Y-96144750D01*
X110499750Y-96144750D02*
X114099750Y-96144750D01*
X150981000Y-80194750D02*
X150981000Y-77094750D01*
X150981000Y-77094750D02*
X154581000Y-77094750D01*
X154581000Y-77094750D02*
X154581000Y-80194750D01*
X154581000Y-80194750D02*
X150981000Y-80194750D01*
X145056000Y-58044750D02*
X145056000Y-61144750D01*
X145056000Y-61144750D02*
X141456000Y-61144750D01*
X141456000Y-61144750D02*
X141456000Y-58044750D01*
X141456000Y-58044750D02*
X145056000Y-58044750D01*
X140293500Y-38994750D02*
X140293500Y-42094750D01*
X140293500Y-42094750D02*
X136693500Y-42094750D01*
X136693500Y-42094750D02*
X136693500Y-38994750D01*
X136693500Y-38994750D02*
X140293500Y-38994750D01*
X80762250Y-96144750D02*
X80762250Y-99244750D01*
X80762250Y-99244750D02*
X77162250Y-99244750D01*
X77162250Y-99244750D02*
X77162250Y-96144750D01*
X77162250Y-96144750D02*
X80762250Y-96144750D01*
X131931000Y-80194750D02*
X131931000Y-77094750D01*
X131931000Y-77094750D02*
X135531000Y-77094750D01*
X135531000Y-77094750D02*
X135531000Y-80194750D01*
X135531000Y-80194750D02*
X131931000Y-80194750D01*
X126006000Y-58044750D02*
X126006000Y-61144750D01*
X126006000Y-61144750D02*
X122406000Y-61144750D01*
X122406000Y-61144750D02*
X122406000Y-58044750D01*
X122406000Y-58044750D02*
X126006000Y-58044750D01*
X121243500Y-38994750D02*
X121243500Y-42094750D01*
X121243500Y-42094750D02*
X117643500Y-42094750D01*
X117643500Y-42094750D02*
X117643500Y-38994750D01*
X117643500Y-38994750D02*
X121243500Y-38994750D01*
X54568500Y-96144750D02*
X54568500Y-99244750D01*
X54568500Y-99244750D02*
X50968500Y-99244750D01*
X50968500Y-99244750D02*
X50968500Y-96144750D01*
X50968500Y-96144750D02*
X54568500Y-96144750D01*
X112881000Y-80194750D02*
X112881000Y-77094750D01*
X112881000Y-77094750D02*
X116481000Y-77094750D01*
X116481000Y-77094750D02*
X116481000Y-80194750D01*
X116481000Y-80194750D02*
X112881000Y-80194750D01*
X106956000Y-58044750D02*
X106956000Y-61144750D01*
X106956000Y-61144750D02*
X103356000Y-61144750D01*
X103356000Y-61144750D02*
X103356000Y-58044750D01*
X103356000Y-58044750D02*
X106956000Y-58044750D01*
X102193500Y-38994750D02*
X102193500Y-42094750D01*
X102193500Y-42094750D02*
X98593500Y-42094750D01*
X98593500Y-42094750D02*
X98593500Y-38994750D01*
X98593500Y-38994750D02*
X102193500Y-38994750D01*
X28374750Y-96144750D02*
X28374750Y-99244750D01*
X28374750Y-99244750D02*
X24774750Y-99244750D01*
X24774750Y-99244750D02*
X24774750Y-96144750D01*
X24774750Y-96144750D02*
X28374750Y-96144750D01*
X93831000Y-80194750D02*
X93831000Y-77094750D01*
X93831000Y-77094750D02*
X97431000Y-77094750D01*
X97431000Y-77094750D02*
X97431000Y-80194750D01*
X97431000Y-80194750D02*
X93831000Y-80194750D01*
X87906000Y-58044750D02*
X87906000Y-61144750D01*
X87906000Y-61144750D02*
X84306000Y-61144750D01*
X84306000Y-61144750D02*
X84306000Y-58044750D01*
X84306000Y-58044750D02*
X87906000Y-58044750D01*
X83143500Y-38994750D02*
X83143500Y-42094750D01*
X83143500Y-42094750D02*
X79543500Y-42094750D01*
X79543500Y-42094750D02*
X79543500Y-38994750D01*
X79543500Y-38994750D02*
X83143500Y-38994750D01*
X74781000Y-80194750D02*
X74781000Y-77094750D01*
X74781000Y-77094750D02*
X78381000Y-77094750D01*
X78381000Y-77094750D02*
X78381000Y-80194750D01*
X78381000Y-80194750D02*
X74781000Y-80194750D01*
X68856000Y-58044750D02*
X68856000Y-61144750D01*
X68856000Y-61144750D02*
X65256000Y-61144750D01*
X65256000Y-61144750D02*
X65256000Y-58044750D01*
X65256000Y-58044750D02*
X68856000Y-58044750D01*
X64093500Y-38994750D02*
X64093500Y-42094750D01*
X64093500Y-42094750D02*
X60493500Y-42094750D01*
X60493500Y-42094750D02*
X60493500Y-38994750D01*
X60493500Y-38994750D02*
X64093500Y-38994750D01*
X55731000Y-80194750D02*
X55731000Y-77094750D01*
X55731000Y-77094750D02*
X59331000Y-77094750D01*
X59331000Y-77094750D02*
X59331000Y-80194750D01*
X59331000Y-80194750D02*
X55731000Y-80194750D01*
X49806000Y-58044750D02*
X49806000Y-61144750D01*
X49806000Y-61144750D02*
X46206000Y-61144750D01*
X46206000Y-61144750D02*
X46206000Y-58044750D01*
X46206000Y-58044750D02*
X49806000Y-58044750D01*
X45043500Y-38994750D02*
X45043500Y-42094750D01*
X45043500Y-42094750D02*
X41443500Y-42094750D01*
X41443500Y-42094750D02*
X41443500Y-38994750D01*
X41443500Y-38994750D02*
X45043500Y-38994750D01*
X29537250Y-80194750D02*
X29537250Y-77094750D01*
X29537250Y-77094750D02*
X33137250Y-77094750D01*
X33137250Y-77094750D02*
X33137250Y-80194750D01*
X33137250Y-80194750D02*
X29537250Y-80194750D01*
X28374750Y-58044750D02*
X28374750Y-61144750D01*
X28374750Y-61144750D02*
X24774750Y-61144750D01*
X24774750Y-61144750D02*
X24774750Y-58044750D01*
X24774750Y-58044750D02*
X28374750Y-58044750D01*
X25993500Y-38994750D02*
X25993500Y-42094750D01*
X25993500Y-42094750D02*
X22393500Y-42094750D01*
X22393500Y-42094750D02*
X22393500Y-38994750D01*
X22393500Y-38994750D02*
X25993500Y-38994750D01*
M02*
