G04 #@! TF.GenerationSoftware,KiCad,Pcbnew,(5.1.5)-3*
G04 #@! TF.CreationDate,2021-08-08T16:52:41-05:00*
G04 #@! TF.ProjectId,cuarenta,63756172-656e-4746-912e-6b696361645f,rev?*
G04 #@! TF.SameCoordinates,Original*
G04 #@! TF.FileFunction,Legend,Bot*
G04 #@! TF.FilePolarity,Positive*
%FSLAX46Y46*%
G04 Gerber Fmt 4.6, Leading zero omitted, Abs format (unit mm)*
G04 Created by KiCad (PCBNEW (5.1.5)-3) date 2021-08-08 16:52:41*
%MOMM*%
%LPD*%
G04 APERTURE LIST*
%ADD10C,0.300000*%
%ADD11C,0.800000*%
%ADD12C,3.000000*%
%ADD13C,0.500000*%
%ADD14C,1.000000*%
%ADD15C,3.500000*%
%ADD16C,0.150000*%
%ADD17C,0.400000*%
%ADD18C,0.120000*%
G04 APERTURE END LIST*
D10*
X237468500Y-50814000D02*
X237468500Y-50164000D01*
D11*
X237968500Y-53264000D02*
X237968500Y-51464001D01*
D12*
X239098500Y-49764000D02*
X239098500Y-52004000D01*
D13*
X247468500Y-51614000D02*
X246168500Y-51564000D01*
D14*
X247168500Y-48864000D02*
X247168500Y-51364000D01*
D15*
X245868500Y-50064000D02*
X239168500Y-50064000D01*
D16*
X247668500Y-51864000D02*
X247668500Y-48264000D01*
X247648500Y-50864000D02*
X247648500Y-48614000D01*
X237368500Y-50914000D02*
X237568500Y-50914000D01*
X237618500Y-49314000D02*
X237618500Y-53764000D01*
X237368500Y-50164000D02*
X237368500Y-50914000D01*
X237618500Y-53764000D02*
X240648500Y-53764000D01*
X242868500Y-51864000D02*
X247668500Y-51864000D01*
X247668500Y-48264000D02*
X239468499Y-48264000D01*
X240652182Y-53742529D02*
G75*
G02X242868500Y-51864000I2151318J-291471D01*
G01*
X237368500Y-50164001D02*
G75*
G02X239468499Y-48264000I2000000J-99999D01*
G01*
D14*
X240252182Y-53342529D02*
G75*
G02X242468500Y-51464000I2151318J-291471D01*
G01*
D13*
X237818500Y-53564000D02*
X240268500Y-53564000D01*
D17*
X247518500Y-48464000D02*
X246268500Y-48464000D01*
D10*
X235087250Y-31764000D02*
X235087250Y-31114000D01*
D11*
X235587250Y-34214000D02*
X235587250Y-32414001D01*
D12*
X236717250Y-30714000D02*
X236717250Y-32954000D01*
D13*
X245087250Y-32564000D02*
X243787250Y-32514000D01*
D14*
X244787250Y-29814000D02*
X244787250Y-32314000D01*
D15*
X243487250Y-31014000D02*
X236787250Y-31014000D01*
D16*
X245287250Y-32814000D02*
X245287250Y-29214000D01*
X245267250Y-31814000D02*
X245267250Y-29564000D01*
X234987250Y-31864000D02*
X235187250Y-31864000D01*
X235237250Y-30264000D02*
X235237250Y-34714000D01*
X234987250Y-31114000D02*
X234987250Y-31864000D01*
X235237250Y-34714000D02*
X238267250Y-34714000D01*
X240487250Y-32814000D02*
X245287250Y-32814000D01*
X245287250Y-29214000D02*
X237087249Y-29214000D01*
X238270932Y-34692529D02*
G75*
G02X240487250Y-32814000I2151318J-291471D01*
G01*
X234987250Y-31114001D02*
G75*
G02X237087249Y-29214000I2000000J-99999D01*
G01*
D14*
X237870932Y-34292529D02*
G75*
G02X240087250Y-32414000I2151318J-291471D01*
G01*
D13*
X235437250Y-34514000D02*
X237887250Y-34514000D01*
D17*
X245137250Y-29414000D02*
X243887250Y-29414000D01*
D10*
X180318500Y-88914000D02*
X180318500Y-88264000D01*
D11*
X180818500Y-91364000D02*
X180818500Y-89564001D01*
D12*
X181948500Y-87864000D02*
X181948500Y-90104000D01*
D13*
X190318500Y-89714000D02*
X189018500Y-89664000D01*
D14*
X190018500Y-86964000D02*
X190018500Y-89464000D01*
D15*
X188718500Y-88164000D02*
X182018500Y-88164000D01*
D16*
X190518500Y-89964000D02*
X190518500Y-86364000D01*
X190498500Y-88964000D02*
X190498500Y-86714000D01*
X180218500Y-89014000D02*
X180418500Y-89014000D01*
X180468500Y-87414000D02*
X180468500Y-91864000D01*
X180218500Y-88264000D02*
X180218500Y-89014000D01*
X180468500Y-91864000D02*
X183498500Y-91864000D01*
X185718500Y-89964000D02*
X190518500Y-89964000D01*
X190518500Y-86364000D02*
X182318499Y-86364000D01*
X183502182Y-91842529D02*
G75*
G02X185718500Y-89964000I2151318J-291471D01*
G01*
X180218500Y-88264001D02*
G75*
G02X182318499Y-86364000I2000000J-99999D01*
G01*
D14*
X183102182Y-91442529D02*
G75*
G02X185318500Y-89564000I2151318J-291471D01*
G01*
D13*
X180668500Y-91664000D02*
X183118500Y-91664000D01*
D17*
X190368500Y-86564000D02*
X189118500Y-86564000D01*
D10*
X146981000Y-88914000D02*
X146981000Y-88264000D01*
D11*
X147481000Y-91364000D02*
X147481000Y-89564001D01*
D12*
X148611000Y-87864000D02*
X148611000Y-90104000D01*
D13*
X156981000Y-89714000D02*
X155681000Y-89664000D01*
D14*
X156681000Y-86964000D02*
X156681000Y-89464000D01*
D15*
X155381000Y-88164000D02*
X148681000Y-88164000D01*
D16*
X157181000Y-89964000D02*
X157181000Y-86364000D01*
X157161000Y-88964000D02*
X157161000Y-86714000D01*
X146881000Y-89014000D02*
X147081000Y-89014000D01*
X147131000Y-87414000D02*
X147131000Y-91864000D01*
X146881000Y-88264000D02*
X146881000Y-89014000D01*
X147131000Y-91864000D02*
X150161000Y-91864000D01*
X152381000Y-89964000D02*
X157181000Y-89964000D01*
X157181000Y-86364000D02*
X148980999Y-86364000D01*
X150164682Y-91842529D02*
G75*
G02X152381000Y-89964000I2151318J-291471D01*
G01*
X146881000Y-88264001D02*
G75*
G02X148980999Y-86364000I2000000J-99999D01*
G01*
D14*
X149764682Y-91442529D02*
G75*
G02X151981000Y-89564000I2151318J-291471D01*
G01*
D13*
X147331000Y-91664000D02*
X149781000Y-91664000D01*
D17*
X157031000Y-86564000D02*
X155781000Y-86564000D01*
D10*
X106499750Y-88914000D02*
X106499750Y-88264000D01*
D11*
X106999750Y-91364000D02*
X106999750Y-89564001D01*
D12*
X108129750Y-87864000D02*
X108129750Y-90104000D01*
D13*
X116499750Y-89714000D02*
X115199750Y-89664000D01*
D14*
X116199750Y-86964000D02*
X116199750Y-89464000D01*
D15*
X114899750Y-88164000D02*
X108199750Y-88164000D01*
D16*
X116699750Y-89964000D02*
X116699750Y-86364000D01*
X116679750Y-88964000D02*
X116679750Y-86714000D01*
X106399750Y-89014000D02*
X106599750Y-89014000D01*
X106649750Y-87414000D02*
X106649750Y-91864000D01*
X106399750Y-88264000D02*
X106399750Y-89014000D01*
X106649750Y-91864000D02*
X109679750Y-91864000D01*
X111899750Y-89964000D02*
X116699750Y-89964000D01*
X116699750Y-86364000D02*
X108499749Y-86364000D01*
X109683432Y-91842529D02*
G75*
G02X111899750Y-89964000I2151318J-291471D01*
G01*
X106399750Y-88264001D02*
G75*
G02X108499749Y-86364000I2000000J-99999D01*
G01*
D14*
X109283432Y-91442529D02*
G75*
G02X111499750Y-89564000I2151318J-291471D01*
G01*
D13*
X106849750Y-91664000D02*
X109299750Y-91664000D01*
D17*
X116549750Y-86564000D02*
X115299750Y-86564000D01*
D10*
X73162250Y-88914000D02*
X73162250Y-88264000D01*
D11*
X73662250Y-91364000D02*
X73662250Y-89564001D01*
D12*
X74792250Y-87864000D02*
X74792250Y-90104000D01*
D13*
X83162250Y-89714000D02*
X81862250Y-89664000D01*
D14*
X82862250Y-86964000D02*
X82862250Y-89464000D01*
D15*
X81562250Y-88164000D02*
X74862250Y-88164000D01*
D16*
X83362250Y-89964000D02*
X83362250Y-86364000D01*
X83342250Y-88964000D02*
X83342250Y-86714000D01*
X73062250Y-89014000D02*
X73262250Y-89014000D01*
X73312250Y-87414000D02*
X73312250Y-91864000D01*
X73062250Y-88264000D02*
X73062250Y-89014000D01*
X73312250Y-91864000D02*
X76342250Y-91864000D01*
X78562250Y-89964000D02*
X83362250Y-89964000D01*
X83362250Y-86364000D02*
X75162249Y-86364000D01*
X76345932Y-91842529D02*
G75*
G02X78562250Y-89964000I2151318J-291471D01*
G01*
X73062250Y-88264001D02*
G75*
G02X75162249Y-86364000I2000000J-99999D01*
G01*
D14*
X75945932Y-91442529D02*
G75*
G02X78162250Y-89564000I2151318J-291471D01*
G01*
D13*
X73512250Y-91664000D02*
X75962250Y-91664000D01*
D17*
X83212250Y-86564000D02*
X81962250Y-86564000D01*
D10*
X46968500Y-88914000D02*
X46968500Y-88264000D01*
D11*
X47468500Y-91364000D02*
X47468500Y-89564001D01*
D12*
X48598500Y-87864000D02*
X48598500Y-90104000D01*
D13*
X56968500Y-89714000D02*
X55668500Y-89664000D01*
D14*
X56668500Y-86964000D02*
X56668500Y-89464000D01*
D15*
X55368500Y-88164000D02*
X48668500Y-88164000D01*
D16*
X57168500Y-89964000D02*
X57168500Y-86364000D01*
X57148500Y-88964000D02*
X57148500Y-86714000D01*
X46868500Y-89014000D02*
X47068500Y-89014000D01*
X47118500Y-87414000D02*
X47118500Y-91864000D01*
X46868500Y-88264000D02*
X46868500Y-89014000D01*
X47118500Y-91864000D02*
X50148500Y-91864000D01*
X52368500Y-89964000D02*
X57168500Y-89964000D01*
X57168500Y-86364000D02*
X48968499Y-86364000D01*
X50152182Y-91842529D02*
G75*
G02X52368500Y-89964000I2151318J-291471D01*
G01*
X46868500Y-88264001D02*
G75*
G02X48968499Y-86364000I2000000J-99999D01*
G01*
D14*
X49752182Y-91442529D02*
G75*
G02X51968500Y-89564000I2151318J-291471D01*
G01*
D13*
X47318500Y-91664000D02*
X49768500Y-91664000D01*
D17*
X57018500Y-86564000D02*
X55768500Y-86564000D01*
D10*
X20774750Y-88914000D02*
X20774750Y-88264000D01*
D11*
X21274750Y-91364000D02*
X21274750Y-89564001D01*
D12*
X22404750Y-87864000D02*
X22404750Y-90104000D01*
D13*
X30774750Y-89714000D02*
X29474750Y-89664000D01*
D14*
X30474750Y-86964000D02*
X30474750Y-89464000D01*
D15*
X29174750Y-88164000D02*
X22474750Y-88164000D01*
D16*
X30974750Y-89964000D02*
X30974750Y-86364000D01*
X30954750Y-88964000D02*
X30954750Y-86714000D01*
X20674750Y-89014000D02*
X20874750Y-89014000D01*
X20924750Y-87414000D02*
X20924750Y-91864000D01*
X20674750Y-88264000D02*
X20674750Y-89014000D01*
X20924750Y-91864000D02*
X23954750Y-91864000D01*
X26174750Y-89964000D02*
X30974750Y-89964000D01*
X30974750Y-86364000D02*
X22774749Y-86364000D01*
X23958432Y-91842529D02*
G75*
G02X26174750Y-89964000I2151318J-291471D01*
G01*
X20674750Y-88264001D02*
G75*
G02X22774749Y-86364000I2000000J-99999D01*
G01*
D14*
X23558432Y-91442529D02*
G75*
G02X25774750Y-89564000I2151318J-291471D01*
G01*
D13*
X21124750Y-91664000D02*
X23574750Y-91664000D01*
D17*
X30824750Y-86564000D02*
X29574750Y-86564000D01*
D10*
X25537250Y-69864000D02*
X25537250Y-69214000D01*
D11*
X26037250Y-72314000D02*
X26037250Y-70514001D01*
D12*
X27167250Y-68814000D02*
X27167250Y-71054000D01*
D13*
X35537250Y-70664000D02*
X34237250Y-70614000D01*
D14*
X35237250Y-67914000D02*
X35237250Y-70414000D01*
D15*
X33937250Y-69114000D02*
X27237250Y-69114000D01*
D16*
X35737250Y-70914000D02*
X35737250Y-67314000D01*
X35717250Y-69914000D02*
X35717250Y-67664000D01*
X25437250Y-69964000D02*
X25637250Y-69964000D01*
X25687250Y-68364000D02*
X25687250Y-72814000D01*
X25437250Y-69214000D02*
X25437250Y-69964000D01*
X25687250Y-72814000D02*
X28717250Y-72814000D01*
X30937250Y-70914000D02*
X35737250Y-70914000D01*
X35737250Y-67314000D02*
X27537249Y-67314000D01*
X28720932Y-72792529D02*
G75*
G02X30937250Y-70914000I2151318J-291471D01*
G01*
X25437250Y-69214001D02*
G75*
G02X27537249Y-67314000I2000000J-99999D01*
G01*
D14*
X28320932Y-72392529D02*
G75*
G02X30537250Y-70514000I2151318J-291471D01*
G01*
D13*
X25887250Y-72614000D02*
X28337250Y-72614000D01*
D17*
X35587250Y-67514000D02*
X34337250Y-67514000D01*
D10*
X20774750Y-50814000D02*
X20774750Y-50164000D01*
D11*
X21274750Y-53264000D02*
X21274750Y-51464001D01*
D12*
X22404750Y-49764000D02*
X22404750Y-52004000D01*
D13*
X30774750Y-51614000D02*
X29474750Y-51564000D01*
D14*
X30474750Y-48864000D02*
X30474750Y-51364000D01*
D15*
X29174750Y-50064000D02*
X22474750Y-50064000D01*
D16*
X30974750Y-51864000D02*
X30974750Y-48264000D01*
X30954750Y-50864000D02*
X30954750Y-48614000D01*
X20674750Y-50914000D02*
X20874750Y-50914000D01*
X20924750Y-49314000D02*
X20924750Y-53764000D01*
X20674750Y-50164000D02*
X20674750Y-50914000D01*
X20924750Y-53764000D02*
X23954750Y-53764000D01*
X26174750Y-51864000D02*
X30974750Y-51864000D01*
X30974750Y-48264000D02*
X22774749Y-48264000D01*
X23958432Y-53742529D02*
G75*
G02X26174750Y-51864000I2151318J-291471D01*
G01*
X20674750Y-50164001D02*
G75*
G02X22774749Y-48264000I2000000J-99999D01*
G01*
D14*
X23558432Y-53342529D02*
G75*
G02X25774750Y-51464000I2151318J-291471D01*
G01*
D13*
X21124750Y-53564000D02*
X23574750Y-53564000D01*
D17*
X30824750Y-48464000D02*
X29574750Y-48464000D01*
D18*
X251931000Y-99544750D02*
X244131000Y-99544750D01*
X244131000Y-95844750D02*
X251931000Y-95844750D01*
X251931000Y-97944750D02*
X251931000Y-99544750D01*
X244131000Y-76794750D02*
X251931000Y-76794750D01*
X251931000Y-80494750D02*
X244131000Y-80494750D01*
X244131000Y-78394750D02*
X244131000Y-76794750D01*
X247168500Y-61444750D02*
X239368500Y-61444750D01*
X239368500Y-57744750D02*
X247168500Y-57744750D01*
X247168500Y-59844750D02*
X247168500Y-61444750D01*
X244787250Y-42394750D02*
X236987250Y-42394750D01*
X236987250Y-38694750D02*
X244787250Y-38694750D01*
X244787250Y-40794750D02*
X244787250Y-42394750D01*
X232881000Y-99544750D02*
X225081000Y-99544750D01*
X225081000Y-95844750D02*
X232881000Y-95844750D01*
X232881000Y-97944750D02*
X232881000Y-99544750D01*
X225081000Y-76794750D02*
X232881000Y-76794750D01*
X232881000Y-80494750D02*
X225081000Y-80494750D01*
X225081000Y-78394750D02*
X225081000Y-76794750D01*
X223356000Y-61444750D02*
X215556000Y-61444750D01*
X215556000Y-57744750D02*
X223356000Y-57744750D01*
X223356000Y-59844750D02*
X223356000Y-61444750D01*
X218593500Y-42394750D02*
X210793500Y-42394750D01*
X210793500Y-38694750D02*
X218593500Y-38694750D01*
X218593500Y-40794750D02*
X218593500Y-42394750D01*
X213831000Y-99544750D02*
X206031000Y-99544750D01*
X206031000Y-95844750D02*
X213831000Y-95844750D01*
X213831000Y-97944750D02*
X213831000Y-99544750D01*
X206031000Y-76794750D02*
X213831000Y-76794750D01*
X213831000Y-80494750D02*
X206031000Y-80494750D01*
X206031000Y-78394750D02*
X206031000Y-76794750D01*
X204306000Y-61444750D02*
X196506000Y-61444750D01*
X196506000Y-57744750D02*
X204306000Y-57744750D01*
X204306000Y-59844750D02*
X204306000Y-61444750D01*
X199543500Y-42394750D02*
X191743500Y-42394750D01*
X191743500Y-38694750D02*
X199543500Y-38694750D01*
X199543500Y-40794750D02*
X199543500Y-42394750D01*
X190018500Y-99544750D02*
X182218500Y-99544750D01*
X182218500Y-95844750D02*
X190018500Y-95844750D01*
X190018500Y-97944750D02*
X190018500Y-99544750D01*
X186981000Y-76794750D02*
X194781000Y-76794750D01*
X194781000Y-80494750D02*
X186981000Y-80494750D01*
X186981000Y-78394750D02*
X186981000Y-76794750D01*
X185256000Y-61444750D02*
X177456000Y-61444750D01*
X177456000Y-57744750D02*
X185256000Y-57744750D01*
X185256000Y-59844750D02*
X185256000Y-61444750D01*
X180493500Y-42394750D02*
X172693500Y-42394750D01*
X172693500Y-38694750D02*
X180493500Y-38694750D01*
X180493500Y-40794750D02*
X180493500Y-42394750D01*
X156681000Y-99544750D02*
X148881000Y-99544750D01*
X148881000Y-95844750D02*
X156681000Y-95844750D01*
X156681000Y-97944750D02*
X156681000Y-99544750D01*
X167931000Y-76794750D02*
X175731000Y-76794750D01*
X175731000Y-80494750D02*
X167931000Y-80494750D01*
X167931000Y-78394750D02*
X167931000Y-76794750D01*
X166206000Y-61444750D02*
X158406000Y-61444750D01*
X158406000Y-57744750D02*
X166206000Y-57744750D01*
X166206000Y-59844750D02*
X166206000Y-61444750D01*
X161443500Y-42394750D02*
X153643500Y-42394750D01*
X153643500Y-38694750D02*
X161443500Y-38694750D01*
X161443500Y-40794750D02*
X161443500Y-42394750D01*
X116199750Y-99544750D02*
X108399750Y-99544750D01*
X108399750Y-95844750D02*
X116199750Y-95844750D01*
X116199750Y-97944750D02*
X116199750Y-99544750D01*
X148881000Y-76794750D02*
X156681000Y-76794750D01*
X156681000Y-80494750D02*
X148881000Y-80494750D01*
X148881000Y-78394750D02*
X148881000Y-76794750D01*
X147156000Y-61444750D02*
X139356000Y-61444750D01*
X139356000Y-57744750D02*
X147156000Y-57744750D01*
X147156000Y-59844750D02*
X147156000Y-61444750D01*
X142393500Y-42394750D02*
X134593500Y-42394750D01*
X134593500Y-38694750D02*
X142393500Y-38694750D01*
X142393500Y-40794750D02*
X142393500Y-42394750D01*
X82862250Y-99544750D02*
X75062250Y-99544750D01*
X75062250Y-95844750D02*
X82862250Y-95844750D01*
X82862250Y-97944750D02*
X82862250Y-99544750D01*
X129831000Y-76794750D02*
X137631000Y-76794750D01*
X137631000Y-80494750D02*
X129831000Y-80494750D01*
X129831000Y-78394750D02*
X129831000Y-76794750D01*
X128106000Y-61444750D02*
X120306000Y-61444750D01*
X120306000Y-57744750D02*
X128106000Y-57744750D01*
X128106000Y-59844750D02*
X128106000Y-61444750D01*
X123343500Y-42394750D02*
X115543500Y-42394750D01*
X115543500Y-38694750D02*
X123343500Y-38694750D01*
X123343500Y-40794750D02*
X123343500Y-42394750D01*
X56668500Y-99544750D02*
X48868500Y-99544750D01*
X48868500Y-95844750D02*
X56668500Y-95844750D01*
X56668500Y-97944750D02*
X56668500Y-99544750D01*
X110781000Y-76794750D02*
X118581000Y-76794750D01*
X118581000Y-80494750D02*
X110781000Y-80494750D01*
X110781000Y-78394750D02*
X110781000Y-76794750D01*
X109056000Y-61444750D02*
X101256000Y-61444750D01*
X101256000Y-57744750D02*
X109056000Y-57744750D01*
X109056000Y-59844750D02*
X109056000Y-61444750D01*
X104293500Y-42394750D02*
X96493500Y-42394750D01*
X96493500Y-38694750D02*
X104293500Y-38694750D01*
X104293500Y-40794750D02*
X104293500Y-42394750D01*
X30474750Y-99544750D02*
X22674750Y-99544750D01*
X22674750Y-95844750D02*
X30474750Y-95844750D01*
X30474750Y-97944750D02*
X30474750Y-99544750D01*
X91731000Y-76794750D02*
X99531000Y-76794750D01*
X99531000Y-80494750D02*
X91731000Y-80494750D01*
X91731000Y-78394750D02*
X91731000Y-76794750D01*
X90006000Y-61444750D02*
X82206000Y-61444750D01*
X82206000Y-57744750D02*
X90006000Y-57744750D01*
X90006000Y-59844750D02*
X90006000Y-61444750D01*
X85243500Y-42394750D02*
X77443500Y-42394750D01*
X77443500Y-38694750D02*
X85243500Y-38694750D01*
X85243500Y-40794750D02*
X85243500Y-42394750D01*
X72681000Y-76794750D02*
X80481000Y-76794750D01*
X80481000Y-80494750D02*
X72681000Y-80494750D01*
X72681000Y-78394750D02*
X72681000Y-76794750D01*
X70956000Y-61444750D02*
X63156000Y-61444750D01*
X63156000Y-57744750D02*
X70956000Y-57744750D01*
X70956000Y-59844750D02*
X70956000Y-61444750D01*
X66193500Y-42394750D02*
X58393500Y-42394750D01*
X58393500Y-38694750D02*
X66193500Y-38694750D01*
X66193500Y-40794750D02*
X66193500Y-42394750D01*
X53631000Y-76794750D02*
X61431000Y-76794750D01*
X61431000Y-80494750D02*
X53631000Y-80494750D01*
X53631000Y-78394750D02*
X53631000Y-76794750D01*
X51906000Y-61444750D02*
X44106000Y-61444750D01*
X44106000Y-57744750D02*
X51906000Y-57744750D01*
X51906000Y-59844750D02*
X51906000Y-61444750D01*
X47143500Y-42394750D02*
X39343500Y-42394750D01*
X39343500Y-38694750D02*
X47143500Y-38694750D01*
X47143500Y-40794750D02*
X47143500Y-42394750D01*
X27437250Y-76794750D02*
X35237250Y-76794750D01*
X35237250Y-80494750D02*
X27437250Y-80494750D01*
X27437250Y-78394750D02*
X27437250Y-76794750D01*
X30474750Y-61444750D02*
X22674750Y-61444750D01*
X22674750Y-57744750D02*
X30474750Y-57744750D01*
X30474750Y-59844750D02*
X30474750Y-61444750D01*
X28093500Y-42394750D02*
X20293500Y-42394750D01*
X20293500Y-38694750D02*
X28093500Y-38694750D01*
X28093500Y-40794750D02*
X28093500Y-42394750D01*
D16*
X273907250Y-28670250D02*
X273907250Y-25876250D01*
X268827250Y-28670250D02*
X273907250Y-28670250D01*
X268827250Y-25876250D02*
X268827250Y-28670250D01*
X262477250Y-73882250D02*
X280477250Y-73882250D01*
X262477250Y-25882250D02*
X262477250Y-73882250D01*
X280477250Y-25882250D02*
X262477250Y-25882250D01*
X280477250Y-73882250D02*
X280477250Y-25882250D01*
X279487250Y-26882250D02*
G75*
G03X279487250Y-26882250I-500000J0D01*
G01*
X264231250Y-26882250D02*
G75*
G03X264231250Y-26882250I-500000J0D01*
G01*
X279487250Y-72882250D02*
G75*
G03X279487250Y-72882250I-500000J0D01*
G01*
X264231250Y-72882250D02*
G75*
G03X264231250Y-72882250I-500000J0D01*
G01*
D10*
X242231000Y-88914000D02*
X242231000Y-88264000D01*
D11*
X242731000Y-91364000D02*
X242731000Y-89564001D01*
D12*
X243861000Y-87864000D02*
X243861000Y-90104000D01*
D13*
X252231000Y-89714000D02*
X250931000Y-89664000D01*
D14*
X251931000Y-86964000D02*
X251931000Y-89464000D01*
D15*
X250631000Y-88164000D02*
X243931000Y-88164000D01*
D16*
X252431000Y-89964000D02*
X252431000Y-86364000D01*
X252411000Y-88964000D02*
X252411000Y-86714000D01*
X242131000Y-89014000D02*
X242331000Y-89014000D01*
X242381000Y-87414000D02*
X242381000Y-91864000D01*
X242131000Y-88264000D02*
X242131000Y-89014000D01*
X242381000Y-91864000D02*
X245411000Y-91864000D01*
X247631000Y-89964000D02*
X252431000Y-89964000D01*
X252431000Y-86364000D02*
X244230999Y-86364000D01*
X245414682Y-91842529D02*
G75*
G02X247631000Y-89964000I2151318J-291471D01*
G01*
X242131000Y-88264001D02*
G75*
G02X244230999Y-86364000I2000000J-99999D01*
G01*
D14*
X245014682Y-91442529D02*
G75*
G02X247231000Y-89564000I2151318J-291471D01*
G01*
D13*
X242581000Y-91664000D02*
X245031000Y-91664000D01*
D17*
X252281000Y-86564000D02*
X251031000Y-86564000D01*
D10*
X242231000Y-69864000D02*
X242231000Y-69214000D01*
D11*
X242731000Y-72314000D02*
X242731000Y-70514001D01*
D12*
X243861000Y-68814000D02*
X243861000Y-71054000D01*
D13*
X252231000Y-70664000D02*
X250931000Y-70614000D01*
D14*
X251931000Y-67914000D02*
X251931000Y-70414000D01*
D15*
X250631000Y-69114000D02*
X243931000Y-69114000D01*
D16*
X252431000Y-70914000D02*
X252431000Y-67314000D01*
X252411000Y-69914000D02*
X252411000Y-67664000D01*
X242131000Y-69964000D02*
X242331000Y-69964000D01*
X242381000Y-68364000D02*
X242381000Y-72814000D01*
X242131000Y-69214000D02*
X242131000Y-69964000D01*
X242381000Y-72814000D02*
X245411000Y-72814000D01*
X247631000Y-70914000D02*
X252431000Y-70914000D01*
X252431000Y-67314000D02*
X244230999Y-67314000D01*
X245414682Y-72792529D02*
G75*
G02X247631000Y-70914000I2151318J-291471D01*
G01*
X242131000Y-69214001D02*
G75*
G02X244230999Y-67314000I2000000J-99999D01*
G01*
D14*
X245014682Y-72392529D02*
G75*
G02X247231000Y-70514000I2151318J-291471D01*
G01*
D13*
X242581000Y-72614000D02*
X245031000Y-72614000D01*
D17*
X252281000Y-67514000D02*
X251031000Y-67514000D01*
D10*
X223181000Y-88914000D02*
X223181000Y-88264000D01*
D11*
X223681000Y-91364000D02*
X223681000Y-89564001D01*
D12*
X224811000Y-87864000D02*
X224811000Y-90104000D01*
D13*
X233181000Y-89714000D02*
X231881000Y-89664000D01*
D14*
X232881000Y-86964000D02*
X232881000Y-89464000D01*
D15*
X231581000Y-88164000D02*
X224881000Y-88164000D01*
D16*
X233381000Y-89964000D02*
X233381000Y-86364000D01*
X233361000Y-88964000D02*
X233361000Y-86714000D01*
X223081000Y-89014000D02*
X223281000Y-89014000D01*
X223331000Y-87414000D02*
X223331000Y-91864000D01*
X223081000Y-88264000D02*
X223081000Y-89014000D01*
X223331000Y-91864000D02*
X226361000Y-91864000D01*
X228581000Y-89964000D02*
X233381000Y-89964000D01*
X233381000Y-86364000D02*
X225180999Y-86364000D01*
X226364682Y-91842529D02*
G75*
G02X228581000Y-89964000I2151318J-291471D01*
G01*
X223081000Y-88264001D02*
G75*
G02X225180999Y-86364000I2000000J-99999D01*
G01*
D14*
X225964682Y-91442529D02*
G75*
G02X228181000Y-89564000I2151318J-291471D01*
G01*
D13*
X223531000Y-91664000D02*
X225981000Y-91664000D01*
D17*
X233231000Y-86564000D02*
X231981000Y-86564000D01*
D10*
X223181000Y-69864000D02*
X223181000Y-69214000D01*
D11*
X223681000Y-72314000D02*
X223681000Y-70514001D01*
D12*
X224811000Y-68814000D02*
X224811000Y-71054000D01*
D13*
X233181000Y-70664000D02*
X231881000Y-70614000D01*
D14*
X232881000Y-67914000D02*
X232881000Y-70414000D01*
D15*
X231581000Y-69114000D02*
X224881000Y-69114000D01*
D16*
X233381000Y-70914000D02*
X233381000Y-67314000D01*
X233361000Y-69914000D02*
X233361000Y-67664000D01*
X223081000Y-69964000D02*
X223281000Y-69964000D01*
X223331000Y-68364000D02*
X223331000Y-72814000D01*
X223081000Y-69214000D02*
X223081000Y-69964000D01*
X223331000Y-72814000D02*
X226361000Y-72814000D01*
X228581000Y-70914000D02*
X233381000Y-70914000D01*
X233381000Y-67314000D02*
X225180999Y-67314000D01*
X226364682Y-72792529D02*
G75*
G02X228581000Y-70914000I2151318J-291471D01*
G01*
X223081000Y-69214001D02*
G75*
G02X225180999Y-67314000I2000000J-99999D01*
G01*
D14*
X225964682Y-72392529D02*
G75*
G02X228181000Y-70514000I2151318J-291471D01*
G01*
D13*
X223531000Y-72614000D02*
X225981000Y-72614000D01*
D17*
X233231000Y-67514000D02*
X231981000Y-67514000D01*
D10*
X213656000Y-50814000D02*
X213656000Y-50164000D01*
D11*
X214156000Y-53264000D02*
X214156000Y-51464001D01*
D12*
X215286000Y-49764000D02*
X215286000Y-52004000D01*
D13*
X223656000Y-51614000D02*
X222356000Y-51564000D01*
D14*
X223356000Y-48864000D02*
X223356000Y-51364000D01*
D15*
X222056000Y-50064000D02*
X215356000Y-50064000D01*
D16*
X223856000Y-51864000D02*
X223856000Y-48264000D01*
X223836000Y-50864000D02*
X223836000Y-48614000D01*
X213556000Y-50914000D02*
X213756000Y-50914000D01*
X213806000Y-49314000D02*
X213806000Y-53764000D01*
X213556000Y-50164000D02*
X213556000Y-50914000D01*
X213806000Y-53764000D02*
X216836000Y-53764000D01*
X219056000Y-51864000D02*
X223856000Y-51864000D01*
X223856000Y-48264000D02*
X215655999Y-48264000D01*
X216839682Y-53742529D02*
G75*
G02X219056000Y-51864000I2151318J-291471D01*
G01*
X213556000Y-50164001D02*
G75*
G02X215655999Y-48264000I2000000J-99999D01*
G01*
D14*
X216439682Y-53342529D02*
G75*
G02X218656000Y-51464000I2151318J-291471D01*
G01*
D13*
X214006000Y-53564000D02*
X216456000Y-53564000D01*
D17*
X223706000Y-48464000D02*
X222456000Y-48464000D01*
D10*
X208893500Y-31764000D02*
X208893500Y-31114000D01*
D11*
X209393500Y-34214000D02*
X209393500Y-32414001D01*
D12*
X210523500Y-30714000D02*
X210523500Y-32954000D01*
D13*
X218893500Y-32564000D02*
X217593500Y-32514000D01*
D14*
X218593500Y-29814000D02*
X218593500Y-32314000D01*
D15*
X217293500Y-31014000D02*
X210593500Y-31014000D01*
D16*
X219093500Y-32814000D02*
X219093500Y-29214000D01*
X219073500Y-31814000D02*
X219073500Y-29564000D01*
X208793500Y-31864000D02*
X208993500Y-31864000D01*
X209043500Y-30264000D02*
X209043500Y-34714000D01*
X208793500Y-31114000D02*
X208793500Y-31864000D01*
X209043500Y-34714000D02*
X212073500Y-34714000D01*
X214293500Y-32814000D02*
X219093500Y-32814000D01*
X219093500Y-29214000D02*
X210893499Y-29214000D01*
X212077182Y-34692529D02*
G75*
G02X214293500Y-32814000I2151318J-291471D01*
G01*
X208793500Y-31114001D02*
G75*
G02X210893499Y-29214000I2000000J-99999D01*
G01*
D14*
X211677182Y-34292529D02*
G75*
G02X213893500Y-32414000I2151318J-291471D01*
G01*
D13*
X209243500Y-34514000D02*
X211693500Y-34514000D01*
D17*
X218943500Y-29414000D02*
X217693500Y-29414000D01*
D10*
X204131000Y-88914000D02*
X204131000Y-88264000D01*
D11*
X204631000Y-91364000D02*
X204631000Y-89564001D01*
D12*
X205761000Y-87864000D02*
X205761000Y-90104000D01*
D13*
X214131000Y-89714000D02*
X212831000Y-89664000D01*
D14*
X213831000Y-86964000D02*
X213831000Y-89464000D01*
D15*
X212531000Y-88164000D02*
X205831000Y-88164000D01*
D16*
X214331000Y-89964000D02*
X214331000Y-86364000D01*
X214311000Y-88964000D02*
X214311000Y-86714000D01*
X204031000Y-89014000D02*
X204231000Y-89014000D01*
X204281000Y-87414000D02*
X204281000Y-91864000D01*
X204031000Y-88264000D02*
X204031000Y-89014000D01*
X204281000Y-91864000D02*
X207311000Y-91864000D01*
X209531000Y-89964000D02*
X214331000Y-89964000D01*
X214331000Y-86364000D02*
X206130999Y-86364000D01*
X207314682Y-91842529D02*
G75*
G02X209531000Y-89964000I2151318J-291471D01*
G01*
X204031000Y-88264001D02*
G75*
G02X206130999Y-86364000I2000000J-99999D01*
G01*
D14*
X206914682Y-91442529D02*
G75*
G02X209131000Y-89564000I2151318J-291471D01*
G01*
D13*
X204481000Y-91664000D02*
X206931000Y-91664000D01*
D17*
X214181000Y-86564000D02*
X212931000Y-86564000D01*
D10*
X204131000Y-69864000D02*
X204131000Y-69214000D01*
D11*
X204631000Y-72314000D02*
X204631000Y-70514001D01*
D12*
X205761000Y-68814000D02*
X205761000Y-71054000D01*
D13*
X214131000Y-70664000D02*
X212831000Y-70614000D01*
D14*
X213831000Y-67914000D02*
X213831000Y-70414000D01*
D15*
X212531000Y-69114000D02*
X205831000Y-69114000D01*
D16*
X214331000Y-70914000D02*
X214331000Y-67314000D01*
X214311000Y-69914000D02*
X214311000Y-67664000D01*
X204031000Y-69964000D02*
X204231000Y-69964000D01*
X204281000Y-68364000D02*
X204281000Y-72814000D01*
X204031000Y-69214000D02*
X204031000Y-69964000D01*
X204281000Y-72814000D02*
X207311000Y-72814000D01*
X209531000Y-70914000D02*
X214331000Y-70914000D01*
X214331000Y-67314000D02*
X206130999Y-67314000D01*
X207314682Y-72792529D02*
G75*
G02X209531000Y-70914000I2151318J-291471D01*
G01*
X204031000Y-69214001D02*
G75*
G02X206130999Y-67314000I2000000J-99999D01*
G01*
D14*
X206914682Y-72392529D02*
G75*
G02X209131000Y-70514000I2151318J-291471D01*
G01*
D13*
X204481000Y-72614000D02*
X206931000Y-72614000D01*
D17*
X214181000Y-67514000D02*
X212931000Y-67514000D01*
D10*
X194606000Y-50814000D02*
X194606000Y-50164000D01*
D11*
X195106000Y-53264000D02*
X195106000Y-51464001D01*
D12*
X196236000Y-49764000D02*
X196236000Y-52004000D01*
D13*
X204606000Y-51614000D02*
X203306000Y-51564000D01*
D14*
X204306000Y-48864000D02*
X204306000Y-51364000D01*
D15*
X203006000Y-50064000D02*
X196306000Y-50064000D01*
D16*
X204806000Y-51864000D02*
X204806000Y-48264000D01*
X204786000Y-50864000D02*
X204786000Y-48614000D01*
X194506000Y-50914000D02*
X194706000Y-50914000D01*
X194756000Y-49314000D02*
X194756000Y-53764000D01*
X194506000Y-50164000D02*
X194506000Y-50914000D01*
X194756000Y-53764000D02*
X197786000Y-53764000D01*
X200006000Y-51864000D02*
X204806000Y-51864000D01*
X204806000Y-48264000D02*
X196605999Y-48264000D01*
X197789682Y-53742529D02*
G75*
G02X200006000Y-51864000I2151318J-291471D01*
G01*
X194506000Y-50164001D02*
G75*
G02X196605999Y-48264000I2000000J-99999D01*
G01*
D14*
X197389682Y-53342529D02*
G75*
G02X199606000Y-51464000I2151318J-291471D01*
G01*
D13*
X194956000Y-53564000D02*
X197406000Y-53564000D01*
D17*
X204656000Y-48464000D02*
X203406000Y-48464000D01*
D10*
X189843500Y-31764000D02*
X189843500Y-31114000D01*
D11*
X190343500Y-34214000D02*
X190343500Y-32414001D01*
D12*
X191473500Y-30714000D02*
X191473500Y-32954000D01*
D13*
X199843500Y-32564000D02*
X198543500Y-32514000D01*
D14*
X199543500Y-29814000D02*
X199543500Y-32314000D01*
D15*
X198243500Y-31014000D02*
X191543500Y-31014000D01*
D16*
X200043500Y-32814000D02*
X200043500Y-29214000D01*
X200023500Y-31814000D02*
X200023500Y-29564000D01*
X189743500Y-31864000D02*
X189943500Y-31864000D01*
X189993500Y-30264000D02*
X189993500Y-34714000D01*
X189743500Y-31114000D02*
X189743500Y-31864000D01*
X189993500Y-34714000D02*
X193023500Y-34714000D01*
X195243500Y-32814000D02*
X200043500Y-32814000D01*
X200043500Y-29214000D02*
X191843499Y-29214000D01*
X193027182Y-34692529D02*
G75*
G02X195243500Y-32814000I2151318J-291471D01*
G01*
X189743500Y-31114001D02*
G75*
G02X191843499Y-29214000I2000000J-99999D01*
G01*
D14*
X192627182Y-34292529D02*
G75*
G02X194843500Y-32414000I2151318J-291471D01*
G01*
D13*
X190193500Y-34514000D02*
X192643500Y-34514000D01*
D17*
X199893500Y-29414000D02*
X198643500Y-29414000D01*
D10*
X185081000Y-69864000D02*
X185081000Y-69214000D01*
D11*
X185581000Y-72314000D02*
X185581000Y-70514001D01*
D12*
X186711000Y-68814000D02*
X186711000Y-71054000D01*
D13*
X195081000Y-70664000D02*
X193781000Y-70614000D01*
D14*
X194781000Y-67914000D02*
X194781000Y-70414000D01*
D15*
X193481000Y-69114000D02*
X186781000Y-69114000D01*
D16*
X195281000Y-70914000D02*
X195281000Y-67314000D01*
X195261000Y-69914000D02*
X195261000Y-67664000D01*
X184981000Y-69964000D02*
X185181000Y-69964000D01*
X185231000Y-68364000D02*
X185231000Y-72814000D01*
X184981000Y-69214000D02*
X184981000Y-69964000D01*
X185231000Y-72814000D02*
X188261000Y-72814000D01*
X190481000Y-70914000D02*
X195281000Y-70914000D01*
X195281000Y-67314000D02*
X187080999Y-67314000D01*
X188264682Y-72792529D02*
G75*
G02X190481000Y-70914000I2151318J-291471D01*
G01*
X184981000Y-69214001D02*
G75*
G02X187080999Y-67314000I2000000J-99999D01*
G01*
D14*
X187864682Y-72392529D02*
G75*
G02X190081000Y-70514000I2151318J-291471D01*
G01*
D13*
X185431000Y-72614000D02*
X187881000Y-72614000D01*
D17*
X195131000Y-67514000D02*
X193881000Y-67514000D01*
D10*
X175556000Y-50814000D02*
X175556000Y-50164000D01*
D11*
X176056000Y-53264000D02*
X176056000Y-51464001D01*
D12*
X177186000Y-49764000D02*
X177186000Y-52004000D01*
D13*
X185556000Y-51614000D02*
X184256000Y-51564000D01*
D14*
X185256000Y-48864000D02*
X185256000Y-51364000D01*
D15*
X183956000Y-50064000D02*
X177256000Y-50064000D01*
D16*
X185756000Y-51864000D02*
X185756000Y-48264000D01*
X185736000Y-50864000D02*
X185736000Y-48614000D01*
X175456000Y-50914000D02*
X175656000Y-50914000D01*
X175706000Y-49314000D02*
X175706000Y-53764000D01*
X175456000Y-50164000D02*
X175456000Y-50914000D01*
X175706000Y-53764000D02*
X178736000Y-53764000D01*
X180956000Y-51864000D02*
X185756000Y-51864000D01*
X185756000Y-48264000D02*
X177555999Y-48264000D01*
X178739682Y-53742529D02*
G75*
G02X180956000Y-51864000I2151318J-291471D01*
G01*
X175456000Y-50164001D02*
G75*
G02X177555999Y-48264000I2000000J-99999D01*
G01*
D14*
X178339682Y-53342529D02*
G75*
G02X180556000Y-51464000I2151318J-291471D01*
G01*
D13*
X175906000Y-53564000D02*
X178356000Y-53564000D01*
D17*
X185606000Y-48464000D02*
X184356000Y-48464000D01*
D10*
X170793500Y-31764000D02*
X170793500Y-31114000D01*
D11*
X171293500Y-34214000D02*
X171293500Y-32414001D01*
D12*
X172423500Y-30714000D02*
X172423500Y-32954000D01*
D13*
X180793500Y-32564000D02*
X179493500Y-32514000D01*
D14*
X180493500Y-29814000D02*
X180493500Y-32314000D01*
D15*
X179193500Y-31014000D02*
X172493500Y-31014000D01*
D16*
X180993500Y-32814000D02*
X180993500Y-29214000D01*
X180973500Y-31814000D02*
X180973500Y-29564000D01*
X170693500Y-31864000D02*
X170893500Y-31864000D01*
X170943500Y-30264000D02*
X170943500Y-34714000D01*
X170693500Y-31114000D02*
X170693500Y-31864000D01*
X170943500Y-34714000D02*
X173973500Y-34714000D01*
X176193500Y-32814000D02*
X180993500Y-32814000D01*
X180993500Y-29214000D02*
X172793499Y-29214000D01*
X173977182Y-34692529D02*
G75*
G02X176193500Y-32814000I2151318J-291471D01*
G01*
X170693500Y-31114001D02*
G75*
G02X172793499Y-29214000I2000000J-99999D01*
G01*
D14*
X173577182Y-34292529D02*
G75*
G02X175793500Y-32414000I2151318J-291471D01*
G01*
D13*
X171143500Y-34514000D02*
X173593500Y-34514000D01*
D17*
X180843500Y-29414000D02*
X179593500Y-29414000D01*
D10*
X166031000Y-69864000D02*
X166031000Y-69214000D01*
D11*
X166531000Y-72314000D02*
X166531000Y-70514001D01*
D12*
X167661000Y-68814000D02*
X167661000Y-71054000D01*
D13*
X176031000Y-70664000D02*
X174731000Y-70614000D01*
D14*
X175731000Y-67914000D02*
X175731000Y-70414000D01*
D15*
X174431000Y-69114000D02*
X167731000Y-69114000D01*
D16*
X176231000Y-70914000D02*
X176231000Y-67314000D01*
X176211000Y-69914000D02*
X176211000Y-67664000D01*
X165931000Y-69964000D02*
X166131000Y-69964000D01*
X166181000Y-68364000D02*
X166181000Y-72814000D01*
X165931000Y-69214000D02*
X165931000Y-69964000D01*
X166181000Y-72814000D02*
X169211000Y-72814000D01*
X171431000Y-70914000D02*
X176231000Y-70914000D01*
X176231000Y-67314000D02*
X168030999Y-67314000D01*
X169214682Y-72792529D02*
G75*
G02X171431000Y-70914000I2151318J-291471D01*
G01*
X165931000Y-69214001D02*
G75*
G02X168030999Y-67314000I2000000J-99999D01*
G01*
D14*
X168814682Y-72392529D02*
G75*
G02X171031000Y-70514000I2151318J-291471D01*
G01*
D13*
X166381000Y-72614000D02*
X168831000Y-72614000D01*
D17*
X176081000Y-67514000D02*
X174831000Y-67514000D01*
D10*
X156506000Y-50814000D02*
X156506000Y-50164000D01*
D11*
X157006000Y-53264000D02*
X157006000Y-51464001D01*
D12*
X158136000Y-49764000D02*
X158136000Y-52004000D01*
D13*
X166506000Y-51614000D02*
X165206000Y-51564000D01*
D14*
X166206000Y-48864000D02*
X166206000Y-51364000D01*
D15*
X164906000Y-50064000D02*
X158206000Y-50064000D01*
D16*
X166706000Y-51864000D02*
X166706000Y-48264000D01*
X166686000Y-50864000D02*
X166686000Y-48614000D01*
X156406000Y-50914000D02*
X156606000Y-50914000D01*
X156656000Y-49314000D02*
X156656000Y-53764000D01*
X156406000Y-50164000D02*
X156406000Y-50914000D01*
X156656000Y-53764000D02*
X159686000Y-53764000D01*
X161906000Y-51864000D02*
X166706000Y-51864000D01*
X166706000Y-48264000D02*
X158505999Y-48264000D01*
X159689682Y-53742529D02*
G75*
G02X161906000Y-51864000I2151318J-291471D01*
G01*
X156406000Y-50164001D02*
G75*
G02X158505999Y-48264000I2000000J-99999D01*
G01*
D14*
X159289682Y-53342529D02*
G75*
G02X161506000Y-51464000I2151318J-291471D01*
G01*
D13*
X156856000Y-53564000D02*
X159306000Y-53564000D01*
D17*
X166556000Y-48464000D02*
X165306000Y-48464000D01*
D10*
X151743500Y-31764000D02*
X151743500Y-31114000D01*
D11*
X152243500Y-34214000D02*
X152243500Y-32414001D01*
D12*
X153373500Y-30714000D02*
X153373500Y-32954000D01*
D13*
X161743500Y-32564000D02*
X160443500Y-32514000D01*
D14*
X161443500Y-29814000D02*
X161443500Y-32314000D01*
D15*
X160143500Y-31014000D02*
X153443500Y-31014000D01*
D16*
X161943500Y-32814000D02*
X161943500Y-29214000D01*
X161923500Y-31814000D02*
X161923500Y-29564000D01*
X151643500Y-31864000D02*
X151843500Y-31864000D01*
X151893500Y-30264000D02*
X151893500Y-34714000D01*
X151643500Y-31114000D02*
X151643500Y-31864000D01*
X151893500Y-34714000D02*
X154923500Y-34714000D01*
X157143500Y-32814000D02*
X161943500Y-32814000D01*
X161943500Y-29214000D02*
X153743499Y-29214000D01*
X154927182Y-34692529D02*
G75*
G02X157143500Y-32814000I2151318J-291471D01*
G01*
X151643500Y-31114001D02*
G75*
G02X153743499Y-29214000I2000000J-99999D01*
G01*
D14*
X154527182Y-34292529D02*
G75*
G02X156743500Y-32414000I2151318J-291471D01*
G01*
D13*
X152093500Y-34514000D02*
X154543500Y-34514000D01*
D17*
X161793500Y-29414000D02*
X160543500Y-29414000D01*
D10*
X146981000Y-69864000D02*
X146981000Y-69214000D01*
D11*
X147481000Y-72314000D02*
X147481000Y-70514001D01*
D12*
X148611000Y-68814000D02*
X148611000Y-71054000D01*
D13*
X156981000Y-70664000D02*
X155681000Y-70614000D01*
D14*
X156681000Y-67914000D02*
X156681000Y-70414000D01*
D15*
X155381000Y-69114000D02*
X148681000Y-69114000D01*
D16*
X157181000Y-70914000D02*
X157181000Y-67314000D01*
X157161000Y-69914000D02*
X157161000Y-67664000D01*
X146881000Y-69964000D02*
X147081000Y-69964000D01*
X147131000Y-68364000D02*
X147131000Y-72814000D01*
X146881000Y-69214000D02*
X146881000Y-69964000D01*
X147131000Y-72814000D02*
X150161000Y-72814000D01*
X152381000Y-70914000D02*
X157181000Y-70914000D01*
X157181000Y-67314000D02*
X148980999Y-67314000D01*
X150164682Y-72792529D02*
G75*
G02X152381000Y-70914000I2151318J-291471D01*
G01*
X146881000Y-69214001D02*
G75*
G02X148980999Y-67314000I2000000J-99999D01*
G01*
D14*
X149764682Y-72392529D02*
G75*
G02X151981000Y-70514000I2151318J-291471D01*
G01*
D13*
X147331000Y-72614000D02*
X149781000Y-72614000D01*
D17*
X157031000Y-67514000D02*
X155781000Y-67514000D01*
D10*
X137456000Y-50814000D02*
X137456000Y-50164000D01*
D11*
X137956000Y-53264000D02*
X137956000Y-51464001D01*
D12*
X139086000Y-49764000D02*
X139086000Y-52004000D01*
D13*
X147456000Y-51614000D02*
X146156000Y-51564000D01*
D14*
X147156000Y-48864000D02*
X147156000Y-51364000D01*
D15*
X145856000Y-50064000D02*
X139156000Y-50064000D01*
D16*
X147656000Y-51864000D02*
X147656000Y-48264000D01*
X147636000Y-50864000D02*
X147636000Y-48614000D01*
X137356000Y-50914000D02*
X137556000Y-50914000D01*
X137606000Y-49314000D02*
X137606000Y-53764000D01*
X137356000Y-50164000D02*
X137356000Y-50914000D01*
X137606000Y-53764000D02*
X140636000Y-53764000D01*
X142856000Y-51864000D02*
X147656000Y-51864000D01*
X147656000Y-48264000D02*
X139455999Y-48264000D01*
X140639682Y-53742529D02*
G75*
G02X142856000Y-51864000I2151318J-291471D01*
G01*
X137356000Y-50164001D02*
G75*
G02X139455999Y-48264000I2000000J-99999D01*
G01*
D14*
X140239682Y-53342529D02*
G75*
G02X142456000Y-51464000I2151318J-291471D01*
G01*
D13*
X137806000Y-53564000D02*
X140256000Y-53564000D01*
D17*
X147506000Y-48464000D02*
X146256000Y-48464000D01*
D10*
X132693500Y-31764000D02*
X132693500Y-31114000D01*
D11*
X133193500Y-34214000D02*
X133193500Y-32414001D01*
D12*
X134323500Y-30714000D02*
X134323500Y-32954000D01*
D13*
X142693500Y-32564000D02*
X141393500Y-32514000D01*
D14*
X142393500Y-29814000D02*
X142393500Y-32314000D01*
D15*
X141093500Y-31014000D02*
X134393500Y-31014000D01*
D16*
X142893500Y-32814000D02*
X142893500Y-29214000D01*
X142873500Y-31814000D02*
X142873500Y-29564000D01*
X132593500Y-31864000D02*
X132793500Y-31864000D01*
X132843500Y-30264000D02*
X132843500Y-34714000D01*
X132593500Y-31114000D02*
X132593500Y-31864000D01*
X132843500Y-34714000D02*
X135873500Y-34714000D01*
X138093500Y-32814000D02*
X142893500Y-32814000D01*
X142893500Y-29214000D02*
X134693499Y-29214000D01*
X135877182Y-34692529D02*
G75*
G02X138093500Y-32814000I2151318J-291471D01*
G01*
X132593500Y-31114001D02*
G75*
G02X134693499Y-29214000I2000000J-99999D01*
G01*
D14*
X135477182Y-34292529D02*
G75*
G02X137693500Y-32414000I2151318J-291471D01*
G01*
D13*
X133043500Y-34514000D02*
X135493500Y-34514000D01*
D17*
X142743500Y-29414000D02*
X141493500Y-29414000D01*
D10*
X127931000Y-69864000D02*
X127931000Y-69214000D01*
D11*
X128431000Y-72314000D02*
X128431000Y-70514001D01*
D12*
X129561000Y-68814000D02*
X129561000Y-71054000D01*
D13*
X137931000Y-70664000D02*
X136631000Y-70614000D01*
D14*
X137631000Y-67914000D02*
X137631000Y-70414000D01*
D15*
X136331000Y-69114000D02*
X129631000Y-69114000D01*
D16*
X138131000Y-70914000D02*
X138131000Y-67314000D01*
X138111000Y-69914000D02*
X138111000Y-67664000D01*
X127831000Y-69964000D02*
X128031000Y-69964000D01*
X128081000Y-68364000D02*
X128081000Y-72814000D01*
X127831000Y-69214000D02*
X127831000Y-69964000D01*
X128081000Y-72814000D02*
X131111000Y-72814000D01*
X133331000Y-70914000D02*
X138131000Y-70914000D01*
X138131000Y-67314000D02*
X129930999Y-67314000D01*
X131114682Y-72792529D02*
G75*
G02X133331000Y-70914000I2151318J-291471D01*
G01*
X127831000Y-69214001D02*
G75*
G02X129930999Y-67314000I2000000J-99999D01*
G01*
D14*
X130714682Y-72392529D02*
G75*
G02X132931000Y-70514000I2151318J-291471D01*
G01*
D13*
X128281000Y-72614000D02*
X130731000Y-72614000D01*
D17*
X137981000Y-67514000D02*
X136731000Y-67514000D01*
D10*
X118406000Y-50814000D02*
X118406000Y-50164000D01*
D11*
X118906000Y-53264000D02*
X118906000Y-51464001D01*
D12*
X120036000Y-49764000D02*
X120036000Y-52004000D01*
D13*
X128406000Y-51614000D02*
X127106000Y-51564000D01*
D14*
X128106000Y-48864000D02*
X128106000Y-51364000D01*
D15*
X126806000Y-50064000D02*
X120106000Y-50064000D01*
D16*
X128606000Y-51864000D02*
X128606000Y-48264000D01*
X128586000Y-50864000D02*
X128586000Y-48614000D01*
X118306000Y-50914000D02*
X118506000Y-50914000D01*
X118556000Y-49314000D02*
X118556000Y-53764000D01*
X118306000Y-50164000D02*
X118306000Y-50914000D01*
X118556000Y-53764000D02*
X121586000Y-53764000D01*
X123806000Y-51864000D02*
X128606000Y-51864000D01*
X128606000Y-48264000D02*
X120405999Y-48264000D01*
X121589682Y-53742529D02*
G75*
G02X123806000Y-51864000I2151318J-291471D01*
G01*
X118306000Y-50164001D02*
G75*
G02X120405999Y-48264000I2000000J-99999D01*
G01*
D14*
X121189682Y-53342529D02*
G75*
G02X123406000Y-51464000I2151318J-291471D01*
G01*
D13*
X118756000Y-53564000D02*
X121206000Y-53564000D01*
D17*
X128456000Y-48464000D02*
X127206000Y-48464000D01*
D10*
X113643500Y-31764000D02*
X113643500Y-31114000D01*
D11*
X114143500Y-34214000D02*
X114143500Y-32414001D01*
D12*
X115273500Y-30714000D02*
X115273500Y-32954000D01*
D13*
X123643500Y-32564000D02*
X122343500Y-32514000D01*
D14*
X123343500Y-29814000D02*
X123343500Y-32314000D01*
D15*
X122043500Y-31014000D02*
X115343500Y-31014000D01*
D16*
X123843500Y-32814000D02*
X123843500Y-29214000D01*
X123823500Y-31814000D02*
X123823500Y-29564000D01*
X113543500Y-31864000D02*
X113743500Y-31864000D01*
X113793500Y-30264000D02*
X113793500Y-34714000D01*
X113543500Y-31114000D02*
X113543500Y-31864000D01*
X113793500Y-34714000D02*
X116823500Y-34714000D01*
X119043500Y-32814000D02*
X123843500Y-32814000D01*
X123843500Y-29214000D02*
X115643499Y-29214000D01*
X116827182Y-34692529D02*
G75*
G02X119043500Y-32814000I2151318J-291471D01*
G01*
X113543500Y-31114001D02*
G75*
G02X115643499Y-29214000I2000000J-99999D01*
G01*
D14*
X116427182Y-34292529D02*
G75*
G02X118643500Y-32414000I2151318J-291471D01*
G01*
D13*
X113993500Y-34514000D02*
X116443500Y-34514000D01*
D17*
X123693500Y-29414000D02*
X122443500Y-29414000D01*
D10*
X108881000Y-69864000D02*
X108881000Y-69214000D01*
D11*
X109381000Y-72314000D02*
X109381000Y-70514001D01*
D12*
X110511000Y-68814000D02*
X110511000Y-71054000D01*
D13*
X118881000Y-70664000D02*
X117581000Y-70614000D01*
D14*
X118581000Y-67914000D02*
X118581000Y-70414000D01*
D15*
X117281000Y-69114000D02*
X110581000Y-69114000D01*
D16*
X119081000Y-70914000D02*
X119081000Y-67314000D01*
X119061000Y-69914000D02*
X119061000Y-67664000D01*
X108781000Y-69964000D02*
X108981000Y-69964000D01*
X109031000Y-68364000D02*
X109031000Y-72814000D01*
X108781000Y-69214000D02*
X108781000Y-69964000D01*
X109031000Y-72814000D02*
X112061000Y-72814000D01*
X114281000Y-70914000D02*
X119081000Y-70914000D01*
X119081000Y-67314000D02*
X110880999Y-67314000D01*
X112064682Y-72792529D02*
G75*
G02X114281000Y-70914000I2151318J-291471D01*
G01*
X108781000Y-69214001D02*
G75*
G02X110880999Y-67314000I2000000J-99999D01*
G01*
D14*
X111664682Y-72392529D02*
G75*
G02X113881000Y-70514000I2151318J-291471D01*
G01*
D13*
X109231000Y-72614000D02*
X111681000Y-72614000D01*
D17*
X118931000Y-67514000D02*
X117681000Y-67514000D01*
D10*
X99356000Y-50814000D02*
X99356000Y-50164000D01*
D11*
X99856000Y-53264000D02*
X99856000Y-51464001D01*
D12*
X100986000Y-49764000D02*
X100986000Y-52004000D01*
D13*
X109356000Y-51614000D02*
X108056000Y-51564000D01*
D14*
X109056000Y-48864000D02*
X109056000Y-51364000D01*
D15*
X107756000Y-50064000D02*
X101056000Y-50064000D01*
D16*
X109556000Y-51864000D02*
X109556000Y-48264000D01*
X109536000Y-50864000D02*
X109536000Y-48614000D01*
X99256000Y-50914000D02*
X99456000Y-50914000D01*
X99506000Y-49314000D02*
X99506000Y-53764000D01*
X99256000Y-50164000D02*
X99256000Y-50914000D01*
X99506000Y-53764000D02*
X102536000Y-53764000D01*
X104756000Y-51864000D02*
X109556000Y-51864000D01*
X109556000Y-48264000D02*
X101355999Y-48264000D01*
X102539682Y-53742529D02*
G75*
G02X104756000Y-51864000I2151318J-291471D01*
G01*
X99256000Y-50164001D02*
G75*
G02X101355999Y-48264000I2000000J-99999D01*
G01*
D14*
X102139682Y-53342529D02*
G75*
G02X104356000Y-51464000I2151318J-291471D01*
G01*
D13*
X99706000Y-53564000D02*
X102156000Y-53564000D01*
D17*
X109406000Y-48464000D02*
X108156000Y-48464000D01*
D10*
X94593500Y-31764000D02*
X94593500Y-31114000D01*
D11*
X95093500Y-34214000D02*
X95093500Y-32414001D01*
D12*
X96223500Y-30714000D02*
X96223500Y-32954000D01*
D13*
X104593500Y-32564000D02*
X103293500Y-32514000D01*
D14*
X104293500Y-29814000D02*
X104293500Y-32314000D01*
D15*
X102993500Y-31014000D02*
X96293500Y-31014000D01*
D16*
X104793500Y-32814000D02*
X104793500Y-29214000D01*
X104773500Y-31814000D02*
X104773500Y-29564000D01*
X94493500Y-31864000D02*
X94693500Y-31864000D01*
X94743500Y-30264000D02*
X94743500Y-34714000D01*
X94493500Y-31114000D02*
X94493500Y-31864000D01*
X94743500Y-34714000D02*
X97773500Y-34714000D01*
X99993500Y-32814000D02*
X104793500Y-32814000D01*
X104793500Y-29214000D02*
X96593499Y-29214000D01*
X97777182Y-34692529D02*
G75*
G02X99993500Y-32814000I2151318J-291471D01*
G01*
X94493500Y-31114001D02*
G75*
G02X96593499Y-29214000I2000000J-99999D01*
G01*
D14*
X97377182Y-34292529D02*
G75*
G02X99593500Y-32414000I2151318J-291471D01*
G01*
D13*
X94943500Y-34514000D02*
X97393500Y-34514000D01*
D17*
X104643500Y-29414000D02*
X103393500Y-29414000D01*
D10*
X89831000Y-69864000D02*
X89831000Y-69214000D01*
D11*
X90331000Y-72314000D02*
X90331000Y-70514001D01*
D12*
X91461000Y-68814000D02*
X91461000Y-71054000D01*
D13*
X99831000Y-70664000D02*
X98531000Y-70614000D01*
D14*
X99531000Y-67914000D02*
X99531000Y-70414000D01*
D15*
X98231000Y-69114000D02*
X91531000Y-69114000D01*
D16*
X100031000Y-70914000D02*
X100031000Y-67314000D01*
X100011000Y-69914000D02*
X100011000Y-67664000D01*
X89731000Y-69964000D02*
X89931000Y-69964000D01*
X89981000Y-68364000D02*
X89981000Y-72814000D01*
X89731000Y-69214000D02*
X89731000Y-69964000D01*
X89981000Y-72814000D02*
X93011000Y-72814000D01*
X95231000Y-70914000D02*
X100031000Y-70914000D01*
X100031000Y-67314000D02*
X91830999Y-67314000D01*
X93014682Y-72792529D02*
G75*
G02X95231000Y-70914000I2151318J-291471D01*
G01*
X89731000Y-69214001D02*
G75*
G02X91830999Y-67314000I2000000J-99999D01*
G01*
D14*
X92614682Y-72392529D02*
G75*
G02X94831000Y-70514000I2151318J-291471D01*
G01*
D13*
X90181000Y-72614000D02*
X92631000Y-72614000D01*
D17*
X99881000Y-67514000D02*
X98631000Y-67514000D01*
D10*
X80306000Y-50814000D02*
X80306000Y-50164000D01*
D11*
X80806000Y-53264000D02*
X80806000Y-51464001D01*
D12*
X81936000Y-49764000D02*
X81936000Y-52004000D01*
D13*
X90306000Y-51614000D02*
X89006000Y-51564000D01*
D14*
X90006000Y-48864000D02*
X90006000Y-51364000D01*
D15*
X88706000Y-50064000D02*
X82006000Y-50064000D01*
D16*
X90506000Y-51864000D02*
X90506000Y-48264000D01*
X90486000Y-50864000D02*
X90486000Y-48614000D01*
X80206000Y-50914000D02*
X80406000Y-50914000D01*
X80456000Y-49314000D02*
X80456000Y-53764000D01*
X80206000Y-50164000D02*
X80206000Y-50914000D01*
X80456000Y-53764000D02*
X83486000Y-53764000D01*
X85706000Y-51864000D02*
X90506000Y-51864000D01*
X90506000Y-48264000D02*
X82305999Y-48264000D01*
X83489682Y-53742529D02*
G75*
G02X85706000Y-51864000I2151318J-291471D01*
G01*
X80206000Y-50164001D02*
G75*
G02X82305999Y-48264000I2000000J-99999D01*
G01*
D14*
X83089682Y-53342529D02*
G75*
G02X85306000Y-51464000I2151318J-291471D01*
G01*
D13*
X80656000Y-53564000D02*
X83106000Y-53564000D01*
D17*
X90356000Y-48464000D02*
X89106000Y-48464000D01*
D10*
X75543500Y-31764000D02*
X75543500Y-31114000D01*
D11*
X76043500Y-34214000D02*
X76043500Y-32414001D01*
D12*
X77173500Y-30714000D02*
X77173500Y-32954000D01*
D13*
X85543500Y-32564000D02*
X84243500Y-32514000D01*
D14*
X85243500Y-29814000D02*
X85243500Y-32314000D01*
D15*
X83943500Y-31014000D02*
X77243500Y-31014000D01*
D16*
X85743500Y-32814000D02*
X85743500Y-29214000D01*
X85723500Y-31814000D02*
X85723500Y-29564000D01*
X75443500Y-31864000D02*
X75643500Y-31864000D01*
X75693500Y-30264000D02*
X75693500Y-34714000D01*
X75443500Y-31114000D02*
X75443500Y-31864000D01*
X75693500Y-34714000D02*
X78723500Y-34714000D01*
X80943500Y-32814000D02*
X85743500Y-32814000D01*
X85743500Y-29214000D02*
X77543499Y-29214000D01*
X78727182Y-34692529D02*
G75*
G02X80943500Y-32814000I2151318J-291471D01*
G01*
X75443500Y-31114001D02*
G75*
G02X77543499Y-29214000I2000000J-99999D01*
G01*
D14*
X78327182Y-34292529D02*
G75*
G02X80543500Y-32414000I2151318J-291471D01*
G01*
D13*
X75893500Y-34514000D02*
X78343500Y-34514000D01*
D17*
X85593500Y-29414000D02*
X84343500Y-29414000D01*
D10*
X70781000Y-69864000D02*
X70781000Y-69214000D01*
D11*
X71281000Y-72314000D02*
X71281000Y-70514001D01*
D12*
X72411000Y-68814000D02*
X72411000Y-71054000D01*
D13*
X80781000Y-70664000D02*
X79481000Y-70614000D01*
D14*
X80481000Y-67914000D02*
X80481000Y-70414000D01*
D15*
X79181000Y-69114000D02*
X72481000Y-69114000D01*
D16*
X80981000Y-70914000D02*
X80981000Y-67314000D01*
X80961000Y-69914000D02*
X80961000Y-67664000D01*
X70681000Y-69964000D02*
X70881000Y-69964000D01*
X70931000Y-68364000D02*
X70931000Y-72814000D01*
X70681000Y-69214000D02*
X70681000Y-69964000D01*
X70931000Y-72814000D02*
X73961000Y-72814000D01*
X76181000Y-70914000D02*
X80981000Y-70914000D01*
X80981000Y-67314000D02*
X72780999Y-67314000D01*
X73964682Y-72792529D02*
G75*
G02X76181000Y-70914000I2151318J-291471D01*
G01*
X70681000Y-69214001D02*
G75*
G02X72780999Y-67314000I2000000J-99999D01*
G01*
D14*
X73564682Y-72392529D02*
G75*
G02X75781000Y-70514000I2151318J-291471D01*
G01*
D13*
X71131000Y-72614000D02*
X73581000Y-72614000D01*
D17*
X80831000Y-67514000D02*
X79581000Y-67514000D01*
D10*
X61256000Y-50814000D02*
X61256000Y-50164000D01*
D11*
X61756000Y-53264000D02*
X61756000Y-51464001D01*
D12*
X62886000Y-49764000D02*
X62886000Y-52004000D01*
D13*
X71256000Y-51614000D02*
X69956000Y-51564000D01*
D14*
X70956000Y-48864000D02*
X70956000Y-51364000D01*
D15*
X69656000Y-50064000D02*
X62956000Y-50064000D01*
D16*
X71456000Y-51864000D02*
X71456000Y-48264000D01*
X71436000Y-50864000D02*
X71436000Y-48614000D01*
X61156000Y-50914000D02*
X61356000Y-50914000D01*
X61406000Y-49314000D02*
X61406000Y-53764000D01*
X61156000Y-50164000D02*
X61156000Y-50914000D01*
X61406000Y-53764000D02*
X64436000Y-53764000D01*
X66656000Y-51864000D02*
X71456000Y-51864000D01*
X71456000Y-48264000D02*
X63255999Y-48264000D01*
X64439682Y-53742529D02*
G75*
G02X66656000Y-51864000I2151318J-291471D01*
G01*
X61156000Y-50164001D02*
G75*
G02X63255999Y-48264000I2000000J-99999D01*
G01*
D14*
X64039682Y-53342529D02*
G75*
G02X66256000Y-51464000I2151318J-291471D01*
G01*
D13*
X61606000Y-53564000D02*
X64056000Y-53564000D01*
D17*
X71306000Y-48464000D02*
X70056000Y-48464000D01*
D10*
X56493500Y-31764000D02*
X56493500Y-31114000D01*
D11*
X56993500Y-34214000D02*
X56993500Y-32414001D01*
D12*
X58123500Y-30714000D02*
X58123500Y-32954000D01*
D13*
X66493500Y-32564000D02*
X65193500Y-32514000D01*
D14*
X66193500Y-29814000D02*
X66193500Y-32314000D01*
D15*
X64893500Y-31014000D02*
X58193500Y-31014000D01*
D16*
X66693500Y-32814000D02*
X66693500Y-29214000D01*
X66673500Y-31814000D02*
X66673500Y-29564000D01*
X56393500Y-31864000D02*
X56593500Y-31864000D01*
X56643500Y-30264000D02*
X56643500Y-34714000D01*
X56393500Y-31114000D02*
X56393500Y-31864000D01*
X56643500Y-34714000D02*
X59673500Y-34714000D01*
X61893500Y-32814000D02*
X66693500Y-32814000D01*
X66693500Y-29214000D02*
X58493499Y-29214000D01*
X59677182Y-34692529D02*
G75*
G02X61893500Y-32814000I2151318J-291471D01*
G01*
X56393500Y-31114001D02*
G75*
G02X58493499Y-29214000I2000000J-99999D01*
G01*
D14*
X59277182Y-34292529D02*
G75*
G02X61493500Y-32414000I2151318J-291471D01*
G01*
D13*
X56843500Y-34514000D02*
X59293500Y-34514000D01*
D17*
X66543500Y-29414000D02*
X65293500Y-29414000D01*
D10*
X51731000Y-69864000D02*
X51731000Y-69214000D01*
D11*
X52231000Y-72314000D02*
X52231000Y-70514001D01*
D12*
X53361000Y-68814000D02*
X53361000Y-71054000D01*
D13*
X61731000Y-70664000D02*
X60431000Y-70614000D01*
D14*
X61431000Y-67914000D02*
X61431000Y-70414000D01*
D15*
X60131000Y-69114000D02*
X53431000Y-69114000D01*
D16*
X61931000Y-70914000D02*
X61931000Y-67314000D01*
X61911000Y-69914000D02*
X61911000Y-67664000D01*
X51631000Y-69964000D02*
X51831000Y-69964000D01*
X51881000Y-68364000D02*
X51881000Y-72814000D01*
X51631000Y-69214000D02*
X51631000Y-69964000D01*
X51881000Y-72814000D02*
X54911000Y-72814000D01*
X57131000Y-70914000D02*
X61931000Y-70914000D01*
X61931000Y-67314000D02*
X53730999Y-67314000D01*
X54914682Y-72792529D02*
G75*
G02X57131000Y-70914000I2151318J-291471D01*
G01*
X51631000Y-69214001D02*
G75*
G02X53730999Y-67314000I2000000J-99999D01*
G01*
D14*
X54514682Y-72392529D02*
G75*
G02X56731000Y-70514000I2151318J-291471D01*
G01*
D13*
X52081000Y-72614000D02*
X54531000Y-72614000D01*
D17*
X61781000Y-67514000D02*
X60531000Y-67514000D01*
D10*
X42206000Y-50814000D02*
X42206000Y-50164000D01*
D11*
X42706000Y-53264000D02*
X42706000Y-51464001D01*
D12*
X43836000Y-49764000D02*
X43836000Y-52004000D01*
D13*
X52206000Y-51614000D02*
X50906000Y-51564000D01*
D14*
X51906000Y-48864000D02*
X51906000Y-51364000D01*
D15*
X50606000Y-50064000D02*
X43906000Y-50064000D01*
D16*
X52406000Y-51864000D02*
X52406000Y-48264000D01*
X52386000Y-50864000D02*
X52386000Y-48614000D01*
X42106000Y-50914000D02*
X42306000Y-50914000D01*
X42356000Y-49314000D02*
X42356000Y-53764000D01*
X42106000Y-50164000D02*
X42106000Y-50914000D01*
X42356000Y-53764000D02*
X45386000Y-53764000D01*
X47606000Y-51864000D02*
X52406000Y-51864000D01*
X52406000Y-48264000D02*
X44205999Y-48264000D01*
X45389682Y-53742529D02*
G75*
G02X47606000Y-51864000I2151318J-291471D01*
G01*
X42106000Y-50164001D02*
G75*
G02X44205999Y-48264000I2000000J-99999D01*
G01*
D14*
X44989682Y-53342529D02*
G75*
G02X47206000Y-51464000I2151318J-291471D01*
G01*
D13*
X42556000Y-53564000D02*
X45006000Y-53564000D01*
D17*
X52256000Y-48464000D02*
X51006000Y-48464000D01*
D10*
X37443500Y-31764000D02*
X37443500Y-31114000D01*
D11*
X37943500Y-34214000D02*
X37943500Y-32414001D01*
D12*
X39073500Y-30714000D02*
X39073500Y-32954000D01*
D13*
X47443500Y-32564000D02*
X46143500Y-32514000D01*
D14*
X47143500Y-29814000D02*
X47143500Y-32314000D01*
D15*
X45843500Y-31014000D02*
X39143500Y-31014000D01*
D16*
X47643500Y-32814000D02*
X47643500Y-29214000D01*
X47623500Y-31814000D02*
X47623500Y-29564000D01*
X37343500Y-31864000D02*
X37543500Y-31864000D01*
X37593500Y-30264000D02*
X37593500Y-34714000D01*
X37343500Y-31114000D02*
X37343500Y-31864000D01*
X37593500Y-34714000D02*
X40623500Y-34714000D01*
X42843500Y-32814000D02*
X47643500Y-32814000D01*
X47643500Y-29214000D02*
X39443499Y-29214000D01*
X40627182Y-34692529D02*
G75*
G02X42843500Y-32814000I2151318J-291471D01*
G01*
X37343500Y-31114001D02*
G75*
G02X39443499Y-29214000I2000000J-99999D01*
G01*
D14*
X40227182Y-34292529D02*
G75*
G02X42443500Y-32414000I2151318J-291471D01*
G01*
D13*
X37793500Y-34514000D02*
X40243500Y-34514000D01*
D17*
X47493500Y-29414000D02*
X46243500Y-29414000D01*
D10*
X18393500Y-31764000D02*
X18393500Y-31114000D01*
D11*
X18893500Y-34214000D02*
X18893500Y-32414001D01*
D12*
X20023500Y-30714000D02*
X20023500Y-32954000D01*
D13*
X28393500Y-32564000D02*
X27093500Y-32514000D01*
D14*
X28093500Y-29814000D02*
X28093500Y-32314000D01*
D15*
X26793500Y-31014000D02*
X20093500Y-31014000D01*
D16*
X28593500Y-32814000D02*
X28593500Y-29214000D01*
X28573500Y-31814000D02*
X28573500Y-29564000D01*
X18293500Y-31864000D02*
X18493500Y-31864000D01*
X18543500Y-30264000D02*
X18543500Y-34714000D01*
X18293500Y-31114000D02*
X18293500Y-31864000D01*
X18543500Y-34714000D02*
X21573500Y-34714000D01*
X23793500Y-32814000D02*
X28593500Y-32814000D01*
X28593500Y-29214000D02*
X20393499Y-29214000D01*
X21577182Y-34692529D02*
G75*
G02X23793500Y-32814000I2151318J-291471D01*
G01*
X18293500Y-31114001D02*
G75*
G02X20393499Y-29214000I2000000J-99999D01*
G01*
D14*
X21177182Y-34292529D02*
G75*
G02X23393500Y-32414000I2151318J-291471D01*
G01*
D13*
X18743500Y-34514000D02*
X21193500Y-34514000D01*
D17*
X28443500Y-29414000D02*
X27193500Y-29414000D01*
D16*
X265811000Y-77565250D02*
X265811000Y-75025250D01*
X275971000Y-77565250D02*
X265811000Y-77565250D01*
X275971000Y-75025250D02*
X275971000Y-77565250D01*
X265811000Y-75025250D02*
X275971000Y-75025250D01*
D18*
X270164750Y-101227750D02*
X270164750Y-98987750D01*
X270404750Y-101227750D02*
X270404750Y-98987750D01*
X270284750Y-101227750D02*
X270284750Y-98987750D01*
X274454750Y-100107750D02*
X273804750Y-100107750D01*
X268914750Y-100107750D02*
X269564750Y-100107750D01*
X273804750Y-101227750D02*
X269564750Y-101227750D01*
X273804750Y-98987750D02*
X273804750Y-101227750D01*
X269564750Y-98987750D02*
X273804750Y-98987750D01*
X269564750Y-101227750D02*
X269564750Y-98987750D01*
X246291000Y-83294000D02*
X246291000Y-85534000D01*
X246051000Y-83294000D02*
X246051000Y-85534000D01*
X246171000Y-83294000D02*
X246171000Y-85534000D01*
X242001000Y-84414000D02*
X242651000Y-84414000D01*
X247541000Y-84414000D02*
X246891000Y-84414000D01*
X242651000Y-83294000D02*
X246891000Y-83294000D01*
X242651000Y-85534000D02*
X242651000Y-83294000D01*
X246891000Y-85534000D02*
X242651000Y-85534000D01*
X246891000Y-83294000D02*
X246891000Y-85534000D01*
X246291000Y-64294000D02*
X246291000Y-66534000D01*
X246051000Y-64294000D02*
X246051000Y-66534000D01*
X246171000Y-64294000D02*
X246171000Y-66534000D01*
X242001000Y-65414000D02*
X242651000Y-65414000D01*
X247541000Y-65414000D02*
X246891000Y-65414000D01*
X242651000Y-64294000D02*
X246891000Y-64294000D01*
X242651000Y-66534000D02*
X242651000Y-64294000D01*
X246891000Y-66534000D02*
X242651000Y-66534000D01*
X246891000Y-64294000D02*
X246891000Y-66534000D01*
X241550000Y-45362000D02*
X241550000Y-47602000D01*
X241310000Y-45362000D02*
X241310000Y-47602000D01*
X241430000Y-45362000D02*
X241430000Y-47602000D01*
X237260000Y-46482000D02*
X237910000Y-46482000D01*
X242800000Y-46482000D02*
X242150000Y-46482000D01*
X237910000Y-45362000D02*
X242150000Y-45362000D01*
X237910000Y-47602000D02*
X237910000Y-45362000D01*
X242150000Y-47602000D02*
X237910000Y-47602000D01*
X242150000Y-45362000D02*
X242150000Y-47602000D01*
X227291000Y-83294000D02*
X227291000Y-85534000D01*
X227051000Y-83294000D02*
X227051000Y-85534000D01*
X227171000Y-83294000D02*
X227171000Y-85534000D01*
X223001000Y-84414000D02*
X223651000Y-84414000D01*
X228541000Y-84414000D02*
X227891000Y-84414000D01*
X223651000Y-83294000D02*
X227891000Y-83294000D01*
X223651000Y-85534000D02*
X223651000Y-83294000D01*
X227891000Y-85534000D02*
X223651000Y-85534000D01*
X227891000Y-83294000D02*
X227891000Y-85534000D01*
X227291000Y-64294000D02*
X227291000Y-66534000D01*
X227051000Y-64294000D02*
X227051000Y-66534000D01*
X227171000Y-64294000D02*
X227171000Y-66534000D01*
X223001000Y-65414000D02*
X223651000Y-65414000D01*
X228541000Y-65414000D02*
X227891000Y-65414000D01*
X223651000Y-64294000D02*
X227891000Y-64294000D01*
X223651000Y-66534000D02*
X223651000Y-64294000D01*
X227891000Y-66534000D02*
X223651000Y-66534000D01*
X227891000Y-64294000D02*
X227891000Y-66534000D01*
X217666000Y-45294000D02*
X217666000Y-47534000D01*
X217426000Y-45294000D02*
X217426000Y-47534000D01*
X217546000Y-45294000D02*
X217546000Y-47534000D01*
X213376000Y-46414000D02*
X214026000Y-46414000D01*
X218916000Y-46414000D02*
X218266000Y-46414000D01*
X214026000Y-45294000D02*
X218266000Y-45294000D01*
X214026000Y-47534000D02*
X214026000Y-45294000D01*
X218266000Y-47534000D02*
X214026000Y-47534000D01*
X218266000Y-45294000D02*
X218266000Y-47534000D01*
X208149000Y-83462000D02*
X208149000Y-85702000D01*
X207909000Y-83462000D02*
X207909000Y-85702000D01*
X208029000Y-83462000D02*
X208029000Y-85702000D01*
X203859000Y-84582000D02*
X204509000Y-84582000D01*
X209399000Y-84582000D02*
X208749000Y-84582000D01*
X204509000Y-83462000D02*
X208749000Y-83462000D01*
X204509000Y-85702000D02*
X204509000Y-83462000D01*
X208749000Y-85702000D02*
X204509000Y-85702000D01*
X208749000Y-83462000D02*
X208749000Y-85702000D01*
X208291000Y-64294000D02*
X208291000Y-66534000D01*
X208051000Y-64294000D02*
X208051000Y-66534000D01*
X208171000Y-64294000D02*
X208171000Y-66534000D01*
X204001000Y-65414000D02*
X204651000Y-65414000D01*
X209541000Y-65414000D02*
X208891000Y-65414000D01*
X204651000Y-64294000D02*
X208891000Y-64294000D01*
X204651000Y-66534000D02*
X204651000Y-64294000D01*
X208891000Y-66534000D02*
X204651000Y-66534000D01*
X208891000Y-64294000D02*
X208891000Y-66534000D01*
X198666000Y-45294000D02*
X198666000Y-47534000D01*
X198426000Y-45294000D02*
X198426000Y-47534000D01*
X198546000Y-45294000D02*
X198546000Y-47534000D01*
X194376000Y-46414000D02*
X195026000Y-46414000D01*
X199916000Y-46414000D02*
X199266000Y-46414000D01*
X195026000Y-45294000D02*
X199266000Y-45294000D01*
X195026000Y-47534000D02*
X195026000Y-45294000D01*
X199266000Y-47534000D02*
X195026000Y-47534000D01*
X199266000Y-45294000D02*
X199266000Y-47534000D01*
X184273000Y-83462000D02*
X184273000Y-85702000D01*
X184033000Y-83462000D02*
X184033000Y-85702000D01*
X184153000Y-83462000D02*
X184153000Y-85702000D01*
X179983000Y-84582000D02*
X180633000Y-84582000D01*
X185523000Y-84582000D02*
X184873000Y-84582000D01*
X180633000Y-83462000D02*
X184873000Y-83462000D01*
X180633000Y-85702000D02*
X180633000Y-83462000D01*
X184873000Y-85702000D02*
X180633000Y-85702000D01*
X184873000Y-83462000D02*
X184873000Y-85702000D01*
X189041000Y-64294000D02*
X189041000Y-66534000D01*
X188801000Y-64294000D02*
X188801000Y-66534000D01*
X188921000Y-64294000D02*
X188921000Y-66534000D01*
X184751000Y-65414000D02*
X185401000Y-65414000D01*
X190291000Y-65414000D02*
X189641000Y-65414000D01*
X185401000Y-64294000D02*
X189641000Y-64294000D01*
X185401000Y-66534000D02*
X185401000Y-64294000D01*
X189641000Y-66534000D02*
X185401000Y-66534000D01*
X189641000Y-64294000D02*
X189641000Y-66534000D01*
X179666000Y-45294000D02*
X179666000Y-47534000D01*
X179426000Y-45294000D02*
X179426000Y-47534000D01*
X179546000Y-45294000D02*
X179546000Y-47534000D01*
X175376000Y-46414000D02*
X176026000Y-46414000D01*
X180916000Y-46414000D02*
X180266000Y-46414000D01*
X176026000Y-45294000D02*
X180266000Y-45294000D01*
X176026000Y-47534000D02*
X176026000Y-45294000D01*
X180266000Y-47534000D02*
X176026000Y-47534000D01*
X180266000Y-45294000D02*
X180266000Y-47534000D01*
X170041000Y-64294000D02*
X170041000Y-66534000D01*
X169801000Y-64294000D02*
X169801000Y-66534000D01*
X169921000Y-64294000D02*
X169921000Y-66534000D01*
X165751000Y-65414000D02*
X166401000Y-65414000D01*
X171291000Y-65414000D02*
X170641000Y-65414000D01*
X166401000Y-64294000D02*
X170641000Y-64294000D01*
X166401000Y-66534000D02*
X166401000Y-64294000D01*
X170641000Y-66534000D02*
X166401000Y-66534000D01*
X170641000Y-64294000D02*
X170641000Y-66534000D01*
X160466000Y-45294000D02*
X160466000Y-47534000D01*
X160226000Y-45294000D02*
X160226000Y-47534000D01*
X160346000Y-45294000D02*
X160346000Y-47534000D01*
X156176000Y-46414000D02*
X156826000Y-46414000D01*
X161716000Y-46414000D02*
X161066000Y-46414000D01*
X156826000Y-45294000D02*
X161066000Y-45294000D01*
X156826000Y-47534000D02*
X156826000Y-45294000D01*
X161066000Y-47534000D02*
X156826000Y-47534000D01*
X161066000Y-45294000D02*
X161066000Y-47534000D01*
X151041000Y-64294000D02*
X151041000Y-66534000D01*
X150801000Y-64294000D02*
X150801000Y-66534000D01*
X150921000Y-64294000D02*
X150921000Y-66534000D01*
X146751000Y-65414000D02*
X147401000Y-65414000D01*
X152291000Y-65414000D02*
X151641000Y-65414000D01*
X147401000Y-64294000D02*
X151641000Y-64294000D01*
X147401000Y-66534000D02*
X147401000Y-64294000D01*
X151641000Y-66534000D02*
X147401000Y-66534000D01*
X151641000Y-64294000D02*
X151641000Y-66534000D01*
X141466000Y-45294000D02*
X141466000Y-47534000D01*
X141226000Y-45294000D02*
X141226000Y-47534000D01*
X141346000Y-45294000D02*
X141346000Y-47534000D01*
X137176000Y-46414000D02*
X137826000Y-46414000D01*
X142716000Y-46414000D02*
X142066000Y-46414000D01*
X137826000Y-45294000D02*
X142066000Y-45294000D01*
X137826000Y-47534000D02*
X137826000Y-45294000D01*
X142066000Y-47534000D02*
X137826000Y-47534000D01*
X142066000Y-45294000D02*
X142066000Y-47534000D01*
X132041000Y-64294000D02*
X132041000Y-66534000D01*
X131801000Y-64294000D02*
X131801000Y-66534000D01*
X131921000Y-64294000D02*
X131921000Y-66534000D01*
X127751000Y-65414000D02*
X128401000Y-65414000D01*
X133291000Y-65414000D02*
X132641000Y-65414000D01*
X128401000Y-64294000D02*
X132641000Y-64294000D01*
X128401000Y-66534000D02*
X128401000Y-64294000D01*
X132641000Y-66534000D02*
X128401000Y-66534000D01*
X132641000Y-64294000D02*
X132641000Y-66534000D01*
X122466000Y-45294000D02*
X122466000Y-47534000D01*
X122226000Y-45294000D02*
X122226000Y-47534000D01*
X122346000Y-45294000D02*
X122346000Y-47534000D01*
X118176000Y-46414000D02*
X118826000Y-46414000D01*
X123716000Y-46414000D02*
X123066000Y-46414000D01*
X118826000Y-45294000D02*
X123066000Y-45294000D01*
X118826000Y-47534000D02*
X118826000Y-45294000D01*
X123066000Y-47534000D02*
X118826000Y-47534000D01*
X123066000Y-45294000D02*
X123066000Y-47534000D01*
X150999000Y-83462000D02*
X150999000Y-85702000D01*
X150759000Y-83462000D02*
X150759000Y-85702000D01*
X150879000Y-83462000D02*
X150879000Y-85702000D01*
X146709000Y-84582000D02*
X147359000Y-84582000D01*
X152249000Y-84582000D02*
X151599000Y-84582000D01*
X147359000Y-83462000D02*
X151599000Y-83462000D01*
X147359000Y-85702000D02*
X147359000Y-83462000D01*
X151599000Y-85702000D02*
X147359000Y-85702000D01*
X151599000Y-83462000D02*
X151599000Y-85702000D01*
X112791000Y-64294000D02*
X112791000Y-66534000D01*
X112551000Y-64294000D02*
X112551000Y-66534000D01*
X112671000Y-64294000D02*
X112671000Y-66534000D01*
X108501000Y-65414000D02*
X109151000Y-65414000D01*
X114041000Y-65414000D02*
X113391000Y-65414000D01*
X109151000Y-64294000D02*
X113391000Y-64294000D01*
X109151000Y-66534000D02*
X109151000Y-64294000D01*
X113391000Y-66534000D02*
X109151000Y-66534000D01*
X113391000Y-64294000D02*
X113391000Y-66534000D01*
X103466000Y-45294000D02*
X103466000Y-47534000D01*
X103226000Y-45294000D02*
X103226000Y-47534000D01*
X103346000Y-45294000D02*
X103346000Y-47534000D01*
X99176000Y-46414000D02*
X99826000Y-46414000D01*
X104716000Y-46414000D02*
X104066000Y-46414000D01*
X99826000Y-45294000D02*
X104066000Y-45294000D01*
X99826000Y-47534000D02*
X99826000Y-45294000D01*
X104066000Y-47534000D02*
X99826000Y-47534000D01*
X104066000Y-45294000D02*
X104066000Y-47534000D01*
X110486000Y-83462000D02*
X110486000Y-85702000D01*
X110246000Y-83462000D02*
X110246000Y-85702000D01*
X110366000Y-83462000D02*
X110366000Y-85702000D01*
X106196000Y-84582000D02*
X106846000Y-84582000D01*
X111736000Y-84582000D02*
X111086000Y-84582000D01*
X106846000Y-83462000D02*
X111086000Y-83462000D01*
X106846000Y-85702000D02*
X106846000Y-83462000D01*
X111086000Y-85702000D02*
X106846000Y-85702000D01*
X111086000Y-83462000D02*
X111086000Y-85702000D01*
X93791000Y-64294000D02*
X93791000Y-66534000D01*
X93551000Y-64294000D02*
X93551000Y-66534000D01*
X93671000Y-64294000D02*
X93671000Y-66534000D01*
X89501000Y-65414000D02*
X90151000Y-65414000D01*
X95041000Y-65414000D02*
X94391000Y-65414000D01*
X90151000Y-64294000D02*
X94391000Y-64294000D01*
X90151000Y-66534000D02*
X90151000Y-64294000D01*
X94391000Y-66534000D02*
X90151000Y-66534000D01*
X94391000Y-64294000D02*
X94391000Y-66534000D01*
X84266000Y-45294000D02*
X84266000Y-47534000D01*
X84026000Y-45294000D02*
X84026000Y-47534000D01*
X84146000Y-45294000D02*
X84146000Y-47534000D01*
X79976000Y-46414000D02*
X80626000Y-46414000D01*
X85516000Y-46414000D02*
X84866000Y-46414000D01*
X80626000Y-45294000D02*
X84866000Y-45294000D01*
X80626000Y-47534000D02*
X80626000Y-45294000D01*
X84866000Y-47534000D02*
X80626000Y-47534000D01*
X84866000Y-45294000D02*
X84866000Y-47534000D01*
X77085000Y-83462000D02*
X77085000Y-85702000D01*
X76845000Y-83462000D02*
X76845000Y-85702000D01*
X76965000Y-83462000D02*
X76965000Y-85702000D01*
X72795000Y-84582000D02*
X73445000Y-84582000D01*
X78335000Y-84582000D02*
X77685000Y-84582000D01*
X73445000Y-83462000D02*
X77685000Y-83462000D01*
X73445000Y-85702000D02*
X73445000Y-83462000D01*
X77685000Y-85702000D02*
X73445000Y-85702000D01*
X77685000Y-83462000D02*
X77685000Y-85702000D01*
X74791000Y-64294000D02*
X74791000Y-66534000D01*
X74551000Y-64294000D02*
X74551000Y-66534000D01*
X74671000Y-64294000D02*
X74671000Y-66534000D01*
X70501000Y-65414000D02*
X71151000Y-65414000D01*
X76041000Y-65414000D02*
X75391000Y-65414000D01*
X71151000Y-64294000D02*
X75391000Y-64294000D01*
X71151000Y-66534000D02*
X71151000Y-64294000D01*
X75391000Y-66534000D02*
X71151000Y-66534000D01*
X75391000Y-64294000D02*
X75391000Y-66534000D01*
X65266000Y-45294000D02*
X65266000Y-47534000D01*
X65026000Y-45294000D02*
X65026000Y-47534000D01*
X65146000Y-45294000D02*
X65146000Y-47534000D01*
X60976000Y-46414000D02*
X61626000Y-46414000D01*
X66516000Y-46414000D02*
X65866000Y-46414000D01*
X61626000Y-45294000D02*
X65866000Y-45294000D01*
X61626000Y-47534000D02*
X61626000Y-45294000D01*
X65866000Y-47534000D02*
X61626000Y-47534000D01*
X65866000Y-45294000D02*
X65866000Y-47534000D01*
X50923000Y-83462000D02*
X50923000Y-85702000D01*
X50683000Y-83462000D02*
X50683000Y-85702000D01*
X50803000Y-83462000D02*
X50803000Y-85702000D01*
X46633000Y-84582000D02*
X47283000Y-84582000D01*
X52173000Y-84582000D02*
X51523000Y-84582000D01*
X47283000Y-83462000D02*
X51523000Y-83462000D01*
X47283000Y-85702000D02*
X47283000Y-83462000D01*
X51523000Y-85702000D02*
X47283000Y-85702000D01*
X51523000Y-83462000D02*
X51523000Y-85702000D01*
X55791000Y-64294000D02*
X55791000Y-66534000D01*
X55551000Y-64294000D02*
X55551000Y-66534000D01*
X55671000Y-64294000D02*
X55671000Y-66534000D01*
X51501000Y-65414000D02*
X52151000Y-65414000D01*
X57041000Y-65414000D02*
X56391000Y-65414000D01*
X52151000Y-64294000D02*
X56391000Y-64294000D01*
X52151000Y-66534000D02*
X52151000Y-64294000D01*
X56391000Y-66534000D02*
X52151000Y-66534000D01*
X56391000Y-64294000D02*
X56391000Y-66534000D01*
X46266000Y-45294000D02*
X46266000Y-47534000D01*
X46026000Y-45294000D02*
X46026000Y-47534000D01*
X46146000Y-45294000D02*
X46146000Y-47534000D01*
X41976000Y-46414000D02*
X42626000Y-46414000D01*
X47516000Y-46414000D02*
X46866000Y-46414000D01*
X42626000Y-45294000D02*
X46866000Y-45294000D01*
X42626000Y-47534000D02*
X42626000Y-45294000D01*
X46866000Y-47534000D02*
X42626000Y-47534000D01*
X46866000Y-45294000D02*
X46866000Y-47534000D01*
X24761000Y-83462000D02*
X24761000Y-85702000D01*
X24521000Y-83462000D02*
X24521000Y-85702000D01*
X24641000Y-83462000D02*
X24641000Y-85702000D01*
X20471000Y-84582000D02*
X21121000Y-84582000D01*
X26011000Y-84582000D02*
X25361000Y-84582000D01*
X21121000Y-83462000D02*
X25361000Y-83462000D01*
X21121000Y-85702000D02*
X21121000Y-83462000D01*
X25361000Y-85702000D02*
X21121000Y-85702000D01*
X25361000Y-83462000D02*
X25361000Y-85702000D01*
X29460000Y-64412000D02*
X29460000Y-66652000D01*
X29220000Y-64412000D02*
X29220000Y-66652000D01*
X29340000Y-64412000D02*
X29340000Y-66652000D01*
X25170000Y-65532000D02*
X25820000Y-65532000D01*
X30710000Y-65532000D02*
X30060000Y-65532000D01*
X25820000Y-64412000D02*
X30060000Y-64412000D01*
X25820000Y-66652000D02*
X25820000Y-64412000D01*
X30060000Y-66652000D02*
X25820000Y-66652000D01*
X30060000Y-64412000D02*
X30060000Y-66652000D01*
X24761000Y-45362000D02*
X24761000Y-47602000D01*
X24521000Y-45362000D02*
X24521000Y-47602000D01*
X24641000Y-45362000D02*
X24641000Y-47602000D01*
X20471000Y-46482000D02*
X21121000Y-46482000D01*
X26011000Y-46482000D02*
X25361000Y-46482000D01*
X21121000Y-45362000D02*
X25361000Y-45362000D01*
X21121000Y-47602000D02*
X21121000Y-45362000D01*
X25361000Y-47602000D02*
X21121000Y-47602000D01*
X25361000Y-45362000D02*
X25361000Y-47602000D01*
D16*
X155447785Y-29986380D02*
X155447785Y-28986380D01*
X155209690Y-28986380D01*
X155066833Y-29034000D01*
X154971595Y-29129238D01*
X154923976Y-29224476D01*
X154876357Y-29414952D01*
X154876357Y-29557809D01*
X154923976Y-29748285D01*
X154971595Y-29843523D01*
X155066833Y-29938761D01*
X155209690Y-29986380D01*
X155447785Y-29986380D01*
X154495404Y-29081619D02*
X154447785Y-29034000D01*
X154352547Y-28986380D01*
X154114452Y-28986380D01*
X154019214Y-29034000D01*
X153971595Y-29081619D01*
X153923976Y-29176857D01*
X153923976Y-29272095D01*
X153971595Y-29414952D01*
X154543023Y-29986380D01*
X153923976Y-29986380D01*
X153447785Y-29986380D02*
X153257309Y-29986380D01*
X153162071Y-29938761D01*
X153114452Y-29891142D01*
X153019214Y-29748285D01*
X152971595Y-29557809D01*
X152971595Y-29176857D01*
X153019214Y-29081619D01*
X153066833Y-29034000D01*
X153162071Y-28986380D01*
X153352547Y-28986380D01*
X153447785Y-29034000D01*
X153495404Y-29081619D01*
X153543023Y-29176857D01*
X153543023Y-29414952D01*
X153495404Y-29510190D01*
X153447785Y-29557809D01*
X153352547Y-29605428D01*
X153162071Y-29605428D01*
X153066833Y-29557809D01*
X153019214Y-29510190D01*
X152971595Y-29414952D01*
X158305404Y-29666380D02*
X158305404Y-28666380D01*
X157733976Y-29666380D02*
X158162547Y-29094952D01*
X157733976Y-28666380D02*
X158305404Y-29237809D01*
X238831285Y-30004380D02*
X238831285Y-29004380D01*
X238593190Y-29004380D01*
X238450333Y-29052000D01*
X238355095Y-29147238D01*
X238307476Y-29242476D01*
X238259857Y-29432952D01*
X238259857Y-29575809D01*
X238307476Y-29766285D01*
X238355095Y-29861523D01*
X238450333Y-29956761D01*
X238593190Y-30004380D01*
X238831285Y-30004380D01*
X237402714Y-29337714D02*
X237402714Y-30004380D01*
X237640809Y-28956761D02*
X237878904Y-29671047D01*
X237259857Y-29671047D01*
X236402714Y-29004380D02*
X236878904Y-29004380D01*
X236926523Y-29480571D01*
X236878904Y-29432952D01*
X236783666Y-29385333D01*
X236545571Y-29385333D01*
X236450333Y-29432952D01*
X236402714Y-29480571D01*
X236355095Y-29575809D01*
X236355095Y-29813904D01*
X236402714Y-29909142D01*
X236450333Y-29956761D01*
X236545571Y-30004380D01*
X236783666Y-30004380D01*
X236878904Y-29956761D01*
X236926523Y-29909142D01*
X241688904Y-29684380D02*
X241688904Y-28684380D01*
X241117476Y-29684380D02*
X241546047Y-29112952D01*
X241117476Y-28684380D02*
X241688904Y-29255809D01*
X248792904Y-100639511D02*
X248888142Y-100687130D01*
X249078619Y-100687130D01*
X249173857Y-100639511D01*
X249221476Y-100544273D01*
X249221476Y-100163321D01*
X249173857Y-100068083D01*
X249078619Y-100020464D01*
X248888142Y-100020464D01*
X248792904Y-100068083D01*
X248745285Y-100163321D01*
X248745285Y-100258559D01*
X249221476Y-100353797D01*
X247888142Y-100020464D02*
X247888142Y-100687130D01*
X248126238Y-99639511D02*
X248364333Y-100353797D01*
X247745285Y-100353797D01*
X247221476Y-100115702D02*
X247316714Y-100068083D01*
X247364333Y-100020464D01*
X247411952Y-99925226D01*
X247411952Y-99877607D01*
X247364333Y-99782369D01*
X247316714Y-99734750D01*
X247221476Y-99687130D01*
X247031000Y-99687130D01*
X246935761Y-99734750D01*
X246888142Y-99782369D01*
X246840523Y-99877607D01*
X246840523Y-99925226D01*
X246888142Y-100020464D01*
X246935761Y-100068083D01*
X247031000Y-100115702D01*
X247221476Y-100115702D01*
X247316714Y-100163321D01*
X247364333Y-100210940D01*
X247411952Y-100306178D01*
X247411952Y-100496654D01*
X247364333Y-100591892D01*
X247316714Y-100639511D01*
X247221476Y-100687130D01*
X247031000Y-100687130D01*
X246935761Y-100639511D01*
X246888142Y-100591892D01*
X246840523Y-100496654D01*
X246840523Y-100306178D01*
X246888142Y-100210940D01*
X246935761Y-100163321D01*
X247031000Y-100115702D01*
X248792904Y-76509511D02*
X248888142Y-76557130D01*
X249078619Y-76557130D01*
X249173857Y-76509511D01*
X249221476Y-76414273D01*
X249221476Y-76033321D01*
X249173857Y-75938083D01*
X249078619Y-75890464D01*
X248888142Y-75890464D01*
X248792904Y-75938083D01*
X248745285Y-76033321D01*
X248745285Y-76128559D01*
X249221476Y-76223797D01*
X247888142Y-75890464D02*
X247888142Y-76557130D01*
X248126238Y-75509511D02*
X248364333Y-76223797D01*
X247745285Y-76223797D01*
X247459571Y-75557130D02*
X246792904Y-75557130D01*
X247221476Y-76557130D01*
X244030404Y-62539511D02*
X244125642Y-62587130D01*
X244316119Y-62587130D01*
X244411357Y-62539511D01*
X244458976Y-62444273D01*
X244458976Y-62063321D01*
X244411357Y-61968083D01*
X244316119Y-61920464D01*
X244125642Y-61920464D01*
X244030404Y-61968083D01*
X243982785Y-62063321D01*
X243982785Y-62158559D01*
X244458976Y-62253797D01*
X243125642Y-61920464D02*
X243125642Y-62587130D01*
X243363738Y-61539511D02*
X243601833Y-62253797D01*
X242982785Y-62253797D01*
X242173261Y-61587130D02*
X242363738Y-61587130D01*
X242458976Y-61634750D01*
X242506595Y-61682369D01*
X242601833Y-61825226D01*
X242649452Y-62015702D01*
X242649452Y-62396654D01*
X242601833Y-62491892D01*
X242554214Y-62539511D01*
X242458976Y-62587130D01*
X242268500Y-62587130D01*
X242173261Y-62539511D01*
X242125642Y-62491892D01*
X242078023Y-62396654D01*
X242078023Y-62158559D01*
X242125642Y-62063321D01*
X242173261Y-62015702D01*
X242268500Y-61968083D01*
X242458976Y-61968083D01*
X242554214Y-62015702D01*
X242601833Y-62063321D01*
X242649452Y-62158559D01*
X241649154Y-43489511D02*
X241744392Y-43537130D01*
X241934869Y-43537130D01*
X242030107Y-43489511D01*
X242077726Y-43394273D01*
X242077726Y-43013321D01*
X242030107Y-42918083D01*
X241934869Y-42870464D01*
X241744392Y-42870464D01*
X241649154Y-42918083D01*
X241601535Y-43013321D01*
X241601535Y-43108559D01*
X242077726Y-43203797D01*
X240744392Y-42870464D02*
X240744392Y-43537130D01*
X240982488Y-42489511D02*
X241220583Y-43203797D01*
X240601535Y-43203797D01*
X239744392Y-42537130D02*
X240220583Y-42537130D01*
X240268202Y-43013321D01*
X240220583Y-42965702D01*
X240125345Y-42918083D01*
X239887250Y-42918083D01*
X239792011Y-42965702D01*
X239744392Y-43013321D01*
X239696773Y-43108559D01*
X239696773Y-43346654D01*
X239744392Y-43441892D01*
X239792011Y-43489511D01*
X239887250Y-43537130D01*
X240125345Y-43537130D01*
X240220583Y-43489511D01*
X240268202Y-43441892D01*
X229742904Y-100639511D02*
X229838142Y-100687130D01*
X230028619Y-100687130D01*
X230123857Y-100639511D01*
X230171476Y-100544273D01*
X230171476Y-100163321D01*
X230123857Y-100068083D01*
X230028619Y-100020464D01*
X229838142Y-100020464D01*
X229742904Y-100068083D01*
X229695285Y-100163321D01*
X229695285Y-100258559D01*
X230171476Y-100353797D01*
X228838142Y-100020464D02*
X228838142Y-100687130D01*
X229076238Y-99639511D02*
X229314333Y-100353797D01*
X228695285Y-100353797D01*
X227885761Y-100020464D02*
X227885761Y-100687130D01*
X228123857Y-99639511D02*
X228361952Y-100353797D01*
X227742904Y-100353797D01*
X229742904Y-76509511D02*
X229838142Y-76557130D01*
X230028619Y-76557130D01*
X230123857Y-76509511D01*
X230171476Y-76414273D01*
X230171476Y-76033321D01*
X230123857Y-75938083D01*
X230028619Y-75890464D01*
X229838142Y-75890464D01*
X229742904Y-75938083D01*
X229695285Y-76033321D01*
X229695285Y-76128559D01*
X230171476Y-76223797D01*
X228838142Y-75890464D02*
X228838142Y-76557130D01*
X229076238Y-75509511D02*
X229314333Y-76223797D01*
X228695285Y-76223797D01*
X228409571Y-75557130D02*
X227790523Y-75557130D01*
X228123857Y-75938083D01*
X227981000Y-75938083D01*
X227885761Y-75985702D01*
X227838142Y-76033321D01*
X227790523Y-76128559D01*
X227790523Y-76366654D01*
X227838142Y-76461892D01*
X227885761Y-76509511D01*
X227981000Y-76557130D01*
X228266714Y-76557130D01*
X228361952Y-76509511D01*
X228409571Y-76461892D01*
X220217904Y-62539511D02*
X220313142Y-62587130D01*
X220503619Y-62587130D01*
X220598857Y-62539511D01*
X220646476Y-62444273D01*
X220646476Y-62063321D01*
X220598857Y-61968083D01*
X220503619Y-61920464D01*
X220313142Y-61920464D01*
X220217904Y-61968083D01*
X220170285Y-62063321D01*
X220170285Y-62158559D01*
X220646476Y-62253797D01*
X219313142Y-61920464D02*
X219313142Y-62587130D01*
X219551238Y-61539511D02*
X219789333Y-62253797D01*
X219170285Y-62253797D01*
X218836952Y-61682369D02*
X218789333Y-61634750D01*
X218694095Y-61587130D01*
X218456000Y-61587130D01*
X218360761Y-61634750D01*
X218313142Y-61682369D01*
X218265523Y-61777607D01*
X218265523Y-61872845D01*
X218313142Y-62015702D01*
X218884571Y-62587130D01*
X218265523Y-62587130D01*
X215455404Y-43489511D02*
X215550642Y-43537130D01*
X215741119Y-43537130D01*
X215836357Y-43489511D01*
X215883976Y-43394273D01*
X215883976Y-43013321D01*
X215836357Y-42918083D01*
X215741119Y-42870464D01*
X215550642Y-42870464D01*
X215455404Y-42918083D01*
X215407785Y-43013321D01*
X215407785Y-43108559D01*
X215883976Y-43203797D01*
X214550642Y-42870464D02*
X214550642Y-43537130D01*
X214788738Y-42489511D02*
X215026833Y-43203797D01*
X214407785Y-43203797D01*
X213503023Y-43537130D02*
X214074452Y-43537130D01*
X213788738Y-43537130D02*
X213788738Y-42537130D01*
X213883976Y-42679988D01*
X213979214Y-42775226D01*
X214074452Y-42822845D01*
X210692904Y-100639511D02*
X210788142Y-100687130D01*
X210978619Y-100687130D01*
X211073857Y-100639511D01*
X211121476Y-100544273D01*
X211121476Y-100163321D01*
X211073857Y-100068083D01*
X210978619Y-100020464D01*
X210788142Y-100020464D01*
X210692904Y-100068083D01*
X210645285Y-100163321D01*
X210645285Y-100258559D01*
X211121476Y-100353797D01*
X209788142Y-100020464D02*
X209788142Y-100687130D01*
X210026238Y-99639511D02*
X210264333Y-100353797D01*
X209645285Y-100353797D01*
X209073857Y-99687130D02*
X208978619Y-99687130D01*
X208883380Y-99734750D01*
X208835761Y-99782369D01*
X208788142Y-99877607D01*
X208740523Y-100068083D01*
X208740523Y-100306178D01*
X208788142Y-100496654D01*
X208835761Y-100591892D01*
X208883380Y-100639511D01*
X208978619Y-100687130D01*
X209073857Y-100687130D01*
X209169095Y-100639511D01*
X209216714Y-100591892D01*
X209264333Y-100496654D01*
X209311952Y-100306178D01*
X209311952Y-100068083D01*
X209264333Y-99877607D01*
X209216714Y-99782369D01*
X209169095Y-99734750D01*
X209073857Y-99687130D01*
X210692904Y-76509511D02*
X210788142Y-76557130D01*
X210978619Y-76557130D01*
X211073857Y-76509511D01*
X211121476Y-76414273D01*
X211121476Y-76033321D01*
X211073857Y-75938083D01*
X210978619Y-75890464D01*
X210788142Y-75890464D01*
X210692904Y-75938083D01*
X210645285Y-76033321D01*
X210645285Y-76128559D01*
X211121476Y-76223797D01*
X210311952Y-75557130D02*
X209692904Y-75557130D01*
X210026238Y-75938083D01*
X209883380Y-75938083D01*
X209788142Y-75985702D01*
X209740523Y-76033321D01*
X209692904Y-76128559D01*
X209692904Y-76366654D01*
X209740523Y-76461892D01*
X209788142Y-76509511D01*
X209883380Y-76557130D01*
X210169095Y-76557130D01*
X210264333Y-76509511D01*
X210311952Y-76461892D01*
X209216714Y-76557130D02*
X209026238Y-76557130D01*
X208931000Y-76509511D01*
X208883380Y-76461892D01*
X208788142Y-76319035D01*
X208740523Y-76128559D01*
X208740523Y-75747607D01*
X208788142Y-75652369D01*
X208835761Y-75604750D01*
X208931000Y-75557130D01*
X209121476Y-75557130D01*
X209216714Y-75604750D01*
X209264333Y-75652369D01*
X209311952Y-75747607D01*
X209311952Y-75985702D01*
X209264333Y-76080940D01*
X209216714Y-76128559D01*
X209121476Y-76176178D01*
X208931000Y-76176178D01*
X208835761Y-76128559D01*
X208788142Y-76080940D01*
X208740523Y-75985702D01*
X201167904Y-62539511D02*
X201263142Y-62587130D01*
X201453619Y-62587130D01*
X201548857Y-62539511D01*
X201596476Y-62444273D01*
X201596476Y-62063321D01*
X201548857Y-61968083D01*
X201453619Y-61920464D01*
X201263142Y-61920464D01*
X201167904Y-61968083D01*
X201120285Y-62063321D01*
X201120285Y-62158559D01*
X201596476Y-62253797D01*
X200786952Y-61587130D02*
X200167904Y-61587130D01*
X200501238Y-61968083D01*
X200358380Y-61968083D01*
X200263142Y-62015702D01*
X200215523Y-62063321D01*
X200167904Y-62158559D01*
X200167904Y-62396654D01*
X200215523Y-62491892D01*
X200263142Y-62539511D01*
X200358380Y-62587130D01*
X200644095Y-62587130D01*
X200739333Y-62539511D01*
X200786952Y-62491892D01*
X199596476Y-62015702D02*
X199691714Y-61968083D01*
X199739333Y-61920464D01*
X199786952Y-61825226D01*
X199786952Y-61777607D01*
X199739333Y-61682369D01*
X199691714Y-61634750D01*
X199596476Y-61587130D01*
X199406000Y-61587130D01*
X199310761Y-61634750D01*
X199263142Y-61682369D01*
X199215523Y-61777607D01*
X199215523Y-61825226D01*
X199263142Y-61920464D01*
X199310761Y-61968083D01*
X199406000Y-62015702D01*
X199596476Y-62015702D01*
X199691714Y-62063321D01*
X199739333Y-62110940D01*
X199786952Y-62206178D01*
X199786952Y-62396654D01*
X199739333Y-62491892D01*
X199691714Y-62539511D01*
X199596476Y-62587130D01*
X199406000Y-62587130D01*
X199310761Y-62539511D01*
X199263142Y-62491892D01*
X199215523Y-62396654D01*
X199215523Y-62206178D01*
X199263142Y-62110940D01*
X199310761Y-62063321D01*
X199406000Y-62015702D01*
X196405404Y-43489511D02*
X196500642Y-43537130D01*
X196691119Y-43537130D01*
X196786357Y-43489511D01*
X196833976Y-43394273D01*
X196833976Y-43013321D01*
X196786357Y-42918083D01*
X196691119Y-42870464D01*
X196500642Y-42870464D01*
X196405404Y-42918083D01*
X196357785Y-43013321D01*
X196357785Y-43108559D01*
X196833976Y-43203797D01*
X196024452Y-42537130D02*
X195405404Y-42537130D01*
X195738738Y-42918083D01*
X195595880Y-42918083D01*
X195500642Y-42965702D01*
X195453023Y-43013321D01*
X195405404Y-43108559D01*
X195405404Y-43346654D01*
X195453023Y-43441892D01*
X195500642Y-43489511D01*
X195595880Y-43537130D01*
X195881595Y-43537130D01*
X195976833Y-43489511D01*
X196024452Y-43441892D01*
X195072071Y-42537130D02*
X194405404Y-42537130D01*
X194833976Y-43537130D01*
X186880404Y-100639511D02*
X186975642Y-100687130D01*
X187166119Y-100687130D01*
X187261357Y-100639511D01*
X187308976Y-100544273D01*
X187308976Y-100163321D01*
X187261357Y-100068083D01*
X187166119Y-100020464D01*
X186975642Y-100020464D01*
X186880404Y-100068083D01*
X186832785Y-100163321D01*
X186832785Y-100258559D01*
X187308976Y-100353797D01*
X186499452Y-99687130D02*
X185880404Y-99687130D01*
X186213738Y-100068083D01*
X186070880Y-100068083D01*
X185975642Y-100115702D01*
X185928023Y-100163321D01*
X185880404Y-100258559D01*
X185880404Y-100496654D01*
X185928023Y-100591892D01*
X185975642Y-100639511D01*
X186070880Y-100687130D01*
X186356595Y-100687130D01*
X186451833Y-100639511D01*
X186499452Y-100591892D01*
X185023261Y-99687130D02*
X185213738Y-99687130D01*
X185308976Y-99734750D01*
X185356595Y-99782369D01*
X185451833Y-99925226D01*
X185499452Y-100115702D01*
X185499452Y-100496654D01*
X185451833Y-100591892D01*
X185404214Y-100639511D01*
X185308976Y-100687130D01*
X185118500Y-100687130D01*
X185023261Y-100639511D01*
X184975642Y-100591892D01*
X184928023Y-100496654D01*
X184928023Y-100258559D01*
X184975642Y-100163321D01*
X185023261Y-100115702D01*
X185118500Y-100068083D01*
X185308976Y-100068083D01*
X185404214Y-100115702D01*
X185451833Y-100163321D01*
X185499452Y-100258559D01*
X191642904Y-76509511D02*
X191738142Y-76557130D01*
X191928619Y-76557130D01*
X192023857Y-76509511D01*
X192071476Y-76414273D01*
X192071476Y-76033321D01*
X192023857Y-75938083D01*
X191928619Y-75890464D01*
X191738142Y-75890464D01*
X191642904Y-75938083D01*
X191595285Y-76033321D01*
X191595285Y-76128559D01*
X192071476Y-76223797D01*
X191261952Y-75557130D02*
X190642904Y-75557130D01*
X190976238Y-75938083D01*
X190833380Y-75938083D01*
X190738142Y-75985702D01*
X190690523Y-76033321D01*
X190642904Y-76128559D01*
X190642904Y-76366654D01*
X190690523Y-76461892D01*
X190738142Y-76509511D01*
X190833380Y-76557130D01*
X191119095Y-76557130D01*
X191214333Y-76509511D01*
X191261952Y-76461892D01*
X189738142Y-75557130D02*
X190214333Y-75557130D01*
X190261952Y-76033321D01*
X190214333Y-75985702D01*
X190119095Y-75938083D01*
X189881000Y-75938083D01*
X189785761Y-75985702D01*
X189738142Y-76033321D01*
X189690523Y-76128559D01*
X189690523Y-76366654D01*
X189738142Y-76461892D01*
X189785761Y-76509511D01*
X189881000Y-76557130D01*
X190119095Y-76557130D01*
X190214333Y-76509511D01*
X190261952Y-76461892D01*
X182117904Y-62539511D02*
X182213142Y-62587130D01*
X182403619Y-62587130D01*
X182498857Y-62539511D01*
X182546476Y-62444273D01*
X182546476Y-62063321D01*
X182498857Y-61968083D01*
X182403619Y-61920464D01*
X182213142Y-61920464D01*
X182117904Y-61968083D01*
X182070285Y-62063321D01*
X182070285Y-62158559D01*
X182546476Y-62253797D01*
X181736952Y-61587130D02*
X181117904Y-61587130D01*
X181451238Y-61968083D01*
X181308380Y-61968083D01*
X181213142Y-62015702D01*
X181165523Y-62063321D01*
X181117904Y-62158559D01*
X181117904Y-62396654D01*
X181165523Y-62491892D01*
X181213142Y-62539511D01*
X181308380Y-62587130D01*
X181594095Y-62587130D01*
X181689333Y-62539511D01*
X181736952Y-62491892D01*
X180260761Y-61920464D02*
X180260761Y-62587130D01*
X180498857Y-61539511D02*
X180736952Y-62253797D01*
X180117904Y-62253797D01*
X177355404Y-43489511D02*
X177450642Y-43537130D01*
X177641119Y-43537130D01*
X177736357Y-43489511D01*
X177783976Y-43394273D01*
X177783976Y-43013321D01*
X177736357Y-42918083D01*
X177641119Y-42870464D01*
X177450642Y-42870464D01*
X177355404Y-42918083D01*
X177307785Y-43013321D01*
X177307785Y-43108559D01*
X177783976Y-43203797D01*
X176974452Y-42537130D02*
X176355404Y-42537130D01*
X176688738Y-42918083D01*
X176545880Y-42918083D01*
X176450642Y-42965702D01*
X176403023Y-43013321D01*
X176355404Y-43108559D01*
X176355404Y-43346654D01*
X176403023Y-43441892D01*
X176450642Y-43489511D01*
X176545880Y-43537130D01*
X176831595Y-43537130D01*
X176926833Y-43489511D01*
X176974452Y-43441892D01*
X176022071Y-42537130D02*
X175403023Y-42537130D01*
X175736357Y-42918083D01*
X175593500Y-42918083D01*
X175498261Y-42965702D01*
X175450642Y-43013321D01*
X175403023Y-43108559D01*
X175403023Y-43346654D01*
X175450642Y-43441892D01*
X175498261Y-43489511D01*
X175593500Y-43537130D01*
X175879214Y-43537130D01*
X175974452Y-43489511D01*
X176022071Y-43441892D01*
X153542904Y-100639511D02*
X153638142Y-100687130D01*
X153828619Y-100687130D01*
X153923857Y-100639511D01*
X153971476Y-100544273D01*
X153971476Y-100163321D01*
X153923857Y-100068083D01*
X153828619Y-100020464D01*
X153638142Y-100020464D01*
X153542904Y-100068083D01*
X153495285Y-100163321D01*
X153495285Y-100258559D01*
X153971476Y-100353797D01*
X153161952Y-99687130D02*
X152542904Y-99687130D01*
X152876238Y-100068083D01*
X152733380Y-100068083D01*
X152638142Y-100115702D01*
X152590523Y-100163321D01*
X152542904Y-100258559D01*
X152542904Y-100496654D01*
X152590523Y-100591892D01*
X152638142Y-100639511D01*
X152733380Y-100687130D01*
X153019095Y-100687130D01*
X153114333Y-100639511D01*
X153161952Y-100591892D01*
X152161952Y-99782369D02*
X152114333Y-99734750D01*
X152019095Y-99687130D01*
X151781000Y-99687130D01*
X151685761Y-99734750D01*
X151638142Y-99782369D01*
X151590523Y-99877607D01*
X151590523Y-99972845D01*
X151638142Y-100115702D01*
X152209571Y-100687130D01*
X151590523Y-100687130D01*
X172592904Y-76509511D02*
X172688142Y-76557130D01*
X172878619Y-76557130D01*
X172973857Y-76509511D01*
X173021476Y-76414273D01*
X173021476Y-76033321D01*
X172973857Y-75938083D01*
X172878619Y-75890464D01*
X172688142Y-75890464D01*
X172592904Y-75938083D01*
X172545285Y-76033321D01*
X172545285Y-76128559D01*
X173021476Y-76223797D01*
X172211952Y-75557130D02*
X171592904Y-75557130D01*
X171926238Y-75938083D01*
X171783380Y-75938083D01*
X171688142Y-75985702D01*
X171640523Y-76033321D01*
X171592904Y-76128559D01*
X171592904Y-76366654D01*
X171640523Y-76461892D01*
X171688142Y-76509511D01*
X171783380Y-76557130D01*
X172069095Y-76557130D01*
X172164333Y-76509511D01*
X172211952Y-76461892D01*
X170640523Y-76557130D02*
X171211952Y-76557130D01*
X170926238Y-76557130D02*
X170926238Y-75557130D01*
X171021476Y-75699988D01*
X171116714Y-75795226D01*
X171211952Y-75842845D01*
X163067904Y-62539511D02*
X163163142Y-62587130D01*
X163353619Y-62587130D01*
X163448857Y-62539511D01*
X163496476Y-62444273D01*
X163496476Y-62063321D01*
X163448857Y-61968083D01*
X163353619Y-61920464D01*
X163163142Y-61920464D01*
X163067904Y-61968083D01*
X163020285Y-62063321D01*
X163020285Y-62158559D01*
X163496476Y-62253797D01*
X162686952Y-61587130D02*
X162067904Y-61587130D01*
X162401238Y-61968083D01*
X162258380Y-61968083D01*
X162163142Y-62015702D01*
X162115523Y-62063321D01*
X162067904Y-62158559D01*
X162067904Y-62396654D01*
X162115523Y-62491892D01*
X162163142Y-62539511D01*
X162258380Y-62587130D01*
X162544095Y-62587130D01*
X162639333Y-62539511D01*
X162686952Y-62491892D01*
X161448857Y-61587130D02*
X161353619Y-61587130D01*
X161258380Y-61634750D01*
X161210761Y-61682369D01*
X161163142Y-61777607D01*
X161115523Y-61968083D01*
X161115523Y-62206178D01*
X161163142Y-62396654D01*
X161210761Y-62491892D01*
X161258380Y-62539511D01*
X161353619Y-62587130D01*
X161448857Y-62587130D01*
X161544095Y-62539511D01*
X161591714Y-62491892D01*
X161639333Y-62396654D01*
X161686952Y-62206178D01*
X161686952Y-61968083D01*
X161639333Y-61777607D01*
X161591714Y-61682369D01*
X161544095Y-61634750D01*
X161448857Y-61587130D01*
X158305404Y-43489511D02*
X158400642Y-43537130D01*
X158591119Y-43537130D01*
X158686357Y-43489511D01*
X158733976Y-43394273D01*
X158733976Y-43013321D01*
X158686357Y-42918083D01*
X158591119Y-42870464D01*
X158400642Y-42870464D01*
X158305404Y-42918083D01*
X158257785Y-43013321D01*
X158257785Y-43108559D01*
X158733976Y-43203797D01*
X157876833Y-42632369D02*
X157829214Y-42584750D01*
X157733976Y-42537130D01*
X157495880Y-42537130D01*
X157400642Y-42584750D01*
X157353023Y-42632369D01*
X157305404Y-42727607D01*
X157305404Y-42822845D01*
X157353023Y-42965702D01*
X157924452Y-43537130D01*
X157305404Y-43537130D01*
X156829214Y-43537130D02*
X156638738Y-43537130D01*
X156543500Y-43489511D01*
X156495880Y-43441892D01*
X156400642Y-43299035D01*
X156353023Y-43108559D01*
X156353023Y-42727607D01*
X156400642Y-42632369D01*
X156448261Y-42584750D01*
X156543500Y-42537130D01*
X156733976Y-42537130D01*
X156829214Y-42584750D01*
X156876833Y-42632369D01*
X156924452Y-42727607D01*
X156924452Y-42965702D01*
X156876833Y-43060940D01*
X156829214Y-43108559D01*
X156733976Y-43156178D01*
X156543500Y-43156178D01*
X156448261Y-43108559D01*
X156400642Y-43060940D01*
X156353023Y-42965702D01*
X113061654Y-100639511D02*
X113156892Y-100687130D01*
X113347369Y-100687130D01*
X113442607Y-100639511D01*
X113490226Y-100544273D01*
X113490226Y-100163321D01*
X113442607Y-100068083D01*
X113347369Y-100020464D01*
X113156892Y-100020464D01*
X113061654Y-100068083D01*
X113014035Y-100163321D01*
X113014035Y-100258559D01*
X113490226Y-100353797D01*
X112633083Y-99782369D02*
X112585464Y-99734750D01*
X112490226Y-99687130D01*
X112252130Y-99687130D01*
X112156892Y-99734750D01*
X112109273Y-99782369D01*
X112061654Y-99877607D01*
X112061654Y-99972845D01*
X112109273Y-100115702D01*
X112680702Y-100687130D01*
X112061654Y-100687130D01*
X111490226Y-100115702D02*
X111585464Y-100068083D01*
X111633083Y-100020464D01*
X111680702Y-99925226D01*
X111680702Y-99877607D01*
X111633083Y-99782369D01*
X111585464Y-99734750D01*
X111490226Y-99687130D01*
X111299750Y-99687130D01*
X111204511Y-99734750D01*
X111156892Y-99782369D01*
X111109273Y-99877607D01*
X111109273Y-99925226D01*
X111156892Y-100020464D01*
X111204511Y-100068083D01*
X111299750Y-100115702D01*
X111490226Y-100115702D01*
X111585464Y-100163321D01*
X111633083Y-100210940D01*
X111680702Y-100306178D01*
X111680702Y-100496654D01*
X111633083Y-100591892D01*
X111585464Y-100639511D01*
X111490226Y-100687130D01*
X111299750Y-100687130D01*
X111204511Y-100639511D01*
X111156892Y-100591892D01*
X111109273Y-100496654D01*
X111109273Y-100306178D01*
X111156892Y-100210940D01*
X111204511Y-100163321D01*
X111299750Y-100115702D01*
X153542904Y-76509511D02*
X153638142Y-76557130D01*
X153828619Y-76557130D01*
X153923857Y-76509511D01*
X153971476Y-76414273D01*
X153971476Y-76033321D01*
X153923857Y-75938083D01*
X153828619Y-75890464D01*
X153638142Y-75890464D01*
X153542904Y-75938083D01*
X153495285Y-76033321D01*
X153495285Y-76128559D01*
X153971476Y-76223797D01*
X153114333Y-75652369D02*
X153066714Y-75604750D01*
X152971476Y-75557130D01*
X152733380Y-75557130D01*
X152638142Y-75604750D01*
X152590523Y-75652369D01*
X152542904Y-75747607D01*
X152542904Y-75842845D01*
X152590523Y-75985702D01*
X153161952Y-76557130D01*
X152542904Y-76557130D01*
X152209571Y-75557130D02*
X151542904Y-75557130D01*
X151971476Y-76557130D01*
X144017904Y-62539511D02*
X144113142Y-62587130D01*
X144303619Y-62587130D01*
X144398857Y-62539511D01*
X144446476Y-62444273D01*
X144446476Y-62063321D01*
X144398857Y-61968083D01*
X144303619Y-61920464D01*
X144113142Y-61920464D01*
X144017904Y-61968083D01*
X143970285Y-62063321D01*
X143970285Y-62158559D01*
X144446476Y-62253797D01*
X143589333Y-61682369D02*
X143541714Y-61634750D01*
X143446476Y-61587130D01*
X143208380Y-61587130D01*
X143113142Y-61634750D01*
X143065523Y-61682369D01*
X143017904Y-61777607D01*
X143017904Y-61872845D01*
X143065523Y-62015702D01*
X143636952Y-62587130D01*
X143017904Y-62587130D01*
X142160761Y-61587130D02*
X142351238Y-61587130D01*
X142446476Y-61634750D01*
X142494095Y-61682369D01*
X142589333Y-61825226D01*
X142636952Y-62015702D01*
X142636952Y-62396654D01*
X142589333Y-62491892D01*
X142541714Y-62539511D01*
X142446476Y-62587130D01*
X142256000Y-62587130D01*
X142160761Y-62539511D01*
X142113142Y-62491892D01*
X142065523Y-62396654D01*
X142065523Y-62158559D01*
X142113142Y-62063321D01*
X142160761Y-62015702D01*
X142256000Y-61968083D01*
X142446476Y-61968083D01*
X142541714Y-62015702D01*
X142589333Y-62063321D01*
X142636952Y-62158559D01*
X139255404Y-43489511D02*
X139350642Y-43537130D01*
X139541119Y-43537130D01*
X139636357Y-43489511D01*
X139683976Y-43394273D01*
X139683976Y-43013321D01*
X139636357Y-42918083D01*
X139541119Y-42870464D01*
X139350642Y-42870464D01*
X139255404Y-42918083D01*
X139207785Y-43013321D01*
X139207785Y-43108559D01*
X139683976Y-43203797D01*
X138826833Y-42632369D02*
X138779214Y-42584750D01*
X138683976Y-42537130D01*
X138445880Y-42537130D01*
X138350642Y-42584750D01*
X138303023Y-42632369D01*
X138255404Y-42727607D01*
X138255404Y-42822845D01*
X138303023Y-42965702D01*
X138874452Y-43537130D01*
X138255404Y-43537130D01*
X137350642Y-42537130D02*
X137826833Y-42537130D01*
X137874452Y-43013321D01*
X137826833Y-42965702D01*
X137731595Y-42918083D01*
X137493500Y-42918083D01*
X137398261Y-42965702D01*
X137350642Y-43013321D01*
X137303023Y-43108559D01*
X137303023Y-43346654D01*
X137350642Y-43441892D01*
X137398261Y-43489511D01*
X137493500Y-43537130D01*
X137731595Y-43537130D01*
X137826833Y-43489511D01*
X137874452Y-43441892D01*
X79724154Y-100639511D02*
X79819392Y-100687130D01*
X80009869Y-100687130D01*
X80105107Y-100639511D01*
X80152726Y-100544273D01*
X80152726Y-100163321D01*
X80105107Y-100068083D01*
X80009869Y-100020464D01*
X79819392Y-100020464D01*
X79724154Y-100068083D01*
X79676535Y-100163321D01*
X79676535Y-100258559D01*
X80152726Y-100353797D01*
X79295583Y-99782369D02*
X79247964Y-99734750D01*
X79152726Y-99687130D01*
X78914630Y-99687130D01*
X78819392Y-99734750D01*
X78771773Y-99782369D01*
X78724154Y-99877607D01*
X78724154Y-99972845D01*
X78771773Y-100115702D01*
X79343202Y-100687130D01*
X78724154Y-100687130D01*
X77867011Y-100020464D02*
X77867011Y-100687130D01*
X78105107Y-99639511D02*
X78343202Y-100353797D01*
X77724154Y-100353797D01*
X134492904Y-76509511D02*
X134588142Y-76557130D01*
X134778619Y-76557130D01*
X134873857Y-76509511D01*
X134921476Y-76414273D01*
X134921476Y-76033321D01*
X134873857Y-75938083D01*
X134778619Y-75890464D01*
X134588142Y-75890464D01*
X134492904Y-75938083D01*
X134445285Y-76033321D01*
X134445285Y-76128559D01*
X134921476Y-76223797D01*
X134064333Y-75652369D02*
X134016714Y-75604750D01*
X133921476Y-75557130D01*
X133683380Y-75557130D01*
X133588142Y-75604750D01*
X133540523Y-75652369D01*
X133492904Y-75747607D01*
X133492904Y-75842845D01*
X133540523Y-75985702D01*
X134111952Y-76557130D01*
X133492904Y-76557130D01*
X133159571Y-75557130D02*
X132540523Y-75557130D01*
X132873857Y-75938083D01*
X132731000Y-75938083D01*
X132635761Y-75985702D01*
X132588142Y-76033321D01*
X132540523Y-76128559D01*
X132540523Y-76366654D01*
X132588142Y-76461892D01*
X132635761Y-76509511D01*
X132731000Y-76557130D01*
X133016714Y-76557130D01*
X133111952Y-76509511D01*
X133159571Y-76461892D01*
X124967904Y-62539511D02*
X125063142Y-62587130D01*
X125253619Y-62587130D01*
X125348857Y-62539511D01*
X125396476Y-62444273D01*
X125396476Y-62063321D01*
X125348857Y-61968083D01*
X125253619Y-61920464D01*
X125063142Y-61920464D01*
X124967904Y-61968083D01*
X124920285Y-62063321D01*
X124920285Y-62158559D01*
X125396476Y-62253797D01*
X124539333Y-61682369D02*
X124491714Y-61634750D01*
X124396476Y-61587130D01*
X124158380Y-61587130D01*
X124063142Y-61634750D01*
X124015523Y-61682369D01*
X123967904Y-61777607D01*
X123967904Y-61872845D01*
X124015523Y-62015702D01*
X124586952Y-62587130D01*
X123967904Y-62587130D01*
X123586952Y-61682369D02*
X123539333Y-61634750D01*
X123444095Y-61587130D01*
X123206000Y-61587130D01*
X123110761Y-61634750D01*
X123063142Y-61682369D01*
X123015523Y-61777607D01*
X123015523Y-61872845D01*
X123063142Y-62015702D01*
X123634571Y-62587130D01*
X123015523Y-62587130D01*
X120205404Y-43489511D02*
X120300642Y-43537130D01*
X120491119Y-43537130D01*
X120586357Y-43489511D01*
X120633976Y-43394273D01*
X120633976Y-43013321D01*
X120586357Y-42918083D01*
X120491119Y-42870464D01*
X120300642Y-42870464D01*
X120205404Y-42918083D01*
X120157785Y-43013321D01*
X120157785Y-43108559D01*
X120633976Y-43203797D01*
X119776833Y-42632369D02*
X119729214Y-42584750D01*
X119633976Y-42537130D01*
X119395880Y-42537130D01*
X119300642Y-42584750D01*
X119253023Y-42632369D01*
X119205404Y-42727607D01*
X119205404Y-42822845D01*
X119253023Y-42965702D01*
X119824452Y-43537130D01*
X119205404Y-43537130D01*
X118253023Y-43537130D02*
X118824452Y-43537130D01*
X118538738Y-43537130D02*
X118538738Y-42537130D01*
X118633976Y-42679988D01*
X118729214Y-42775226D01*
X118824452Y-42822845D01*
X53530404Y-100639511D02*
X53625642Y-100687130D01*
X53816119Y-100687130D01*
X53911357Y-100639511D01*
X53958976Y-100544273D01*
X53958976Y-100163321D01*
X53911357Y-100068083D01*
X53816119Y-100020464D01*
X53625642Y-100020464D01*
X53530404Y-100068083D01*
X53482785Y-100163321D01*
X53482785Y-100258559D01*
X53958976Y-100353797D01*
X53101833Y-99782369D02*
X53054214Y-99734750D01*
X52958976Y-99687130D01*
X52720880Y-99687130D01*
X52625642Y-99734750D01*
X52578023Y-99782369D01*
X52530404Y-99877607D01*
X52530404Y-99972845D01*
X52578023Y-100115702D01*
X53149452Y-100687130D01*
X52530404Y-100687130D01*
X51911357Y-99687130D02*
X51816119Y-99687130D01*
X51720880Y-99734750D01*
X51673261Y-99782369D01*
X51625642Y-99877607D01*
X51578023Y-100068083D01*
X51578023Y-100306178D01*
X51625642Y-100496654D01*
X51673261Y-100591892D01*
X51720880Y-100639511D01*
X51816119Y-100687130D01*
X51911357Y-100687130D01*
X52006595Y-100639511D01*
X52054214Y-100591892D01*
X52101833Y-100496654D01*
X52149452Y-100306178D01*
X52149452Y-100068083D01*
X52101833Y-99877607D01*
X52054214Y-99782369D01*
X52006595Y-99734750D01*
X51911357Y-99687130D01*
X115442904Y-76509511D02*
X115538142Y-76557130D01*
X115728619Y-76557130D01*
X115823857Y-76509511D01*
X115871476Y-76414273D01*
X115871476Y-76033321D01*
X115823857Y-75938083D01*
X115728619Y-75890464D01*
X115538142Y-75890464D01*
X115442904Y-75938083D01*
X115395285Y-76033321D01*
X115395285Y-76128559D01*
X115871476Y-76223797D01*
X114442904Y-76557130D02*
X115014333Y-76557130D01*
X114728619Y-76557130D02*
X114728619Y-75557130D01*
X114823857Y-75699988D01*
X114919095Y-75795226D01*
X115014333Y-75842845D01*
X113966714Y-76557130D02*
X113776238Y-76557130D01*
X113681000Y-76509511D01*
X113633380Y-76461892D01*
X113538142Y-76319035D01*
X113490523Y-76128559D01*
X113490523Y-75747607D01*
X113538142Y-75652369D01*
X113585761Y-75604750D01*
X113681000Y-75557130D01*
X113871476Y-75557130D01*
X113966714Y-75604750D01*
X114014333Y-75652369D01*
X114061952Y-75747607D01*
X114061952Y-75985702D01*
X114014333Y-76080940D01*
X113966714Y-76128559D01*
X113871476Y-76176178D01*
X113681000Y-76176178D01*
X113585761Y-76128559D01*
X113538142Y-76080940D01*
X113490523Y-75985702D01*
X105917904Y-62539511D02*
X106013142Y-62587130D01*
X106203619Y-62587130D01*
X106298857Y-62539511D01*
X106346476Y-62444273D01*
X106346476Y-62063321D01*
X106298857Y-61968083D01*
X106203619Y-61920464D01*
X106013142Y-61920464D01*
X105917904Y-61968083D01*
X105870285Y-62063321D01*
X105870285Y-62158559D01*
X106346476Y-62253797D01*
X104917904Y-62587130D02*
X105489333Y-62587130D01*
X105203619Y-62587130D02*
X105203619Y-61587130D01*
X105298857Y-61729988D01*
X105394095Y-61825226D01*
X105489333Y-61872845D01*
X104346476Y-62015702D02*
X104441714Y-61968083D01*
X104489333Y-61920464D01*
X104536952Y-61825226D01*
X104536952Y-61777607D01*
X104489333Y-61682369D01*
X104441714Y-61634750D01*
X104346476Y-61587130D01*
X104156000Y-61587130D01*
X104060761Y-61634750D01*
X104013142Y-61682369D01*
X103965523Y-61777607D01*
X103965523Y-61825226D01*
X104013142Y-61920464D01*
X104060761Y-61968083D01*
X104156000Y-62015702D01*
X104346476Y-62015702D01*
X104441714Y-62063321D01*
X104489333Y-62110940D01*
X104536952Y-62206178D01*
X104536952Y-62396654D01*
X104489333Y-62491892D01*
X104441714Y-62539511D01*
X104346476Y-62587130D01*
X104156000Y-62587130D01*
X104060761Y-62539511D01*
X104013142Y-62491892D01*
X103965523Y-62396654D01*
X103965523Y-62206178D01*
X104013142Y-62110940D01*
X104060761Y-62063321D01*
X104156000Y-62015702D01*
X101155404Y-43489511D02*
X101250642Y-43537130D01*
X101441119Y-43537130D01*
X101536357Y-43489511D01*
X101583976Y-43394273D01*
X101583976Y-43013321D01*
X101536357Y-42918083D01*
X101441119Y-42870464D01*
X101250642Y-42870464D01*
X101155404Y-42918083D01*
X101107785Y-43013321D01*
X101107785Y-43108559D01*
X101583976Y-43203797D01*
X100155404Y-43537130D02*
X100726833Y-43537130D01*
X100441119Y-43537130D02*
X100441119Y-42537130D01*
X100536357Y-42679988D01*
X100631595Y-42775226D01*
X100726833Y-42822845D01*
X99822071Y-42537130D02*
X99155404Y-42537130D01*
X99583976Y-43537130D01*
X27336654Y-100639511D02*
X27431892Y-100687130D01*
X27622369Y-100687130D01*
X27717607Y-100639511D01*
X27765226Y-100544273D01*
X27765226Y-100163321D01*
X27717607Y-100068083D01*
X27622369Y-100020464D01*
X27431892Y-100020464D01*
X27336654Y-100068083D01*
X27289035Y-100163321D01*
X27289035Y-100258559D01*
X27765226Y-100353797D01*
X26336654Y-100687130D02*
X26908083Y-100687130D01*
X26622369Y-100687130D02*
X26622369Y-99687130D01*
X26717607Y-99829988D01*
X26812845Y-99925226D01*
X26908083Y-99972845D01*
X25479511Y-99687130D02*
X25669988Y-99687130D01*
X25765226Y-99734750D01*
X25812845Y-99782369D01*
X25908083Y-99925226D01*
X25955702Y-100115702D01*
X25955702Y-100496654D01*
X25908083Y-100591892D01*
X25860464Y-100639511D01*
X25765226Y-100687130D01*
X25574750Y-100687130D01*
X25479511Y-100639511D01*
X25431892Y-100591892D01*
X25384273Y-100496654D01*
X25384273Y-100258559D01*
X25431892Y-100163321D01*
X25479511Y-100115702D01*
X25574750Y-100068083D01*
X25765226Y-100068083D01*
X25860464Y-100115702D01*
X25908083Y-100163321D01*
X25955702Y-100258559D01*
X96392904Y-76509511D02*
X96488142Y-76557130D01*
X96678619Y-76557130D01*
X96773857Y-76509511D01*
X96821476Y-76414273D01*
X96821476Y-76033321D01*
X96773857Y-75938083D01*
X96678619Y-75890464D01*
X96488142Y-75890464D01*
X96392904Y-75938083D01*
X96345285Y-76033321D01*
X96345285Y-76128559D01*
X96821476Y-76223797D01*
X95392904Y-76557130D02*
X95964333Y-76557130D01*
X95678619Y-76557130D02*
X95678619Y-75557130D01*
X95773857Y-75699988D01*
X95869095Y-75795226D01*
X95964333Y-75842845D01*
X94488142Y-75557130D02*
X94964333Y-75557130D01*
X95011952Y-76033321D01*
X94964333Y-75985702D01*
X94869095Y-75938083D01*
X94631000Y-75938083D01*
X94535761Y-75985702D01*
X94488142Y-76033321D01*
X94440523Y-76128559D01*
X94440523Y-76366654D01*
X94488142Y-76461892D01*
X94535761Y-76509511D01*
X94631000Y-76557130D01*
X94869095Y-76557130D01*
X94964333Y-76509511D01*
X95011952Y-76461892D01*
X86867904Y-62539511D02*
X86963142Y-62587130D01*
X87153619Y-62587130D01*
X87248857Y-62539511D01*
X87296476Y-62444273D01*
X87296476Y-62063321D01*
X87248857Y-61968083D01*
X87153619Y-61920464D01*
X86963142Y-61920464D01*
X86867904Y-61968083D01*
X86820285Y-62063321D01*
X86820285Y-62158559D01*
X87296476Y-62253797D01*
X85867904Y-62587130D02*
X86439333Y-62587130D01*
X86153619Y-62587130D02*
X86153619Y-61587130D01*
X86248857Y-61729988D01*
X86344095Y-61825226D01*
X86439333Y-61872845D01*
X85010761Y-61920464D02*
X85010761Y-62587130D01*
X85248857Y-61539511D02*
X85486952Y-62253797D01*
X84867904Y-62253797D01*
X82105404Y-43489511D02*
X82200642Y-43537130D01*
X82391119Y-43537130D01*
X82486357Y-43489511D01*
X82533976Y-43394273D01*
X82533976Y-43013321D01*
X82486357Y-42918083D01*
X82391119Y-42870464D01*
X82200642Y-42870464D01*
X82105404Y-42918083D01*
X82057785Y-43013321D01*
X82057785Y-43108559D01*
X82533976Y-43203797D01*
X81105404Y-43537130D02*
X81676833Y-43537130D01*
X81391119Y-43537130D02*
X81391119Y-42537130D01*
X81486357Y-42679988D01*
X81581595Y-42775226D01*
X81676833Y-42822845D01*
X80772071Y-42537130D02*
X80153023Y-42537130D01*
X80486357Y-42918083D01*
X80343500Y-42918083D01*
X80248261Y-42965702D01*
X80200642Y-43013321D01*
X80153023Y-43108559D01*
X80153023Y-43346654D01*
X80200642Y-43441892D01*
X80248261Y-43489511D01*
X80343500Y-43537130D01*
X80629214Y-43537130D01*
X80724452Y-43489511D01*
X80772071Y-43441892D01*
X77342904Y-76509511D02*
X77438142Y-76557130D01*
X77628619Y-76557130D01*
X77723857Y-76509511D01*
X77771476Y-76414273D01*
X77771476Y-76033321D01*
X77723857Y-75938083D01*
X77628619Y-75890464D01*
X77438142Y-75890464D01*
X77342904Y-75938083D01*
X77295285Y-76033321D01*
X77295285Y-76128559D01*
X77771476Y-76223797D01*
X76342904Y-76557130D02*
X76914333Y-76557130D01*
X76628619Y-76557130D02*
X76628619Y-75557130D01*
X76723857Y-75699988D01*
X76819095Y-75795226D01*
X76914333Y-75842845D01*
X75390523Y-76557130D02*
X75961952Y-76557130D01*
X75676238Y-76557130D02*
X75676238Y-75557130D01*
X75771476Y-75699988D01*
X75866714Y-75795226D01*
X75961952Y-75842845D01*
X67817904Y-62539511D02*
X67913142Y-62587130D01*
X68103619Y-62587130D01*
X68198857Y-62539511D01*
X68246476Y-62444273D01*
X68246476Y-62063321D01*
X68198857Y-61968083D01*
X68103619Y-61920464D01*
X67913142Y-61920464D01*
X67817904Y-61968083D01*
X67770285Y-62063321D01*
X67770285Y-62158559D01*
X68246476Y-62253797D01*
X66817904Y-62587130D02*
X67389333Y-62587130D01*
X67103619Y-62587130D02*
X67103619Y-61587130D01*
X67198857Y-61729988D01*
X67294095Y-61825226D01*
X67389333Y-61872845D01*
X66198857Y-61587130D02*
X66103619Y-61587130D01*
X66008380Y-61634750D01*
X65960761Y-61682369D01*
X65913142Y-61777607D01*
X65865523Y-61968083D01*
X65865523Y-62206178D01*
X65913142Y-62396654D01*
X65960761Y-62491892D01*
X66008380Y-62539511D01*
X66103619Y-62587130D01*
X66198857Y-62587130D01*
X66294095Y-62539511D01*
X66341714Y-62491892D01*
X66389333Y-62396654D01*
X66436952Y-62206178D01*
X66436952Y-61968083D01*
X66389333Y-61777607D01*
X66341714Y-61682369D01*
X66294095Y-61634750D01*
X66198857Y-61587130D01*
X62579214Y-43489511D02*
X62674452Y-43537130D01*
X62864928Y-43537130D01*
X62960166Y-43489511D01*
X63007785Y-43394273D01*
X63007785Y-43013321D01*
X62960166Y-42918083D01*
X62864928Y-42870464D01*
X62674452Y-42870464D01*
X62579214Y-42918083D01*
X62531595Y-43013321D01*
X62531595Y-43108559D01*
X63007785Y-43203797D01*
X62055404Y-43537130D02*
X61864928Y-43537130D01*
X61769690Y-43489511D01*
X61722071Y-43441892D01*
X61626833Y-43299035D01*
X61579214Y-43108559D01*
X61579214Y-42727607D01*
X61626833Y-42632369D01*
X61674452Y-42584750D01*
X61769690Y-42537130D01*
X61960166Y-42537130D01*
X62055404Y-42584750D01*
X62103023Y-42632369D01*
X62150642Y-42727607D01*
X62150642Y-42965702D01*
X62103023Y-43060940D01*
X62055404Y-43108559D01*
X61960166Y-43156178D01*
X61769690Y-43156178D01*
X61674452Y-43108559D01*
X61626833Y-43060940D01*
X61579214Y-42965702D01*
X57816714Y-76509511D02*
X57911952Y-76557130D01*
X58102428Y-76557130D01*
X58197666Y-76509511D01*
X58245285Y-76414273D01*
X58245285Y-76033321D01*
X58197666Y-75938083D01*
X58102428Y-75890464D01*
X57911952Y-75890464D01*
X57816714Y-75938083D01*
X57769095Y-76033321D01*
X57769095Y-76128559D01*
X58245285Y-76223797D01*
X57435761Y-75557130D02*
X56769095Y-75557130D01*
X57197666Y-76557130D01*
X48291714Y-62539511D02*
X48386952Y-62587130D01*
X48577428Y-62587130D01*
X48672666Y-62539511D01*
X48720285Y-62444273D01*
X48720285Y-62063321D01*
X48672666Y-61968083D01*
X48577428Y-61920464D01*
X48386952Y-61920464D01*
X48291714Y-61968083D01*
X48244095Y-62063321D01*
X48244095Y-62158559D01*
X48720285Y-62253797D01*
X47386952Y-61587130D02*
X47577428Y-61587130D01*
X47672666Y-61634750D01*
X47720285Y-61682369D01*
X47815523Y-61825226D01*
X47863142Y-62015702D01*
X47863142Y-62396654D01*
X47815523Y-62491892D01*
X47767904Y-62539511D01*
X47672666Y-62587130D01*
X47482190Y-62587130D01*
X47386952Y-62539511D01*
X47339333Y-62491892D01*
X47291714Y-62396654D01*
X47291714Y-62158559D01*
X47339333Y-62063321D01*
X47386952Y-62015702D01*
X47482190Y-61968083D01*
X47672666Y-61968083D01*
X47767904Y-62015702D01*
X47815523Y-62063321D01*
X47863142Y-62158559D01*
X43529214Y-43489511D02*
X43624452Y-43537130D01*
X43814928Y-43537130D01*
X43910166Y-43489511D01*
X43957785Y-43394273D01*
X43957785Y-43013321D01*
X43910166Y-42918083D01*
X43814928Y-42870464D01*
X43624452Y-42870464D01*
X43529214Y-42918083D01*
X43481595Y-43013321D01*
X43481595Y-43108559D01*
X43957785Y-43203797D01*
X42576833Y-42537130D02*
X43053023Y-42537130D01*
X43100642Y-43013321D01*
X43053023Y-42965702D01*
X42957785Y-42918083D01*
X42719690Y-42918083D01*
X42624452Y-42965702D01*
X42576833Y-43013321D01*
X42529214Y-43108559D01*
X42529214Y-43346654D01*
X42576833Y-43441892D01*
X42624452Y-43489511D01*
X42719690Y-43537130D01*
X42957785Y-43537130D01*
X43053023Y-43489511D01*
X43100642Y-43441892D01*
X31622964Y-76509511D02*
X31718202Y-76557130D01*
X31908678Y-76557130D01*
X32003916Y-76509511D01*
X32051535Y-76414273D01*
X32051535Y-76033321D01*
X32003916Y-75938083D01*
X31908678Y-75890464D01*
X31718202Y-75890464D01*
X31622964Y-75938083D01*
X31575345Y-76033321D01*
X31575345Y-76128559D01*
X32051535Y-76223797D01*
X31242011Y-75557130D02*
X30622964Y-75557130D01*
X30956297Y-75938083D01*
X30813440Y-75938083D01*
X30718202Y-75985702D01*
X30670583Y-76033321D01*
X30622964Y-76128559D01*
X30622964Y-76366654D01*
X30670583Y-76461892D01*
X30718202Y-76509511D01*
X30813440Y-76557130D01*
X31099154Y-76557130D01*
X31194392Y-76509511D01*
X31242011Y-76461892D01*
X26860464Y-62539511D02*
X26955702Y-62587130D01*
X27146178Y-62587130D01*
X27241416Y-62539511D01*
X27289035Y-62444273D01*
X27289035Y-62063321D01*
X27241416Y-61968083D01*
X27146178Y-61920464D01*
X26955702Y-61920464D01*
X26860464Y-61968083D01*
X26812845Y-62063321D01*
X26812845Y-62158559D01*
X27289035Y-62253797D01*
X26431892Y-61682369D02*
X26384273Y-61634750D01*
X26289035Y-61587130D01*
X26050940Y-61587130D01*
X25955702Y-61634750D01*
X25908083Y-61682369D01*
X25860464Y-61777607D01*
X25860464Y-61872845D01*
X25908083Y-62015702D01*
X26479511Y-62587130D01*
X25860464Y-62587130D01*
X24479214Y-43489511D02*
X24574452Y-43537130D01*
X24764928Y-43537130D01*
X24860166Y-43489511D01*
X24907785Y-43394273D01*
X24907785Y-43013321D01*
X24860166Y-42918083D01*
X24764928Y-42870464D01*
X24574452Y-42870464D01*
X24479214Y-42918083D01*
X24431595Y-43013321D01*
X24431595Y-43108559D01*
X24907785Y-43203797D01*
X23479214Y-43537130D02*
X24050642Y-43537130D01*
X23764928Y-43537130D02*
X23764928Y-42537130D01*
X23860166Y-42679988D01*
X23955404Y-42775226D01*
X24050642Y-42822845D01*
X271706297Y-45917011D02*
X273082488Y-45917011D01*
X273244392Y-45997964D01*
X273325345Y-46078916D01*
X273406297Y-46240821D01*
X273406297Y-46564630D01*
X273325345Y-46726535D01*
X273244392Y-46807488D01*
X273082488Y-46888440D01*
X271706297Y-46888440D01*
X273406297Y-48588440D02*
X273406297Y-47617011D01*
X273406297Y-48102726D02*
X271706297Y-48102726D01*
X271949154Y-47940821D01*
X272111059Y-47778916D01*
X272192011Y-47617011D01*
X270380583Y-32357488D02*
X270380583Y-33167011D01*
X270866297Y-32195583D02*
X269166297Y-32762250D01*
X270866297Y-33328916D01*
X270866297Y-34867011D02*
X270056773Y-34300345D01*
X270866297Y-33895583D02*
X269166297Y-33895583D01*
X269166297Y-34543202D01*
X269247250Y-34705107D01*
X269328202Y-34786059D01*
X269490107Y-34867011D01*
X269732964Y-34867011D01*
X269894869Y-34786059D01*
X269975821Y-34705107D01*
X270056773Y-34543202D01*
X270056773Y-33895583D01*
X270866297Y-35595583D02*
X269166297Y-35595583D01*
X269166297Y-36000345D01*
X269247250Y-36243202D01*
X269409154Y-36405107D01*
X269571059Y-36486059D01*
X269894869Y-36567011D01*
X270137726Y-36567011D01*
X270461535Y-36486059D01*
X270623440Y-36405107D01*
X270785345Y-36243202D01*
X270866297Y-36000345D01*
X270866297Y-35595583D01*
X269166297Y-37295583D02*
X270542488Y-37295583D01*
X270704392Y-37376535D01*
X270785345Y-37457488D01*
X270866297Y-37619392D01*
X270866297Y-37943202D01*
X270785345Y-38105107D01*
X270704392Y-38186059D01*
X270542488Y-38267011D01*
X269166297Y-38267011D01*
X270866297Y-39076535D02*
X269166297Y-39076535D01*
X270866297Y-39886059D02*
X269166297Y-39886059D01*
X270866297Y-40857488D01*
X269166297Y-40857488D01*
X269166297Y-41990821D02*
X269166297Y-42314630D01*
X269247250Y-42476535D01*
X269409154Y-42638440D01*
X269732964Y-42719392D01*
X270299630Y-42719392D01*
X270623440Y-42638440D01*
X270785345Y-42476535D01*
X270866297Y-42314630D01*
X270866297Y-41990821D01*
X270785345Y-41828916D01*
X270623440Y-41667011D01*
X270299630Y-41586059D01*
X269732964Y-41586059D01*
X269409154Y-41667011D01*
X269247250Y-41828916D01*
X269166297Y-41990821D01*
X271028202Y-43043202D02*
X271028202Y-44338440D01*
X270866297Y-44743202D02*
X269166297Y-44743202D01*
X270380583Y-45309869D01*
X269166297Y-45876535D01*
X270866297Y-45876535D01*
X270866297Y-46686059D02*
X269166297Y-46686059D01*
X270704392Y-48467011D02*
X270785345Y-48386059D01*
X270866297Y-48143202D01*
X270866297Y-47981297D01*
X270785345Y-47738440D01*
X270623440Y-47576535D01*
X270461535Y-47495583D01*
X270137726Y-47414630D01*
X269894869Y-47414630D01*
X269571059Y-47495583D01*
X269409154Y-47576535D01*
X269247250Y-47738440D01*
X269166297Y-47981297D01*
X269166297Y-48143202D01*
X269247250Y-48386059D01*
X269328202Y-48467011D01*
X270866297Y-50167011D02*
X270056773Y-49600345D01*
X270866297Y-49195583D02*
X269166297Y-49195583D01*
X269166297Y-49843202D01*
X269247250Y-50005107D01*
X269328202Y-50086059D01*
X269490107Y-50167011D01*
X269732964Y-50167011D01*
X269894869Y-50086059D01*
X269975821Y-50005107D01*
X270056773Y-49843202D01*
X270056773Y-49195583D01*
X269166297Y-51219392D02*
X269166297Y-51543202D01*
X269247250Y-51705107D01*
X269409154Y-51867011D01*
X269732964Y-51947964D01*
X270299630Y-51947964D01*
X270623440Y-51867011D01*
X270785345Y-51705107D01*
X270866297Y-51543202D01*
X270866297Y-51219392D01*
X270785345Y-51057488D01*
X270623440Y-50895583D01*
X270299630Y-50814630D01*
X269732964Y-50814630D01*
X269409154Y-50895583D01*
X269247250Y-51057488D01*
X269166297Y-51219392D01*
X271028202Y-52271773D02*
X271028202Y-53567011D01*
X270785345Y-53890821D02*
X270866297Y-54133678D01*
X270866297Y-54538440D01*
X270785345Y-54700345D01*
X270704392Y-54781297D01*
X270542488Y-54862250D01*
X270380583Y-54862250D01*
X270218678Y-54781297D01*
X270137726Y-54700345D01*
X270056773Y-54538440D01*
X269975821Y-54214630D01*
X269894869Y-54052726D01*
X269813916Y-53971773D01*
X269652011Y-53890821D01*
X269490107Y-53890821D01*
X269328202Y-53971773D01*
X269247250Y-54052726D01*
X269166297Y-54214630D01*
X269166297Y-54619392D01*
X269247250Y-54862250D01*
X270866297Y-55590821D02*
X269166297Y-55590821D01*
X269975821Y-55590821D02*
X269975821Y-56562250D01*
X270866297Y-56562250D02*
X269166297Y-56562250D01*
X270866297Y-57371773D02*
X269166297Y-57371773D01*
X269975821Y-58181297D02*
X269975821Y-58747964D01*
X270866297Y-58990821D02*
X270866297Y-58181297D01*
X269166297Y-58181297D01*
X269166297Y-58990821D01*
X270866297Y-60528916D02*
X270866297Y-59719392D01*
X269166297Y-59719392D01*
X270866297Y-61095583D02*
X269166297Y-61095583D01*
X269166297Y-61500345D01*
X269247250Y-61743202D01*
X269409154Y-61905107D01*
X269571059Y-61986059D01*
X269894869Y-62067011D01*
X270137726Y-62067011D01*
X270461535Y-61986059D01*
X270623440Y-61905107D01*
X270785345Y-61743202D01*
X270866297Y-61500345D01*
X270866297Y-61095583D01*
X272629154Y-26344630D02*
X272629154Y-27154154D01*
X272581535Y-27249392D01*
X272533916Y-27297011D01*
X272438678Y-27344630D01*
X272248202Y-27344630D01*
X272152964Y-27297011D01*
X272105345Y-27249392D01*
X272057726Y-27154154D01*
X272057726Y-26344630D01*
X271629154Y-27297011D02*
X271486297Y-27344630D01*
X271248202Y-27344630D01*
X271152964Y-27297011D01*
X271105345Y-27249392D01*
X271057726Y-27154154D01*
X271057726Y-27058916D01*
X271105345Y-26963678D01*
X271152964Y-26916059D01*
X271248202Y-26868440D01*
X271438678Y-26820821D01*
X271533916Y-26773202D01*
X271581535Y-26725583D01*
X271629154Y-26630345D01*
X271629154Y-26535107D01*
X271581535Y-26439869D01*
X271533916Y-26392250D01*
X271438678Y-26344630D01*
X271200583Y-26344630D01*
X271057726Y-26392250D01*
X270295821Y-26820821D02*
X270152964Y-26868440D01*
X270105345Y-26916059D01*
X270057726Y-27011297D01*
X270057726Y-27154154D01*
X270105345Y-27249392D01*
X270152964Y-27297011D01*
X270248202Y-27344630D01*
X270629154Y-27344630D01*
X270629154Y-26344630D01*
X270295821Y-26344630D01*
X270200583Y-26392250D01*
X270152964Y-26439869D01*
X270105345Y-26535107D01*
X270105345Y-26630345D01*
X270152964Y-26725583D01*
X270200583Y-26773202D01*
X270295821Y-26820821D01*
X270629154Y-26820821D01*
X272283380Y-73647630D02*
X272092904Y-73647630D01*
X271997666Y-73695250D01*
X271902428Y-73790488D01*
X271854809Y-73980964D01*
X271854809Y-74314297D01*
X271902428Y-74504773D01*
X271997666Y-74600011D01*
X272092904Y-74647630D01*
X272283380Y-74647630D01*
X272378619Y-74600011D01*
X272473857Y-74504773D01*
X272521476Y-74314297D01*
X272521476Y-73980964D01*
X272473857Y-73790488D01*
X272378619Y-73695250D01*
X272283380Y-73647630D01*
X270950047Y-74647630D02*
X271426238Y-74647630D01*
X271426238Y-73647630D01*
X270616714Y-74123821D02*
X270283380Y-74123821D01*
X270140523Y-74647630D02*
X270616714Y-74647630D01*
X270616714Y-73647630D01*
X270140523Y-73647630D01*
X269711952Y-74647630D02*
X269711952Y-73647630D01*
X269473857Y-73647630D01*
X269331000Y-73695250D01*
X269235761Y-73790488D01*
X269188142Y-73885726D01*
X269140523Y-74076202D01*
X269140523Y-74219059D01*
X269188142Y-74409535D01*
X269235761Y-74504773D01*
X269331000Y-74600011D01*
X269473857Y-74647630D01*
X269711952Y-74647630D01*
X258819904Y-76392000D02*
X258915142Y-76344380D01*
X259058000Y-76344380D01*
X259200857Y-76392000D01*
X259296095Y-76487238D01*
X259343714Y-76582476D01*
X259391333Y-76772952D01*
X259391333Y-76915809D01*
X259343714Y-77106285D01*
X259296095Y-77201523D01*
X259200857Y-77296761D01*
X259058000Y-77344380D01*
X258962761Y-77344380D01*
X258819904Y-77296761D01*
X258772285Y-77249142D01*
X258772285Y-76915809D01*
X258962761Y-76915809D01*
X258343714Y-77344380D02*
X258343714Y-76344380D01*
X257772285Y-77344380D01*
X257772285Y-76344380D01*
X257296095Y-77344380D02*
X257296095Y-76344380D01*
X257058000Y-76344380D01*
X256915142Y-76392000D01*
X256819904Y-76487238D01*
X256772285Y-76582476D01*
X256724666Y-76772952D01*
X256724666Y-76915809D01*
X256772285Y-77106285D01*
X256819904Y-77201523D01*
X256915142Y-77296761D01*
X257058000Y-77344380D01*
X257296095Y-77344380D01*
X258790857Y-79934380D02*
X259267047Y-79934380D01*
X259267047Y-78934380D01*
X258457523Y-79410571D02*
X258124190Y-79410571D01*
X257981333Y-79934380D02*
X258457523Y-79934380D01*
X258457523Y-78934380D01*
X257981333Y-78934380D01*
X257552761Y-79934380D02*
X257552761Y-78934380D01*
X257314666Y-78934380D01*
X257171809Y-78982000D01*
X257076571Y-79077238D01*
X257028952Y-79172476D01*
X256981333Y-79362952D01*
X256981333Y-79505809D01*
X257028952Y-79696285D01*
X257076571Y-79791523D01*
X257171809Y-79886761D01*
X257314666Y-79934380D01*
X257552761Y-79934380D01*
X259441333Y-81394380D02*
X259108000Y-82394380D01*
X258774666Y-81394380D01*
X257869904Y-82299142D02*
X257917523Y-82346761D01*
X258060380Y-82394380D01*
X258155619Y-82394380D01*
X258298476Y-82346761D01*
X258393714Y-82251523D01*
X258441333Y-82156285D01*
X258488952Y-81965809D01*
X258488952Y-81822952D01*
X258441333Y-81632476D01*
X258393714Y-81537238D01*
X258298476Y-81442000D01*
X258155619Y-81394380D01*
X258060380Y-81394380D01*
X257917523Y-81442000D01*
X257869904Y-81489619D01*
X256869904Y-82299142D02*
X256917523Y-82346761D01*
X257060380Y-82394380D01*
X257155619Y-82394380D01*
X257298476Y-82346761D01*
X257393714Y-82251523D01*
X257441333Y-82156285D01*
X257488952Y-81965809D01*
X257488952Y-81822952D01*
X257441333Y-81632476D01*
X257393714Y-81537238D01*
X257298476Y-81442000D01*
X257155619Y-81394380D01*
X257060380Y-81394380D01*
X256917523Y-81442000D01*
X256869904Y-81489619D01*
X272899035Y-102680130D02*
X272899035Y-101680130D01*
X272660940Y-101680130D01*
X272518083Y-101727750D01*
X272422845Y-101822988D01*
X272375226Y-101918226D01*
X272327607Y-102108702D01*
X272327607Y-102251559D01*
X272375226Y-102442035D01*
X272422845Y-102537273D01*
X272518083Y-102632511D01*
X272660940Y-102680130D01*
X272899035Y-102680130D01*
X271470464Y-102013464D02*
X271470464Y-102680130D01*
X271708559Y-101632511D02*
X271946654Y-102346797D01*
X271327607Y-102346797D01*
X270899035Y-102680130D02*
X270708559Y-102680130D01*
X270613321Y-102632511D01*
X270565702Y-102584892D01*
X270470464Y-102442035D01*
X270422845Y-102251559D01*
X270422845Y-101870607D01*
X270470464Y-101775369D01*
X270518083Y-101727750D01*
X270613321Y-101680130D01*
X270803797Y-101680130D01*
X270899035Y-101727750D01*
X270946654Y-101775369D01*
X270994273Y-101870607D01*
X270994273Y-102108702D01*
X270946654Y-102203940D01*
X270899035Y-102251559D01*
X270803797Y-102299178D01*
X270613321Y-102299178D01*
X270518083Y-102251559D01*
X270470464Y-102203940D01*
X270422845Y-102108702D01*
X268136654Y-102360130D02*
X268136654Y-101360130D01*
X267565226Y-102360130D02*
X267993797Y-101788702D01*
X267565226Y-101360130D02*
X268136654Y-101931559D01*
X245985285Y-82746380D02*
X245985285Y-81746380D01*
X245747190Y-81746380D01*
X245604333Y-81794000D01*
X245509095Y-81889238D01*
X245461476Y-81984476D01*
X245413857Y-82174952D01*
X245413857Y-82317809D01*
X245461476Y-82508285D01*
X245509095Y-82603523D01*
X245604333Y-82698761D01*
X245747190Y-82746380D01*
X245985285Y-82746380D01*
X244556714Y-82079714D02*
X244556714Y-82746380D01*
X244794809Y-81698761D02*
X245032904Y-82413047D01*
X244413857Y-82413047D01*
X243890047Y-82174952D02*
X243985285Y-82127333D01*
X244032904Y-82079714D01*
X244080523Y-81984476D01*
X244080523Y-81936857D01*
X244032904Y-81841619D01*
X243985285Y-81794000D01*
X243890047Y-81746380D01*
X243699571Y-81746380D01*
X243604333Y-81794000D01*
X243556714Y-81841619D01*
X243509095Y-81936857D01*
X243509095Y-81984476D01*
X243556714Y-82079714D01*
X243604333Y-82127333D01*
X243699571Y-82174952D01*
X243890047Y-82174952D01*
X243985285Y-82222571D01*
X244032904Y-82270190D01*
X244080523Y-82365428D01*
X244080523Y-82555904D01*
X244032904Y-82651142D01*
X243985285Y-82698761D01*
X243890047Y-82746380D01*
X243699571Y-82746380D01*
X243604333Y-82698761D01*
X243556714Y-82651142D01*
X243509095Y-82555904D01*
X243509095Y-82365428D01*
X243556714Y-82270190D01*
X243604333Y-82222571D01*
X243699571Y-82174952D01*
X248842904Y-83066380D02*
X248842904Y-82066380D01*
X248271476Y-83066380D02*
X248700047Y-82494952D01*
X248271476Y-82066380D02*
X248842904Y-82637809D01*
X245985285Y-63746380D02*
X245985285Y-62746380D01*
X245747190Y-62746380D01*
X245604333Y-62794000D01*
X245509095Y-62889238D01*
X245461476Y-62984476D01*
X245413857Y-63174952D01*
X245413857Y-63317809D01*
X245461476Y-63508285D01*
X245509095Y-63603523D01*
X245604333Y-63698761D01*
X245747190Y-63746380D01*
X245985285Y-63746380D01*
X244556714Y-63079714D02*
X244556714Y-63746380D01*
X244794809Y-62698761D02*
X245032904Y-63413047D01*
X244413857Y-63413047D01*
X244128142Y-62746380D02*
X243461476Y-62746380D01*
X243890047Y-63746380D01*
X248842904Y-64066380D02*
X248842904Y-63066380D01*
X248271476Y-64066380D02*
X248700047Y-63494952D01*
X248271476Y-63066380D02*
X248842904Y-63637809D01*
X241244285Y-44814380D02*
X241244285Y-43814380D01*
X241006190Y-43814380D01*
X240863333Y-43862000D01*
X240768095Y-43957238D01*
X240720476Y-44052476D01*
X240672857Y-44242952D01*
X240672857Y-44385809D01*
X240720476Y-44576285D01*
X240768095Y-44671523D01*
X240863333Y-44766761D01*
X241006190Y-44814380D01*
X241244285Y-44814380D01*
X239815714Y-44147714D02*
X239815714Y-44814380D01*
X240053809Y-43766761D02*
X240291904Y-44481047D01*
X239672857Y-44481047D01*
X238863333Y-43814380D02*
X239053809Y-43814380D01*
X239149047Y-43862000D01*
X239196666Y-43909619D01*
X239291904Y-44052476D01*
X239339523Y-44242952D01*
X239339523Y-44623904D01*
X239291904Y-44719142D01*
X239244285Y-44766761D01*
X239149047Y-44814380D01*
X238958571Y-44814380D01*
X238863333Y-44766761D01*
X238815714Y-44719142D01*
X238768095Y-44623904D01*
X238768095Y-44385809D01*
X238815714Y-44290571D01*
X238863333Y-44242952D01*
X238958571Y-44195333D01*
X239149047Y-44195333D01*
X239244285Y-44242952D01*
X239291904Y-44290571D01*
X239339523Y-44385809D01*
X244101904Y-45134380D02*
X244101904Y-44134380D01*
X243530476Y-45134380D02*
X243959047Y-44562952D01*
X243530476Y-44134380D02*
X244101904Y-44705809D01*
X226985285Y-82746380D02*
X226985285Y-81746380D01*
X226747190Y-81746380D01*
X226604333Y-81794000D01*
X226509095Y-81889238D01*
X226461476Y-81984476D01*
X226413857Y-82174952D01*
X226413857Y-82317809D01*
X226461476Y-82508285D01*
X226509095Y-82603523D01*
X226604333Y-82698761D01*
X226747190Y-82746380D01*
X226985285Y-82746380D01*
X225556714Y-82079714D02*
X225556714Y-82746380D01*
X225794809Y-81698761D02*
X226032904Y-82413047D01*
X225413857Y-82413047D01*
X224604333Y-82079714D02*
X224604333Y-82746380D01*
X224842428Y-81698761D02*
X225080523Y-82413047D01*
X224461476Y-82413047D01*
X229842904Y-83066380D02*
X229842904Y-82066380D01*
X229271476Y-83066380D02*
X229700047Y-82494952D01*
X229271476Y-82066380D02*
X229842904Y-82637809D01*
X226985285Y-63746380D02*
X226985285Y-62746380D01*
X226747190Y-62746380D01*
X226604333Y-62794000D01*
X226509095Y-62889238D01*
X226461476Y-62984476D01*
X226413857Y-63174952D01*
X226413857Y-63317809D01*
X226461476Y-63508285D01*
X226509095Y-63603523D01*
X226604333Y-63698761D01*
X226747190Y-63746380D01*
X226985285Y-63746380D01*
X225556714Y-63079714D02*
X225556714Y-63746380D01*
X225794809Y-62698761D02*
X226032904Y-63413047D01*
X225413857Y-63413047D01*
X225128142Y-62746380D02*
X224509095Y-62746380D01*
X224842428Y-63127333D01*
X224699571Y-63127333D01*
X224604333Y-63174952D01*
X224556714Y-63222571D01*
X224509095Y-63317809D01*
X224509095Y-63555904D01*
X224556714Y-63651142D01*
X224604333Y-63698761D01*
X224699571Y-63746380D01*
X224985285Y-63746380D01*
X225080523Y-63698761D01*
X225128142Y-63651142D01*
X229842904Y-64066380D02*
X229842904Y-63066380D01*
X229271476Y-64066380D02*
X229700047Y-63494952D01*
X229271476Y-63066380D02*
X229842904Y-63637809D01*
X217360285Y-44746380D02*
X217360285Y-43746380D01*
X217122190Y-43746380D01*
X216979333Y-43794000D01*
X216884095Y-43889238D01*
X216836476Y-43984476D01*
X216788857Y-44174952D01*
X216788857Y-44317809D01*
X216836476Y-44508285D01*
X216884095Y-44603523D01*
X216979333Y-44698761D01*
X217122190Y-44746380D01*
X217360285Y-44746380D01*
X215931714Y-44079714D02*
X215931714Y-44746380D01*
X216169809Y-43698761D02*
X216407904Y-44413047D01*
X215788857Y-44413047D01*
X215455523Y-43841619D02*
X215407904Y-43794000D01*
X215312666Y-43746380D01*
X215074571Y-43746380D01*
X214979333Y-43794000D01*
X214931714Y-43841619D01*
X214884095Y-43936857D01*
X214884095Y-44032095D01*
X214931714Y-44174952D01*
X215503142Y-44746380D01*
X214884095Y-44746380D01*
X220217904Y-45066380D02*
X220217904Y-44066380D01*
X219646476Y-45066380D02*
X220075047Y-44494952D01*
X219646476Y-44066380D02*
X220217904Y-44637809D01*
X207843285Y-82914380D02*
X207843285Y-81914380D01*
X207605190Y-81914380D01*
X207462333Y-81962000D01*
X207367095Y-82057238D01*
X207319476Y-82152476D01*
X207271857Y-82342952D01*
X207271857Y-82485809D01*
X207319476Y-82676285D01*
X207367095Y-82771523D01*
X207462333Y-82866761D01*
X207605190Y-82914380D01*
X207843285Y-82914380D01*
X206414714Y-82247714D02*
X206414714Y-82914380D01*
X206652809Y-81866761D02*
X206890904Y-82581047D01*
X206271857Y-82581047D01*
X205700428Y-81914380D02*
X205605190Y-81914380D01*
X205509952Y-81962000D01*
X205462333Y-82009619D01*
X205414714Y-82104857D01*
X205367095Y-82295333D01*
X205367095Y-82533428D01*
X205414714Y-82723904D01*
X205462333Y-82819142D01*
X205509952Y-82866761D01*
X205605190Y-82914380D01*
X205700428Y-82914380D01*
X205795666Y-82866761D01*
X205843285Y-82819142D01*
X205890904Y-82723904D01*
X205938523Y-82533428D01*
X205938523Y-82295333D01*
X205890904Y-82104857D01*
X205843285Y-82009619D01*
X205795666Y-81962000D01*
X205700428Y-81914380D01*
X210700904Y-83234380D02*
X210700904Y-82234380D01*
X210129476Y-83234380D02*
X210558047Y-82662952D01*
X210129476Y-82234380D02*
X210700904Y-82805809D01*
X207985285Y-63746380D02*
X207985285Y-62746380D01*
X207747190Y-62746380D01*
X207604333Y-62794000D01*
X207509095Y-62889238D01*
X207461476Y-62984476D01*
X207413857Y-63174952D01*
X207413857Y-63317809D01*
X207461476Y-63508285D01*
X207509095Y-63603523D01*
X207604333Y-63698761D01*
X207747190Y-63746380D01*
X207985285Y-63746380D01*
X207080523Y-62746380D02*
X206461476Y-62746380D01*
X206794809Y-63127333D01*
X206651952Y-63127333D01*
X206556714Y-63174952D01*
X206509095Y-63222571D01*
X206461476Y-63317809D01*
X206461476Y-63555904D01*
X206509095Y-63651142D01*
X206556714Y-63698761D01*
X206651952Y-63746380D01*
X206937666Y-63746380D01*
X207032904Y-63698761D01*
X207080523Y-63651142D01*
X205985285Y-63746380D02*
X205794809Y-63746380D01*
X205699571Y-63698761D01*
X205651952Y-63651142D01*
X205556714Y-63508285D01*
X205509095Y-63317809D01*
X205509095Y-62936857D01*
X205556714Y-62841619D01*
X205604333Y-62794000D01*
X205699571Y-62746380D01*
X205890047Y-62746380D01*
X205985285Y-62794000D01*
X206032904Y-62841619D01*
X206080523Y-62936857D01*
X206080523Y-63174952D01*
X206032904Y-63270190D01*
X205985285Y-63317809D01*
X205890047Y-63365428D01*
X205699571Y-63365428D01*
X205604333Y-63317809D01*
X205556714Y-63270190D01*
X205509095Y-63174952D01*
X210842904Y-64066380D02*
X210842904Y-63066380D01*
X210271476Y-64066380D02*
X210700047Y-63494952D01*
X210271476Y-63066380D02*
X210842904Y-63637809D01*
X198360285Y-44746380D02*
X198360285Y-43746380D01*
X198122190Y-43746380D01*
X197979333Y-43794000D01*
X197884095Y-43889238D01*
X197836476Y-43984476D01*
X197788857Y-44174952D01*
X197788857Y-44317809D01*
X197836476Y-44508285D01*
X197884095Y-44603523D01*
X197979333Y-44698761D01*
X198122190Y-44746380D01*
X198360285Y-44746380D01*
X197455523Y-43746380D02*
X196836476Y-43746380D01*
X197169809Y-44127333D01*
X197026952Y-44127333D01*
X196931714Y-44174952D01*
X196884095Y-44222571D01*
X196836476Y-44317809D01*
X196836476Y-44555904D01*
X196884095Y-44651142D01*
X196931714Y-44698761D01*
X197026952Y-44746380D01*
X197312666Y-44746380D01*
X197407904Y-44698761D01*
X197455523Y-44651142D01*
X196265047Y-44174952D02*
X196360285Y-44127333D01*
X196407904Y-44079714D01*
X196455523Y-43984476D01*
X196455523Y-43936857D01*
X196407904Y-43841619D01*
X196360285Y-43794000D01*
X196265047Y-43746380D01*
X196074571Y-43746380D01*
X195979333Y-43794000D01*
X195931714Y-43841619D01*
X195884095Y-43936857D01*
X195884095Y-43984476D01*
X195931714Y-44079714D01*
X195979333Y-44127333D01*
X196074571Y-44174952D01*
X196265047Y-44174952D01*
X196360285Y-44222571D01*
X196407904Y-44270190D01*
X196455523Y-44365428D01*
X196455523Y-44555904D01*
X196407904Y-44651142D01*
X196360285Y-44698761D01*
X196265047Y-44746380D01*
X196074571Y-44746380D01*
X195979333Y-44698761D01*
X195931714Y-44651142D01*
X195884095Y-44555904D01*
X195884095Y-44365428D01*
X195931714Y-44270190D01*
X195979333Y-44222571D01*
X196074571Y-44174952D01*
X201217904Y-45066380D02*
X201217904Y-44066380D01*
X200646476Y-45066380D02*
X201075047Y-44494952D01*
X200646476Y-44066380D02*
X201217904Y-44637809D01*
X183967285Y-82914380D02*
X183967285Y-81914380D01*
X183729190Y-81914380D01*
X183586333Y-81962000D01*
X183491095Y-82057238D01*
X183443476Y-82152476D01*
X183395857Y-82342952D01*
X183395857Y-82485809D01*
X183443476Y-82676285D01*
X183491095Y-82771523D01*
X183586333Y-82866761D01*
X183729190Y-82914380D01*
X183967285Y-82914380D01*
X183062523Y-81914380D02*
X182443476Y-81914380D01*
X182776809Y-82295333D01*
X182633952Y-82295333D01*
X182538714Y-82342952D01*
X182491095Y-82390571D01*
X182443476Y-82485809D01*
X182443476Y-82723904D01*
X182491095Y-82819142D01*
X182538714Y-82866761D01*
X182633952Y-82914380D01*
X182919666Y-82914380D01*
X183014904Y-82866761D01*
X183062523Y-82819142D01*
X181586333Y-81914380D02*
X181776809Y-81914380D01*
X181872047Y-81962000D01*
X181919666Y-82009619D01*
X182014904Y-82152476D01*
X182062523Y-82342952D01*
X182062523Y-82723904D01*
X182014904Y-82819142D01*
X181967285Y-82866761D01*
X181872047Y-82914380D01*
X181681571Y-82914380D01*
X181586333Y-82866761D01*
X181538714Y-82819142D01*
X181491095Y-82723904D01*
X181491095Y-82485809D01*
X181538714Y-82390571D01*
X181586333Y-82342952D01*
X181681571Y-82295333D01*
X181872047Y-82295333D01*
X181967285Y-82342952D01*
X182014904Y-82390571D01*
X182062523Y-82485809D01*
X186824904Y-83234380D02*
X186824904Y-82234380D01*
X186253476Y-83234380D02*
X186682047Y-82662952D01*
X186253476Y-82234380D02*
X186824904Y-82805809D01*
X188735285Y-63746380D02*
X188735285Y-62746380D01*
X188497190Y-62746380D01*
X188354333Y-62794000D01*
X188259095Y-62889238D01*
X188211476Y-62984476D01*
X188163857Y-63174952D01*
X188163857Y-63317809D01*
X188211476Y-63508285D01*
X188259095Y-63603523D01*
X188354333Y-63698761D01*
X188497190Y-63746380D01*
X188735285Y-63746380D01*
X187830523Y-62746380D02*
X187211476Y-62746380D01*
X187544809Y-63127333D01*
X187401952Y-63127333D01*
X187306714Y-63174952D01*
X187259095Y-63222571D01*
X187211476Y-63317809D01*
X187211476Y-63555904D01*
X187259095Y-63651142D01*
X187306714Y-63698761D01*
X187401952Y-63746380D01*
X187687666Y-63746380D01*
X187782904Y-63698761D01*
X187830523Y-63651142D01*
X186306714Y-62746380D02*
X186782904Y-62746380D01*
X186830523Y-63222571D01*
X186782904Y-63174952D01*
X186687666Y-63127333D01*
X186449571Y-63127333D01*
X186354333Y-63174952D01*
X186306714Y-63222571D01*
X186259095Y-63317809D01*
X186259095Y-63555904D01*
X186306714Y-63651142D01*
X186354333Y-63698761D01*
X186449571Y-63746380D01*
X186687666Y-63746380D01*
X186782904Y-63698761D01*
X186830523Y-63651142D01*
X191592904Y-64066380D02*
X191592904Y-63066380D01*
X191021476Y-64066380D02*
X191450047Y-63494952D01*
X191021476Y-63066380D02*
X191592904Y-63637809D01*
X179360285Y-44746380D02*
X179360285Y-43746380D01*
X179122190Y-43746380D01*
X178979333Y-43794000D01*
X178884095Y-43889238D01*
X178836476Y-43984476D01*
X178788857Y-44174952D01*
X178788857Y-44317809D01*
X178836476Y-44508285D01*
X178884095Y-44603523D01*
X178979333Y-44698761D01*
X179122190Y-44746380D01*
X179360285Y-44746380D01*
X178455523Y-43746380D02*
X177836476Y-43746380D01*
X178169809Y-44127333D01*
X178026952Y-44127333D01*
X177931714Y-44174952D01*
X177884095Y-44222571D01*
X177836476Y-44317809D01*
X177836476Y-44555904D01*
X177884095Y-44651142D01*
X177931714Y-44698761D01*
X178026952Y-44746380D01*
X178312666Y-44746380D01*
X178407904Y-44698761D01*
X178455523Y-44651142D01*
X176979333Y-44079714D02*
X176979333Y-44746380D01*
X177217428Y-43698761D02*
X177455523Y-44413047D01*
X176836476Y-44413047D01*
X182217904Y-45066380D02*
X182217904Y-44066380D01*
X181646476Y-45066380D02*
X182075047Y-44494952D01*
X181646476Y-44066380D02*
X182217904Y-44637809D01*
X169735285Y-63746380D02*
X169735285Y-62746380D01*
X169497190Y-62746380D01*
X169354333Y-62794000D01*
X169259095Y-62889238D01*
X169211476Y-62984476D01*
X169163857Y-63174952D01*
X169163857Y-63317809D01*
X169211476Y-63508285D01*
X169259095Y-63603523D01*
X169354333Y-63698761D01*
X169497190Y-63746380D01*
X169735285Y-63746380D01*
X168830523Y-62746380D02*
X168211476Y-62746380D01*
X168544809Y-63127333D01*
X168401952Y-63127333D01*
X168306714Y-63174952D01*
X168259095Y-63222571D01*
X168211476Y-63317809D01*
X168211476Y-63555904D01*
X168259095Y-63651142D01*
X168306714Y-63698761D01*
X168401952Y-63746380D01*
X168687666Y-63746380D01*
X168782904Y-63698761D01*
X168830523Y-63651142D01*
X167259095Y-63746380D02*
X167830523Y-63746380D01*
X167544809Y-63746380D02*
X167544809Y-62746380D01*
X167640047Y-62889238D01*
X167735285Y-62984476D01*
X167830523Y-63032095D01*
X172592904Y-64066380D02*
X172592904Y-63066380D01*
X172021476Y-64066380D02*
X172450047Y-63494952D01*
X172021476Y-63066380D02*
X172592904Y-63637809D01*
X160160285Y-44746380D02*
X160160285Y-43746380D01*
X159922190Y-43746380D01*
X159779333Y-43794000D01*
X159684095Y-43889238D01*
X159636476Y-43984476D01*
X159588857Y-44174952D01*
X159588857Y-44317809D01*
X159636476Y-44508285D01*
X159684095Y-44603523D01*
X159779333Y-44698761D01*
X159922190Y-44746380D01*
X160160285Y-44746380D01*
X159255523Y-43746380D02*
X158636476Y-43746380D01*
X158969809Y-44127333D01*
X158826952Y-44127333D01*
X158731714Y-44174952D01*
X158684095Y-44222571D01*
X158636476Y-44317809D01*
X158636476Y-44555904D01*
X158684095Y-44651142D01*
X158731714Y-44698761D01*
X158826952Y-44746380D01*
X159112666Y-44746380D01*
X159207904Y-44698761D01*
X159255523Y-44651142D01*
X158017428Y-43746380D02*
X157922190Y-43746380D01*
X157826952Y-43794000D01*
X157779333Y-43841619D01*
X157731714Y-43936857D01*
X157684095Y-44127333D01*
X157684095Y-44365428D01*
X157731714Y-44555904D01*
X157779333Y-44651142D01*
X157826952Y-44698761D01*
X157922190Y-44746380D01*
X158017428Y-44746380D01*
X158112666Y-44698761D01*
X158160285Y-44651142D01*
X158207904Y-44555904D01*
X158255523Y-44365428D01*
X158255523Y-44127333D01*
X158207904Y-43936857D01*
X158160285Y-43841619D01*
X158112666Y-43794000D01*
X158017428Y-43746380D01*
X163017904Y-45066380D02*
X163017904Y-44066380D01*
X162446476Y-45066380D02*
X162875047Y-44494952D01*
X162446476Y-44066380D02*
X163017904Y-44637809D01*
X150735285Y-63746380D02*
X150735285Y-62746380D01*
X150497190Y-62746380D01*
X150354333Y-62794000D01*
X150259095Y-62889238D01*
X150211476Y-62984476D01*
X150163857Y-63174952D01*
X150163857Y-63317809D01*
X150211476Y-63508285D01*
X150259095Y-63603523D01*
X150354333Y-63698761D01*
X150497190Y-63746380D01*
X150735285Y-63746380D01*
X149782904Y-62841619D02*
X149735285Y-62794000D01*
X149640047Y-62746380D01*
X149401952Y-62746380D01*
X149306714Y-62794000D01*
X149259095Y-62841619D01*
X149211476Y-62936857D01*
X149211476Y-63032095D01*
X149259095Y-63174952D01*
X149830523Y-63746380D01*
X149211476Y-63746380D01*
X148878142Y-62746380D02*
X148211476Y-62746380D01*
X148640047Y-63746380D01*
X153592904Y-64066380D02*
X153592904Y-63066380D01*
X153021476Y-64066380D02*
X153450047Y-63494952D01*
X153021476Y-63066380D02*
X153592904Y-63637809D01*
X141160285Y-44746380D02*
X141160285Y-43746380D01*
X140922190Y-43746380D01*
X140779333Y-43794000D01*
X140684095Y-43889238D01*
X140636476Y-43984476D01*
X140588857Y-44174952D01*
X140588857Y-44317809D01*
X140636476Y-44508285D01*
X140684095Y-44603523D01*
X140779333Y-44698761D01*
X140922190Y-44746380D01*
X141160285Y-44746380D01*
X140207904Y-43841619D02*
X140160285Y-43794000D01*
X140065047Y-43746380D01*
X139826952Y-43746380D01*
X139731714Y-43794000D01*
X139684095Y-43841619D01*
X139636476Y-43936857D01*
X139636476Y-44032095D01*
X139684095Y-44174952D01*
X140255523Y-44746380D01*
X139636476Y-44746380D01*
X138779333Y-43746380D02*
X138969809Y-43746380D01*
X139065047Y-43794000D01*
X139112666Y-43841619D01*
X139207904Y-43984476D01*
X139255523Y-44174952D01*
X139255523Y-44555904D01*
X139207904Y-44651142D01*
X139160285Y-44698761D01*
X139065047Y-44746380D01*
X138874571Y-44746380D01*
X138779333Y-44698761D01*
X138731714Y-44651142D01*
X138684095Y-44555904D01*
X138684095Y-44317809D01*
X138731714Y-44222571D01*
X138779333Y-44174952D01*
X138874571Y-44127333D01*
X139065047Y-44127333D01*
X139160285Y-44174952D01*
X139207904Y-44222571D01*
X139255523Y-44317809D01*
X144017904Y-45066380D02*
X144017904Y-44066380D01*
X143446476Y-45066380D02*
X143875047Y-44494952D01*
X143446476Y-44066380D02*
X144017904Y-44637809D01*
X131735285Y-63746380D02*
X131735285Y-62746380D01*
X131497190Y-62746380D01*
X131354333Y-62794000D01*
X131259095Y-62889238D01*
X131211476Y-62984476D01*
X131163857Y-63174952D01*
X131163857Y-63317809D01*
X131211476Y-63508285D01*
X131259095Y-63603523D01*
X131354333Y-63698761D01*
X131497190Y-63746380D01*
X131735285Y-63746380D01*
X130782904Y-62841619D02*
X130735285Y-62794000D01*
X130640047Y-62746380D01*
X130401952Y-62746380D01*
X130306714Y-62794000D01*
X130259095Y-62841619D01*
X130211476Y-62936857D01*
X130211476Y-63032095D01*
X130259095Y-63174952D01*
X130830523Y-63746380D01*
X130211476Y-63746380D01*
X129878142Y-62746380D02*
X129259095Y-62746380D01*
X129592428Y-63127333D01*
X129449571Y-63127333D01*
X129354333Y-63174952D01*
X129306714Y-63222571D01*
X129259095Y-63317809D01*
X129259095Y-63555904D01*
X129306714Y-63651142D01*
X129354333Y-63698761D01*
X129449571Y-63746380D01*
X129735285Y-63746380D01*
X129830523Y-63698761D01*
X129878142Y-63651142D01*
X134592904Y-64066380D02*
X134592904Y-63066380D01*
X134021476Y-64066380D02*
X134450047Y-63494952D01*
X134021476Y-63066380D02*
X134592904Y-63637809D01*
X122160285Y-44746380D02*
X122160285Y-43746380D01*
X121922190Y-43746380D01*
X121779333Y-43794000D01*
X121684095Y-43889238D01*
X121636476Y-43984476D01*
X121588857Y-44174952D01*
X121588857Y-44317809D01*
X121636476Y-44508285D01*
X121684095Y-44603523D01*
X121779333Y-44698761D01*
X121922190Y-44746380D01*
X122160285Y-44746380D01*
X121207904Y-43841619D02*
X121160285Y-43794000D01*
X121065047Y-43746380D01*
X120826952Y-43746380D01*
X120731714Y-43794000D01*
X120684095Y-43841619D01*
X120636476Y-43936857D01*
X120636476Y-44032095D01*
X120684095Y-44174952D01*
X121255523Y-44746380D01*
X120636476Y-44746380D01*
X120255523Y-43841619D02*
X120207904Y-43794000D01*
X120112666Y-43746380D01*
X119874571Y-43746380D01*
X119779333Y-43794000D01*
X119731714Y-43841619D01*
X119684095Y-43936857D01*
X119684095Y-44032095D01*
X119731714Y-44174952D01*
X120303142Y-44746380D01*
X119684095Y-44746380D01*
X125017904Y-45066380D02*
X125017904Y-44066380D01*
X124446476Y-45066380D02*
X124875047Y-44494952D01*
X124446476Y-44066380D02*
X125017904Y-44637809D01*
X150693285Y-82914380D02*
X150693285Y-81914380D01*
X150455190Y-81914380D01*
X150312333Y-81962000D01*
X150217095Y-82057238D01*
X150169476Y-82152476D01*
X150121857Y-82342952D01*
X150121857Y-82485809D01*
X150169476Y-82676285D01*
X150217095Y-82771523D01*
X150312333Y-82866761D01*
X150455190Y-82914380D01*
X150693285Y-82914380D01*
X149740904Y-82009619D02*
X149693285Y-81962000D01*
X149598047Y-81914380D01*
X149359952Y-81914380D01*
X149264714Y-81962000D01*
X149217095Y-82009619D01*
X149169476Y-82104857D01*
X149169476Y-82200095D01*
X149217095Y-82342952D01*
X149788523Y-82914380D01*
X149169476Y-82914380D01*
X148550428Y-81914380D02*
X148455190Y-81914380D01*
X148359952Y-81962000D01*
X148312333Y-82009619D01*
X148264714Y-82104857D01*
X148217095Y-82295333D01*
X148217095Y-82533428D01*
X148264714Y-82723904D01*
X148312333Y-82819142D01*
X148359952Y-82866761D01*
X148455190Y-82914380D01*
X148550428Y-82914380D01*
X148645666Y-82866761D01*
X148693285Y-82819142D01*
X148740904Y-82723904D01*
X148788523Y-82533428D01*
X148788523Y-82295333D01*
X148740904Y-82104857D01*
X148693285Y-82009619D01*
X148645666Y-81962000D01*
X148550428Y-81914380D01*
X153550904Y-83234380D02*
X153550904Y-82234380D01*
X152979476Y-83234380D02*
X153408047Y-82662952D01*
X152979476Y-82234380D02*
X153550904Y-82805809D01*
X112485285Y-63746380D02*
X112485285Y-62746380D01*
X112247190Y-62746380D01*
X112104333Y-62794000D01*
X112009095Y-62889238D01*
X111961476Y-62984476D01*
X111913857Y-63174952D01*
X111913857Y-63317809D01*
X111961476Y-63508285D01*
X112009095Y-63603523D01*
X112104333Y-63698761D01*
X112247190Y-63746380D01*
X112485285Y-63746380D01*
X110961476Y-63746380D02*
X111532904Y-63746380D01*
X111247190Y-63746380D02*
X111247190Y-62746380D01*
X111342428Y-62889238D01*
X111437666Y-62984476D01*
X111532904Y-63032095D01*
X110485285Y-63746380D02*
X110294809Y-63746380D01*
X110199571Y-63698761D01*
X110151952Y-63651142D01*
X110056714Y-63508285D01*
X110009095Y-63317809D01*
X110009095Y-62936857D01*
X110056714Y-62841619D01*
X110104333Y-62794000D01*
X110199571Y-62746380D01*
X110390047Y-62746380D01*
X110485285Y-62794000D01*
X110532904Y-62841619D01*
X110580523Y-62936857D01*
X110580523Y-63174952D01*
X110532904Y-63270190D01*
X110485285Y-63317809D01*
X110390047Y-63365428D01*
X110199571Y-63365428D01*
X110104333Y-63317809D01*
X110056714Y-63270190D01*
X110009095Y-63174952D01*
X115342904Y-64066380D02*
X115342904Y-63066380D01*
X114771476Y-64066380D02*
X115200047Y-63494952D01*
X114771476Y-63066380D02*
X115342904Y-63637809D01*
X103160285Y-44746380D02*
X103160285Y-43746380D01*
X102922190Y-43746380D01*
X102779333Y-43794000D01*
X102684095Y-43889238D01*
X102636476Y-43984476D01*
X102588857Y-44174952D01*
X102588857Y-44317809D01*
X102636476Y-44508285D01*
X102684095Y-44603523D01*
X102779333Y-44698761D01*
X102922190Y-44746380D01*
X103160285Y-44746380D01*
X101636476Y-44746380D02*
X102207904Y-44746380D01*
X101922190Y-44746380D02*
X101922190Y-43746380D01*
X102017428Y-43889238D01*
X102112666Y-43984476D01*
X102207904Y-44032095D01*
X101065047Y-44174952D02*
X101160285Y-44127333D01*
X101207904Y-44079714D01*
X101255523Y-43984476D01*
X101255523Y-43936857D01*
X101207904Y-43841619D01*
X101160285Y-43794000D01*
X101065047Y-43746380D01*
X100874571Y-43746380D01*
X100779333Y-43794000D01*
X100731714Y-43841619D01*
X100684095Y-43936857D01*
X100684095Y-43984476D01*
X100731714Y-44079714D01*
X100779333Y-44127333D01*
X100874571Y-44174952D01*
X101065047Y-44174952D01*
X101160285Y-44222571D01*
X101207904Y-44270190D01*
X101255523Y-44365428D01*
X101255523Y-44555904D01*
X101207904Y-44651142D01*
X101160285Y-44698761D01*
X101065047Y-44746380D01*
X100874571Y-44746380D01*
X100779333Y-44698761D01*
X100731714Y-44651142D01*
X100684095Y-44555904D01*
X100684095Y-44365428D01*
X100731714Y-44270190D01*
X100779333Y-44222571D01*
X100874571Y-44174952D01*
X106017904Y-45066380D02*
X106017904Y-44066380D01*
X105446476Y-45066380D02*
X105875047Y-44494952D01*
X105446476Y-44066380D02*
X106017904Y-44637809D01*
X110180285Y-82914380D02*
X110180285Y-81914380D01*
X109942190Y-81914380D01*
X109799333Y-81962000D01*
X109704095Y-82057238D01*
X109656476Y-82152476D01*
X109608857Y-82342952D01*
X109608857Y-82485809D01*
X109656476Y-82676285D01*
X109704095Y-82771523D01*
X109799333Y-82866761D01*
X109942190Y-82914380D01*
X110180285Y-82914380D01*
X108656476Y-82914380D02*
X109227904Y-82914380D01*
X108942190Y-82914380D02*
X108942190Y-81914380D01*
X109037428Y-82057238D01*
X109132666Y-82152476D01*
X109227904Y-82200095D01*
X107799333Y-81914380D02*
X107989809Y-81914380D01*
X108085047Y-81962000D01*
X108132666Y-82009619D01*
X108227904Y-82152476D01*
X108275523Y-82342952D01*
X108275523Y-82723904D01*
X108227904Y-82819142D01*
X108180285Y-82866761D01*
X108085047Y-82914380D01*
X107894571Y-82914380D01*
X107799333Y-82866761D01*
X107751714Y-82819142D01*
X107704095Y-82723904D01*
X107704095Y-82485809D01*
X107751714Y-82390571D01*
X107799333Y-82342952D01*
X107894571Y-82295333D01*
X108085047Y-82295333D01*
X108180285Y-82342952D01*
X108227904Y-82390571D01*
X108275523Y-82485809D01*
X113037904Y-83234380D02*
X113037904Y-82234380D01*
X112466476Y-83234380D02*
X112895047Y-82662952D01*
X112466476Y-82234380D02*
X113037904Y-82805809D01*
X93485285Y-63746380D02*
X93485285Y-62746380D01*
X93247190Y-62746380D01*
X93104333Y-62794000D01*
X93009095Y-62889238D01*
X92961476Y-62984476D01*
X92913857Y-63174952D01*
X92913857Y-63317809D01*
X92961476Y-63508285D01*
X93009095Y-63603523D01*
X93104333Y-63698761D01*
X93247190Y-63746380D01*
X93485285Y-63746380D01*
X91961476Y-63746380D02*
X92532904Y-63746380D01*
X92247190Y-63746380D02*
X92247190Y-62746380D01*
X92342428Y-62889238D01*
X92437666Y-62984476D01*
X92532904Y-63032095D01*
X91056714Y-62746380D02*
X91532904Y-62746380D01*
X91580523Y-63222571D01*
X91532904Y-63174952D01*
X91437666Y-63127333D01*
X91199571Y-63127333D01*
X91104333Y-63174952D01*
X91056714Y-63222571D01*
X91009095Y-63317809D01*
X91009095Y-63555904D01*
X91056714Y-63651142D01*
X91104333Y-63698761D01*
X91199571Y-63746380D01*
X91437666Y-63746380D01*
X91532904Y-63698761D01*
X91580523Y-63651142D01*
X96342904Y-64066380D02*
X96342904Y-63066380D01*
X95771476Y-64066380D02*
X96200047Y-63494952D01*
X95771476Y-63066380D02*
X96342904Y-63637809D01*
X83960285Y-44746380D02*
X83960285Y-43746380D01*
X83722190Y-43746380D01*
X83579333Y-43794000D01*
X83484095Y-43889238D01*
X83436476Y-43984476D01*
X83388857Y-44174952D01*
X83388857Y-44317809D01*
X83436476Y-44508285D01*
X83484095Y-44603523D01*
X83579333Y-44698761D01*
X83722190Y-44746380D01*
X83960285Y-44746380D01*
X82436476Y-44746380D02*
X83007904Y-44746380D01*
X82722190Y-44746380D02*
X82722190Y-43746380D01*
X82817428Y-43889238D01*
X82912666Y-43984476D01*
X83007904Y-44032095D01*
X81579333Y-44079714D02*
X81579333Y-44746380D01*
X81817428Y-43698761D02*
X82055523Y-44413047D01*
X81436476Y-44413047D01*
X86817904Y-45066380D02*
X86817904Y-44066380D01*
X86246476Y-45066380D02*
X86675047Y-44494952D01*
X86246476Y-44066380D02*
X86817904Y-44637809D01*
X76779285Y-82914380D02*
X76779285Y-81914380D01*
X76541190Y-81914380D01*
X76398333Y-81962000D01*
X76303095Y-82057238D01*
X76255476Y-82152476D01*
X76207857Y-82342952D01*
X76207857Y-82485809D01*
X76255476Y-82676285D01*
X76303095Y-82771523D01*
X76398333Y-82866761D01*
X76541190Y-82914380D01*
X76779285Y-82914380D01*
X75255476Y-82914380D02*
X75826904Y-82914380D01*
X75541190Y-82914380D02*
X75541190Y-81914380D01*
X75636428Y-82057238D01*
X75731666Y-82152476D01*
X75826904Y-82200095D01*
X74874523Y-82009619D02*
X74826904Y-81962000D01*
X74731666Y-81914380D01*
X74493571Y-81914380D01*
X74398333Y-81962000D01*
X74350714Y-82009619D01*
X74303095Y-82104857D01*
X74303095Y-82200095D01*
X74350714Y-82342952D01*
X74922142Y-82914380D01*
X74303095Y-82914380D01*
X79636904Y-83234380D02*
X79636904Y-82234380D01*
X79065476Y-83234380D02*
X79494047Y-82662952D01*
X79065476Y-82234380D02*
X79636904Y-82805809D01*
X74485285Y-63746380D02*
X74485285Y-62746380D01*
X74247190Y-62746380D01*
X74104333Y-62794000D01*
X74009095Y-62889238D01*
X73961476Y-62984476D01*
X73913857Y-63174952D01*
X73913857Y-63317809D01*
X73961476Y-63508285D01*
X74009095Y-63603523D01*
X74104333Y-63698761D01*
X74247190Y-63746380D01*
X74485285Y-63746380D01*
X72961476Y-63746380D02*
X73532904Y-63746380D01*
X73247190Y-63746380D02*
X73247190Y-62746380D01*
X73342428Y-62889238D01*
X73437666Y-62984476D01*
X73532904Y-63032095D01*
X72009095Y-63746380D02*
X72580523Y-63746380D01*
X72294809Y-63746380D02*
X72294809Y-62746380D01*
X72390047Y-62889238D01*
X72485285Y-62984476D01*
X72580523Y-63032095D01*
X77342904Y-64066380D02*
X77342904Y-63066380D01*
X76771476Y-64066380D02*
X77200047Y-63494952D01*
X76771476Y-63066380D02*
X77342904Y-63637809D01*
X64960285Y-44746380D02*
X64960285Y-43746380D01*
X64722190Y-43746380D01*
X64579333Y-43794000D01*
X64484095Y-43889238D01*
X64436476Y-43984476D01*
X64388857Y-44174952D01*
X64388857Y-44317809D01*
X64436476Y-44508285D01*
X64484095Y-44603523D01*
X64579333Y-44698761D01*
X64722190Y-44746380D01*
X64960285Y-44746380D01*
X63436476Y-44746380D02*
X64007904Y-44746380D01*
X63722190Y-44746380D02*
X63722190Y-43746380D01*
X63817428Y-43889238D01*
X63912666Y-43984476D01*
X64007904Y-44032095D01*
X62817428Y-43746380D02*
X62722190Y-43746380D01*
X62626952Y-43794000D01*
X62579333Y-43841619D01*
X62531714Y-43936857D01*
X62484095Y-44127333D01*
X62484095Y-44365428D01*
X62531714Y-44555904D01*
X62579333Y-44651142D01*
X62626952Y-44698761D01*
X62722190Y-44746380D01*
X62817428Y-44746380D01*
X62912666Y-44698761D01*
X62960285Y-44651142D01*
X63007904Y-44555904D01*
X63055523Y-44365428D01*
X63055523Y-44127333D01*
X63007904Y-43936857D01*
X62960285Y-43841619D01*
X62912666Y-43794000D01*
X62817428Y-43746380D01*
X67817904Y-45066380D02*
X67817904Y-44066380D01*
X67246476Y-45066380D02*
X67675047Y-44494952D01*
X67246476Y-44066380D02*
X67817904Y-44637809D01*
X50141095Y-82914380D02*
X50141095Y-81914380D01*
X49903000Y-81914380D01*
X49760142Y-81962000D01*
X49664904Y-82057238D01*
X49617285Y-82152476D01*
X49569666Y-82342952D01*
X49569666Y-82485809D01*
X49617285Y-82676285D01*
X49664904Y-82771523D01*
X49760142Y-82866761D01*
X49903000Y-82914380D01*
X50141095Y-82914380D01*
X48998238Y-82342952D02*
X49093476Y-82295333D01*
X49141095Y-82247714D01*
X49188714Y-82152476D01*
X49188714Y-82104857D01*
X49141095Y-82009619D01*
X49093476Y-81962000D01*
X48998238Y-81914380D01*
X48807761Y-81914380D01*
X48712523Y-81962000D01*
X48664904Y-82009619D01*
X48617285Y-82104857D01*
X48617285Y-82152476D01*
X48664904Y-82247714D01*
X48712523Y-82295333D01*
X48807761Y-82342952D01*
X48998238Y-82342952D01*
X49093476Y-82390571D01*
X49141095Y-82438190D01*
X49188714Y-82533428D01*
X49188714Y-82723904D01*
X49141095Y-82819142D01*
X49093476Y-82866761D01*
X48998238Y-82914380D01*
X48807761Y-82914380D01*
X48712523Y-82866761D01*
X48664904Y-82819142D01*
X48617285Y-82723904D01*
X48617285Y-82533428D01*
X48664904Y-82438190D01*
X48712523Y-82390571D01*
X48807761Y-82342952D01*
X53474904Y-83234380D02*
X53474904Y-82234380D01*
X52903476Y-83234380D02*
X53332047Y-82662952D01*
X52903476Y-82234380D02*
X53474904Y-82805809D01*
X55009095Y-63746380D02*
X55009095Y-62746380D01*
X54771000Y-62746380D01*
X54628142Y-62794000D01*
X54532904Y-62889238D01*
X54485285Y-62984476D01*
X54437666Y-63174952D01*
X54437666Y-63317809D01*
X54485285Y-63508285D01*
X54532904Y-63603523D01*
X54628142Y-63698761D01*
X54771000Y-63746380D01*
X55009095Y-63746380D01*
X54104333Y-62746380D02*
X53437666Y-62746380D01*
X53866238Y-63746380D01*
X58342904Y-64066380D02*
X58342904Y-63066380D01*
X57771476Y-64066380D02*
X58200047Y-63494952D01*
X57771476Y-63066380D02*
X58342904Y-63637809D01*
X45484095Y-44746380D02*
X45484095Y-43746380D01*
X45246000Y-43746380D01*
X45103142Y-43794000D01*
X45007904Y-43889238D01*
X44960285Y-43984476D01*
X44912666Y-44174952D01*
X44912666Y-44317809D01*
X44960285Y-44508285D01*
X45007904Y-44603523D01*
X45103142Y-44698761D01*
X45246000Y-44746380D01*
X45484095Y-44746380D01*
X44055523Y-43746380D02*
X44246000Y-43746380D01*
X44341238Y-43794000D01*
X44388857Y-43841619D01*
X44484095Y-43984476D01*
X44531714Y-44174952D01*
X44531714Y-44555904D01*
X44484095Y-44651142D01*
X44436476Y-44698761D01*
X44341238Y-44746380D01*
X44150761Y-44746380D01*
X44055523Y-44698761D01*
X44007904Y-44651142D01*
X43960285Y-44555904D01*
X43960285Y-44317809D01*
X44007904Y-44222571D01*
X44055523Y-44174952D01*
X44150761Y-44127333D01*
X44341238Y-44127333D01*
X44436476Y-44174952D01*
X44484095Y-44222571D01*
X44531714Y-44317809D01*
X48817904Y-45066380D02*
X48817904Y-44066380D01*
X48246476Y-45066380D02*
X48675047Y-44494952D01*
X48246476Y-44066380D02*
X48817904Y-44637809D01*
X23979095Y-82914380D02*
X23979095Y-81914380D01*
X23741000Y-81914380D01*
X23598142Y-81962000D01*
X23502904Y-82057238D01*
X23455285Y-82152476D01*
X23407666Y-82342952D01*
X23407666Y-82485809D01*
X23455285Y-82676285D01*
X23502904Y-82771523D01*
X23598142Y-82866761D01*
X23741000Y-82914380D01*
X23979095Y-82914380D01*
X22550523Y-82247714D02*
X22550523Y-82914380D01*
X22788619Y-81866761D02*
X23026714Y-82581047D01*
X22407666Y-82581047D01*
X27312904Y-83234380D02*
X27312904Y-82234380D01*
X26741476Y-83234380D02*
X27170047Y-82662952D01*
X26741476Y-82234380D02*
X27312904Y-82805809D01*
X28678095Y-63864380D02*
X28678095Y-62864380D01*
X28440000Y-62864380D01*
X28297142Y-62912000D01*
X28201904Y-63007238D01*
X28154285Y-63102476D01*
X28106666Y-63292952D01*
X28106666Y-63435809D01*
X28154285Y-63626285D01*
X28201904Y-63721523D01*
X28297142Y-63816761D01*
X28440000Y-63864380D01*
X28678095Y-63864380D01*
X27773333Y-62864380D02*
X27154285Y-62864380D01*
X27487619Y-63245333D01*
X27344761Y-63245333D01*
X27249523Y-63292952D01*
X27201904Y-63340571D01*
X27154285Y-63435809D01*
X27154285Y-63673904D01*
X27201904Y-63769142D01*
X27249523Y-63816761D01*
X27344761Y-63864380D01*
X27630476Y-63864380D01*
X27725714Y-63816761D01*
X27773333Y-63769142D01*
X32011904Y-64184380D02*
X32011904Y-63184380D01*
X31440476Y-64184380D02*
X31869047Y-63612952D01*
X31440476Y-63184380D02*
X32011904Y-63755809D01*
X23979095Y-44814380D02*
X23979095Y-43814380D01*
X23741000Y-43814380D01*
X23598142Y-43862000D01*
X23502904Y-43957238D01*
X23455285Y-44052476D01*
X23407666Y-44242952D01*
X23407666Y-44385809D01*
X23455285Y-44576285D01*
X23502904Y-44671523D01*
X23598142Y-44766761D01*
X23741000Y-44814380D01*
X23979095Y-44814380D01*
X23026714Y-43909619D02*
X22979095Y-43862000D01*
X22883857Y-43814380D01*
X22645761Y-43814380D01*
X22550523Y-43862000D01*
X22502904Y-43909619D01*
X22455285Y-44004857D01*
X22455285Y-44100095D01*
X22502904Y-44242952D01*
X23074333Y-44814380D01*
X22455285Y-44814380D01*
X27312904Y-45134380D02*
X27312904Y-44134380D01*
X26741476Y-45134380D02*
X27170047Y-44562952D01*
X26741476Y-44134380D02*
X27312904Y-44705809D01*
M02*
