%FSLAX45Y45*%
G04 Gerber Fmt 4.5, Leading zero omitted, Abs format (unit mm)*
G04 Created by KiCad (PCBNEW (5.1.5)-3) date 2021-12-21 22:31:03*
%MOMM*%
%LPD*%
G04 APERTURE LIST*
%TA.AperFunction,Profile*%
%ADD10C,0.050000*%
%TD*%
%ADD11C,0.200000*%
%ADD12C,0.300000*%
G04 APERTURE END LIST*
D10*
X29311600Y-2578100D02*
X28181300Y-2578100D01*
X29311600Y-2578100D02*
G75*
G02X29959300Y-3225800I0J-647700D01*
G01*
X27533600Y-3225800D02*
G75*
G02X28181300Y-2578100I647700J0D01*
G01*
X27533600Y-9842500D02*
X27533600Y-3225800D01*
X29959300Y-9842500D02*
X29959300Y-3225800D01*
X29311600Y-10490200D02*
X28181300Y-10490200D01*
X28181300Y-10490200D02*
G75*
G02X27533600Y-9842500I0J647700D01*
G01*
X29959300Y-9842500D02*
G75*
G02X29311600Y-10490200I-647700J0D01*
G01*
X29070300Y-1854200D02*
G75*
G02X30238700Y-3022600I0J-1168400D01*
G01*
X30238700Y-9791700D02*
G75*
G02X29083000Y-10947400I-1155700J0D01*
G01*
X3797300Y-10947400D02*
G75*
G02X2641600Y-9791700I0J1155700D01*
G01*
X2641600Y-3022600D02*
G75*
G02X3797300Y-1866900I1155700J0D01*
G01*
X2641600Y-9791700D02*
X2641600Y-3022600D01*
X30238700Y-9791700D02*
X30238700Y-3022600D01*
X29070300Y-1854200D02*
X3797300Y-1866900D01*
X29083000Y-10947400D02*
X3797300Y-10947400D01*
X7137399Y-4472331D02*
X8537399Y-4472331D01*
X7137399Y-3072331D02*
X7137399Y-4472331D01*
X8537399Y-3072331D02*
X7137399Y-3072331D01*
X8537399Y-4472331D02*
X8537399Y-3072331D01*
X5232399Y-4472331D02*
X6632399Y-4472331D01*
X5232399Y-3072331D02*
X5232399Y-4472331D01*
X6632399Y-3072331D02*
X5232399Y-3072331D01*
X6632399Y-4472331D02*
X6632399Y-3072331D01*
X3327399Y-4472331D02*
X4727399Y-4472331D01*
X3327399Y-3072331D02*
X3327399Y-4472331D01*
X4727399Y-3072331D02*
X3327399Y-3072331D01*
X4727399Y-4472331D02*
X4727399Y-3072331D01*
D11*
D12*
X2925528Y-11415614D02*
X2925528Y-11115614D01*
X2996957Y-11115614D01*
X3039814Y-11129900D01*
X3068386Y-11158472D01*
X3082671Y-11187043D01*
X3096957Y-11244186D01*
X3096957Y-11287043D01*
X3082671Y-11344186D01*
X3068386Y-11372757D01*
X3039814Y-11401329D01*
X2996957Y-11415614D01*
X2925528Y-11415614D01*
X3225528Y-11415614D02*
X3225528Y-11215614D01*
X3225528Y-11272757D02*
X3239814Y-11244186D01*
X3254100Y-11229900D01*
X3282671Y-11215614D01*
X3311243Y-11215614D01*
X3411243Y-11415614D02*
X3411243Y-11215614D01*
X3411243Y-11115614D02*
X3396957Y-11129900D01*
X3411243Y-11144186D01*
X3425528Y-11129900D01*
X3411243Y-11115614D01*
X3411243Y-11144186D01*
X3596957Y-11415614D02*
X3568386Y-11401329D01*
X3554100Y-11372757D01*
X3554100Y-11115614D01*
X3754100Y-11415614D02*
X3725528Y-11401329D01*
X3711243Y-11372757D01*
X3711243Y-11115614D01*
X4096957Y-11415614D02*
X4096957Y-11115614D01*
X4196957Y-11329900D01*
X4296957Y-11115614D01*
X4296957Y-11415614D01*
X4568386Y-11415614D02*
X4568386Y-11258471D01*
X4554100Y-11229900D01*
X4525528Y-11215614D01*
X4468386Y-11215614D01*
X4439814Y-11229900D01*
X4568386Y-11401329D02*
X4539814Y-11415614D01*
X4468386Y-11415614D01*
X4439814Y-11401329D01*
X4425528Y-11372757D01*
X4425528Y-11344186D01*
X4439814Y-11315614D01*
X4468386Y-11301329D01*
X4539814Y-11301329D01*
X4568386Y-11287043D01*
X4711243Y-11215614D02*
X4711243Y-11515614D01*
X4711243Y-11229900D02*
X4739814Y-11215614D01*
X4796957Y-11215614D01*
X4825528Y-11229900D01*
X4839814Y-11244186D01*
X4854100Y-11272757D01*
X4854100Y-11358471D01*
X4839814Y-11387043D01*
X4825528Y-11401329D01*
X4796957Y-11415614D01*
X4739814Y-11415614D01*
X4711243Y-11401329D01*
X4982671Y-11387043D02*
X4996957Y-11401329D01*
X4982671Y-11415614D01*
X4968386Y-11401329D01*
X4982671Y-11387043D01*
X4982671Y-11415614D01*
X4982671Y-11229900D02*
X4996957Y-11244186D01*
X4982671Y-11258471D01*
X4968386Y-11244186D01*
X4982671Y-11229900D01*
X4982671Y-11258471D01*
M02*
